M48
; DRILL file {KiCad 9.0.2} date 2025-05-27T01:48:19-0400
; FORMAT={-:-/ absolute / inch / decimal}
; #@! TF.CreationDate,2025-05-27T01:48:19-04:00
; #@! TF.GenerationSoftware,Kicad,Pcbnew,9.0.2
; #@! TF.FileFunction,Plated,1,2,PTH
FMAT,2
INCH
; #@! TA.AperFunction,Plated,PTH,ComponentDrill
T1C0.0118
; #@! TA.AperFunction,Plated,PTH,ViaDrill
T2C0.0157
; #@! TA.AperFunction,Plated,PTH,ComponentDrill
T3C0.0236
; #@! TA.AperFunction,Plated,PTH,ComponentDrill
T4C0.0281
; #@! TA.AperFunction,Plated,PTH,ComponentDrill
T5C0.0295
; #@! TA.AperFunction,Plated,PTH,ComponentDrill
T6C0.0315
; #@! TA.AperFunction,Plated,PTH,ComponentDrill
T7C0.0335
; #@! TA.AperFunction,Plated,PTH,ComponentDrill
T8C0.0354
; #@! TA.AperFunction,Plated,PTH,ComponentDrill
T9C0.0394
; #@! TA.AperFunction,Plated,PTH,ComponentDrill
T10C0.0433
; #@! TA.AperFunction,Plated,PTH,ComponentDrill
T11C0.0472
; #@! TA.AperFunction,Plated,PTH,ComponentDrill
T12C0.0512
%
G90
G05
T1
X6.7968Y-5.0728
X6.7968Y-5.1319
X6.8165Y-5.1023
X6.8361Y-5.0728
X6.8361Y-5.1319
T2
X3.3565Y-3.8361
X3.4176Y-3.6407
X3.6114Y-3.6056
X3.6314Y-3.6612
X3.7843Y-3.7319
X3.7913Y-3.2313
X3.8228Y-3.3232
X3.8254Y-3.7906
X3.9745Y-3.6407
X4.8903Y-3.4779
X4.9413Y-3.5265
X4.9934Y-3.2249
X5.0439Y-3.8013
X5.1383Y-4.3377
X5.1418Y-3.3263
X5.1678Y-3.2465
X5.1678Y-4.2985
X5.1679Y-4.967
X5.3682Y-3.4373
X5.3844Y-3.933
X5.3844Y-4.4353
X5.9459Y-4.4144
X5.9507Y-4.6213
X6.1367Y-4.9338
X6.1498Y-3.4305
X6.1667Y-4.8227
X6.1693Y-3.931
X6.2761Y-3.7828
X6.356Y-4.7133
X6.4487Y-5.1225
X6.4601Y-4.5237
X6.4695Y-4.966
X6.4759Y-4.8393
X6.5728Y-4.0315
X6.6772Y-5.1429
X6.7796Y-4.0383
X6.843Y-4.4879
X7.2617Y-5.0827
X7.5707Y-4.5393
X7.7403Y-3.931
X7.9875Y-3.8208
X8.0444Y-5.1018
X8.1418Y-5.0957
X8.1488Y-5.27
X8.153Y-5.2289
X8.1804Y-4.9257
X8.2081Y-4.4812
X8.293Y-5.2286
X8.5553Y-4.5312
X8.9508Y-3.6425
X8.9586Y-4.6568
X9.2699Y-3.931
X9.3989Y-3.8202
X9.6017Y-4.6718
X9.9499Y-3.8001
X10.0705Y-3.7623
X10.2445Y-4.7677
T4
X6.1933Y-4.9193
X6.2933Y-4.8193
X6.3933Y-4.9193
T5
X7.6181Y-5.0453
X7.6969Y-5.0453
T6
X5.0518Y-4.763
X5.0518Y-4.863
T7
X7.2279Y-5.1594
X7.4247Y-5.1594
T8
X6.5508Y-4.479
X6.6008Y-4.479
X6.6508Y-4.479
X6.7008Y-4.479
X7.2307Y-4.5794
X7.2807Y-4.5794
X7.3307Y-4.5794
X7.3807Y-4.5794
X7.7024Y-3.8038
X7.7524Y-3.8038
X7.8024Y-3.8038
X7.8524Y-3.8038
X7.9067Y-4.5243
X7.9567Y-4.5243
X8.0067Y-4.5243
X8.0567Y-4.5243
X8.4093Y-3.7087
X8.4593Y-3.7087
X8.5093Y-3.7087
X8.5593Y-3.7087
X8.5961Y-4.6339
X8.6461Y-4.6339
X8.6961Y-4.6339
X8.7461Y-4.6339
X9.0941Y-3.7835
X9.1441Y-3.7835
X9.1941Y-3.7835
X9.2441Y-3.7835
X9.2675Y-4.6725
X9.3175Y-4.6725
X9.3675Y-4.6725
X9.4175Y-4.6725
X9.8362Y-3.7218
X9.8862Y-3.7218
X9.9348Y-4.7972
X9.9362Y-3.7218
X9.9848Y-4.7972
X9.9862Y-3.7218
X10.0348Y-4.7972
X10.0848Y-4.7972
T9
X4.1738Y-4.2059
X4.1738Y-4.3059
X4.1738Y-4.4059
X4.1738Y-4.5059
X4.1738Y-4.6059
X4.1738Y-4.7059
X4.1738Y-4.8059
X4.1738Y-4.9059
X4.8825Y-4.2071
X4.8825Y-4.3071
X4.8825Y-4.4071
X4.8825Y-4.5071
X4.8825Y-4.6071
X4.8825Y-4.7071
X4.8825Y-4.8071
X4.8825Y-4.9071
X5.6824Y-4.4065
X5.7824Y-4.4065
X5.8824Y-4.4065
T10
X6.3701Y-3.2539
X6.3701Y-3.4311
X6.3701Y-3.6043
X6.3701Y-3.7815
X6.626Y-3.2539
X6.626Y-3.4311
X6.626Y-3.6043
X6.626Y-3.7815
X6.7913Y-3.2539
X6.7913Y-3.4311
X6.7933Y-3.6043
X6.7933Y-3.7815
X7.0472Y-3.2539
X7.0472Y-3.4311
X7.0492Y-3.6043
X7.0492Y-3.7815
T11
X3.9868Y-4.2957
X3.9868Y-4.4748
X5.0689Y-3.252
X6.9606Y-4.9252
X7.1339Y-4.9252
T12
X6.3169Y-4.1405
X6.4547Y-4.1405
X6.5925Y-4.1405
X6.7303Y-4.1405
X6.9961Y-4.231
X7.1339Y-4.231
X7.2717Y-4.231
X7.4094Y-4.231
X7.4665Y-3.4574
X7.6043Y-3.4574
X7.6752Y-4.1759
X7.7421Y-3.4574
X7.813Y-4.1759
X7.8799Y-3.4574
X7.9508Y-4.1759
X8.0886Y-4.1759
X8.1752Y-3.3622
X8.313Y-3.3622
X8.3563Y-4.2894
X8.4508Y-3.3622
X8.4941Y-4.2894
X8.5886Y-3.3622
X8.6319Y-4.2894
X8.7697Y-4.2894
X8.8563Y-3.4357
X8.9941Y-3.4357
X9.0335Y-4.3287
X9.1319Y-3.4357
X9.1713Y-4.3287
X9.2697Y-3.4357
X9.3091Y-4.3287
X9.4469Y-4.3287
X9.5945Y-3.3622
X9.7022Y-4.4562
X9.7323Y-3.3622
X9.84Y-4.4562
X9.8701Y-3.3622
X9.9778Y-4.4562
X10.0079Y-3.3622
X10.1156Y-4.4562
T3
G00X7.1885Y-5.2795
M15
G01X7.1885Y-5.2519
M16
G05
G00X7.4641Y-5.2519
M15
G01X7.4641Y-5.2795
M16
G05
M30
