M48
; DRILL file {KiCad 9.0.2} date 2025-07-23T22:01:27-0400
; FORMAT={-:-/ absolute / inch / decimal}
; #@! TF.CreationDate,2025-07-23T22:01:27-04:00
; #@! TF.GenerationSoftware,Kicad,Pcbnew,9.0.2
; #@! TF.FileFunction,Plated,1,2,PTH
FMAT,2
INCH
; #@! TA.AperFunction,Plated,PTH,ComponentDrill
T1C0.0118
; #@! TA.AperFunction,Plated,PTH,ViaDrill
T2C0.0157
; #@! TA.AperFunction,Plated,PTH,ComponentDrill
T3C0.0236
; #@! TA.AperFunction,Plated,PTH,ComponentDrill
T4C0.0281
; #@! TA.AperFunction,Plated,PTH,ComponentDrill
T5C0.0295
; #@! TA.AperFunction,Plated,PTH,ComponentDrill
T6C0.0315
; #@! TA.AperFunction,Plated,PTH,ComponentDrill
T7C0.0335
; #@! TA.AperFunction,Plated,PTH,ComponentDrill
T8C0.0354
; #@! TA.AperFunction,Plated,PTH,ComponentDrill
T9C0.0394
; #@! TA.AperFunction,Plated,PTH,ComponentDrill
T10C0.0433
; #@! TA.AperFunction,Plated,PTH,ComponentDrill
T11C0.0472
; #@! TA.AperFunction,Plated,PTH,ComponentDrill
T12C0.0512
%
G90
G05
T1
X6.7968Y-5.0728
X6.7968Y-5.1319
X6.8165Y-5.1023
X6.8361Y-5.0728
X6.8361Y-5.1319
T2
X3.624Y-3.3317
X3.7894Y-3.3179
X4.1752Y-3.376
X4.5177Y-4.2362
X4.5177Y-4.3307
X4.8996Y-4.0669
X5.9154Y-3.4193
X6.0768Y-3.9783
X6.1043Y-3.9291
X6.2539Y-3.7106
X6.2559Y-3.9291
X6.5394Y-3.9587
X6.6102Y-5.122
X6.6752Y-4.9252
X6.7106Y-3.3386
X6.7992Y-4.3465
X6.8263Y-4.969
X6.9193Y-4.9902
X6.9193Y-5.1024
X6.9291Y-4.8002
X6.9311Y-5.1555
X7.0394Y-4.9862
X7.061Y-5.0925
X7.4764Y-4.4409
X7.9488Y-3.6673
X8.0413Y-5.19
X8.1535Y-4.3858
X8.187Y-4.9429
X8.4587Y-4.7638
X8.6575Y-3.5709
X8.8406Y-4.498
X9.3406Y-3.6457
X9.5157Y-4.5354
X10.0827Y-3.5787
X10.1831Y-4.6102
T4
X3.823Y-4.2803
X3.923Y-4.1803
X4.023Y-4.2803
T5
X7.6181Y-5.0453
X7.6969Y-5.0453
T6
X4.0256Y-4.7539
X4.0256Y-4.8539
T7
X7.2279Y-5.1594
X7.4247Y-5.1594
T8
X6.5508Y-4.479
X6.6008Y-4.479
X6.6508Y-4.479
X6.7008Y-4.479
X7.2307Y-4.5794
X7.2807Y-4.5794
X7.3307Y-4.5794
X7.3807Y-4.5794
X7.7024Y-3.8038
X7.7524Y-3.8038
X7.8024Y-3.8038
X7.8524Y-3.8038
X7.9067Y-4.5243
X7.9567Y-4.5243
X8.0067Y-4.5243
X8.0567Y-4.5243
X8.4093Y-3.7087
X8.4593Y-3.7087
X8.5093Y-3.7087
X8.5593Y-3.7087
X8.5961Y-4.6339
X8.6461Y-4.6339
X8.6961Y-4.6339
X8.7461Y-4.6339
X9.0941Y-3.7835
X9.1441Y-3.7835
X9.1941Y-3.7835
X9.2441Y-3.7835
X9.2675Y-4.6725
X9.3175Y-4.6725
X9.3675Y-4.6725
X9.4175Y-4.6725
X9.8362Y-3.7218
X9.8862Y-3.7218
X9.9348Y-4.7972
X9.9362Y-3.7218
X9.9848Y-4.7972
X9.9862Y-3.7218
X10.0348Y-4.7972
X10.0848Y-4.7972
T9
X4.1752Y-4.2047
X4.1752Y-4.3047
X4.1752Y-4.4047
X4.1752Y-4.5047
X4.1752Y-4.6047
X4.1752Y-4.7047
X4.1752Y-4.8047
X4.1752Y-4.9047
X4.8839Y-4.2051
X4.8839Y-4.3051
X4.8839Y-4.4051
X4.8839Y-4.5051
X4.8839Y-4.6051
X4.8839Y-4.7051
X4.8839Y-4.8051
X4.8839Y-4.9051
X5.3079Y-3.2657
X5.3079Y-3.3657
X5.3079Y-3.4657
X5.3079Y-3.5657
X5.3079Y-3.6657
X5.3079Y-3.7657
X5.3079Y-3.8657
X5.3079Y-3.9657
X5.3079Y-4.0657
X5.3079Y-4.1657
X5.3079Y-4.2657
X5.3079Y-4.3657
X5.3079Y-4.4657
X5.3079Y-4.5657
X5.3079Y-4.6657
X5.3079Y-4.7657
X5.3079Y-4.8657
X5.3079Y-4.9657
X5.3079Y-5.0657
X5.3079Y-5.1657
X6.0079Y-3.2657
X6.0079Y-3.3657
X6.0079Y-3.4657
X6.0079Y-3.5657
X6.0079Y-3.6657
X6.0079Y-3.7657
X6.0079Y-3.8657
X6.0079Y-3.9657
X6.0079Y-4.0657
X6.0079Y-4.1657
X6.0079Y-4.2657
X6.0079Y-4.3657
X6.0079Y-4.4657
X6.0079Y-4.5657
X6.0079Y-4.6657
X6.0079Y-4.7657
X6.0079Y-4.8657
X6.0079Y-4.9657
X6.0079Y-5.0657
X6.0079Y-5.1657
T10
X6.3701Y-3.2539
X6.3701Y-3.4311
X6.3701Y-3.6043
X6.3701Y-3.7815
X6.626Y-3.2539
X6.626Y-3.4311
X6.626Y-3.6043
X6.626Y-3.7815
X6.7913Y-3.2539
X6.7913Y-3.4311
X6.7933Y-3.6043
X6.7933Y-3.7815
X7.0472Y-3.2539
X7.0472Y-3.4311
X7.0492Y-3.6043
X7.0492Y-3.7815
T11
X5.0669Y-3.25
X5.0768Y-4.3071
X5.0768Y-4.4685
X6.1949Y-3.2461
X6.2106Y-3.5098
X7.2461Y-3.4016
X7.2461Y-4.939
X7.3878Y-4.939
T12
X6.3169Y-4.1405
X6.4547Y-4.1405
X6.5925Y-4.1405
X6.7303Y-4.1405
X6.9961Y-4.231
X7.1339Y-4.231
X7.2717Y-4.231
X7.4094Y-4.231
X7.4665Y-3.4574
X7.6043Y-3.4574
X7.6752Y-4.1759
X7.7421Y-3.4574
X7.813Y-4.1759
X7.8799Y-3.4574
X7.9508Y-4.1759
X8.0886Y-4.1759
X8.1752Y-3.3622
X8.313Y-3.3622
X8.3563Y-4.2894
X8.4508Y-3.3622
X8.4941Y-4.2894
X8.5886Y-3.3622
X8.6319Y-4.2894
X8.7697Y-4.2894
X8.8563Y-3.4357
X8.9941Y-3.4357
X9.0335Y-4.3287
X9.1319Y-3.4357
X9.1713Y-4.3287
X9.2697Y-3.4357
X9.3091Y-4.3287
X9.4469Y-4.3287
X9.5945Y-3.3622
X9.7022Y-4.4562
X9.7323Y-3.3622
X9.84Y-4.4562
X9.8701Y-3.3622
X9.9778Y-4.4562
X10.0079Y-3.3622
X10.1156Y-4.4562
T3
G00X7.1885Y-5.2795
M15
G01X7.1885Y-5.2519
M16
G05
G00X7.4641Y-5.2519
M15
G01X7.4641Y-5.2795
M16
G05
M30
