%TF.GenerationSoftware,KiCad,Pcbnew,9.0.2*%
%TF.CreationDate,2025-05-27T01:48:19-04:00*%
%TF.ProjectId,JF-Clock_template_rpi,4a462d43-6c6f-4636-9b5f-74656d706c61,rev?*%
%TF.SameCoordinates,Original*%
%TF.FileFunction,Legend,Top*%
%TF.FilePolarity,Positive*%
%FSLAX46Y46*%
G04 Gerber Fmt 4.6, Leading zero omitted, Abs format (unit mm)*
G04 Created by KiCad (PCBNEW 9.0.2) date 2025-05-27 01:48:19*
%MOMM*%
%LPD*%
G01*
G04 APERTURE LIST*
G04 Aperture macros list*
%AMRoundRect*
0 Rectangle with rounded corners*
0 $1 Rounding radius*
0 $2 $3 $4 $5 $6 $7 $8 $9 X,Y pos of 4 corners*
0 Add a 4 corners polygon primitive as box body*
4,1,4,$2,$3,$4,$5,$6,$7,$8,$9,$2,$3,0*
0 Add four circle primitives for the rounded corners*
1,1,$1+$1,$2,$3*
1,1,$1+$1,$4,$5*
1,1,$1+$1,$6,$7*
1,1,$1+$1,$8,$9*
0 Add four rect primitives between the rounded corners*
20,1,$1+$1,$2,$3,$4,$5,0*
20,1,$1+$1,$4,$5,$6,$7,0*
20,1,$1+$1,$6,$7,$8,$9,0*
20,1,$1+$1,$8,$9,$2,$3,0*%
%AMFreePoly0*
4,1,37,0.800000,0.796148,0.878414,0.796148,1.032228,0.765552,1.177117,0.705537,1.307515,0.618408,1.418408,0.507515,1.505537,0.377117,1.565552,0.232228,1.596148,0.078414,1.596148,-0.078414,1.565552,-0.232228,1.505537,-0.377117,1.418408,-0.507515,1.307515,-0.618408,1.177117,-0.705537,1.032228,-0.765552,0.878414,-0.796148,0.800000,-0.796148,0.800000,-0.800000,-1.400000,-0.800000,
-1.403843,-0.796157,-1.439018,-0.796157,-1.511114,-0.766294,-1.566294,-0.711114,-1.596157,-0.639018,-1.596157,-0.603843,-1.600000,-0.600000,-1.600000,0.600000,-1.596157,0.603843,-1.596157,0.639018,-1.566294,0.711114,-1.511114,0.766294,-1.439018,0.796157,-1.403843,0.796157,-1.400000,0.800000,0.800000,0.800000,0.800000,0.796148,0.800000,0.796148,$1*%
%AMFreePoly1*
4,1,37,1.403843,0.796157,1.439018,0.796157,1.511114,0.766294,1.566294,0.711114,1.596157,0.639018,1.596157,0.603843,1.600000,0.600000,1.600000,-0.600000,1.596157,-0.603843,1.596157,-0.639018,1.566294,-0.711114,1.511114,-0.766294,1.439018,-0.796157,1.403843,-0.796157,1.400000,-0.800000,-0.800000,-0.800000,-0.800000,-0.796148,-0.878414,-0.796148,-1.032228,-0.765552,-1.177117,-0.705537,
-1.307515,-0.618408,-1.418408,-0.507515,-1.505537,-0.377117,-1.565552,-0.232228,-1.596148,-0.078414,-1.596148,0.078414,-1.565552,0.232228,-1.505537,0.377117,-1.418408,0.507515,-1.307515,0.618408,-1.177117,0.705537,-1.032228,0.765552,-0.878414,0.796148,-0.800000,0.796148,-0.800000,0.800000,1.400000,0.800000,1.403843,0.796157,1.403843,0.796157,$1*%
G04 Aperture macros list end*
%ADD10C,0.150000*%
%ADD11C,0.120000*%
%ADD12C,0.127000*%
%ADD13C,0.200000*%
%ADD14R,1.000000X1.500000*%
%ADD15R,1.700000X1.700000*%
%ADD16C,1.700000*%
%ADD17RoundRect,0.250000X0.250000X0.475000X-0.250000X0.475000X-0.250000X-0.475000X0.250000X-0.475000X0*%
%ADD18R,1.070000X1.800000*%
%ADD19O,1.070000X1.800000*%
%ADD20RoundRect,0.250000X-0.475000X0.250000X-0.475000X-0.250000X0.475000X-0.250000X0.475000X0.250000X0*%
%ADD21C,2.000000*%
%ADD22R,2.500000X2.500000*%
%ADD23RoundRect,0.250000X-1.050000X-1.050000X1.050000X-1.050000X1.050000X1.050000X-1.050000X1.050000X0*%
%ADD24C,2.600000*%
%ADD25RoundRect,0.250000X-0.450000X0.262500X-0.450000X-0.262500X0.450000X-0.262500X0.450000X0.262500X0*%
%ADD26RoundRect,0.250000X-0.262500X-0.450000X0.262500X-0.450000X0.262500X0.450000X-0.262500X0.450000X0*%
%ADD27C,2.200000*%
%ADD28RoundRect,0.102000X-0.611000X-0.611000X0.611000X-0.611000X0.611000X0.611000X-0.611000X0.611000X0*%
%ADD29C,1.426000*%
%ADD30C,1.850000*%
%ADD31FreePoly0,0.000000*%
%ADD32RoundRect,0.800000X-0.800000X-0.000010X0.800000X-0.000010X0.800000X0.000010X-0.800000X0.000010X0*%
%ADD33FreePoly1,0.000000*%
%ADD34RoundRect,0.200000X-0.600000X-0.600000X0.600000X-0.600000X0.600000X0.600000X-0.600000X0.600000X0*%
%ADD35C,1.600000*%
%ADD36C,4.300000*%
%ADD37RoundRect,0.250000X-0.350000X-0.625000X0.350000X-0.625000X0.350000X0.625000X-0.350000X0.625000X0*%
%ADD38O,1.200000X1.750000*%
%ADD39R,2.600000X3.600000*%
%ADD40RoundRect,0.150000X0.150000X-0.587500X0.150000X0.587500X-0.150000X0.587500X-0.150000X-0.587500X0*%
%ADD41RoundRect,0.250000X0.262500X0.450000X-0.262500X0.450000X-0.262500X-0.450000X0.262500X-0.450000X0*%
%ADD42RoundRect,0.218750X0.218750X0.256250X-0.218750X0.256250X-0.218750X-0.256250X0.218750X-0.256250X0*%
%ADD43R,0.280000X0.280000*%
%ADD44O,0.850000X0.280000*%
%ADD45C,0.600000*%
%ADD46R,0.680000X1.050000*%
%ADD47R,0.260000X0.500000*%
%ADD48R,0.280000X0.700000*%
%ADD49R,1.650000X2.400000*%
%ADD50R,0.400000X1.350000*%
%ADD51O,1.200000X1.900000*%
%ADD52R,1.200000X1.900000*%
%ADD53C,1.450000*%
%ADD54R,1.500000X1.900000*%
%ADD55RoundRect,0.150000X-0.875000X-0.150000X0.875000X-0.150000X0.875000X0.150000X-0.875000X0.150000X0*%
%ADD56RoundRect,0.250000X1.000000X0.650000X-1.000000X0.650000X-1.000000X-0.650000X1.000000X-0.650000X0*%
%ADD57C,1.400000*%
%ADD58RoundRect,0.150000X0.150000X-0.512500X0.150000X0.512500X-0.150000X0.512500X-0.150000X-0.512500X0*%
%ADD59RoundRect,0.250000X-0.250000X-0.475000X0.250000X-0.475000X0.250000X0.475000X-0.250000X0.475000X0*%
G04 APERTURE END LIST*
D10*
X260382500Y-80000000D02*
X260385622Y-81649997D01*
X260386757Y-82249996D02*
X260389878Y-83899993D01*
X260391013Y-84499992D02*
X260394135Y-86149989D01*
X260395270Y-86749988D02*
X260398392Y-88399985D01*
X260399527Y-88999984D02*
X260402649Y-90649981D01*
X260403784Y-91249980D02*
X260406905Y-92899977D01*
X260408040Y-93499976D02*
X260411162Y-95149973D01*
X260412297Y-95749972D02*
X260415419Y-97399969D01*
X260416554Y-97999968D02*
X260417500Y-98500000D01*
X185750000Y-79900000D02*
X187399999Y-79902211D01*
X187999998Y-79903015D02*
X189649996Y-79905226D01*
X190249996Y-79906030D02*
X191899994Y-79908240D01*
X192499994Y-79909044D02*
X194149992Y-79911255D01*
X194749992Y-79912059D02*
X196399990Y-79914270D01*
X196999990Y-79915074D02*
X198649988Y-79917285D01*
X199249988Y-79918089D02*
X200899986Y-79920299D01*
X201499986Y-79921103D02*
X203149984Y-79923314D01*
X203749984Y-79924118D02*
X205399982Y-79926329D01*
X205999982Y-79927133D02*
X207649980Y-79929344D01*
X208249980Y-79930148D02*
X209899978Y-79932359D01*
X210499978Y-79933162D02*
X212149976Y-79935373D01*
X212749976Y-79936177D02*
X214399974Y-79938388D01*
X214999974Y-79939192D02*
X216649972Y-79941403D01*
X217249972Y-79942207D02*
X218899970Y-79944418D01*
X219499970Y-79945222D02*
X221149968Y-79947432D01*
X221749968Y-79948236D02*
X223399966Y-79950447D01*
X223999966Y-79951251D02*
X225649964Y-79953462D01*
X226249964Y-79954266D02*
X227899962Y-79956477D01*
X228499962Y-79957281D02*
X230149960Y-79959491D01*
X230749960Y-79960295D02*
X232399958Y-79962506D01*
X232999958Y-79963310D02*
X234649956Y-79965521D01*
X235249956Y-79966325D02*
X236899954Y-79968536D01*
X237499954Y-79969340D02*
X239149952Y-79971551D01*
X239749952Y-79972354D02*
X241399950Y-79974565D01*
X241999950Y-79975369D02*
X243649948Y-79977580D01*
X244249947Y-79978384D02*
X245899946Y-79980595D01*
X246499945Y-79981399D02*
X248149944Y-79983610D01*
X248749943Y-79984414D02*
X250399942Y-79986624D01*
X250999941Y-79987428D02*
X252649940Y-79989639D01*
X253249939Y-79990443D02*
X254899938Y-79992654D01*
X255499937Y-79993458D02*
X257149936Y-79995669D01*
X257749935Y-79996473D02*
X259399934Y-79998683D01*
X259999933Y-79999487D02*
X260382500Y-79999999D01*
X185750000Y-98350000D02*
X185750000Y-96700000D01*
X185750000Y-96100000D02*
X185750000Y-94450000D01*
X185750000Y-93850000D02*
X185750000Y-92200000D01*
X185750000Y-91600000D02*
X185750000Y-89950000D01*
X185750000Y-89350000D02*
X185750000Y-87700000D01*
X185750000Y-87100000D02*
X185750000Y-85450000D01*
X185750000Y-84850000D02*
X185750000Y-83200000D01*
X185750000Y-82600000D02*
X185750000Y-80950000D01*
X185750000Y-80350000D02*
X185750000Y-79900000D01*
X156430000Y-100392500D02*
X156460000Y-100392500D01*
X157060000Y-100392500D02*
X157090000Y-100392500D01*
X157690000Y-100392500D02*
X157720000Y-100392500D01*
X158320000Y-100392500D02*
X158350000Y-100392500D01*
X158950000Y-100392500D02*
X158980000Y-100392500D01*
X159580000Y-100392500D02*
X159610000Y-100392500D01*
X160210000Y-100392500D02*
X160240000Y-100392500D01*
X160840000Y-100392500D02*
X160870000Y-100392500D01*
X161470000Y-100392500D02*
X161500000Y-100392500D01*
X162100000Y-100392500D02*
X162130000Y-100392500D01*
X162730000Y-100392500D02*
X162760000Y-100392500D01*
X163360000Y-100392500D02*
X163390000Y-100392500D01*
X163990000Y-100392500D02*
X164020000Y-100392500D01*
X164620000Y-100392500D02*
X164650000Y-100392500D01*
X165250000Y-100392500D02*
X165280000Y-100392500D01*
X165880000Y-100392500D02*
X165910000Y-100392500D01*
X166510000Y-100392500D02*
X166540000Y-100392500D01*
X167140000Y-100392500D02*
X167170000Y-100392500D01*
X167770000Y-100392500D02*
X167800000Y-100392500D01*
X168400000Y-100392500D02*
X168430000Y-100392500D01*
X169030000Y-100392500D02*
X169060000Y-100392500D01*
X169660000Y-100392500D02*
X169690000Y-100392500D01*
X170290000Y-100392500D02*
X170320000Y-100392500D01*
X170920000Y-100392500D02*
X170950000Y-100392500D01*
X171550000Y-100392500D02*
X171580000Y-100392500D01*
X172180000Y-100392500D02*
X172210000Y-100392500D01*
X172810000Y-100392500D02*
X172840000Y-100392500D01*
X173440000Y-100392500D02*
X173470000Y-100392500D01*
X174070000Y-100392500D02*
X174100000Y-100392500D01*
X174700000Y-100392500D02*
X174730000Y-100392500D01*
X175330000Y-100392500D02*
X175360000Y-100392500D01*
X175960000Y-100392500D02*
X175990000Y-100392500D01*
X176590000Y-100392500D02*
X176620000Y-100392500D01*
X177220000Y-100392500D02*
X177250000Y-100392500D01*
X177850000Y-100392500D02*
X177880000Y-100392500D01*
X178480000Y-100392500D02*
X178510000Y-100392500D01*
X179110000Y-100392500D02*
X179140000Y-100392500D01*
X179740000Y-100392500D02*
X179770000Y-100392500D01*
X180370000Y-100392500D02*
X180400000Y-100392500D01*
X181000000Y-100392500D02*
X181030000Y-100392500D01*
X181630000Y-100392500D02*
X181660000Y-100392500D01*
X182260000Y-100392500D02*
X182290000Y-100392500D01*
X182890000Y-100392500D02*
X182920000Y-100392500D01*
X183520000Y-100392500D02*
X183550000Y-100392500D01*
X184150000Y-100392500D02*
X184180000Y-100392500D01*
X184780000Y-100392500D02*
X184810000Y-100392500D01*
X185410000Y-100392500D02*
X185440000Y-100392500D01*
X186040000Y-100392500D02*
X186070000Y-100392500D01*
X186670000Y-100392500D02*
X186700000Y-100392500D01*
X187300000Y-100392500D02*
X187330000Y-100392500D01*
X187930000Y-100392500D02*
X187960000Y-100392500D01*
X188560000Y-100392500D02*
X188590000Y-100392500D01*
X189190000Y-100392500D02*
X189220000Y-100392500D01*
X189820000Y-100392500D02*
X189850000Y-100392500D01*
X190450000Y-100392500D02*
X190480000Y-100392500D01*
X191080000Y-100392500D02*
X191110000Y-100392500D01*
X191710000Y-100392500D02*
X191740000Y-100392500D01*
X192340000Y-100392500D02*
X192370000Y-100392500D01*
X192970000Y-100392500D02*
X193000000Y-100392500D01*
X193600000Y-100392500D02*
X193630000Y-100392500D01*
X194230000Y-100392500D02*
X194260000Y-100392500D01*
X194860000Y-100392500D02*
X194890000Y-100392500D01*
X195490000Y-100392500D02*
X195520000Y-100392500D01*
X196120000Y-100392500D02*
X196150000Y-100392500D01*
X196750000Y-100392500D02*
X196780000Y-100392500D01*
X197380000Y-100392500D02*
X197410000Y-100392500D01*
X198010000Y-100392500D02*
X198040000Y-100392500D01*
X198640000Y-100392500D02*
X198670000Y-100392500D01*
X199270000Y-100392500D02*
X199300000Y-100392500D01*
X199900000Y-100392500D02*
X199930000Y-100392500D01*
X200530000Y-100392500D02*
X200560000Y-100392500D01*
X201160000Y-100392500D02*
X201190000Y-100392500D01*
X201790000Y-100392500D02*
X201820000Y-100392500D01*
X202420000Y-100392500D02*
X202450000Y-100392500D01*
X203050000Y-100392500D02*
X203080000Y-100392500D01*
X203680000Y-100392500D02*
X203710000Y-100392500D01*
X204310000Y-100392500D02*
X204340000Y-100392500D01*
X204940000Y-100392500D02*
X204970000Y-100392500D01*
X205570000Y-100392500D02*
X205600000Y-100392500D01*
X206200000Y-100392500D02*
X206230000Y-100392500D01*
X206830000Y-100392500D02*
X206860000Y-100392500D01*
X207460000Y-100392500D02*
X207490000Y-100392500D01*
X208090000Y-100392500D02*
X208120000Y-100392500D01*
X208720000Y-100392500D02*
X208750000Y-100392500D01*
X209350000Y-100392500D02*
X209380000Y-100392500D01*
X209980000Y-100392500D02*
X210010000Y-100392500D01*
X210610000Y-100392500D02*
X210640000Y-100392500D01*
X211240000Y-100392500D02*
X211270000Y-100392500D01*
X211870000Y-100392500D02*
X211900000Y-100392500D01*
X212500000Y-100392500D02*
X212530000Y-100392500D01*
X213130000Y-100392500D02*
X213160000Y-100392500D01*
X213760000Y-100392500D02*
X213790000Y-100392500D01*
X214390000Y-100392500D02*
X214420000Y-100392500D01*
X215020000Y-100392500D02*
X215050000Y-100392500D01*
X215650000Y-100392500D02*
X215680000Y-100392500D01*
X216280000Y-100392500D02*
X216310000Y-100392500D01*
X216910000Y-100392500D02*
X216940000Y-100392500D01*
X217540000Y-100392500D02*
X217570000Y-100392500D01*
X218170000Y-100392500D02*
X218200000Y-100392500D01*
X218800000Y-100392500D02*
X218830000Y-100392500D01*
X219430000Y-100392500D02*
X219460000Y-100392500D01*
X220060000Y-100392500D02*
X220090000Y-100392500D01*
X220690000Y-100392500D02*
X220720000Y-100392500D01*
X221320000Y-100392500D02*
X221350000Y-100392500D01*
X221950000Y-100392500D02*
X221980000Y-100392500D01*
X222580000Y-100392500D02*
X222610000Y-100392500D01*
X223210000Y-100392500D02*
X223240000Y-100392500D01*
X223840000Y-100392500D02*
X223870000Y-100392500D01*
X224470000Y-100392500D02*
X224500000Y-100392500D01*
X225100000Y-100392500D02*
X225130000Y-100392500D01*
X225730000Y-100392500D02*
X225760000Y-100392500D01*
X226360000Y-100392500D02*
X226390000Y-100392500D01*
X226990000Y-100392500D02*
X227020000Y-100392500D01*
X227620000Y-100392500D02*
X227650000Y-100392500D01*
X228250000Y-100392500D02*
X228280000Y-100392500D01*
X228880000Y-100392500D02*
X228910000Y-100392500D01*
X229510000Y-100392500D02*
X229540000Y-100392500D01*
X230140000Y-100392500D02*
X230170000Y-100392500D01*
X230770000Y-100392500D02*
X230800000Y-100392500D01*
X231400000Y-100392500D02*
X231430000Y-100392500D01*
X232030000Y-100392500D02*
X232060000Y-100392500D01*
X232660000Y-100392500D02*
X232690000Y-100392500D01*
X233290000Y-100392500D02*
X233320000Y-100392500D01*
X233920000Y-100392500D02*
X233950000Y-100392500D01*
X234550000Y-100392500D02*
X234580000Y-100392500D01*
X235180000Y-100392500D02*
X235210000Y-100392500D01*
X235810000Y-100392500D02*
X235840000Y-100392500D01*
X236440000Y-100392500D02*
X236470000Y-100392500D01*
X237070000Y-100392500D02*
X237100000Y-100392500D01*
X237700000Y-100392500D02*
X237730000Y-100392500D01*
X238330000Y-100392500D02*
X238360000Y-100392500D01*
X238960000Y-100392500D02*
X238990000Y-100392500D01*
X239590000Y-100392500D02*
X239620000Y-100392500D01*
X240220000Y-100392500D02*
X240250000Y-100392500D01*
X240850000Y-100392500D02*
X240880000Y-100392500D01*
X241480000Y-100392500D02*
X241510000Y-100392500D01*
X242110000Y-100392500D02*
X242140000Y-100392500D01*
X242740000Y-100392500D02*
X242770000Y-100392500D01*
X243370000Y-100392500D02*
X243400000Y-100392500D01*
X244000000Y-100392500D02*
X244030000Y-100392500D01*
X244630000Y-100392500D02*
X244660000Y-100392500D01*
X245260000Y-100392500D02*
X245290000Y-100392500D01*
X245890000Y-100392500D02*
X245920000Y-100392500D01*
X246520000Y-100392500D02*
X246550000Y-100392500D01*
X247150000Y-100392500D02*
X247180000Y-100392500D01*
X247780000Y-100392500D02*
X247810000Y-100392500D01*
X248410000Y-100392500D02*
X248440000Y-100392500D01*
X249040000Y-100392500D02*
X249070000Y-100392500D01*
X249670000Y-100392500D02*
X249700000Y-100392500D01*
X250300000Y-100392500D02*
X250330000Y-100392500D01*
X250930000Y-100392500D02*
X250960000Y-100392500D01*
X251560000Y-100392500D02*
X251590000Y-100392500D01*
X252190000Y-100392500D02*
X252220000Y-100392500D01*
X252820000Y-100392500D02*
X252850000Y-100392500D01*
X253450000Y-100392500D02*
X253480000Y-100392500D01*
X254080000Y-100392500D02*
X254110000Y-100392500D01*
X254710000Y-100392500D02*
X254740000Y-100392500D01*
X255340000Y-100392500D02*
X255370000Y-100392500D01*
X255970000Y-100392500D02*
X256000000Y-100392500D01*
X256600000Y-100392500D02*
X256630000Y-100392500D01*
X257230000Y-100392500D02*
X257260000Y-100392500D01*
X257860000Y-100392500D02*
X257890000Y-100392500D01*
X258490000Y-100392500D02*
X258520000Y-100392500D01*
X259120000Y-100392500D02*
X259150000Y-100392500D01*
X259750000Y-100392500D02*
X259780000Y-100392500D01*
X260380000Y-100392500D02*
X260400000Y-100392500D01*
X260400000Y-100392500D02*
X260400000Y-100422500D01*
X260400000Y-101022500D02*
X260400000Y-101052500D01*
X260400000Y-101652500D02*
X260400000Y-101682500D01*
X260400000Y-102282500D02*
X260400000Y-102312500D01*
X260400000Y-102912500D02*
X260400000Y-102942500D01*
X260400000Y-103542500D02*
X260400000Y-103572500D01*
X260400000Y-104172500D02*
X260400000Y-104202500D01*
X260400000Y-104802500D02*
X260400000Y-104832500D01*
X260400000Y-105432500D02*
X260400000Y-105462500D01*
X260400000Y-106062500D02*
X260400000Y-106092500D01*
X260400000Y-106692500D02*
X260400000Y-106722500D01*
X260400000Y-107322500D02*
X260400000Y-107352500D01*
X260400000Y-107952500D02*
X260400000Y-107982500D01*
X260400000Y-108582500D02*
X260400000Y-108612500D01*
X260400000Y-109212500D02*
X260400000Y-109242500D01*
X260400000Y-109842500D02*
X260400000Y-109872500D01*
X260400000Y-110472500D02*
X260400000Y-110502500D01*
X260400000Y-111102500D02*
X260400000Y-111132500D01*
X260400000Y-111732500D02*
X260400000Y-111762500D01*
X260400000Y-112362500D02*
X260400000Y-112392500D01*
X260400000Y-112992500D02*
X260400000Y-113022500D01*
X260400000Y-113622500D02*
X260400000Y-113652500D01*
X260400000Y-114252500D02*
X260400000Y-114282500D01*
X260400000Y-114882500D02*
X260400000Y-114912500D01*
X260400000Y-115512500D02*
X260400000Y-115542500D01*
X260400000Y-116142500D02*
X260400000Y-116172500D01*
X260400000Y-116772500D02*
X260400000Y-116802500D01*
X260400000Y-117402500D02*
X260400000Y-117432500D01*
X260400000Y-118032500D02*
X260400000Y-118062500D01*
X260400000Y-118662500D02*
X260400000Y-118692500D01*
X260400000Y-119292500D02*
X260400000Y-119322500D01*
X260400000Y-119922500D02*
X260400000Y-119952500D01*
X260400000Y-120552500D02*
X260400000Y-120582500D01*
X260400000Y-120662500D02*
X260370000Y-120662500D01*
X259770000Y-120662500D02*
X259740000Y-120662500D01*
X259140000Y-120662500D02*
X259110000Y-120662500D01*
X258510000Y-120662500D02*
X258480000Y-120662500D01*
X257880000Y-120662500D02*
X257850000Y-120662500D01*
X257250000Y-120662500D02*
X257220000Y-120662500D01*
X256620000Y-120662500D02*
X256590000Y-120662500D01*
X255990000Y-120662500D02*
X255960000Y-120662500D01*
X255360000Y-120662500D02*
X255330000Y-120662500D01*
X254730000Y-120662500D02*
X254700000Y-120662500D01*
X254100000Y-120662500D02*
X254070000Y-120662500D01*
X253470000Y-120662500D02*
X253440000Y-120662500D01*
X252840000Y-120662500D02*
X252810000Y-120662500D01*
X252210000Y-120662500D02*
X252180000Y-120662500D01*
X251580000Y-120662500D02*
X251550000Y-120662500D01*
X250950000Y-120662500D02*
X250920000Y-120662500D01*
X250320000Y-120662500D02*
X250290000Y-120662500D01*
X249690000Y-120662500D02*
X249660000Y-120662500D01*
X249060000Y-120662500D02*
X249030000Y-120662500D01*
X248430000Y-120662500D02*
X248400000Y-120662500D01*
X247800000Y-120662500D02*
X247770000Y-120662500D01*
X247170000Y-120662500D02*
X247140000Y-120662500D01*
X246540000Y-120662500D02*
X246510000Y-120662500D01*
X245910000Y-120662500D02*
X245880000Y-120662500D01*
X245280000Y-120662500D02*
X245250000Y-120662500D01*
X244650000Y-120662500D02*
X244620000Y-120662500D01*
X244020000Y-120662500D02*
X243990000Y-120662500D01*
X243390000Y-120662500D02*
X243360000Y-120662500D01*
X242760000Y-120662500D02*
X242730000Y-120662500D01*
X242130000Y-120662500D02*
X242100000Y-120662500D01*
X241500000Y-120662500D02*
X241470000Y-120662500D01*
X240870000Y-120662500D02*
X240840000Y-120662500D01*
X240240000Y-120662500D02*
X240210000Y-120662500D01*
X239610000Y-120662500D02*
X239580000Y-120662500D01*
X238980000Y-120662500D02*
X238950000Y-120662500D01*
X238350000Y-120662500D02*
X238320000Y-120662500D01*
X237720000Y-120662500D02*
X237690000Y-120662500D01*
X237090000Y-120662500D02*
X237060000Y-120662500D01*
X236460000Y-120662500D02*
X236430000Y-120662500D01*
X235830000Y-120662500D02*
X235800000Y-120662500D01*
X235200000Y-120662500D02*
X235170000Y-120662500D01*
X234570000Y-120662500D02*
X234540000Y-120662500D01*
X233940000Y-120662500D02*
X233910000Y-120662500D01*
X233310000Y-120662500D02*
X233280000Y-120662500D01*
X232680000Y-120662500D02*
X232650000Y-120662500D01*
X232050000Y-120662500D02*
X232020000Y-120662500D01*
X231420000Y-120662500D02*
X231390000Y-120662500D01*
X230790000Y-120662500D02*
X230760000Y-120662500D01*
X230160000Y-120662500D02*
X230130000Y-120662500D01*
X229530000Y-120662500D02*
X229500000Y-120662500D01*
X228900000Y-120662500D02*
X228870000Y-120662500D01*
X228270000Y-120662500D02*
X228240000Y-120662500D01*
X227640000Y-120662500D02*
X227610000Y-120662500D01*
X227010000Y-120662500D02*
X226980000Y-120662500D01*
X226380000Y-120662500D02*
X226350000Y-120662500D01*
X225750000Y-120662500D02*
X225720000Y-120662500D01*
X225120000Y-120662500D02*
X225090000Y-120662500D01*
X224490000Y-120662500D02*
X224460000Y-120662500D01*
X223860000Y-120662500D02*
X223830000Y-120662500D01*
X223230000Y-120662500D02*
X223200000Y-120662500D01*
X222600000Y-120662500D02*
X222570000Y-120662500D01*
X221970000Y-120662500D02*
X221940000Y-120662500D01*
X221340000Y-120662500D02*
X221310000Y-120662500D01*
X220710000Y-120662500D02*
X220680000Y-120662500D01*
X220080000Y-120662500D02*
X220050000Y-120662500D01*
X219450000Y-120662500D02*
X219420000Y-120662500D01*
X218820000Y-120662500D02*
X218790000Y-120662500D01*
X218190000Y-120662500D02*
X218160000Y-120662500D01*
X217560000Y-120662500D02*
X217530000Y-120662500D01*
X216930000Y-120662500D02*
X216900000Y-120662500D01*
X216300000Y-120662500D02*
X216270000Y-120662500D01*
X215670000Y-120662500D02*
X215640000Y-120662500D01*
X215040000Y-120662500D02*
X215010000Y-120662500D01*
X214410000Y-120662500D02*
X214380000Y-120662500D01*
X213780000Y-120662500D02*
X213750000Y-120662500D01*
X213150000Y-120662500D02*
X213120000Y-120662500D01*
X212520000Y-120662500D02*
X212490000Y-120662500D01*
X211890000Y-120662500D02*
X211860000Y-120662500D01*
X211260000Y-120662500D02*
X211230000Y-120662500D01*
X210630000Y-120662500D02*
X210600000Y-120662500D01*
X210000000Y-120662500D02*
X209970000Y-120662500D01*
X209370000Y-120662500D02*
X209340000Y-120662500D01*
X208740000Y-120662500D02*
X208710000Y-120662500D01*
X208110000Y-120662500D02*
X208080000Y-120662500D01*
X207480000Y-120662500D02*
X207450000Y-120662500D01*
X206850000Y-120662500D02*
X206820000Y-120662500D01*
X206220000Y-120662500D02*
X206190000Y-120662500D01*
X205590000Y-120662500D02*
X205560000Y-120662500D01*
X204960000Y-120662500D02*
X204930000Y-120662500D01*
X204330000Y-120662500D02*
X204300000Y-120662500D01*
X203700000Y-120662500D02*
X203670000Y-120662500D01*
X203070000Y-120662500D02*
X203040000Y-120662500D01*
X202440000Y-120662500D02*
X202410000Y-120662500D01*
X201810000Y-120662500D02*
X201780000Y-120662500D01*
X201180000Y-120662500D02*
X201150000Y-120662500D01*
X200550000Y-120662500D02*
X200520000Y-120662500D01*
X199920000Y-120662500D02*
X199890000Y-120662500D01*
X199290000Y-120662500D02*
X199260000Y-120662500D01*
X198660000Y-120662500D02*
X198630000Y-120662500D01*
X198030000Y-120662500D02*
X198000000Y-120662500D01*
X197400000Y-120662500D02*
X197370000Y-120662500D01*
X196770000Y-120662500D02*
X196740000Y-120662500D01*
X196140000Y-120662500D02*
X196110000Y-120662500D01*
X195510000Y-120662500D02*
X195480000Y-120662500D01*
X194880000Y-120662500D02*
X194850000Y-120662500D01*
X194250000Y-120662500D02*
X194220000Y-120662500D01*
X193620000Y-120662500D02*
X193590000Y-120662500D01*
X192990000Y-120662500D02*
X192960000Y-120662500D01*
X192360000Y-120662500D02*
X192330000Y-120662500D01*
X191730000Y-120662500D02*
X191700000Y-120662500D01*
X191100000Y-120662500D02*
X191070000Y-120662500D01*
X190470000Y-120662500D02*
X190440000Y-120662500D01*
X189840000Y-120662500D02*
X189810000Y-120662500D01*
X189210000Y-120662500D02*
X189180000Y-120662500D01*
X188580000Y-120662500D02*
X188550000Y-120662500D01*
X187950000Y-120662500D02*
X187920000Y-120662500D01*
X187320000Y-120662500D02*
X187290000Y-120662500D01*
X186690000Y-120662500D02*
X186660000Y-120662500D01*
X186060000Y-120662500D02*
X186030000Y-120662500D01*
X185430000Y-120662500D02*
X185400000Y-120662500D01*
X184800000Y-120662500D02*
X184770000Y-120662500D01*
X184170000Y-120662500D02*
X184140000Y-120662500D01*
X183540000Y-120662500D02*
X183510000Y-120662500D01*
X182910000Y-120662500D02*
X182880000Y-120662500D01*
X182280000Y-120662500D02*
X182250000Y-120662500D01*
X181650000Y-120662500D02*
X181620000Y-120662500D01*
X181020000Y-120662500D02*
X180990000Y-120662500D01*
X180390000Y-120662500D02*
X180360000Y-120662500D01*
X179760000Y-120662500D02*
X179730000Y-120662500D01*
X179130000Y-120662500D02*
X179100000Y-120662500D01*
X178500000Y-120662500D02*
X178470000Y-120662500D01*
X177870000Y-120662500D02*
X177840000Y-120662500D01*
X177240000Y-120662500D02*
X177210000Y-120662500D01*
X176610000Y-120662500D02*
X176580000Y-120662500D01*
X175980000Y-120662500D02*
X175950000Y-120662500D01*
X175350000Y-120662500D02*
X175320000Y-120662500D01*
X174720000Y-120662500D02*
X174690000Y-120662500D01*
X174090000Y-120662500D02*
X174060000Y-120662500D01*
X173460000Y-120662500D02*
X173430000Y-120662500D01*
X172830000Y-120662500D02*
X172800000Y-120662500D01*
X172200000Y-120662500D02*
X172170000Y-120662500D01*
X171570000Y-120662500D02*
X171540000Y-120662500D01*
X170940000Y-120662500D02*
X170910000Y-120662500D01*
X170310000Y-120662500D02*
X170280000Y-120662500D01*
X169680000Y-120662500D02*
X169650000Y-120662500D01*
X169050000Y-120662500D02*
X169020000Y-120662500D01*
X168420000Y-120662500D02*
X168390000Y-120662500D01*
X167790000Y-120662500D02*
X167760000Y-120662500D01*
X167160000Y-120662500D02*
X167130000Y-120662500D01*
X166530000Y-120662500D02*
X166500000Y-120662500D01*
X165900000Y-120662500D02*
X165870000Y-120662500D01*
X165270000Y-120662500D02*
X165240000Y-120662500D01*
X164640000Y-120662500D02*
X164610000Y-120662500D01*
X164010000Y-120662500D02*
X163980000Y-120662500D01*
X163380000Y-120662500D02*
X163350000Y-120662500D01*
X162750000Y-120662500D02*
X162720000Y-120662500D01*
X162120000Y-120662500D02*
X162090000Y-120662500D01*
X161490000Y-120662500D02*
X161460000Y-120662500D01*
X160860000Y-120662500D02*
X160830000Y-120662500D01*
X160230000Y-120662500D02*
X160200000Y-120662500D01*
X159600000Y-120662500D02*
X159570000Y-120662500D01*
X158970000Y-120662500D02*
X158940000Y-120662500D01*
X158340000Y-120662500D02*
X158310000Y-120662500D01*
X157710000Y-120662500D02*
X157680000Y-120662500D01*
X157080000Y-120662500D02*
X157050000Y-120662500D01*
X156450000Y-120662500D02*
X156430000Y-120662500D01*
X156430000Y-120662500D02*
X156430000Y-120632500D01*
X156430000Y-120032500D02*
X156430000Y-120002500D01*
X156430000Y-119402500D02*
X156430000Y-119372500D01*
X156430000Y-118772500D02*
X156430000Y-118742500D01*
X156430000Y-118142500D02*
X156430000Y-118112500D01*
X156430000Y-117512500D02*
X156430000Y-117482500D01*
X156430000Y-116882500D02*
X156430000Y-116852500D01*
X156430000Y-116252500D02*
X156430000Y-116222500D01*
X156430000Y-115622500D02*
X156430000Y-115592500D01*
X156430000Y-114992500D02*
X156430000Y-114962500D01*
X156430000Y-114362500D02*
X156430000Y-114332500D01*
X156430000Y-113732500D02*
X156430000Y-113702500D01*
X156430000Y-113102500D02*
X156430000Y-113072500D01*
X156430000Y-112472500D02*
X156430000Y-112442500D01*
X156430000Y-111842500D02*
X156430000Y-111812500D01*
X156430000Y-111212500D02*
X156430000Y-111182500D01*
X156430000Y-110582500D02*
X156430000Y-110552500D01*
X156430000Y-109952500D02*
X156430000Y-109922500D01*
X156430000Y-109322500D02*
X156430000Y-109292500D01*
X156430000Y-108692500D02*
X156430000Y-108662500D01*
X156430000Y-108062500D02*
X156430000Y-108032500D01*
X156430000Y-107432500D02*
X156430000Y-107402500D01*
X156430000Y-106802500D02*
X156430000Y-106772500D01*
X156430000Y-106172500D02*
X156430000Y-106142500D01*
X156430000Y-105542500D02*
X156430000Y-105512500D01*
X156430000Y-104912500D02*
X156430000Y-104882500D01*
X156430000Y-104282500D02*
X156430000Y-104252500D01*
X156430000Y-103652500D02*
X156430000Y-103622500D01*
X156430000Y-103022500D02*
X156430000Y-102992500D01*
X156430000Y-102392500D02*
X156430000Y-102362500D01*
X156430000Y-101762500D02*
X156430000Y-101732500D01*
X156430000Y-101132500D02*
X156430000Y-101102500D01*
X156430000Y-100502500D02*
X156430000Y-100472500D01*
X187186779Y-97569819D02*
X187186779Y-96569819D01*
X187186779Y-97046009D02*
X187758207Y-97046009D01*
X187758207Y-97569819D02*
X187758207Y-96569819D01*
X188424874Y-96569819D02*
X188615350Y-96569819D01*
X188615350Y-96569819D02*
X188710588Y-96617438D01*
X188710588Y-96617438D02*
X188805826Y-96712676D01*
X188805826Y-96712676D02*
X188853445Y-96903152D01*
X188853445Y-96903152D02*
X188853445Y-97236485D01*
X188853445Y-97236485D02*
X188805826Y-97426961D01*
X188805826Y-97426961D02*
X188710588Y-97522200D01*
X188710588Y-97522200D02*
X188615350Y-97569819D01*
X188615350Y-97569819D02*
X188424874Y-97569819D01*
X188424874Y-97569819D02*
X188329636Y-97522200D01*
X188329636Y-97522200D02*
X188234398Y-97426961D01*
X188234398Y-97426961D02*
X188186779Y-97236485D01*
X188186779Y-97236485D02*
X188186779Y-96903152D01*
X188186779Y-96903152D02*
X188234398Y-96712676D01*
X188234398Y-96712676D02*
X188329636Y-96617438D01*
X188329636Y-96617438D02*
X188424874Y-96569819D01*
X189282017Y-96569819D02*
X189282017Y-97379342D01*
X189282017Y-97379342D02*
X189329636Y-97474580D01*
X189329636Y-97474580D02*
X189377255Y-97522200D01*
X189377255Y-97522200D02*
X189472493Y-97569819D01*
X189472493Y-97569819D02*
X189662969Y-97569819D01*
X189662969Y-97569819D02*
X189758207Y-97522200D01*
X189758207Y-97522200D02*
X189805826Y-97474580D01*
X189805826Y-97474580D02*
X189853445Y-97379342D01*
X189853445Y-97379342D02*
X189853445Y-96569819D01*
X190901064Y-97569819D02*
X190567731Y-97093628D01*
X190329636Y-97569819D02*
X190329636Y-96569819D01*
X190329636Y-96569819D02*
X190710588Y-96569819D01*
X190710588Y-96569819D02*
X190805826Y-96617438D01*
X190805826Y-96617438D02*
X190853445Y-96665057D01*
X190853445Y-96665057D02*
X190901064Y-96760295D01*
X190901064Y-96760295D02*
X190901064Y-96903152D01*
X190901064Y-96903152D02*
X190853445Y-96998390D01*
X190853445Y-96998390D02*
X190805826Y-97046009D01*
X190805826Y-97046009D02*
X190710588Y-97093628D01*
X190710588Y-97093628D02*
X190329636Y-97093628D01*
X191282017Y-97522200D02*
X191424874Y-97569819D01*
X191424874Y-97569819D02*
X191662969Y-97569819D01*
X191662969Y-97569819D02*
X191758207Y-97522200D01*
X191758207Y-97522200D02*
X191805826Y-97474580D01*
X191805826Y-97474580D02*
X191853445Y-97379342D01*
X191853445Y-97379342D02*
X191853445Y-97284104D01*
X191853445Y-97284104D02*
X191805826Y-97188866D01*
X191805826Y-97188866D02*
X191758207Y-97141247D01*
X191758207Y-97141247D02*
X191662969Y-97093628D01*
X191662969Y-97093628D02*
X191472493Y-97046009D01*
X191472493Y-97046009D02*
X191377255Y-96998390D01*
X191377255Y-96998390D02*
X191329636Y-96950771D01*
X191329636Y-96950771D02*
X191282017Y-96855533D01*
X191282017Y-96855533D02*
X191282017Y-96760295D01*
X191282017Y-96760295D02*
X191329636Y-96665057D01*
X191329636Y-96665057D02*
X191377255Y-96617438D01*
X191377255Y-96617438D02*
X191472493Y-96569819D01*
X191472493Y-96569819D02*
X191710588Y-96569819D01*
X191710588Y-96569819D02*
X191853445Y-96617438D01*
X180799585Y-90327255D02*
X181549585Y-90327255D01*
X181549585Y-90327255D02*
X181549585Y-90612969D01*
X181549585Y-90612969D02*
X181513871Y-90684398D01*
X181513871Y-90684398D02*
X181478157Y-90720112D01*
X181478157Y-90720112D02*
X181406728Y-90755826D01*
X181406728Y-90755826D02*
X181299585Y-90755826D01*
X181299585Y-90755826D02*
X181228157Y-90720112D01*
X181228157Y-90720112D02*
X181192442Y-90684398D01*
X181192442Y-90684398D02*
X181156728Y-90612969D01*
X181156728Y-90612969D02*
X181156728Y-90327255D01*
X180799585Y-91434398D02*
X180799585Y-91077255D01*
X180799585Y-91077255D02*
X181549585Y-91077255D01*
X181013871Y-91648684D02*
X181013871Y-92005827D01*
X180799585Y-91577255D02*
X181549585Y-91827255D01*
X181549585Y-91827255D02*
X180799585Y-92077255D01*
X181156728Y-92470112D02*
X180799585Y-92470112D01*
X181549585Y-92220112D02*
X181156728Y-92470112D01*
X181156728Y-92470112D02*
X181549585Y-92720112D01*
X181013871Y-93505827D02*
X181013871Y-93862970D01*
X180799585Y-93434398D02*
X181549585Y-93684398D01*
X181549585Y-93684398D02*
X180799585Y-93934398D01*
X181549585Y-94184398D02*
X180942442Y-94184398D01*
X180942442Y-94184398D02*
X180871014Y-94220112D01*
X180871014Y-94220112D02*
X180835300Y-94255827D01*
X180835300Y-94255827D02*
X180799585Y-94327255D01*
X180799585Y-94327255D02*
X180799585Y-94470112D01*
X180799585Y-94470112D02*
X180835300Y-94541541D01*
X180835300Y-94541541D02*
X180871014Y-94577255D01*
X180871014Y-94577255D02*
X180942442Y-94612969D01*
X180942442Y-94612969D02*
X181549585Y-94612969D01*
X180799585Y-94970112D02*
X181549585Y-94970112D01*
X181549585Y-94970112D02*
X181549585Y-95148683D01*
X181549585Y-95148683D02*
X181513871Y-95255826D01*
X181513871Y-95255826D02*
X181442442Y-95327255D01*
X181442442Y-95327255D02*
X181371014Y-95362969D01*
X181371014Y-95362969D02*
X181228157Y-95398683D01*
X181228157Y-95398683D02*
X181121014Y-95398683D01*
X181121014Y-95398683D02*
X180978157Y-95362969D01*
X180978157Y-95362969D02*
X180906728Y-95327255D01*
X180906728Y-95327255D02*
X180835300Y-95255826D01*
X180835300Y-95255826D02*
X180799585Y-95148683D01*
X180799585Y-95148683D02*
X180799585Y-94970112D01*
X180799585Y-95720112D02*
X181549585Y-95720112D01*
X181549585Y-96220112D02*
X181549585Y-96362969D01*
X181549585Y-96362969D02*
X181513871Y-96434398D01*
X181513871Y-96434398D02*
X181442442Y-96505826D01*
X181442442Y-96505826D02*
X181299585Y-96541541D01*
X181299585Y-96541541D02*
X181049585Y-96541541D01*
X181049585Y-96541541D02*
X180906728Y-96505826D01*
X180906728Y-96505826D02*
X180835300Y-96434398D01*
X180835300Y-96434398D02*
X180799585Y-96362969D01*
X180799585Y-96362969D02*
X180799585Y-96220112D01*
X180799585Y-96220112D02*
X180835300Y-96148684D01*
X180835300Y-96148684D02*
X180906728Y-96077255D01*
X180906728Y-96077255D02*
X181049585Y-96041541D01*
X181049585Y-96041541D02*
X181299585Y-96041541D01*
X181299585Y-96041541D02*
X181442442Y-96077255D01*
X181442442Y-96077255D02*
X181513871Y-96148684D01*
X181513871Y-96148684D02*
X181549585Y-96220112D01*
X159127800Y-81439160D02*
X159080180Y-81582017D01*
X159080180Y-81582017D02*
X159080180Y-81820112D01*
X159080180Y-81820112D02*
X159127800Y-81915350D01*
X159127800Y-81915350D02*
X159175419Y-81962969D01*
X159175419Y-81962969D02*
X159270657Y-82010588D01*
X159270657Y-82010588D02*
X159365895Y-82010588D01*
X159365895Y-82010588D02*
X159461133Y-81962969D01*
X159461133Y-81962969D02*
X159508752Y-81915350D01*
X159508752Y-81915350D02*
X159556371Y-81820112D01*
X159556371Y-81820112D02*
X159603990Y-81629636D01*
X159603990Y-81629636D02*
X159651609Y-81534398D01*
X159651609Y-81534398D02*
X159699228Y-81486779D01*
X159699228Y-81486779D02*
X159794466Y-81439160D01*
X159794466Y-81439160D02*
X159889704Y-81439160D01*
X159889704Y-81439160D02*
X159984942Y-81486779D01*
X159984942Y-81486779D02*
X160032561Y-81534398D01*
X160032561Y-81534398D02*
X160080180Y-81629636D01*
X160080180Y-81629636D02*
X160080180Y-81867731D01*
X160080180Y-81867731D02*
X160032561Y-82010588D01*
X159603990Y-82439160D02*
X159603990Y-82772493D01*
X159080180Y-82915350D02*
X159080180Y-82439160D01*
X159080180Y-82439160D02*
X160080180Y-82439160D01*
X160080180Y-82439160D02*
X160080180Y-82915350D01*
X160080180Y-83201065D02*
X160080180Y-83772493D01*
X159080180Y-83486779D02*
X160080180Y-83486779D01*
X159080180Y-84867732D02*
X160080180Y-84867732D01*
X159603990Y-84867732D02*
X159603990Y-85439160D01*
X159080180Y-85439160D02*
X160080180Y-85439160D01*
X112202279Y-112329819D02*
X112202279Y-111329819D01*
X112202279Y-111329819D02*
X112440374Y-111329819D01*
X112440374Y-111329819D02*
X112583231Y-111377438D01*
X112583231Y-111377438D02*
X112678469Y-111472676D01*
X112678469Y-111472676D02*
X112726088Y-111567914D01*
X112726088Y-111567914D02*
X112773707Y-111758390D01*
X112773707Y-111758390D02*
X112773707Y-111901247D01*
X112773707Y-111901247D02*
X112726088Y-112091723D01*
X112726088Y-112091723D02*
X112678469Y-112186961D01*
X112678469Y-112186961D02*
X112583231Y-112282200D01*
X112583231Y-112282200D02*
X112440374Y-112329819D01*
X112440374Y-112329819D02*
X112202279Y-112329819D01*
X113535612Y-111806009D02*
X113202279Y-111806009D01*
X113202279Y-112329819D02*
X113202279Y-111329819D01*
X113202279Y-111329819D02*
X113678469Y-111329819D01*
X114630850Y-112329819D02*
X114297517Y-111853628D01*
X114059422Y-112329819D02*
X114059422Y-111329819D01*
X114059422Y-111329819D02*
X114440374Y-111329819D01*
X114440374Y-111329819D02*
X114535612Y-111377438D01*
X114535612Y-111377438D02*
X114583231Y-111425057D01*
X114583231Y-111425057D02*
X114630850Y-111520295D01*
X114630850Y-111520295D02*
X114630850Y-111663152D01*
X114630850Y-111663152D02*
X114583231Y-111758390D01*
X114583231Y-111758390D02*
X114535612Y-111806009D01*
X114535612Y-111806009D02*
X114440374Y-111853628D01*
X114440374Y-111853628D02*
X114059422Y-111853628D01*
X115249898Y-111329819D02*
X115345136Y-111329819D01*
X115345136Y-111329819D02*
X115440374Y-111377438D01*
X115440374Y-111377438D02*
X115487993Y-111425057D01*
X115487993Y-111425057D02*
X115535612Y-111520295D01*
X115535612Y-111520295D02*
X115583231Y-111710771D01*
X115583231Y-111710771D02*
X115583231Y-111948866D01*
X115583231Y-111948866D02*
X115535612Y-112139342D01*
X115535612Y-112139342D02*
X115487993Y-112234580D01*
X115487993Y-112234580D02*
X115440374Y-112282200D01*
X115440374Y-112282200D02*
X115345136Y-112329819D01*
X115345136Y-112329819D02*
X115249898Y-112329819D01*
X115249898Y-112329819D02*
X115154660Y-112282200D01*
X115154660Y-112282200D02*
X115107041Y-112234580D01*
X115107041Y-112234580D02*
X115059422Y-112139342D01*
X115059422Y-112139342D02*
X115011803Y-111948866D01*
X115011803Y-111948866D02*
X115011803Y-111710771D01*
X115011803Y-111710771D02*
X115059422Y-111520295D01*
X115059422Y-111520295D02*
X115107041Y-111425057D01*
X115107041Y-111425057D02*
X115154660Y-111377438D01*
X115154660Y-111377438D02*
X115249898Y-111329819D01*
X115964184Y-111425057D02*
X116011803Y-111377438D01*
X116011803Y-111377438D02*
X116107041Y-111329819D01*
X116107041Y-111329819D02*
X116345136Y-111329819D01*
X116345136Y-111329819D02*
X116440374Y-111377438D01*
X116440374Y-111377438D02*
X116487993Y-111425057D01*
X116487993Y-111425057D02*
X116535612Y-111520295D01*
X116535612Y-111520295D02*
X116535612Y-111615533D01*
X116535612Y-111615533D02*
X116487993Y-111758390D01*
X116487993Y-111758390D02*
X115916565Y-112329819D01*
X115916565Y-112329819D02*
X116535612Y-112329819D01*
X117011803Y-112329819D02*
X117202279Y-112329819D01*
X117202279Y-112329819D02*
X117297517Y-112282200D01*
X117297517Y-112282200D02*
X117345136Y-112234580D01*
X117345136Y-112234580D02*
X117440374Y-112091723D01*
X117440374Y-112091723D02*
X117487993Y-111901247D01*
X117487993Y-111901247D02*
X117487993Y-111520295D01*
X117487993Y-111520295D02*
X117440374Y-111425057D01*
X117440374Y-111425057D02*
X117392755Y-111377438D01*
X117392755Y-111377438D02*
X117297517Y-111329819D01*
X117297517Y-111329819D02*
X117107041Y-111329819D01*
X117107041Y-111329819D02*
X117011803Y-111377438D01*
X117011803Y-111377438D02*
X116964184Y-111425057D01*
X116964184Y-111425057D02*
X116916565Y-111520295D01*
X116916565Y-111520295D02*
X116916565Y-111758390D01*
X116916565Y-111758390D02*
X116964184Y-111853628D01*
X116964184Y-111853628D02*
X117011803Y-111901247D01*
X117011803Y-111901247D02*
X117107041Y-111948866D01*
X117107041Y-111948866D02*
X117297517Y-111948866D01*
X117297517Y-111948866D02*
X117392755Y-111901247D01*
X117392755Y-111901247D02*
X117440374Y-111853628D01*
X117440374Y-111853628D02*
X117487993Y-111758390D01*
X117964184Y-112329819D02*
X118154660Y-112329819D01*
X118154660Y-112329819D02*
X118249898Y-112282200D01*
X118249898Y-112282200D02*
X118297517Y-112234580D01*
X118297517Y-112234580D02*
X118392755Y-112091723D01*
X118392755Y-112091723D02*
X118440374Y-111901247D01*
X118440374Y-111901247D02*
X118440374Y-111520295D01*
X118440374Y-111520295D02*
X118392755Y-111425057D01*
X118392755Y-111425057D02*
X118345136Y-111377438D01*
X118345136Y-111377438D02*
X118249898Y-111329819D01*
X118249898Y-111329819D02*
X118059422Y-111329819D01*
X118059422Y-111329819D02*
X117964184Y-111377438D01*
X117964184Y-111377438D02*
X117916565Y-111425057D01*
X117916565Y-111425057D02*
X117868946Y-111520295D01*
X117868946Y-111520295D02*
X117868946Y-111758390D01*
X117868946Y-111758390D02*
X117916565Y-111853628D01*
X117916565Y-111853628D02*
X117964184Y-111901247D01*
X117964184Y-111901247D02*
X118059422Y-111948866D01*
X118059422Y-111948866D02*
X118249898Y-111948866D01*
X118249898Y-111948866D02*
X118345136Y-111901247D01*
X118345136Y-111901247D02*
X118392755Y-111853628D01*
X118392755Y-111853628D02*
X118440374Y-111758390D01*
X157389160Y-119994295D02*
X157389160Y-119194295D01*
X157389160Y-119194295D02*
X157655826Y-119765723D01*
X157655826Y-119765723D02*
X157922493Y-119194295D01*
X157922493Y-119194295D02*
X157922493Y-119994295D01*
X158303446Y-119994295D02*
X158303446Y-119194295D01*
X158684398Y-119994295D02*
X158684398Y-119194295D01*
X158684398Y-119194295D02*
X159141541Y-119994295D01*
X159141541Y-119994295D02*
X159141541Y-119194295D01*
X159522493Y-119194295D02*
X159522493Y-119841914D01*
X159522493Y-119841914D02*
X159560588Y-119918104D01*
X159560588Y-119918104D02*
X159598683Y-119956200D01*
X159598683Y-119956200D02*
X159674874Y-119994295D01*
X159674874Y-119994295D02*
X159827255Y-119994295D01*
X159827255Y-119994295D02*
X159903445Y-119956200D01*
X159903445Y-119956200D02*
X159941540Y-119918104D01*
X159941540Y-119918104D02*
X159979636Y-119841914D01*
X159979636Y-119841914D02*
X159979636Y-119194295D01*
X160246302Y-119194295D02*
X160703445Y-119194295D01*
X160474873Y-119994295D02*
X160474873Y-119194295D01*
X160970112Y-119575247D02*
X161236778Y-119575247D01*
X161351064Y-119994295D02*
X160970112Y-119994295D01*
X160970112Y-119994295D02*
X160970112Y-119194295D01*
X160970112Y-119194295D02*
X161351064Y-119194295D01*
X161655826Y-119956200D02*
X161770112Y-119994295D01*
X161770112Y-119994295D02*
X161960588Y-119994295D01*
X161960588Y-119994295D02*
X162036779Y-119956200D01*
X162036779Y-119956200D02*
X162074874Y-119918104D01*
X162074874Y-119918104D02*
X162112969Y-119841914D01*
X162112969Y-119841914D02*
X162112969Y-119765723D01*
X162112969Y-119765723D02*
X162074874Y-119689533D01*
X162074874Y-119689533D02*
X162036779Y-119651438D01*
X162036779Y-119651438D02*
X161960588Y-119613342D01*
X161960588Y-119613342D02*
X161808207Y-119575247D01*
X161808207Y-119575247D02*
X161732017Y-119537152D01*
X161732017Y-119537152D02*
X161693922Y-119499057D01*
X161693922Y-119499057D02*
X161655826Y-119422866D01*
X161655826Y-119422866D02*
X161655826Y-119346676D01*
X161655826Y-119346676D02*
X161693922Y-119270485D01*
X161693922Y-119270485D02*
X161732017Y-119232390D01*
X161732017Y-119232390D02*
X161808207Y-119194295D01*
X161808207Y-119194295D02*
X161998684Y-119194295D01*
X161998684Y-119194295D02*
X162112969Y-119232390D01*
X159377255Y-129800414D02*
X159377255Y-129050414D01*
X159377255Y-129050414D02*
X159555826Y-129050414D01*
X159555826Y-129050414D02*
X159662969Y-129086128D01*
X159662969Y-129086128D02*
X159734398Y-129157557D01*
X159734398Y-129157557D02*
X159770112Y-129228985D01*
X159770112Y-129228985D02*
X159805826Y-129371842D01*
X159805826Y-129371842D02*
X159805826Y-129478985D01*
X159805826Y-129478985D02*
X159770112Y-129621842D01*
X159770112Y-129621842D02*
X159734398Y-129693271D01*
X159734398Y-129693271D02*
X159662969Y-129764700D01*
X159662969Y-129764700D02*
X159555826Y-129800414D01*
X159555826Y-129800414D02*
X159377255Y-129800414D01*
X160127255Y-129800414D02*
X160127255Y-129050414D01*
X160484398Y-129800414D02*
X160484398Y-129050414D01*
X160484398Y-129050414D02*
X160734398Y-129586128D01*
X160734398Y-129586128D02*
X160984398Y-129050414D01*
X160984398Y-129050414D02*
X160984398Y-129800414D01*
X161341541Y-129800414D02*
X161341541Y-129050414D01*
X161341541Y-129050414D02*
X161591541Y-129586128D01*
X161591541Y-129586128D02*
X161841541Y-129050414D01*
X161841541Y-129050414D02*
X161841541Y-129800414D01*
X162198684Y-129407557D02*
X162448684Y-129407557D01*
X162555827Y-129800414D02*
X162198684Y-129800414D01*
X162198684Y-129800414D02*
X162198684Y-129050414D01*
X162198684Y-129050414D02*
X162555827Y-129050414D01*
X163305826Y-129800414D02*
X163055826Y-129443271D01*
X162877255Y-129800414D02*
X162877255Y-129050414D01*
X162877255Y-129050414D02*
X163162969Y-129050414D01*
X163162969Y-129050414D02*
X163234398Y-129086128D01*
X163234398Y-129086128D02*
X163270112Y-129121842D01*
X163270112Y-129121842D02*
X163305826Y-129193271D01*
X163305826Y-129193271D02*
X163305826Y-129300414D01*
X163305826Y-129300414D02*
X163270112Y-129371842D01*
X163270112Y-129371842D02*
X163234398Y-129407557D01*
X163234398Y-129407557D02*
X163162969Y-129443271D01*
X163162969Y-129443271D02*
X162877255Y-129443271D01*
X180777800Y-81439160D02*
X180730180Y-81582017D01*
X180730180Y-81582017D02*
X180730180Y-81820112D01*
X180730180Y-81820112D02*
X180777800Y-81915350D01*
X180777800Y-81915350D02*
X180825419Y-81962969D01*
X180825419Y-81962969D02*
X180920657Y-82010588D01*
X180920657Y-82010588D02*
X181015895Y-82010588D01*
X181015895Y-82010588D02*
X181111133Y-81962969D01*
X181111133Y-81962969D02*
X181158752Y-81915350D01*
X181158752Y-81915350D02*
X181206371Y-81820112D01*
X181206371Y-81820112D02*
X181253990Y-81629636D01*
X181253990Y-81629636D02*
X181301609Y-81534398D01*
X181301609Y-81534398D02*
X181349228Y-81486779D01*
X181349228Y-81486779D02*
X181444466Y-81439160D01*
X181444466Y-81439160D02*
X181539704Y-81439160D01*
X181539704Y-81439160D02*
X181634942Y-81486779D01*
X181634942Y-81486779D02*
X181682561Y-81534398D01*
X181682561Y-81534398D02*
X181730180Y-81629636D01*
X181730180Y-81629636D02*
X181730180Y-81867731D01*
X181730180Y-81867731D02*
X181682561Y-82010588D01*
X181253990Y-82439160D02*
X181253990Y-82772493D01*
X180730180Y-82915350D02*
X180730180Y-82439160D01*
X180730180Y-82439160D02*
X181730180Y-82439160D01*
X181730180Y-82439160D02*
X181730180Y-82915350D01*
X181730180Y-83201065D02*
X181730180Y-83772493D01*
X180730180Y-83486779D02*
X181730180Y-83486779D01*
X180730180Y-84867732D02*
X181730180Y-84867732D01*
X181730180Y-84867732D02*
X181015895Y-85201065D01*
X181015895Y-85201065D02*
X181730180Y-85534398D01*
X181730180Y-85534398D02*
X180730180Y-85534398D01*
X188254666Y-127701819D02*
X188254666Y-128416104D01*
X188254666Y-128416104D02*
X188207047Y-128558961D01*
X188207047Y-128558961D02*
X188111809Y-128654200D01*
X188111809Y-128654200D02*
X187968952Y-128701819D01*
X187968952Y-128701819D02*
X187873714Y-128701819D01*
X188730857Y-128701819D02*
X188730857Y-127701819D01*
X188730857Y-127701819D02*
X189111809Y-127701819D01*
X189111809Y-127701819D02*
X189207047Y-127749438D01*
X189207047Y-127749438D02*
X189254666Y-127797057D01*
X189254666Y-127797057D02*
X189302285Y-127892295D01*
X189302285Y-127892295D02*
X189302285Y-128035152D01*
X189302285Y-128035152D02*
X189254666Y-128130390D01*
X189254666Y-128130390D02*
X189207047Y-128178009D01*
X189207047Y-128178009D02*
X189111809Y-128225628D01*
X189111809Y-128225628D02*
X188730857Y-128225628D01*
X190254666Y-128701819D02*
X189683238Y-128701819D01*
X189968952Y-128701819D02*
X189968952Y-127701819D01*
X189968952Y-127701819D02*
X189873714Y-127844676D01*
X189873714Y-127844676D02*
X189778476Y-127939914D01*
X189778476Y-127939914D02*
X189683238Y-127987533D01*
X123205976Y-103934819D02*
X123205976Y-104649104D01*
X123205976Y-104649104D02*
X123158357Y-104791961D01*
X123158357Y-104791961D02*
X123063119Y-104887200D01*
X123063119Y-104887200D02*
X122920262Y-104934819D01*
X122920262Y-104934819D02*
X122825024Y-104934819D01*
X124205976Y-104934819D02*
X123634548Y-104934819D01*
X123920262Y-104934819D02*
X123920262Y-103934819D01*
X123920262Y-103934819D02*
X123825024Y-104077676D01*
X123825024Y-104077676D02*
X123729786Y-104172914D01*
X123729786Y-104172914D02*
X123634548Y-104220533D01*
X125063119Y-104268152D02*
X125063119Y-104934819D01*
X124825024Y-103887200D02*
X124586929Y-104601485D01*
X124586929Y-104601485D02*
X125205976Y-104601485D01*
X247750238Y-119554819D02*
X247750238Y-118554819D01*
X247750238Y-118554819D02*
X247988333Y-118554819D01*
X247988333Y-118554819D02*
X248131190Y-118602438D01*
X248131190Y-118602438D02*
X248226428Y-118697676D01*
X248226428Y-118697676D02*
X248274047Y-118792914D01*
X248274047Y-118792914D02*
X248321666Y-118983390D01*
X248321666Y-118983390D02*
X248321666Y-119126247D01*
X248321666Y-119126247D02*
X248274047Y-119316723D01*
X248274047Y-119316723D02*
X248226428Y-119411961D01*
X248226428Y-119411961D02*
X248131190Y-119507200D01*
X248131190Y-119507200D02*
X247988333Y-119554819D01*
X247988333Y-119554819D02*
X247750238Y-119554819D01*
X248750238Y-119554819D02*
X248750238Y-118888152D01*
X248750238Y-118983390D02*
X248797857Y-118935771D01*
X248797857Y-118935771D02*
X248893095Y-118888152D01*
X248893095Y-118888152D02*
X249035952Y-118888152D01*
X249035952Y-118888152D02*
X249131190Y-118935771D01*
X249131190Y-118935771D02*
X249178809Y-119031009D01*
X249178809Y-119031009D02*
X249178809Y-119554819D01*
X249178809Y-119031009D02*
X249226428Y-118935771D01*
X249226428Y-118935771D02*
X249321666Y-118888152D01*
X249321666Y-118888152D02*
X249464523Y-118888152D01*
X249464523Y-118888152D02*
X249559762Y-118935771D01*
X249559762Y-118935771D02*
X249607381Y-119031009D01*
X249607381Y-119031009D02*
X249607381Y-119554819D01*
X250512142Y-118554819D02*
X250321666Y-118554819D01*
X250321666Y-118554819D02*
X250226428Y-118602438D01*
X250226428Y-118602438D02*
X250178809Y-118650057D01*
X250178809Y-118650057D02*
X250083571Y-118792914D01*
X250083571Y-118792914D02*
X250035952Y-118983390D01*
X250035952Y-118983390D02*
X250035952Y-119364342D01*
X250035952Y-119364342D02*
X250083571Y-119459580D01*
X250083571Y-119459580D02*
X250131190Y-119507200D01*
X250131190Y-119507200D02*
X250226428Y-119554819D01*
X250226428Y-119554819D02*
X250416904Y-119554819D01*
X250416904Y-119554819D02*
X250512142Y-119507200D01*
X250512142Y-119507200D02*
X250559761Y-119459580D01*
X250559761Y-119459580D02*
X250607380Y-119364342D01*
X250607380Y-119364342D02*
X250607380Y-119126247D01*
X250607380Y-119126247D02*
X250559761Y-119031009D01*
X250559761Y-119031009D02*
X250512142Y-118983390D01*
X250512142Y-118983390D02*
X250416904Y-118935771D01*
X250416904Y-118935771D02*
X250226428Y-118935771D01*
X250226428Y-118935771D02*
X250131190Y-118983390D01*
X250131190Y-118983390D02*
X250083571Y-119031009D01*
X250083571Y-119031009D02*
X250035952Y-119126247D01*
X170289580Y-130042857D02*
X170337200Y-130090476D01*
X170337200Y-130090476D02*
X170384819Y-130233333D01*
X170384819Y-130233333D02*
X170384819Y-130328571D01*
X170384819Y-130328571D02*
X170337200Y-130471428D01*
X170337200Y-130471428D02*
X170241961Y-130566666D01*
X170241961Y-130566666D02*
X170146723Y-130614285D01*
X170146723Y-130614285D02*
X169956247Y-130661904D01*
X169956247Y-130661904D02*
X169813390Y-130661904D01*
X169813390Y-130661904D02*
X169622914Y-130614285D01*
X169622914Y-130614285D02*
X169527676Y-130566666D01*
X169527676Y-130566666D02*
X169432438Y-130471428D01*
X169432438Y-130471428D02*
X169384819Y-130328571D01*
X169384819Y-130328571D02*
X169384819Y-130233333D01*
X169384819Y-130233333D02*
X169432438Y-130090476D01*
X169432438Y-130090476D02*
X169480057Y-130042857D01*
X170384819Y-129090476D02*
X170384819Y-129661904D01*
X170384819Y-129376190D02*
X169384819Y-129376190D01*
X169384819Y-129376190D02*
X169527676Y-129471428D01*
X169527676Y-129471428D02*
X169622914Y-129566666D01*
X169622914Y-129566666D02*
X169670533Y-129661904D01*
X169384819Y-128185714D02*
X169384819Y-128661904D01*
X169384819Y-128661904D02*
X169861009Y-128709523D01*
X169861009Y-128709523D02*
X169813390Y-128661904D01*
X169813390Y-128661904D02*
X169765771Y-128566666D01*
X169765771Y-128566666D02*
X169765771Y-128328571D01*
X169765771Y-128328571D02*
X169813390Y-128233333D01*
X169813390Y-128233333D02*
X169861009Y-128185714D01*
X169861009Y-128185714D02*
X169956247Y-128138095D01*
X169956247Y-128138095D02*
X170194342Y-128138095D01*
X170194342Y-128138095D02*
X170289580Y-128185714D01*
X170289580Y-128185714D02*
X170337200Y-128233333D01*
X170337200Y-128233333D02*
X170384819Y-128328571D01*
X170384819Y-128328571D02*
X170384819Y-128566666D01*
X170384819Y-128566666D02*
X170337200Y-128661904D01*
X170337200Y-128661904D02*
X170289580Y-128709523D01*
X128107142Y-88889580D02*
X128059523Y-88937200D01*
X128059523Y-88937200D02*
X127916666Y-88984819D01*
X127916666Y-88984819D02*
X127821428Y-88984819D01*
X127821428Y-88984819D02*
X127678571Y-88937200D01*
X127678571Y-88937200D02*
X127583333Y-88841961D01*
X127583333Y-88841961D02*
X127535714Y-88746723D01*
X127535714Y-88746723D02*
X127488095Y-88556247D01*
X127488095Y-88556247D02*
X127488095Y-88413390D01*
X127488095Y-88413390D02*
X127535714Y-88222914D01*
X127535714Y-88222914D02*
X127583333Y-88127676D01*
X127583333Y-88127676D02*
X127678571Y-88032438D01*
X127678571Y-88032438D02*
X127821428Y-87984819D01*
X127821428Y-87984819D02*
X127916666Y-87984819D01*
X127916666Y-87984819D02*
X128059523Y-88032438D01*
X128059523Y-88032438D02*
X128107142Y-88080057D01*
X129059523Y-88984819D02*
X128488095Y-88984819D01*
X128773809Y-88984819D02*
X128773809Y-87984819D01*
X128773809Y-87984819D02*
X128678571Y-88127676D01*
X128678571Y-88127676D02*
X128583333Y-88222914D01*
X128583333Y-88222914D02*
X128488095Y-88270533D01*
X129392857Y-87984819D02*
X130011904Y-87984819D01*
X130011904Y-87984819D02*
X129678571Y-88365771D01*
X129678571Y-88365771D02*
X129821428Y-88365771D01*
X129821428Y-88365771D02*
X129916666Y-88413390D01*
X129916666Y-88413390D02*
X129964285Y-88461009D01*
X129964285Y-88461009D02*
X130011904Y-88556247D01*
X130011904Y-88556247D02*
X130011904Y-88794342D01*
X130011904Y-88794342D02*
X129964285Y-88889580D01*
X129964285Y-88889580D02*
X129916666Y-88937200D01*
X129916666Y-88937200D02*
X129821428Y-88984819D01*
X129821428Y-88984819D02*
X129535714Y-88984819D01*
X129535714Y-88984819D02*
X129440476Y-88937200D01*
X129440476Y-88937200D02*
X129392857Y-88889580D01*
X174466667Y-89957200D02*
X174609524Y-90004819D01*
X174609524Y-90004819D02*
X174847619Y-90004819D01*
X174847619Y-90004819D02*
X174942857Y-89957200D01*
X174942857Y-89957200D02*
X174990476Y-89909580D01*
X174990476Y-89909580D02*
X175038095Y-89814342D01*
X175038095Y-89814342D02*
X175038095Y-89719104D01*
X175038095Y-89719104D02*
X174990476Y-89623866D01*
X174990476Y-89623866D02*
X174942857Y-89576247D01*
X174942857Y-89576247D02*
X174847619Y-89528628D01*
X174847619Y-89528628D02*
X174657143Y-89481009D01*
X174657143Y-89481009D02*
X174561905Y-89433390D01*
X174561905Y-89433390D02*
X174514286Y-89385771D01*
X174514286Y-89385771D02*
X174466667Y-89290533D01*
X174466667Y-89290533D02*
X174466667Y-89195295D01*
X174466667Y-89195295D02*
X174514286Y-89100057D01*
X174514286Y-89100057D02*
X174561905Y-89052438D01*
X174561905Y-89052438D02*
X174657143Y-89004819D01*
X174657143Y-89004819D02*
X174895238Y-89004819D01*
X174895238Y-89004819D02*
X175038095Y-89052438D01*
X175371429Y-89004819D02*
X175609524Y-90004819D01*
X175609524Y-90004819D02*
X175800000Y-89290533D01*
X175800000Y-89290533D02*
X175990476Y-90004819D01*
X175990476Y-90004819D02*
X176228572Y-89004819D01*
X177038095Y-89338152D02*
X177038095Y-90004819D01*
X176800000Y-88957200D02*
X176561905Y-89671485D01*
X176561905Y-89671485D02*
X177180952Y-89671485D01*
X194566666Y-82452319D02*
X194566666Y-83166604D01*
X194566666Y-83166604D02*
X194519047Y-83309461D01*
X194519047Y-83309461D02*
X194423809Y-83404700D01*
X194423809Y-83404700D02*
X194280952Y-83452319D01*
X194280952Y-83452319D02*
X194185714Y-83452319D01*
X195566666Y-83452319D02*
X194995238Y-83452319D01*
X195280952Y-83452319D02*
X195280952Y-82452319D01*
X195280952Y-82452319D02*
X195185714Y-82595176D01*
X195185714Y-82595176D02*
X195090476Y-82690414D01*
X195090476Y-82690414D02*
X194995238Y-82738033D01*
X181633333Y-99004819D02*
X181300000Y-98528628D01*
X181061905Y-99004819D02*
X181061905Y-98004819D01*
X181061905Y-98004819D02*
X181442857Y-98004819D01*
X181442857Y-98004819D02*
X181538095Y-98052438D01*
X181538095Y-98052438D02*
X181585714Y-98100057D01*
X181585714Y-98100057D02*
X181633333Y-98195295D01*
X181633333Y-98195295D02*
X181633333Y-98338152D01*
X181633333Y-98338152D02*
X181585714Y-98433390D01*
X181585714Y-98433390D02*
X181538095Y-98481009D01*
X181538095Y-98481009D02*
X181442857Y-98528628D01*
X181442857Y-98528628D02*
X181061905Y-98528628D01*
X182585714Y-99004819D02*
X182014286Y-99004819D01*
X182300000Y-99004819D02*
X182300000Y-98004819D01*
X182300000Y-98004819D02*
X182204762Y-98147676D01*
X182204762Y-98147676D02*
X182109524Y-98242914D01*
X182109524Y-98242914D02*
X182014286Y-98290533D01*
X128183333Y-113804819D02*
X127850000Y-113328628D01*
X127611905Y-113804819D02*
X127611905Y-112804819D01*
X127611905Y-112804819D02*
X127992857Y-112804819D01*
X127992857Y-112804819D02*
X128088095Y-112852438D01*
X128088095Y-112852438D02*
X128135714Y-112900057D01*
X128135714Y-112900057D02*
X128183333Y-112995295D01*
X128183333Y-112995295D02*
X128183333Y-113138152D01*
X128183333Y-113138152D02*
X128135714Y-113233390D01*
X128135714Y-113233390D02*
X128088095Y-113281009D01*
X128088095Y-113281009D02*
X127992857Y-113328628D01*
X127992857Y-113328628D02*
X127611905Y-113328628D01*
X129040476Y-112804819D02*
X128850000Y-112804819D01*
X128850000Y-112804819D02*
X128754762Y-112852438D01*
X128754762Y-112852438D02*
X128707143Y-112900057D01*
X128707143Y-112900057D02*
X128611905Y-113042914D01*
X128611905Y-113042914D02*
X128564286Y-113233390D01*
X128564286Y-113233390D02*
X128564286Y-113614342D01*
X128564286Y-113614342D02*
X128611905Y-113709580D01*
X128611905Y-113709580D02*
X128659524Y-113757200D01*
X128659524Y-113757200D02*
X128754762Y-113804819D01*
X128754762Y-113804819D02*
X128945238Y-113804819D01*
X128945238Y-113804819D02*
X129040476Y-113757200D01*
X129040476Y-113757200D02*
X129088095Y-113709580D01*
X129088095Y-113709580D02*
X129135714Y-113614342D01*
X129135714Y-113614342D02*
X129135714Y-113376247D01*
X129135714Y-113376247D02*
X129088095Y-113281009D01*
X129088095Y-113281009D02*
X129040476Y-113233390D01*
X129040476Y-113233390D02*
X128945238Y-113185771D01*
X128945238Y-113185771D02*
X128754762Y-113185771D01*
X128754762Y-113185771D02*
X128659524Y-113233390D01*
X128659524Y-113233390D02*
X128611905Y-113281009D01*
X128611905Y-113281009D02*
X128564286Y-113376247D01*
X191609524Y-94322319D02*
X191609524Y-93322319D01*
X191609524Y-93322319D02*
X191847619Y-93322319D01*
X191847619Y-93322319D02*
X191990476Y-93369938D01*
X191990476Y-93369938D02*
X192085714Y-93465176D01*
X192085714Y-93465176D02*
X192133333Y-93560414D01*
X192133333Y-93560414D02*
X192180952Y-93750890D01*
X192180952Y-93750890D02*
X192180952Y-93893747D01*
X192180952Y-93893747D02*
X192133333Y-94084223D01*
X192133333Y-94084223D02*
X192085714Y-94179461D01*
X192085714Y-94179461D02*
X191990476Y-94274700D01*
X191990476Y-94274700D02*
X191847619Y-94322319D01*
X191847619Y-94322319D02*
X191609524Y-94322319D01*
X192609524Y-94322319D02*
X192609524Y-93322319D01*
X193038095Y-94322319D02*
X193038095Y-93798509D01*
X193038095Y-93798509D02*
X192990476Y-93703271D01*
X192990476Y-93703271D02*
X192895238Y-93655652D01*
X192895238Y-93655652D02*
X192752381Y-93655652D01*
X192752381Y-93655652D02*
X192657143Y-93703271D01*
X192657143Y-93703271D02*
X192609524Y-93750890D01*
X194038095Y-94322319D02*
X193466667Y-94322319D01*
X193752381Y-94322319D02*
X193752381Y-93322319D01*
X193752381Y-93322319D02*
X193657143Y-93465176D01*
X193657143Y-93465176D02*
X193561905Y-93560414D01*
X193561905Y-93560414D02*
X193466667Y-93608033D01*
X102868319Y-114921904D02*
X102868319Y-114350476D01*
X103868319Y-114636190D02*
X102868319Y-114636190D01*
X103868319Y-114017142D02*
X102868319Y-114017142D01*
X102868319Y-114017142D02*
X102868319Y-113636190D01*
X102868319Y-113636190D02*
X102915938Y-113540952D01*
X102915938Y-113540952D02*
X102963557Y-113493333D01*
X102963557Y-113493333D02*
X103058795Y-113445714D01*
X103058795Y-113445714D02*
X103201652Y-113445714D01*
X103201652Y-113445714D02*
X103296890Y-113493333D01*
X103296890Y-113493333D02*
X103344509Y-113540952D01*
X103344509Y-113540952D02*
X103392128Y-113636190D01*
X103392128Y-113636190D02*
X103392128Y-114017142D01*
X102868319Y-112540952D02*
X102868319Y-113017142D01*
X102868319Y-113017142D02*
X103344509Y-113064761D01*
X103344509Y-113064761D02*
X103296890Y-113017142D01*
X103296890Y-113017142D02*
X103249271Y-112921904D01*
X103249271Y-112921904D02*
X103249271Y-112683809D01*
X103249271Y-112683809D02*
X103296890Y-112588571D01*
X103296890Y-112588571D02*
X103344509Y-112540952D01*
X103344509Y-112540952D02*
X103439747Y-112493333D01*
X103439747Y-112493333D02*
X103677842Y-112493333D01*
X103677842Y-112493333D02*
X103773080Y-112540952D01*
X103773080Y-112540952D02*
X103820700Y-112588571D01*
X103820700Y-112588571D02*
X103868319Y-112683809D01*
X103868319Y-112683809D02*
X103868319Y-112921904D01*
X103868319Y-112921904D02*
X103820700Y-113017142D01*
X103820700Y-113017142D02*
X103773080Y-113064761D01*
X127488095Y-79906819D02*
X128059523Y-79906819D01*
X127773809Y-80906819D02*
X127773809Y-79906819D01*
X128392857Y-80906819D02*
X128392857Y-79906819D01*
X128392857Y-79906819D02*
X128773809Y-79906819D01*
X128773809Y-79906819D02*
X128869047Y-79954438D01*
X128869047Y-79954438D02*
X128916666Y-80002057D01*
X128916666Y-80002057D02*
X128964285Y-80097295D01*
X128964285Y-80097295D02*
X128964285Y-80240152D01*
X128964285Y-80240152D02*
X128916666Y-80335390D01*
X128916666Y-80335390D02*
X128869047Y-80383009D01*
X128869047Y-80383009D02*
X128773809Y-80430628D01*
X128773809Y-80430628D02*
X128392857Y-80430628D01*
X129916666Y-80906819D02*
X129345238Y-80906819D01*
X129630952Y-80906819D02*
X129630952Y-79906819D01*
X129630952Y-79906819D02*
X129535714Y-80049676D01*
X129535714Y-80049676D02*
X129440476Y-80144914D01*
X129440476Y-80144914D02*
X129345238Y-80192533D01*
X248616666Y-80034819D02*
X248616666Y-80749104D01*
X248616666Y-80749104D02*
X248569047Y-80891961D01*
X248569047Y-80891961D02*
X248473809Y-80987200D01*
X248473809Y-80987200D02*
X248330952Y-81034819D01*
X248330952Y-81034819D02*
X248235714Y-81034819D01*
X249521428Y-80368152D02*
X249521428Y-81034819D01*
X249283333Y-79987200D02*
X249045238Y-80701485D01*
X249045238Y-80701485D02*
X249664285Y-80701485D01*
X217166666Y-103584819D02*
X217166666Y-104299104D01*
X217166666Y-104299104D02*
X217119047Y-104441961D01*
X217119047Y-104441961D02*
X217023809Y-104537200D01*
X217023809Y-104537200D02*
X216880952Y-104584819D01*
X216880952Y-104584819D02*
X216785714Y-104584819D01*
X217785714Y-104013390D02*
X217690476Y-103965771D01*
X217690476Y-103965771D02*
X217642857Y-103918152D01*
X217642857Y-103918152D02*
X217595238Y-103822914D01*
X217595238Y-103822914D02*
X217595238Y-103775295D01*
X217595238Y-103775295D02*
X217642857Y-103680057D01*
X217642857Y-103680057D02*
X217690476Y-103632438D01*
X217690476Y-103632438D02*
X217785714Y-103584819D01*
X217785714Y-103584819D02*
X217976190Y-103584819D01*
X217976190Y-103584819D02*
X218071428Y-103632438D01*
X218071428Y-103632438D02*
X218119047Y-103680057D01*
X218119047Y-103680057D02*
X218166666Y-103775295D01*
X218166666Y-103775295D02*
X218166666Y-103822914D01*
X218166666Y-103822914D02*
X218119047Y-103918152D01*
X218119047Y-103918152D02*
X218071428Y-103965771D01*
X218071428Y-103965771D02*
X217976190Y-104013390D01*
X217976190Y-104013390D02*
X217785714Y-104013390D01*
X217785714Y-104013390D02*
X217690476Y-104061009D01*
X217690476Y-104061009D02*
X217642857Y-104108628D01*
X217642857Y-104108628D02*
X217595238Y-104203866D01*
X217595238Y-104203866D02*
X217595238Y-104394342D01*
X217595238Y-104394342D02*
X217642857Y-104489580D01*
X217642857Y-104489580D02*
X217690476Y-104537200D01*
X217690476Y-104537200D02*
X217785714Y-104584819D01*
X217785714Y-104584819D02*
X217976190Y-104584819D01*
X217976190Y-104584819D02*
X218071428Y-104537200D01*
X218071428Y-104537200D02*
X218119047Y-104489580D01*
X218119047Y-104489580D02*
X218166666Y-104394342D01*
X218166666Y-104394342D02*
X218166666Y-104203866D01*
X218166666Y-104203866D02*
X218119047Y-104108628D01*
X218119047Y-104108628D02*
X218071428Y-104061009D01*
X218071428Y-104061009D02*
X217976190Y-104013390D01*
X195895238Y-112922319D02*
X195895238Y-111922319D01*
X195895238Y-111922319D02*
X196133333Y-111922319D01*
X196133333Y-111922319D02*
X196276190Y-111969938D01*
X196276190Y-111969938D02*
X196371428Y-112065176D01*
X196371428Y-112065176D02*
X196419047Y-112160414D01*
X196419047Y-112160414D02*
X196466666Y-112350890D01*
X196466666Y-112350890D02*
X196466666Y-112493747D01*
X196466666Y-112493747D02*
X196419047Y-112684223D01*
X196419047Y-112684223D02*
X196371428Y-112779461D01*
X196371428Y-112779461D02*
X196276190Y-112874700D01*
X196276190Y-112874700D02*
X196133333Y-112922319D01*
X196133333Y-112922319D02*
X195895238Y-112922319D01*
X196895238Y-112922319D02*
X196895238Y-112255652D01*
X196895238Y-112350890D02*
X196942857Y-112303271D01*
X196942857Y-112303271D02*
X197038095Y-112255652D01*
X197038095Y-112255652D02*
X197180952Y-112255652D01*
X197180952Y-112255652D02*
X197276190Y-112303271D01*
X197276190Y-112303271D02*
X197323809Y-112398509D01*
X197323809Y-112398509D02*
X197323809Y-112922319D01*
X197323809Y-112398509D02*
X197371428Y-112303271D01*
X197371428Y-112303271D02*
X197466666Y-112255652D01*
X197466666Y-112255652D02*
X197609523Y-112255652D01*
X197609523Y-112255652D02*
X197704762Y-112303271D01*
X197704762Y-112303271D02*
X197752381Y-112398509D01*
X197752381Y-112398509D02*
X197752381Y-112922319D01*
X198133333Y-111922319D02*
X198752380Y-111922319D01*
X198752380Y-111922319D02*
X198419047Y-112303271D01*
X198419047Y-112303271D02*
X198561904Y-112303271D01*
X198561904Y-112303271D02*
X198657142Y-112350890D01*
X198657142Y-112350890D02*
X198704761Y-112398509D01*
X198704761Y-112398509D02*
X198752380Y-112493747D01*
X198752380Y-112493747D02*
X198752380Y-112731842D01*
X198752380Y-112731842D02*
X198704761Y-112827080D01*
X198704761Y-112827080D02*
X198657142Y-112874700D01*
X198657142Y-112874700D02*
X198561904Y-112922319D01*
X198561904Y-112922319D02*
X198276190Y-112922319D01*
X198276190Y-112922319D02*
X198180952Y-112874700D01*
X198180952Y-112874700D02*
X198133333Y-112827080D01*
X102868319Y-110371904D02*
X102868319Y-109800476D01*
X103868319Y-110086190D02*
X102868319Y-110086190D01*
X103868319Y-109467142D02*
X102868319Y-109467142D01*
X102868319Y-109467142D02*
X102868319Y-109086190D01*
X102868319Y-109086190D02*
X102915938Y-108990952D01*
X102915938Y-108990952D02*
X102963557Y-108943333D01*
X102963557Y-108943333D02*
X103058795Y-108895714D01*
X103058795Y-108895714D02*
X103201652Y-108895714D01*
X103201652Y-108895714D02*
X103296890Y-108943333D01*
X103296890Y-108943333D02*
X103344509Y-108990952D01*
X103344509Y-108990952D02*
X103392128Y-109086190D01*
X103392128Y-109086190D02*
X103392128Y-109467142D01*
X103201652Y-108038571D02*
X103868319Y-108038571D01*
X102820700Y-108276666D02*
X103534985Y-108514761D01*
X103534985Y-108514761D02*
X103534985Y-107895714D01*
X174416667Y-81057200D02*
X174559524Y-81104819D01*
X174559524Y-81104819D02*
X174797619Y-81104819D01*
X174797619Y-81104819D02*
X174892857Y-81057200D01*
X174892857Y-81057200D02*
X174940476Y-81009580D01*
X174940476Y-81009580D02*
X174988095Y-80914342D01*
X174988095Y-80914342D02*
X174988095Y-80819104D01*
X174988095Y-80819104D02*
X174940476Y-80723866D01*
X174940476Y-80723866D02*
X174892857Y-80676247D01*
X174892857Y-80676247D02*
X174797619Y-80628628D01*
X174797619Y-80628628D02*
X174607143Y-80581009D01*
X174607143Y-80581009D02*
X174511905Y-80533390D01*
X174511905Y-80533390D02*
X174464286Y-80485771D01*
X174464286Y-80485771D02*
X174416667Y-80390533D01*
X174416667Y-80390533D02*
X174416667Y-80295295D01*
X174416667Y-80295295D02*
X174464286Y-80200057D01*
X174464286Y-80200057D02*
X174511905Y-80152438D01*
X174511905Y-80152438D02*
X174607143Y-80104819D01*
X174607143Y-80104819D02*
X174845238Y-80104819D01*
X174845238Y-80104819D02*
X174988095Y-80152438D01*
X175321429Y-80104819D02*
X175559524Y-81104819D01*
X175559524Y-81104819D02*
X175750000Y-80390533D01*
X175750000Y-80390533D02*
X175940476Y-81104819D01*
X175940476Y-81104819D02*
X176178572Y-80104819D01*
X176511905Y-80200057D02*
X176559524Y-80152438D01*
X176559524Y-80152438D02*
X176654762Y-80104819D01*
X176654762Y-80104819D02*
X176892857Y-80104819D01*
X176892857Y-80104819D02*
X176988095Y-80152438D01*
X176988095Y-80152438D02*
X177035714Y-80200057D01*
X177035714Y-80200057D02*
X177083333Y-80295295D01*
X177083333Y-80295295D02*
X177083333Y-80390533D01*
X177083333Y-80390533D02*
X177035714Y-80533390D01*
X177035714Y-80533390D02*
X176464286Y-81104819D01*
X176464286Y-81104819D02*
X177083333Y-81104819D01*
X161695238Y-111422319D02*
X161695238Y-110422319D01*
X161695238Y-110422319D02*
X161933333Y-110422319D01*
X161933333Y-110422319D02*
X162076190Y-110469938D01*
X162076190Y-110469938D02*
X162171428Y-110565176D01*
X162171428Y-110565176D02*
X162219047Y-110660414D01*
X162219047Y-110660414D02*
X162266666Y-110850890D01*
X162266666Y-110850890D02*
X162266666Y-110993747D01*
X162266666Y-110993747D02*
X162219047Y-111184223D01*
X162219047Y-111184223D02*
X162171428Y-111279461D01*
X162171428Y-111279461D02*
X162076190Y-111374700D01*
X162076190Y-111374700D02*
X161933333Y-111422319D01*
X161933333Y-111422319D02*
X161695238Y-111422319D01*
X162695238Y-111422319D02*
X162695238Y-110755652D01*
X162695238Y-110850890D02*
X162742857Y-110803271D01*
X162742857Y-110803271D02*
X162838095Y-110755652D01*
X162838095Y-110755652D02*
X162980952Y-110755652D01*
X162980952Y-110755652D02*
X163076190Y-110803271D01*
X163076190Y-110803271D02*
X163123809Y-110898509D01*
X163123809Y-110898509D02*
X163123809Y-111422319D01*
X163123809Y-110898509D02*
X163171428Y-110803271D01*
X163171428Y-110803271D02*
X163266666Y-110755652D01*
X163266666Y-110755652D02*
X163409523Y-110755652D01*
X163409523Y-110755652D02*
X163504762Y-110803271D01*
X163504762Y-110803271D02*
X163552381Y-110898509D01*
X163552381Y-110898509D02*
X163552381Y-111422319D01*
X164552380Y-111422319D02*
X163980952Y-111422319D01*
X164266666Y-111422319D02*
X164266666Y-110422319D01*
X164266666Y-110422319D02*
X164171428Y-110565176D01*
X164171428Y-110565176D02*
X164076190Y-110660414D01*
X164076190Y-110660414D02*
X163980952Y-110708033D01*
X155786660Y-131159104D02*
X156262850Y-131159104D01*
X155691422Y-131444819D02*
X156024755Y-130444819D01*
X156024755Y-130444819D02*
X156358088Y-131444819D01*
X157215231Y-131444819D02*
X156643803Y-131444819D01*
X156929517Y-131444819D02*
X156929517Y-130444819D01*
X156929517Y-130444819D02*
X156834279Y-130587676D01*
X156834279Y-130587676D02*
X156739041Y-130682914D01*
X156739041Y-130682914D02*
X156643803Y-130730533D01*
X198490476Y-133404819D02*
X198490476Y-134119104D01*
X198490476Y-134119104D02*
X198442857Y-134261961D01*
X198442857Y-134261961D02*
X198347619Y-134357200D01*
X198347619Y-134357200D02*
X198204762Y-134404819D01*
X198204762Y-134404819D02*
X198109524Y-134404819D01*
X199490476Y-134404819D02*
X198919048Y-134404819D01*
X199204762Y-134404819D02*
X199204762Y-133404819D01*
X199204762Y-133404819D02*
X199109524Y-133547676D01*
X199109524Y-133547676D02*
X199014286Y-133642914D01*
X199014286Y-133642914D02*
X198919048Y-133690533D01*
X199871429Y-133500057D02*
X199919048Y-133452438D01*
X199919048Y-133452438D02*
X200014286Y-133404819D01*
X200014286Y-133404819D02*
X200252381Y-133404819D01*
X200252381Y-133404819D02*
X200347619Y-133452438D01*
X200347619Y-133452438D02*
X200395238Y-133500057D01*
X200395238Y-133500057D02*
X200442857Y-133595295D01*
X200442857Y-133595295D02*
X200442857Y-133690533D01*
X200442857Y-133690533D02*
X200395238Y-133833390D01*
X200395238Y-133833390D02*
X199823810Y-134404819D01*
X199823810Y-134404819D02*
X200442857Y-134404819D01*
X125839285Y-97781009D02*
X125982142Y-97828628D01*
X125982142Y-97828628D02*
X126029761Y-97876247D01*
X126029761Y-97876247D02*
X126077380Y-97971485D01*
X126077380Y-97971485D02*
X126077380Y-98114342D01*
X126077380Y-98114342D02*
X126029761Y-98209580D01*
X126029761Y-98209580D02*
X125982142Y-98257200D01*
X125982142Y-98257200D02*
X125886904Y-98304819D01*
X125886904Y-98304819D02*
X125505952Y-98304819D01*
X125505952Y-98304819D02*
X125505952Y-97304819D01*
X125505952Y-97304819D02*
X125839285Y-97304819D01*
X125839285Y-97304819D02*
X125934523Y-97352438D01*
X125934523Y-97352438D02*
X125982142Y-97400057D01*
X125982142Y-97400057D02*
X126029761Y-97495295D01*
X126029761Y-97495295D02*
X126029761Y-97590533D01*
X126029761Y-97590533D02*
X125982142Y-97685771D01*
X125982142Y-97685771D02*
X125934523Y-97733390D01*
X125934523Y-97733390D02*
X125839285Y-97781009D01*
X125839285Y-97781009D02*
X125505952Y-97781009D01*
X126363095Y-97304819D02*
X126934523Y-97304819D01*
X126648809Y-98304819D02*
X126648809Y-97304819D01*
X127220238Y-97400057D02*
X127267857Y-97352438D01*
X127267857Y-97352438D02*
X127363095Y-97304819D01*
X127363095Y-97304819D02*
X127601190Y-97304819D01*
X127601190Y-97304819D02*
X127696428Y-97352438D01*
X127696428Y-97352438D02*
X127744047Y-97400057D01*
X127744047Y-97400057D02*
X127791666Y-97495295D01*
X127791666Y-97495295D02*
X127791666Y-97590533D01*
X127791666Y-97590533D02*
X127744047Y-97733390D01*
X127744047Y-97733390D02*
X127172619Y-98304819D01*
X127172619Y-98304819D02*
X127791666Y-98304819D01*
X163716667Y-89957200D02*
X163859524Y-90004819D01*
X163859524Y-90004819D02*
X164097619Y-90004819D01*
X164097619Y-90004819D02*
X164192857Y-89957200D01*
X164192857Y-89957200D02*
X164240476Y-89909580D01*
X164240476Y-89909580D02*
X164288095Y-89814342D01*
X164288095Y-89814342D02*
X164288095Y-89719104D01*
X164288095Y-89719104D02*
X164240476Y-89623866D01*
X164240476Y-89623866D02*
X164192857Y-89576247D01*
X164192857Y-89576247D02*
X164097619Y-89528628D01*
X164097619Y-89528628D02*
X163907143Y-89481009D01*
X163907143Y-89481009D02*
X163811905Y-89433390D01*
X163811905Y-89433390D02*
X163764286Y-89385771D01*
X163764286Y-89385771D02*
X163716667Y-89290533D01*
X163716667Y-89290533D02*
X163716667Y-89195295D01*
X163716667Y-89195295D02*
X163764286Y-89100057D01*
X163764286Y-89100057D02*
X163811905Y-89052438D01*
X163811905Y-89052438D02*
X163907143Y-89004819D01*
X163907143Y-89004819D02*
X164145238Y-89004819D01*
X164145238Y-89004819D02*
X164288095Y-89052438D01*
X164621429Y-89004819D02*
X164859524Y-90004819D01*
X164859524Y-90004819D02*
X165050000Y-89290533D01*
X165050000Y-89290533D02*
X165240476Y-90004819D01*
X165240476Y-90004819D02*
X165478572Y-89004819D01*
X165764286Y-89004819D02*
X166383333Y-89004819D01*
X166383333Y-89004819D02*
X166050000Y-89385771D01*
X166050000Y-89385771D02*
X166192857Y-89385771D01*
X166192857Y-89385771D02*
X166288095Y-89433390D01*
X166288095Y-89433390D02*
X166335714Y-89481009D01*
X166335714Y-89481009D02*
X166383333Y-89576247D01*
X166383333Y-89576247D02*
X166383333Y-89814342D01*
X166383333Y-89814342D02*
X166335714Y-89909580D01*
X166335714Y-89909580D02*
X166288095Y-89957200D01*
X166288095Y-89957200D02*
X166192857Y-90004819D01*
X166192857Y-90004819D02*
X165907143Y-90004819D01*
X165907143Y-90004819D02*
X165811905Y-89957200D01*
X165811905Y-89957200D02*
X165764286Y-89909580D01*
X226759524Y-93704819D02*
X226759524Y-92704819D01*
X226759524Y-92704819D02*
X226997619Y-92704819D01*
X226997619Y-92704819D02*
X227140476Y-92752438D01*
X227140476Y-92752438D02*
X227235714Y-92847676D01*
X227235714Y-92847676D02*
X227283333Y-92942914D01*
X227283333Y-92942914D02*
X227330952Y-93133390D01*
X227330952Y-93133390D02*
X227330952Y-93276247D01*
X227330952Y-93276247D02*
X227283333Y-93466723D01*
X227283333Y-93466723D02*
X227235714Y-93561961D01*
X227235714Y-93561961D02*
X227140476Y-93657200D01*
X227140476Y-93657200D02*
X226997619Y-93704819D01*
X226997619Y-93704819D02*
X226759524Y-93704819D01*
X227759524Y-93704819D02*
X227759524Y-92704819D01*
X228188095Y-93704819D02*
X228188095Y-93181009D01*
X228188095Y-93181009D02*
X228140476Y-93085771D01*
X228140476Y-93085771D02*
X228045238Y-93038152D01*
X228045238Y-93038152D02*
X227902381Y-93038152D01*
X227902381Y-93038152D02*
X227807143Y-93085771D01*
X227807143Y-93085771D02*
X227759524Y-93133390D01*
X228569048Y-92704819D02*
X229188095Y-92704819D01*
X229188095Y-92704819D02*
X228854762Y-93085771D01*
X228854762Y-93085771D02*
X228997619Y-93085771D01*
X228997619Y-93085771D02*
X229092857Y-93133390D01*
X229092857Y-93133390D02*
X229140476Y-93181009D01*
X229140476Y-93181009D02*
X229188095Y-93276247D01*
X229188095Y-93276247D02*
X229188095Y-93514342D01*
X229188095Y-93514342D02*
X229140476Y-93609580D01*
X229140476Y-93609580D02*
X229092857Y-93657200D01*
X229092857Y-93657200D02*
X228997619Y-93704819D01*
X228997619Y-93704819D02*
X228711905Y-93704819D01*
X228711905Y-93704819D02*
X228616667Y-93657200D01*
X228616667Y-93657200D02*
X228569048Y-93609580D01*
X213745238Y-115504819D02*
X213745238Y-114504819D01*
X213745238Y-114504819D02*
X213983333Y-114504819D01*
X213983333Y-114504819D02*
X214126190Y-114552438D01*
X214126190Y-114552438D02*
X214221428Y-114647676D01*
X214221428Y-114647676D02*
X214269047Y-114742914D01*
X214269047Y-114742914D02*
X214316666Y-114933390D01*
X214316666Y-114933390D02*
X214316666Y-115076247D01*
X214316666Y-115076247D02*
X214269047Y-115266723D01*
X214269047Y-115266723D02*
X214221428Y-115361961D01*
X214221428Y-115361961D02*
X214126190Y-115457200D01*
X214126190Y-115457200D02*
X213983333Y-115504819D01*
X213983333Y-115504819D02*
X213745238Y-115504819D01*
X214745238Y-115504819D02*
X214745238Y-114838152D01*
X214745238Y-114933390D02*
X214792857Y-114885771D01*
X214792857Y-114885771D02*
X214888095Y-114838152D01*
X214888095Y-114838152D02*
X215030952Y-114838152D01*
X215030952Y-114838152D02*
X215126190Y-114885771D01*
X215126190Y-114885771D02*
X215173809Y-114981009D01*
X215173809Y-114981009D02*
X215173809Y-115504819D01*
X215173809Y-114981009D02*
X215221428Y-114885771D01*
X215221428Y-114885771D02*
X215316666Y-114838152D01*
X215316666Y-114838152D02*
X215459523Y-114838152D01*
X215459523Y-114838152D02*
X215554762Y-114885771D01*
X215554762Y-114885771D02*
X215602381Y-114981009D01*
X215602381Y-114981009D02*
X215602381Y-115504819D01*
X216507142Y-114838152D02*
X216507142Y-115504819D01*
X216269047Y-114457200D02*
X216030952Y-115171485D01*
X216030952Y-115171485D02*
X216649999Y-115171485D01*
X209153057Y-125958238D02*
X209105438Y-126053476D01*
X209105438Y-126053476D02*
X209010200Y-126148714D01*
X209010200Y-126148714D02*
X208867342Y-126291571D01*
X208867342Y-126291571D02*
X208819723Y-126386809D01*
X208819723Y-126386809D02*
X208819723Y-126482047D01*
X209057819Y-126434428D02*
X209010200Y-126529666D01*
X209010200Y-126529666D02*
X208914961Y-126624904D01*
X208914961Y-126624904D02*
X208724485Y-126672523D01*
X208724485Y-126672523D02*
X208391152Y-126672523D01*
X208391152Y-126672523D02*
X208200676Y-126624904D01*
X208200676Y-126624904D02*
X208105438Y-126529666D01*
X208105438Y-126529666D02*
X208057819Y-126434428D01*
X208057819Y-126434428D02*
X208057819Y-126243952D01*
X208057819Y-126243952D02*
X208105438Y-126148714D01*
X208105438Y-126148714D02*
X208200676Y-126053476D01*
X208200676Y-126053476D02*
X208391152Y-126005857D01*
X208391152Y-126005857D02*
X208724485Y-126005857D01*
X208724485Y-126005857D02*
X208914961Y-126053476D01*
X208914961Y-126053476D02*
X209010200Y-126148714D01*
X209010200Y-126148714D02*
X209057819Y-126243952D01*
X209057819Y-126243952D02*
X209057819Y-126434428D01*
X209057819Y-125053476D02*
X209057819Y-125624904D01*
X209057819Y-125339190D02*
X208057819Y-125339190D01*
X208057819Y-125339190D02*
X208200676Y-125434428D01*
X208200676Y-125434428D02*
X208295914Y-125529666D01*
X208295914Y-125529666D02*
X208343533Y-125624904D01*
X128148833Y-108304819D02*
X127815500Y-107828628D01*
X127577405Y-108304819D02*
X127577405Y-107304819D01*
X127577405Y-107304819D02*
X127958357Y-107304819D01*
X127958357Y-107304819D02*
X128053595Y-107352438D01*
X128053595Y-107352438D02*
X128101214Y-107400057D01*
X128101214Y-107400057D02*
X128148833Y-107495295D01*
X128148833Y-107495295D02*
X128148833Y-107638152D01*
X128148833Y-107638152D02*
X128101214Y-107733390D01*
X128101214Y-107733390D02*
X128053595Y-107781009D01*
X128053595Y-107781009D02*
X127958357Y-107828628D01*
X127958357Y-107828628D02*
X127577405Y-107828628D01*
X128482167Y-107304819D02*
X129148833Y-107304819D01*
X129148833Y-107304819D02*
X128720262Y-108304819D01*
X177271333Y-131554319D02*
X176938000Y-131078128D01*
X176699905Y-131554319D02*
X176699905Y-130554319D01*
X176699905Y-130554319D02*
X177080857Y-130554319D01*
X177080857Y-130554319D02*
X177176095Y-130601938D01*
X177176095Y-130601938D02*
X177223714Y-130649557D01*
X177223714Y-130649557D02*
X177271333Y-130744795D01*
X177271333Y-130744795D02*
X177271333Y-130887652D01*
X177271333Y-130887652D02*
X177223714Y-130982890D01*
X177223714Y-130982890D02*
X177176095Y-131030509D01*
X177176095Y-131030509D02*
X177080857Y-131078128D01*
X177080857Y-131078128D02*
X176699905Y-131078128D01*
X178128476Y-130887652D02*
X178128476Y-131554319D01*
X177890381Y-130506700D02*
X177652286Y-131220985D01*
X177652286Y-131220985D02*
X178271333Y-131220985D01*
X169333333Y-124354819D02*
X168857143Y-124354819D01*
X168857143Y-124354819D02*
X168857143Y-123354819D01*
X170190476Y-124354819D02*
X169619048Y-124354819D01*
X169904762Y-124354819D02*
X169904762Y-123354819D01*
X169904762Y-123354819D02*
X169809524Y-123497676D01*
X169809524Y-123497676D02*
X169714286Y-123592914D01*
X169714286Y-123592914D02*
X169619048Y-123640533D01*
X210854819Y-132204166D02*
X210378628Y-132537499D01*
X210854819Y-132775594D02*
X209854819Y-132775594D01*
X209854819Y-132775594D02*
X209854819Y-132394642D01*
X209854819Y-132394642D02*
X209902438Y-132299404D01*
X209902438Y-132299404D02*
X209950057Y-132251785D01*
X209950057Y-132251785D02*
X210045295Y-132204166D01*
X210045295Y-132204166D02*
X210188152Y-132204166D01*
X210188152Y-132204166D02*
X210283390Y-132251785D01*
X210283390Y-132251785D02*
X210331009Y-132299404D01*
X210331009Y-132299404D02*
X210378628Y-132394642D01*
X210378628Y-132394642D02*
X210378628Y-132775594D01*
X209854819Y-131870832D02*
X209854819Y-131251785D01*
X209854819Y-131251785D02*
X210235771Y-131585118D01*
X210235771Y-131585118D02*
X210235771Y-131442261D01*
X210235771Y-131442261D02*
X210283390Y-131347023D01*
X210283390Y-131347023D02*
X210331009Y-131299404D01*
X210331009Y-131299404D02*
X210426247Y-131251785D01*
X210426247Y-131251785D02*
X210664342Y-131251785D01*
X210664342Y-131251785D02*
X210759580Y-131299404D01*
X210759580Y-131299404D02*
X210807200Y-131347023D01*
X210807200Y-131347023D02*
X210854819Y-131442261D01*
X210854819Y-131442261D02*
X210854819Y-131727975D01*
X210854819Y-131727975D02*
X210807200Y-131823213D01*
X210807200Y-131823213D02*
X210759580Y-131870832D01*
X200066666Y-100772319D02*
X200066666Y-101486604D01*
X200066666Y-101486604D02*
X200019047Y-101629461D01*
X200019047Y-101629461D02*
X199923809Y-101724700D01*
X199923809Y-101724700D02*
X199780952Y-101772319D01*
X199780952Y-101772319D02*
X199685714Y-101772319D01*
X200447619Y-100772319D02*
X201114285Y-100772319D01*
X201114285Y-100772319D02*
X200685714Y-101772319D01*
X105205976Y-103904819D02*
X105205976Y-104619104D01*
X105205976Y-104619104D02*
X105158357Y-104761961D01*
X105158357Y-104761961D02*
X105063119Y-104857200D01*
X105063119Y-104857200D02*
X104920262Y-104904819D01*
X104920262Y-104904819D02*
X104825024Y-104904819D01*
X106205976Y-104904819D02*
X105634548Y-104904819D01*
X105920262Y-104904819D02*
X105920262Y-103904819D01*
X105920262Y-103904819D02*
X105825024Y-104047676D01*
X105825024Y-104047676D02*
X105729786Y-104142914D01*
X105729786Y-104142914D02*
X105634548Y-104190533D01*
X106539310Y-103904819D02*
X107158357Y-103904819D01*
X107158357Y-103904819D02*
X106825024Y-104285771D01*
X106825024Y-104285771D02*
X106967881Y-104285771D01*
X106967881Y-104285771D02*
X107063119Y-104333390D01*
X107063119Y-104333390D02*
X107110738Y-104381009D01*
X107110738Y-104381009D02*
X107158357Y-104476247D01*
X107158357Y-104476247D02*
X107158357Y-104714342D01*
X107158357Y-104714342D02*
X107110738Y-104809580D01*
X107110738Y-104809580D02*
X107063119Y-104857200D01*
X107063119Y-104857200D02*
X106967881Y-104904819D01*
X106967881Y-104904819D02*
X106682167Y-104904819D01*
X106682167Y-104904819D02*
X106586929Y-104857200D01*
X106586929Y-104857200D02*
X106539310Y-104809580D01*
X179558833Y-128654319D02*
X179225500Y-128178128D01*
X178987405Y-128654319D02*
X178987405Y-127654319D01*
X178987405Y-127654319D02*
X179368357Y-127654319D01*
X179368357Y-127654319D02*
X179463595Y-127701938D01*
X179463595Y-127701938D02*
X179511214Y-127749557D01*
X179511214Y-127749557D02*
X179558833Y-127844795D01*
X179558833Y-127844795D02*
X179558833Y-127987652D01*
X179558833Y-127987652D02*
X179511214Y-128082890D01*
X179511214Y-128082890D02*
X179463595Y-128130509D01*
X179463595Y-128130509D02*
X179368357Y-128178128D01*
X179368357Y-128178128D02*
X178987405Y-128178128D01*
X179939786Y-127749557D02*
X179987405Y-127701938D01*
X179987405Y-127701938D02*
X180082643Y-127654319D01*
X180082643Y-127654319D02*
X180320738Y-127654319D01*
X180320738Y-127654319D02*
X180415976Y-127701938D01*
X180415976Y-127701938D02*
X180463595Y-127749557D01*
X180463595Y-127749557D02*
X180511214Y-127844795D01*
X180511214Y-127844795D02*
X180511214Y-127940033D01*
X180511214Y-127940033D02*
X180463595Y-128082890D01*
X180463595Y-128082890D02*
X179892167Y-128654319D01*
X179892167Y-128654319D02*
X180511214Y-128654319D01*
X163716667Y-81057200D02*
X163859524Y-81104819D01*
X163859524Y-81104819D02*
X164097619Y-81104819D01*
X164097619Y-81104819D02*
X164192857Y-81057200D01*
X164192857Y-81057200D02*
X164240476Y-81009580D01*
X164240476Y-81009580D02*
X164288095Y-80914342D01*
X164288095Y-80914342D02*
X164288095Y-80819104D01*
X164288095Y-80819104D02*
X164240476Y-80723866D01*
X164240476Y-80723866D02*
X164192857Y-80676247D01*
X164192857Y-80676247D02*
X164097619Y-80628628D01*
X164097619Y-80628628D02*
X163907143Y-80581009D01*
X163907143Y-80581009D02*
X163811905Y-80533390D01*
X163811905Y-80533390D02*
X163764286Y-80485771D01*
X163764286Y-80485771D02*
X163716667Y-80390533D01*
X163716667Y-80390533D02*
X163716667Y-80295295D01*
X163716667Y-80295295D02*
X163764286Y-80200057D01*
X163764286Y-80200057D02*
X163811905Y-80152438D01*
X163811905Y-80152438D02*
X163907143Y-80104819D01*
X163907143Y-80104819D02*
X164145238Y-80104819D01*
X164145238Y-80104819D02*
X164288095Y-80152438D01*
X164621429Y-80104819D02*
X164859524Y-81104819D01*
X164859524Y-81104819D02*
X165050000Y-80390533D01*
X165050000Y-80390533D02*
X165240476Y-81104819D01*
X165240476Y-81104819D02*
X165478572Y-80104819D01*
X166383333Y-81104819D02*
X165811905Y-81104819D01*
X166097619Y-81104819D02*
X166097619Y-80104819D01*
X166097619Y-80104819D02*
X166002381Y-80247676D01*
X166002381Y-80247676D02*
X165907143Y-80342914D01*
X165907143Y-80342914D02*
X165811905Y-80390533D01*
X229866666Y-81902319D02*
X229866666Y-82616604D01*
X229866666Y-82616604D02*
X229819047Y-82759461D01*
X229819047Y-82759461D02*
X229723809Y-82854700D01*
X229723809Y-82854700D02*
X229580952Y-82902319D01*
X229580952Y-82902319D02*
X229485714Y-82902319D01*
X230247619Y-81902319D02*
X230866666Y-81902319D01*
X230866666Y-81902319D02*
X230533333Y-82283271D01*
X230533333Y-82283271D02*
X230676190Y-82283271D01*
X230676190Y-82283271D02*
X230771428Y-82330890D01*
X230771428Y-82330890D02*
X230819047Y-82378509D01*
X230819047Y-82378509D02*
X230866666Y-82473747D01*
X230866666Y-82473747D02*
X230866666Y-82711842D01*
X230866666Y-82711842D02*
X230819047Y-82807080D01*
X230819047Y-82807080D02*
X230771428Y-82854700D01*
X230771428Y-82854700D02*
X230676190Y-82902319D01*
X230676190Y-82902319D02*
X230390476Y-82902319D01*
X230390476Y-82902319D02*
X230295238Y-82854700D01*
X230295238Y-82854700D02*
X230247619Y-82807080D01*
X234366666Y-104584819D02*
X234366666Y-105299104D01*
X234366666Y-105299104D02*
X234319047Y-105441961D01*
X234319047Y-105441961D02*
X234223809Y-105537200D01*
X234223809Y-105537200D02*
X234080952Y-105584819D01*
X234080952Y-105584819D02*
X233985714Y-105584819D01*
X234890476Y-105584819D02*
X235080952Y-105584819D01*
X235080952Y-105584819D02*
X235176190Y-105537200D01*
X235176190Y-105537200D02*
X235223809Y-105489580D01*
X235223809Y-105489580D02*
X235319047Y-105346723D01*
X235319047Y-105346723D02*
X235366666Y-105156247D01*
X235366666Y-105156247D02*
X235366666Y-104775295D01*
X235366666Y-104775295D02*
X235319047Y-104680057D01*
X235319047Y-104680057D02*
X235271428Y-104632438D01*
X235271428Y-104632438D02*
X235176190Y-104584819D01*
X235176190Y-104584819D02*
X234985714Y-104584819D01*
X234985714Y-104584819D02*
X234890476Y-104632438D01*
X234890476Y-104632438D02*
X234842857Y-104680057D01*
X234842857Y-104680057D02*
X234795238Y-104775295D01*
X234795238Y-104775295D02*
X234795238Y-105013390D01*
X234795238Y-105013390D02*
X234842857Y-105108628D01*
X234842857Y-105108628D02*
X234890476Y-105156247D01*
X234890476Y-105156247D02*
X234985714Y-105203866D01*
X234985714Y-105203866D02*
X235176190Y-105203866D01*
X235176190Y-105203866D02*
X235271428Y-105156247D01*
X235271428Y-105156247D02*
X235319047Y-105108628D01*
X235319047Y-105108628D02*
X235366666Y-105013390D01*
X250875476Y-107822319D02*
X250875476Y-108536604D01*
X250875476Y-108536604D02*
X250827857Y-108679461D01*
X250827857Y-108679461D02*
X250732619Y-108774700D01*
X250732619Y-108774700D02*
X250589762Y-108822319D01*
X250589762Y-108822319D02*
X250494524Y-108822319D01*
X251875476Y-108822319D02*
X251304048Y-108822319D01*
X251589762Y-108822319D02*
X251589762Y-107822319D01*
X251589762Y-107822319D02*
X251494524Y-107965176D01*
X251494524Y-107965176D02*
X251399286Y-108060414D01*
X251399286Y-108060414D02*
X251304048Y-108108033D01*
X252494524Y-107822319D02*
X252589762Y-107822319D01*
X252589762Y-107822319D02*
X252685000Y-107869938D01*
X252685000Y-107869938D02*
X252732619Y-107917557D01*
X252732619Y-107917557D02*
X252780238Y-108012795D01*
X252780238Y-108012795D02*
X252827857Y-108203271D01*
X252827857Y-108203271D02*
X252827857Y-108441366D01*
X252827857Y-108441366D02*
X252780238Y-108631842D01*
X252780238Y-108631842D02*
X252732619Y-108727080D01*
X252732619Y-108727080D02*
X252685000Y-108774700D01*
X252685000Y-108774700D02*
X252589762Y-108822319D01*
X252589762Y-108822319D02*
X252494524Y-108822319D01*
X252494524Y-108822319D02*
X252399286Y-108774700D01*
X252399286Y-108774700D02*
X252351667Y-108727080D01*
X252351667Y-108727080D02*
X252304048Y-108631842D01*
X252304048Y-108631842D02*
X252256429Y-108441366D01*
X252256429Y-108441366D02*
X252256429Y-108203271D01*
X252256429Y-108203271D02*
X252304048Y-108012795D01*
X252304048Y-108012795D02*
X252351667Y-107917557D01*
X252351667Y-107917557D02*
X252399286Y-107869938D01*
X252399286Y-107869938D02*
X252494524Y-107822319D01*
X172376095Y-126254319D02*
X172376095Y-127063842D01*
X172376095Y-127063842D02*
X172423714Y-127159080D01*
X172423714Y-127159080D02*
X172471333Y-127206700D01*
X172471333Y-127206700D02*
X172566571Y-127254319D01*
X172566571Y-127254319D02*
X172757047Y-127254319D01*
X172757047Y-127254319D02*
X172852285Y-127206700D01*
X172852285Y-127206700D02*
X172899904Y-127159080D01*
X172899904Y-127159080D02*
X172947523Y-127063842D01*
X172947523Y-127063842D02*
X172947523Y-126254319D01*
X173376095Y-126349557D02*
X173423714Y-126301938D01*
X173423714Y-126301938D02*
X173518952Y-126254319D01*
X173518952Y-126254319D02*
X173757047Y-126254319D01*
X173757047Y-126254319D02*
X173852285Y-126301938D01*
X173852285Y-126301938D02*
X173899904Y-126349557D01*
X173899904Y-126349557D02*
X173947523Y-126444795D01*
X173947523Y-126444795D02*
X173947523Y-126540033D01*
X173947523Y-126540033D02*
X173899904Y-126682890D01*
X173899904Y-126682890D02*
X173328476Y-127254319D01*
X173328476Y-127254319D02*
X173947523Y-127254319D01*
X175342819Y-133016166D02*
X174866628Y-133349499D01*
X175342819Y-133587594D02*
X174342819Y-133587594D01*
X174342819Y-133587594D02*
X174342819Y-133206642D01*
X174342819Y-133206642D02*
X174390438Y-133111404D01*
X174390438Y-133111404D02*
X174438057Y-133063785D01*
X174438057Y-133063785D02*
X174533295Y-133016166D01*
X174533295Y-133016166D02*
X174676152Y-133016166D01*
X174676152Y-133016166D02*
X174771390Y-133063785D01*
X174771390Y-133063785D02*
X174819009Y-133111404D01*
X174819009Y-133111404D02*
X174866628Y-133206642D01*
X174866628Y-133206642D02*
X174866628Y-133587594D01*
X174342819Y-132111404D02*
X174342819Y-132587594D01*
X174342819Y-132587594D02*
X174819009Y-132635213D01*
X174819009Y-132635213D02*
X174771390Y-132587594D01*
X174771390Y-132587594D02*
X174723771Y-132492356D01*
X174723771Y-132492356D02*
X174723771Y-132254261D01*
X174723771Y-132254261D02*
X174771390Y-132159023D01*
X174771390Y-132159023D02*
X174819009Y-132111404D01*
X174819009Y-132111404D02*
X174914247Y-132063785D01*
X174914247Y-132063785D02*
X175152342Y-132063785D01*
X175152342Y-132063785D02*
X175247580Y-132111404D01*
X175247580Y-132111404D02*
X175295200Y-132159023D01*
X175295200Y-132159023D02*
X175342819Y-132254261D01*
X175342819Y-132254261D02*
X175342819Y-132492356D01*
X175342819Y-132492356D02*
X175295200Y-132587594D01*
X175295200Y-132587594D02*
X175247580Y-132635213D01*
X179478476Y-133954319D02*
X179478476Y-134668604D01*
X179478476Y-134668604D02*
X179430857Y-134811461D01*
X179430857Y-134811461D02*
X179335619Y-134906700D01*
X179335619Y-134906700D02*
X179192762Y-134954319D01*
X179192762Y-134954319D02*
X179097524Y-134954319D01*
X180478476Y-134954319D02*
X179907048Y-134954319D01*
X180192762Y-134954319D02*
X180192762Y-133954319D01*
X180192762Y-133954319D02*
X180097524Y-134097176D01*
X180097524Y-134097176D02*
X180002286Y-134192414D01*
X180002286Y-134192414D02*
X179907048Y-134240033D01*
X181430857Y-134954319D02*
X180859429Y-134954319D01*
X181145143Y-134954319D02*
X181145143Y-133954319D01*
X181145143Y-133954319D02*
X181049905Y-134097176D01*
X181049905Y-134097176D02*
X180954667Y-134192414D01*
X180954667Y-134192414D02*
X180859429Y-134240033D01*
X230695238Y-116587319D02*
X230695238Y-115587319D01*
X230695238Y-115587319D02*
X230933333Y-115587319D01*
X230933333Y-115587319D02*
X231076190Y-115634938D01*
X231076190Y-115634938D02*
X231171428Y-115730176D01*
X231171428Y-115730176D02*
X231219047Y-115825414D01*
X231219047Y-115825414D02*
X231266666Y-116015890D01*
X231266666Y-116015890D02*
X231266666Y-116158747D01*
X231266666Y-116158747D02*
X231219047Y-116349223D01*
X231219047Y-116349223D02*
X231171428Y-116444461D01*
X231171428Y-116444461D02*
X231076190Y-116539700D01*
X231076190Y-116539700D02*
X230933333Y-116587319D01*
X230933333Y-116587319D02*
X230695238Y-116587319D01*
X231695238Y-116587319D02*
X231695238Y-115920652D01*
X231695238Y-116015890D02*
X231742857Y-115968271D01*
X231742857Y-115968271D02*
X231838095Y-115920652D01*
X231838095Y-115920652D02*
X231980952Y-115920652D01*
X231980952Y-115920652D02*
X232076190Y-115968271D01*
X232076190Y-115968271D02*
X232123809Y-116063509D01*
X232123809Y-116063509D02*
X232123809Y-116587319D01*
X232123809Y-116063509D02*
X232171428Y-115968271D01*
X232171428Y-115968271D02*
X232266666Y-115920652D01*
X232266666Y-115920652D02*
X232409523Y-115920652D01*
X232409523Y-115920652D02*
X232504762Y-115968271D01*
X232504762Y-115968271D02*
X232552381Y-116063509D01*
X232552381Y-116063509D02*
X232552381Y-116587319D01*
X233504761Y-115587319D02*
X233028571Y-115587319D01*
X233028571Y-115587319D02*
X232980952Y-116063509D01*
X232980952Y-116063509D02*
X233028571Y-116015890D01*
X233028571Y-116015890D02*
X233123809Y-115968271D01*
X233123809Y-115968271D02*
X233361904Y-115968271D01*
X233361904Y-115968271D02*
X233457142Y-116015890D01*
X233457142Y-116015890D02*
X233504761Y-116063509D01*
X233504761Y-116063509D02*
X233552380Y-116158747D01*
X233552380Y-116158747D02*
X233552380Y-116396842D01*
X233552380Y-116396842D02*
X233504761Y-116492080D01*
X233504761Y-116492080D02*
X233457142Y-116539700D01*
X233457142Y-116539700D02*
X233361904Y-116587319D01*
X233361904Y-116587319D02*
X233123809Y-116587319D01*
X233123809Y-116587319D02*
X233028571Y-116539700D01*
X233028571Y-116539700D02*
X232980952Y-116492080D01*
X93838095Y-97449819D02*
X93838095Y-98259342D01*
X93838095Y-98259342D02*
X93885714Y-98354580D01*
X93885714Y-98354580D02*
X93933333Y-98402200D01*
X93933333Y-98402200D02*
X94028571Y-98449819D01*
X94028571Y-98449819D02*
X94219047Y-98449819D01*
X94219047Y-98449819D02*
X94314285Y-98402200D01*
X94314285Y-98402200D02*
X94361904Y-98354580D01*
X94361904Y-98354580D02*
X94409523Y-98259342D01*
X94409523Y-98259342D02*
X94409523Y-97449819D01*
X95314285Y-97783152D02*
X95314285Y-98449819D01*
X95076190Y-97402200D02*
X94838095Y-98116485D01*
X94838095Y-98116485D02*
X95457142Y-98116485D01*
X212566666Y-80034819D02*
X212566666Y-80749104D01*
X212566666Y-80749104D02*
X212519047Y-80891961D01*
X212519047Y-80891961D02*
X212423809Y-80987200D01*
X212423809Y-80987200D02*
X212280952Y-81034819D01*
X212280952Y-81034819D02*
X212185714Y-81034819D01*
X212995238Y-80130057D02*
X213042857Y-80082438D01*
X213042857Y-80082438D02*
X213138095Y-80034819D01*
X213138095Y-80034819D02*
X213376190Y-80034819D01*
X213376190Y-80034819D02*
X213471428Y-80082438D01*
X213471428Y-80082438D02*
X213519047Y-80130057D01*
X213519047Y-80130057D02*
X213566666Y-80225295D01*
X213566666Y-80225295D02*
X213566666Y-80320533D01*
X213566666Y-80320533D02*
X213519047Y-80463390D01*
X213519047Y-80463390D02*
X212947619Y-81034819D01*
X212947619Y-81034819D02*
X213566666Y-81034819D01*
X205711905Y-128754819D02*
X205711905Y-127754819D01*
X205711905Y-127754819D02*
X205950000Y-127754819D01*
X205950000Y-127754819D02*
X206092857Y-127802438D01*
X206092857Y-127802438D02*
X206188095Y-127897676D01*
X206188095Y-127897676D02*
X206235714Y-127992914D01*
X206235714Y-127992914D02*
X206283333Y-128183390D01*
X206283333Y-128183390D02*
X206283333Y-128326247D01*
X206283333Y-128326247D02*
X206235714Y-128516723D01*
X206235714Y-128516723D02*
X206188095Y-128611961D01*
X206188095Y-128611961D02*
X206092857Y-128707200D01*
X206092857Y-128707200D02*
X205950000Y-128754819D01*
X205950000Y-128754819D02*
X205711905Y-128754819D01*
X207235714Y-128754819D02*
X206664286Y-128754819D01*
X206950000Y-128754819D02*
X206950000Y-127754819D01*
X206950000Y-127754819D02*
X206854762Y-127897676D01*
X206854762Y-127897676D02*
X206759524Y-127992914D01*
X206759524Y-127992914D02*
X206664286Y-128040533D01*
X129770319Y-123089523D02*
X130484604Y-123089523D01*
X130484604Y-123089523D02*
X130627461Y-123137142D01*
X130627461Y-123137142D02*
X130722700Y-123232380D01*
X130722700Y-123232380D02*
X130770319Y-123375237D01*
X130770319Y-123375237D02*
X130770319Y-123470475D01*
X130770319Y-122089523D02*
X130770319Y-122660951D01*
X130770319Y-122375237D02*
X129770319Y-122375237D01*
X129770319Y-122375237D02*
X129913176Y-122470475D01*
X129913176Y-122470475D02*
X130008414Y-122565713D01*
X130008414Y-122565713D02*
X130056033Y-122660951D01*
X129770319Y-121184761D02*
X129770319Y-121660951D01*
X129770319Y-121660951D02*
X130246509Y-121708570D01*
X130246509Y-121708570D02*
X130198890Y-121660951D01*
X130198890Y-121660951D02*
X130151271Y-121565713D01*
X130151271Y-121565713D02*
X130151271Y-121327618D01*
X130151271Y-121327618D02*
X130198890Y-121232380D01*
X130198890Y-121232380D02*
X130246509Y-121184761D01*
X130246509Y-121184761D02*
X130341747Y-121137142D01*
X130341747Y-121137142D02*
X130579842Y-121137142D01*
X130579842Y-121137142D02*
X130675080Y-121184761D01*
X130675080Y-121184761D02*
X130722700Y-121232380D01*
X130722700Y-121232380D02*
X130770319Y-121327618D01*
X130770319Y-121327618D02*
X130770319Y-121565713D01*
X130770319Y-121565713D02*
X130722700Y-121660951D01*
X130722700Y-121660951D02*
X130675080Y-121708570D01*
X209359524Y-91904819D02*
X209359524Y-90904819D01*
X209359524Y-90904819D02*
X209597619Y-90904819D01*
X209597619Y-90904819D02*
X209740476Y-90952438D01*
X209740476Y-90952438D02*
X209835714Y-91047676D01*
X209835714Y-91047676D02*
X209883333Y-91142914D01*
X209883333Y-91142914D02*
X209930952Y-91333390D01*
X209930952Y-91333390D02*
X209930952Y-91476247D01*
X209930952Y-91476247D02*
X209883333Y-91666723D01*
X209883333Y-91666723D02*
X209835714Y-91761961D01*
X209835714Y-91761961D02*
X209740476Y-91857200D01*
X209740476Y-91857200D02*
X209597619Y-91904819D01*
X209597619Y-91904819D02*
X209359524Y-91904819D01*
X210359524Y-91904819D02*
X210359524Y-90904819D01*
X210788095Y-91904819D02*
X210788095Y-91381009D01*
X210788095Y-91381009D02*
X210740476Y-91285771D01*
X210740476Y-91285771D02*
X210645238Y-91238152D01*
X210645238Y-91238152D02*
X210502381Y-91238152D01*
X210502381Y-91238152D02*
X210407143Y-91285771D01*
X210407143Y-91285771D02*
X210359524Y-91333390D01*
X211216667Y-91000057D02*
X211264286Y-90952438D01*
X211264286Y-90952438D02*
X211359524Y-90904819D01*
X211359524Y-90904819D02*
X211597619Y-90904819D01*
X211597619Y-90904819D02*
X211692857Y-90952438D01*
X211692857Y-90952438D02*
X211740476Y-91000057D01*
X211740476Y-91000057D02*
X211788095Y-91095295D01*
X211788095Y-91095295D02*
X211788095Y-91190533D01*
X211788095Y-91190533D02*
X211740476Y-91333390D01*
X211740476Y-91333390D02*
X211169048Y-91904819D01*
X211169048Y-91904819D02*
X211788095Y-91904819D01*
X165366666Y-99802319D02*
X165366666Y-100516604D01*
X165366666Y-100516604D02*
X165319047Y-100659461D01*
X165319047Y-100659461D02*
X165223809Y-100754700D01*
X165223809Y-100754700D02*
X165080952Y-100802319D01*
X165080952Y-100802319D02*
X164985714Y-100802319D01*
X166319047Y-99802319D02*
X165842857Y-99802319D01*
X165842857Y-99802319D02*
X165795238Y-100278509D01*
X165795238Y-100278509D02*
X165842857Y-100230890D01*
X165842857Y-100230890D02*
X165938095Y-100183271D01*
X165938095Y-100183271D02*
X166176190Y-100183271D01*
X166176190Y-100183271D02*
X166271428Y-100230890D01*
X166271428Y-100230890D02*
X166319047Y-100278509D01*
X166319047Y-100278509D02*
X166366666Y-100373747D01*
X166366666Y-100373747D02*
X166366666Y-100611842D01*
X166366666Y-100611842D02*
X166319047Y-100707080D01*
X166319047Y-100707080D02*
X166271428Y-100754700D01*
X166271428Y-100754700D02*
X166176190Y-100802319D01*
X166176190Y-100802319D02*
X165938095Y-100802319D01*
X165938095Y-100802319D02*
X165842857Y-100754700D01*
X165842857Y-100754700D02*
X165795238Y-100707080D01*
X182616666Y-102102319D02*
X182616666Y-102816604D01*
X182616666Y-102816604D02*
X182569047Y-102959461D01*
X182569047Y-102959461D02*
X182473809Y-103054700D01*
X182473809Y-103054700D02*
X182330952Y-103102319D01*
X182330952Y-103102319D02*
X182235714Y-103102319D01*
X183521428Y-102102319D02*
X183330952Y-102102319D01*
X183330952Y-102102319D02*
X183235714Y-102149938D01*
X183235714Y-102149938D02*
X183188095Y-102197557D01*
X183188095Y-102197557D02*
X183092857Y-102340414D01*
X183092857Y-102340414D02*
X183045238Y-102530890D01*
X183045238Y-102530890D02*
X183045238Y-102911842D01*
X183045238Y-102911842D02*
X183092857Y-103007080D01*
X183092857Y-103007080D02*
X183140476Y-103054700D01*
X183140476Y-103054700D02*
X183235714Y-103102319D01*
X183235714Y-103102319D02*
X183426190Y-103102319D01*
X183426190Y-103102319D02*
X183521428Y-103054700D01*
X183521428Y-103054700D02*
X183569047Y-103007080D01*
X183569047Y-103007080D02*
X183616666Y-102911842D01*
X183616666Y-102911842D02*
X183616666Y-102673747D01*
X183616666Y-102673747D02*
X183569047Y-102578509D01*
X183569047Y-102578509D02*
X183521428Y-102530890D01*
X183521428Y-102530890D02*
X183426190Y-102483271D01*
X183426190Y-102483271D02*
X183235714Y-102483271D01*
X183235714Y-102483271D02*
X183140476Y-102530890D01*
X183140476Y-102530890D02*
X183092857Y-102578509D01*
X183092857Y-102578509D02*
X183045238Y-102673747D01*
X91283333Y-83404819D02*
X90950000Y-82928628D01*
X90711905Y-83404819D02*
X90711905Y-82404819D01*
X90711905Y-82404819D02*
X91092857Y-82404819D01*
X91092857Y-82404819D02*
X91188095Y-82452438D01*
X91188095Y-82452438D02*
X91235714Y-82500057D01*
X91235714Y-82500057D02*
X91283333Y-82595295D01*
X91283333Y-82595295D02*
X91283333Y-82738152D01*
X91283333Y-82738152D02*
X91235714Y-82833390D01*
X91235714Y-82833390D02*
X91188095Y-82881009D01*
X91188095Y-82881009D02*
X91092857Y-82928628D01*
X91092857Y-82928628D02*
X90711905Y-82928628D01*
X91759524Y-83404819D02*
X91950000Y-83404819D01*
X91950000Y-83404819D02*
X92045238Y-83357200D01*
X92045238Y-83357200D02*
X92092857Y-83309580D01*
X92092857Y-83309580D02*
X92188095Y-83166723D01*
X92188095Y-83166723D02*
X92235714Y-82976247D01*
X92235714Y-82976247D02*
X92235714Y-82595295D01*
X92235714Y-82595295D02*
X92188095Y-82500057D01*
X92188095Y-82500057D02*
X92140476Y-82452438D01*
X92140476Y-82452438D02*
X92045238Y-82404819D01*
X92045238Y-82404819D02*
X91854762Y-82404819D01*
X91854762Y-82404819D02*
X91759524Y-82452438D01*
X91759524Y-82452438D02*
X91711905Y-82500057D01*
X91711905Y-82500057D02*
X91664286Y-82595295D01*
X91664286Y-82595295D02*
X91664286Y-82833390D01*
X91664286Y-82833390D02*
X91711905Y-82928628D01*
X91711905Y-82928628D02*
X91759524Y-82976247D01*
X91759524Y-82976247D02*
X91854762Y-83023866D01*
X91854762Y-83023866D02*
X92045238Y-83023866D01*
X92045238Y-83023866D02*
X92140476Y-82976247D01*
X92140476Y-82976247D02*
X92188095Y-82928628D01*
X92188095Y-82928628D02*
X92235714Y-82833390D01*
X245659524Y-91904819D02*
X245659524Y-90904819D01*
X245659524Y-90904819D02*
X245897619Y-90904819D01*
X245897619Y-90904819D02*
X246040476Y-90952438D01*
X246040476Y-90952438D02*
X246135714Y-91047676D01*
X246135714Y-91047676D02*
X246183333Y-91142914D01*
X246183333Y-91142914D02*
X246230952Y-91333390D01*
X246230952Y-91333390D02*
X246230952Y-91476247D01*
X246230952Y-91476247D02*
X246183333Y-91666723D01*
X246183333Y-91666723D02*
X246135714Y-91761961D01*
X246135714Y-91761961D02*
X246040476Y-91857200D01*
X246040476Y-91857200D02*
X245897619Y-91904819D01*
X245897619Y-91904819D02*
X245659524Y-91904819D01*
X246659524Y-91904819D02*
X246659524Y-90904819D01*
X247088095Y-91904819D02*
X247088095Y-91381009D01*
X247088095Y-91381009D02*
X247040476Y-91285771D01*
X247040476Y-91285771D02*
X246945238Y-91238152D01*
X246945238Y-91238152D02*
X246802381Y-91238152D01*
X246802381Y-91238152D02*
X246707143Y-91285771D01*
X246707143Y-91285771D02*
X246659524Y-91333390D01*
X247992857Y-91238152D02*
X247992857Y-91904819D01*
X247754762Y-90857200D02*
X247516667Y-91571485D01*
X247516667Y-91571485D02*
X248135714Y-91571485D01*
X91383333Y-81254819D02*
X91050000Y-80778628D01*
X90811905Y-81254819D02*
X90811905Y-80254819D01*
X90811905Y-80254819D02*
X91192857Y-80254819D01*
X91192857Y-80254819D02*
X91288095Y-80302438D01*
X91288095Y-80302438D02*
X91335714Y-80350057D01*
X91335714Y-80350057D02*
X91383333Y-80445295D01*
X91383333Y-80445295D02*
X91383333Y-80588152D01*
X91383333Y-80588152D02*
X91335714Y-80683390D01*
X91335714Y-80683390D02*
X91288095Y-80731009D01*
X91288095Y-80731009D02*
X91192857Y-80778628D01*
X91192857Y-80778628D02*
X90811905Y-80778628D01*
X91954762Y-80683390D02*
X91859524Y-80635771D01*
X91859524Y-80635771D02*
X91811905Y-80588152D01*
X91811905Y-80588152D02*
X91764286Y-80492914D01*
X91764286Y-80492914D02*
X91764286Y-80445295D01*
X91764286Y-80445295D02*
X91811905Y-80350057D01*
X91811905Y-80350057D02*
X91859524Y-80302438D01*
X91859524Y-80302438D02*
X91954762Y-80254819D01*
X91954762Y-80254819D02*
X92145238Y-80254819D01*
X92145238Y-80254819D02*
X92240476Y-80302438D01*
X92240476Y-80302438D02*
X92288095Y-80350057D01*
X92288095Y-80350057D02*
X92335714Y-80445295D01*
X92335714Y-80445295D02*
X92335714Y-80492914D01*
X92335714Y-80492914D02*
X92288095Y-80588152D01*
X92288095Y-80588152D02*
X92240476Y-80635771D01*
X92240476Y-80635771D02*
X92145238Y-80683390D01*
X92145238Y-80683390D02*
X91954762Y-80683390D01*
X91954762Y-80683390D02*
X91859524Y-80731009D01*
X91859524Y-80731009D02*
X91811905Y-80778628D01*
X91811905Y-80778628D02*
X91764286Y-80873866D01*
X91764286Y-80873866D02*
X91764286Y-81064342D01*
X91764286Y-81064342D02*
X91811905Y-81159580D01*
X91811905Y-81159580D02*
X91859524Y-81207200D01*
X91859524Y-81207200D02*
X91954762Y-81254819D01*
X91954762Y-81254819D02*
X92145238Y-81254819D01*
X92145238Y-81254819D02*
X92240476Y-81207200D01*
X92240476Y-81207200D02*
X92288095Y-81159580D01*
X92288095Y-81159580D02*
X92335714Y-81064342D01*
X92335714Y-81064342D02*
X92335714Y-80873866D01*
X92335714Y-80873866D02*
X92288095Y-80778628D01*
X92288095Y-80778628D02*
X92240476Y-80731009D01*
X92240476Y-80731009D02*
X92145238Y-80683390D01*
X200504819Y-133261904D02*
X201314342Y-133261904D01*
X201314342Y-133261904D02*
X201409580Y-133214285D01*
X201409580Y-133214285D02*
X201457200Y-133166666D01*
X201457200Y-133166666D02*
X201504819Y-133071428D01*
X201504819Y-133071428D02*
X201504819Y-132880952D01*
X201504819Y-132880952D02*
X201457200Y-132785714D01*
X201457200Y-132785714D02*
X201409580Y-132738095D01*
X201409580Y-132738095D02*
X201314342Y-132690476D01*
X201314342Y-132690476D02*
X200504819Y-132690476D01*
X201504819Y-131690476D02*
X201504819Y-132261904D01*
X201504819Y-131976190D02*
X200504819Y-131976190D01*
X200504819Y-131976190D02*
X200647676Y-132071428D01*
X200647676Y-132071428D02*
X200742914Y-132166666D01*
X200742914Y-132166666D02*
X200790533Y-132261904D01*
X97407142Y-84429580D02*
X97359523Y-84477200D01*
X97359523Y-84477200D02*
X97216666Y-84524819D01*
X97216666Y-84524819D02*
X97121428Y-84524819D01*
X97121428Y-84524819D02*
X96978571Y-84477200D01*
X96978571Y-84477200D02*
X96883333Y-84381961D01*
X96883333Y-84381961D02*
X96835714Y-84286723D01*
X96835714Y-84286723D02*
X96788095Y-84096247D01*
X96788095Y-84096247D02*
X96788095Y-83953390D01*
X96788095Y-83953390D02*
X96835714Y-83762914D01*
X96835714Y-83762914D02*
X96883333Y-83667676D01*
X96883333Y-83667676D02*
X96978571Y-83572438D01*
X96978571Y-83572438D02*
X97121428Y-83524819D01*
X97121428Y-83524819D02*
X97216666Y-83524819D01*
X97216666Y-83524819D02*
X97359523Y-83572438D01*
X97359523Y-83572438D02*
X97407142Y-83620057D01*
X98359523Y-84524819D02*
X97788095Y-84524819D01*
X98073809Y-84524819D02*
X98073809Y-83524819D01*
X98073809Y-83524819D02*
X97978571Y-83667676D01*
X97978571Y-83667676D02*
X97883333Y-83762914D01*
X97883333Y-83762914D02*
X97788095Y-83810533D01*
X98692857Y-83524819D02*
X99359523Y-83524819D01*
X99359523Y-83524819D02*
X98930952Y-84524819D01*
X178895238Y-113922319D02*
X178895238Y-112922319D01*
X178895238Y-112922319D02*
X179133333Y-112922319D01*
X179133333Y-112922319D02*
X179276190Y-112969938D01*
X179276190Y-112969938D02*
X179371428Y-113065176D01*
X179371428Y-113065176D02*
X179419047Y-113160414D01*
X179419047Y-113160414D02*
X179466666Y-113350890D01*
X179466666Y-113350890D02*
X179466666Y-113493747D01*
X179466666Y-113493747D02*
X179419047Y-113684223D01*
X179419047Y-113684223D02*
X179371428Y-113779461D01*
X179371428Y-113779461D02*
X179276190Y-113874700D01*
X179276190Y-113874700D02*
X179133333Y-113922319D01*
X179133333Y-113922319D02*
X178895238Y-113922319D01*
X179895238Y-113922319D02*
X179895238Y-113255652D01*
X179895238Y-113350890D02*
X179942857Y-113303271D01*
X179942857Y-113303271D02*
X180038095Y-113255652D01*
X180038095Y-113255652D02*
X180180952Y-113255652D01*
X180180952Y-113255652D02*
X180276190Y-113303271D01*
X180276190Y-113303271D02*
X180323809Y-113398509D01*
X180323809Y-113398509D02*
X180323809Y-113922319D01*
X180323809Y-113398509D02*
X180371428Y-113303271D01*
X180371428Y-113303271D02*
X180466666Y-113255652D01*
X180466666Y-113255652D02*
X180609523Y-113255652D01*
X180609523Y-113255652D02*
X180704762Y-113303271D01*
X180704762Y-113303271D02*
X180752381Y-113398509D01*
X180752381Y-113398509D02*
X180752381Y-113922319D01*
X181180952Y-113017557D02*
X181228571Y-112969938D01*
X181228571Y-112969938D02*
X181323809Y-112922319D01*
X181323809Y-112922319D02*
X181561904Y-112922319D01*
X181561904Y-112922319D02*
X181657142Y-112969938D01*
X181657142Y-112969938D02*
X181704761Y-113017557D01*
X181704761Y-113017557D02*
X181752380Y-113112795D01*
X181752380Y-113112795D02*
X181752380Y-113208033D01*
X181752380Y-113208033D02*
X181704761Y-113350890D01*
X181704761Y-113350890D02*
X181133333Y-113922319D01*
X181133333Y-113922319D02*
X181752380Y-113922319D01*
D11*
%TO.C,JP1*%
X184588000Y-126847000D02*
X187388000Y-126847000D01*
X184588000Y-128847000D02*
X184588000Y-126847000D01*
X187388000Y-126847000D02*
X187388000Y-128847000D01*
X187388000Y-128847000D02*
X184588000Y-128847000D01*
%TO.C,J14*%
X122635500Y-105480000D02*
X124015500Y-105480000D01*
X122635500Y-106860000D02*
X122635500Y-105480000D01*
X122635500Y-108130000D02*
X122635500Y-126020000D01*
X122635500Y-108130000D02*
X125395500Y-108130000D01*
X122635500Y-126020000D02*
X125395500Y-126020000D01*
X125395500Y-108130000D02*
X125395500Y-126020000D01*
%TO.C,C14*%
X167361252Y-125415000D02*
X166838748Y-125415000D01*
X167361252Y-126885000D02*
X166838748Y-126885000D01*
%TO.C,Dm6*%
X251690000Y-120305000D02*
X251690000Y-120770000D01*
X251690000Y-122930000D02*
X251690000Y-123395000D01*
X251690000Y-120305170D02*
G75*
G02*
X257038136Y-120770000I2560000J-1544830D01*
G01*
X251995316Y-120770000D02*
G75*
G02*
X256504684Y-120770000I2254684J-1080000D01*
G01*
X256504684Y-122930000D02*
G75*
G02*
X251995316Y-122930000I-2254684J1080000D01*
G01*
X257038136Y-122930000D02*
G75*
G02*
X251690000Y-123394830I-2788136J1080000D01*
G01*
%TO.C,C15*%
X167515000Y-129138748D02*
X167515000Y-129661252D01*
X168985000Y-129138748D02*
X168985000Y-129661252D01*
%TO.C,C3*%
X236515000Y-94338748D02*
X236515000Y-94861252D01*
X237985000Y-94338748D02*
X237985000Y-94861252D01*
%TO.C,C13*%
X129011252Y-86115000D02*
X128488748Y-86115000D01*
X129011252Y-87585000D02*
X128488748Y-87585000D01*
%TO.C,SW4*%
X172300000Y-93050000D02*
X172300000Y-94550000D01*
X173550000Y-97050000D02*
X178050000Y-97050000D01*
X178050000Y-90550000D02*
X173550000Y-90550000D01*
X179300000Y-94550000D02*
X179300000Y-93050000D01*
%TO.C,TP3*%
X175350000Y-123650000D02*
X178250000Y-123650000D01*
X175350000Y-126550000D02*
X175350000Y-123650000D01*
X178250000Y-123650000D02*
X178250000Y-126550000D01*
X178250000Y-126550000D02*
X175350000Y-126550000D01*
%TO.C,C12*%
X211515000Y-131738748D02*
X211515000Y-132261252D01*
X212985000Y-131738748D02*
X212985000Y-132261252D01*
%TO.C,J1*%
X187280000Y-83997500D02*
X187280000Y-92537500D01*
X187280000Y-83997500D02*
X202520000Y-83997500D01*
X187280000Y-88917500D02*
X187870000Y-88917500D01*
X187280000Y-92537500D02*
X189350000Y-92537500D01*
X188250000Y-84817500D02*
X188250000Y-86037500D01*
X188250000Y-84817500D02*
X191050000Y-84817500D01*
X189950000Y-92537500D02*
X202520000Y-92537500D01*
X191050000Y-84817500D02*
X191050000Y-86037500D01*
X191430000Y-88917500D02*
X191751000Y-88917500D01*
X191750000Y-84817500D02*
X191750000Y-86718500D01*
X191750000Y-84817500D02*
X194550000Y-84817500D01*
X194549000Y-88917500D02*
X195251000Y-88917500D01*
X194550000Y-84817500D02*
X194550000Y-86718500D01*
X195250000Y-84817500D02*
X195250000Y-86718500D01*
X195250000Y-84817500D02*
X198050000Y-84817500D01*
X198049000Y-88917500D02*
X198751000Y-88917500D01*
X198050000Y-84817500D02*
X198050000Y-86718500D01*
X198750000Y-84817500D02*
X198750000Y-86718500D01*
X198750000Y-84817500D02*
X201550000Y-84817500D01*
X201549000Y-88917500D02*
X202520000Y-88917500D01*
X201550000Y-84817500D02*
X201550000Y-86718500D01*
X202520000Y-83997500D02*
X202520000Y-92537500D01*
X188666000Y-86037500D02*
G75*
G02*
X190634000Y-86037500I984000J-180400D01*
G01*
X192158000Y-86339500D02*
G75*
G02*
X194142000Y-86339500I992000J122469D01*
G01*
X195658000Y-86339500D02*
G75*
G02*
X197642000Y-86339500I992000J122469D01*
G01*
X199158000Y-86339500D02*
G75*
G02*
X201142000Y-86339500I992000J122469D01*
G01*
X190090000Y-93147500D02*
X189210000Y-93147500D01*
X189650000Y-92537500D01*
X190090000Y-93147500D01*
G36*
X190090000Y-93147500D02*
G01*
X189210000Y-93147500D01*
X189650000Y-92537500D01*
X190090000Y-93147500D01*
G37*
%TO.C,R1*%
X183015000Y-97072936D02*
X183015000Y-97527064D01*
X184485000Y-97072936D02*
X184485000Y-97527064D01*
%TO.C,R6*%
X128088436Y-108695000D02*
X128542564Y-108695000D01*
X128088436Y-110165000D02*
X128542564Y-110165000D01*
%TO.C,Dh1*%
X194985000Y-95072500D02*
X194985000Y-95537500D01*
X194985000Y-97697500D02*
X194985000Y-98162500D01*
X194985000Y-95072670D02*
G75*
G02*
X200333136Y-95537500I2560000J-1544830D01*
G01*
X195290316Y-95537500D02*
G75*
G02*
X199799684Y-95537500I2254684J-1080000D01*
G01*
X199799684Y-97697500D02*
G75*
G02*
X195290316Y-97697500I-2254684J1080000D01*
G01*
X200333136Y-97697500D02*
G75*
G02*
X194985000Y-98162330I-2788136J1080000D01*
G01*
%TO.C,TP5*%
X99815500Y-112210000D02*
X102715500Y-112210000D01*
X99815500Y-115110000D02*
X99815500Y-112210000D01*
X102715500Y-112210000D02*
X102715500Y-115110000D01*
X102715500Y-115110000D02*
X99815500Y-115110000D01*
%TO.C,TP1*%
X127300000Y-81150000D02*
X130200000Y-81150000D01*
X127300000Y-84050000D02*
X127300000Y-81150000D01*
X130200000Y-81150000D02*
X130200000Y-84050000D01*
X130200000Y-84050000D02*
X127300000Y-84050000D01*
%TO.C,J4*%
X241330000Y-81580000D02*
X241330000Y-90120000D01*
X241330000Y-81580000D02*
X256570000Y-81580000D01*
X241330000Y-86500000D02*
X241920000Y-86500000D01*
X241330000Y-90120000D02*
X243400000Y-90120000D01*
X242300000Y-82400000D02*
X242300000Y-83620000D01*
X242300000Y-82400000D02*
X245100000Y-82400000D01*
X244000000Y-90120000D02*
X256570000Y-90120000D01*
X245100000Y-82400000D02*
X245100000Y-83620000D01*
X245480000Y-86500000D02*
X245801000Y-86500000D01*
X245800000Y-82400000D02*
X245800000Y-84301000D01*
X245800000Y-82400000D02*
X248600000Y-82400000D01*
X248599000Y-86500000D02*
X249301000Y-86500000D01*
X248600000Y-82400000D02*
X248600000Y-84301000D01*
X249300000Y-82400000D02*
X249300000Y-84301000D01*
X249300000Y-82400000D02*
X252100000Y-82400000D01*
X252099000Y-86500000D02*
X252801000Y-86500000D01*
X252100000Y-82400000D02*
X252100000Y-84301000D01*
X252800000Y-82400000D02*
X252800000Y-84301000D01*
X252800000Y-82400000D02*
X255600000Y-82400000D01*
X255599000Y-86500000D02*
X256570000Y-86500000D01*
X255600000Y-82400000D02*
X255600000Y-84301000D01*
X256570000Y-81580000D02*
X256570000Y-90120000D01*
X242716000Y-83620000D02*
G75*
G02*
X244684000Y-83620000I984000J-180400D01*
G01*
X246208000Y-83922000D02*
G75*
G02*
X248192000Y-83922000I992000J122469D01*
G01*
X249708000Y-83922000D02*
G75*
G02*
X251692000Y-83922000I992000J122469D01*
G01*
X253208000Y-83922000D02*
G75*
G02*
X255192000Y-83922000I992000J122469D01*
G01*
X244140000Y-90730000D02*
X243260000Y-90730000D01*
X243700000Y-90120000D01*
X244140000Y-90730000D01*
G36*
X244140000Y-90730000D02*
G01*
X243260000Y-90730000D01*
X243700000Y-90120000D01*
X244140000Y-90730000D01*
G37*
%TO.C,C10*%
X257920000Y-120088748D02*
X257920000Y-120611252D01*
X259390000Y-120088748D02*
X259390000Y-120611252D01*
%TO.C,C2*%
X219165000Y-92438748D02*
X219165000Y-92961252D01*
X220635000Y-92438748D02*
X220635000Y-92961252D01*
%TO.C,J8*%
X209880000Y-105130000D02*
X209880000Y-113670000D01*
X209880000Y-105130000D02*
X225120000Y-105130000D01*
X209880000Y-110050000D02*
X210470000Y-110050000D01*
X209880000Y-113670000D02*
X211950000Y-113670000D01*
X210850000Y-105950000D02*
X210850000Y-107170000D01*
X210850000Y-105950000D02*
X213650000Y-105950000D01*
X212550000Y-113670000D02*
X225120000Y-113670000D01*
X213650000Y-105950000D02*
X213650000Y-107170000D01*
X214030000Y-110050000D02*
X214351000Y-110050000D01*
X214350000Y-105950000D02*
X214350000Y-107851000D01*
X214350000Y-105950000D02*
X217150000Y-105950000D01*
X217149000Y-110050000D02*
X217851000Y-110050000D01*
X217150000Y-105950000D02*
X217150000Y-107851000D01*
X217850000Y-105950000D02*
X217850000Y-107851000D01*
X217850000Y-105950000D02*
X220650000Y-105950000D01*
X220649000Y-110050000D02*
X221351000Y-110050000D01*
X220650000Y-105950000D02*
X220650000Y-107851000D01*
X221350000Y-105950000D02*
X221350000Y-107851000D01*
X221350000Y-105950000D02*
X224150000Y-105950000D01*
X224149000Y-110050000D02*
X225120000Y-110050000D01*
X224150000Y-105950000D02*
X224150000Y-107851000D01*
X225120000Y-105130000D02*
X225120000Y-113670000D01*
X211266000Y-107170000D02*
G75*
G02*
X213234000Y-107170000I984000J-180400D01*
G01*
X214758000Y-107472000D02*
G75*
G02*
X216742000Y-107472000I992000J122469D01*
G01*
X218258000Y-107472000D02*
G75*
G02*
X220242000Y-107472000I992000J122469D01*
G01*
X221758000Y-107472000D02*
G75*
G02*
X223742000Y-107472000I992000J122469D01*
G01*
X212690000Y-114280000D02*
X211810000Y-114280000D01*
X212250000Y-113670000D01*
X212690000Y-114280000D01*
G36*
X212690000Y-114280000D02*
G01*
X211810000Y-114280000D01*
X212250000Y-113670000D01*
X212690000Y-114280000D01*
G37*
%TO.C,Dm3*%
X200175000Y-113372500D02*
X200175000Y-113837500D01*
X200175000Y-115997500D02*
X200175000Y-116462500D01*
X200175000Y-113372670D02*
G75*
G02*
X205523136Y-113837500I2560000J-1544830D01*
G01*
X200480316Y-113837500D02*
G75*
G02*
X204989684Y-113837500I2254684J-1080000D01*
G01*
X204989684Y-115997500D02*
G75*
G02*
X200480316Y-115997500I-2254684J1080000D01*
G01*
X205523136Y-115997500D02*
G75*
G02*
X200175000Y-116462330I-2788136J1080000D01*
G01*
%TO.C,TP4*%
X99815500Y-107660000D02*
X102715500Y-107660000D01*
X99815500Y-110560000D02*
X99815500Y-107660000D01*
X102715500Y-107660000D02*
X102715500Y-110560000D01*
X102715500Y-110560000D02*
X99815500Y-110560000D01*
%TO.C,SW2*%
X172250000Y-84150000D02*
X172250000Y-85650000D01*
X173500000Y-88150000D02*
X178000000Y-88150000D01*
X178000000Y-81650000D02*
X173500000Y-81650000D01*
X179250000Y-85650000D02*
X179250000Y-84150000D01*
D12*
%TO.C,VR1*%
X156550000Y-121480000D02*
X163150000Y-121480000D01*
X156550000Y-123645000D02*
X156550000Y-121480000D01*
X156550000Y-128470000D02*
X156550000Y-126185000D01*
X163150000Y-121480000D02*
X163150000Y-123645000D01*
X163150000Y-126185000D02*
X163150000Y-128470000D01*
X163150000Y-128480000D02*
X156550000Y-128480000D01*
D13*
X155886000Y-124950000D02*
G75*
G02*
X155686000Y-124950000I-100000J0D01*
G01*
X155686000Y-124950000D02*
G75*
G02*
X155886000Y-124950000I100000J0D01*
G01*
D11*
%TO.C,C1*%
X201165000Y-94856248D02*
X201165000Y-95378752D01*
X202635000Y-94856248D02*
X202635000Y-95378752D01*
%TO.C,Dm1*%
X165735000Y-112222500D02*
X165735000Y-112687500D01*
X165735000Y-114847500D02*
X165735000Y-115312500D01*
X165735000Y-112222670D02*
G75*
G02*
X171083136Y-112687500I2560000J-1544830D01*
G01*
X166040316Y-112687500D02*
G75*
G02*
X170549684Y-112687500I2254684J-1080000D01*
G01*
X170549684Y-114847500D02*
G75*
G02*
X166040316Y-114847500I-2254684J1080000D01*
G01*
X171083136Y-114847500D02*
G75*
G02*
X165735000Y-115312330I-2788136J1080000D01*
G01*
%TO.C,A1*%
X133140000Y-83155000D02*
X132660000Y-83155000D01*
X133140000Y-83155000D02*
X133140000Y-83575000D01*
X133140000Y-85695000D02*
X133140000Y-86115000D01*
X133140000Y-88235000D02*
X133140000Y-88655000D01*
X133140000Y-90775000D02*
X133140000Y-91195000D01*
X133140000Y-93315000D02*
X133140000Y-93735000D01*
X133140000Y-95855000D02*
X133140000Y-96275000D01*
X133140000Y-98395000D02*
X133140000Y-98815000D01*
X133140000Y-100935000D02*
X133140000Y-101355000D01*
X133140000Y-103475000D02*
X133140000Y-103895000D01*
X133140000Y-106015000D02*
X133140000Y-106435000D01*
X133140000Y-108555000D02*
X133140000Y-108975000D01*
X133140000Y-111095000D02*
X133140000Y-111515000D01*
X133140000Y-113635000D02*
X133140000Y-114055000D01*
X133140000Y-116175000D02*
X133140000Y-116595000D01*
X133140000Y-118715000D02*
X133140000Y-119135000D01*
X133140000Y-121255000D02*
X133140000Y-121675000D01*
X133140000Y-123795000D02*
X133140000Y-124215000D01*
X133140000Y-126335000D02*
X133140000Y-126755000D01*
X133140000Y-128875000D02*
X133140000Y-129295000D01*
X133170324Y-81035000D02*
X132660000Y-81035000D01*
X133750000Y-80615000D02*
X136240000Y-80615000D01*
X136240000Y-80615000D02*
X137587940Y-80615000D01*
X138512061Y-80615000D02*
X139515000Y-80615000D01*
X139515000Y-80615000D02*
X147985000Y-80615000D01*
X139850000Y-80615000D02*
X139850000Y-81531000D01*
X139850000Y-83919000D02*
X139850000Y-85135000D01*
X139850000Y-85135000D02*
X140146090Y-85135000D01*
X142503910Y-85135000D02*
X144996090Y-85135000D01*
X147353910Y-85135000D02*
X147650000Y-85135000D01*
X147650000Y-80615000D02*
X147650000Y-81531000D01*
X147650000Y-83919000D02*
X147650000Y-85135000D01*
X147985000Y-80615000D02*
X148987939Y-80615000D01*
X149912061Y-80615000D02*
X151260000Y-80615000D01*
X153750000Y-80615000D02*
X151260000Y-80615000D01*
X154360000Y-83155000D02*
X154360000Y-83575000D01*
X154360000Y-85695000D02*
X154360000Y-86115000D01*
X154360000Y-88235000D02*
X154360000Y-88655000D01*
X154360000Y-90775000D02*
X154360000Y-91195000D01*
X154360000Y-93315000D02*
X154360000Y-93735000D01*
X154360000Y-95855000D02*
X154360000Y-96275000D01*
X154360000Y-98395000D02*
X154360000Y-98815000D01*
X154360000Y-100935000D02*
X154360000Y-101355000D01*
X154360000Y-103475000D02*
X154360000Y-103895000D01*
X154360000Y-106015000D02*
X154360000Y-106435000D01*
X154360000Y-108555000D02*
X154360000Y-108975000D01*
X154360000Y-111095000D02*
X154360000Y-111515000D01*
X154360000Y-113635000D02*
X154360000Y-114055000D01*
X154360000Y-116175000D02*
X154360000Y-116595000D01*
X154360000Y-118715000D02*
X154360000Y-119135000D01*
X154360000Y-121255000D02*
X154360000Y-121675000D01*
X154360000Y-123795000D02*
X154360000Y-124215000D01*
X154360000Y-126335000D02*
X154360000Y-126755000D01*
X154360000Y-128875000D02*
X154360000Y-129295000D01*
X133170324Y-81035000D02*
G75*
G02*
X133750000Y-80615000I579692J-190051D01*
G01*
X133386682Y-131715000D02*
G75*
G02*
X133170324Y-131414937I363328J490008D01*
G01*
X153750000Y-80615000D02*
G75*
G02*
X154329676Y-81035063I0J-610000D01*
G01*
X154329676Y-131414937D02*
G75*
G02*
X154113335Y-131715022I-579476J189737D01*
G01*
%TO.C,J12*%
X191440000Y-126690000D02*
X191440000Y-134510000D01*
X191440000Y-128290000D02*
X192360000Y-128290000D01*
X191440000Y-134510000D02*
X197560000Y-134510000D01*
X192200000Y-130650000D02*
X192200000Y-132250000D01*
X192200000Y-132250000D02*
X193200000Y-132250000D01*
X192360000Y-126690000D02*
X191440000Y-126690000D01*
X192360000Y-128290000D02*
X192360000Y-126690000D01*
X192640000Y-128290000D02*
X192360000Y-128290000D01*
X192640000Y-128290000D02*
X192640000Y-127075000D01*
X192700000Y-132250000D02*
X192700000Y-134510000D01*
X193200000Y-130650000D02*
X192200000Y-130650000D01*
X193200000Y-132250000D02*
X193200000Y-130650000D01*
X193200000Y-132250000D02*
X193200000Y-134510000D01*
X194000000Y-130150000D02*
X195000000Y-130150000D01*
X194000000Y-134510000D02*
X194000000Y-130150000D01*
X195000000Y-130150000D02*
X195000000Y-134510000D01*
X195800000Y-130650000D02*
X196800000Y-130650000D01*
X195800000Y-132250000D02*
X195800000Y-130650000D01*
X196640000Y-126690000D02*
X196640000Y-128290000D01*
X196640000Y-128290000D02*
X196360000Y-128290000D01*
X196800000Y-130650000D02*
X196800000Y-132250000D01*
X196800000Y-132250000D02*
X195800000Y-132250000D01*
X197560000Y-126690000D02*
X196640000Y-126690000D01*
X197560000Y-128290000D02*
X196640000Y-128290000D01*
X197560000Y-134510000D02*
X197560000Y-126690000D01*
%TO.C,BT2*%
X97950000Y-88700000D02*
X97950000Y-90250000D01*
X97950000Y-96400000D02*
X97950000Y-94850000D01*
X101150000Y-84200000D02*
X101150000Y-88700000D01*
X101150000Y-84200000D02*
X122050000Y-84200000D01*
X101150000Y-88700000D02*
X97950000Y-88700000D01*
X101150000Y-96400000D02*
X97950000Y-96400000D01*
X101150000Y-100900000D02*
X101150000Y-96400000D01*
X122050000Y-84200000D02*
X123850000Y-86000000D01*
X123850000Y-86000000D02*
X123850000Y-88700000D01*
X123850000Y-88700000D02*
X127050000Y-88700000D01*
X123850000Y-96400000D02*
X127050000Y-96400000D01*
X123850000Y-100900000D02*
X101150000Y-100900000D01*
X123850000Y-100900000D02*
X123850000Y-96400000D01*
X124500000Y-86550000D02*
X126500000Y-86550000D01*
X125500000Y-87550000D02*
X125500000Y-85550000D01*
X127050000Y-88700000D02*
X127050000Y-90250000D01*
X127050000Y-96400000D02*
X127050000Y-94850000D01*
%TO.C,SW3*%
X161550000Y-93050000D02*
X161550000Y-94550000D01*
X162800000Y-97050000D02*
X167300000Y-97050000D01*
X167300000Y-90550000D02*
X162800000Y-90550000D01*
X168550000Y-94550000D02*
X168550000Y-93050000D01*
%TO.C,Dh3*%
X230335000Y-94555000D02*
X230335000Y-95020000D01*
X230335000Y-97180000D02*
X230335000Y-97645000D01*
X230335000Y-94555170D02*
G75*
G02*
X235683136Y-95020000I2560000J-1544830D01*
G01*
X230640316Y-95020000D02*
G75*
G02*
X235149684Y-95020000I2254684J-1080000D01*
G01*
X235149684Y-97180000D02*
G75*
G02*
X230640316Y-97180000I-2254684J1080000D01*
G01*
X235683136Y-97180000D02*
G75*
G02*
X230335000Y-97644830I-2788136J1080000D01*
G01*
%TO.C,C16*%
X165265000Y-129138748D02*
X165265000Y-129661252D01*
X166735000Y-129138748D02*
X166735000Y-129661252D01*
%TO.C,C9*%
X240965000Y-116921248D02*
X240965000Y-117443752D01*
X242435000Y-116921248D02*
X242435000Y-117443752D01*
%TO.C,Dm4*%
X217685000Y-116155000D02*
X217685000Y-116620000D01*
X217685000Y-118780000D02*
X217685000Y-119245000D01*
X217685000Y-116155170D02*
G75*
G02*
X223033136Y-116620000I2560000J-1544830D01*
G01*
X217990316Y-116620000D02*
G75*
G02*
X222499684Y-116620000I2254684J-1080000D01*
G01*
X222499684Y-118780000D02*
G75*
G02*
X217990316Y-118780000I-2254684J1080000D01*
G01*
X223033136Y-118780000D02*
G75*
G02*
X217685000Y-119244830I-2788136J1080000D01*
G01*
%TO.C,Q1*%
X208490000Y-128050000D02*
X208490000Y-127400000D01*
X208490000Y-128050000D02*
X208490000Y-128700000D01*
X211610000Y-128050000D02*
X211610000Y-127400000D01*
X211610000Y-128050000D02*
X211610000Y-128700000D01*
X208540000Y-129212500D02*
X208210000Y-129452500D01*
X208210000Y-128972500D01*
X208540000Y-129212500D01*
G36*
X208540000Y-129212500D02*
G01*
X208210000Y-129452500D01*
X208210000Y-128972500D01*
X208540000Y-129212500D01*
G37*
%TO.C,R7*%
X128088436Y-110995000D02*
X128542564Y-110995000D01*
X128088436Y-112465000D02*
X128542564Y-112465000D01*
%TO.C,R4*%
X177665064Y-128714500D02*
X177210936Y-128714500D01*
X177665064Y-130184500D02*
X177210936Y-130184500D01*
%TO.C,C4*%
X255345000Y-92758748D02*
X255345000Y-93281252D01*
X256815000Y-92758748D02*
X256815000Y-93281252D01*
%TO.C,L1*%
X167062779Y-123340000D02*
X166737221Y-123340000D01*
X167062779Y-124360000D02*
X166737221Y-124360000D01*
%TO.C,R3*%
X208015000Y-131810436D02*
X208015000Y-132264564D01*
X209485000Y-131810436D02*
X209485000Y-132264564D01*
%TO.C,J7*%
X192580000Y-102247500D02*
X192580000Y-110787500D01*
X192580000Y-102247500D02*
X207820000Y-102247500D01*
X192580000Y-107167500D02*
X193170000Y-107167500D01*
X192580000Y-110787500D02*
X194650000Y-110787500D01*
X193550000Y-103067500D02*
X193550000Y-104287500D01*
X193550000Y-103067500D02*
X196350000Y-103067500D01*
X195250000Y-110787500D02*
X207820000Y-110787500D01*
X196350000Y-103067500D02*
X196350000Y-104287500D01*
X196730000Y-107167500D02*
X197051000Y-107167500D01*
X197050000Y-103067500D02*
X197050000Y-104968500D01*
X197050000Y-103067500D02*
X199850000Y-103067500D01*
X199849000Y-107167500D02*
X200551000Y-107167500D01*
X199850000Y-103067500D02*
X199850000Y-104968500D01*
X200550000Y-103067500D02*
X200550000Y-104968500D01*
X200550000Y-103067500D02*
X203350000Y-103067500D01*
X203349000Y-107167500D02*
X204051000Y-107167500D01*
X203350000Y-103067500D02*
X203350000Y-104968500D01*
X204050000Y-103067500D02*
X204050000Y-104968500D01*
X204050000Y-103067500D02*
X206850000Y-103067500D01*
X206849000Y-107167500D02*
X207820000Y-107167500D01*
X206850000Y-103067500D02*
X206850000Y-104968500D01*
X207820000Y-102247500D02*
X207820000Y-110787500D01*
X193966000Y-104287500D02*
G75*
G02*
X195934000Y-104287500I984000J-180400D01*
G01*
X197458000Y-104589500D02*
G75*
G02*
X199442000Y-104589500I992000J122469D01*
G01*
X200958000Y-104589500D02*
G75*
G02*
X202942000Y-104589500I992000J122469D01*
G01*
X204458000Y-104589500D02*
G75*
G02*
X206442000Y-104589500I992000J122469D01*
G01*
X195390000Y-111397500D02*
X194510000Y-111397500D01*
X194950000Y-110787500D01*
X195390000Y-111397500D01*
G36*
X195390000Y-111397500D02*
G01*
X194510000Y-111397500D01*
X194950000Y-110787500D01*
X195390000Y-111397500D01*
G37*
%TO.C,J13*%
X104635500Y-105450000D02*
X106015500Y-105450000D01*
X104635500Y-106830000D02*
X104635500Y-105450000D01*
X104635500Y-108100000D02*
X104635500Y-125990000D01*
X104635500Y-108100000D02*
X107395500Y-108100000D01*
X104635500Y-125990000D02*
X107395500Y-125990000D01*
X107395500Y-108100000D02*
X107395500Y-125990000D01*
%TO.C,R2*%
X182148436Y-127414500D02*
X182602564Y-127414500D01*
X182148436Y-128884500D02*
X182602564Y-128884500D01*
%TO.C,SW1*%
X161550000Y-84150000D02*
X161550000Y-85650000D01*
X162800000Y-88150000D02*
X167300000Y-88150000D01*
X167300000Y-81650000D02*
X162800000Y-81650000D01*
X168550000Y-85650000D02*
X168550000Y-84150000D01*
%TO.C,C11*%
X179753000Y-131488248D02*
X179753000Y-132010752D01*
X181223000Y-131488248D02*
X181223000Y-132010752D01*
%TO.C,J3*%
X222580000Y-83447500D02*
X222580000Y-91987500D01*
X222580000Y-83447500D02*
X237820000Y-83447500D01*
X222580000Y-88367500D02*
X223170000Y-88367500D01*
X222580000Y-91987500D02*
X224650000Y-91987500D01*
X223550000Y-84267500D02*
X223550000Y-85487500D01*
X223550000Y-84267500D02*
X226350000Y-84267500D01*
X225250000Y-91987500D02*
X237820000Y-91987500D01*
X226350000Y-84267500D02*
X226350000Y-85487500D01*
X226730000Y-88367500D02*
X227051000Y-88367500D01*
X227050000Y-84267500D02*
X227050000Y-86168500D01*
X227050000Y-84267500D02*
X229850000Y-84267500D01*
X229849000Y-88367500D02*
X230551000Y-88367500D01*
X229850000Y-84267500D02*
X229850000Y-86168500D01*
X230550000Y-84267500D02*
X230550000Y-86168500D01*
X230550000Y-84267500D02*
X233350000Y-84267500D01*
X233349000Y-88367500D02*
X234051000Y-88367500D01*
X233350000Y-84267500D02*
X233350000Y-86168500D01*
X234050000Y-84267500D02*
X234050000Y-86168500D01*
X234050000Y-84267500D02*
X236850000Y-84267500D01*
X236849000Y-88367500D02*
X237820000Y-88367500D01*
X236850000Y-84267500D02*
X236850000Y-86168500D01*
X237820000Y-83447500D02*
X237820000Y-91987500D01*
X223966000Y-85487500D02*
G75*
G02*
X225934000Y-85487500I984000J-180400D01*
G01*
X227458000Y-85789500D02*
G75*
G02*
X229442000Y-85789500I992000J122469D01*
G01*
X230958000Y-85789500D02*
G75*
G02*
X232942000Y-85789500I992000J122469D01*
G01*
X234458000Y-85789500D02*
G75*
G02*
X236442000Y-85789500I992000J122469D01*
G01*
X225390000Y-92597500D02*
X224510000Y-92597500D01*
X224950000Y-91987500D01*
X225390000Y-92597500D01*
G36*
X225390000Y-92597500D02*
G01*
X224510000Y-92597500D01*
X224950000Y-91987500D01*
X225390000Y-92597500D01*
G37*
%TO.C,J9*%
X227080000Y-106130000D02*
X227080000Y-114670000D01*
X227080000Y-106130000D02*
X242320000Y-106130000D01*
X227080000Y-111050000D02*
X227670000Y-111050000D01*
X227080000Y-114670000D02*
X229150000Y-114670000D01*
X228050000Y-106950000D02*
X228050000Y-108170000D01*
X228050000Y-106950000D02*
X230850000Y-106950000D01*
X229750000Y-114670000D02*
X242320000Y-114670000D01*
X230850000Y-106950000D02*
X230850000Y-108170000D01*
X231230000Y-111050000D02*
X231551000Y-111050000D01*
X231550000Y-106950000D02*
X231550000Y-108851000D01*
X231550000Y-106950000D02*
X234350000Y-106950000D01*
X234349000Y-111050000D02*
X235051000Y-111050000D01*
X234350000Y-106950000D02*
X234350000Y-108851000D01*
X235050000Y-106950000D02*
X235050000Y-108851000D01*
X235050000Y-106950000D02*
X237850000Y-106950000D01*
X237849000Y-111050000D02*
X238551000Y-111050000D01*
X237850000Y-106950000D02*
X237850000Y-108851000D01*
X238550000Y-106950000D02*
X238550000Y-108851000D01*
X238550000Y-106950000D02*
X241350000Y-106950000D01*
X241349000Y-111050000D02*
X242320000Y-111050000D01*
X241350000Y-106950000D02*
X241350000Y-108851000D01*
X242320000Y-106130000D02*
X242320000Y-114670000D01*
X228466000Y-108170000D02*
G75*
G02*
X230434000Y-108170000I984000J-180400D01*
G01*
X231958000Y-108472000D02*
G75*
G02*
X233942000Y-108472000I992000J122469D01*
G01*
X235458000Y-108472000D02*
G75*
G02*
X237442000Y-108472000I992000J122469D01*
G01*
X238958000Y-108472000D02*
G75*
G02*
X240942000Y-108472000I992000J122469D01*
G01*
X229890000Y-115280000D02*
X229010000Y-115280000D01*
X229450000Y-114670000D01*
X229890000Y-115280000D01*
G36*
X229890000Y-115280000D02*
G01*
X229010000Y-115280000D01*
X229450000Y-114670000D01*
X229890000Y-115280000D01*
G37*
%TO.C,TP2*%
X179750000Y-123650000D02*
X182650000Y-123650000D01*
X179750000Y-126550000D02*
X179750000Y-123650000D01*
X182650000Y-123650000D02*
X182650000Y-126550000D01*
X182650000Y-126550000D02*
X179750000Y-126550000D01*
%TO.C,J10*%
X244065000Y-109367500D02*
X244065000Y-117907500D01*
X244065000Y-109367500D02*
X259305000Y-109367500D01*
X244065000Y-114287500D02*
X244655000Y-114287500D01*
X244065000Y-117907500D02*
X246135000Y-117907500D01*
X245035000Y-110187500D02*
X245035000Y-111407500D01*
X245035000Y-110187500D02*
X247835000Y-110187500D01*
X246735000Y-117907500D02*
X259305000Y-117907500D01*
X247835000Y-110187500D02*
X247835000Y-111407500D01*
X248215000Y-114287500D02*
X248536000Y-114287500D01*
X248535000Y-110187500D02*
X248535000Y-112088500D01*
X248535000Y-110187500D02*
X251335000Y-110187500D01*
X251334000Y-114287500D02*
X252036000Y-114287500D01*
X251335000Y-110187500D02*
X251335000Y-112088500D01*
X252035000Y-110187500D02*
X252035000Y-112088500D01*
X252035000Y-110187500D02*
X254835000Y-110187500D01*
X254834000Y-114287500D02*
X255536000Y-114287500D01*
X254835000Y-110187500D02*
X254835000Y-112088500D01*
X255535000Y-110187500D02*
X255535000Y-112088500D01*
X255535000Y-110187500D02*
X258335000Y-110187500D01*
X258334000Y-114287500D02*
X259305000Y-114287500D01*
X258335000Y-110187500D02*
X258335000Y-112088500D01*
X259305000Y-109367500D02*
X259305000Y-117907500D01*
X245451000Y-111407500D02*
G75*
G02*
X247419000Y-111407500I984000J-180400D01*
G01*
X248943000Y-111709500D02*
G75*
G02*
X250927000Y-111709500I992000J122469D01*
G01*
X252443000Y-111709500D02*
G75*
G02*
X254427000Y-111709500I992000J122469D01*
G01*
X255943000Y-111709500D02*
G75*
G02*
X257927000Y-111709500I992000J122469D01*
G01*
X246875000Y-118517500D02*
X245995000Y-118517500D01*
X246435000Y-117907500D01*
X246875000Y-118517500D01*
G36*
X246875000Y-118517500D02*
G01*
X245995000Y-118517500D01*
X246435000Y-117907500D01*
X246875000Y-118517500D01*
G37*
%TO.C,U2*%
X171513000Y-131224500D02*
X171513000Y-130999500D01*
X171513000Y-131224500D02*
X172488000Y-131224500D01*
X171818000Y-127974500D02*
X172488000Y-127974500D01*
X173788000Y-127974500D02*
X174763000Y-127974500D01*
X173788000Y-131224500D02*
X174763000Y-131224500D01*
X174763000Y-128199500D02*
X174763000Y-127974500D01*
X174763000Y-130999500D02*
X174763000Y-131224500D01*
X171298000Y-128179500D02*
X171058000Y-127849500D01*
X171538000Y-127849500D01*
X171298000Y-128179500D01*
G36*
X171298000Y-128179500D02*
G01*
X171058000Y-127849500D01*
X171538000Y-127849500D01*
X171298000Y-128179500D01*
G37*
%TO.C,R5*%
X177010936Y-132064500D02*
X177465064Y-132064500D01*
X177010936Y-133534500D02*
X177465064Y-133534500D01*
%TO.C,J11*%
X182188000Y-130749500D02*
X182638000Y-130749500D01*
X182188000Y-132599500D02*
X182188000Y-130749500D01*
X182188000Y-135149500D02*
X182188000Y-134899500D01*
X184388000Y-130199500D02*
X184388000Y-130649500D01*
X184388000Y-130199500D02*
X184838000Y-130199500D01*
X189988000Y-130749500D02*
X189538000Y-130749500D01*
X189988000Y-132599500D02*
X189988000Y-130749500D01*
X189988000Y-135149500D02*
X189988000Y-134899500D01*
%TO.C,Dm5*%
X234740000Y-117137500D02*
X234740000Y-117602500D01*
X234740000Y-119762500D02*
X234740000Y-120227500D01*
X234740000Y-117137670D02*
G75*
G02*
X240088136Y-117602500I2560000J-1544830D01*
G01*
X235045316Y-117602500D02*
G75*
G02*
X239554684Y-117602500I2254684J-1080000D01*
G01*
X239554684Y-119762500D02*
G75*
G02*
X235045316Y-119762500I-2254684J1080000D01*
G01*
X240088136Y-119762500D02*
G75*
G02*
X234740000Y-120227330I-2788136J1080000D01*
G01*
%TO.C,C7*%
X206379500Y-113141748D02*
X206379500Y-113664252D01*
X207849500Y-113141748D02*
X207849500Y-113664252D01*
%TO.C,U4*%
X85940000Y-86685000D02*
X85940000Y-86940000D01*
X85940000Y-97205000D02*
X85940000Y-96950000D01*
X89800000Y-86685000D02*
X85940000Y-86685000D01*
X89800000Y-86685000D02*
X93660000Y-86685000D01*
X89800000Y-97205000D02*
X85940000Y-97205000D01*
X89800000Y-97205000D02*
X93660000Y-97205000D01*
X93660000Y-86685000D02*
X93660000Y-86940000D01*
X93660000Y-97205000D02*
X93660000Y-96950000D01*
X85087500Y-86940000D02*
X84747500Y-86470000D01*
X85427500Y-86470000D01*
X85087500Y-86940000D01*
G36*
X85087500Y-86940000D02*
G01*
X84747500Y-86470000D01*
X85427500Y-86470000D01*
X85087500Y-86940000D01*
G37*
%TO.C,J2*%
X205280000Y-81580000D02*
X205280000Y-90120000D01*
X205280000Y-81580000D02*
X220520000Y-81580000D01*
X205280000Y-86500000D02*
X205870000Y-86500000D01*
X205280000Y-90120000D02*
X207350000Y-90120000D01*
X206250000Y-82400000D02*
X206250000Y-83620000D01*
X206250000Y-82400000D02*
X209050000Y-82400000D01*
X207950000Y-90120000D02*
X220520000Y-90120000D01*
X209050000Y-82400000D02*
X209050000Y-83620000D01*
X209430000Y-86500000D02*
X209751000Y-86500000D01*
X209750000Y-82400000D02*
X209750000Y-84301000D01*
X209750000Y-82400000D02*
X212550000Y-82400000D01*
X212549000Y-86500000D02*
X213251000Y-86500000D01*
X212550000Y-82400000D02*
X212550000Y-84301000D01*
X213250000Y-82400000D02*
X213250000Y-84301000D01*
X213250000Y-82400000D02*
X216050000Y-82400000D01*
X216049000Y-86500000D02*
X216751000Y-86500000D01*
X216050000Y-82400000D02*
X216050000Y-84301000D01*
X216750000Y-82400000D02*
X216750000Y-84301000D01*
X216750000Y-82400000D02*
X219550000Y-82400000D01*
X219549000Y-86500000D02*
X220520000Y-86500000D01*
X219550000Y-82400000D02*
X219550000Y-84301000D01*
X220520000Y-81580000D02*
X220520000Y-90120000D01*
X206666000Y-83620000D02*
G75*
G02*
X208634000Y-83620000I984000J-180400D01*
G01*
X210158000Y-83922000D02*
G75*
G02*
X212142000Y-83922000I992000J122469D01*
G01*
X213658000Y-83922000D02*
G75*
G02*
X215642000Y-83922000I992000J122469D01*
G01*
X217158000Y-83922000D02*
G75*
G02*
X219142000Y-83922000I992000J122469D01*
G01*
X208090000Y-90730000D02*
X207210000Y-90730000D01*
X207650000Y-90120000D01*
X208090000Y-90730000D01*
G36*
X208090000Y-90730000D02*
G01*
X207210000Y-90730000D01*
X207650000Y-90120000D01*
X208090000Y-90730000D01*
G37*
%TO.C,D1*%
X205360000Y-126400000D02*
X199850000Y-126400000D01*
X205360000Y-129700000D02*
X199850000Y-129700000D01*
X205360000Y-129700000D02*
X205360000Y-126400000D01*
D10*
%TO.C,J15*%
X127415500Y-120450000D02*
X127915500Y-119950000D01*
X127415500Y-124050000D02*
X127415500Y-120450000D01*
X127915500Y-119950000D02*
X128715500Y-119950000D01*
X127915500Y-124550000D02*
X127415500Y-124050000D01*
X128715500Y-119950000D02*
X129215500Y-120450000D01*
X128715500Y-124550000D02*
X127915500Y-124550000D01*
X129215500Y-120450000D02*
X129215500Y-124050000D01*
X129215500Y-124050000D02*
X128715500Y-124550000D01*
D11*
%TO.C,C8*%
X223815000Y-115938748D02*
X223815000Y-116461252D01*
X225285000Y-115938748D02*
X225285000Y-116461252D01*
%TO.C,C6*%
X189215000Y-114556248D02*
X189215000Y-115078752D01*
X190685000Y-114556248D02*
X190685000Y-115078752D01*
%TO.C,C5*%
X171965000Y-111956248D02*
X171965000Y-112478752D01*
X173435000Y-111956248D02*
X173435000Y-112478752D01*
%TO.C,Dh2*%
X212940000Y-92655000D02*
X212940000Y-93120000D01*
X212940000Y-95280000D02*
X212940000Y-95745000D01*
X212940000Y-92655170D02*
G75*
G02*
X218288136Y-93120000I2560000J-1544830D01*
G01*
X213245316Y-93120000D02*
G75*
G02*
X217754684Y-93120000I2254684J-1080000D01*
G01*
X217754684Y-95280000D02*
G75*
G02*
X213245316Y-95280000I-2254684J1080000D01*
G01*
X218288136Y-95280000D02*
G75*
G02*
X212940000Y-95744830I-2788136J1080000D01*
G01*
%TO.C,J5*%
X158080000Y-101347500D02*
X158080000Y-109887500D01*
X158080000Y-101347500D02*
X173320000Y-101347500D01*
X158080000Y-106267500D02*
X158670000Y-106267500D01*
X158080000Y-109887500D02*
X160150000Y-109887500D01*
X159050000Y-102167500D02*
X159050000Y-103387500D01*
X159050000Y-102167500D02*
X161850000Y-102167500D01*
X160750000Y-109887500D02*
X173320000Y-109887500D01*
X161850000Y-102167500D02*
X161850000Y-103387500D01*
X162230000Y-106267500D02*
X162551000Y-106267500D01*
X162550000Y-102167500D02*
X162550000Y-104068500D01*
X162550000Y-102167500D02*
X165350000Y-102167500D01*
X165349000Y-106267500D02*
X166051000Y-106267500D01*
X165350000Y-102167500D02*
X165350000Y-104068500D01*
X166050000Y-102167500D02*
X166050000Y-104068500D01*
X166050000Y-102167500D02*
X168850000Y-102167500D01*
X168849000Y-106267500D02*
X169551000Y-106267500D01*
X168850000Y-102167500D02*
X168850000Y-104068500D01*
X169550000Y-102167500D02*
X169550000Y-104068500D01*
X169550000Y-102167500D02*
X172350000Y-102167500D01*
X172349000Y-106267500D02*
X173320000Y-106267500D01*
X172350000Y-102167500D02*
X172350000Y-104068500D01*
X173320000Y-101347500D02*
X173320000Y-109887500D01*
X159466000Y-103387500D02*
G75*
G02*
X161434000Y-103387500I984000J-180400D01*
G01*
X162958000Y-103689500D02*
G75*
G02*
X164942000Y-103689500I992000J122469D01*
G01*
X166458000Y-103689500D02*
G75*
G02*
X168442000Y-103689500I992000J122469D01*
G01*
X169958000Y-103689500D02*
G75*
G02*
X171942000Y-103689500I992000J122469D01*
G01*
X160890000Y-110497500D02*
X160010000Y-110497500D01*
X160450000Y-109887500D01*
X160890000Y-110497500D01*
G36*
X160890000Y-110497500D02*
G01*
X160010000Y-110497500D01*
X160450000Y-109887500D01*
X160890000Y-110497500D01*
G37*
%TO.C,J6*%
X175330000Y-103647500D02*
X175330000Y-112187500D01*
X175330000Y-103647500D02*
X190570000Y-103647500D01*
X175330000Y-108567500D02*
X175920000Y-108567500D01*
X175330000Y-112187500D02*
X177400000Y-112187500D01*
X176300000Y-104467500D02*
X176300000Y-105687500D01*
X176300000Y-104467500D02*
X179100000Y-104467500D01*
X178000000Y-112187500D02*
X190570000Y-112187500D01*
X179100000Y-104467500D02*
X179100000Y-105687500D01*
X179480000Y-108567500D02*
X179801000Y-108567500D01*
X179800000Y-104467500D02*
X179800000Y-106368500D01*
X179800000Y-104467500D02*
X182600000Y-104467500D01*
X182599000Y-108567500D02*
X183301000Y-108567500D01*
X182600000Y-104467500D02*
X182600000Y-106368500D01*
X183300000Y-104467500D02*
X183300000Y-106368500D01*
X183300000Y-104467500D02*
X186100000Y-104467500D01*
X186099000Y-108567500D02*
X186801000Y-108567500D01*
X186100000Y-104467500D02*
X186100000Y-106368500D01*
X186800000Y-104467500D02*
X186800000Y-106368500D01*
X186800000Y-104467500D02*
X189600000Y-104467500D01*
X189599000Y-108567500D02*
X190570000Y-108567500D01*
X189600000Y-104467500D02*
X189600000Y-106368500D01*
X190570000Y-103647500D02*
X190570000Y-112187500D01*
X176716000Y-105687500D02*
G75*
G02*
X178684000Y-105687500I984000J-180400D01*
G01*
X180208000Y-105989500D02*
G75*
G02*
X182192000Y-105989500I992000J122469D01*
G01*
X183708000Y-105989500D02*
G75*
G02*
X185692000Y-105989500I992000J122469D01*
G01*
X187208000Y-105989500D02*
G75*
G02*
X189192000Y-105989500I992000J122469D01*
G01*
X178140000Y-112797500D02*
X177260000Y-112797500D01*
X177700000Y-112187500D01*
X178140000Y-112797500D01*
G36*
X178140000Y-112797500D02*
G01*
X177260000Y-112797500D01*
X177700000Y-112187500D01*
X178140000Y-112797500D01*
G37*
%TO.C,R9*%
X94477064Y-82115000D02*
X94022936Y-82115000D01*
X94477064Y-83585000D02*
X94022936Y-83585000D01*
%TO.C,Dh4*%
X249185000Y-92987500D02*
X249185000Y-93452500D01*
X249185000Y-95612500D02*
X249185000Y-96077500D01*
X249185000Y-92987670D02*
G75*
G02*
X254533136Y-93452500I2560000J-1544830D01*
G01*
X249490316Y-93452500D02*
G75*
G02*
X253999684Y-93452500I2254684J-1080000D01*
G01*
X253999684Y-95612500D02*
G75*
G02*
X249490316Y-95612500I-2254684J1080000D01*
G01*
X254533136Y-95612500D02*
G75*
G02*
X249185000Y-96077330I-2788136J1080000D01*
G01*
%TO.C,R8*%
X94464564Y-80015000D02*
X94010436Y-80015000D01*
X94464564Y-81485000D02*
X94010436Y-81485000D01*
%TO.C,U1*%
X201890000Y-132500000D02*
X201890000Y-131700000D01*
X201890000Y-132500000D02*
X201890000Y-133300000D01*
X205010000Y-132500000D02*
X205010000Y-131700000D01*
X205010000Y-132500000D02*
X205010000Y-133300000D01*
X201940000Y-133800000D02*
X201610000Y-134040000D01*
X201610000Y-133560000D01*
X201940000Y-133800000D01*
G36*
X201940000Y-133800000D02*
G01*
X201610000Y-134040000D01*
X201610000Y-133560000D01*
X201940000Y-133800000D01*
G37*
%TO.C,C17*%
X97788748Y-85015000D02*
X98311252Y-85015000D01*
X97788748Y-86485000D02*
X98311252Y-86485000D01*
%TO.C,Dm2*%
X183005000Y-114772500D02*
X183005000Y-115237500D01*
X183005000Y-117397500D02*
X183005000Y-117862500D01*
X183005000Y-114772670D02*
G75*
G02*
X188353136Y-115237500I2560000J-1544830D01*
G01*
X183310316Y-115237500D02*
G75*
G02*
X187819684Y-115237500I2254684J-1080000D01*
G01*
X187819684Y-117397500D02*
G75*
G02*
X183310316Y-117397500I-2254684J1080000D01*
G01*
X188353136Y-117397500D02*
G75*
G02*
X183005000Y-117862330I-2788136J1080000D01*
G01*
%TD*%
%LPC*%
%TO.C,JP1*%
G36*
X186138000Y-128597000D02*
G01*
X185838000Y-128597000D01*
X185838000Y-127097000D01*
X186138000Y-127097000D01*
X186138000Y-128597000D01*
G37*
%TD*%
D14*
%TO.C,JP1*%
X186638000Y-127847000D03*
X185338000Y-127847000D03*
%TD*%
D15*
%TO.C,J14*%
X124015500Y-106860000D03*
D16*
X124015500Y-109400000D03*
X124015500Y-111940000D03*
X124015500Y-114480000D03*
X124015500Y-117020000D03*
X124015500Y-119560000D03*
X124015500Y-122100000D03*
X124015500Y-124640000D03*
%TD*%
D17*
%TO.C,C14*%
X168050000Y-126150000D03*
X166150000Y-126150000D03*
%TD*%
D18*
%TO.C,Dm6*%
X252345000Y-121850000D03*
D19*
X253615000Y-121850000D03*
X254885000Y-121850000D03*
X256155000Y-121850000D03*
%TD*%
D20*
%TO.C,C15*%
X168250000Y-128450000D03*
X168250000Y-130350000D03*
%TD*%
%TO.C,C3*%
X237250000Y-93650000D03*
X237250000Y-95550000D03*
%TD*%
D17*
%TO.C,C13*%
X129700000Y-86850000D03*
X127800000Y-86850000D03*
%TD*%
D21*
%TO.C,SW4*%
X172550000Y-91550000D03*
X179050000Y-91550000D03*
X172550000Y-96050000D03*
X179050000Y-96050000D03*
%TD*%
D22*
%TO.C,TP3*%
X176800000Y-125100000D03*
%TD*%
D20*
%TO.C,C12*%
X212250000Y-131050000D03*
X212250000Y-132950000D03*
%TD*%
D23*
%TO.C,J1*%
X189650000Y-87817500D03*
D24*
X193150000Y-87817500D03*
X196650000Y-87817500D03*
X200150000Y-87817500D03*
%TD*%
D25*
%TO.C,R1*%
X183750000Y-96387500D03*
X183750000Y-98212500D03*
%TD*%
D26*
%TO.C,R6*%
X127403000Y-109430000D03*
X129228000Y-109430000D03*
%TD*%
D18*
%TO.C,Dh1*%
X195640000Y-96617500D03*
D19*
X196910000Y-96617500D03*
X198180000Y-96617500D03*
X199450000Y-96617500D03*
%TD*%
D22*
%TO.C,TP5*%
X101265500Y-113660000D03*
%TD*%
%TO.C,TP1*%
X128750000Y-82600000D03*
%TD*%
D23*
%TO.C,J4*%
X243700000Y-85400000D03*
D24*
X247200000Y-85400000D03*
X250700000Y-85400000D03*
X254200000Y-85400000D03*
%TD*%
D20*
%TO.C,C10*%
X258655000Y-119400000D03*
X258655000Y-121300000D03*
%TD*%
%TO.C,C2*%
X219900000Y-91750000D03*
X219900000Y-93650000D03*
%TD*%
D27*
%TO.C,DrillHole2*%
X258350000Y-132700000D03*
%TD*%
D23*
%TO.C,J8*%
X212250000Y-108950000D03*
D24*
X215750000Y-108950000D03*
X219250000Y-108950000D03*
X222750000Y-108950000D03*
%TD*%
D18*
%TO.C,Dm3*%
X200830000Y-114917500D03*
D19*
X202100000Y-114917500D03*
X203370000Y-114917500D03*
X204640000Y-114917500D03*
%TD*%
D22*
%TO.C,TP4*%
X101265500Y-109110000D03*
%TD*%
D21*
%TO.C,SW2*%
X172500000Y-82650000D03*
X179000000Y-82650000D03*
X172500000Y-87150000D03*
X179000000Y-87150000D03*
%TD*%
D28*
%TO.C,VR1*%
X157310000Y-124950000D03*
D29*
X159850000Y-122410000D03*
X162390000Y-124950000D03*
%TD*%
D20*
%TO.C,C1*%
X201900000Y-94167500D03*
X201900000Y-96067500D03*
%TD*%
D18*
%TO.C,Dm1*%
X166390000Y-113767500D03*
D19*
X167660000Y-113767500D03*
X168930000Y-113767500D03*
X170200000Y-113767500D03*
%TD*%
D27*
%TO.C,A1*%
X141025000Y-82225000D03*
D30*
X141325000Y-85255000D03*
X146175000Y-85255000D03*
D27*
X146475000Y-82225000D03*
D31*
X134060000Y-82095000D03*
D32*
X134060000Y-84635000D03*
D33*
X134060000Y-87175000D03*
D32*
X134060000Y-89715000D03*
X134060000Y-92255000D03*
X134060000Y-94795000D03*
X134060000Y-97335000D03*
D33*
X134060000Y-99875000D03*
D32*
X134060000Y-102415000D03*
X134060000Y-104955000D03*
X134060000Y-107495000D03*
X134060000Y-110035000D03*
D33*
X134060000Y-112575000D03*
D32*
X134060000Y-115115000D03*
X134060000Y-117655000D03*
X134060000Y-120195000D03*
X134060000Y-122735000D03*
D33*
X134060000Y-125275000D03*
D32*
X134060000Y-127815000D03*
X134060000Y-130355000D03*
X153440000Y-130355000D03*
X153440000Y-127815000D03*
D31*
X153440000Y-125275000D03*
D32*
X153440000Y-122735000D03*
X153440000Y-120195000D03*
X153440000Y-117655000D03*
X153440000Y-115115000D03*
D31*
X153440000Y-112575000D03*
D32*
X153440000Y-110035000D03*
X153440000Y-107495000D03*
X153440000Y-104955000D03*
X153440000Y-102415000D03*
D31*
X153440000Y-99875000D03*
D32*
X153440000Y-97335000D03*
X153440000Y-94795000D03*
X153440000Y-92255000D03*
X153440000Y-89715000D03*
D31*
X153440000Y-87175000D03*
D32*
X153440000Y-84635000D03*
X153440000Y-82095000D03*
D34*
X144334100Y-111925000D03*
D35*
X146874100Y-111925000D03*
X149414100Y-111925000D03*
%TD*%
D36*
%TO.C,DrillHole3*%
X88200000Y-130700000D03*
%TD*%
D37*
%TO.C,J12*%
X193500000Y-128150000D03*
D38*
X195500000Y-128150000D03*
%TD*%
D39*
%TO.C,BT2*%
X127150000Y-92550000D03*
X97850000Y-92550000D03*
%TD*%
D21*
%TO.C,SW3*%
X161800000Y-91550000D03*
X168300000Y-91550000D03*
X161800000Y-96050000D03*
X168300000Y-96050000D03*
%TD*%
D18*
%TO.C,Dh3*%
X230990000Y-96100000D03*
D19*
X232260000Y-96100000D03*
X233530000Y-96100000D03*
X234800000Y-96100000D03*
%TD*%
D20*
%TO.C,C16*%
X166000000Y-128450000D03*
X166000000Y-130350000D03*
%TD*%
%TO.C,C9*%
X241700000Y-116232500D03*
X241700000Y-118132500D03*
%TD*%
D18*
%TO.C,Dm4*%
X218340000Y-117700000D03*
D19*
X219610000Y-117700000D03*
X220880000Y-117700000D03*
X222150000Y-117700000D03*
%TD*%
D40*
%TO.C,Q1*%
X209100000Y-128987500D03*
X211000000Y-128987500D03*
X210050000Y-127112500D03*
%TD*%
D26*
%TO.C,R7*%
X127403000Y-111730000D03*
X129228000Y-111730000D03*
%TD*%
D41*
%TO.C,R4*%
X178350500Y-129449500D03*
X176525500Y-129449500D03*
%TD*%
D27*
%TO.C,DrillHole1*%
X87000000Y-82650000D03*
%TD*%
D20*
%TO.C,C4*%
X256080000Y-92070000D03*
X256080000Y-93970000D03*
%TD*%
D42*
%TO.C,L1*%
X167687500Y-123850000D03*
X166112500Y-123850000D03*
%TD*%
D25*
%TO.C,R3*%
X208750000Y-131125000D03*
X208750000Y-132950000D03*
%TD*%
D23*
%TO.C,J7*%
X194950000Y-106067500D03*
D24*
X198450000Y-106067500D03*
X201950000Y-106067500D03*
X205450000Y-106067500D03*
%TD*%
D15*
%TO.C,J13*%
X106015500Y-106830000D03*
D16*
X106015500Y-109370000D03*
X106015500Y-111910000D03*
X106015500Y-114450000D03*
X106015500Y-116990000D03*
X106015500Y-119530000D03*
X106015500Y-122070000D03*
X106015500Y-124610000D03*
%TD*%
D26*
%TO.C,R2*%
X181463000Y-128149500D03*
X183288000Y-128149500D03*
%TD*%
D21*
%TO.C,SW1*%
X161800000Y-82650000D03*
X168300000Y-82650000D03*
X161800000Y-87150000D03*
X168300000Y-87150000D03*
%TD*%
D20*
%TO.C,C11*%
X180488000Y-130799500D03*
X180488000Y-132699500D03*
%TD*%
D23*
%TO.C,J3*%
X224950000Y-87267500D03*
D24*
X228450000Y-87267500D03*
X231950000Y-87267500D03*
X235450000Y-87267500D03*
%TD*%
D23*
%TO.C,J9*%
X229450000Y-109950000D03*
D24*
X232950000Y-109950000D03*
X236450000Y-109950000D03*
X239950000Y-109950000D03*
%TD*%
D22*
%TO.C,TP2*%
X181200000Y-125100000D03*
%TD*%
D23*
%TO.C,J10*%
X246435000Y-113187500D03*
D24*
X249935000Y-113187500D03*
X253435000Y-113187500D03*
X256935000Y-113187500D03*
%TD*%
D43*
%TO.C,U2*%
X171378000Y-128599500D03*
D44*
X171663000Y-128599500D03*
D43*
X171378000Y-129099500D03*
D44*
X171663000Y-129099500D03*
D43*
X171378000Y-129599500D03*
D44*
X171663000Y-129599500D03*
D43*
X171378000Y-130099500D03*
D44*
X171663000Y-130099500D03*
D43*
X171378000Y-130599500D03*
D44*
X171663000Y-130599500D03*
X174613000Y-130599500D03*
D43*
X174898000Y-130599500D03*
D44*
X174613000Y-130099500D03*
D43*
X174898000Y-130099500D03*
D44*
X174613000Y-129599500D03*
D43*
X174898000Y-129599500D03*
D44*
X174613000Y-129099500D03*
D43*
X174898000Y-129099500D03*
D44*
X174613000Y-128599500D03*
D43*
X174898000Y-128599500D03*
D45*
X172638000Y-128849500D03*
X172638000Y-130349500D03*
D46*
X172688000Y-128964500D03*
X172688000Y-130234500D03*
D47*
X172888000Y-127969500D03*
D48*
X172888000Y-128049500D03*
X172888000Y-131149500D03*
D47*
X172888000Y-131229500D03*
D45*
X173138000Y-129599500D03*
D49*
X173138000Y-129599500D03*
D47*
X173388000Y-127969500D03*
D48*
X173388000Y-128049500D03*
X173388000Y-131149500D03*
D47*
X173388000Y-131229500D03*
D46*
X173588000Y-128964500D03*
X173588000Y-130234500D03*
D45*
X173638000Y-128849500D03*
X173638000Y-130349500D03*
%TD*%
D26*
%TO.C,R5*%
X176325500Y-132799500D03*
X178150500Y-132799500D03*
%TD*%
D50*
%TO.C,J11*%
X184788000Y-131049500D03*
X185438000Y-131049500D03*
X186088000Y-131049500D03*
X186738000Y-131049500D03*
X187388000Y-131049500D03*
D51*
X182588000Y-133749500D03*
D52*
X183188000Y-133749500D03*
D53*
X183588000Y-131049500D03*
D54*
X185088000Y-133749500D03*
X187088000Y-133749500D03*
D53*
X188588000Y-131049500D03*
D52*
X188988000Y-133749500D03*
D51*
X189588000Y-133749500D03*
%TD*%
D36*
%TO.C,DrillHole4*%
X250450000Y-130600000D03*
%TD*%
D18*
%TO.C,Dm5*%
X235395000Y-118682500D03*
D19*
X236665000Y-118682500D03*
X237935000Y-118682500D03*
X239205000Y-118682500D03*
%TD*%
D20*
%TO.C,C7*%
X207114500Y-112453000D03*
X207114500Y-114353000D03*
%TD*%
D55*
%TO.C,U4*%
X85150000Y-87500000D03*
X85150000Y-88770000D03*
X85150000Y-90040000D03*
X85150000Y-91310000D03*
X85150000Y-92580000D03*
X85150000Y-93850000D03*
X85150000Y-95120000D03*
X85150000Y-96390000D03*
X94450000Y-96390000D03*
X94450000Y-95120000D03*
X94450000Y-93850000D03*
X94450000Y-92580000D03*
X94450000Y-91310000D03*
X94450000Y-90040000D03*
X94450000Y-88770000D03*
X94450000Y-87500000D03*
%TD*%
D23*
%TO.C,J2*%
X207650000Y-85400000D03*
D24*
X211150000Y-85400000D03*
X214650000Y-85400000D03*
X218150000Y-85400000D03*
%TD*%
D56*
%TO.C,D1*%
X203850000Y-128050000D03*
X199850000Y-128050000D03*
%TD*%
D57*
%TO.C,J15*%
X128315500Y-120980000D03*
X128315500Y-123520000D03*
%TD*%
D20*
%TO.C,C8*%
X224550000Y-115250000D03*
X224550000Y-117150000D03*
%TD*%
%TO.C,C6*%
X189950000Y-113867500D03*
X189950000Y-115767500D03*
%TD*%
%TO.C,C5*%
X172700000Y-111267500D03*
X172700000Y-113167500D03*
%TD*%
D18*
%TO.C,Dh2*%
X213595000Y-94200000D03*
D19*
X214865000Y-94200000D03*
X216135000Y-94200000D03*
X217405000Y-94200000D03*
%TD*%
D23*
%TO.C,J5*%
X160450000Y-105167500D03*
D24*
X163950000Y-105167500D03*
X167450000Y-105167500D03*
X170950000Y-105167500D03*
%TD*%
D23*
%TO.C,J6*%
X177700000Y-107467500D03*
D24*
X181200000Y-107467500D03*
X184700000Y-107467500D03*
X188200000Y-107467500D03*
%TD*%
D41*
%TO.C,R9*%
X95162500Y-82850000D03*
X93337500Y-82850000D03*
%TD*%
D18*
%TO.C,Dh4*%
X249840000Y-94532500D03*
D19*
X251110000Y-94532500D03*
X252380000Y-94532500D03*
X253650000Y-94532500D03*
%TD*%
D41*
%TO.C,R8*%
X95150000Y-80750000D03*
X93325000Y-80750000D03*
%TD*%
D58*
%TO.C,U1*%
X202500000Y-133637500D03*
X203450000Y-133637500D03*
X204400000Y-133637500D03*
X204400000Y-131362500D03*
X202500000Y-131362500D03*
%TD*%
D59*
%TO.C,C17*%
X97100000Y-85750000D03*
X99000000Y-85750000D03*
%TD*%
D18*
%TO.C,Dm2*%
X183660000Y-116317500D03*
D19*
X184930000Y-116317500D03*
X186200000Y-116317500D03*
X187470000Y-116317500D03*
%TD*%
%LPD*%
M02*
