%TF.GenerationSoftware,KiCad,Pcbnew,9.0.2*%
%TF.CreationDate,2025-07-23T22:01:27-04:00*%
%TF.ProjectId,JF-Clock_template_rpi,4a462d43-6c6f-4636-9b5f-74656d706c61,rev?*%
%TF.SameCoordinates,Original*%
%TF.FileFunction,Soldermask,Top*%
%TF.FilePolarity,Negative*%
%FSLAX46Y46*%
G04 Gerber Fmt 4.6, Leading zero omitted, Abs format (unit mm)*
G04 Created by KiCad (PCBNEW 9.0.2) date 2025-07-23 22:01:27*
%MOMM*%
%LPD*%
G01*
G04 APERTURE LIST*
G04 Aperture macros list*
%AMRoundRect*
0 Rectangle with rounded corners*
0 $1 Rounding radius*
0 $2 $3 $4 $5 $6 $7 $8 $9 X,Y pos of 4 corners*
0 Add a 4 corners polygon primitive as box body*
4,1,4,$2,$3,$4,$5,$6,$7,$8,$9,$2,$3,0*
0 Add four circle primitives for the rounded corners*
1,1,$1+$1,$2,$3*
1,1,$1+$1,$4,$5*
1,1,$1+$1,$6,$7*
1,1,$1+$1,$8,$9*
0 Add four rect primitives between the rounded corners*
20,1,$1+$1,$2,$3,$4,$5,0*
20,1,$1+$1,$4,$5,$6,$7,0*
20,1,$1+$1,$6,$7,$8,$9,0*
20,1,$1+$1,$8,$9,$2,$3,0*%
%AMFreePoly0*
4,1,37,0.603843,0.796157,0.639018,0.796157,0.711114,0.766294,0.766294,0.711114,0.796157,0.639018,0.796157,0.603843,0.800000,0.600000,0.800000,-0.600000,0.796157,-0.603843,0.796157,-0.639018,0.766294,-0.711114,0.711114,-0.766294,0.639018,-0.796157,0.603843,-0.796157,0.600000,-0.800000,0.000000,-0.800000,0.000000,-0.796148,-0.078414,-0.796148,-0.232228,-0.765552,-0.377117,-0.705537,
-0.507515,-0.618408,-0.618408,-0.507515,-0.705537,-0.377117,-0.765552,-0.232228,-0.796148,-0.078414,-0.796148,0.078414,-0.765552,0.232228,-0.705537,0.377117,-0.618408,0.507515,-0.507515,0.618408,-0.377117,0.705537,-0.232228,0.765552,-0.078414,0.796148,0.000000,0.796148,0.000000,0.800000,0.600000,0.800000,0.603843,0.796157,0.603843,0.796157,$1*%
%AMFreePoly1*
4,1,37,0.000000,0.796148,0.078414,0.796148,0.232228,0.765552,0.377117,0.705537,0.507515,0.618408,0.618408,0.507515,0.705537,0.377117,0.765552,0.232228,0.796148,0.078414,0.796148,-0.078414,0.765552,-0.232228,0.705537,-0.377117,0.618408,-0.507515,0.507515,-0.618408,0.377117,-0.705537,0.232228,-0.765552,0.078414,-0.796148,0.000000,-0.796148,0.000000,-0.800000,-0.600000,-0.800000,
-0.603843,-0.796157,-0.639018,-0.796157,-0.711114,-0.766294,-0.766294,-0.711114,-0.796157,-0.639018,-0.796157,-0.603843,-0.800000,-0.600000,-0.800000,0.600000,-0.796157,0.603843,-0.796157,0.639018,-0.766294,0.711114,-0.711114,0.766294,-0.639018,0.796157,-0.603843,0.796157,-0.600000,0.800000,0.000000,0.800000,0.000000,0.796148,0.000000,0.796148,$1*%
G04 Aperture macros list end*
%ADD10R,1.000000X1.500000*%
%ADD11R,1.700000X1.700000*%
%ADD12C,1.700000*%
%ADD13RoundRect,0.250000X0.475000X-0.250000X0.475000X0.250000X-0.475000X0.250000X-0.475000X-0.250000X0*%
%ADD14R,1.070000X1.800000*%
%ADD15O,1.070000X1.800000*%
%ADD16RoundRect,0.250000X0.250000X0.475000X-0.250000X0.475000X-0.250000X-0.475000X0.250000X-0.475000X0*%
%ADD17RoundRect,0.250000X-0.475000X0.250000X-0.475000X-0.250000X0.475000X-0.250000X0.475000X0.250000X0*%
%ADD18C,2.000000*%
%ADD19R,2.500000X2.500000*%
%ADD20RoundRect,0.250000X-1.050000X-1.050000X1.050000X-1.050000X1.050000X1.050000X-1.050000X1.050000X0*%
%ADD21C,2.600000*%
%ADD22RoundRect,0.218750X0.256250X-0.218750X0.256250X0.218750X-0.256250X0.218750X-0.256250X-0.218750X0*%
%ADD23RoundRect,0.250000X-0.262500X-0.450000X0.262500X-0.450000X0.262500X0.450000X-0.262500X0.450000X0*%
%ADD24RoundRect,0.250000X0.450000X-0.262500X0.450000X0.262500X-0.450000X0.262500X-0.450000X-0.262500X0*%
%ADD25RoundRect,0.102000X-0.611000X-0.611000X0.611000X-0.611000X0.611000X0.611000X-0.611000X0.611000X0*%
%ADD26C,1.426000*%
%ADD27RoundRect,0.200000X-0.600000X-0.600000X0.600000X-0.600000X0.600000X0.600000X-0.600000X0.600000X0*%
%ADD28C,1.600000*%
%ADD29FreePoly0,0.000000*%
%ADD30FreePoly1,0.000000*%
%ADD31RoundRect,0.250000X-0.350000X-0.625000X0.350000X-0.625000X0.350000X0.625000X-0.350000X0.625000X0*%
%ADD32O,1.200000X1.750000*%
%ADD33R,2.600000X3.600000*%
%ADD34RoundRect,0.250000X0.262500X0.450000X-0.262500X0.450000X-0.262500X-0.450000X0.262500X-0.450000X0*%
%ADD35RoundRect,0.150000X-0.587500X-0.150000X0.587500X-0.150000X0.587500X0.150000X-0.587500X0.150000X0*%
%ADD36RoundRect,0.218750X0.218750X0.256250X-0.218750X0.256250X-0.218750X-0.256250X0.218750X-0.256250X0*%
%ADD37R,0.280000X0.280000*%
%ADD38O,0.850000X0.280000*%
%ADD39C,0.600000*%
%ADD40R,0.680000X1.050000*%
%ADD41R,0.260000X0.500000*%
%ADD42R,0.280000X0.700000*%
%ADD43R,1.650000X2.400000*%
%ADD44R,0.400000X1.350000*%
%ADD45O,1.200000X1.900000*%
%ADD46R,1.200000X1.900000*%
%ADD47C,1.450000*%
%ADD48R,1.500000X1.900000*%
%ADD49RoundRect,0.150000X-0.875000X-0.150000X0.875000X-0.150000X0.875000X0.150000X-0.875000X0.150000X0*%
%ADD50RoundRect,0.250000X1.000000X0.650000X-1.000000X0.650000X-1.000000X-0.650000X1.000000X-0.650000X0*%
%ADD51C,1.400000*%
%ADD52RoundRect,0.150000X0.150000X-0.512500X0.150000X0.512500X-0.150000X0.512500X-0.150000X-0.512500X0*%
%ADD53RoundRect,0.250000X-0.250000X-0.475000X0.250000X-0.475000X0.250000X0.475000X-0.250000X0.475000X0*%
G04 APERTURE END LIST*
%TO.C,JP2*%
G36*
X186100000Y-129300000D02*
G01*
X185800000Y-129300000D01*
X185800000Y-127800000D01*
X186100000Y-127800000D01*
X186100000Y-129300000D01*
G37*
%TO.C,JP3*%
G36*
X214050000Y-122300000D02*
G01*
X214350000Y-122300000D01*
X214350000Y-123800000D01*
X214050000Y-123800000D01*
X214050000Y-122300000D01*
G37*
%TD*%
D10*
%TO.C,JP2*%
X186600000Y-128550000D03*
X185300000Y-128550000D03*
%TD*%
D11*
%TO.C,J13*%
X106050000Y-106800000D03*
D12*
X106050000Y-109340000D03*
X106050000Y-111880000D03*
X106050000Y-114420000D03*
X106050000Y-116960000D03*
X106050000Y-119500000D03*
X106050000Y-122040000D03*
X106050000Y-124580000D03*
%TD*%
D13*
%TO.C,C14*%
X174650000Y-124650000D03*
X174650000Y-122750000D03*
%TD*%
D14*
%TO.C,Dm6*%
X252345000Y-121850000D03*
D15*
X253615000Y-121850000D03*
X254885000Y-121850000D03*
X256155000Y-121850000D03*
%TD*%
D16*
%TO.C,C15*%
X169900000Y-127100000D03*
X168000000Y-127100000D03*
%TD*%
D17*
%TO.C,C3*%
X237250000Y-93650000D03*
X237250000Y-95550000D03*
%TD*%
D16*
%TO.C,C13*%
X129700000Y-86850000D03*
X127800000Y-86850000D03*
%TD*%
D18*
%TO.C,SW4*%
X172550000Y-91550000D03*
X179050000Y-91550000D03*
X172550000Y-96050000D03*
X179050000Y-96050000D03*
%TD*%
D19*
%TO.C,TP6*%
X184050000Y-125450000D03*
%TD*%
D13*
%TO.C,C12*%
X215700000Y-130350000D03*
X215700000Y-128450000D03*
%TD*%
D20*
%TO.C,J1*%
X189650000Y-87817500D03*
D21*
X193150000Y-87817500D03*
X196650000Y-87817500D03*
X200150000Y-87817500D03*
%TD*%
D22*
%TO.C,D2*%
X212750000Y-130137500D03*
X212750000Y-128562500D03*
%TD*%
D23*
%TO.C,R1*%
X191387500Y-99000000D03*
X193212500Y-99000000D03*
%TD*%
D19*
%TO.C,TP2*%
X157750000Y-89150000D03*
%TD*%
D24*
%TO.C,R8*%
X110450000Y-109400000D03*
X110450000Y-107575000D03*
%TD*%
D14*
%TO.C,Dh1*%
X195640000Y-96617500D03*
D15*
X196910000Y-96617500D03*
X198180000Y-96617500D03*
X199450000Y-96617500D03*
%TD*%
D19*
%TO.C,TP8*%
X128950000Y-113500000D03*
%TD*%
%TO.C,TP1*%
X157350000Y-82450000D03*
%TD*%
D20*
%TO.C,J4*%
X243700000Y-85400000D03*
D21*
X247200000Y-85400000D03*
X250700000Y-85400000D03*
X254200000Y-85400000D03*
%TD*%
D17*
%TO.C,C10*%
X258655000Y-119400000D03*
X258655000Y-121300000D03*
%TD*%
%TO.C,C2*%
X219900000Y-91750000D03*
X219900000Y-93650000D03*
%TD*%
D20*
%TO.C,J8*%
X212250000Y-108950000D03*
D21*
X215750000Y-108950000D03*
X219250000Y-108950000D03*
X222750000Y-108950000D03*
%TD*%
D14*
%TO.C,Dm3*%
X200830000Y-114917500D03*
D15*
X202100000Y-114917500D03*
X203370000Y-114917500D03*
X204640000Y-114917500D03*
%TD*%
D19*
%TO.C,TP7*%
X128950000Y-109400000D03*
%TD*%
D18*
%TO.C,SW2*%
X172500000Y-82650000D03*
X179000000Y-82650000D03*
X172500000Y-87150000D03*
X179000000Y-87150000D03*
%TD*%
D25*
%TO.C,VR1*%
X97104500Y-108720000D03*
D26*
X99644500Y-106180000D03*
X102184500Y-108720000D03*
%TD*%
D17*
%TO.C,C1*%
X201900000Y-94167500D03*
X201900000Y-96067500D03*
%TD*%
D14*
%TO.C,Dm1*%
X166390000Y-113767500D03*
D15*
X167660000Y-113767500D03*
X168930000Y-113767500D03*
X170200000Y-113767500D03*
%TD*%
D27*
%TO.C,A1*%
X134820000Y-82950000D03*
D28*
X134820000Y-85490000D03*
D29*
X134820000Y-88030000D03*
D28*
X134820000Y-90570000D03*
X134820000Y-93110000D03*
X134820000Y-95650000D03*
X134820000Y-98190000D03*
D29*
X134820000Y-100730000D03*
D28*
X134820000Y-103270000D03*
X134820000Y-105810000D03*
X134820000Y-108350000D03*
X134820000Y-110890000D03*
D29*
X134820000Y-113430000D03*
D28*
X134820000Y-115970000D03*
X134820000Y-118510000D03*
X134820000Y-121050000D03*
X134820000Y-123590000D03*
D29*
X134820000Y-126130000D03*
D28*
X134820000Y-128670000D03*
X134820000Y-131210000D03*
X152600000Y-131210000D03*
X152600000Y-128670000D03*
D30*
X152600000Y-126130000D03*
D28*
X152600000Y-123590000D03*
X152600000Y-121050000D03*
X152600000Y-118510000D03*
X152600000Y-115970000D03*
D30*
X152600000Y-113430000D03*
D28*
X152600000Y-110890000D03*
X152600000Y-108350000D03*
X152600000Y-105810000D03*
X152600000Y-103270000D03*
D30*
X152600000Y-100730000D03*
D28*
X152600000Y-98190000D03*
X152600000Y-95650000D03*
X152600000Y-93110000D03*
X152600000Y-90570000D03*
D30*
X152600000Y-88030000D03*
D28*
X152600000Y-85490000D03*
X152600000Y-82950000D03*
%TD*%
D19*
%TO.C,TP4*%
X128700000Y-82550000D03*
%TD*%
D31*
%TO.C,J12*%
X193500000Y-128150000D03*
D32*
X195500000Y-128150000D03*
%TD*%
D33*
%TO.C,BT2*%
X127150000Y-92550000D03*
X97850000Y-92550000D03*
%TD*%
D18*
%TO.C,SW3*%
X161800000Y-91550000D03*
X168300000Y-91550000D03*
X161800000Y-96050000D03*
X168300000Y-96050000D03*
%TD*%
D14*
%TO.C,Dh3*%
X230990000Y-96100000D03*
D15*
X232260000Y-96100000D03*
X233530000Y-96100000D03*
X234800000Y-96100000D03*
%TD*%
D17*
%TO.C,C16*%
X169650000Y-129100000D03*
X169650000Y-131000000D03*
%TD*%
%TO.C,C9*%
X241700000Y-116232500D03*
X241700000Y-118132500D03*
%TD*%
D34*
%TO.C,R6*%
X211112500Y-132900000D03*
X209287500Y-132900000D03*
%TD*%
D14*
%TO.C,Dm4*%
X218340000Y-117700000D03*
D15*
X219610000Y-117700000D03*
X220880000Y-117700000D03*
X222150000Y-117700000D03*
%TD*%
D35*
%TO.C,Q1*%
X197150000Y-122337500D03*
X197150000Y-124237500D03*
X199025000Y-123287500D03*
%TD*%
D24*
%TO.C,R9*%
X110450000Y-112912500D03*
X110450000Y-111087500D03*
%TD*%
D23*
%TO.C,R4*%
X176937500Y-125150000D03*
X178762500Y-125150000D03*
%TD*%
D19*
%TO.C,TP3*%
X184050000Y-86400000D03*
%TD*%
D17*
%TO.C,C4*%
X256080000Y-92070000D03*
X256080000Y-93970000D03*
%TD*%
D36*
%TO.C,L1*%
X172637500Y-124700000D03*
X171062500Y-124700000D03*
%TD*%
D23*
%TO.C,R3*%
X199337500Y-133450000D03*
X201162500Y-133450000D03*
%TD*%
D20*
%TO.C,J7*%
X194950000Y-106067500D03*
D21*
X198450000Y-106067500D03*
X201950000Y-106067500D03*
X205450000Y-106067500D03*
%TD*%
D11*
%TO.C,J14*%
X124050000Y-106810000D03*
D12*
X124050000Y-109350000D03*
X124050000Y-111890000D03*
X124050000Y-114430000D03*
X124050000Y-116970000D03*
X124050000Y-119510000D03*
X124050000Y-122050000D03*
X124050000Y-124590000D03*
%TD*%
D34*
%TO.C,R5*%
X214912500Y-132900000D03*
X213087500Y-132900000D03*
%TD*%
D10*
%TO.C,JP3*%
X213550000Y-123050000D03*
X214850000Y-123050000D03*
%TD*%
D22*
%TO.C,D3*%
X211100000Y-130187500D03*
X211100000Y-128612500D03*
%TD*%
D24*
%TO.C,R2*%
X201750000Y-121562500D03*
X201750000Y-119737500D03*
%TD*%
D18*
%TO.C,SW1*%
X161800000Y-82650000D03*
X168300000Y-82650000D03*
X161800000Y-87150000D03*
X168300000Y-87150000D03*
%TD*%
D17*
%TO.C,C11*%
X180488000Y-130799500D03*
X180488000Y-132699500D03*
%TD*%
D20*
%TO.C,J3*%
X224950000Y-87267500D03*
D21*
X228450000Y-87267500D03*
X231950000Y-87267500D03*
X235450000Y-87267500D03*
%TD*%
D20*
%TO.C,J9*%
X229450000Y-109950000D03*
D21*
X232950000Y-109950000D03*
X236450000Y-109950000D03*
X239950000Y-109950000D03*
%TD*%
D19*
%TO.C,TP5*%
X187650000Y-125450000D03*
%TD*%
D20*
%TO.C,J10*%
X246435000Y-113187500D03*
D21*
X249935000Y-113187500D03*
X253435000Y-113187500D03*
X256935000Y-113187500D03*
%TD*%
D37*
%TO.C,U2*%
X171378000Y-128599500D03*
D38*
X171663000Y-128599500D03*
D37*
X171378000Y-129099500D03*
D38*
X171663000Y-129099500D03*
D37*
X171378000Y-129599500D03*
D38*
X171663000Y-129599500D03*
D37*
X171378000Y-130099500D03*
D38*
X171663000Y-130099500D03*
D37*
X171378000Y-130599500D03*
D38*
X171663000Y-130599500D03*
X174613000Y-130599500D03*
D37*
X174898000Y-130599500D03*
D38*
X174613000Y-130099500D03*
D37*
X174898000Y-130099500D03*
D38*
X174613000Y-129599500D03*
D37*
X174898000Y-129599500D03*
D38*
X174613000Y-129099500D03*
D37*
X174898000Y-129099500D03*
D38*
X174613000Y-128599500D03*
D37*
X174898000Y-128599500D03*
D39*
X172638000Y-128849500D03*
X172638000Y-130349500D03*
D40*
X172688000Y-128964500D03*
X172688000Y-130234500D03*
D41*
X172888000Y-127969500D03*
D42*
X172888000Y-128049500D03*
X172888000Y-131149500D03*
D41*
X172888000Y-131229500D03*
D39*
X173138000Y-129599500D03*
D43*
X173138000Y-129599500D03*
D41*
X173388000Y-127969500D03*
D42*
X173388000Y-128049500D03*
X173388000Y-131149500D03*
D41*
X173388000Y-131229500D03*
D40*
X173588000Y-128964500D03*
X173588000Y-130234500D03*
D39*
X173638000Y-128849500D03*
X173638000Y-130349500D03*
%TD*%
D23*
%TO.C,R7*%
X176937500Y-122950000D03*
X178762500Y-122950000D03*
%TD*%
D44*
%TO.C,J11*%
X184788000Y-131049500D03*
X185438000Y-131049500D03*
X186088000Y-131049500D03*
X186738000Y-131049500D03*
X187388000Y-131049500D03*
D45*
X182588000Y-133749500D03*
D46*
X183188000Y-133749500D03*
D47*
X183588000Y-131049500D03*
D48*
X185088000Y-133749500D03*
X187088000Y-133749500D03*
D47*
X188588000Y-131049500D03*
D46*
X188988000Y-133749500D03*
D45*
X189588000Y-133749500D03*
%TD*%
D14*
%TO.C,Dm5*%
X235395000Y-118682500D03*
D15*
X236665000Y-118682500D03*
X237935000Y-118682500D03*
X239205000Y-118682500D03*
%TD*%
D17*
%TO.C,C7*%
X207114500Y-112453000D03*
X207114500Y-114353000D03*
%TD*%
D49*
%TO.C,U4*%
X85150000Y-87500000D03*
X85150000Y-88770000D03*
X85150000Y-90040000D03*
X85150000Y-91310000D03*
X85150000Y-92580000D03*
X85150000Y-93850000D03*
X85150000Y-95120000D03*
X85150000Y-96390000D03*
X94450000Y-96390000D03*
X94450000Y-95120000D03*
X94450000Y-93850000D03*
X94450000Y-92580000D03*
X94450000Y-91310000D03*
X94450000Y-90040000D03*
X94450000Y-88770000D03*
X94450000Y-87500000D03*
%TD*%
D20*
%TO.C,J2*%
X207650000Y-85400000D03*
D21*
X211150000Y-85400000D03*
X214650000Y-85400000D03*
X218150000Y-85400000D03*
%TD*%
D50*
%TO.C,D1*%
X208900000Y-123200000D03*
X204900000Y-123200000D03*
%TD*%
D51*
%TO.C,J15*%
X102250000Y-120750000D03*
X102250000Y-123290000D03*
%TD*%
D17*
%TO.C,C8*%
X224550000Y-115250000D03*
X224550000Y-117150000D03*
%TD*%
%TO.C,C6*%
X189950000Y-113867500D03*
X189950000Y-115767500D03*
%TD*%
%TO.C,C5*%
X172700000Y-111600000D03*
X172700000Y-113500000D03*
%TD*%
D14*
%TO.C,Dh2*%
X213595000Y-94200000D03*
D15*
X214865000Y-94200000D03*
X216135000Y-94200000D03*
X217405000Y-94200000D03*
%TD*%
D20*
%TO.C,J5*%
X160450000Y-105167500D03*
D21*
X163950000Y-105167500D03*
X167450000Y-105167500D03*
X170950000Y-105167500D03*
%TD*%
D20*
%TO.C,J6*%
X177700000Y-107467500D03*
D21*
X181200000Y-107467500D03*
X184700000Y-107467500D03*
X188200000Y-107467500D03*
%TD*%
D34*
%TO.C,R11*%
X95162500Y-82850000D03*
X93337500Y-82850000D03*
%TD*%
D14*
%TO.C,Dh4*%
X249840000Y-94532500D03*
D15*
X251110000Y-94532500D03*
X252380000Y-94532500D03*
X253650000Y-94532500D03*
%TD*%
D34*
%TO.C,R10*%
X95150000Y-80750000D03*
X93325000Y-80750000D03*
%TD*%
D52*
%TO.C,U1*%
X201600000Y-130525000D03*
X202550000Y-130525000D03*
X203500000Y-130525000D03*
X203500000Y-128250000D03*
X201600000Y-128250000D03*
%TD*%
D53*
%TO.C,C17*%
X97100000Y-85750000D03*
X99000000Y-85750000D03*
%TD*%
D14*
%TO.C,Dm2*%
X183660000Y-116317500D03*
D15*
X184930000Y-116317500D03*
X186200000Y-116317500D03*
X187470000Y-116317500D03*
%TD*%
M02*
