%TF.GenerationSoftware,KiCad,Pcbnew,9.0.2*%
%TF.CreationDate,2025-05-27T01:48:19-04:00*%
%TF.ProjectId,JF-Clock_template_rpi,4a462d43-6c6f-4636-9b5f-74656d706c61,rev?*%
%TF.SameCoordinates,Original*%
%TF.FileFunction,Soldermask,Top*%
%TF.FilePolarity,Negative*%
%FSLAX46Y46*%
G04 Gerber Fmt 4.6, Leading zero omitted, Abs format (unit mm)*
G04 Created by KiCad (PCBNEW 9.0.2) date 2025-05-27 01:48:19*
%MOMM*%
%LPD*%
G01*
G04 APERTURE LIST*
G04 Aperture macros list*
%AMRoundRect*
0 Rectangle with rounded corners*
0 $1 Rounding radius*
0 $2 $3 $4 $5 $6 $7 $8 $9 X,Y pos of 4 corners*
0 Add a 4 corners polygon primitive as box body*
4,1,4,$2,$3,$4,$5,$6,$7,$8,$9,$2,$3,0*
0 Add four circle primitives for the rounded corners*
1,1,$1+$1,$2,$3*
1,1,$1+$1,$4,$5*
1,1,$1+$1,$6,$7*
1,1,$1+$1,$8,$9*
0 Add four rect primitives between the rounded corners*
20,1,$1+$1,$2,$3,$4,$5,0*
20,1,$1+$1,$4,$5,$6,$7,0*
20,1,$1+$1,$6,$7,$8,$9,0*
20,1,$1+$1,$8,$9,$2,$3,0*%
%AMFreePoly0*
4,1,37,0.800000,0.796148,0.878414,0.796148,1.032228,0.765552,1.177117,0.705537,1.307515,0.618408,1.418408,0.507515,1.505537,0.377117,1.565552,0.232228,1.596148,0.078414,1.596148,-0.078414,1.565552,-0.232228,1.505537,-0.377117,1.418408,-0.507515,1.307515,-0.618408,1.177117,-0.705537,1.032228,-0.765552,0.878414,-0.796148,0.800000,-0.796148,0.800000,-0.800000,-1.400000,-0.800000,
-1.403843,-0.796157,-1.439018,-0.796157,-1.511114,-0.766294,-1.566294,-0.711114,-1.596157,-0.639018,-1.596157,-0.603843,-1.600000,-0.600000,-1.600000,0.600000,-1.596157,0.603843,-1.596157,0.639018,-1.566294,0.711114,-1.511114,0.766294,-1.439018,0.796157,-1.403843,0.796157,-1.400000,0.800000,0.800000,0.800000,0.800000,0.796148,0.800000,0.796148,$1*%
%AMFreePoly1*
4,1,37,1.403843,0.796157,1.439018,0.796157,1.511114,0.766294,1.566294,0.711114,1.596157,0.639018,1.596157,0.603843,1.600000,0.600000,1.600000,-0.600000,1.596157,-0.603843,1.596157,-0.639018,1.566294,-0.711114,1.511114,-0.766294,1.439018,-0.796157,1.403843,-0.796157,1.400000,-0.800000,-0.800000,-0.800000,-0.800000,-0.796148,-0.878414,-0.796148,-1.032228,-0.765552,-1.177117,-0.705537,
-1.307515,-0.618408,-1.418408,-0.507515,-1.505537,-0.377117,-1.565552,-0.232228,-1.596148,-0.078414,-1.596148,0.078414,-1.565552,0.232228,-1.505537,0.377117,-1.418408,0.507515,-1.307515,0.618408,-1.177117,0.705537,-1.032228,0.765552,-0.878414,0.796148,-0.800000,0.796148,-0.800000,0.800000,1.400000,0.800000,1.403843,0.796157,1.403843,0.796157,$1*%
G04 Aperture macros list end*
%ADD10R,1.000000X1.500000*%
%ADD11R,1.700000X1.700000*%
%ADD12C,1.700000*%
%ADD13RoundRect,0.250000X0.250000X0.475000X-0.250000X0.475000X-0.250000X-0.475000X0.250000X-0.475000X0*%
%ADD14R,1.070000X1.800000*%
%ADD15O,1.070000X1.800000*%
%ADD16RoundRect,0.250000X-0.475000X0.250000X-0.475000X-0.250000X0.475000X-0.250000X0.475000X0.250000X0*%
%ADD17C,2.000000*%
%ADD18R,2.500000X2.500000*%
%ADD19RoundRect,0.250000X-1.050000X-1.050000X1.050000X-1.050000X1.050000X1.050000X-1.050000X1.050000X0*%
%ADD20C,2.600000*%
%ADD21RoundRect,0.250000X-0.450000X0.262500X-0.450000X-0.262500X0.450000X-0.262500X0.450000X0.262500X0*%
%ADD22RoundRect,0.250000X-0.262500X-0.450000X0.262500X-0.450000X0.262500X0.450000X-0.262500X0.450000X0*%
%ADD23RoundRect,0.102000X-0.611000X-0.611000X0.611000X-0.611000X0.611000X0.611000X-0.611000X0.611000X0*%
%ADD24C,1.426000*%
%ADD25FreePoly0,0.000000*%
%ADD26RoundRect,0.800000X-0.800000X-0.000010X0.800000X-0.000010X0.800000X0.000010X-0.800000X0.000010X0*%
%ADD27FreePoly1,0.000000*%
%ADD28RoundRect,0.200000X-0.600000X-0.600000X0.600000X-0.600000X0.600000X0.600000X-0.600000X0.600000X0*%
%ADD29C,1.600000*%
%ADD30RoundRect,0.250000X-0.350000X-0.625000X0.350000X-0.625000X0.350000X0.625000X-0.350000X0.625000X0*%
%ADD31O,1.200000X1.750000*%
%ADD32R,2.600000X3.600000*%
%ADD33RoundRect,0.150000X0.150000X-0.587500X0.150000X0.587500X-0.150000X0.587500X-0.150000X-0.587500X0*%
%ADD34RoundRect,0.250000X0.262500X0.450000X-0.262500X0.450000X-0.262500X-0.450000X0.262500X-0.450000X0*%
%ADD35RoundRect,0.218750X0.218750X0.256250X-0.218750X0.256250X-0.218750X-0.256250X0.218750X-0.256250X0*%
%ADD36R,0.280000X0.280000*%
%ADD37O,0.850000X0.280000*%
%ADD38C,0.600000*%
%ADD39R,0.680000X1.050000*%
%ADD40R,0.260000X0.500000*%
%ADD41R,0.280000X0.700000*%
%ADD42R,1.650000X2.400000*%
%ADD43R,0.400000X1.350000*%
%ADD44O,1.200000X1.900000*%
%ADD45R,1.200000X1.900000*%
%ADD46C,1.450000*%
%ADD47R,1.500000X1.900000*%
%ADD48RoundRect,0.150000X-0.875000X-0.150000X0.875000X-0.150000X0.875000X0.150000X-0.875000X0.150000X0*%
%ADD49RoundRect,0.250000X1.000000X0.650000X-1.000000X0.650000X-1.000000X-0.650000X1.000000X-0.650000X0*%
%ADD50C,1.400000*%
%ADD51RoundRect,0.150000X0.150000X-0.512500X0.150000X0.512500X-0.150000X0.512500X-0.150000X-0.512500X0*%
%ADD52RoundRect,0.250000X-0.250000X-0.475000X0.250000X-0.475000X0.250000X0.475000X-0.250000X0.475000X0*%
G04 APERTURE END LIST*
%TO.C,JP1*%
G36*
X186138000Y-128597000D02*
G01*
X185838000Y-128597000D01*
X185838000Y-127097000D01*
X186138000Y-127097000D01*
X186138000Y-128597000D01*
G37*
%TD*%
D10*
%TO.C,JP1*%
X186638000Y-127847000D03*
X185338000Y-127847000D03*
%TD*%
D11*
%TO.C,J14*%
X124015500Y-106860000D03*
D12*
X124015500Y-109400000D03*
X124015500Y-111940000D03*
X124015500Y-114480000D03*
X124015500Y-117020000D03*
X124015500Y-119560000D03*
X124015500Y-122100000D03*
X124015500Y-124640000D03*
%TD*%
D13*
%TO.C,C14*%
X168050000Y-126150000D03*
X166150000Y-126150000D03*
%TD*%
D14*
%TO.C,Dm6*%
X252345000Y-121850000D03*
D15*
X253615000Y-121850000D03*
X254885000Y-121850000D03*
X256155000Y-121850000D03*
%TD*%
D16*
%TO.C,C15*%
X168250000Y-128450000D03*
X168250000Y-130350000D03*
%TD*%
%TO.C,C3*%
X237250000Y-93650000D03*
X237250000Y-95550000D03*
%TD*%
D13*
%TO.C,C13*%
X129700000Y-86850000D03*
X127800000Y-86850000D03*
%TD*%
D17*
%TO.C,SW4*%
X172550000Y-91550000D03*
X179050000Y-91550000D03*
X172550000Y-96050000D03*
X179050000Y-96050000D03*
%TD*%
D18*
%TO.C,TP3*%
X176800000Y-125100000D03*
%TD*%
D16*
%TO.C,C12*%
X212250000Y-131050000D03*
X212250000Y-132950000D03*
%TD*%
D19*
%TO.C,J1*%
X189650000Y-87817500D03*
D20*
X193150000Y-87817500D03*
X196650000Y-87817500D03*
X200150000Y-87817500D03*
%TD*%
D21*
%TO.C,R1*%
X183750000Y-96387500D03*
X183750000Y-98212500D03*
%TD*%
D22*
%TO.C,R6*%
X127403000Y-109430000D03*
X129228000Y-109430000D03*
%TD*%
D14*
%TO.C,Dh1*%
X195640000Y-96617500D03*
D15*
X196910000Y-96617500D03*
X198180000Y-96617500D03*
X199450000Y-96617500D03*
%TD*%
D18*
%TO.C,TP5*%
X101265500Y-113660000D03*
%TD*%
%TO.C,TP1*%
X128750000Y-82600000D03*
%TD*%
D19*
%TO.C,J4*%
X243700000Y-85400000D03*
D20*
X247200000Y-85400000D03*
X250700000Y-85400000D03*
X254200000Y-85400000D03*
%TD*%
D16*
%TO.C,C10*%
X258655000Y-119400000D03*
X258655000Y-121300000D03*
%TD*%
%TO.C,C2*%
X219900000Y-91750000D03*
X219900000Y-93650000D03*
%TD*%
D19*
%TO.C,J8*%
X212250000Y-108950000D03*
D20*
X215750000Y-108950000D03*
X219250000Y-108950000D03*
X222750000Y-108950000D03*
%TD*%
D14*
%TO.C,Dm3*%
X200830000Y-114917500D03*
D15*
X202100000Y-114917500D03*
X203370000Y-114917500D03*
X204640000Y-114917500D03*
%TD*%
D18*
%TO.C,TP4*%
X101265500Y-109110000D03*
%TD*%
D17*
%TO.C,SW2*%
X172500000Y-82650000D03*
X179000000Y-82650000D03*
X172500000Y-87150000D03*
X179000000Y-87150000D03*
%TD*%
D23*
%TO.C,VR1*%
X157310000Y-124950000D03*
D24*
X159850000Y-122410000D03*
X162390000Y-124950000D03*
%TD*%
D16*
%TO.C,C1*%
X201900000Y-94167500D03*
X201900000Y-96067500D03*
%TD*%
D14*
%TO.C,Dm1*%
X166390000Y-113767500D03*
D15*
X167660000Y-113767500D03*
X168930000Y-113767500D03*
X170200000Y-113767500D03*
%TD*%
D25*
%TO.C,A1*%
X134060000Y-82095000D03*
D26*
X134060000Y-84635000D03*
D27*
X134060000Y-87175000D03*
D26*
X134060000Y-89715000D03*
X134060000Y-92255000D03*
X134060000Y-94795000D03*
X134060000Y-97335000D03*
D27*
X134060000Y-99875000D03*
D26*
X134060000Y-102415000D03*
X134060000Y-104955000D03*
X134060000Y-107495000D03*
X134060000Y-110035000D03*
D27*
X134060000Y-112575000D03*
D26*
X134060000Y-115115000D03*
X134060000Y-117655000D03*
X134060000Y-120195000D03*
X134060000Y-122735000D03*
D27*
X134060000Y-125275000D03*
D26*
X134060000Y-127815000D03*
X134060000Y-130355000D03*
X153440000Y-130355000D03*
X153440000Y-127815000D03*
D25*
X153440000Y-125275000D03*
D26*
X153440000Y-122735000D03*
X153440000Y-120195000D03*
X153440000Y-117655000D03*
X153440000Y-115115000D03*
D25*
X153440000Y-112575000D03*
D26*
X153440000Y-110035000D03*
X153440000Y-107495000D03*
X153440000Y-104955000D03*
X153440000Y-102415000D03*
D25*
X153440000Y-99875000D03*
D26*
X153440000Y-97335000D03*
X153440000Y-94795000D03*
X153440000Y-92255000D03*
X153440000Y-89715000D03*
D25*
X153440000Y-87175000D03*
D26*
X153440000Y-84635000D03*
X153440000Y-82095000D03*
D28*
X144334100Y-111925000D03*
D29*
X146874100Y-111925000D03*
X149414100Y-111925000D03*
%TD*%
D30*
%TO.C,J12*%
X193500000Y-128150000D03*
D31*
X195500000Y-128150000D03*
%TD*%
D32*
%TO.C,BT2*%
X127150000Y-92550000D03*
X97850000Y-92550000D03*
%TD*%
D17*
%TO.C,SW3*%
X161800000Y-91550000D03*
X168300000Y-91550000D03*
X161800000Y-96050000D03*
X168300000Y-96050000D03*
%TD*%
D14*
%TO.C,Dh3*%
X230990000Y-96100000D03*
D15*
X232260000Y-96100000D03*
X233530000Y-96100000D03*
X234800000Y-96100000D03*
%TD*%
D16*
%TO.C,C16*%
X166000000Y-128450000D03*
X166000000Y-130350000D03*
%TD*%
%TO.C,C9*%
X241700000Y-116232500D03*
X241700000Y-118132500D03*
%TD*%
D14*
%TO.C,Dm4*%
X218340000Y-117700000D03*
D15*
X219610000Y-117700000D03*
X220880000Y-117700000D03*
X222150000Y-117700000D03*
%TD*%
D33*
%TO.C,Q1*%
X209100000Y-128987500D03*
X211000000Y-128987500D03*
X210050000Y-127112500D03*
%TD*%
D22*
%TO.C,R7*%
X127403000Y-111730000D03*
X129228000Y-111730000D03*
%TD*%
D34*
%TO.C,R4*%
X178350500Y-129449500D03*
X176525500Y-129449500D03*
%TD*%
D16*
%TO.C,C4*%
X256080000Y-92070000D03*
X256080000Y-93970000D03*
%TD*%
D35*
%TO.C,L1*%
X167687500Y-123850000D03*
X166112500Y-123850000D03*
%TD*%
D21*
%TO.C,R3*%
X208750000Y-131125000D03*
X208750000Y-132950000D03*
%TD*%
D19*
%TO.C,J7*%
X194950000Y-106067500D03*
D20*
X198450000Y-106067500D03*
X201950000Y-106067500D03*
X205450000Y-106067500D03*
%TD*%
D11*
%TO.C,J13*%
X106015500Y-106830000D03*
D12*
X106015500Y-109370000D03*
X106015500Y-111910000D03*
X106015500Y-114450000D03*
X106015500Y-116990000D03*
X106015500Y-119530000D03*
X106015500Y-122070000D03*
X106015500Y-124610000D03*
%TD*%
D22*
%TO.C,R2*%
X181463000Y-128149500D03*
X183288000Y-128149500D03*
%TD*%
D17*
%TO.C,SW1*%
X161800000Y-82650000D03*
X168300000Y-82650000D03*
X161800000Y-87150000D03*
X168300000Y-87150000D03*
%TD*%
D16*
%TO.C,C11*%
X180488000Y-130799500D03*
X180488000Y-132699500D03*
%TD*%
D19*
%TO.C,J3*%
X224950000Y-87267500D03*
D20*
X228450000Y-87267500D03*
X231950000Y-87267500D03*
X235450000Y-87267500D03*
%TD*%
D19*
%TO.C,J9*%
X229450000Y-109950000D03*
D20*
X232950000Y-109950000D03*
X236450000Y-109950000D03*
X239950000Y-109950000D03*
%TD*%
D18*
%TO.C,TP2*%
X181200000Y-125100000D03*
%TD*%
D19*
%TO.C,J10*%
X246435000Y-113187500D03*
D20*
X249935000Y-113187500D03*
X253435000Y-113187500D03*
X256935000Y-113187500D03*
%TD*%
D36*
%TO.C,U2*%
X171378000Y-128599500D03*
D37*
X171663000Y-128599500D03*
D36*
X171378000Y-129099500D03*
D37*
X171663000Y-129099500D03*
D36*
X171378000Y-129599500D03*
D37*
X171663000Y-129599500D03*
D36*
X171378000Y-130099500D03*
D37*
X171663000Y-130099500D03*
D36*
X171378000Y-130599500D03*
D37*
X171663000Y-130599500D03*
X174613000Y-130599500D03*
D36*
X174898000Y-130599500D03*
D37*
X174613000Y-130099500D03*
D36*
X174898000Y-130099500D03*
D37*
X174613000Y-129599500D03*
D36*
X174898000Y-129599500D03*
D37*
X174613000Y-129099500D03*
D36*
X174898000Y-129099500D03*
D37*
X174613000Y-128599500D03*
D36*
X174898000Y-128599500D03*
D38*
X172638000Y-128849500D03*
X172638000Y-130349500D03*
D39*
X172688000Y-128964500D03*
X172688000Y-130234500D03*
D40*
X172888000Y-127969500D03*
D41*
X172888000Y-128049500D03*
X172888000Y-131149500D03*
D40*
X172888000Y-131229500D03*
D38*
X173138000Y-129599500D03*
D42*
X173138000Y-129599500D03*
D40*
X173388000Y-127969500D03*
D41*
X173388000Y-128049500D03*
X173388000Y-131149500D03*
D40*
X173388000Y-131229500D03*
D39*
X173588000Y-128964500D03*
X173588000Y-130234500D03*
D38*
X173638000Y-128849500D03*
X173638000Y-130349500D03*
%TD*%
D22*
%TO.C,R5*%
X176325500Y-132799500D03*
X178150500Y-132799500D03*
%TD*%
D43*
%TO.C,J11*%
X184788000Y-131049500D03*
X185438000Y-131049500D03*
X186088000Y-131049500D03*
X186738000Y-131049500D03*
X187388000Y-131049500D03*
D44*
X182588000Y-133749500D03*
D45*
X183188000Y-133749500D03*
D46*
X183588000Y-131049500D03*
D47*
X185088000Y-133749500D03*
X187088000Y-133749500D03*
D46*
X188588000Y-131049500D03*
D45*
X188988000Y-133749500D03*
D44*
X189588000Y-133749500D03*
%TD*%
D14*
%TO.C,Dm5*%
X235395000Y-118682500D03*
D15*
X236665000Y-118682500D03*
X237935000Y-118682500D03*
X239205000Y-118682500D03*
%TD*%
D16*
%TO.C,C7*%
X207114500Y-112453000D03*
X207114500Y-114353000D03*
%TD*%
D48*
%TO.C,U4*%
X85150000Y-87500000D03*
X85150000Y-88770000D03*
X85150000Y-90040000D03*
X85150000Y-91310000D03*
X85150000Y-92580000D03*
X85150000Y-93850000D03*
X85150000Y-95120000D03*
X85150000Y-96390000D03*
X94450000Y-96390000D03*
X94450000Y-95120000D03*
X94450000Y-93850000D03*
X94450000Y-92580000D03*
X94450000Y-91310000D03*
X94450000Y-90040000D03*
X94450000Y-88770000D03*
X94450000Y-87500000D03*
%TD*%
D19*
%TO.C,J2*%
X207650000Y-85400000D03*
D20*
X211150000Y-85400000D03*
X214650000Y-85400000D03*
X218150000Y-85400000D03*
%TD*%
D49*
%TO.C,D1*%
X203850000Y-128050000D03*
X199850000Y-128050000D03*
%TD*%
D50*
%TO.C,J15*%
X128315500Y-120980000D03*
X128315500Y-123520000D03*
%TD*%
D16*
%TO.C,C8*%
X224550000Y-115250000D03*
X224550000Y-117150000D03*
%TD*%
%TO.C,C6*%
X189950000Y-113867500D03*
X189950000Y-115767500D03*
%TD*%
%TO.C,C5*%
X172700000Y-111267500D03*
X172700000Y-113167500D03*
%TD*%
D14*
%TO.C,Dh2*%
X213595000Y-94200000D03*
D15*
X214865000Y-94200000D03*
X216135000Y-94200000D03*
X217405000Y-94200000D03*
%TD*%
D19*
%TO.C,J5*%
X160450000Y-105167500D03*
D20*
X163950000Y-105167500D03*
X167450000Y-105167500D03*
X170950000Y-105167500D03*
%TD*%
D19*
%TO.C,J6*%
X177700000Y-107467500D03*
D20*
X181200000Y-107467500D03*
X184700000Y-107467500D03*
X188200000Y-107467500D03*
%TD*%
D34*
%TO.C,R9*%
X95162500Y-82850000D03*
X93337500Y-82850000D03*
%TD*%
D14*
%TO.C,Dh4*%
X249840000Y-94532500D03*
D15*
X251110000Y-94532500D03*
X252380000Y-94532500D03*
X253650000Y-94532500D03*
%TD*%
D34*
%TO.C,R8*%
X95150000Y-80750000D03*
X93325000Y-80750000D03*
%TD*%
D51*
%TO.C,U1*%
X202500000Y-133637500D03*
X203450000Y-133637500D03*
X204400000Y-133637500D03*
X204400000Y-131362500D03*
X202500000Y-131362500D03*
%TD*%
D52*
%TO.C,C17*%
X97100000Y-85750000D03*
X99000000Y-85750000D03*
%TD*%
D14*
%TO.C,Dm2*%
X183660000Y-116317500D03*
D15*
X184930000Y-116317500D03*
X186200000Y-116317500D03*
X187470000Y-116317500D03*
%TD*%
M02*
