%TF.GenerationSoftware,KiCad,Pcbnew,(6.0.9-0)*%
%TF.CreationDate,2023-01-14T11:07:59-05:00*%
%TF.ProjectId,JF-PimpleClock,4a462d50-696d-4706-9c65-436c6f636b2e,rev?*%
%TF.SameCoordinates,Original*%
%TF.FileFunction,Soldermask,Bot*%
%TF.FilePolarity,Negative*%
%FSLAX46Y46*%
G04 Gerber Fmt 4.6, Leading zero omitted, Abs format (unit mm)*
G04 Created by KiCad (PCBNEW (6.0.9-0)) date 2023-01-14 11:07:59*
%MOMM*%
%LPD*%
G01*
G04 APERTURE LIST*
G04 Aperture macros list*
%AMRoundRect*
0 Rectangle with rounded corners*
0 $1 Rounding radius*
0 $2 $3 $4 $5 $6 $7 $8 $9 X,Y pos of 4 corners*
0 Add a 4 corners polygon primitive as box body*
4,1,4,$2,$3,$4,$5,$6,$7,$8,$9,$2,$3,0*
0 Add four circle primitives for the rounded corners*
1,1,$1+$1,$2,$3*
1,1,$1+$1,$4,$5*
1,1,$1+$1,$6,$7*
1,1,$1+$1,$8,$9*
0 Add four rect primitives between the rounded corners*
20,1,$1+$1,$2,$3,$4,$5,0*
20,1,$1+$1,$4,$5,$6,$7,0*
20,1,$1+$1,$6,$7,$8,$9,0*
20,1,$1+$1,$8,$9,$2,$3,0*%
G04 Aperture macros list end*
%ADD10C,0.150000*%
%ADD11R,1.700000X1.700000*%
%ADD12O,1.700000X1.700000*%
%ADD13C,0.600000*%
%ADD14R,1.070000X1.800000*%
%ADD15O,1.070000X1.800000*%
%ADD16C,1.450000*%
%ADD17O,1.200000X1.900000*%
%ADD18C,1.524000*%
%ADD19RoundRect,0.250000X-0.350000X-0.625000X0.350000X-0.625000X0.350000X0.625000X-0.350000X0.625000X0*%
%ADD20O,1.200000X1.750000*%
%ADD21C,1.400000*%
%ADD22R,3.600000X2.600000*%
G04 APERTURE END LIST*
D10*
%TO.C,U3*%
X143510000Y67056000D02*
X143510000Y89916000D01*
X143510000Y89916000D02*
X166370000Y89916000D01*
X166370000Y89916000D02*
X166370000Y67056000D01*
X166370000Y67056000D02*
X143510000Y67056000D01*
%TD*%
D11*
%TO.C,J1*%
X148336000Y92964000D03*
D12*
X150876000Y92964000D03*
X153416000Y92964000D03*
X155956000Y92964000D03*
X158496000Y92964000D03*
X161036000Y92964000D03*
%TD*%
D13*
%TO.C,U5*%
X168672000Y52545500D03*
X168172000Y53295500D03*
X169172000Y53295500D03*
X169172000Y51795500D03*
X168172000Y51795500D03*
%TD*%
D14*
%TO.C,Dh2*%
X81910000Y180594000D03*
D15*
X80640000Y180594000D03*
X79370000Y180594000D03*
X78100000Y180594000D03*
%TD*%
D16*
%TO.C,J4*%
X152344000Y27846000D03*
D17*
X153344000Y25146000D03*
D16*
X147344000Y27846000D03*
D17*
X146344000Y25146000D03*
%TD*%
D18*
%TO.C,U3*%
X146050000Y87376000D03*
X146050000Y84836000D03*
X146050000Y82296000D03*
X146050000Y79756000D03*
X146050000Y77216000D03*
X146050000Y74676000D03*
X146050000Y72136000D03*
X146050000Y69596000D03*
X163830000Y69596000D03*
X163830000Y72136000D03*
X163830000Y74676000D03*
X163830000Y77216000D03*
X163830000Y79756000D03*
X163830000Y82296000D03*
X163830000Y84836000D03*
X163830000Y87376000D03*
%TD*%
D14*
%TO.C,Dm3*%
X89530000Y156718000D03*
D15*
X88260000Y156718000D03*
X86990000Y156718000D03*
X85720000Y156718000D03*
%TD*%
D14*
%TO.C,Dm4*%
X104262000Y160528000D03*
D15*
X102992000Y160528000D03*
X101722000Y160528000D03*
X100452000Y160528000D03*
%TD*%
D14*
%TO.C,Dm5*%
X119756000Y162306000D03*
D15*
X118486000Y162306000D03*
X117216000Y162306000D03*
X115946000Y162306000D03*
%TD*%
D14*
%TO.C,Dm2*%
X74036000Y156464000D03*
D15*
X72766000Y156464000D03*
X71496000Y156464000D03*
X70226000Y156464000D03*
%TD*%
D14*
%TO.C,Dm1*%
X56002000Y155702000D03*
D15*
X54732000Y155702000D03*
X53462000Y155702000D03*
X52192000Y155702000D03*
%TD*%
D19*
%TO.C,J2*%
X157242000Y35216000D03*
D20*
X159242000Y35216000D03*
%TD*%
D21*
%TO.C,J3*%
X141478000Y73894000D03*
X141478000Y71354000D03*
%TD*%
D14*
%TO.C,Dh3*%
X96896000Y181610000D03*
D15*
X95626000Y181610000D03*
X94356000Y181610000D03*
X93086000Y181610000D03*
%TD*%
D14*
%TO.C,Dh1*%
X64892000Y178562000D03*
D15*
X63622000Y178562000D03*
X62352000Y178562000D03*
X61082000Y178562000D03*
%TD*%
D14*
%TO.C,Dm6*%
X131064000Y163068000D03*
D15*
X129794000Y163068000D03*
X128524000Y163068000D03*
X127254000Y163068000D03*
%TD*%
D14*
%TO.C,Dh4*%
X112898000Y183896000D03*
D15*
X111628000Y183896000D03*
X110358000Y183896000D03*
X109088000Y183896000D03*
%TD*%
D22*
%TO.C,BT1*%
X164338000Y109810000D03*
X164338000Y139110000D03*
%TD*%
M02*
