%TF.GenerationSoftware,KiCad,Pcbnew,(6.0.9-0)*%
%TF.CreationDate,2023-01-13T01:16:21-05:00*%
%TF.ProjectId,JF-PimpleClock,4a462d50-696d-4706-9c65-436c6f636b2e,rev?*%
%TF.SameCoordinates,Original*%
%TF.FileFunction,Paste,Top*%
%TF.FilePolarity,Positive*%
%FSLAX46Y46*%
G04 Gerber Fmt 4.6, Leading zero omitted, Abs format (unit mm)*
G04 Created by KiCad (PCBNEW (6.0.9-0)) date 2023-01-13 01:16:21*
%MOMM*%
%LPD*%
G01*
G04 APERTURE LIST*
G04 Aperture macros list*
%AMRoundRect*
0 Rectangle with rounded corners*
0 $1 Rounding radius*
0 $2 $3 $4 $5 $6 $7 $8 $9 X,Y pos of 4 corners*
0 Add a 4 corners polygon primitive as box body*
4,1,4,$2,$3,$4,$5,$6,$7,$8,$9,$2,$3,0*
0 Add four circle primitives for the rounded corners*
1,1,$1+$1,$2,$3*
1,1,$1+$1,$4,$5*
1,1,$1+$1,$6,$7*
1,1,$1+$1,$8,$9*
0 Add four rect primitives between the rounded corners*
20,1,$1+$1,$2,$3,$4,$5,0*
20,1,$1+$1,$4,$5,$6,$7,0*
20,1,$1+$1,$6,$7,$8,$9,0*
20,1,$1+$1,$8,$9,$2,$3,0*%
G04 Aperture macros list end*
%ADD10RoundRect,0.250000X0.450000X-0.262500X0.450000X0.262500X-0.450000X0.262500X-0.450000X-0.262500X0*%
%ADD11RoundRect,0.250000X-0.262500X-0.450000X0.262500X-0.450000X0.262500X0.450000X-0.262500X0.450000X0*%
%ADD12RoundRect,0.250000X-0.250000X-0.475000X0.250000X-0.475000X0.250000X0.475000X-0.250000X0.475000X0*%
%ADD13O,0.800000X0.230000*%
%ADD14R,0.230000X0.230000*%
%ADD15R,0.680000X1.050000*%
%ADD16R,0.260000X0.500000*%
%ADD17RoundRect,0.250000X0.262500X0.450000X-0.262500X0.450000X-0.262500X-0.450000X0.262500X-0.450000X0*%
%ADD18R,0.700000X0.700000*%
%ADD19R,0.400000X1.350000*%
%ADD20R,1.500000X1.900000*%
%ADD21RoundRect,0.150000X-0.875000X-0.150000X0.875000X-0.150000X0.875000X0.150000X-0.875000X0.150000X0*%
%ADD22RoundRect,0.250000X0.475000X-0.250000X0.475000X0.250000X-0.475000X0.250000X-0.475000X-0.250000X0*%
%ADD23R,1.550000X1.300000*%
%ADD24R,1.300000X1.700000*%
%ADD25RoundRect,0.218750X0.256250X-0.218750X0.256250X0.218750X-0.256250X0.218750X-0.256250X-0.218750X0*%
%ADD26RoundRect,0.150000X-0.512500X-0.150000X0.512500X-0.150000X0.512500X0.150000X-0.512500X0.150000X0*%
%ADD27RoundRect,0.147500X-0.147500X-0.172500X0.147500X-0.172500X0.147500X0.172500X-0.147500X0.172500X0*%
%ADD28R,5.100000X5.100000*%
%ADD29RoundRect,0.150000X0.587500X0.150000X-0.587500X0.150000X-0.587500X-0.150000X0.587500X-0.150000X0*%
%ADD30RoundRect,0.250000X-0.475000X0.250000X-0.475000X-0.250000X0.475000X-0.250000X0.475000X0.250000X0*%
%ADD31R,1.100000X0.600000*%
G04 APERTURE END LIST*
D10*
%TO.C,R3*%
X131826000Y44299500D03*
X131826000Y46124500D03*
%TD*%
D11*
%TO.C,R10*%
X104167500Y101720000D03*
X105992500Y101720000D03*
%TD*%
D12*
%TO.C,C18*%
X106706000Y56180000D03*
X108606000Y56180000D03*
%TD*%
D13*
%TO.C,U5*%
X133653000Y32496000D03*
D14*
X133368000Y32496000D03*
X133368000Y31996000D03*
D13*
X133653000Y31996000D03*
X133653000Y31496000D03*
D14*
X133368000Y31496000D03*
D13*
X133653000Y30996000D03*
D14*
X133368000Y30996000D03*
X133368000Y30496000D03*
D13*
X133653000Y30496000D03*
X136603000Y30496000D03*
D14*
X136888000Y30496000D03*
D13*
X136603000Y30996000D03*
D14*
X136888000Y30996000D03*
X136888000Y31496000D03*
D13*
X136603000Y31496000D03*
D14*
X136888000Y31996000D03*
D13*
X136603000Y31996000D03*
D14*
X136888000Y32496000D03*
D13*
X136603000Y32496000D03*
D15*
X135578000Y30861000D03*
X134678000Y30861000D03*
D16*
X135378000Y33126000D03*
X134878000Y29866000D03*
D15*
X135578000Y32131000D03*
X134678000Y32131000D03*
D16*
X135378000Y29866000D03*
X134878000Y33126000D03*
%TD*%
D11*
%TO.C,R5*%
X56491500Y177800000D03*
X58316500Y177800000D03*
%TD*%
D17*
%TO.C,R2*%
X161798000Y37592000D03*
X159973000Y37592000D03*
%TD*%
D12*
%TO.C,C13*%
X109982000Y190246000D03*
X111882000Y190246000D03*
%TD*%
D18*
%TO.C,Dh2*%
X80671000Y179790000D03*
X80671000Y180890000D03*
X78841000Y180890000D03*
X78841000Y179790000D03*
%TD*%
D19*
%TO.C,J4*%
X129256000Y24576500D03*
X129906000Y24576500D03*
X130556000Y24576500D03*
X131206000Y24576500D03*
X131856000Y24576500D03*
D20*
X131556000Y21876500D03*
X129556000Y21876500D03*
%TD*%
D21*
%TO.C,U2*%
X148258000Y39243000D03*
X148258000Y37973000D03*
X148258000Y36703000D03*
X148258000Y35433000D03*
X148258000Y34163000D03*
X148258000Y32893000D03*
X148258000Y31623000D03*
X148258000Y30353000D03*
X157558000Y30353000D03*
X157558000Y31623000D03*
X157558000Y32893000D03*
X157558000Y34163000D03*
X157558000Y35433000D03*
X157558000Y36703000D03*
X157558000Y37973000D03*
X157558000Y39243000D03*
%TD*%
D12*
%TO.C,C16*%
X109540000Y86360000D03*
X111440000Y86360000D03*
%TD*%
%TO.C,C12*%
X116840000Y167640000D03*
X118740000Y167640000D03*
%TD*%
%TO.C,C9*%
X101092000Y165862000D03*
X102992000Y165862000D03*
%TD*%
D22*
%TO.C,C17*%
X131572000Y33914000D03*
X131572000Y35814000D03*
%TD*%
D12*
%TO.C,C10*%
X78806000Y185928000D03*
X80706000Y185928000D03*
%TD*%
D23*
%TO.C,SW3*%
X169248000Y80640000D03*
X177208000Y80640000D03*
X177208000Y76140000D03*
X169248000Y76140000D03*
D24*
X173228000Y74300000D03*
%TD*%
D18*
%TO.C,Dm3*%
X88799000Y156168000D03*
X88799000Y157268000D03*
X86969000Y157268000D03*
X86969000Y156168000D03*
%TD*%
D12*
%TO.C,C6*%
X71440000Y162560000D03*
X73340000Y162560000D03*
%TD*%
D11*
%TO.C,R9*%
X99568000Y79756000D03*
X101393000Y79756000D03*
%TD*%
D18*
%TO.C,Dm4*%
X103023000Y159978000D03*
X103023000Y161078000D03*
X101193000Y161078000D03*
X101193000Y159978000D03*
%TD*%
D12*
%TO.C,C11*%
X93726000Y187198000D03*
X95626000Y187198000D03*
%TD*%
D17*
%TO.C,R6*%
X72032500Y27666000D03*
X70207500Y27666000D03*
%TD*%
D18*
%TO.C,Dm5*%
X118771000Y161756000D03*
X118771000Y162856000D03*
X116941000Y162856000D03*
X116941000Y161756000D03*
%TD*%
%TO.C,Dm2*%
X73305000Y155914000D03*
X73305000Y157014000D03*
X71475000Y157014000D03*
X71475000Y155914000D03*
%TD*%
D25*
%TO.C,L1*%
X131064000Y30200500D03*
X131064000Y31775500D03*
%TD*%
D22*
%TO.C,C15*%
X122936000Y40452000D03*
X122936000Y42352000D03*
%TD*%
D17*
%TO.C,R1*%
X161798000Y39878000D03*
X159973000Y39878000D03*
%TD*%
D12*
%TO.C,C5*%
X52832000Y161036000D03*
X54732000Y161036000D03*
%TD*%
D26*
%TO.C,U4*%
X127762000Y41844000D03*
X127762000Y40894000D03*
X127762000Y39944000D03*
X130037000Y39944000D03*
X130037000Y41844000D03*
%TD*%
D12*
%TO.C,C8*%
X86934000Y162560000D03*
X88834000Y162560000D03*
%TD*%
%TO.C,C2*%
X106746000Y50546000D03*
X108646000Y50546000D03*
%TD*%
%TO.C,C14*%
X128270000Y168656000D03*
X130170000Y168656000D03*
%TD*%
%TO.C,C7*%
X61722000Y184404000D03*
X63622000Y184404000D03*
%TD*%
D18*
%TO.C,Dm1*%
X54763000Y154644000D03*
X54763000Y155744000D03*
X52933000Y155744000D03*
X52933000Y154644000D03*
%TD*%
D27*
%TO.C,D1*%
X124483000Y35306000D03*
X125453000Y35306000D03*
%TD*%
D23*
%TO.C,SW1*%
X174836000Y153030000D03*
X182796000Y153030000D03*
X182796000Y148530000D03*
X174836000Y148530000D03*
D24*
X178816000Y146690000D03*
%TD*%
D23*
%TO.C,SW4*%
X156380000Y80640000D03*
X148420000Y80640000D03*
X148420000Y76140000D03*
X156380000Y76140000D03*
D24*
X152400000Y74300000D03*
%TD*%
D11*
%TO.C,R8*%
X127865500Y91694000D03*
X129690500Y91694000D03*
%TD*%
D23*
%TO.C,SW2*%
X135552000Y129154000D03*
X127592000Y129154000D03*
X135552000Y124654000D03*
X127592000Y124654000D03*
D24*
X131572000Y122814000D03*
%TD*%
D18*
%TO.C,Dh3*%
X95657000Y181314000D03*
X95657000Y182414000D03*
X93827000Y182414000D03*
X93827000Y181314000D03*
%TD*%
D28*
%TO.C,BT1*%
X171042000Y56642000D03*
X145442000Y56642000D03*
%TD*%
D29*
%TO.C,Q1*%
X126238000Y29210000D03*
X126238000Y31110000D03*
X124363000Y30160000D03*
%TD*%
D30*
%TO.C,C3*%
X117856000Y67244000D03*
X117856000Y65344000D03*
%TD*%
D11*
%TO.C,R7*%
X113067500Y107740000D03*
X114892500Y107740000D03*
%TD*%
D30*
%TO.C,C1*%
X120650000Y29332000D03*
X120650000Y27432000D03*
%TD*%
D18*
%TO.C,Dh1*%
X63907000Y177758000D03*
X63907000Y178858000D03*
X62077000Y178858000D03*
X62077000Y177758000D03*
%TD*%
D30*
%TO.C,C4*%
X117856000Y60132000D03*
X117856000Y58232000D03*
%TD*%
D18*
%TO.C,Dm6*%
X130201000Y162518000D03*
X130201000Y163618000D03*
X128371000Y163618000D03*
X128371000Y162518000D03*
%TD*%
D31*
%TO.C,Y1*%
X117856000Y63438000D03*
X117856000Y62038000D03*
%TD*%
D18*
%TO.C,Dh4*%
X111659000Y182838000D03*
X111659000Y183938000D03*
X109829000Y183938000D03*
X109829000Y182838000D03*
%TD*%
D11*
%TO.C,R4*%
X117047000Y84328000D03*
X118872000Y84328000D03*
%TD*%
M02*
