M48
; DRILL file {KiCad (6.0.9-0)} date Friday, March 17, 2023 at 04:46:55 PM
; FORMAT={-:-/ absolute / inch / decimal}
; #@! TF.CreationDate,2023-03-17T16:46:55-04:00
; #@! TF.GenerationSoftware,Kicad,Pcbnew,(6.0.9-0)
; #@! TF.FileFunction,Plated,1,2,PTH
FMAT,2
INCH
; #@! TA.AperFunction,Plated,PTH,ComponentDrill
T1C0.0118
; #@! TA.AperFunction,Plated,PTH,ViaDrill
T2C0.0157
; #@! TA.AperFunction,Plated,PTH,ComponentDrill
T3C0.0236
; #@! TA.AperFunction,Plated,PTH,ComponentDrill
T4C0.0295
; #@! TA.AperFunction,Plated,PTH,ComponentDrill
T5C0.0315
; #@! TA.AperFunction,Plated,PTH,ComponentDrill
T6C0.0335
; #@! TA.AperFunction,Plated,PTH,ComponentDrill
T7C0.0354
; #@! TA.AperFunction,Plated,PTH,ComponentDrill
T8C0.0394
; #@! TA.AperFunction,Plated,PTH,ComponentDrill
T9C0.0433
; #@! TA.AperFunction,Plated,PTH,ComponentDrill
T10C0.0472
%
G90
G05
T1
X6.6209Y2.0982
X6.6209Y2.0392
X6.6406Y2.0687
X6.6603Y2.0982
X6.6603Y2.0392
T2
X3.3593Y6.9829
X3.747Y7.2821
X4.3448Y7.3253
X5.2349Y6.9829
X5.6561Y5.3845
X5.82Y1.18
X5.83Y1.4
X5.8435Y4.6729
X5.8601Y4.7719
X5.88Y1.82
X5.89Y3.56
X5.93Y1.39
X5.95Y4.93
X5.98Y4.62
X5.99Y2.56
X6.0Y1.82
X6.05Y3.4
X6.0512Y4.4324
X6.07Y1.54
X6.0766Y4.1345
X6.09Y3.87
X6.11Y2.66
X6.1421Y1.7947
X6.1727Y4.6513
X6.2968Y2.4011
X6.4345Y2.0832
X6.4392Y4.5908
X6.4781Y4.7867
X6.4853Y5.3807
X6.52Y2.31
X6.55Y2.23
X6.5548Y4.9338
X6.57Y4.57
X6.6Y4.01
X6.6267Y4.6815
X6.6416Y4.6298
X6.6528Y4.8183
X6.72Y3.77
X6.74Y2.3
X6.7502Y4.2865
X6.76Y4.59
X6.76Y2.05
X6.7783Y4.5062
X6.809Y4.305
X6.84Y4.01
X6.91Y4.6
X7.1Y4.01
T4
X6.1906Y1.3865
X6.2694Y1.3865
T5
X5.57Y2.9092
X5.57Y2.8092
T6
X5.8009Y1.0963
X5.9978Y1.0963
T7
X2.0548Y6.13
X2.1048Y6.13
X2.1548Y6.13
X2.2048Y6.13
X2.4048Y7.03
X2.4548Y7.03
X2.5048Y7.03
X2.5548Y7.03
X2.7648Y6.16
X2.8148Y6.16
X2.8648Y6.16
X2.9148Y6.16
X3.0748Y7.11
X3.1248Y7.11
X3.1748Y7.11
X3.2248Y7.11
X3.3748Y6.17
X3.4248Y6.17
X3.4748Y6.17
X3.5248Y6.17
X3.6648Y7.15
X3.7148Y7.15
X3.7648Y7.15
X3.8148Y7.15
X3.9548Y6.32
X4.0048Y6.32
X4.0548Y6.32
X4.1048Y6.32
X4.2948Y7.24
X4.3448Y7.24
X4.3948Y7.24
X4.4448Y7.24
X4.5648Y6.39
X4.6148Y6.39
X4.6648Y6.39
X4.7148Y6.39
X5.01Y6.42
X5.06Y6.42
X5.11Y6.42
X5.16Y6.42
T8
X5.75Y3.44
X5.75Y3.34
X5.75Y3.24
X5.75Y3.14
X5.75Y3.04
X5.75Y2.94
X5.75Y2.84
X5.75Y2.74
X5.84Y3.66
X5.94Y3.66
X6.04Y3.66
X6.14Y3.66
X6.24Y3.66
X6.34Y3.66
X6.44Y3.66
X6.45Y3.44
X6.45Y3.34
X6.45Y3.24
X6.45Y3.14
X6.45Y3.04
X6.45Y2.94
X6.45Y2.84
X6.45Y2.74
X6.54Y3.66
T9
X6.842Y3.9086
X6.842Y3.7314
X6.842Y3.4786
X6.842Y3.3014
X7.098Y3.9086
X7.098Y3.7314
X7.098Y3.4786
X7.098Y3.3014
X7.13Y5.79
X7.13Y5.6128
X7.13Y5.36
X7.13Y5.1828
X7.3859Y5.79
X7.3859Y5.6128
X7.3859Y5.36
X7.3859Y5.1828
T10
X5.77Y1.5
X5.92Y1.5
X6.62Y3.39
X6.62Y3.24
T3
G00X5.7616Y0.9762
M15
G01X5.7616Y1.0038
M16
G05
G00X6.0372Y1.0038
M15
G01X6.0372Y0.9762
M16
G05
T0
M30
