%TF.GenerationSoftware,KiCad,Pcbnew,(6.0.9-0)*%
%TF.CreationDate,2023-01-13T01:16:21-05:00*%
%TF.ProjectId,JF-PimpleClock,4a462d50-696d-4706-9c65-436c6f636b2e,rev?*%
%TF.SameCoordinates,Original*%
%TF.FileFunction,Soldermask,Bot*%
%TF.FilePolarity,Negative*%
%FSLAX46Y46*%
G04 Gerber Fmt 4.6, Leading zero omitted, Abs format (unit mm)*
G04 Created by KiCad (PCBNEW (6.0.9-0)) date 2023-01-13 01:16:21*
%MOMM*%
%LPD*%
G01*
G04 APERTURE LIST*
G04 Aperture macros list*
%AMRoundRect*
0 Rectangle with rounded corners*
0 $1 Rounding radius*
0 $2 $3 $4 $5 $6 $7 $8 $9 X,Y pos of 4 corners*
0 Add a 4 corners polygon primitive as box body*
4,1,4,$2,$3,$4,$5,$6,$7,$8,$9,$2,$3,0*
0 Add four circle primitives for the rounded corners*
1,1,$1+$1,$2,$3*
1,1,$1+$1,$4,$5*
1,1,$1+$1,$6,$7*
1,1,$1+$1,$8,$9*
0 Add four rect primitives between the rounded corners*
20,1,$1+$1,$2,$3,$4,$5,0*
20,1,$1+$1,$4,$5,$6,$7,0*
20,1,$1+$1,$6,$7,$8,$9,0*
20,1,$1+$1,$8,$9,$2,$3,0*%
G04 Aperture macros list end*
%ADD10C,0.150000*%
%ADD11C,1.400000*%
%ADD12R,1.700000X1.700000*%
%ADD13O,1.700000X1.700000*%
%ADD14C,0.600000*%
%ADD15O,1.600000X1.600000*%
%ADD16R,1.600000X1.600000*%
%ADD17C,1.450000*%
%ADD18O,1.200000X1.900000*%
%ADD19C,1.524000*%
%ADD20RoundRect,0.250000X0.600000X0.750000X-0.600000X0.750000X-0.600000X-0.750000X0.600000X-0.750000X0*%
%ADD21O,1.700000X2.000000*%
G04 APERTURE END LIST*
D10*
%TO.C,U3*%
X96774000Y12426000D02*
X73914000Y12426000D01*
X96774000Y35286000D02*
X96774000Y12426000D01*
X73914000Y35286000D02*
X96774000Y35286000D01*
X73914000Y12426000D02*
X73914000Y35286000D01*
%TD*%
D11*
%TO.C,J3*%
X70866000Y19792000D03*
X70866000Y17252000D03*
%TD*%
D12*
%TO.C,J1*%
X113284000Y61214000D03*
D13*
X113284000Y58674000D03*
X113284000Y56134000D03*
X113284000Y53594000D03*
X113284000Y51054000D03*
X113284000Y48514000D03*
%TD*%
D14*
%TO.C,U5*%
X135128000Y31496000D03*
X134628000Y32246000D03*
X135628000Y32246000D03*
X135628000Y30746000D03*
X134628000Y30746000D03*
%TD*%
D15*
%TO.C,U1*%
X129296000Y84064000D03*
X129296000Y81524000D03*
X129296000Y78984000D03*
X129296000Y76444000D03*
X129296000Y73904000D03*
X129296000Y71364000D03*
X129296000Y68824000D03*
X129296000Y66284000D03*
X129296000Y63744000D03*
X129296000Y61204000D03*
X129296000Y58664000D03*
X129296000Y56124000D03*
X129296000Y53584000D03*
X129296000Y51044000D03*
X121676000Y51044000D03*
X121676000Y53584000D03*
X121676000Y56124000D03*
X121676000Y58664000D03*
X121676000Y61204000D03*
X121676000Y63744000D03*
X121676000Y66284000D03*
X121676000Y68824000D03*
X121676000Y71364000D03*
X121676000Y73904000D03*
X121676000Y76444000D03*
X121676000Y78984000D03*
X121676000Y81524000D03*
D16*
X121676000Y84064000D03*
%TD*%
D17*
%TO.C,J4*%
X133056000Y24576500D03*
D18*
X134056000Y21876500D03*
D17*
X128056000Y24576500D03*
D18*
X127056000Y21876500D03*
%TD*%
D19*
%TO.C,U3*%
X94234000Y32746000D03*
X94234000Y30206000D03*
X94234000Y27666000D03*
X94234000Y25126000D03*
X94234000Y22586000D03*
X94234000Y20046000D03*
X94234000Y17506000D03*
X94234000Y14966000D03*
X76454000Y14966000D03*
X76454000Y17506000D03*
X76454000Y20046000D03*
X76454000Y22586000D03*
X76454000Y25126000D03*
X76454000Y27666000D03*
X76454000Y30206000D03*
X76454000Y32746000D03*
%TD*%
D20*
%TO.C,J2*%
X110724000Y36060500D03*
D21*
X108224000Y36060500D03*
%TD*%
M02*
