%TF.GenerationSoftware,KiCad,Pcbnew,(6.0.9-0)*%
%TF.CreationDate,2023-03-17T16:46:55-04:00*%
%TF.ProjectId,JF-PimpleClock,4a462d50-696d-4706-9c65-436c6f636b2e,rev?*%
%TF.SameCoordinates,Original*%
%TF.FileFunction,Profile,NP*%
%FSLAX46Y46*%
G04 Gerber Fmt 4.6, Leading zero omitted, Abs format (unit mm)*
G04 Created by KiCad (PCBNEW (6.0.9-0)) date 2023-03-17 16:46:55*
%MOMM*%
%LPD*%
G01*
G04 APERTURE LIST*
%TA.AperFunction,Profile*%
%ADD10C,0.001000*%
%TD*%
G04 APERTURE END LIST*
D10*
X183513615Y82423000D02*
X183598166Y83905558D01*
X86563106Y3149147D02*
X87376000Y3319101D01*
X124921933Y232735541D02*
X125167957Y233140326D01*
X50499243Y236245195D02*
X50796843Y235698885D01*
X132188032Y287404624D02*
X131398257Y288448619D01*
X168601508Y37300013D02*
X169083758Y38338040D01*
X33051442Y209915060D02*
X32469392Y208501023D01*
X2984500Y99718613D02*
X3365022Y99612651D01*
X1597084Y113903086D02*
X1528418Y113381234D01*
X126721890Y15286023D02*
X127082153Y15347086D01*
X151105Y100836969D02*
G75*
G03*
X249827Y100746335I147665J61761D01*
G01*
X10297707Y151692878D02*
X10092531Y151220529D01*
X50772100Y244835134D02*
X50430746Y244230218D01*
X34743009Y213914189D02*
X34681232Y213757318D01*
X21644100Y60126574D02*
X21570973Y59831684D01*
X130222447Y221844392D02*
G75*
G03*
X130619500Y221921115I-42847J1287508D01*
G01*
X3744932Y128524000D02*
X3447198Y127170929D01*
X60128168Y229186621D02*
X59939733Y228351377D01*
X362793Y104953271D02*
X337832Y104515329D01*
X189971665Y123342814D02*
X189961086Y124724671D01*
X172883573Y46485970D02*
G75*
G03*
X173079675Y47001765I-3364473J1574330D01*
G01*
X135272488Y252828482D02*
G75*
G03*
X135255000Y252636521I1045012J-191982D01*
G01*
X32469392Y208501023D02*
X31871690Y207010000D01*
X77651808Y281984847D02*
X77524925Y281584061D01*
X60027399Y226767704D02*
G75*
G03*
X60392436Y226603844I422101J451796D01*
G01*
X67032269Y263253161D02*
X66822251Y263005301D01*
X12197091Y155979382D02*
X11987060Y155517514D01*
X22090660Y62118314D02*
X21935174Y61464031D01*
X130882440Y221978010D02*
G75*
G03*
X130619500Y221921115I77460J-994010D01*
G01*
X428883Y106878696D02*
X389539Y106351251D01*
X23480274Y185360851D02*
X23322146Y184921637D01*
X93281500Y296598184D02*
X92943499Y296517680D01*
X174932744Y51554588D02*
X175194273Y51979494D01*
X755235Y109288242D02*
X704327Y108966000D01*
X28992870Y199849835D02*
X28817150Y199390000D01*
X177033953Y192937463D02*
X176274727Y194403658D01*
X36941418Y4365736D02*
G75*
G03*
X36480998Y4142777I247482J-1097936D01*
G01*
X42019299Y4540772D02*
X44087060Y4427478D01*
X33210700Y2124854D02*
X33595540Y2290427D01*
X184225715Y176288805D02*
X184031224Y176927659D01*
X129466644Y221840672D02*
X128121142Y221889786D01*
X95047379Y4703286D02*
G75*
G03*
X95158163Y4728182I-147279J914314D01*
G01*
X2523183Y120615855D02*
X2392202Y119449244D01*
X136797693Y278878044D02*
X136730496Y279046441D01*
X123240116Y295553357D02*
X122421184Y295885118D01*
X134571765Y283974667D02*
X134394195Y284226000D01*
X25044256Y189405419D02*
X24844168Y188868799D01*
X18683004Y172606305D02*
X18602014Y172402500D01*
X55306637Y250869869D02*
X55088007Y250583980D01*
X122347085Y224672907D02*
X122362663Y226244627D01*
X36716668Y218447867D02*
X36554954Y218272416D01*
X97328873Y297574618D02*
X96956090Y297507517D01*
X189211698Y112533516D02*
X189281723Y112844730D01*
X73990259Y272724766D02*
X72543050Y269975539D01*
X5082770Y134601907D02*
X4984540Y134164362D01*
X87996458Y295079484D02*
X86296730Y294502449D01*
X56007000Y221993117D02*
X52815905Y221981705D01*
X136993930Y278229499D02*
X136919022Y278434319D01*
X52116291Y234762295D02*
X52768500Y234827383D01*
X19847603Y175736393D02*
X19747042Y175491218D01*
X68013261Y264351260D02*
X67314967Y263561648D01*
X25261010Y189977660D02*
X25044256Y189405419D01*
X189342867Y113003580D02*
G75*
G03*
X189281723Y112844730I606333J-324580D01*
G01*
X136282509Y258017526D02*
G75*
G03*
X136277253Y257832767I1767391J-142726D01*
G01*
X55088007Y250583980D02*
X54828768Y250277505D01*
X177864051Y191356623D02*
X177033953Y192937463D01*
X162710457Y211634129D02*
X162249353Y211963000D01*
X19694947Y52761340D02*
X19585691Y52393204D01*
X186524809Y164604063D02*
X186302345Y165670291D01*
X60606332Y235762051D02*
X60720912Y234778866D01*
X11161726Y153598350D02*
X10989469Y153203237D01*
X19169364Y174049074D02*
X19041221Y173662796D01*
X26500075Y193357500D02*
X26248369Y192637216D01*
X14030926Y95167316D02*
G75*
G03*
X13174255Y96062581I-8903126J-7661816D01*
G01*
X68991386Y225319724D02*
X68937480Y225026717D01*
X34883863Y2804675D02*
G75*
G03*
X35050390Y2919604I-435363J808925D01*
G01*
X174180969Y198668589D02*
X172856682Y201156227D01*
X60647824Y230930761D02*
G75*
G03*
X60758198Y231343129I-2569624J908739D01*
G01*
X35905869Y216501387D02*
X35524205Y215610265D01*
X182297031Y74231499D02*
G75*
G03*
X182695500Y75895775I-18436931J5294101D01*
G01*
X170049769Y40747878D02*
X170701359Y42164000D01*
X389539Y106351251D02*
X366288Y105820108D01*
X101292244Y298396430D02*
X100661924Y298279850D01*
X6283694Y140886014D02*
G75*
G03*
X6246529Y140398500I1959006J-394514D01*
G01*
X51827572Y234773241D02*
G75*
G03*
X52116291Y234762295I188528J1159559D01*
G01*
X157966836Y214598251D02*
G75*
G03*
X157990730Y214561829I123464J54949D01*
G01*
X2004609Y99995376D02*
X2286000Y99913055D01*
X166910925Y32952835D02*
X166996798Y33128592D01*
X69847037Y1601866D02*
X70465950Y1637294D01*
X61775050Y226693772D02*
G75*
G03*
X61956203Y226793525I-201850J580928D01*
G01*
X34085345Y212313047D02*
X33597477Y211203736D01*
X187630979Y104488765D02*
X187722484Y104977960D01*
X23580705Y789812D02*
G75*
G03*
X23666821Y714047I295095J248588D01*
G01*
X53348866Y248576897D02*
X52629001Y247604032D01*
X181196408Y69775625D02*
X181282689Y70325780D01*
X189473636Y113553546D02*
G75*
G03*
X189484000Y113762470I-2101336J208954D01*
G01*
X173597007Y48465869D02*
X173932268Y49299564D01*
X11189893Y153735857D02*
G75*
G03*
X11176000Y153667295I162207J-68557D01*
G01*
X185990480Y94978272D02*
X186122234Y95794082D01*
X188022110Y106203265D02*
X188094626Y106438009D01*
X186938893Y162936218D02*
X186835907Y163512500D01*
X1460659Y112829465D02*
X1404635Y112331500D01*
X189952283Y125883375D02*
X189949260Y126301500D01*
X134754310Y283691806D02*
X134571765Y283974667D01*
X122775266Y228303026D02*
X122877966Y228587021D01*
X139573001Y17573653D02*
G75*
G03*
X139959394Y17674884I-529301J2808347D01*
G01*
X83455240Y293491686D02*
G75*
G03*
X83812943Y293528883I-22640J1956214D01*
G01*
X5635189Y99070073D02*
X5842000Y98998640D01*
X134316548Y249206522D02*
G75*
G03*
X134257916Y249047936I407852J-240922D01*
G01*
X186793897Y163767719D02*
X186742111Y164009477D01*
X114319440Y10847796D02*
X114490500Y10917426D01*
X936676Y110083929D02*
X838031Y109683153D01*
X135784079Y16703820D02*
X136919705Y16937949D01*
X51604978Y234856297D02*
G75*
G03*
X51827571Y234773237I320422J518903D01*
G01*
X50113576Y237057384D02*
X50499243Y236245195D01*
X84390804Y2790870D02*
X85503718Y2963032D01*
X188156839Y106696725D02*
X188201079Y106940593D01*
X33595540Y2290427D02*
X33946264Y2414131D01*
X13820002Y159777113D02*
X13684432Y159442535D01*
X52812754Y2759987D02*
G75*
G03*
X52667800Y2785563I-355754J-1592687D01*
G01*
X1939166Y116997003D02*
X1887929Y116459000D01*
X159004000Y25656582D02*
X160305236Y26364757D01*
X69706844Y226678138D02*
X69316118Y225858734D01*
X25660741Y154013D02*
G75*
G03*
X25993628Y173237I101459J1134887D01*
G01*
X135620982Y254454620D02*
X135981493Y255970914D01*
X1736725Y100081991D02*
X2004609Y99995376D01*
X190231571Y145527316D02*
X190147564Y146137601D01*
X169283130Y38786017D02*
X169397571Y39080632D01*
X132348817Y222049904D02*
X131536872Y222020536D01*
X26462214Y295348D02*
X26763553Y376823D01*
X136435623Y279864014D02*
X136340740Y280162000D01*
X18508246Y172166739D02*
X18318836Y171644490D01*
X58654043Y237027682D02*
G75*
G03*
X58337987Y236910821I557457J-1993482D01*
G01*
X132579241Y244523583D02*
G75*
G03*
X132588000Y244711602I-2013641J188017D01*
G01*
X2006734Y117510827D02*
X1939166Y116997003D01*
X63813077Y259824974D02*
X61666977Y257709641D01*
X136919705Y16937949D02*
X137957066Y17167202D01*
X96618971Y5209526D02*
X97345500Y5346144D01*
X145553113Y219837423D02*
X145184031Y219944060D01*
X137833489Y266045609D02*
X137971819Y266630107D01*
X189961086Y124724671D02*
X189952283Y125883375D01*
X80560202Y2345315D02*
X81643691Y2462607D01*
X67114964Y263344662D02*
X67032269Y263253161D01*
X85534500Y294196196D02*
X84720839Y293832824D01*
X173289134Y47640761D02*
X173597007Y48465869D01*
X129310610Y15642313D02*
X129921000Y15682602D01*
X168191524Y36383310D02*
X168379070Y36813823D01*
X122627701Y227443502D02*
X122669195Y227679919D01*
X1887929Y116459000D02*
X1838530Y115887979D01*
X63933744Y228408885D02*
X65879892Y229391182D01*
X1140044Y110798815D02*
X1037138Y110426500D01*
X62601374Y227521371D02*
G75*
G03*
X62113422Y226956099I3599026J-3599971D01*
G01*
X132278Y103103114D02*
X93628Y102580434D01*
X159838328Y213539874D02*
X158378114Y214429050D01*
X60014507Y236923268D02*
G75*
G03*
X59901711Y236938331I-179907J-917368D01*
G01*
X76413834Y278170160D02*
X76297571Y277884601D01*
X3050198Y124557332D02*
X2972777Y124243946D01*
X148798703Y21420685D02*
X148971000Y21494843D01*
X183559Y103561147D02*
X132278Y103103114D01*
X182134532Y73577847D02*
X182218880Y73938016D01*
X130333751Y239627831D02*
G75*
G03*
X130150523Y239484289I193749J-436031D01*
G01*
X186835907Y163512500D02*
X186793897Y163767719D01*
X134799071Y251055151D02*
X134948321Y251661632D01*
X170680950Y204422147D02*
X169260599Y206019245D01*
X148821493Y218935620D02*
G75*
G03*
X147972629Y219202690I-3476293J-9566620D01*
G01*
X181999902Y72898000D02*
X182057047Y73211543D01*
X182168738Y182271129D02*
X181843984Y182983577D01*
X94938850Y4693419D02*
G75*
G03*
X95047379Y4703287I-16950J788181D01*
G01*
X171221112Y43251438D02*
X171437347Y43679259D01*
X137090681Y277986510D02*
X136993930Y278229499D01*
X38252909Y219831833D02*
G75*
G03*
X37873847Y219732033I929291J-4299433D01*
G01*
X16955046Y29817748D02*
X17060034Y25561954D01*
X19604964Y84329780D02*
X19718006Y84074000D01*
X67591377Y222426556D02*
G75*
G03*
X68145499Y222556689I-39977J1415044D01*
G01*
X88891052Y3567251D02*
X89522979Y3659978D01*
X70815109Y267604287D02*
X70497840Y267211969D01*
X4483062Y132432299D02*
X4341883Y131716055D01*
X165191291Y30735067D02*
G75*
G03*
X165137003Y30640656I255909J-209967D01*
G01*
X168007021Y35846066D02*
G75*
G03*
X168021000Y35926898I-226721J80834D01*
G01*
X21455978Y59499500D02*
G75*
G03*
X21501361Y59588630I-227978J172200D01*
G01*
X35636745Y3212311D02*
G75*
G03*
X35673816Y3253569I-83145J111989D01*
G01*
X181937117Y72586674D02*
X181999902Y72898000D01*
X128592150Y237365863D02*
G75*
G03*
X127977290Y236868833I1650950J-2671163D01*
G01*
X136896348Y278579805D02*
X136854446Y278716959D01*
X36018856Y3520291D02*
G75*
G03*
X36102076Y3620873I-482356J483809D01*
G01*
X134887725Y250005829D02*
G75*
G03*
X134736907Y250254919I-1248825J-585929D01*
G01*
X103458552Y298794335D02*
G75*
G03*
X103060500Y298715556I-4352J-1023035D01*
G01*
X95527703Y4921952D02*
G75*
G03*
X95319850Y4803917I188097J-573252D01*
G01*
X138365859Y274450198D02*
G75*
G03*
X137891981Y276016440I-15224259J-3751398D01*
G01*
X21478553Y79502000D02*
X21840159Y78591474D01*
X29938341Y202470364D02*
G75*
G03*
X29854743Y202202491I2050059J-786764D01*
G01*
X21712641Y60452000D02*
X21644100Y60126574D01*
X15556983Y92783584D02*
G75*
G03*
X14700385Y94267376I-16901174J-8767949D01*
G01*
X136905986Y278510455D02*
G75*
G03*
X136896348Y278579805I-253286J145D01*
G01*
X169585904Y39675501D02*
G75*
G03*
X169486679Y39370000I2802196J-1079001D01*
G01*
X55954673Y251754212D02*
X55589166Y251314365D01*
X29484478Y201104500D02*
X29357481Y200786801D01*
X22968290Y73633806D02*
X23091004Y71360908D01*
X60823636Y232435113D02*
X60812559Y231796938D01*
X129208207Y290766500D02*
X127166400Y292778005D01*
X183177084Y179486842D02*
X183003271Y180062577D01*
X35857115Y3429009D02*
G75*
G03*
X35792111Y3419456I85J-226509D01*
G01*
X185258875Y91571170D02*
X185346431Y92075000D01*
X22952154Y67813143D02*
G75*
G03*
X23103290Y69150094I-6958954J1463697D01*
G01*
X49955257Y243320081D02*
X49396020Y242228662D01*
X112841921Y298344909D02*
X111919213Y298420687D01*
X186302345Y165670291D02*
X186087986Y166823521D01*
X149651211Y218593303D02*
X148821492Y218935616D01*
X123121086Y229104878D02*
X123223734Y229340464D01*
X13205281Y158331677D02*
X13084980Y158051500D01*
X131644804Y242676411D02*
X131851002Y243109949D01*
X17060034Y25561954D02*
X17189260Y19113500D01*
X134915635Y283420525D02*
X134754310Y283691806D01*
X19459435Y51898162D02*
X19337384Y51368291D01*
X92519500Y4125170D02*
X92994361Y4207749D01*
X4882226Y133757434D02*
X4787510Y133418188D01*
X66303205Y262382000D02*
X66013825Y262038683D01*
X147972629Y219202690D02*
X146304000Y219635787D01*
X136580924Y259120198D02*
X136642501Y259359502D01*
X41611153Y220286958D02*
X40870324Y220165830D01*
X133760907Y247513401D02*
X134020684Y248102286D01*
X169585905Y39675501D02*
X169753121Y40083651D01*
X172856682Y201156227D02*
X171731410Y203008165D01*
X190358062Y144208500D02*
X190305952Y144852504D01*
X6064134Y139001500D02*
X5809706Y137892398D01*
X29591387Y201381492D02*
X29484478Y201104500D01*
X166825751Y32775864D02*
X166910925Y32952835D01*
X60758191Y231343130D02*
G75*
G03*
X60812559Y231796938I-3516691J651470D01*
G01*
X131439014Y242252500D02*
X131644804Y242676411D01*
X29793585Y201980440D02*
X29699539Y201688972D01*
X98767356Y5686017D02*
G75*
G03*
X98552000Y5615865I693544J-2494717D01*
G01*
X132513835Y244251610D02*
G75*
G03*
X132552444Y244365114I-639035J280690D01*
G01*
X180820899Y68087085D02*
X181049215Y69064022D01*
X171523880Y43815003D02*
G75*
G03*
X171772812Y44207767I-1905080J1482697D01*
G01*
X188708772Y109455911D02*
X188869150Y110220276D01*
X182218880Y73938016D02*
X182297028Y74231500D01*
X24337746Y187515226D02*
X24104016Y186926118D01*
X19585691Y52393204D02*
X19459435Y51898162D01*
X10541000Y152221904D02*
X10297707Y151692878D01*
X50796844Y235698886D02*
G75*
G03*
X51055052Y235321089I3300056J1978314D01*
G01*
X18300501Y47232184D02*
X18147509Y46642301D01*
X78116017Y283859735D02*
X78060748Y283634983D01*
X44330541Y220888780D02*
X43612280Y220739228D01*
X8552188Y147287995D02*
X8078750Y146304000D01*
X53055975Y2678218D02*
G75*
G03*
X53183779Y2624882I365525J696082D01*
G01*
X149142740Y21559029D02*
X149419072Y21639118D01*
X134768467Y222036908D02*
X133286500Y222059500D01*
X189556798Y114645963D02*
X189601989Y114945569D01*
X104162452Y7159047D02*
X105426610Y7598432D01*
X19491328Y5104702D02*
G75*
G03*
X20065419Y4148059I9273772J4914698D01*
G01*
X113437744Y298324067D02*
X112841921Y298344909D01*
X3447198Y127170929D02*
X3286291Y126364456D01*
X130572577Y15734769D02*
X131325541Y15826743D01*
X9927581Y150819523D02*
G75*
G03*
X9906000Y150708284I275819J-111223D01*
G01*
X87376000Y3319101D02*
X87631776Y3374214D01*
X12852726Y157509766D02*
X12746840Y157263278D01*
X167209011Y33628806D02*
X167273544Y33842616D01*
X177477771Y56488636D02*
X177513523Y56627256D01*
X87928847Y3430154D02*
X88219951Y3478775D01*
X138700566Y271653000D02*
G75*
G03*
X138634228Y273001762I-8927866J236900D01*
G01*
X71980Y101394063D02*
G75*
G03*
X96593Y101038556I2837420J17837D01*
G01*
X34916137Y214304153D02*
X34822236Y214100093D01*
X19951035Y83526123D02*
X20264707Y82719818D01*
X55149750Y235574618D02*
X55478264Y235733690D01*
X185808219Y168675008D02*
X185754259Y168984887D01*
X29357481Y200786801D02*
X29182155Y200338928D01*
X14455656Y161448284D02*
X14337295Y161133234D01*
X18652416Y48595133D02*
X18531088Y48147840D01*
X158716093Y25500973D02*
X159004000Y25656582D01*
X85503718Y2963032D02*
X86563106Y3149147D01*
X26765822Y194108993D02*
X26500075Y193357500D01*
X16389275Y166370000D02*
X16162699Y165715652D01*
X135827553Y221961957D02*
X134768467Y222036908D01*
X185754260Y168984887D02*
G75*
G03*
X185729147Y169050516I-185560J-33387D01*
G01*
X3987585Y99443727D02*
X4325541Y99363217D01*
X187936198Y105918015D02*
X188022110Y106203265D01*
X100661924Y298279850D02*
X100002141Y298145099D01*
X48568567Y3540336D02*
X49250351Y3407630D01*
X135865342Y281397218D02*
X135677896Y281813000D01*
X136787564Y221809869D02*
G75*
G03*
X135827553Y221961957I-2121264J-10283969D01*
G01*
X175873566Y52831997D02*
G75*
G03*
X176171754Y53230428I-1687866J1574003D01*
G01*
X53416905Y2555629D02*
X53691410Y2485186D01*
X78741683Y288367070D02*
X78687699Y288031276D01*
X76187465Y277623441D02*
X76064359Y277301076D01*
X188543739Y156654500D02*
X188031249Y158849762D01*
X136164264Y256825222D02*
X136255067Y257394023D01*
X23324108Y1011132D02*
X23491005Y878766D01*
X146876949Y20556975D02*
X147189247Y20727365D01*
X185346431Y92075000D02*
X185440698Y92584883D01*
X12549801Y156800153D02*
X12486850Y156647381D01*
X59576654Y236977878D02*
X59765471Y236951886D01*
X153241310Y216954105D02*
X152617764Y217216679D01*
X165874565Y209384397D02*
G75*
G03*
X164880762Y210167308I-5266165J-5662497D01*
G01*
X78336782Y287045217D02*
G75*
G03*
X78275637Y286742822I2014518J-564717D01*
G01*
X135132360Y282976611D02*
X135024004Y283210000D01*
X19993948Y53882160D02*
X19855524Y53304393D01*
X17010378Y168097131D02*
X16822672Y167599143D01*
X162746839Y27970369D02*
G75*
G03*
X163476521Y28605219I-3698839J4988131D01*
G01*
X127032216Y235831670D02*
X127977290Y236868833D01*
X69740966Y266319000D02*
X68833594Y265283102D01*
X188094626Y106438009D02*
X188156839Y106696725D01*
X124711731Y232410000D02*
X124921933Y232735541D01*
X32850401Y1945447D02*
G75*
G03*
X32579174Y1780528I1327099J-2488047D01*
G01*
X58813870Y254825500D02*
X58469254Y254445684D01*
X136395576Y258380039D02*
G75*
G03*
X136346212Y258319578I63024J-101839D01*
G01*
X1776408Y115274725D02*
X1711561Y114708822D01*
X135166302Y252188558D02*
G75*
G03*
X135212753Y252342726I-1626502J574142D01*
G01*
X9749261Y98015902D02*
X10335024Y97855174D01*
X77524925Y281584061D02*
X77403826Y281241500D01*
X115435459Y11251845D02*
X115669736Y11346746D01*
X73446064Y1792223D02*
X75111763Y1896759D01*
X186742111Y164009477D02*
X186688258Y164211518D01*
X78197930Y284572482D02*
X78161009Y284118280D01*
X45593000Y221089561D02*
X45030946Y221013759D01*
X184700825Y174196646D02*
X184598054Y174688500D01*
X19747042Y175491218D02*
X19627862Y175222309D01*
X90942464Y295974984D02*
X90678000Y295908002D01*
X4191580Y130810000D02*
X4113927Y130351232D01*
X189929386Y117769179D02*
X189982446Y119429386D01*
X180226044Y65556526D02*
X180286042Y65871212D01*
X184598054Y174688500D02*
X184395612Y175616262D01*
X190147564Y146137601D02*
X190067063Y146558000D01*
X37094001Y218931338D02*
X36906904Y218681451D01*
X32349358Y1633707D02*
X32579174Y1780528D01*
X158069899Y214510103D02*
G75*
G03*
X158112603Y214503000I42701J124797D01*
G01*
X22311195Y1757521D02*
G75*
G03*
X22916703Y1294324I2965605J3249379D01*
G01*
X125392762Y294314787D02*
X124391328Y294987356D01*
X23810132Y632113D02*
G75*
G03*
X23979594Y557289I818968J1625487D01*
G01*
X190050696Y129289049D02*
X190156563Y131196522D01*
X188382043Y108104583D02*
X188481628Y108521500D01*
X167530735Y207794797D02*
X165874563Y209384394D01*
X133413500Y246810101D02*
X133760907Y247513401D01*
X18934609Y49523304D02*
X18852458Y49256042D01*
X77403826Y281241500D02*
X77273757Y280877498D01*
X180366443Y66244032D02*
X180461653Y66639933D01*
X46799502Y3927059D02*
G75*
G03*
X45780933Y4222974I-1650802J-3781259D01*
G01*
X75221Y102061682D02*
X71976Y101394063D01*
X60374094Y230088117D02*
X60128168Y229186621D01*
X178748415Y60109430D02*
X178855086Y60492048D01*
X2718105Y122738536D02*
X2661547Y122174000D01*
X132408246Y244194071D02*
G75*
G03*
X132321473Y244081102I968954J-834071D01*
G01*
X130401028Y239724664D02*
G75*
G03*
X130421971Y239807712I-441228J155436D01*
G01*
X136346208Y258319580D02*
G75*
G03*
X136307450Y258186268I932092J-343280D01*
G01*
X30399303Y203599832D02*
X30143798Y202990375D01*
X189967222Y127413705D02*
X190050696Y129289049D01*
X51864063Y2890391D02*
X52347221Y2809230D01*
X53176111Y234880517D02*
X53560663Y234944451D01*
X190156563Y131196522D02*
X190259284Y132524500D01*
X28246082Y538768D02*
X28817773Y631814D01*
X6911345Y142811501D02*
G75*
G03*
X6688624Y142354006I1900755J-1208301D01*
G01*
X36102083Y3620868D02*
G75*
G03*
X36168831Y3739783I-672783J455832D01*
G01*
X70063701Y227530751D02*
X69706844Y226678138D01*
X30988703Y204923345D02*
X30680672Y204234491D01*
X189949260Y126301500D02*
X189967222Y127413705D01*
X68896328Y224693414D02*
X68736582Y223521364D01*
X117829806Y12097167D02*
X118250969Y12261455D01*
X157966819Y214598244D02*
G75*
G03*
X157756909Y214822081I-426419J-189544D01*
G01*
X135111177Y252063571D02*
G75*
G03*
X134948321Y251661632I1800223J-963371D01*
G01*
X139408853Y17538907D02*
X139573000Y17573658D01*
X19337384Y51368291D02*
X19239251Y50882848D01*
X122389589Y223084703D02*
G75*
G03*
X122542050Y222528198I1298111J56497D01*
G01*
X27097828Y195008500D02*
X26765822Y194108993D01*
X15925443Y165062297D02*
X15709317Y164493460D01*
X178594155Y189992000D02*
X177864051Y191356623D01*
X190419979Y138264444D02*
X190429991Y142105664D01*
X135300772Y282616275D02*
X135132360Y282976611D01*
X180024284Y64592581D02*
X180191837Y65240547D01*
X13084980Y158051500D02*
X12970849Y157785101D01*
X28024132Y197370654D02*
X27737679Y196659500D01*
X14777100Y162283554D02*
X14539572Y161671000D01*
X54802923Y235416083D02*
X55149750Y235574618D01*
X151257000Y217835978D02*
X149651211Y218593303D01*
X366288Y105820108D02*
X364966Y105371707D01*
X66509821Y1463874D02*
X67875150Y1508962D01*
X76064359Y277301076D02*
X75947787Y276971870D01*
X115218702Y11170816D02*
X115435459Y11251845D01*
X129416913Y238451547D02*
G75*
G03*
X129219020Y238072759I2106587J-1341647D01*
G01*
X142303500Y18535808D02*
X143108608Y18911111D01*
X7205461Y98562787D02*
X8015458Y98370488D01*
X70322766Y230691290D02*
X70359810Y229775888D01*
X122703326Y228042566D02*
G75*
G03*
X122682000Y227858189I786274J-184366D01*
G01*
X129416914Y238451546D02*
X129773049Y238978281D01*
X30551006Y1092950D02*
X30959299Y1209383D01*
X183003271Y180062577D02*
X182801185Y180678835D01*
X62293500Y222119352D02*
X61473716Y222071839D01*
X16860907Y32780569D02*
X16955046Y29817748D01*
X124974585Y14901524D02*
X125840224Y15123142D01*
X18098288Y171022275D02*
X17867886Y170357062D01*
X35581299Y3184550D02*
G75*
G03*
X35636749Y3212306I-50999J171150D01*
G01*
X174534627Y50642915D02*
X174670007Y50958433D01*
X241278Y103847707D02*
G75*
G03*
X296019Y104119887I-1948302J533438D01*
G01*
X181019116Y184755498D02*
X180542351Y185809217D01*
X19359834Y84917977D02*
X19479071Y84626847D01*
X70202399Y230957437D02*
G75*
G03*
X69861001Y231046722I-247399J-248637D01*
G01*
X179816704Y63828463D02*
X180024284Y64592581D01*
X17635856Y169692831D02*
X17410407Y169073581D01*
X58912844Y237067104D02*
G75*
G03*
X58654042Y237027687I31856J-1078504D01*
G01*
X95313500Y297116689D02*
X94771423Y296972209D01*
X116451459Y11660489D02*
X116789458Y11770432D01*
X94384090Y4569828D02*
X94605753Y4633122D01*
X79618806Y290450446D02*
G75*
G03*
X79021656Y289380306I5426894J-3729946D01*
G01*
X188201084Y106940592D02*
G75*
G03*
X188216489Y107124500I-1356284J206208D01*
G01*
X78241721Y286305984D02*
X78232000Y285641226D01*
X8004004Y146139057D02*
X7914565Y145893234D01*
X167375277Y34252172D02*
G75*
G03*
X167319702Y34036000I2058223J-644372D01*
G01*
X14337295Y161133234D02*
X14208104Y160788819D01*
X17847514Y45529499D02*
G75*
G03*
X17196245Y42654993I28744086J-8023499D01*
G01*
X1528418Y113381234D02*
X1460659Y112829465D01*
X125409536Y233555672D02*
X125606831Y233915344D01*
X60460138Y236493665D02*
X60606332Y235762051D01*
X185244865Y171593564D02*
X185117760Y172212000D01*
X145184031Y219944060D02*
X144907000Y220030162D01*
X132777233Y245458322D02*
G75*
G03*
X132631792Y245027120I4279067J-1683422D01*
G01*
X179718931Y187659251D02*
X179284412Y188595397D01*
X98066622Y5487538D02*
X98374206Y5560454D01*
X36554948Y218272422D02*
G75*
G03*
X36393095Y218085589I1223252J-1223222D01*
G01*
X33946264Y2414131D02*
X34277832Y2528630D01*
X136515433Y258635612D02*
G75*
G03*
X136525000Y258754028I-727733J118388D01*
G01*
X190305952Y144852504D02*
X190231571Y145527316D01*
X185881175Y94436640D02*
X185990480Y94978272D01*
X102905005Y298666637D02*
G75*
G03*
X103060500Y298715556I-191805J881263D01*
G01*
X60791911Y233534260D02*
X60823636Y232435113D01*
X82642428Y293283413D02*
G75*
G03*
X82190179Y293015311I1477972J-3008613D01*
G01*
X5842000Y98998640D02*
X6503231Y98766162D01*
X14700391Y94267380D02*
G75*
G03*
X14030926Y95167316I-6660091J-4255480D01*
G01*
X122928858Y14206675D02*
X123231275Y14323176D01*
X13342296Y158649194D02*
X13205281Y158331677D01*
X47661887Y3711397D02*
X48069500Y3633226D01*
X56761588Y236248538D02*
G75*
G03*
X57086501Y236337998I-667988J3060862D01*
G01*
X46202654Y221164808D02*
X45593000Y221089561D01*
X145725325Y19949326D02*
X146104199Y20111786D01*
X22855604Y183565132D02*
X22475231Y182616561D01*
X458092Y100667911D02*
X792766Y100517833D01*
X11346718Y154103612D02*
X11189895Y153735856D01*
X138456200Y269154272D02*
X138627792Y270534049D01*
X166755326Y32626523D02*
X166825751Y32775864D01*
X165772142Y31138035D02*
G75*
G03*
X165865897Y31243485I-530042J565665D01*
G01*
X17290112Y15892851D02*
X17469931Y12703181D01*
X184241955Y87080967D02*
X184575097Y88356757D01*
X136905991Y278510455D02*
G75*
G03*
X136919022Y278434319I228609J-55D01*
G01*
X12371393Y156367526D02*
X12197091Y155979382D01*
X140868626Y220868851D02*
X139044385Y221269881D01*
X3870095Y129104218D02*
X3744932Y128524000D01*
X59856581Y227110955D02*
G75*
G03*
X60027397Y226767702I544519J56845D01*
G01*
X26248369Y192637216D02*
X25961057Y191837072D01*
X116459000Y297753621D02*
X115598098Y297986150D01*
X17867886Y170357062D02*
X17635856Y169692831D01*
X37772817Y4476219D02*
G75*
G03*
X36941421Y4365724I199283J-4682519D01*
G01*
X183826966Y85620666D02*
G75*
G03*
X183693228Y84869251I8120834J-1832966D01*
G01*
X177377958Y56201895D02*
X177435439Y56362226D01*
X177088958Y55308500D02*
X177187390Y55621627D01*
X68937480Y225026717D02*
X68896328Y224693414D01*
X132466958Y244221007D02*
G75*
G03*
X132513835Y244251610I-58J51293D01*
G01*
X59870578Y222032284D02*
X57981415Y222003939D01*
X71174372Y1675013D02*
X71882000Y1709826D01*
X145355727Y19815130D02*
X145725325Y19949326D01*
X134614504Y249468054D02*
G75*
G03*
X134828300Y249633613I-549904J930946D01*
G01*
X95527710Y4921932D02*
X96005780Y5064213D01*
X3683000Y99524078D02*
X3987585Y99443727D01*
X180123770Y186753500D02*
X179718931Y187659251D01*
X61926037Y1370924D02*
X65024000Y1420349D01*
X20582460Y3489430D02*
X21430932Y2598850D01*
X22537191Y64165497D02*
X22406892Y63445593D01*
X136057650Y280935113D02*
X135865342Y281397218D01*
X137689984Y265327316D02*
X137833489Y266045609D01*
X93475969Y4307890D02*
X93899974Y4410220D01*
X6911344Y142811501D02*
G75*
G03*
X7065582Y143123875I-1368544J869999D01*
G01*
X1654963Y114300000D02*
X1597084Y113903086D01*
X65425416Y261382583D02*
X65228241Y261184659D01*
X27727090Y508000D02*
G75*
G03*
X27452671Y492912I10J-2503200D01*
G01*
X68833594Y265283102D02*
X68013261Y264351260D01*
X130816245Y240659010D02*
G75*
G03*
X130860007Y240826598I-1345245J440790D01*
G01*
X49396020Y242228662D02*
X49379836Y240462581D01*
X158301928Y25257232D02*
X158716093Y25500973D01*
X145946141Y219729037D02*
X145553113Y219837423D01*
X132651500Y16061361D02*
X133198190Y16186675D01*
X36136346Y217131823D02*
G75*
G03*
X36195000Y217495491I-1098146J363677D01*
G01*
X2972778Y124243946D02*
G75*
G03*
X2887521Y123870286I4231922J-1162146D01*
G01*
X189397157Y113139094D02*
X189442541Y113335290D01*
X165530378Y30982631D02*
G75*
G03*
X165654713Y31045870I-231278J608569D01*
G01*
X139162234Y17479116D02*
X139408853Y17538907D01*
X96956090Y297507517D02*
X96429391Y297393085D01*
X184395612Y175616262D02*
X184225715Y176288805D01*
X138886900Y17408361D02*
X139162234Y17479116D01*
X94771423Y296972209D02*
X94192725Y296822498D01*
X59513901Y255567308D02*
X58813870Y254825500D01*
X24844168Y188868799D02*
X24698718Y188468000D01*
X24152207Y501880D02*
X25235545Y225395D01*
X180191837Y65240547D02*
G75*
G03*
X180213000Y65409807I-666237J169253D01*
G01*
X179064050Y61221524D02*
X179311424Y62078125D01*
X177538368Y56757415D02*
G75*
G03*
X177546000Y56854798I-617468J97385D01*
G01*
X108787174Y298739072D02*
X106214249Y298776314D01*
X126181420Y293690022D02*
G75*
G03*
X125392762Y294314787I-6689220J-7633822D01*
G01*
X96592Y101038556D02*
G75*
G03*
X151103Y100836968I785618J104274D01*
G01*
X2797936Y123332116D02*
X2718105Y122738536D01*
X185660766Y93602616D02*
X185749609Y93935696D01*
X55478264Y235733690D02*
X55755183Y235888159D01*
X187552830Y160794323D02*
G75*
G03*
X187447381Y161099500I-2062130J-541723D01*
G01*
X11335662Y97431260D02*
G75*
G03*
X10842113Y97667434I-2865462J-5354360D01*
G01*
X89702327Y295634163D02*
X87996458Y295079484D01*
X184029413Y86360000D02*
X184241955Y87080967D01*
X170701359Y42164000D02*
X170970435Y42737312D01*
X43612280Y220739228D02*
X42989500Y220586205D01*
X61514060Y226633925D02*
G75*
G03*
X61775050Y226693771I-142460J1220275D01*
G01*
X47079297Y221293292D02*
X46202654Y221164808D01*
X130222447Y221844404D02*
X129466644Y221840672D01*
X162249353Y211963000D02*
X161236163Y212658903D01*
X126129396Y234727315D02*
G75*
G03*
X125606831Y233915344I4472004J-3452215D01*
G01*
X39119642Y219968870D02*
X38600570Y219895654D01*
X135362507Y253296078D02*
X135480825Y253852634D01*
X8015458Y98370488D02*
X9009983Y98170870D01*
X166996798Y33128592D02*
X167069307Y33274000D01*
X12676073Y157099000D02*
X12616273Y156958905D01*
X158378119Y214429058D02*
G75*
G03*
X158112603Y214503000I-265519J-439758D01*
G01*
X24549829Y188064029D02*
X24337746Y187515226D01*
X129117824Y237887746D02*
G75*
G03*
X129219020Y238072759I-829424J573854D01*
G01*
X52629001Y247604032D02*
X51794040Y246400520D01*
X166674996Y32474982D02*
G75*
G03*
X166755326Y32626523I-1422696J851218D01*
G01*
X6503231Y98766162D02*
X7205461Y98562787D01*
X59372100Y237010366D02*
X59576654Y236977878D01*
X50662696Y3122141D02*
X51288472Y2996471D01*
X185703890Y169113306D02*
X185655469Y169347441D01*
X13474660Y158954689D02*
X13342296Y158649194D01*
X181842387Y72227342D02*
X181937117Y72586674D01*
X176274727Y194403658D02*
X175879453Y195200545D01*
X188481628Y108521500D02*
X188708772Y109455911D01*
X136854446Y278716959D02*
X136797693Y278878044D01*
X26763553Y376823D02*
X27112048Y445533D01*
X23322146Y184921637D02*
G75*
G03*
X23246884Y184669228I2680654J-936737D01*
G01*
X15556983Y92783584D02*
X17098796Y89760150D01*
X187296741Y161518791D02*
X187109288Y162210192D01*
X54563150Y249994470D02*
X53985633Y249364527D01*
X189810117Y116387508D02*
X189929386Y117769179D01*
X5809706Y137892398D02*
X5543311Y136708586D01*
X22631181Y64870215D02*
X22537191Y64165497D01*
X2145692Y118167114D02*
G75*
G03*
X2080000Y117944343I1059208J-433414D01*
G01*
X98374207Y5560450D02*
G75*
G03*
X98552000Y5615865I-400707J1598550D01*
G01*
X135677896Y281813000D02*
X135491094Y282210270D01*
X92182215Y296320188D02*
X91884500Y296235677D01*
X156148629Y215653676D02*
X154616552Y216408939D01*
X65879892Y229391182D02*
X67581703Y230202432D01*
X124305628Y231743779D02*
X124711731Y232410000D01*
X5116306Y99206805D02*
X5378847Y99143085D01*
X22684361Y65532000D02*
X22631181Y64870215D01*
X66013825Y262038683D02*
X65706842Y261689762D01*
X67591377Y222426544D02*
X66459617Y222382825D01*
X183752118Y177736500D02*
X183585175Y178218854D01*
X53691410Y2485186D02*
X53975000Y2423502D01*
X12746840Y157263278D02*
X12676073Y157099000D01*
X122999500Y228854000D02*
X123121086Y229104878D01*
X187545512Y104001936D02*
X187630979Y104488765D01*
X139959394Y17674884D02*
X140905923Y18001729D01*
X167069307Y33274000D02*
G75*
G03*
X167137234Y33427248I-1483407J749200D01*
G01*
X133938085Y284861299D02*
X133672324Y285242466D01*
X135111175Y252063572D02*
G75*
G03*
X135166303Y252188558I-793475J424628D01*
G01*
X48958500Y221602958D02*
X48043451Y221446110D01*
X189983375Y121825273D02*
X189971665Y123342814D01*
X22475231Y182616561D02*
X21964189Y181387750D01*
X54321698Y2353570D02*
X54804072Y2254392D01*
X31918612Y1420197D02*
X32119797Y1509661D01*
X56895586Y252783320D02*
X56404411Y252261992D01*
X168379070Y36813823D02*
X168601508Y37300013D01*
X177288053Y55932357D02*
X177377958Y56201895D01*
X17098796Y89760150D02*
X18598496Y86715335D01*
X185551095Y93119261D02*
X185660766Y93602616D01*
X27440042Y195907815D02*
X27097828Y195008500D01*
X181332844Y70624696D02*
G75*
G03*
X181282689Y70325780I3380556J-720896D01*
G01*
X187744008Y160043600D02*
X187552831Y160794323D01*
X135024004Y283210000D02*
X134915635Y283420525D01*
X132552439Y244365115D02*
G75*
G03*
X132579239Y244523583I-1049439J258985D01*
G01*
X34658504Y213639131D02*
X34498964Y213258264D01*
X20597252Y81823449D02*
X20900226Y80962500D01*
X149735480Y21719628D02*
X150050500Y21788587D01*
X18318836Y171644490D02*
X18098288Y171022275D01*
X117094000Y11856584D02*
X117420385Y11953033D01*
X136255066Y257394023D02*
G75*
G03*
X136277253Y257832767I-2939366J368577D01*
G01*
X29182155Y200338928D02*
X28992870Y199849835D01*
X66822251Y263005301D02*
X66573324Y262708169D01*
X18866799Y6363946D02*
X19491328Y5104702D01*
X15709317Y164493460D02*
X15563411Y164147500D01*
X661270Y108631140D02*
X602469Y108192888D01*
X28817150Y199390000D02*
X28613551Y198861309D01*
X364966Y105371707D02*
X362793Y104953271D01*
X119439792Y12790877D02*
X120538189Y13256737D01*
X177513523Y56627256D02*
X177538368Y56757415D01*
X136227257Y280496605D02*
X136057650Y280935113D01*
X92556806Y296419695D02*
X92182215Y296320188D01*
X102905004Y298666643D02*
X102579662Y298600285D01*
X13961246Y160135579D02*
X13820002Y159777113D01*
X182504080Y181461027D02*
X182168738Y182271129D01*
X65228241Y261184659D02*
X63813077Y259824974D01*
X113826131Y10671501D02*
X114319440Y10847796D01*
X122618500Y14088975D02*
X122928858Y14206675D01*
X55816500Y2042894D02*
X57984914Y1643802D01*
X54186348Y235132485D02*
X54469705Y235263120D01*
X184894303Y89633679D02*
X185034813Y90297000D01*
X4727564Y133268405D02*
G75*
G03*
X4613968Y132974112I1288436J-666405D01*
G01*
X45030946Y221013759D02*
X44330541Y220888780D01*
X134195417Y248569238D02*
G75*
G03*
X134239000Y248832117I-770917J262862D01*
G01*
X4613968Y132974112D02*
X4483062Y132432299D01*
X123301008Y229539959D02*
G75*
G03*
X123317000Y229630202I-246608J90241D01*
G01*
X184984376Y172845503D02*
X184838082Y173541928D01*
X60125854Y236894537D02*
G75*
G03*
X60014507Y236923269I-298954J-928437D01*
G01*
X20264707Y82719818D02*
X20597252Y81823449D01*
X130537124Y240198909D02*
G75*
G03*
X130480463Y240101674I518576J-367309D01*
G01*
X122703327Y228042566D02*
X122775266Y228303026D01*
X157756909Y214822081D02*
X156148629Y215653676D01*
X78609845Y287701483D02*
X78521278Y287420073D01*
X133198190Y16186675D02*
X133790928Y16315939D01*
X189484000Y113762470D02*
X189492208Y114000658D01*
X186534223Y98529737D02*
X186803308Y100071260D01*
X21455983Y59499496D02*
G75*
G03*
X21306369Y59206987I755017J-570696D01*
G01*
X151287442Y22039523D02*
X152211982Y22232828D01*
X28817773Y631814D02*
X29539143Y804716D01*
X93661031Y296688719D02*
X93281500Y296598184D01*
X19479071Y84626847D02*
X19604964Y84329780D01*
X88219951Y3478775D02*
X88455500Y3510900D01*
X137205335Y277721014D02*
X137090681Y277986510D01*
X5291596Y135569814D02*
X5082770Y134601907D01*
X167375277Y34252172D02*
X167473066Y34543476D01*
X54038500Y235063351D02*
X54186348Y235132485D01*
X111410109Y9837646D02*
X112585500Y10242579D01*
X83052867Y293436904D02*
G75*
G03*
X82642425Y293283418I569033J-2147204D01*
G01*
X176829637Y54576189D02*
X177088958Y55308500D01*
X60220516Y236857482D02*
G75*
G03*
X60125854Y236894538I-347816J-749082D01*
G01*
X18147509Y46642301D02*
X17988156Y46042714D01*
X165968768Y31464665D02*
X166062273Y31623242D01*
X71886724Y268997814D02*
G75*
G03*
X72543050Y269975539I-4608124J3802486D01*
G01*
X58469254Y254445684D02*
X57970893Y253911285D01*
X102191811Y298532402D02*
X101780287Y298471921D01*
X32119797Y1509661D02*
X32349358Y1633707D01*
X31798123Y1397004D02*
G75*
G03*
X31659657Y1381937I77J-644504D01*
G01*
X6241777Y140142918D02*
G75*
G03*
X6246529Y140398500I-1954577J164182D01*
G01*
X78687699Y288031276D02*
X78609845Y287701483D01*
X65706842Y261689762D02*
X65425416Y261382583D01*
X2286000Y99913055D02*
X2603978Y99824553D01*
X35792113Y3419449D02*
G75*
G03*
X35736971Y3391694I51087J-170149D01*
G01*
X70256694Y228172073D02*
G75*
G03*
X70346528Y228844511I-3911894J864827D01*
G01*
X181732906Y71877303D02*
X181842387Y72227342D01*
X57086502Y236337995D02*
G75*
G03*
X57456734Y236481256I-1347002J4031105D01*
G01*
X22791273Y66752155D02*
X22725120Y66111850D01*
X187722484Y104977960D02*
X187829585Y105476784D01*
X76558901Y278580598D02*
X76413834Y278170160D01*
X32850401Y1945447D02*
X33210700Y2124854D01*
X132777231Y245458323D02*
X133026115Y246029536D01*
X185925265Y167890414D02*
X185866280Y168308791D01*
X65024000Y1420349D02*
X66509821Y1463874D01*
X188296925Y107692031D02*
X188382043Y108104583D01*
X178266306Y58759134D02*
X178471287Y59291678D01*
X184029412Y86360000D02*
G75*
G03*
X183826965Y85620666I8059988J-2604400D01*
G01*
X27112048Y445533D02*
X27452671Y492912D01*
X2661547Y122174000D02*
X2523183Y120615855D01*
X1511345Y100162069D02*
X1736725Y100081991D01*
X177696210Y57348222D02*
X177861484Y57779419D01*
X99410441Y5862891D02*
X100178391Y6068493D01*
X127082153Y15347086D02*
X127448419Y15411674D01*
X171731410Y203008165D02*
G75*
G03*
X170680950Y204422147I-12240610J-7996465D01*
G01*
X57970893Y253911285D02*
X57420288Y253329306D01*
X21536304Y180323720D02*
X20790616Y178363907D01*
X56309190Y236210782D02*
G75*
G03*
X56150922Y236182647I101110J-1027982D01*
G01*
X164088747Y29251163D02*
X164591835Y29833699D01*
X92994361Y4207749D02*
X93475969Y4307890D01*
X1037138Y110426500D02*
X936676Y110083929D01*
X25462419Y190500000D02*
X25261010Y189977660D01*
X176171754Y53230428D02*
X176508099Y53852933D01*
X3161367Y125194245D02*
G75*
G03*
X3175000Y125409007I-1684667J214755D01*
G01*
X59850978Y227734515D02*
G75*
G03*
X59856554Y227110952I3264622J-282615D01*
G01*
X158027110Y214530970D02*
G75*
G03*
X158069897Y214510098I104890J160730D01*
G01*
X114008259Y298287552D02*
G75*
G03*
X113437744Y298324067I-563559J-4329852D01*
G01*
X122497151Y226965015D02*
X122567932Y227192656D01*
X76833318Y279463500D02*
X76706218Y279033252D01*
X44087060Y4427478D02*
X45780933Y4222974D01*
X129921000Y15682602D02*
X130572577Y15734769D01*
X115598098Y297986150D02*
X114757783Y298168126D01*
X93899974Y4410219D02*
G75*
G03*
X94170500Y4495964I-655074J2536381D01*
G01*
X30959299Y1209383D02*
X31339542Y1307685D01*
X5543311Y136708586D02*
X5291596Y135569814D01*
X155045578Y23290526D02*
X156266233Y23984985D01*
X51055045Y235321083D02*
G75*
G03*
X51308000Y235064944I1187455J919717D01*
G01*
X167473066Y34543476D02*
X167591746Y34854554D01*
X189492208Y114000658D02*
X189518659Y114314262D01*
X55327710Y2145605D02*
X55816500Y2042894D01*
X37247613Y219159409D02*
X37094001Y218931338D01*
X122731614Y222321618D02*
G75*
G03*
X123018988Y222203566I454786J698282D01*
G01*
X130921849Y241047857D02*
G75*
G03*
X130860007Y240826598I1377751J-504357D01*
G01*
X24698718Y188468000D02*
X24549829Y188064029D01*
X175194273Y51979494D02*
X175515832Y52417313D01*
X52815905Y221981705D02*
X51461979Y221940115D01*
X3365022Y99612651D02*
X3683000Y99524078D01*
X118618000Y12422038D02*
X119439792Y12790877D01*
X132141661Y243744750D02*
X132228719Y243927175D01*
X22476940Y76466985D02*
X22735035Y75311000D01*
X115062000Y11121085D02*
X115218702Y11170816D01*
X51155955Y245446351D02*
X50772100Y244835134D01*
X68507030Y222887304D02*
G75*
G03*
X68736582Y223521364I-1678330J966196D01*
G01*
X42357783Y220433991D02*
X41611153Y220286958D01*
X69019546Y1550984D02*
X69469000Y1576472D01*
X53882783Y235010020D02*
G75*
G03*
X54038500Y235063351I-159283J719080D01*
G01*
X34822236Y214100093D02*
X34743009Y213914189D01*
X109855001Y298655924D02*
G75*
G03*
X108787174Y298739072I-1255501J-9225324D01*
G01*
X123018987Y222203562D02*
G75*
G03*
X123547029Y222132490I781713J3810738D01*
G01*
X130370347Y239660011D02*
G75*
G03*
X130401020Y239724667I-294447J179289D01*
G01*
X136395599Y258380003D02*
G75*
G03*
X136445307Y258431345I-76499J123797D01*
G01*
X136445307Y258431345D02*
G75*
G03*
X136486987Y258522870I-464007J266555D01*
G01*
X147189247Y20727365D02*
X147536103Y20897266D01*
X157990731Y214561830D02*
G75*
G03*
X158027116Y214530980I141469J129970D01*
G01*
X107505500Y8384344D02*
X109142761Y9008757D01*
X34658504Y213639131D02*
G75*
G03*
X34671000Y213701700I-150404J62569D01*
G01*
X75947787Y276971870D02*
X75857546Y276688588D01*
X10092531Y151220529D02*
X9927582Y150819523D01*
X20065417Y4148058D02*
G75*
G03*
X20582460Y3489430I4831783J3260842D01*
G01*
X70063697Y227530752D02*
G75*
G03*
X70256702Y228172071I-4185897J1609448D01*
G01*
X25961057Y191837072D02*
X25682634Y191078929D01*
X180542351Y185809217D02*
X180123770Y186753500D01*
X9009983Y98170870D02*
X9749261Y98015902D01*
X19268201Y85153500D02*
X19359834Y84917977D01*
X24104016Y186926118D02*
X23882477Y186383728D01*
X51461979Y221940115D02*
X50403796Y221835266D01*
X51288472Y2996471D02*
X51864063Y2890391D01*
X189601989Y114945569D02*
X189810117Y116387508D01*
X178471287Y59291678D02*
X178645141Y59775366D01*
X185440698Y92584883D02*
X185551095Y93119261D01*
X53975000Y2423502D02*
X54321698Y2353570D01*
X175515832Y52417313D02*
X175873563Y52832000D01*
X189342857Y113003586D02*
G75*
G03*
X189397157Y113139094I-584157J312714D01*
G01*
X81656506Y292608001D02*
G75*
G03*
X80505134Y291539105I8617694J-10437201D01*
G01*
X77988656Y283330216D02*
X77913041Y283003051D01*
X179284412Y188595397D02*
X178882104Y189432543D01*
X21570973Y59831684D02*
X21501361Y59588630D01*
X116131702Y11544931D02*
X116451459Y11660489D01*
X56496947Y236219990D02*
G75*
G03*
X56761587Y236248542I53J1240210D01*
G01*
X130567027Y289386319D02*
X129208207Y290766500D01*
X189145929Y112162924D02*
X189211698Y112533516D01*
X174231312Y49973411D02*
X174381304Y50298154D01*
X97709137Y5412575D02*
X98066622Y5487538D01*
X136537661Y258903298D02*
X136580924Y259120198D01*
X25993627Y173241D02*
G75*
G03*
X26462214Y295348I-975427J4703359D01*
G01*
X76706218Y279033252D02*
X76558901Y278580598D01*
X82190179Y293015311D02*
X81656507Y292608000D01*
X122669196Y227679919D02*
G75*
G03*
X122682000Y227858189I-1234796J178281D01*
G01*
X10989469Y153203237D02*
X10784367Y152746104D01*
X12438674Y156527500D02*
X12371393Y156367526D01*
X25682634Y191078929D02*
X25462419Y190500000D01*
X123930734Y295241204D02*
X123240116Y295553357D01*
X182057047Y73211543D02*
X182134532Y73577847D01*
X25235545Y225397D02*
G75*
G03*
X25660742Y154022I674455J2715703D01*
G01*
X53985633Y249364527D02*
X53348866Y248576897D01*
X180286042Y65871212D02*
X180366443Y66244032D01*
X56150921Y236182651D02*
G75*
G03*
X56038258Y236142014I163779J-630551D01*
G01*
X170970435Y42737312D02*
X171221112Y43251438D01*
X11987060Y155517514D02*
X11757166Y155018246D01*
X33597477Y211203736D02*
X33051442Y209915060D01*
X70124794Y266764889D02*
X69740966Y266319000D01*
X2603978Y99824553D02*
X2984500Y99718613D01*
X116789458Y11770432D02*
X117094000Y11856584D01*
X131536872Y222020536D02*
X130882439Y221978024D01*
X15323289Y163604876D02*
X15049609Y162955261D01*
X1396998Y100215201D02*
G75*
G03*
X1511345Y100162069I389202J687999D01*
G01*
X78435905Y287254613D02*
G75*
G03*
X78521278Y287420073I-568305J397987D01*
G01*
X67314967Y263561648D02*
X67114964Y263344662D01*
X190429991Y142105664D02*
X190358062Y144208500D01*
X36136343Y217131824D02*
X35905869Y216501387D01*
X69101124Y225623618D02*
G75*
G03*
X69049906Y225555345I61676J-99618D01*
G01*
X101780287Y298471921D02*
X101292244Y298396430D01*
X128592140Y237365880D02*
G75*
G03*
X128776450Y237503091I-699440J1131920D01*
G01*
X6202716Y139778581D02*
X6141290Y139379115D01*
X19327191Y174483612D02*
X19169364Y174049074D01*
X17469931Y12703181D02*
X17687853Y9931399D01*
X183064439Y78059197D02*
X183354885Y80347283D01*
X479931Y107315000D02*
X428883Y106878696D01*
X134828302Y249633611D02*
G75*
G03*
X134916233Y249806547I-220402J220889D01*
G01*
X19627862Y175222309D02*
X19488954Y174899083D01*
X136543610Y279546173D02*
X136435623Y279864014D01*
X136715379Y259587660D02*
G75*
G03*
X136886869Y260202870I-4475079J1578940D01*
G01*
X7914565Y145893234D02*
X7826426Y145617897D01*
X164591835Y29833699D02*
X164967448Y30323231D01*
X165530379Y30982628D02*
G75*
G03*
X165405635Y30920997I258821J-680928D01*
G01*
X49379836Y240462581D02*
X49363652Y238696500D01*
X144279541Y220194828D02*
X143906981Y220272353D01*
X185482339Y170352390D02*
X185372154Y170943055D01*
X187376007Y103077854D02*
X187456531Y103510215D01*
X96429391Y297393085D02*
X95854372Y297256732D01*
X178057354Y58252502D02*
X178266306Y58759134D01*
X54828768Y250277505D02*
X54563150Y249994470D01*
X31324791Y205697013D02*
X30988703Y204923345D01*
X149142740Y21559029D02*
G75*
G03*
X148971000Y21494843I456360J-1482929D01*
G01*
X42989500Y220586205D02*
X42357783Y220433991D01*
X35175693Y3017349D02*
G75*
G03*
X35050390Y2919604I876607J-1252949D01*
G01*
X185703875Y169113303D02*
G75*
G03*
X185729147Y169050516I193725J41497D01*
G01*
X167137234Y33427248D02*
X167209011Y33628806D01*
X100178391Y6068493D02*
X101028500Y6289667D01*
X52950121Y2722635D02*
G75*
G03*
X52812754Y2759987I-477021J-1483035D01*
G01*
X152901762Y22383858D02*
X153352500Y22493374D01*
X174932740Y51554590D02*
G75*
G03*
X174758914Y51181000I2428960J-1357390D01*
G01*
X91884500Y296235677D02*
X91599822Y296153542D01*
X19239251Y50882848D02*
X19146104Y50415751D01*
X78232000Y285641226D02*
X78223483Y285101324D01*
X19855524Y53304393D02*
X19694947Y52761340D01*
X177187390Y55621627D02*
X177288053Y55932357D01*
X59765471Y236951886D02*
X59901711Y236938331D01*
X188990065Y110950399D02*
X189094539Y111773682D01*
X167715366Y35139386D02*
X167832425Y35401126D01*
X14539572Y161671000D02*
X14455656Y161448284D01*
X177435439Y56362226D02*
X177477771Y56488636D01*
X83397863Y2662208D02*
X84390804Y2790870D01*
X163288723Y211234985D02*
X162710457Y211634129D01*
X140905923Y18001729D02*
X141840073Y18338826D01*
X178855086Y60492048D02*
X179064050Y61221524D01*
X165405639Y30920990D02*
G75*
G03*
X165286996Y30833575I481761J-778090D01*
G01*
X148515957Y21303309D02*
X148798703Y21420685D01*
X36906904Y218681451D02*
X36716668Y218447867D01*
X144633923Y220109658D02*
X144279541Y220194828D01*
X102931137Y6792763D02*
X104162452Y7159047D01*
X18602014Y172402500D02*
X18508246Y172166739D01*
X18923734Y173298211D02*
X18798560Y172929874D01*
X8078752Y146303999D02*
G75*
G03*
X8004004Y146139057I1410448J-738599D01*
G01*
X48069500Y3633226D02*
X48568567Y3540336D01*
X124841000Y222056528D02*
X123547029Y222132490D01*
X14208104Y160788819D02*
X14086659Y160464500D01*
X135212752Y252342726D02*
G75*
G03*
X135244607Y252500499I-1672452J419774D01*
G01*
X9838711Y150362711D02*
X9194743Y148791371D01*
X77913041Y283003051D02*
X77845317Y282702000D01*
X35308615Y3099976D02*
G75*
G03*
X35175691Y3017352I691985J-1261476D01*
G01*
X7753266Y145351500D02*
X7543241Y144576868D01*
X137562902Y264596149D02*
X137689984Y265327316D01*
X187296740Y161518791D02*
G75*
G03*
X187447381Y161099500I3367660J973209D01*
G01*
X167273544Y33842616D02*
X167319702Y34036000D01*
X40259000Y220094180D02*
X39699135Y220038736D01*
X142685342Y220486045D02*
X140868626Y220868851D01*
X94605753Y4633122D02*
X94805035Y4678686D01*
X174381304Y50298154D02*
X174534627Y50642915D01*
X172339667Y45348144D02*
X172883573Y46485970D01*
X101028500Y6289667D02*
X102931137Y6792763D01*
X177861484Y57779419D02*
X178057354Y58252502D01*
X136886869Y260202870D02*
X137083842Y261237793D01*
X23127372Y184280654D02*
G75*
G03*
X23246884Y184669228I-3472372J1280646D01*
G01*
X89522979Y3659978D02*
X90537054Y3815603D01*
X153947720Y22717447D02*
X155045578Y23290526D01*
X130604208Y240271282D02*
G75*
G03*
X130677133Y240355328I-218808J263518D01*
G01*
X6141290Y139379115D02*
X6064134Y139001500D01*
X31798123Y1397006D02*
G75*
G03*
X31918612Y1420197I77J324194D01*
G01*
X146104199Y20111786D02*
X146439461Y20277159D01*
X136642501Y259359502D02*
X136715380Y259587659D01*
X13174251Y96062577D02*
G75*
G03*
X12239670Y96852071I-7878451J-8378377D01*
G01*
X49984439Y3261175D02*
X50662696Y3122141D01*
X165286994Y30833578D02*
G75*
G03*
X165191281Y30735075I536006J-616578D01*
G01*
X160305236Y26364757D02*
X161611021Y27175746D01*
X337832Y104515329D02*
X296019Y104119887D01*
X55589170Y251314362D02*
G75*
G03*
X55434815Y251077676I1095430J-883062D01*
G01*
X57981415Y222003939D02*
X56007000Y221993117D01*
X144907000Y220030162D02*
X144633923Y220109658D01*
X114763153Y11024940D02*
X114921928Y11078968D01*
X177567612Y56984800D02*
X177696210Y57348222D01*
X4341883Y131716055D02*
X4191580Y130810000D01*
X31871690Y207010000D02*
X31638253Y206436667D01*
X133790928Y16315939D02*
X134342260Y16430742D01*
X60720912Y234778866D02*
X60791911Y233534260D01*
X23674175Y185868386D02*
X23480274Y185360851D01*
X137971819Y266630107D02*
X138226428Y267769335D01*
X181332841Y70624697D02*
X181417003Y70973683D01*
X52667799Y2785557D02*
G75*
G03*
X52537669Y2794000I-130099J-998157D01*
G01*
X136486981Y258522872D02*
G75*
G03*
X136515434Y258635612I-640981J221728D01*
G01*
X187109288Y162210192D02*
X186938893Y162936218D01*
X11161721Y153598352D02*
G75*
G03*
X11176000Y153667295I-159321J68948D01*
G01*
X190259284Y132524500D02*
X190366477Y134424794D01*
X130441853Y239995941D02*
G75*
G03*
X130429000Y239898033I366747J-97941D01*
G01*
X70322783Y230691291D02*
G75*
G03*
X70202395Y230957433I-410283J-25291D01*
G01*
X187456531Y103510215D02*
X187545512Y104001936D01*
X130604193Y240271301D02*
G75*
G03*
X130537126Y240198908I241507J-291001D01*
G01*
X137922000Y221543698D02*
X136787564Y221809869D01*
X18852458Y49256042D02*
X18767242Y48993498D01*
X130751606Y240494395D02*
G75*
G03*
X130816246Y240659010I-1396606J643405D01*
G01*
X3115597Y124889967D02*
X3050198Y124557332D01*
X143573500Y220328970D02*
X142685342Y220486045D01*
X128121142Y221889786D02*
X124841000Y222056528D01*
X22175748Y77569930D02*
X22476940Y76466985D01*
X166426131Y32103218D02*
X166557908Y32289988D01*
X124125393Y14660192D02*
G75*
G03*
X123634500Y14483532I1336007J-4482792D01*
G01*
X59181599Y237045115D02*
G75*
G03*
X58912844Y237067111I-232799J-1191515D01*
G01*
X71639739Y268693286D02*
X71382286Y268365583D01*
X173932268Y49299564D02*
X174231312Y49973411D01*
X125167957Y233140326D02*
X125409536Y233555672D01*
X27727090Y507994D02*
G75*
G03*
X28246082Y538768I-90J4393206D01*
G01*
X122542053Y222528200D02*
G75*
G03*
X122731616Y222321621I497547J266300D01*
G01*
X167591746Y34854554D02*
X167715366Y35139386D01*
X19268205Y85153501D02*
G75*
G03*
X18598496Y86715335I-17432305J-6550401D01*
G01*
X132631790Y245027120D02*
G75*
G03*
X132588000Y244711602I1114810J-315520D01*
G01*
X169083758Y38338040D02*
X169283130Y38786017D01*
X12239670Y96852071D02*
G75*
G03*
X11335662Y97431260I-4136970J-5461971D01*
G01*
X4645669Y99293916D02*
X4889500Y99249737D01*
X157847393Y24978564D02*
X158301928Y25257232D01*
X136340740Y280162000D02*
X136227257Y280496605D01*
X130421965Y239807713D02*
G75*
G03*
X130429000Y239898033I-575865J90287D01*
G01*
X21935174Y61464031D02*
X21799467Y60868119D01*
X1838530Y115887979D02*
X1776408Y115274725D01*
X146304000Y219635787D02*
X145946141Y219729037D01*
X130480464Y240101674D02*
G75*
G03*
X130441862Y239995939I574836J-269774D01*
G01*
X70359810Y229775888D02*
X70346528Y228844511D01*
X22870780Y67355964D02*
X22791273Y66752155D01*
X114490500Y10917426D02*
X114610497Y10968042D01*
X121539000Y296206949D02*
X120286551Y296632183D01*
X40870324Y220165830D02*
X40259000Y220094180D01*
X6688624Y142354006D02*
X6459801Y141625488D01*
X181049215Y69064022D02*
X181196408Y69775625D01*
X75111763Y1896759D02*
X76829304Y2020014D01*
X185088020Y90596163D02*
X185168663Y91055031D01*
X185372154Y170943055D02*
X185244865Y171593564D01*
X3286291Y126364456D02*
X3201159Y125817558D01*
X115669736Y11346746D02*
X115887500Y11442579D01*
X189809198Y148263497D02*
X189745315Y148907500D01*
X3201162Y125817558D02*
G75*
G03*
X3175000Y125409007I3177038J-408558D01*
G01*
X114610497Y10968042D02*
X114763153Y11024940D01*
X129773049Y238978281D02*
X130150523Y239484289D01*
X183381895Y178838885D02*
X183177084Y179486842D01*
X51794040Y246400520D02*
X51155955Y245446351D01*
X166298984Y31944243D02*
X166426131Y32103218D01*
X132321473Y244081102D02*
G75*
G03*
X132228719Y243927175I1303527J-890402D01*
G01*
X19146104Y50415751D02*
X19039307Y49941468D01*
X181417003Y70973683D02*
X181519190Y71316426D01*
X189745315Y148907500D02*
X189533195Y151050172D01*
X60647827Y230930760D02*
X60374094Y230088117D01*
X35736982Y3391680D02*
G75*
G03*
X35700110Y3350431I83318J-111580D01*
G01*
X78549500Y2158697D02*
X79644150Y2255605D01*
X458092Y100667911D02*
G75*
G03*
X249827Y100746335I-898080J-2069218D01*
G01*
X176508099Y53852933D02*
X176829637Y54576189D01*
X53560663Y234944451D02*
X53882783Y235010020D01*
X135272490Y252828482D02*
X135362507Y253296078D01*
X12486850Y156647381D02*
X12438674Y156527500D01*
X19925887Y175943172D02*
X19847603Y175736393D01*
X134916237Y249806546D02*
G75*
G03*
X134887715Y250005824I-340437J52954D01*
G01*
X67875150Y1508962D02*
X69019546Y1550984D01*
X165865892Y31243488D02*
G75*
G03*
X165918262Y31346195I-283992J209512D01*
G01*
X63450090Y222208273D02*
X62293500Y222119352D01*
X181480152Y183753654D02*
X181019116Y184755498D01*
X134257912Y249047937D02*
G75*
G03*
X134239000Y248832117I1222188J-215837D01*
G01*
X183354885Y80347283D02*
X183513615Y82423000D01*
X125840224Y15123142D02*
X126428500Y15239152D01*
X153352500Y22493372D02*
G75*
G03*
X153947720Y22717447I-774200J2959128D01*
G01*
X130921844Y241047859D02*
X131063345Y241414541D01*
X122877966Y228587021D02*
X122999500Y228854000D01*
X152617764Y217216679D02*
X151924606Y217524063D01*
X22406892Y63445593D02*
X22244591Y62738000D01*
X19925892Y175943170D02*
G75*
G03*
X19939000Y176017182I-202492J74030D01*
G01*
X179570562Y62968374D02*
X179816704Y63828463D01*
X1340045Y111838116D02*
X1246434Y111300419D01*
X70465950Y1637294D02*
X71174372Y1675013D01*
X185603342Y169627276D02*
X185551394Y169943102D01*
X123383746Y229926398D02*
X123827559Y230835489D01*
X60392436Y226603848D02*
G75*
G03*
X61071740Y226594046I402364J4341152D01*
G01*
X148191874Y21170761D02*
X148515957Y21303309D01*
X185117760Y172212000D02*
X184984376Y172845503D01*
X137083842Y261237793D02*
X137284907Y262515177D01*
X150050500Y21788587D02*
X151287442Y22039523D01*
X22725120Y66111850D02*
X22684361Y65532000D01*
X124125391Y14660198D02*
X124974585Y14901524D01*
X29539143Y804716D02*
X30551006Y1092950D01*
X79021650Y289380309D02*
G75*
G03*
X78741683Y288367070I3301050J-1457409D01*
G01*
X56496947Y236219997D02*
G75*
G03*
X56309189Y236210790I-147J-1916097D01*
G01*
X59939729Y228351378D02*
G75*
G03*
X59850974Y227734515I5405571J-1092578D01*
G01*
X190067063Y146558000D02*
X189984501Y146978352D01*
X78116011Y283859736D02*
G75*
G03*
X78161009Y284118280I-1695411J428264D01*
G01*
X83812943Y293528884D02*
G75*
G03*
X84202659Y293633061I-599743J3024616D01*
G01*
X110877587Y298528175D02*
X109855000Y298655918D01*
X54469705Y235263120D02*
X54802923Y235416083D01*
X138226428Y267769335D02*
X138456200Y269154272D01*
X78435902Y287254615D02*
G75*
G03*
X78336782Y287045217I564598J-395415D01*
G01*
X117923879Y297386189D02*
G75*
G03*
X117475000Y297498318I-1276579J-4155889D01*
G01*
X161611021Y27175746D02*
X162746841Y27970366D01*
X71382286Y268365583D02*
X71150866Y268062268D01*
X134614504Y249468053D02*
G75*
G03*
X134428532Y249337579I739096J-1251253D01*
G01*
X77117945Y280404887D02*
X76962869Y279908140D01*
X189286661Y152892710D02*
X188969753Y154680952D01*
X792766Y100517833D02*
X1136439Y100353257D01*
X66459617Y222382825D02*
X64957952Y222302526D01*
X35673822Y3253565D02*
G75*
G03*
X35687000Y3302000I-82422J48435D01*
G01*
X166557908Y32289988D02*
X166675000Y32474980D01*
X166062273Y31623242D02*
X166177369Y31791331D01*
X21008874Y80660807D02*
X21159638Y80271541D01*
X17900018Y8826501D02*
G75*
G03*
X18299536Y7681201I13157682J3947499D01*
G01*
X127448419Y15411674D02*
X127762000Y15469745D01*
X18767242Y48993498D02*
X18652416Y48595133D01*
X51308004Y235064949D02*
G75*
G03*
X51604987Y234856312I1907796J2399951D01*
G01*
X116993194Y297608868D02*
X116710274Y297682567D01*
X18798560Y172929874D02*
X18683004Y172606305D01*
X128684338Y15587195D02*
X129310610Y15642313D01*
X135244602Y252500500D02*
G75*
G03*
X135255000Y252636521I-884202J136000D01*
G01*
X183585175Y178218854D02*
X183381895Y178838885D01*
X95854372Y297256732D02*
X95313500Y297116689D01*
X98767356Y5686017D02*
X99410441Y5862891D01*
X78275633Y286742822D02*
G75*
G03*
X78241721Y286305984I4508367J-569722D01*
G01*
X46799499Y3927054D02*
G75*
G03*
X46954586Y3873707I408801J936346D01*
G01*
X181843984Y182983577D02*
X181480152Y183753654D01*
X34604582Y2665770D02*
X34883864Y2804673D01*
X49250351Y3407630D02*
X49984439Y3261175D01*
X135480825Y253852634D02*
X135620982Y254454620D01*
X28613551Y198861309D02*
X28331078Y198142622D01*
X3999303Y129745581D02*
X3870095Y129104218D01*
X35515932Y3175002D02*
G75*
G03*
X35581302Y3184541I68J228298D01*
G01*
X164967448Y30323231D02*
G75*
G03*
X165137003Y30640656I-1091948J787269D01*
G01*
X23091004Y71360908D02*
X23103290Y69150094D01*
X11757166Y155018246D02*
X11534440Y154530255D01*
X156266233Y23984985D02*
X157416500Y24702872D01*
X7826426Y145617897D02*
X7753266Y145351500D01*
X16822672Y167599143D02*
X16608248Y167004762D01*
X36216890Y217704428D02*
G75*
G03*
X36195000Y217495491I986110J-208928D01*
G01*
X180461653Y66639933D02*
X180820899Y68087085D01*
X59181598Y237045111D02*
X59372100Y237010366D01*
X143108608Y18911111D02*
X143944490Y19274076D01*
X124391328Y294987355D02*
G75*
G03*
X123930734Y295241204I-2388528J-3789055D01*
G01*
X95158163Y4728184D02*
G75*
G03*
X95255319Y4763209I-226163J779616D01*
G01*
X100002141Y298145099D02*
X99414160Y298011414D01*
X117475000Y297498318D02*
X117264196Y297543279D01*
X123827559Y230835489D02*
X124305628Y231743779D01*
X132030571Y243495157D02*
X132141661Y243744750D01*
X20790616Y178363907D02*
X19968920Y176181760D01*
X154616552Y216408940D02*
G75*
G03*
X153660134Y216797269I-3809152J-8009640D01*
G01*
X99414160Y298011414D02*
X98846511Y297879463D01*
X2145692Y118167114D02*
G75*
G03*
X2266223Y118592376I-1825882J747216D01*
G01*
X22916703Y1294324D02*
X23124730Y1156029D01*
X241281Y103847706D02*
G75*
G03*
X183559Y103561147I2059819J-564006D01*
G01*
X136537658Y258903299D02*
G75*
G03*
X136525000Y258754028I874142J-149299D01*
G01*
X123383745Y229926398D02*
G75*
G03*
X123317000Y229630202I623855J-296198D01*
G01*
X704327Y108966000D02*
X661270Y108631140D01*
X114921928Y11078968D02*
X115062000Y11121085D01*
X122567932Y227192656D02*
X122627701Y227443502D01*
X136730496Y279046441D02*
X136648321Y279254642D01*
X34498964Y213258264D02*
X34309806Y212818493D01*
X18531088Y48147840D02*
X18420749Y47712694D01*
X90678000Y295908002D02*
X89702327Y295634163D01*
X57420288Y253329306D02*
X56895586Y252783320D01*
X134747000Y16508070D02*
X135784079Y16703820D01*
X131325541Y15826743D02*
X132060198Y15940935D01*
X75384072Y275482315D02*
X73990259Y272724766D01*
X64957952Y222302526D02*
X63450090Y222208273D01*
X137891981Y276016440D02*
X137205335Y277721014D01*
X15049609Y162955261D02*
X14777100Y162283554D01*
X4325541Y99363217D02*
X4645669Y99293916D01*
X57861795Y236676030D02*
X58337987Y236910821D01*
X37772817Y4476214D02*
X39720538Y4540408D01*
X128127205Y15526362D02*
X128684338Y15587195D01*
X182801185Y180678835D02*
X182504080Y181461027D01*
X151924606Y217524063D02*
X151257000Y217835978D01*
X53183779Y2624882D02*
X53416905Y2555629D01*
X169753121Y40083651D02*
X170049769Y40747878D01*
X4113927Y130351232D02*
X3999303Y129745581D01*
X71150866Y268062268D02*
X70992561Y267843000D01*
X88455500Y3510900D02*
X88891052Y3567251D01*
X127166400Y292778005D02*
X126181421Y293690023D01*
X12970849Y157785101D02*
X12852726Y157509766D01*
X97705796Y297640141D02*
X97328873Y297574618D01*
X134688386Y250447364D02*
X134799071Y251055151D01*
X185655469Y169347441D02*
X185603342Y169627276D01*
X186122234Y95794082D02*
X186367889Y97472500D01*
X1711561Y114708822D02*
X1654963Y114300000D01*
X70992561Y267843000D02*
X70815109Y267604287D01*
X55755183Y235888159D02*
X55971635Y236026374D01*
X166177369Y31791331D02*
X166298984Y31944243D01*
X133672324Y285242466D02*
X133437594Y285586190D01*
X37873847Y219732032D02*
G75*
G03*
X37639463Y219620034I269253J-864732D01*
G01*
X165654711Y31045873D02*
G75*
G03*
X165772148Y31138028I-464811J713227D01*
G01*
X137474962Y263969500D02*
X137562902Y264596149D01*
X138620500Y17335823D02*
X138886900Y17408361D01*
X97345500Y5346144D02*
X97709137Y5412575D01*
X92943499Y296517680D02*
X92556806Y296419695D01*
X52347220Y2809226D02*
G75*
G03*
X52537669Y2794000I190480J1183874D01*
G01*
X102579662Y298600285D02*
X102191811Y298532402D01*
X132060198Y15940935D02*
X132651500Y16061361D01*
X34309806Y212818493D02*
X34085345Y212313047D01*
X178882104Y189432543D02*
X178594155Y189992000D01*
X138627792Y270534049D02*
X138700567Y271653000D01*
X174670007Y50958433D02*
X174758914Y51181000D01*
X116710274Y297682567D02*
X116459000Y297753621D01*
X35430522Y3158176D02*
G75*
G03*
X35308614Y3099977I454578J-1108976D01*
G01*
X50403796Y221835266D02*
X48958500Y221602958D01*
X119028830Y297040921D02*
X117923878Y297386187D01*
X67581703Y230202432D02*
X68886714Y230735321D01*
X19041221Y173662796D02*
X18923734Y173298211D01*
X1136439Y100353257D02*
X1397000Y100215204D01*
X131063345Y241414541D02*
X131242305Y241833460D01*
X147536103Y20897266D02*
X147867770Y21040214D01*
X120286551Y296632183D02*
X119028830Y297040921D01*
X87631776Y3374214D02*
X87928847Y3430154D01*
X134428537Y249337573D02*
G75*
G03*
X134316546Y249206523I317463J-384673D01*
G01*
X35524205Y215610265D02*
X34916137Y214304153D01*
X111919213Y298420687D02*
X110877587Y298528175D01*
X6241775Y140142918D02*
X6202716Y139778581D01*
X186803308Y100071260D02*
X187090333Y101636909D01*
X16779137Y39533946D02*
X16624941Y36502521D01*
X183598166Y83905558D02*
X183693228Y84869251D01*
X185034813Y90297000D02*
X185088020Y90596163D01*
X180226043Y65556526D02*
G75*
G03*
X180213000Y65409807I818757J-146726D01*
G01*
X152211982Y22232828D02*
X152901762Y22383858D01*
X171772812Y44207767D02*
X172339667Y45348144D01*
X128960645Y237687462D02*
G75*
G03*
X129117823Y237887747I-1584445J1405238D01*
G01*
X838031Y109683153D02*
X755235Y109288242D01*
X23979594Y557289D02*
G75*
G03*
X24152207Y501880I596506J1561711D01*
G01*
X54804072Y2254392D02*
X55327710Y2145605D01*
X79644150Y2255605D02*
X80560202Y2345315D01*
X39699135Y220038736D02*
X39119642Y219968870D01*
X113236385Y10465208D02*
X113826131Y10671501D01*
X109142761Y9008757D02*
X110344673Y9456183D01*
X134020684Y248102286D02*
X134195422Y248569236D01*
X127762000Y15469745D02*
X128127205Y15526362D01*
X178645141Y59775366D02*
X178748415Y60109430D01*
X106214249Y298776314D02*
X103458552Y298794353D01*
X2080000Y117944343D02*
X2006734Y117510827D01*
X112585500Y10242579D02*
X113236385Y10465208D01*
X37639465Y219620030D02*
G75*
G03*
X37454775Y219450378I456235J-682030D01*
G01*
X181624870Y71595780D02*
X181732906Y71877303D01*
X53055972Y2678211D02*
G75*
G03*
X52950121Y2722635I-310372J-591211D01*
G01*
X123223734Y229340464D02*
X123301007Y229539959D01*
X35857115Y3429028D02*
G75*
G03*
X35932440Y3450988I85J139872D01*
G01*
X187090333Y101636909D02*
X187322088Y102806500D01*
X36281570Y217898748D02*
G75*
G03*
X36216888Y217704428I826530J-383048D01*
G01*
X34277832Y2528630D02*
X34604582Y2665770D01*
X22952153Y67813143D02*
X22870780Y67355964D01*
X122389591Y223084703D02*
X122347085Y224672907D01*
X71882000Y1709826D02*
X73446064Y1792223D01*
X118250969Y12261455D02*
X118618000Y12422038D01*
X21964189Y181387750D02*
X21536304Y180323720D01*
X78060748Y283634983D02*
X77988656Y283330216D01*
X70497840Y267211969D02*
X70124794Y266764889D01*
X35932447Y3450977D02*
G75*
G03*
X36018854Y3520293I-276447J433123D01*
G01*
X126129397Y234727314D02*
X127032216Y235831670D01*
X61071740Y226594046D02*
X61514059Y226633930D01*
X132466958Y244220980D02*
G75*
G03*
X132408246Y244194071I-58J-77380D01*
G01*
X123231275Y14323176D02*
X123490451Y14424589D01*
X130677137Y240355325D02*
G75*
G03*
X130751607Y240494394I-1119537J688975D01*
G01*
X185866280Y168308791D02*
X185808219Y168675008D01*
X189982446Y119429386D02*
X189983375Y121825273D01*
X137284907Y262515177D02*
X137474962Y263969500D01*
X22244591Y62738000D02*
X22090660Y62118314D01*
X16608248Y167004762D02*
X16389275Y166370000D01*
X134688393Y250447363D02*
G75*
G03*
X134736907Y250254919I249807J-39363D01*
G01*
X186688262Y164211519D02*
G75*
G03*
X186643005Y164312635I-390562J-114119D01*
G01*
X16624935Y36502521D02*
G75*
G03*
X16771733Y33909000I19730765J-184121D01*
G01*
X77765559Y282379779D02*
X77651808Y281984847D01*
X86296730Y294502449D02*
G75*
G03*
X85534500Y294196196I2756070J-7961249D01*
G01*
X188969753Y154680952D02*
X188543739Y156654500D01*
X47277337Y3795003D02*
X47661887Y3711397D01*
X122497147Y226965016D02*
G75*
G03*
X122362663Y226244627I2243753J-791616D01*
G01*
X128776449Y237503092D02*
G75*
G03*
X128960648Y237687459I-1456549J1639408D01*
G01*
X22968288Y73633806D02*
G75*
G03*
X22735035Y75311000I-14250888J-1127106D01*
G01*
X189893524Y147588684D02*
X189809198Y148263497D01*
X3161370Y125194245D02*
X3115597Y124889967D01*
X143944490Y19274076D02*
X144725624Y19589335D01*
X141840073Y18338825D02*
G75*
G03*
X142303500Y18535808I-1814973J4913575D01*
G01*
X75384068Y275482317D02*
G75*
G03*
X75857546Y276688588I-6812568J3370083D01*
G01*
X84720839Y293832824D02*
X84202659Y293633061D01*
X5378847Y99143085D02*
X5635189Y99070073D01*
X184031224Y176927659D02*
X183752118Y177736500D01*
X17410407Y169073581D02*
X17213946Y168555398D01*
X20137917Y54617614D02*
X19993948Y53882160D01*
X131851002Y243109949D02*
X132030571Y243495157D01*
X149419072Y21639118D02*
X149735480Y21719628D01*
X187829585Y105476784D02*
X187936198Y105918015D01*
X186524823Y164604066D02*
G75*
G03*
X186643005Y164312635I898377J194634D01*
G01*
X13684432Y159442535D02*
X13579207Y159194500D01*
X137957066Y17167202D02*
X138620500Y17335823D01*
X161236163Y212658903D02*
X159838328Y213539874D01*
X168038574Y36016067D02*
G75*
G03*
X168021000Y35926898I217426J-89167D01*
G01*
X55971619Y236026398D02*
G75*
G03*
X56007000Y236092840I-44619J66402D01*
G01*
X20321674Y55689500D02*
X20137917Y54617614D01*
X190366477Y134424794D02*
X190419979Y138264444D01*
X19488954Y174899083D02*
X19327191Y174483612D01*
X57456734Y236481256D02*
X57861795Y236676030D01*
X17988156Y46042714D02*
X17847510Y45529500D01*
X133026115Y246029536D02*
X133413500Y246810101D01*
X146876950Y20556972D02*
G75*
G03*
X146661270Y20416208I1132850J-1971372D01*
G01*
X23580705Y789812D02*
G75*
G03*
X23491005Y878766I-537405J-452212D01*
G01*
X95255322Y4763202D02*
G75*
G03*
X95319850Y4803917I-99822J229698D01*
G01*
X90537054Y3815603D02*
X92519500Y4125170D01*
X189518659Y114314262D02*
X189556798Y114645963D01*
X30143798Y202990375D02*
X29938342Y202470364D01*
X21799467Y60868119D02*
X21712641Y60452000D01*
X167832425Y35401126D02*
X167931220Y35642508D01*
X157416500Y24702872D02*
X157847393Y24978564D01*
X6459801Y141625488D02*
X6283695Y140886014D01*
X188869150Y110220276D02*
X188990065Y110950399D01*
X164000781Y210753613D02*
X163288723Y211234985D01*
X186367889Y97472500D02*
X186534223Y98529737D01*
X188234696Y107334272D02*
G75*
G03*
X188216489Y107124500I1479304J-234072D01*
G01*
X146439463Y20277156D02*
G75*
G03*
X146661270Y20416208I-815363J1547044D01*
G01*
X80505131Y291539108D02*
G75*
G03*
X79618806Y290450446I6249869J-5993408D01*
G01*
X121671783Y13720655D02*
X122618500Y14088975D01*
X15563411Y164147500D02*
X15323289Y163604876D01*
X13579207Y159194500D02*
X13474660Y158954689D01*
X78223483Y285101324D02*
X78197930Y284572482D01*
X123490451Y14424589D02*
X123634500Y14483532D01*
X126428500Y15239152D02*
X126721890Y15286023D01*
X144725624Y19589335D02*
X145355727Y19815130D01*
X14086659Y160464500D02*
X13961246Y160135579D01*
X21324354Y79864453D02*
X21478553Y79502000D01*
X36393092Y218085591D02*
G75*
G03*
X36281567Y217898749I837308J-626491D01*
G01*
X131398257Y288448619D02*
X130567027Y289386319D01*
X120538189Y13256737D02*
X121671783Y13720655D01*
X189533195Y151050172D02*
X189286661Y152892710D01*
X164880762Y210167308D02*
X164000781Y210753613D01*
X117420385Y11953033D02*
X117829806Y12097167D01*
X187322088Y102806500D02*
X187376007Y103077854D01*
X77845317Y282702000D02*
X77765559Y282379779D01*
X147867770Y21040214D02*
X148191874Y21170761D01*
X134342260Y16430742D02*
X134747000Y16508070D01*
X35515932Y3175003D02*
G75*
G03*
X35430523Y3158175I68J-225503D01*
G01*
X23124730Y1156029D02*
X23324108Y1011132D01*
X77273757Y280877498D02*
X77117945Y280404887D01*
X10784367Y152746104D02*
X10541000Y152221904D01*
X52768500Y234827383D02*
X53176111Y234880517D01*
X61473716Y222071839D02*
X59870578Y222032284D01*
X169260599Y206019245D02*
X167530735Y207794797D01*
X16771733Y33909000D02*
X16860907Y32780569D01*
X7300564Y143797722D02*
X7065582Y143123875D01*
X49363652Y238696500D02*
X50113576Y237057384D01*
X66573324Y262708169D02*
X66303205Y262382000D01*
X35700111Y3350430D02*
G75*
G03*
X35687000Y3302000I82889J-48430D01*
G01*
X115887500Y11442579D02*
X116131702Y11544931D01*
X153660134Y216797269D02*
X153241310Y216954105D01*
X36480998Y4142777D02*
G75*
G03*
X36168831Y3739783I698502J-863477D01*
G01*
X81643691Y2462607D02*
X83397863Y2662208D01*
X29854743Y202202491D02*
X29793585Y201980440D01*
X117264196Y297543279D02*
X116993194Y297608868D01*
X7543241Y144576868D02*
X7300564Y143797722D01*
X184575097Y88356757D02*
X184894303Y89633679D01*
X133437594Y285586190D02*
X132188032Y287404624D01*
X130333745Y239627845D02*
G75*
G03*
X130370353Y239660007I-33245J74755D01*
G01*
X48043451Y221446110D02*
X47079297Y221293292D01*
X189442541Y113335290D02*
X189473635Y113553546D01*
X122421184Y295885118D02*
X121539000Y296206949D01*
X61666977Y257709641D02*
X59513901Y255567308D01*
X61956197Y226793533D02*
G75*
G03*
X62113422Y226956099I-543097J682567D01*
G01*
X37454773Y219450380D02*
G75*
G03*
X37247613Y219159409I2508627J-2005280D01*
G01*
X68145497Y222556694D02*
G75*
G03*
X68507025Y222887307I-339397J734106D01*
G01*
X138634232Y273001763D02*
G75*
G03*
X138365859Y274450198I-12522032J-1571063D01*
G01*
X16162699Y165715652D02*
X15925443Y165062297D01*
X173079675Y47001765D02*
X173289134Y47640761D01*
X39720538Y4540408D02*
X42019299Y4540772D01*
X27737679Y196659500D02*
X27440042Y195907815D01*
X165968777Y31464660D02*
G75*
G03*
X165918262Y31346195I592523J-322660D01*
G01*
X175879453Y195200545D02*
X174180969Y198668589D01*
X23127373Y184280654D02*
X22855604Y183565132D01*
X30680672Y204234491D02*
X30399303Y203599832D01*
X602469Y108192888D02*
X538858Y107730736D01*
X20900226Y80962500D02*
X21008874Y80660807D01*
X18420749Y47712694D02*
X18300501Y47232184D01*
X182695500Y75895775D02*
X183064439Y78059197D01*
X23882477Y186383728D02*
X23674175Y185868386D01*
X136648321Y279254642D02*
X136543610Y279546173D01*
X1246434Y111300419D02*
X1140044Y110798815D01*
X139044385Y221269881D02*
X137922000Y221543698D01*
X177567612Y56984800D02*
G75*
G03*
X177546000Y56854798I380188J-130000D01*
G01*
X189984501Y146978352D02*
X189893524Y147588684D01*
X60460156Y236493669D02*
G75*
G03*
X60278282Y236817097I-668856J-163269D01*
G01*
X4984540Y134164362D02*
X4882226Y133757434D01*
X17196245Y42654993D02*
X16779137Y39533946D01*
X98846511Y297879463D02*
X98248893Y297749942D01*
X136307454Y258186267D02*
G75*
G03*
X136282507Y258017526I1261146J-272667D01*
G01*
X2392202Y119449244D02*
X2266223Y118592376D01*
X76829304Y2020014D02*
X78549500Y2158697D01*
X12616273Y156958905D02*
X12549801Y156800153D01*
X21840159Y78591474D02*
X22175748Y77569930D01*
X10842114Y97667436D02*
G75*
G03*
X10335024Y97855174I-2262914J-5333536D01*
G01*
X21306369Y59206987D02*
X20874875Y57780871D01*
X60278293Y236817108D02*
G75*
G03*
X60220517Y236857484I-142793J-142808D01*
G01*
X4889500Y99249737D02*
X5116306Y99206805D01*
X17687849Y9931399D02*
G75*
G03*
X17900015Y8826500I5514551J486101D01*
G01*
X38600570Y219895654D02*
X38252909Y219831834D01*
X135981493Y255970914D02*
X136164264Y256825222D01*
X21159638Y80271541D02*
X21324354Y79864453D01*
X134193882Y284500733D02*
X133938085Y284861299D01*
X188031249Y158849762D02*
X187744008Y160043600D01*
X135491094Y282210270D02*
X135300772Y282616275D01*
X134394195Y284226000D02*
X134193882Y284500733D01*
X76962869Y279908140D02*
X76833318Y279463500D01*
X71886722Y268997816D02*
X71639739Y268693286D01*
X11534440Y154530255D02*
X11346718Y154103612D01*
X19718006Y84074000D02*
X19951035Y83526123D01*
X17189260Y19113500D02*
X17290112Y15892851D01*
X83455240Y293491687D02*
G75*
G03*
X83052868Y293436901I19160J-1645687D01*
G01*
X63933743Y228408886D02*
G75*
G03*
X63114980Y227936367I4264157J-8334386D01*
G01*
X94192725Y296822498D02*
X93661031Y296688719D01*
X168038578Y36016065D02*
X168191524Y36383310D01*
X69469000Y1576472D02*
X69847037Y1601866D01*
X131242305Y241833460D02*
X131439014Y242252500D01*
X31339542Y1307685D02*
X31659657Y1381937D01*
X20874875Y57780871D02*
X20482447Y56417244D01*
X185551394Y169943102D02*
X185482339Y170352390D01*
X21430932Y2598850D02*
X22311190Y1757516D01*
X76297571Y277884601D02*
X76187465Y277623441D01*
X69101128Y225623611D02*
G75*
G03*
X69316118Y225858734I-307028J496589D01*
G01*
X9194743Y148791371D02*
X8552188Y147287995D01*
X105426610Y7598432D02*
X107505500Y8384344D01*
X91599822Y296153542D02*
X91268153Y296061891D01*
X68886714Y230735321D02*
X69861001Y231046722D01*
X181624869Y71595781D02*
G75*
G03*
X181519190Y71316426I3024931J-1303981D01*
G01*
X4727561Y133268407D02*
G75*
G03*
X4787510Y133418188I-743561J384493D01*
G01*
X57984914Y1643803D02*
G75*
G03*
X59827871Y1437313I3262886J20794197D01*
G01*
X133286500Y222059500D02*
X132348817Y222049904D01*
X110344673Y9456183D02*
X111410109Y9837646D01*
X55306634Y250869871D02*
G75*
G03*
X55434815Y251077676I-1310234J951629D01*
G01*
X185168663Y91055031D02*
X185258875Y91571170D01*
X17111530Y168325063D02*
G75*
G03*
X17010378Y168097131I2197370J-1111563D01*
G01*
X29699539Y201688972D02*
X29591387Y201381492D01*
X184838082Y173541928D02*
X184700825Y174196646D01*
X96005780Y5064213D02*
X96618971Y5209526D01*
X23666823Y714050D02*
G75*
G03*
X23810132Y632114I849177J1318950D01*
G01*
X63114981Y227936365D02*
G75*
G03*
X62601372Y227521373I1699319J-2628465D01*
G01*
X93628Y102580434D02*
X75221Y102061682D01*
X171523885Y43814999D02*
G75*
G03*
X171437347Y43679259I678315J-527899D01*
G01*
X189094539Y111773682D02*
X189145929Y112162924D01*
X19039307Y49941468D02*
X18934609Y49523304D01*
X1404635Y112331500D02*
X1340045Y111838116D01*
X185749609Y93935696D02*
X185881175Y94436640D01*
X188234693Y107334273D02*
X188296925Y107692031D01*
X34681231Y213757319D02*
G75*
G03*
X34671000Y213701700I146069J-55619D01*
G01*
X50430746Y244230218D02*
X49955257Y243320081D01*
X94938850Y4693434D02*
G75*
G03*
X94805035Y4678686I16350J-762834D01*
G01*
X91268153Y296061891D02*
X90942464Y295974984D01*
X56038251Y236142029D02*
G75*
G03*
X56007000Y236092840I23149J-49229D01*
G01*
X69049906Y225555345D02*
X68991386Y225319724D01*
X59827871Y1437313D02*
X61926037Y1370924D01*
X18299536Y7681201D02*
X18866799Y6363946D01*
X20482452Y56417243D02*
G75*
G03*
X20321674Y55689500I6698648J-1861543D01*
G01*
X538858Y107730736D02*
X479931Y107315000D01*
X17111531Y168325062D02*
G75*
G03*
X17213946Y168555398I-2251531J1139038D01*
G01*
X169397571Y39080632D02*
X169486679Y39370000D01*
X98248893Y297749942D02*
X97705796Y297640141D01*
X186087986Y166823521D02*
X185925265Y167890414D01*
X114757783Y298168126D02*
X114008259Y298287555D01*
X143906981Y220272353D02*
X143573500Y220328970D01*
X56404411Y252261992D02*
X55954673Y251754212D01*
X163476521Y28605219D02*
X164088747Y29251163D01*
X19968926Y176181758D02*
G75*
G03*
X19939000Y176017182I437474J-164558D01*
G01*
X28331078Y198142622D02*
X28024132Y197370654D01*
X9838718Y150362708D02*
G75*
G03*
X9906000Y150708284I-853918J345592D01*
G01*
X2887521Y123870286D02*
X2797936Y123332116D01*
X179311424Y62078125D02*
X179570562Y62968374D01*
X46954586Y3873707D02*
X47277337Y3795003D01*
X94170500Y4495964D02*
X94384090Y4569828D01*
X167931220Y35642508D02*
X168007014Y35846068D01*
X31638253Y206436667D02*
X31324791Y205697013D01*
M02*
