M48
; DRILL file {KiCad (6.0.9-0)} date Saturday, January 14, 2023 at 11:07:59 AM
; FORMAT={-:-/ absolute / inch / decimal}
; #@! TF.CreationDate,2023-01-14T11:07:59-05:00
; #@! TF.GenerationSoftware,Kicad,Pcbnew,(6.0.9-0)
; #@! TF.FileFunction,Plated,1,2,PTH
FMAT,2
INCH
; #@! TA.AperFunction,Plated,PTH,ComponentDrill
T1C0.0118
; #@! TA.AperFunction,Plated,PTH,ViaDrill
T2C0.0157
; #@! TA.AperFunction,Plated,PTH,ComponentDrill
T3C0.0236
; #@! TA.AperFunction,Plated,PTH,ComponentDrill
T4C0.0295
; #@! TA.AperFunction,Plated,PTH,ComponentDrill
T5C0.0300
; #@! TA.AperFunction,Plated,PTH,ComponentDrill
T6C0.0315
; #@! TA.AperFunction,Plated,PTH,ComponentDrill
T7C0.0335
; #@! TA.AperFunction,Plated,PTH,ComponentDrill
T8C0.0354
; #@! TA.AperFunction,Plated,PTH,ComponentDrill
T9C0.0394
%
G90
G05
T1
X6.6209Y2.0982
X6.6209Y2.0392
X6.6406Y2.0687
X6.6603Y2.0982
X6.6603Y2.0392
T2
X2.6822Y6.1793
X3.3593Y6.9829
X3.747Y7.2821
X4.3448Y7.3253
X5.5475Y4.3161
X5.6574Y5.4055
X5.736Y5.0526
X5.8288Y4.5184
X5.8435Y4.6729
X5.8601Y4.7719
X5.89Y4.98
X5.89Y1.83
X5.9145Y4.512
X5.99Y1.83
X6.0145Y4.6613
X6.0249Y1.6072
X6.03Y4.98
X6.0434Y4.7693
X6.0635Y4.4256
X6.0878Y4.5225
X6.1385Y4.2513
X6.1727Y4.4729
X6.2793Y4.6084
X6.42Y4.55
X6.4853Y5.3807
X6.53Y2.11
X6.7068Y2.1559
X6.74Y2.3
X6.76Y2.05
X6.8848Y5.2351
X6.9542Y5.2305
T4
X6.1906Y1.3865
X6.2694Y1.3865
T5
X5.75Y3.44
X5.75Y3.34
X5.75Y3.24
X5.75Y3.14
X5.75Y3.04
X5.75Y2.94
X5.75Y2.84
X5.75Y2.74
X6.45Y3.44
X6.45Y3.34
X6.45Y3.24
X6.45Y3.14
X6.45Y3.04
X6.45Y2.94
X6.45Y2.84
X6.45Y2.74
T6
X5.57Y2.9092
X5.57Y2.8092
T7
X5.8009Y1.0963
X5.9978Y1.0963
T8
X2.0548Y6.13
X2.1048Y6.13
X2.1548Y6.13
X2.2048Y6.13
X2.4048Y7.03
X2.4548Y7.03
X2.5048Y7.03
X2.5548Y7.03
X2.7648Y6.16
X2.8148Y6.16
X2.8648Y6.16
X2.9148Y6.16
X3.0748Y7.11
X3.1248Y7.11
X3.1748Y7.11
X3.2248Y7.11
X3.3748Y6.17
X3.4248Y6.17
X3.4748Y6.17
X3.5248Y6.17
X3.6648Y7.15
X3.7148Y7.15
X3.7648Y7.15
X3.8148Y7.15
X3.9548Y6.32
X4.0048Y6.32
X4.0548Y6.32
X4.1048Y6.32
X4.2948Y7.24
X4.3448Y7.24
X4.3948Y7.24
X4.4448Y7.24
X4.5648Y6.39
X4.6148Y6.39
X4.6648Y6.39
X4.7148Y6.39
X5.01Y6.42
X5.06Y6.42
X5.11Y6.42
X5.16Y6.42
T9
X5.84Y3.66
X5.94Y3.66
X6.04Y3.66
X6.14Y3.66
X6.24Y3.66
X6.34Y3.66
T3
G00X5.7616Y0.9762
M15
G01X5.7616Y1.0038
M16
G05
G00X6.0372Y1.0038
M15
G01X6.0372Y0.9762
M16
G05
T0
M30
