%TF.GenerationSoftware,KiCad,Pcbnew,(6.0.9-0)*%
%TF.CreationDate,2023-03-17T16:46:55-04:00*%
%TF.ProjectId,JF-PimpleClock,4a462d50-696d-4706-9c65-436c6f636b2e,rev?*%
%TF.SameCoordinates,Original*%
%TF.FileFunction,Paste,Top*%
%TF.FilePolarity,Positive*%
%FSLAX46Y46*%
G04 Gerber Fmt 4.6, Leading zero omitted, Abs format (unit mm)*
G04 Created by KiCad (PCBNEW (6.0.9-0)) date 2023-03-17 16:46:55*
%MOMM*%
%LPD*%
G01*
G04 APERTURE LIST*
G04 Aperture macros list*
%AMRoundRect*
0 Rectangle with rounded corners*
0 $1 Rounding radius*
0 $2 $3 $4 $5 $6 $7 $8 $9 X,Y pos of 4 corners*
0 Add a 4 corners polygon primitive as box body*
4,1,4,$2,$3,$4,$5,$6,$7,$8,$9,$2,$3,0*
0 Add four circle primitives for the rounded corners*
1,1,$1+$1,$2,$3*
1,1,$1+$1,$4,$5*
1,1,$1+$1,$6,$7*
1,1,$1+$1,$8,$9*
0 Add four rect primitives between the rounded corners*
20,1,$1+$1,$2,$3,$4,$5,0*
20,1,$1+$1,$4,$5,$6,$7,0*
20,1,$1+$1,$6,$7,$8,$9,0*
20,1,$1+$1,$8,$9,$2,$3,0*%
G04 Aperture macros list end*
%ADD10RoundRect,0.250000X0.262500X0.450000X-0.262500X0.450000X-0.262500X-0.450000X0.262500X-0.450000X0*%
%ADD11RoundRect,0.250000X0.450000X-0.262500X0.450000X0.262500X-0.450000X0.262500X-0.450000X-0.262500X0*%
%ADD12RoundRect,0.250000X-0.475000X0.250000X-0.475000X-0.250000X0.475000X-0.250000X0.475000X0.250000X0*%
%ADD13RoundRect,0.250000X0.475000X-0.250000X0.475000X0.250000X-0.475000X0.250000X-0.475000X-0.250000X0*%
%ADD14O,0.800000X0.230000*%
%ADD15R,0.230000X0.230000*%
%ADD16R,0.680000X1.050000*%
%ADD17R,0.260000X0.500000*%
%ADD18RoundRect,0.250000X-0.250000X-0.475000X0.250000X-0.475000X0.250000X0.475000X-0.250000X0.475000X0*%
%ADD19R,0.400000X1.350000*%
%ADD20R,1.500000X1.900000*%
%ADD21RoundRect,0.150000X-0.875000X-0.150000X0.875000X-0.150000X0.875000X0.150000X-0.875000X0.150000X0*%
%ADD22RoundRect,0.250000X0.250000X0.475000X-0.250000X0.475000X-0.250000X-0.475000X0.250000X-0.475000X0*%
%ADD23R,1.600000X0.550000*%
%ADD24R,0.550000X1.600000*%
%ADD25RoundRect,0.250000X-0.262500X-0.450000X0.262500X-0.450000X0.262500X0.450000X-0.262500X0.450000X0*%
%ADD26RoundRect,0.218750X0.256250X-0.218750X0.256250X0.218750X-0.256250X0.218750X-0.256250X-0.218750X0*%
%ADD27RoundRect,0.150000X0.512500X0.150000X-0.512500X0.150000X-0.512500X-0.150000X0.512500X-0.150000X0*%
%ADD28R,2.500000X1.800000*%
%ADD29RoundRect,0.150000X-0.150000X0.587500X-0.150000X-0.587500X0.150000X-0.587500X0.150000X0.587500X0*%
%ADD30R,4.500000X2.000000*%
G04 APERTURE END LIST*
D10*
%TO.C,R3*%
X146338000Y52037500D03*
X144513000Y52037500D03*
%TD*%
D11*
%TO.C,R10*%
X168672000Y62197500D03*
X168672000Y64022500D03*
%TD*%
D12*
%TO.C,C19*%
X153416000Y115946000D03*
X153416000Y114046000D03*
%TD*%
D13*
%TO.C,C18*%
X153162000Y123190000D03*
X153162000Y125090000D03*
%TD*%
D14*
%TO.C,U5*%
X167197000Y53545500D03*
D15*
X166912000Y53545500D03*
X166912000Y53045500D03*
D14*
X167197000Y53045500D03*
X167197000Y52545500D03*
D15*
X166912000Y52545500D03*
D14*
X167197000Y52045500D03*
D15*
X166912000Y52045500D03*
X166912000Y51545500D03*
D14*
X167197000Y51545500D03*
X170147000Y51545500D03*
D15*
X170432000Y51545500D03*
D14*
X170147000Y52045500D03*
D15*
X170432000Y52045500D03*
X170432000Y52545500D03*
D14*
X170147000Y52545500D03*
D15*
X170432000Y53045500D03*
D14*
X170147000Y53045500D03*
D15*
X170432000Y53545500D03*
D14*
X170147000Y53545500D03*
D16*
X169122000Y51910500D03*
X168222000Y51910500D03*
D17*
X168922000Y54175500D03*
X168422000Y50915500D03*
D16*
X169122000Y53180500D03*
X168222000Y53180500D03*
D17*
X168922000Y50915500D03*
X168422000Y54175500D03*
%TD*%
D10*
%TO.C,R5*%
X150010500Y113030000D03*
X148185500Y113030000D03*
%TD*%
%TO.C,R2*%
X159004000Y136652000D03*
X157179000Y136652000D03*
%TD*%
D18*
%TO.C,C13*%
X109982000Y190246000D03*
X111882000Y190246000D03*
%TD*%
D19*
%TO.C,J4*%
X148544000Y27846000D03*
X149194000Y27846000D03*
X149844000Y27846000D03*
X150494000Y27846000D03*
X151144000Y27846000D03*
D20*
X150844000Y25146000D03*
X148844000Y25146000D03*
%TD*%
D21*
%TO.C,U2*%
X145464000Y138303000D03*
X145464000Y137033000D03*
X145464000Y135763000D03*
X145464000Y134493000D03*
X145464000Y133223000D03*
X145464000Y131953000D03*
X145464000Y130683000D03*
X145464000Y129413000D03*
X154764000Y129413000D03*
X154764000Y130683000D03*
X154764000Y131953000D03*
X154764000Y133223000D03*
X154764000Y134493000D03*
X154764000Y135763000D03*
X154764000Y137033000D03*
X154764000Y138303000D03*
%TD*%
D22*
%TO.C,C16*%
X165050000Y60673500D03*
X163150000Y60673500D03*
%TD*%
D18*
%TO.C,C12*%
X116840000Y167640000D03*
X118740000Y167640000D03*
%TD*%
%TO.C,C9*%
X101092000Y165862000D03*
X102992000Y165862000D03*
%TD*%
D13*
%TO.C,C17*%
X165116000Y54963500D03*
X165116000Y56863500D03*
%TD*%
D23*
%TO.C,U6*%
X165168000Y119132000D03*
X165168000Y118332000D03*
X165168000Y117532000D03*
X165168000Y116732000D03*
X165168000Y115932000D03*
X165168000Y115132000D03*
X165168000Y114332000D03*
X165168000Y113532000D03*
D24*
X166618000Y112082000D03*
X167418000Y112082000D03*
X168218000Y112082000D03*
X169018000Y112082000D03*
X169818000Y112082000D03*
X170618000Y112082000D03*
X171418000Y112082000D03*
X172218000Y112082000D03*
D23*
X173668000Y113532000D03*
X173668000Y114332000D03*
X173668000Y115132000D03*
X173668000Y115932000D03*
X173668000Y116732000D03*
X173668000Y117532000D03*
X173668000Y118332000D03*
X173668000Y119132000D03*
D24*
X172218000Y120582000D03*
X171418000Y120582000D03*
X170618000Y120582000D03*
X169818000Y120582000D03*
X169018000Y120582000D03*
X168218000Y120582000D03*
X167418000Y120582000D03*
X166618000Y120582000D03*
%TD*%
D18*
%TO.C,C10*%
X78806000Y185928000D03*
X80706000Y185928000D03*
%TD*%
%TO.C,C6*%
X71440000Y162560000D03*
X73340000Y162560000D03*
%TD*%
D25*
%TO.C,R9*%
X167759500Y58387500D03*
X169584500Y58387500D03*
%TD*%
D18*
%TO.C,C11*%
X93726000Y187198000D03*
X95626000Y187198000D03*
%TD*%
D10*
%TO.C,R6*%
X142136500Y82042000D03*
X140311500Y82042000D03*
%TD*%
D26*
%TO.C,L1*%
X164608000Y51250000D03*
X164608000Y52825000D03*
%TD*%
D12*
%TO.C,C15*%
X153807500Y54003500D03*
X153807500Y52103500D03*
%TD*%
D10*
%TO.C,R1*%
X159004000Y138938000D03*
X157179000Y138938000D03*
%TD*%
D18*
%TO.C,C5*%
X52832000Y161036000D03*
X54732000Y161036000D03*
%TD*%
D27*
%TO.C,U4*%
X150505500Y52611500D03*
X150505500Y53561500D03*
X150505500Y54511500D03*
X148230500Y54511500D03*
X148230500Y52611500D03*
%TD*%
D18*
%TO.C,C8*%
X86934000Y162560000D03*
X88834000Y162560000D03*
%TD*%
D13*
%TO.C,C2*%
X148082000Y123322000D03*
X148082000Y125222000D03*
%TD*%
D18*
%TO.C,C14*%
X128270000Y168656000D03*
X130170000Y168656000D03*
%TD*%
%TO.C,C7*%
X61722000Y184404000D03*
X63622000Y184404000D03*
%TD*%
D28*
%TO.C,D1*%
X153464000Y42385500D03*
X157464000Y42385500D03*
%TD*%
D25*
%TO.C,R8*%
X148051000Y59149500D03*
X149876000Y59149500D03*
%TD*%
D29*
%TO.C,Q1*%
X160478000Y51451000D03*
X158578000Y51451000D03*
X159528000Y49576000D03*
%TD*%
D18*
%TO.C,C3*%
X150180000Y98298000D03*
X152080000Y98298000D03*
%TD*%
D10*
%TO.C,R7*%
X142033000Y84836000D03*
X140208000Y84836000D03*
%TD*%
D22*
%TO.C,C1*%
X155210000Y47973500D03*
X153310000Y47973500D03*
%TD*%
%TO.C,C4*%
X159380000Y98298000D03*
X157480000Y98298000D03*
%TD*%
D30*
%TO.C,Y1*%
X158174000Y103124000D03*
X149674000Y103124000D03*
%TD*%
D10*
%TO.C,R4*%
X150114000Y117094000D03*
X148289000Y117094000D03*
%TD*%
M02*
