M48
; DRILL file {KiCad (6.0.9-0)} date Friday, January 13, 2023 at 01:16:21 AM
; FORMAT={-:-/ absolute / inch / decimal}
; #@! TF.CreationDate,2023-01-13T01:16:21-05:00
; #@! TF.GenerationSoftware,Kicad,Pcbnew,(6.0.9-0)
; #@! TF.FileFunction,Plated,1,2,PTH
FMAT,2
INCH
; #@! TA.AperFunction,Plated,PTH,ComponentDrill
T1C0.0118
; #@! TA.AperFunction,Plated,PTH,ViaDrill
T2C0.0157
; #@! TA.AperFunction,Plated,PTH,ComponentDrill
T3C0.0236
; #@! TA.AperFunction,Plated,PTH,ComponentDrill
T4C0.0300
; #@! TA.AperFunction,Plated,PTH,ComponentDrill
T5C0.0315
; #@! TA.AperFunction,Plated,PTH,ComponentDrill
T6C0.0335
; #@! TA.AperFunction,Plated,PTH,ComponentDrill
T7C0.0394
%
G90
G05
T1
X5.3003Y1.2695
X5.3003Y1.2105
X5.32Y1.24
X5.3397Y1.2695
X5.3397Y1.2105
T2
X2.084Y5.9098
X2.1207Y3.5176
X2.5482Y7.2663
X2.7641Y2.3078
X3.3366Y7.32
X3.5156Y7.0674
X4.0897Y1.7003
X4.2026Y1.8484
X4.2417Y1.5346
X4.3306Y2.2952
X4.396Y6.5697
X4.9009Y1.4784
X5.0455Y1.1517
X5.1399Y1.4464
X5.4186Y1.2307
X5.7885Y2.7077
X6.6091Y2.9976
X6.9469Y4.1513
T4
X3.01Y1.2892
X3.01Y1.1892
X3.01Y1.0892
X3.01Y0.9892
X3.01Y0.8892
X3.01Y0.7892
X3.01Y0.6892
X3.01Y0.5892
X3.71Y1.2892
X3.71Y1.1892
X3.71Y1.0892
X3.71Y0.9892
X3.71Y0.8892
X3.71Y0.7892
X3.71Y0.6892
X3.71Y0.5892
T5
X2.79Y0.7792
X2.79Y0.6792
X4.7904Y3.3096
X4.7904Y3.2096
X4.7904Y3.1096
X4.7904Y3.0096
X4.7904Y2.9096
X4.7904Y2.8096
X4.7904Y2.7096
X4.7904Y2.6096
X4.7904Y2.5096
X4.7904Y2.4096
X4.7904Y2.3096
X4.7904Y2.2096
X4.7904Y2.1096
X4.7904Y2.0096
X5.0904Y3.3096
X5.0904Y3.2096
X5.0904Y3.1096
X5.0904Y3.0096
X5.0904Y2.9096
X5.0904Y2.8096
X5.0904Y2.7096
X5.0904Y2.6096
X5.0904Y2.5096
X5.0904Y2.4096
X5.0904Y2.3096
X5.0904Y2.2096
X5.0904Y2.1096
X5.0904Y2.0096
T6
X5.0416Y0.9676
X5.2384Y0.9676
T7
X4.2608Y1.4197
X4.3592Y1.4197
X4.46Y2.41
X4.46Y2.31
X4.46Y2.21
X4.46Y2.11
X4.46Y2.01
X4.46Y1.91
T3
G00X5.0022Y0.8475
M15
G01X5.0022Y0.8751
M16
G05
G00X5.2778Y0.8751
M15
G01X5.2778Y0.8475
M16
G05
T0
M30
