%TF.GenerationSoftware,KiCad,Pcbnew,(6.0.9-0)*%
%TF.CreationDate,2023-01-14T11:07:59-05:00*%
%TF.ProjectId,JF-PimpleClock,4a462d50-696d-4706-9c65-436c6f636b2e,rev?*%
%TF.SameCoordinates,Original*%
%TF.FileFunction,Soldermask,Top*%
%TF.FilePolarity,Negative*%
%FSLAX46Y46*%
G04 Gerber Fmt 4.6, Leading zero omitted, Abs format (unit mm)*
G04 Created by KiCad (PCBNEW (6.0.9-0)) date 2023-01-14 11:07:59*
%MOMM*%
%LPD*%
G01*
G04 APERTURE LIST*
G04 Aperture macros list*
%AMRoundRect*
0 Rectangle with rounded corners*
0 $1 Rounding radius*
0 $2 $3 $4 $5 $6 $7 $8 $9 X,Y pos of 4 corners*
0 Add a 4 corners polygon primitive as box body*
4,1,4,$2,$3,$4,$5,$6,$7,$8,$9,$2,$3,0*
0 Add four circle primitives for the rounded corners*
1,1,$1+$1,$2,$3*
1,1,$1+$1,$4,$5*
1,1,$1+$1,$6,$7*
1,1,$1+$1,$8,$9*
0 Add four rect primitives between the rounded corners*
20,1,$1+$1,$2,$3,$4,$5,0*
20,1,$1+$1,$4,$5,$6,$7,0*
20,1,$1+$1,$6,$7,$8,$9,0*
20,1,$1+$1,$8,$9,$2,$3,0*%
G04 Aperture macros list end*
%ADD10RoundRect,0.250000X0.262500X0.450000X-0.262500X0.450000X-0.262500X-0.450000X0.262500X-0.450000X0*%
%ADD11RoundRect,0.250000X0.450000X-0.262500X0.450000X0.262500X-0.450000X0.262500X-0.450000X-0.262500X0*%
%ADD12R,1.700000X1.700000*%
%ADD13O,1.700000X1.700000*%
%ADD14RoundRect,0.250000X0.475000X-0.250000X0.475000X0.250000X-0.475000X0.250000X-0.475000X-0.250000X0*%
%ADD15O,0.990000X0.420000*%
%ADD16RoundRect,0.070000X-0.140000X-0.140000X0.140000X-0.140000X0.140000X0.140000X-0.140000X0.140000X0*%
%ADD17R,0.680000X1.050000*%
%ADD18C,0.600000*%
%ADD19R,0.260000X0.500000*%
%ADD20R,1.650000X2.400000*%
%ADD21R,0.280000X0.700000*%
%ADD22R,1.600000X0.550000*%
%ADD23R,0.550000X1.600000*%
%ADD24RoundRect,0.250000X-0.250000X-0.475000X0.250000X-0.475000X0.250000X0.475000X-0.250000X0.475000X0*%
%ADD25R,1.070000X1.800000*%
%ADD26O,1.070000X1.800000*%
%ADD27R,0.400000X1.350000*%
%ADD28R,1.500000X1.900000*%
%ADD29R,1.200000X1.900000*%
%ADD30C,1.450000*%
%ADD31O,1.200000X1.900000*%
%ADD32RoundRect,0.150000X-0.875000X-0.150000X0.875000X-0.150000X0.875000X0.150000X-0.875000X0.150000X0*%
%ADD33RoundRect,0.250000X0.250000X0.475000X-0.250000X0.475000X-0.250000X-0.475000X0.250000X-0.475000X0*%
%ADD34C,1.524000*%
%ADD35R,1.550000X1.300000*%
%ADD36R,1.300000X1.700000*%
%ADD37RoundRect,0.250000X-0.262500X-0.450000X0.262500X-0.450000X0.262500X0.450000X-0.262500X0.450000X0*%
%ADD38RoundRect,0.218750X0.256250X-0.218750X0.256250X0.218750X-0.256250X0.218750X-0.256250X-0.218750X0*%
%ADD39RoundRect,0.250000X-0.475000X0.250000X-0.475000X-0.250000X0.475000X-0.250000X0.475000X0.250000X0*%
%ADD40RoundRect,0.150000X0.512500X0.150000X-0.512500X0.150000X-0.512500X-0.150000X0.512500X-0.150000X0*%
%ADD41R,2.500000X1.800000*%
%ADD42RoundRect,0.250000X-0.350000X-0.625000X0.350000X-0.625000X0.350000X0.625000X-0.350000X0.625000X0*%
%ADD43O,1.200000X1.750000*%
%ADD44C,1.400000*%
%ADD45RoundRect,0.150000X-0.150000X0.587500X-0.150000X-0.587500X0.150000X-0.587500X0.150000X0.587500X0*%
%ADD46R,4.500000X2.000000*%
G04 APERTURE END LIST*
D10*
%TO.C,R3*%
X146338000Y52037500D03*
X144513000Y52037500D03*
%TD*%
D11*
%TO.C,R10*%
X168672000Y62197500D03*
X168672000Y64022500D03*
%TD*%
D12*
%TO.C,J1*%
X148336000Y92964000D03*
D13*
X150876000Y92964000D03*
X153416000Y92964000D03*
X155956000Y92964000D03*
X158496000Y92964000D03*
X161036000Y92964000D03*
%TD*%
D14*
%TO.C,C18*%
X153162000Y123190000D03*
X153162000Y125090000D03*
%TD*%
D15*
%TO.C,U5*%
X167197000Y53545500D03*
D16*
X166912000Y53545500D03*
X166912000Y53045500D03*
D15*
X167197000Y53045500D03*
X167197000Y52545500D03*
D16*
X166912000Y52545500D03*
D15*
X167197000Y52045500D03*
D16*
X166912000Y52045500D03*
X166912000Y51545500D03*
D15*
X167197000Y51545500D03*
X170147000Y51545500D03*
D16*
X170432000Y51545500D03*
D15*
X170147000Y52045500D03*
D16*
X170432000Y52045500D03*
X170432000Y52545500D03*
D15*
X170147000Y52545500D03*
D16*
X170432000Y53045500D03*
D15*
X170147000Y53045500D03*
D16*
X170432000Y53545500D03*
D15*
X170147000Y53545500D03*
D17*
X169122000Y51910500D03*
D18*
X168672000Y52545500D03*
D17*
X168222000Y51910500D03*
D18*
X168172000Y53295500D03*
D19*
X168922000Y54175500D03*
D18*
X169172000Y53295500D03*
D20*
X168672000Y52545500D03*
D21*
X168922000Y50995500D03*
D18*
X169172000Y51795500D03*
D21*
X168422000Y54095500D03*
D19*
X168422000Y50915500D03*
D21*
X168422000Y50995500D03*
D18*
X168172000Y51795500D03*
D17*
X169122000Y53180500D03*
X168222000Y53180500D03*
D21*
X168922000Y54095500D03*
D19*
X168922000Y50915500D03*
X168422000Y54175500D03*
%TD*%
D10*
%TO.C,R5*%
X150010500Y113030000D03*
X148185500Y113030000D03*
%TD*%
D22*
%TO.C,U1*%
X152468000Y117100000D03*
X152468000Y116300000D03*
X152468000Y115500000D03*
X152468000Y114700000D03*
X152468000Y113900000D03*
X152468000Y113100000D03*
X152468000Y112300000D03*
X152468000Y111500000D03*
D23*
X153918000Y110050000D03*
X154718000Y110050000D03*
X155518000Y110050000D03*
X156318000Y110050000D03*
X157118000Y110050000D03*
X157918000Y110050000D03*
X158718000Y110050000D03*
X159518000Y110050000D03*
D22*
X160968000Y111500000D03*
X160968000Y112300000D03*
X160968000Y113100000D03*
X160968000Y113900000D03*
X160968000Y114700000D03*
X160968000Y115500000D03*
X160968000Y116300000D03*
X160968000Y117100000D03*
D23*
X159518000Y118550000D03*
X158718000Y118550000D03*
X157918000Y118550000D03*
X157118000Y118550000D03*
X156318000Y118550000D03*
X155518000Y118550000D03*
X154718000Y118550000D03*
X153918000Y118550000D03*
%TD*%
D10*
%TO.C,R2*%
X159004000Y136652000D03*
X157179000Y136652000D03*
%TD*%
D24*
%TO.C,C13*%
X109982000Y190246000D03*
X111882000Y190246000D03*
%TD*%
D25*
%TO.C,Dh2*%
X81910000Y180594000D03*
D26*
X80640000Y180594000D03*
X79370000Y180594000D03*
X78100000Y180594000D03*
%TD*%
D27*
%TO.C,J4*%
X148544000Y27846000D03*
X149194000Y27846000D03*
X149844000Y27846000D03*
X150494000Y27846000D03*
X151144000Y27846000D03*
D28*
X150844000Y25146000D03*
X148844000Y25146000D03*
D29*
X152744000Y25146000D03*
D30*
X152344000Y27846000D03*
D31*
X153344000Y25146000D03*
D30*
X147344000Y27846000D03*
D29*
X146944000Y25146000D03*
D31*
X146344000Y25146000D03*
%TD*%
D32*
%TO.C,U2*%
X145464000Y138303000D03*
X145464000Y137033000D03*
X145464000Y135763000D03*
X145464000Y134493000D03*
X145464000Y133223000D03*
X145464000Y131953000D03*
X145464000Y130683000D03*
X145464000Y129413000D03*
X154764000Y129413000D03*
X154764000Y130683000D03*
X154764000Y131953000D03*
X154764000Y133223000D03*
X154764000Y134493000D03*
X154764000Y135763000D03*
X154764000Y137033000D03*
X154764000Y138303000D03*
%TD*%
D33*
%TO.C,C16*%
X165050000Y60673500D03*
X163150000Y60673500D03*
%TD*%
D24*
%TO.C,C12*%
X116840000Y167640000D03*
X118740000Y167640000D03*
%TD*%
D34*
%TO.C,U3*%
X146050000Y87376000D03*
X146050000Y84836000D03*
X146050000Y82296000D03*
X146050000Y79756000D03*
X146050000Y77216000D03*
X146050000Y74676000D03*
X146050000Y72136000D03*
X146050000Y69596000D03*
X163830000Y69596000D03*
X163830000Y72136000D03*
X163830000Y74676000D03*
X163830000Y77216000D03*
X163830000Y79756000D03*
X163830000Y82296000D03*
X163830000Y84836000D03*
X163830000Y87376000D03*
%TD*%
D24*
%TO.C,C9*%
X101092000Y165862000D03*
X102992000Y165862000D03*
%TD*%
D14*
%TO.C,C17*%
X165116000Y54963500D03*
X165116000Y56863500D03*
%TD*%
D24*
%TO.C,C10*%
X78806000Y185928000D03*
X80706000Y185928000D03*
%TD*%
D35*
%TO.C,SW3*%
X168994000Y78100000D03*
X176954000Y78100000D03*
X176954000Y73600000D03*
X168994000Y73600000D03*
D36*
X172974000Y71760000D03*
%TD*%
D25*
%TO.C,Dm3*%
X89530000Y156718000D03*
D26*
X88260000Y156718000D03*
X86990000Y156718000D03*
X85720000Y156718000D03*
%TD*%
D24*
%TO.C,C6*%
X71440000Y162560000D03*
X73340000Y162560000D03*
%TD*%
D37*
%TO.C,R9*%
X167759500Y58387500D03*
X169584500Y58387500D03*
%TD*%
D25*
%TO.C,Dm4*%
X104262000Y160528000D03*
D26*
X102992000Y160528000D03*
X101722000Y160528000D03*
X100452000Y160528000D03*
%TD*%
D24*
%TO.C,C11*%
X93726000Y187198000D03*
X95626000Y187198000D03*
%TD*%
D10*
%TO.C,R6*%
X142136500Y82042000D03*
X140311500Y82042000D03*
%TD*%
D25*
%TO.C,Dm5*%
X119756000Y162306000D03*
D26*
X118486000Y162306000D03*
X117216000Y162306000D03*
X115946000Y162306000D03*
%TD*%
D25*
%TO.C,Dm2*%
X74036000Y156464000D03*
D26*
X72766000Y156464000D03*
X71496000Y156464000D03*
X70226000Y156464000D03*
%TD*%
D38*
%TO.C,L1*%
X164608000Y51250000D03*
X164608000Y52825000D03*
%TD*%
D39*
%TO.C,C15*%
X153807500Y54003500D03*
X153807500Y52103500D03*
%TD*%
D10*
%TO.C,R1*%
X159004000Y138938000D03*
X157179000Y138938000D03*
%TD*%
D24*
%TO.C,C5*%
X52832000Y161036000D03*
X54732000Y161036000D03*
%TD*%
D40*
%TO.C,U4*%
X150505500Y52611500D03*
X150505500Y53561500D03*
X150505500Y54511500D03*
X148230500Y54511500D03*
X148230500Y52611500D03*
%TD*%
D24*
%TO.C,C8*%
X86934000Y162560000D03*
X88834000Y162560000D03*
%TD*%
D14*
%TO.C,C2*%
X148082000Y123322000D03*
X148082000Y125222000D03*
%TD*%
D24*
%TO.C,C14*%
X128270000Y168656000D03*
X130170000Y168656000D03*
%TD*%
%TO.C,C7*%
X61722000Y184404000D03*
X63622000Y184404000D03*
%TD*%
D25*
%TO.C,Dm1*%
X56002000Y155702000D03*
D26*
X54732000Y155702000D03*
X53462000Y155702000D03*
X52192000Y155702000D03*
%TD*%
D41*
%TO.C,D1*%
X153464000Y42385500D03*
X157464000Y42385500D03*
%TD*%
D35*
%TO.C,SW1*%
X177122000Y150236000D03*
X185082000Y150236000D03*
X185082000Y145736000D03*
X177122000Y145736000D03*
D36*
X181102000Y143896000D03*
%TD*%
D35*
%TO.C,SW4*%
X176954000Y88514000D03*
X168994000Y88514000D03*
X168994000Y84014000D03*
X176954000Y84014000D03*
D36*
X172974000Y82174000D03*
%TD*%
D42*
%TO.C,J2*%
X157242000Y35216000D03*
D43*
X159242000Y35216000D03*
%TD*%
D37*
%TO.C,R8*%
X148051000Y59149500D03*
X149876000Y59149500D03*
%TD*%
D35*
%TO.C,SW2*%
X185082000Y139314000D03*
X177122000Y139314000D03*
X185082000Y134814000D03*
X177122000Y134814000D03*
D36*
X181102000Y132974000D03*
%TD*%
D44*
%TO.C,J3*%
X141478000Y73894000D03*
X141478000Y71354000D03*
%TD*%
D25*
%TO.C,Dh3*%
X96896000Y181610000D03*
D26*
X95626000Y181610000D03*
X94356000Y181610000D03*
X93086000Y181610000D03*
%TD*%
D45*
%TO.C,Q1*%
X160478000Y51451000D03*
X158578000Y51451000D03*
X159528000Y49576000D03*
%TD*%
D24*
%TO.C,C3*%
X150180000Y98298000D03*
X152080000Y98298000D03*
%TD*%
D10*
%TO.C,R7*%
X142033000Y84836000D03*
X140208000Y84836000D03*
%TD*%
D33*
%TO.C,C1*%
X155210000Y47973500D03*
X153310000Y47973500D03*
%TD*%
D25*
%TO.C,Dh1*%
X64892000Y178562000D03*
D26*
X63622000Y178562000D03*
X62352000Y178562000D03*
X61082000Y178562000D03*
%TD*%
D33*
%TO.C,C4*%
X159380000Y98298000D03*
X157480000Y98298000D03*
%TD*%
D25*
%TO.C,Dm6*%
X131064000Y163068000D03*
D26*
X129794000Y163068000D03*
X128524000Y163068000D03*
X127254000Y163068000D03*
%TD*%
D46*
%TO.C,Y1*%
X158174000Y103124000D03*
X149674000Y103124000D03*
%TD*%
D25*
%TO.C,Dh4*%
X112898000Y183896000D03*
D26*
X111628000Y183896000D03*
X110358000Y183896000D03*
X109088000Y183896000D03*
%TD*%
D10*
%TO.C,R4*%
X150114000Y117094000D03*
X148289000Y117094000D03*
%TD*%
M02*
