%TF.GenerationSoftware,KiCad,Pcbnew,(6.0.9-0)*%
%TF.CreationDate,2023-03-17T16:46:55-04:00*%
%TF.ProjectId,JF-PimpleClock,4a462d50-696d-4706-9c65-436c6f636b2e,rev?*%
%TF.SameCoordinates,Original*%
%TF.FileFunction,Copper,L2,Bot*%
%TF.FilePolarity,Positive*%
%FSLAX46Y46*%
G04 Gerber Fmt 4.6, Leading zero omitted, Abs format (unit mm)*
G04 Created by KiCad (PCBNEW (6.0.9-0)) date 2023-03-17 16:46:55*
%MOMM*%
%LPD*%
G01*
G04 APERTURE LIST*
G04 Aperture macros list*
%AMRoundRect*
0 Rectangle with rounded corners*
0 $1 Rounding radius*
0 $2 $3 $4 $5 $6 $7 $8 $9 X,Y pos of 4 corners*
0 Add a 4 corners polygon primitive as box body*
4,1,4,$2,$3,$4,$5,$6,$7,$8,$9,$2,$3,0*
0 Add four circle primitives for the rounded corners*
1,1,$1+$1,$2,$3*
1,1,$1+$1,$4,$5*
1,1,$1+$1,$6,$7*
1,1,$1+$1,$8,$9*
0 Add four rect primitives between the rounded corners*
20,1,$1+$1,$2,$3,$4,$5,0*
20,1,$1+$1,$4,$5,$6,$7,0*
20,1,$1+$1,$6,$7,$8,$9,0*
20,1,$1+$1,$8,$9,$2,$3,0*%
G04 Aperture macros list end*
%TA.AperFunction,ComponentPad*%
%ADD10R,1.700000X1.700000*%
%TD*%
%TA.AperFunction,ComponentPad*%
%ADD11O,1.700000X1.700000*%
%TD*%
%TA.AperFunction,SMDPad,CuDef*%
%ADD12R,2.300000X2.800000*%
%TD*%
%TA.AperFunction,ComponentPad*%
%ADD13C,0.600000*%
%TD*%
%TA.AperFunction,ComponentPad*%
%ADD14R,2.500000X2.500000*%
%TD*%
%TA.AperFunction,ComponentPad*%
%ADD15R,1.070000X1.800000*%
%TD*%
%TA.AperFunction,ComponentPad*%
%ADD16O,1.070000X1.800000*%
%TD*%
%TA.AperFunction,ComponentPad*%
%ADD17C,1.450000*%
%TD*%
%TA.AperFunction,ComponentPad*%
%ADD18O,1.200000X1.900000*%
%TD*%
%TA.AperFunction,ComponentPad*%
%ADD19C,2.000000*%
%TD*%
%TA.AperFunction,ComponentPad*%
%ADD20RoundRect,0.250000X-0.350000X-0.625000X0.350000X-0.625000X0.350000X0.625000X-0.350000X0.625000X0*%
%TD*%
%TA.AperFunction,ComponentPad*%
%ADD21O,1.200000X1.750000*%
%TD*%
%TA.AperFunction,ComponentPad*%
%ADD22C,1.400000*%
%TD*%
%TA.AperFunction,SMDPad,CuDef*%
%ADD23R,3.600000X2.600000*%
%TD*%
%TA.AperFunction,ViaPad*%
%ADD24C,0.800000*%
%TD*%
%TA.AperFunction,Conductor*%
%ADD25C,0.250000*%
%TD*%
G04 APERTURE END LIST*
D10*
%TO.P,J1,1,Pin_1*%
%TO.N,/RESET*%
X148336000Y92964000D03*
D11*
%TO.P,J1,2,Pin_2*%
%TO.N,/MCU_RX*%
X150876000Y92964000D03*
%TO.P,J1,3,Pin_3*%
%TO.N,/MCU_TX*%
X153416000Y92964000D03*
%TO.P,J1,4,Pin_4*%
%TO.N,/MOSI*%
X155956000Y92964000D03*
%TO.P,J1,5,Pin_5*%
%TO.N,/MISO*%
X158496000Y92964000D03*
%TO.P,J1,6,Pin_6*%
%TO.N,/SCK*%
X161036000Y92964000D03*
%TO.P,J1,7,Pin_7*%
%TO.N,/5v*%
X163576000Y92964000D03*
%TO.P,J1,8,Pin_8*%
%TO.N,GND*%
X166116000Y92964000D03*
%TD*%
D12*
%TO.P,U5,11,PAD*%
%TO.N,GND*%
X168672000Y52545500D03*
D13*
X168672000Y52545500D03*
X168172000Y53295500D03*
X169172000Y53295500D03*
X169172000Y51795500D03*
X168172000Y51795500D03*
%TD*%
D14*
%TO.P,TP1,1,1*%
%TO.N,Net-(J4-Pad3)*%
X146558000Y38100000D03*
%TD*%
D15*
%TO.P,Dh2,1,DOUT*%
%TO.N,Net-(Dh2-Pad1)*%
X81910000Y180594000D03*
D16*
%TO.P,Dh2,2,GND*%
%TO.N,GND*%
X80640000Y180594000D03*
%TO.P,Dh2,3,VDD*%
%TO.N,/5v*%
X79370000Y180594000D03*
%TO.P,Dh2,4,DIN*%
%TO.N,Net-(Dh1-Pad1)*%
X78100000Y180594000D03*
%TD*%
D17*
%TO.P,J4,6,Shield*%
%TO.N,GND*%
X152344000Y27846000D03*
D18*
X153344000Y25146000D03*
D17*
X147344000Y27846000D03*
D18*
X146344000Y25146000D03*
%TD*%
D19*
%TO.P,SW3,1,1*%
%TO.N,GND*%
X180288000Y88356000D03*
X173788000Y88356000D03*
%TO.P,SW3,2,2*%
%TO.N,/SW3*%
X180288000Y83856000D03*
X173788000Y83856000D03*
%TD*%
D15*
%TO.P,Dm3,1,DOUT*%
%TO.N,Net-(Dm3-Pad1)*%
X89530000Y156718000D03*
D16*
%TO.P,Dm3,2,GND*%
%TO.N,GND*%
X88260000Y156718000D03*
%TO.P,Dm3,3,VDD*%
%TO.N,/5v*%
X86990000Y156718000D03*
%TO.P,Dm3,4,DIN*%
%TO.N,Net-(Dm2-Pad1)*%
X85720000Y156718000D03*
%TD*%
D15*
%TO.P,Dm4,1,DOUT*%
%TO.N,Net-(Dm4-Pad1)*%
X104262000Y160528000D03*
D16*
%TO.P,Dm4,2,GND*%
%TO.N,GND*%
X102992000Y160528000D03*
%TO.P,Dm4,3,VDD*%
%TO.N,/5v*%
X101722000Y160528000D03*
%TO.P,Dm4,4,DIN*%
%TO.N,Net-(Dm3-Pad1)*%
X100452000Y160528000D03*
%TD*%
D15*
%TO.P,Dm5,1,DOUT*%
%TO.N,Net-(Dm5-Pad1)*%
X119756000Y162306000D03*
D16*
%TO.P,Dm5,2,GND*%
%TO.N,GND*%
X118486000Y162306000D03*
%TO.P,Dm5,3,VDD*%
%TO.N,/5v*%
X117216000Y162306000D03*
%TO.P,Dm5,4,DIN*%
%TO.N,Net-(Dm4-Pad1)*%
X115946000Y162306000D03*
%TD*%
D15*
%TO.P,Dm2,1,DOUT*%
%TO.N,Net-(Dm2-Pad1)*%
X74036000Y156464000D03*
D16*
%TO.P,Dm2,2,GND*%
%TO.N,GND*%
X72766000Y156464000D03*
%TO.P,Dm2,3,VDD*%
%TO.N,/5v*%
X71496000Y156464000D03*
%TO.P,Dm2,4,DIN*%
%TO.N,Net-(Dm1-Pad1)*%
X70226000Y156464000D03*
%TD*%
D15*
%TO.P,Dm1,1,DOUT*%
%TO.N,Net-(Dm1-Pad1)*%
X56002000Y155702000D03*
D16*
%TO.P,Dm1,2,GND*%
%TO.N,GND*%
X54732000Y155702000D03*
%TO.P,Dm1,3,VDD*%
%TO.N,/5v*%
X53462000Y155702000D03*
%TO.P,Dm1,4,DIN*%
%TO.N,Net-(Dh4-Pad1)*%
X52192000Y155702000D03*
%TD*%
D19*
%TO.P,SW1,1,1*%
%TO.N,GND*%
X187602000Y147066000D03*
X181102000Y147066000D03*
%TO.P,SW1,2,2*%
%TO.N,/SW1*%
X181102000Y142566000D03*
X187602000Y142566000D03*
%TD*%
%TO.P,SW4,1,1*%
%TO.N,GND*%
X173788000Y99278000D03*
X180288000Y99278000D03*
%TO.P,SW4,2,2*%
%TO.N,/SW4*%
X173788000Y94778000D03*
X180288000Y94778000D03*
%TD*%
D20*
%TO.P,J2,1,Pin_1*%
%TO.N,Net-(BT2-Pad1)*%
X157242000Y35216000D03*
D21*
%TO.P,J2,2,Pin_2*%
%TO.N,GND*%
X159242000Y35216000D03*
%TD*%
D19*
%TO.P,SW2,1,1*%
%TO.N,GND*%
X181102000Y136144000D03*
X187602000Y136144000D03*
%TO.P,SW2,2,2*%
%TO.N,/SW2*%
X187602000Y131644000D03*
X181102000Y131644000D03*
%TD*%
D22*
%TO.P,J3,1,Pin_1*%
%TO.N,Net-(LS1-Pad1)*%
X141478000Y73894000D03*
%TO.P,J3,2,Pin_2*%
%TO.N,Net-(LS1-Pad2)*%
X141478000Y71354000D03*
%TD*%
D15*
%TO.P,Dh3,1,DOUT*%
%TO.N,Net-(Dh3-Pad1)*%
X96896000Y181610000D03*
D16*
%TO.P,Dh3,2,GND*%
%TO.N,GND*%
X95626000Y181610000D03*
%TO.P,Dh3,3,VDD*%
%TO.N,/5v*%
X94356000Y181610000D03*
%TO.P,Dh3,4,DIN*%
%TO.N,Net-(Dh2-Pad1)*%
X93086000Y181610000D03*
%TD*%
D14*
%TO.P,TP2,1,1*%
%TO.N,Net-(J4-Pad2)*%
X150368000Y38100000D03*
%TD*%
%TO.P,TP3,1,1*%
%TO.N,Net-(J5-Pad2)*%
X168148000Y86106000D03*
%TD*%
D15*
%TO.P,Dh1,1,DOUT*%
%TO.N,Net-(Dh1-Pad1)*%
X64892000Y178562000D03*
D16*
%TO.P,Dh1,2,GND*%
%TO.N,GND*%
X63622000Y178562000D03*
%TO.P,Dh1,3,VDD*%
%TO.N,/5v*%
X62352000Y178562000D03*
%TO.P,Dh1,4,DIN*%
%TO.N,Net-(Dh1-Pad4)*%
X61082000Y178562000D03*
%TD*%
D10*
%TO.P,J5,1,Pin_1*%
%TO.N,unconnected-(J5-Pad1)*%
X163830000Y87376000D03*
D11*
%TO.P,J5,2,Pin_2*%
%TO.N,Net-(J5-Pad2)*%
X163830000Y84836000D03*
%TO.P,J5,3,Pin_3*%
%TO.N,Net-(J5-Pad3)*%
X163830000Y82296000D03*
%TO.P,J5,4,Pin_4*%
%TO.N,unconnected-(J5-Pad4)*%
X163830000Y79756000D03*
%TO.P,J5,5,Pin_5*%
%TO.N,unconnected-(J5-Pad5)*%
X163830000Y77216000D03*
%TO.P,J5,6,Pin_6*%
%TO.N,unconnected-(J5-Pad6)*%
X163830000Y74676000D03*
%TO.P,J5,7,Pin_7*%
%TO.N,GND*%
X163830000Y72136000D03*
%TO.P,J5,8,Pin_8*%
%TO.N,unconnected-(J5-Pad8)*%
X163830000Y69596000D03*
%TD*%
D15*
%TO.P,Dm6,1,DOUT*%
%TO.N,unconnected-(Dm6-Pad1)*%
X131064000Y163068000D03*
D16*
%TO.P,Dm6,2,GND*%
%TO.N,GND*%
X129794000Y163068000D03*
%TO.P,Dm6,3,VDD*%
%TO.N,/5v*%
X128524000Y163068000D03*
%TO.P,Dm6,4,DIN*%
%TO.N,Net-(Dm5-Pad1)*%
X127254000Y163068000D03*
%TD*%
D14*
%TO.P,TP4,1,1*%
%TO.N,Net-(J5-Pad3)*%
X168148000Y82296000D03*
%TD*%
D15*
%TO.P,Dh4,1,DOUT*%
%TO.N,Net-(Dh4-Pad1)*%
X112898000Y183896000D03*
D16*
%TO.P,Dh4,2,GND*%
%TO.N,GND*%
X111628000Y183896000D03*
%TO.P,Dh4,3,VDD*%
%TO.N,/5v*%
X110358000Y183896000D03*
%TO.P,Dh4,4,DIN*%
%TO.N,Net-(Dh3-Pad1)*%
X109088000Y183896000D03*
%TD*%
D10*
%TO.P,J6,1,Pin_1*%
%TO.N,/5v*%
X146050000Y87376000D03*
D11*
%TO.P,J6,2,Pin_2*%
%TO.N,Net-(J6-Pad2)*%
X146050000Y84836000D03*
%TO.P,J6,3,Pin_3*%
%TO.N,Net-(J6-Pad3)*%
X146050000Y82296000D03*
%TO.P,J6,4,Pin_4*%
%TO.N,unconnected-(J6-Pad4)*%
X146050000Y79756000D03*
%TO.P,J6,5,Pin_5*%
%TO.N,unconnected-(J6-Pad5)*%
X146050000Y77216000D03*
%TO.P,J6,6,Pin_6*%
%TO.N,Net-(LS1-Pad1)*%
X146050000Y74676000D03*
%TO.P,J6,7,Pin_7*%
%TO.N,GND*%
X146050000Y72136000D03*
%TO.P,J6,8,Pin_8*%
%TO.N,Net-(LS1-Pad2)*%
X146050000Y69596000D03*
%TD*%
D23*
%TO.P,BT1,1,+*%
%TO.N,Net-(BT1-Pad1)*%
X164338000Y109810000D03*
%TO.P,BT1,2,-*%
%TO.N,GND*%
X164338000Y139110000D03*
%TD*%
D24*
%TO.N,GND*%
X151130000Y125222000D03*
X151892000Y117348000D03*
X149352000Y46228000D03*
X152400000Y46228000D03*
X165608000Y58674000D03*
X166370000Y56642000D03*
X166878000Y116078000D03*
X171704000Y116586000D03*
X153670000Y86360000D03*
X149606000Y90424000D03*
X154686000Y98298000D03*
X175514000Y116840000D03*
X170688000Y95758000D03*
X155194000Y67564000D03*
X152146000Y65024000D03*
X167640000Y101854000D03*
X180340000Y101854000D03*
X173736000Y101854000D03*
%TO.N,Net-(C1-Pad1)*%
X154178000Y39116000D03*
X147828000Y29972000D03*
%TO.N,GND*%
X164727000Y136668900D03*
%TO.N,/5v*%
X110358000Y186062000D03*
X172168900Y114457000D03*
X163555000Y116607000D03*
X153700600Y112582600D03*
X148425500Y118692200D03*
X159939200Y60987600D03*
X148847000Y121205200D03*
X85327000Y177366000D03*
X143665200Y136765100D03*
X95172600Y184965000D03*
%TO.N,Net-(Dh1-Pad4)*%
X132967000Y177366100D03*
%TO.N,/RESET*%
X154346800Y105016800D03*
X168981400Y122385300D03*
%TO.N,/MOSI*%
X171453900Y108877700D03*
%TO.N,/MISO*%
X172948100Y109346800D03*
%TO.N,/MCU_TX*%
X168697000Y117597100D03*
%TO.N,/MCU_RX*%
X168319200Y118909600D03*
%TO.N,Net-(R10-Pad1)*%
X171704000Y52070000D03*
X171196000Y58420000D03*
%TO.N,/SW1*%
X166490800Y125318200D03*
%TO.N,/SW2*%
X164542500Y121581700D03*
%TO.N,Net-(BT1-Pad1)*%
X156787000Y118143700D03*
%TO.N,Net-(J4-Pad3)*%
X150622000Y35306000D03*
X148082000Y35560000D03*
%TO.N,Net-(C18-Pad1)*%
X163437100Y52913400D03*
X156008200Y45585300D03*
%TD*%
D25*
%TO.N,GND*%
X151130000Y125222000D02*
X151130000Y118110000D01*
X151130000Y118110000D02*
X151892000Y117348000D01*
X149352000Y46228000D02*
X152400000Y46228000D01*
X165608000Y58674000D02*
X165608000Y57404000D01*
X165608000Y57404000D02*
X166370000Y56642000D01*
X149606000Y90424000D02*
X153670000Y86360000D01*
X173736000Y101854000D02*
X171958000Y101854000D01*
X171958000Y101854000D02*
X167640000Y101854000D01*
X170688000Y95758000D02*
X171958000Y97028000D01*
X171958000Y97028000D02*
X171958000Y101854000D01*
X152146000Y65024000D02*
X154686000Y67564000D01*
X154686000Y67564000D02*
X155194000Y67564000D01*
X173736000Y101854000D02*
X180340000Y101854000D01*
%TO.N,Net-(C1-Pad1)*%
X152400000Y29972000D02*
X147828000Y29972000D01*
X152908000Y30480000D02*
X152400000Y29972000D01*
X154178000Y39116000D02*
X152908000Y37846000D01*
X152908000Y37846000D02*
X152908000Y30480000D01*
%TO.N,GND*%
X164338000Y137057900D02*
X164338000Y139110000D01*
X164727000Y136668900D02*
X164338000Y137057900D01*
%TO.N,/5v*%
X128524000Y163068000D02*
X128524000Y161842900D01*
X101722000Y159303000D02*
X100362000Y157943000D01*
X53462000Y155702000D02*
X53462000Y156927000D01*
X101722000Y160528000D02*
X101722000Y159303000D01*
X100362000Y157943000D02*
X86990000Y157943000D01*
X79370000Y180594000D02*
X79370000Y181819000D01*
X62352000Y179787000D02*
X62352000Y178562000D01*
X85327000Y179369000D02*
X79370000Y179369000D01*
X71496000Y156464000D02*
X71496000Y157689000D01*
X79370000Y179369000D02*
X79370000Y180594000D01*
X71045900Y158139000D02*
X71496000Y157689000D01*
X64384000Y181819000D02*
X62352000Y179787000D01*
X53462000Y156927000D02*
X54674100Y158139000D01*
X94356000Y180385000D02*
X93340000Y179369000D01*
X117216000Y161081000D02*
X116581000Y160446000D01*
X86990000Y157943000D02*
X71750000Y157943000D01*
X95172600Y184965000D02*
X96269200Y186062000D01*
X96269200Y186062000D02*
X110358000Y186062000D01*
X54674100Y158139000D02*
X71045900Y158139000D01*
X116581000Y160446000D02*
X115438000Y159303000D01*
X128062800Y161381700D02*
X128062800Y160446000D01*
X86990000Y156718000D02*
X86990000Y157943000D01*
X137901400Y150607400D02*
X128062800Y160446000D01*
X93340000Y179369000D02*
X85327000Y179369000D01*
X79370000Y181819000D02*
X64384000Y181819000D01*
X71750000Y157943000D02*
X71496000Y157689000D01*
X128062800Y160446000D02*
X116581000Y160446000D01*
X128524000Y161842900D02*
X128062800Y161381700D01*
X94356000Y181610000D02*
X94356000Y180385000D01*
X117216000Y162306000D02*
X117216000Y161081000D01*
X115438000Y159303000D02*
X101722000Y159303000D01*
X85327000Y177366000D02*
X85327000Y179369000D01*
%TO.N,Net-(Dh1-Pad1)*%
X77743700Y179369000D02*
X78100000Y179369000D01*
X64892000Y179787000D02*
X77325500Y179787000D01*
X78100000Y179369000D02*
X78100000Y180594000D01*
X77325500Y179787000D02*
X77743700Y179369000D01*
X64892000Y178562000D02*
X64892000Y179787000D01*
%TO.N,Net-(Dh1-Pad4)*%
X61082000Y178562000D02*
X61082000Y179787100D01*
X64580100Y183285200D02*
X104646800Y183285200D01*
X106495300Y185133700D02*
X125199400Y185133700D01*
X104646800Y183285200D02*
X106495300Y185133700D01*
X125199400Y185133700D02*
X132967000Y177366100D01*
X61082000Y179787100D02*
X64580100Y183285200D01*
%TO.N,Net-(Dh2-Pad1)*%
X93086000Y180385000D02*
X82119100Y180385000D01*
X93086000Y181610000D02*
X93086000Y180385000D01*
X82119100Y180385000D02*
X81910000Y180594000D01*
%TO.N,Net-(Dh3-Pad1)*%
X97756100Y182671000D02*
X97591900Y182835000D01*
X109088000Y182671000D02*
X97756100Y182671000D01*
X97591900Y182835000D02*
X96896000Y182835000D01*
X109088000Y183896000D02*
X109088000Y182671000D01*
X96896000Y182835000D02*
X96896000Y181610000D01*
%TO.N,Net-(Dh4-Pad1)*%
X63163000Y167898000D02*
X52192000Y156927000D01*
X98125200Y167898000D02*
X63163000Y167898000D01*
X52192000Y156927000D02*
X52192000Y155702000D01*
X112898000Y182671000D02*
X98125200Y167898000D01*
X112898000Y183896000D02*
X112898000Y182671000D01*
%TO.N,Net-(Dm1-Pad1)*%
X56764000Y157689000D02*
X70226000Y157689000D01*
X56002000Y155702000D02*
X56002000Y156927000D01*
X56002000Y156927000D02*
X56764000Y157689000D01*
X70226000Y157689000D02*
X70226000Y156464000D01*
%TO.N,Net-(Dm2-Pad1)*%
X74036000Y156464000D02*
X74036000Y155239000D01*
X74036000Y155239000D02*
X85466000Y155239000D01*
X85720000Y155493000D02*
X85720000Y156718000D01*
X85466000Y155239000D02*
X85720000Y155493000D01*
%TO.N,Net-(Dm4-Pad1)*%
X115946000Y161081000D02*
X115946000Y162306000D01*
X105794000Y161081000D02*
X115946000Y161081000D01*
X104262000Y160528000D02*
X104262000Y161753000D01*
X105122000Y161753000D02*
X105794000Y161081000D01*
X104262000Y161753000D02*
X105122000Y161753000D01*
%TO.N,Net-(Dm5-Pad1)*%
X119756000Y161081000D02*
X119756000Y162306000D01*
X126492000Y161081000D02*
X119756000Y161081000D01*
X127254000Y163068000D02*
X127254000Y161843000D01*
X127254000Y161843000D02*
X126492000Y161081000D01*
%TO.N,/RESET*%
X168981400Y122385300D02*
X165779000Y119182900D01*
X156774100Y119182900D02*
X155752400Y118161200D01*
X165779000Y119182900D02*
X156774100Y119182900D01*
X148336000Y92964000D02*
X148336000Y99006000D01*
X155752400Y118161200D02*
X155752400Y106422400D01*
X148336000Y99006000D02*
X154346800Y105016800D01*
X155752400Y106422400D02*
X154346800Y105016800D01*
%TO.N,/MOSI*%
X155956000Y94139100D02*
X156715300Y94139100D01*
X155956000Y92964000D02*
X155956000Y94139100D01*
X156715300Y94139100D02*
X171453900Y108877700D01*
%TO.N,/MISO*%
X159671100Y92596800D02*
X160487000Y91780900D01*
X159671100Y92964000D02*
X159671100Y92596800D01*
X172948100Y109346400D02*
X172948100Y109346800D01*
X158496000Y92964000D02*
X159671100Y92964000D01*
X160487000Y91780900D02*
X161541400Y91780900D01*
X162306000Y92545500D02*
X162306000Y98704300D01*
X161541400Y91780900D02*
X162306000Y92545500D01*
X162306000Y98704300D02*
X172948100Y109346400D01*
%TO.N,/MCU_TX*%
X168697000Y109420100D02*
X168697000Y117597100D01*
X153416000Y94139100D02*
X168697000Y109420100D01*
X153416000Y92964000D02*
X153416000Y94139100D01*
%TO.N,/MCU_RX*%
X152051100Y92964000D02*
X152051100Y93962400D01*
X150876000Y92964000D02*
X152051100Y92964000D01*
X167731900Y109643200D02*
X167731900Y118322300D01*
X152051100Y93962400D02*
X167731900Y109643200D01*
X167731900Y118322300D02*
X168319200Y118909600D01*
%TO.N,Net-(R10-Pad1)*%
X171704000Y52070000D02*
X172466000Y52832000D01*
X172466000Y52832000D02*
X172466000Y57150000D01*
X172466000Y57150000D02*
X171196000Y58420000D01*
%TO.N,/SW1*%
X187602000Y142566000D02*
X181102000Y142566000D01*
X166490800Y125318200D02*
X166490800Y127954800D01*
X166490800Y127954800D02*
X181102000Y142566000D01*
%TO.N,/SW2*%
X187602000Y131644000D02*
X181102000Y131644000D01*
X164542500Y121581700D02*
X174604800Y131644000D01*
X174604800Y131644000D02*
X181102000Y131644000D01*
%TO.N,/SW3*%
X180288000Y83856000D02*
X173788000Y83856000D01*
%TO.N,/SW4*%
X180288000Y94778000D02*
X173788000Y94778000D01*
%TO.N,Net-(BT1-Pad1)*%
X164338000Y111435100D02*
X163495600Y111435100D01*
X164338000Y109810000D02*
X164338000Y111435100D01*
X163495600Y111435100D02*
X156787000Y118143700D01*
%TO.N,Net-(J4-Pad3)*%
X150368000Y35560000D02*
X150622000Y35306000D01*
X148082000Y35560000D02*
X150368000Y35560000D01*
%TO.N,Net-(C18-Pad1)*%
X156008200Y45585300D02*
X163336300Y52913400D01*
X163336300Y52913400D02*
X163437100Y52913400D01*
%TD*%
%TA.AperFunction,Conductor*%
%TO.N,/5v*%
G36*
X185379304Y153141998D02*
G01*
X185425797Y153088342D01*
X185435841Y153054342D01*
X186220759Y147719935D01*
X186212510Y147653376D01*
X186162895Y147533594D01*
X186107465Y147302711D01*
X186088835Y147066000D01*
X186107465Y146829289D01*
X186162895Y146598406D01*
X186253760Y146379037D01*
X186256346Y146374817D01*
X186375241Y146180798D01*
X186375245Y146180792D01*
X186377824Y146176584D01*
X186438862Y146105118D01*
X186467709Y146041629D01*
X186779735Y143921055D01*
X186769862Y143850749D01*
X186720917Y143795284D01*
X186716809Y143792766D01*
X186716801Y143792760D01*
X186712584Y143790176D01*
X186532031Y143635969D01*
X186377824Y143455416D01*
X186375245Y143451208D01*
X186375241Y143451202D01*
X186257867Y143259665D01*
X186205219Y143212034D01*
X186150434Y143199500D01*
X182553566Y143199500D01*
X182485445Y143219502D01*
X182446133Y143259665D01*
X182328759Y143451202D01*
X182328755Y143451208D01*
X182326176Y143455416D01*
X182171969Y143635969D01*
X181991416Y143790176D01*
X181987208Y143792755D01*
X181987202Y143792759D01*
X181793183Y143911654D01*
X181788963Y143914240D01*
X181784393Y143916133D01*
X181784389Y143916135D01*
X181574167Y144003211D01*
X181574165Y144003212D01*
X181569594Y144005105D01*
X181489391Y144024360D01*
X181343524Y144059380D01*
X181343518Y144059381D01*
X181338711Y144060535D01*
X181102000Y144079165D01*
X180865289Y144060535D01*
X180860482Y144059381D01*
X180860476Y144059380D01*
X180714609Y144024360D01*
X180634406Y144005105D01*
X180629835Y144003212D01*
X180629833Y144003211D01*
X180419611Y143916135D01*
X180419607Y143916133D01*
X180415037Y143914240D01*
X180410817Y143911654D01*
X180216798Y143792759D01*
X180216792Y143792755D01*
X180212584Y143790176D01*
X180032031Y143635969D01*
X179877824Y143455416D01*
X179875245Y143451208D01*
X179875241Y143451202D01*
X179757867Y143259665D01*
X179753760Y143252963D01*
X179751867Y143248393D01*
X179751865Y143248389D01*
X179731615Y143199500D01*
X179662895Y143033594D01*
X179607465Y142802711D01*
X179588835Y142566000D01*
X179607465Y142329289D01*
X179608619Y142324482D01*
X179608620Y142324476D01*
X179661060Y142106050D01*
X179657513Y142035142D01*
X179627636Y141987541D01*
X166098547Y128458452D01*
X166090261Y128450912D01*
X166083782Y128446800D01*
X166078357Y128441023D01*
X166037157Y128397149D01*
X166034402Y128394307D01*
X166014665Y128374570D01*
X166012185Y128371373D01*
X166004482Y128362353D01*
X165974214Y128330121D01*
X165970395Y128323175D01*
X165970393Y128323172D01*
X165964452Y128312366D01*
X165953601Y128295847D01*
X165941186Y128279841D01*
X165938041Y128272572D01*
X165938038Y128272568D01*
X165923626Y128239263D01*
X165918409Y128228613D01*
X165897105Y128189860D01*
X165895134Y128182185D01*
X165895134Y128182184D01*
X165892067Y128170238D01*
X165885663Y128151534D01*
X165877619Y128132945D01*
X165876380Y128125122D01*
X165876377Y128125112D01*
X165870701Y128089276D01*
X165868295Y128077656D01*
X165857300Y128034830D01*
X165857300Y128014576D01*
X165855749Y127994866D01*
X165852580Y127974857D01*
X165853326Y127966965D01*
X165856741Y127930839D01*
X165857300Y127918981D01*
X165857300Y126020724D01*
X165837298Y125952603D01*
X165824942Y125936421D01*
X165751760Y125855144D01*
X165656273Y125689756D01*
X165597258Y125508128D01*
X165577296Y125318200D01*
X165597258Y125128272D01*
X165656273Y124946644D01*
X165751760Y124781256D01*
X165879547Y124639334D01*
X166034048Y124527082D01*
X166040076Y124524398D01*
X166040078Y124524397D01*
X166051131Y124519476D01*
X166208512Y124449406D01*
X166214967Y124448034D01*
X166214970Y124448033D01*
X166233705Y124444051D01*
X166296179Y124410323D01*
X166330500Y124348174D01*
X166325773Y124277335D01*
X166296604Y124231709D01*
X164592000Y122527105D01*
X164529688Y122493079D01*
X164502905Y122490200D01*
X164447013Y122490200D01*
X164440561Y122488828D01*
X164440556Y122488828D01*
X164353613Y122470347D01*
X164260212Y122450494D01*
X164254182Y122447809D01*
X164254181Y122447809D01*
X164091778Y122375503D01*
X164091776Y122375502D01*
X164085748Y122372818D01*
X163931247Y122260566D01*
X163803460Y122118644D01*
X163707973Y121953256D01*
X163648958Y121771628D01*
X163628996Y121581700D01*
X163648958Y121391772D01*
X163707973Y121210144D01*
X163803460Y121044756D01*
X163931247Y120902834D01*
X164085748Y120790582D01*
X164091776Y120787898D01*
X164091778Y120787897D01*
X164254181Y120715591D01*
X164260212Y120712906D01*
X164353612Y120693053D01*
X164440556Y120674572D01*
X164440561Y120674572D01*
X164447013Y120673200D01*
X164637987Y120673200D01*
X164644439Y120674572D01*
X164644444Y120674572D01*
X164731388Y120693053D01*
X164824788Y120712906D01*
X164830819Y120715591D01*
X164993222Y120787897D01*
X164993224Y120787898D01*
X164999252Y120790582D01*
X165153753Y120902834D01*
X165281540Y121044756D01*
X165377027Y121210144D01*
X165436042Y121391772D01*
X165453407Y121556994D01*
X165480420Y121622650D01*
X165489622Y121632918D01*
X174830300Y130973595D01*
X174892612Y131007621D01*
X174919395Y131010500D01*
X179650434Y131010500D01*
X179718555Y130990498D01*
X179757867Y130950335D01*
X179875241Y130758798D01*
X179875245Y130758792D01*
X179877824Y130754584D01*
X180032031Y130574031D01*
X180212584Y130419824D01*
X180216792Y130417245D01*
X180216798Y130417241D01*
X180410815Y130298347D01*
X180415037Y130295760D01*
X180419607Y130293867D01*
X180419611Y130293865D01*
X180629833Y130206789D01*
X180634406Y130204895D01*
X180714609Y130185640D01*
X180860476Y130150620D01*
X180860482Y130150619D01*
X180865289Y130149465D01*
X181102000Y130130835D01*
X181338711Y130149465D01*
X181343518Y130150619D01*
X181343524Y130150620D01*
X181489391Y130185640D01*
X181569594Y130204895D01*
X181574167Y130206789D01*
X181784389Y130293865D01*
X181784393Y130293867D01*
X181788963Y130295760D01*
X181793185Y130298347D01*
X181987202Y130417241D01*
X181987208Y130417245D01*
X181991416Y130419824D01*
X182171969Y130574031D01*
X182326176Y130754584D01*
X182328755Y130758792D01*
X182328759Y130758798D01*
X182446133Y130950335D01*
X182498781Y130997966D01*
X182553566Y131010500D01*
X186150434Y131010500D01*
X186218555Y130990498D01*
X186257867Y130950335D01*
X186375241Y130758798D01*
X186375245Y130758792D01*
X186377824Y130754584D01*
X186532031Y130574031D01*
X186712584Y130419824D01*
X186716792Y130417245D01*
X186716798Y130417241D01*
X186841943Y130340552D01*
X186915037Y130295760D01*
X186919615Y130293864D01*
X186920749Y130293286D01*
X186972366Y130244540D01*
X186989169Y130171236D01*
X185811029Y115043500D01*
X185674420Y113289389D01*
X185673120Y113278665D01*
X181736806Y89422213D01*
X181720108Y89321016D01*
X181689283Y89257061D01*
X181628774Y89219923D01*
X181557793Y89221395D01*
X181499978Y89259698D01*
X181361177Y89422213D01*
X181357969Y89425969D01*
X181177416Y89580176D01*
X181173208Y89582755D01*
X181173202Y89582759D01*
X180979183Y89701654D01*
X180974963Y89704240D01*
X180970393Y89706133D01*
X180970389Y89706135D01*
X180760167Y89793211D01*
X180760165Y89793212D01*
X180755594Y89795105D01*
X180675391Y89814360D01*
X180529524Y89849380D01*
X180529518Y89849381D01*
X180524711Y89850535D01*
X180288000Y89869165D01*
X180051289Y89850535D01*
X180046482Y89849381D01*
X180046476Y89849380D01*
X179900609Y89814360D01*
X179820406Y89795105D01*
X179815835Y89793212D01*
X179815833Y89793211D01*
X179605611Y89706135D01*
X179605607Y89706133D01*
X179601037Y89704240D01*
X179596817Y89701654D01*
X179402798Y89582759D01*
X179402792Y89582755D01*
X179398584Y89580176D01*
X179218031Y89425969D01*
X179063824Y89245416D01*
X179061245Y89241208D01*
X179061241Y89241202D01*
X178942346Y89047183D01*
X178939760Y89042963D01*
X178848895Y88823594D01*
X178847740Y88818782D01*
X178813609Y88676615D01*
X178793465Y88592711D01*
X178774835Y88356000D01*
X178793465Y88119289D01*
X178848895Y87888406D01*
X178850788Y87883835D01*
X178850789Y87883833D01*
X178921931Y87712081D01*
X178939760Y87669037D01*
X178942346Y87664817D01*
X179061241Y87470798D01*
X179061245Y87470792D01*
X179063824Y87466584D01*
X179218031Y87286031D01*
X179398584Y87131824D01*
X179402792Y87129245D01*
X179402798Y87129241D01*
X179525649Y87053958D01*
X179601037Y87007760D01*
X179605607Y87005867D01*
X179605611Y87005865D01*
X179753056Y86944792D01*
X179820406Y86916895D01*
X179883065Y86901852D01*
X180046476Y86862620D01*
X180046482Y86862619D01*
X180051289Y86861465D01*
X180288000Y86842835D01*
X180524711Y86861465D01*
X180529518Y86862619D01*
X180529524Y86862620D01*
X180692935Y86901852D01*
X180755594Y86916895D01*
X180822944Y86944792D01*
X180970389Y87005865D01*
X180970393Y87005867D01*
X180974963Y87007760D01*
X180979183Y87010346D01*
X180979193Y87010351D01*
X181144274Y87111514D01*
X181212807Y87130053D01*
X181280484Y87108597D01*
X181325817Y87053958D01*
X181334428Y86983569D01*
X181062473Y85335355D01*
X181031648Y85271400D01*
X180971139Y85234262D01*
X180900158Y85235734D01*
X180889936Y85239459D01*
X180760167Y85293211D01*
X180760165Y85293212D01*
X180755594Y85295105D01*
X180675391Y85314360D01*
X180529524Y85349380D01*
X180529518Y85349381D01*
X180524711Y85350535D01*
X180288000Y85369165D01*
X180051289Y85350535D01*
X180046482Y85349381D01*
X180046476Y85349380D01*
X179900609Y85314360D01*
X179820406Y85295105D01*
X179815835Y85293212D01*
X179815833Y85293211D01*
X179605611Y85206135D01*
X179605607Y85206133D01*
X179601037Y85204240D01*
X179596817Y85201654D01*
X179402798Y85082759D01*
X179402792Y85082755D01*
X179398584Y85080176D01*
X179218031Y84925969D01*
X179063824Y84745416D01*
X179061245Y84741208D01*
X179061241Y84741202D01*
X178943867Y84549665D01*
X178891219Y84502034D01*
X178836434Y84489500D01*
X175239566Y84489500D01*
X175171445Y84509502D01*
X175132133Y84549665D01*
X175014759Y84741202D01*
X175014755Y84741208D01*
X175012176Y84745416D01*
X174857969Y84925969D01*
X174677416Y85080176D01*
X174673208Y85082755D01*
X174673202Y85082759D01*
X174479183Y85201654D01*
X174474963Y85204240D01*
X174470393Y85206133D01*
X174470389Y85206135D01*
X174260167Y85293211D01*
X174260165Y85293212D01*
X174255594Y85295105D01*
X174175391Y85314360D01*
X174029524Y85349380D01*
X174029518Y85349381D01*
X174024711Y85350535D01*
X173788000Y85369165D01*
X173551289Y85350535D01*
X173546482Y85349381D01*
X173546476Y85349380D01*
X173400609Y85314360D01*
X173320406Y85295105D01*
X173315835Y85293212D01*
X173315833Y85293211D01*
X173105611Y85206135D01*
X173105607Y85206133D01*
X173101037Y85204240D01*
X173096817Y85201654D01*
X172902798Y85082759D01*
X172902792Y85082755D01*
X172898584Y85080176D01*
X172718031Y84925969D01*
X172563824Y84745416D01*
X172561245Y84741208D01*
X172561241Y84741202D01*
X172476005Y84602109D01*
X172439760Y84542963D01*
X172437867Y84538393D01*
X172437865Y84538389D01*
X172351361Y84329547D01*
X172348895Y84323594D01*
X172347740Y84318782D01*
X172302351Y84129723D01*
X172293465Y84092711D01*
X172274835Y83856000D01*
X172293465Y83619289D01*
X172294619Y83614482D01*
X172294620Y83614476D01*
X172320991Y83504636D01*
X172348895Y83388406D01*
X172350788Y83383835D01*
X172350789Y83383833D01*
X172422807Y83209966D01*
X172439760Y83169037D01*
X172442346Y83164817D01*
X172561241Y82970798D01*
X172561245Y82970792D01*
X172563824Y82966584D01*
X172718031Y82786031D01*
X172898584Y82631824D01*
X172902792Y82629245D01*
X172902798Y82629241D01*
X173029774Y82551430D01*
X173101037Y82507760D01*
X173105607Y82505867D01*
X173105611Y82505865D01*
X173315833Y82418789D01*
X173320406Y82416895D01*
X173400609Y82397640D01*
X173546476Y82362620D01*
X173546482Y82362619D01*
X173551289Y82361465D01*
X173788000Y82342835D01*
X174024711Y82361465D01*
X174029518Y82362619D01*
X174029524Y82362620D01*
X174175391Y82397640D01*
X174255594Y82416895D01*
X174260167Y82418789D01*
X174470389Y82505865D01*
X174470393Y82505867D01*
X174474963Y82507760D01*
X174546226Y82551430D01*
X174673202Y82629241D01*
X174673208Y82629245D01*
X174677416Y82631824D01*
X174857969Y82786031D01*
X175012176Y82966584D01*
X175014755Y82970792D01*
X175014759Y82970798D01*
X175132133Y83162335D01*
X175184781Y83209966D01*
X175239566Y83222500D01*
X178836434Y83222500D01*
X178904555Y83202498D01*
X178943867Y83162335D01*
X179061241Y82970798D01*
X179061245Y82970792D01*
X179063824Y82966584D01*
X179218031Y82786031D01*
X179398584Y82631824D01*
X179402792Y82629245D01*
X179402798Y82629241D01*
X179529774Y82551430D01*
X179601037Y82507760D01*
X179605607Y82505867D01*
X179605611Y82505865D01*
X179815833Y82418789D01*
X179820406Y82416895D01*
X179900609Y82397640D01*
X180046476Y82362620D01*
X180046482Y82362619D01*
X180051289Y82361465D01*
X180288000Y82342835D01*
X180292930Y82343223D01*
X180412002Y82352594D01*
X180481482Y82337998D01*
X180532042Y82288155D01*
X180547628Y82218891D01*
X180546207Y82206469D01*
X177292374Y62486267D01*
X177292000Y62484000D01*
X177291793Y62481719D01*
X177039975Y59711728D01*
X177028833Y59670200D01*
X170559655Y45696774D01*
X165070395Y33839972D01*
X164353273Y32290989D01*
X164307500Y32238216D01*
X160803629Y29965435D01*
X154538024Y25901259D01*
X154469988Y25880969D01*
X154401784Y25900683D01*
X154357440Y25949276D01*
X154283804Y26092249D01*
X154283802Y26092252D01*
X154281058Y26097580D01*
X154150396Y26263920D01*
X154145865Y26267852D01*
X154145862Y26267855D01*
X153995167Y26398621D01*
X153990637Y26402552D01*
X153985448Y26405554D01*
X153985447Y26405555D01*
X153812742Y26505467D01*
X153807546Y26508473D01*
X153607729Y26577861D01*
X153601794Y26578722D01*
X153601792Y26578722D01*
X153404336Y26607352D01*
X153404333Y26607352D01*
X153398396Y26608213D01*
X153187101Y26598433D01*
X153110653Y26580009D01*
X153039742Y26583494D01*
X152981972Y26624763D01*
X152955685Y26690714D01*
X152969226Y26760407D01*
X153008861Y26805715D01*
X153135396Y26894316D01*
X153135399Y26894318D01*
X153139907Y26897475D01*
X153292525Y27050093D01*
X153416323Y27226894D01*
X153418646Y27231876D01*
X153418649Y27231881D01*
X153505216Y27417525D01*
X153505217Y27417526D01*
X153507539Y27422507D01*
X153537209Y27533235D01*
X153561977Y27625672D01*
X153561977Y27625674D01*
X153563401Y27630987D01*
X153582212Y27846000D01*
X153563401Y28061013D01*
X153519968Y28223108D01*
X153508962Y28264183D01*
X153508961Y28264185D01*
X153507539Y28269493D01*
X153505216Y28274475D01*
X153418649Y28460119D01*
X153418646Y28460124D01*
X153416323Y28465106D01*
X153292525Y28641907D01*
X153139907Y28794525D01*
X152963106Y28918323D01*
X152958124Y28920646D01*
X152958119Y28920649D01*
X152772475Y29007216D01*
X152772474Y29007217D01*
X152767493Y29009539D01*
X152762185Y29010961D01*
X152762183Y29010962D01*
X152564328Y29063977D01*
X152564326Y29063977D01*
X152559013Y29065401D01*
X152344000Y29084212D01*
X152128987Y29065401D01*
X152123674Y29063977D01*
X152123672Y29063977D01*
X151925817Y29010962D01*
X151925815Y29010961D01*
X151920507Y29009539D01*
X151915526Y29007217D01*
X151915525Y29007216D01*
X151729881Y28920649D01*
X151729876Y28920646D01*
X151724894Y28918323D01*
X151548093Y28794525D01*
X151395475Y28641907D01*
X151271677Y28465106D01*
X151269354Y28460124D01*
X151269351Y28460119D01*
X151182784Y28274475D01*
X151180461Y28269493D01*
X151179039Y28264185D01*
X151179038Y28264183D01*
X151168032Y28223108D01*
X151124599Y28061013D01*
X151105788Y27846000D01*
X151124599Y27630987D01*
X151126023Y27625674D01*
X151126023Y27625672D01*
X151150792Y27533235D01*
X151180461Y27422507D01*
X151182783Y27417526D01*
X151182784Y27417525D01*
X151269351Y27231881D01*
X151269354Y27231876D01*
X151271677Y27226894D01*
X151395475Y27050093D01*
X151548093Y26897475D01*
X151724894Y26773677D01*
X151729876Y26771354D01*
X151729881Y26771351D01*
X151818203Y26730166D01*
X151920507Y26682461D01*
X151925815Y26681039D01*
X151925817Y26681038D01*
X152123672Y26628023D01*
X152123674Y26628023D01*
X152128987Y26626599D01*
X152344000Y26607788D01*
X152559013Y26626599D01*
X152564326Y26628023D01*
X152564328Y26628023D01*
X152624784Y26644222D01*
X152695761Y26642532D01*
X152754556Y26602738D01*
X152782504Y26537473D01*
X152770730Y26467460D01*
X152730296Y26419746D01*
X152616389Y26338946D01*
X152470119Y26186150D01*
X152355380Y26008452D01*
X152276314Y25812263D01*
X152235772Y25604663D01*
X152235500Y25599101D01*
X152235500Y24743154D01*
X152250548Y24585434D01*
X152252236Y24579680D01*
X152252238Y24579670D01*
X152265511Y24534428D01*
X152265495Y24463431D01*
X152227097Y24403714D01*
X152213175Y24393249D01*
X151431853Y23886445D01*
X147934127Y21617650D01*
X147912647Y21606490D01*
X147713755Y21526378D01*
X147707570Y21524076D01*
X147702884Y21522867D01*
X147673492Y21510199D01*
X147670741Y21509052D01*
X147643914Y21498247D01*
X147640038Y21496002D01*
X147638830Y21495412D01*
X147633446Y21492940D01*
X147366072Y21377702D01*
X147353569Y21373082D01*
X147347992Y21371350D01*
X147343623Y21369210D01*
X147343618Y21369208D01*
X147326253Y21360703D01*
X147320707Y21358151D01*
X147305428Y21351565D01*
X147305419Y21351560D01*
X147301307Y21349788D01*
X147295643Y21346322D01*
X147285315Y21340649D01*
X146997404Y21199621D01*
X146986204Y21194882D01*
X146985061Y21194369D01*
X146980476Y21192721D01*
X146976198Y21190387D01*
X146976194Y21190385D01*
X146957960Y21180437D01*
X146953040Y21177891D01*
X146936793Y21169933D01*
X146936782Y21169927D01*
X146932771Y21167962D01*
X146929083Y21165451D01*
X146929067Y21165442D01*
X146928498Y21165054D01*
X146917944Y21158604D01*
X146702585Y21041104D01*
X146673985Y21025500D01*
X146657421Y21017960D01*
X146636513Y21010212D01*
X146636508Y21010210D01*
X146631946Y21008519D01*
X146620987Y21002397D01*
X146617160Y20999403D01*
X146617149Y20999396D01*
X146596817Y20983491D01*
X146584015Y20974692D01*
X146546721Y20952314D01*
X146533209Y20944206D01*
X146532224Y20943563D01*
X146532211Y20943555D01*
X146455439Y20893449D01*
X146445179Y20886753D01*
X146403558Y20857289D01*
X146387628Y20847694D01*
X146366773Y20837147D01*
X146361898Y20833647D01*
X146361659Y20833522D01*
X146361464Y20833335D01*
X146356576Y20829825D01*
X146353111Y20826417D01*
X146353110Y20826416D01*
X146341715Y20815208D01*
X146325537Y20801760D01*
X146311497Y20791948D01*
X146306245Y20788469D01*
X146259092Y20758909D01*
X146253689Y20755707D01*
X146247255Y20752108D01*
X146242085Y20749216D01*
X146221477Y20740006D01*
X146214001Y20737440D01*
X146213995Y20737437D01*
X146205504Y20734523D01*
X146198172Y20729343D01*
X146186533Y20721120D01*
X146169569Y20711028D01*
X145894379Y20575287D01*
X145888296Y20572485D01*
X145541485Y20423774D01*
X145534833Y20421143D01*
X145511454Y20412654D01*
X145440597Y20408205D01*
X145378583Y20442771D01*
X145353802Y20478822D01*
X137912414Y36801866D01*
X144799500Y36801866D01*
X144806255Y36739684D01*
X144857385Y36603295D01*
X144944739Y36486739D01*
X145061295Y36399385D01*
X145197684Y36348255D01*
X145259866Y36341500D01*
X147280159Y36341500D01*
X147348280Y36321498D01*
X147394773Y36267842D01*
X147404877Y36197568D01*
X147373797Y36131192D01*
X147342960Y36096944D01*
X147247473Y35931556D01*
X147188458Y35749928D01*
X147187768Y35743367D01*
X147187768Y35743365D01*
X147180191Y35671271D01*
X147168496Y35560000D01*
X147188458Y35370072D01*
X147247473Y35188444D01*
X147342960Y35023056D01*
X147347378Y35018149D01*
X147347379Y35018148D01*
X147429899Y34926500D01*
X147470747Y34881134D01*
X147530255Y34837899D01*
X147617143Y34774771D01*
X147625248Y34768882D01*
X147631276Y34766198D01*
X147631278Y34766197D01*
X147683701Y34742857D01*
X147799712Y34691206D01*
X147893113Y34671353D01*
X147980056Y34652872D01*
X147980061Y34652872D01*
X147986513Y34651500D01*
X148177487Y34651500D01*
X148183939Y34652872D01*
X148183944Y34652872D01*
X148270888Y34671353D01*
X148364288Y34691206D01*
X148480299Y34742857D01*
X148532722Y34766197D01*
X148532724Y34766198D01*
X148538752Y34768882D01*
X148546858Y34774771D01*
X148671671Y34865454D01*
X148693253Y34881134D01*
X148697668Y34886037D01*
X148702580Y34890460D01*
X148703705Y34889211D01*
X148757014Y34922051D01*
X148790200Y34926500D01*
X149719313Y34926500D01*
X149787434Y34906498D01*
X149828431Y34863502D01*
X149882960Y34769056D01*
X149887378Y34764149D01*
X149887379Y34764148D01*
X149931550Y34715091D01*
X150010747Y34627134D01*
X150109843Y34555136D01*
X150134324Y34537350D01*
X150165248Y34514882D01*
X150171276Y34512198D01*
X150171278Y34512197D01*
X150329636Y34441692D01*
X150339712Y34437206D01*
X150404142Y34423511D01*
X150520056Y34398872D01*
X150520061Y34398872D01*
X150526513Y34397500D01*
X150717487Y34397500D01*
X150723939Y34398872D01*
X150723944Y34398872D01*
X150839858Y34423511D01*
X150904288Y34437206D01*
X150914364Y34441692D01*
X151072722Y34512197D01*
X151072724Y34512198D01*
X151078752Y34514882D01*
X151109677Y34537350D01*
X151134157Y34555136D01*
X151233253Y34627134D01*
X151312450Y34715091D01*
X151356621Y34764148D01*
X151356622Y34764149D01*
X151361040Y34769056D01*
X151456527Y34934444D01*
X151515542Y35116072D01*
X151535504Y35306000D01*
X151515542Y35495928D01*
X151456527Y35677556D01*
X151361040Y35842944D01*
X151281254Y35931556D01*
X151237675Y35979955D01*
X151237674Y35979956D01*
X151233253Y35984866D01*
X151134157Y36056864D01*
X151084094Y36093237D01*
X151084093Y36093238D01*
X151078752Y36097118D01*
X151072721Y36099803D01*
X151072716Y36099806D01*
X151071398Y36100393D01*
X151070759Y36100936D01*
X151066999Y36103107D01*
X151067396Y36103794D01*
X151017301Y36146372D01*
X150996651Y36214299D01*
X151016003Y36282607D01*
X151069213Y36329610D01*
X151122645Y36341500D01*
X151666134Y36341500D01*
X151728316Y36348255D01*
X151864705Y36399385D01*
X151981261Y36486739D01*
X152047675Y36575355D01*
X152104533Y36617869D01*
X152175351Y36622895D01*
X152237645Y36588835D01*
X152271635Y36526504D01*
X152274500Y36499789D01*
X152274500Y30794595D01*
X152254498Y30726474D01*
X152237595Y30705500D01*
X152174500Y30642405D01*
X152112188Y30608379D01*
X152085405Y30605500D01*
X148536200Y30605500D01*
X148468079Y30625502D01*
X148448853Y30641843D01*
X148448580Y30641540D01*
X148443668Y30645963D01*
X148439253Y30650866D01*
X148303859Y30749236D01*
X148290094Y30759237D01*
X148290093Y30759238D01*
X148284752Y30763118D01*
X148278724Y30765802D01*
X148278722Y30765803D01*
X148116319Y30838109D01*
X148116318Y30838109D01*
X148110288Y30840794D01*
X148016887Y30860647D01*
X147929944Y30879128D01*
X147929939Y30879128D01*
X147923487Y30880500D01*
X147732513Y30880500D01*
X147726061Y30879128D01*
X147726056Y30879128D01*
X147639113Y30860647D01*
X147545712Y30840794D01*
X147539682Y30838109D01*
X147539681Y30838109D01*
X147377278Y30765803D01*
X147377276Y30765802D01*
X147371248Y30763118D01*
X147365907Y30759238D01*
X147365906Y30759237D01*
X147352141Y30749236D01*
X147216747Y30650866D01*
X147212326Y30645956D01*
X147212325Y30645955D01*
X147178492Y30608379D01*
X147088960Y30508944D01*
X147067163Y30471190D01*
X146997994Y30351386D01*
X146993473Y30343556D01*
X146934458Y30161928D01*
X146933768Y30155367D01*
X146933768Y30155365D01*
X146921548Y30039095D01*
X146914496Y29972000D01*
X146934458Y29782072D01*
X146993473Y29600444D01*
X147088960Y29435056D01*
X147093378Y29430149D01*
X147093379Y29430148D01*
X147176403Y29337941D01*
X147216747Y29293134D01*
X147222096Y29289248D01*
X147225090Y29286552D01*
X147262330Y29226106D01*
X147260979Y29155122D01*
X147221465Y29096137D01*
X147151764Y29067395D01*
X147134478Y29065882D01*
X147134471Y29065881D01*
X147128987Y29065401D01*
X147123674Y29063977D01*
X147123672Y29063977D01*
X146925817Y29010962D01*
X146925815Y29010961D01*
X146920507Y29009539D01*
X146915526Y29007217D01*
X146915525Y29007216D01*
X146729881Y28920649D01*
X146729876Y28920646D01*
X146724894Y28918323D01*
X146548093Y28794525D01*
X146395475Y28641907D01*
X146271677Y28465106D01*
X146269354Y28460124D01*
X146269351Y28460119D01*
X146182784Y28274475D01*
X146180461Y28269493D01*
X146179039Y28264185D01*
X146179038Y28264183D01*
X146168032Y28223108D01*
X146124599Y28061013D01*
X146105788Y27846000D01*
X146124599Y27630987D01*
X146126023Y27625674D01*
X146126023Y27625672D01*
X146150792Y27533235D01*
X146180461Y27422507D01*
X146182783Y27417526D01*
X146182784Y27417525D01*
X146269351Y27231881D01*
X146269354Y27231876D01*
X146271677Y27226894D01*
X146395475Y27050093D01*
X146548093Y26897475D01*
X146552601Y26894318D01*
X146552604Y26894316D01*
X146674094Y26809248D01*
X146718422Y26753791D01*
X146725731Y26683172D01*
X146693700Y26619811D01*
X146632499Y26583826D01*
X146583743Y26581339D01*
X146404336Y26607352D01*
X146404333Y26607352D01*
X146398396Y26608213D01*
X146187101Y26598433D01*
X146055923Y26566819D01*
X145987299Y26550281D01*
X145987297Y26550280D01*
X145981466Y26548875D01*
X145976008Y26546393D01*
X145976004Y26546392D01*
X145860959Y26494084D01*
X145788913Y26461326D01*
X145616389Y26338946D01*
X145470119Y26186150D01*
X145355380Y26008452D01*
X145276314Y25812263D01*
X145235772Y25604663D01*
X145235500Y25599101D01*
X145235500Y24743154D01*
X145250548Y24585434D01*
X145310092Y24382466D01*
X145406942Y24194420D01*
X145537604Y24028080D01*
X145542135Y24024148D01*
X145542138Y24024145D01*
X145628058Y23949588D01*
X145697363Y23889448D01*
X145702549Y23886448D01*
X145702553Y23886445D01*
X145798957Y23830674D01*
X145880454Y23783527D01*
X146080271Y23714139D01*
X146086206Y23713278D01*
X146086208Y23713278D01*
X146283664Y23684648D01*
X146283667Y23684648D01*
X146289604Y23683787D01*
X146500899Y23693567D01*
X146632077Y23725181D01*
X146700701Y23741719D01*
X146700703Y23741720D01*
X146706534Y23743125D01*
X146711992Y23745607D01*
X146711996Y23745608D01*
X146827041Y23797916D01*
X146899087Y23830674D01*
X147071611Y23953054D01*
X147217881Y24105850D01*
X147332620Y24283548D01*
X147381048Y24403714D01*
X147409442Y24474168D01*
X147409443Y24474171D01*
X147411686Y24479737D01*
X147452228Y24687337D01*
X147452500Y24692899D01*
X147452500Y25548846D01*
X147437452Y25706566D01*
X147377908Y25909534D01*
X147369756Y25925362D01*
X147283804Y26092249D01*
X147283802Y26092252D01*
X147281058Y26097580D01*
X147150396Y26263920D01*
X147145865Y26267852D01*
X147145862Y26267855D01*
X146995167Y26398621D01*
X146990637Y26402552D01*
X146979818Y26408811D01*
X146975492Y26411314D01*
X146926545Y26462741D01*
X146913172Y26532467D01*
X146939619Y26598354D01*
X146997489Y26639483D01*
X147071203Y26642082D01*
X147123665Y26628024D01*
X147123676Y26628022D01*
X147128987Y26626599D01*
X147344000Y26607788D01*
X147559013Y26626599D01*
X147564326Y26628023D01*
X147564328Y26628023D01*
X147762183Y26681038D01*
X147762185Y26681039D01*
X147767493Y26682461D01*
X147869797Y26730166D01*
X147958119Y26771351D01*
X147958124Y26771354D01*
X147963106Y26773677D01*
X148139907Y26897475D01*
X148292525Y27050093D01*
X148416323Y27226894D01*
X148418646Y27231876D01*
X148418649Y27231881D01*
X148505216Y27417525D01*
X148505217Y27417526D01*
X148507539Y27422507D01*
X148537209Y27533235D01*
X148561977Y27625672D01*
X148561977Y27625674D01*
X148563401Y27630987D01*
X148582212Y27846000D01*
X148563401Y28061013D01*
X148519968Y28223108D01*
X148508962Y28264183D01*
X148508961Y28264185D01*
X148507539Y28269493D01*
X148505216Y28274475D01*
X148418649Y28460119D01*
X148418646Y28460124D01*
X148416323Y28465106D01*
X148292525Y28641907D01*
X148139907Y28794525D01*
X148135396Y28797684D01*
X148032202Y28869942D01*
X147987873Y28925400D01*
X147980565Y28996019D01*
X148012596Y29059379D01*
X148078276Y29096402D01*
X148088018Y29098472D01*
X148103830Y29101833D01*
X148103833Y29101834D01*
X148110288Y29103206D01*
X148226894Y29155122D01*
X148278722Y29178197D01*
X148278724Y29178198D01*
X148284752Y29180882D01*
X148439253Y29293134D01*
X148443668Y29298037D01*
X148448580Y29302460D01*
X148449705Y29301211D01*
X148503014Y29334051D01*
X148536200Y29338500D01*
X152321233Y29338500D01*
X152332416Y29337973D01*
X152339909Y29336298D01*
X152347835Y29336547D01*
X152347836Y29336547D01*
X152407986Y29338438D01*
X152411945Y29338500D01*
X152439856Y29338500D01*
X152443791Y29338997D01*
X152443856Y29339005D01*
X152455693Y29339938D01*
X152487951Y29340952D01*
X152491970Y29341078D01*
X152499889Y29341327D01*
X152519343Y29346979D01*
X152538700Y29350987D01*
X152550930Y29352532D01*
X152550931Y29352532D01*
X152558797Y29353526D01*
X152566168Y29356445D01*
X152566170Y29356445D01*
X152599912Y29369804D01*
X152611142Y29373649D01*
X152645983Y29383771D01*
X152645984Y29383771D01*
X152653593Y29385982D01*
X152660412Y29390015D01*
X152660417Y29390017D01*
X152671028Y29396293D01*
X152688776Y29404988D01*
X152707617Y29412448D01*
X152743387Y29438436D01*
X152753307Y29444952D01*
X152784535Y29463420D01*
X152784538Y29463422D01*
X152791362Y29467458D01*
X152805683Y29481779D01*
X152820717Y29494620D01*
X152830694Y29501869D01*
X152837107Y29506528D01*
X152865298Y29540605D01*
X152873288Y29549384D01*
X153300247Y29976343D01*
X153308537Y29983887D01*
X153315018Y29988000D01*
X153361659Y30037668D01*
X153364413Y30040509D01*
X153384134Y30060230D01*
X153386612Y30063425D01*
X153394318Y30072447D01*
X153419158Y30098899D01*
X153424586Y30104679D01*
X153434346Y30122432D01*
X153445199Y30138955D01*
X153452753Y30148694D01*
X153457613Y30154959D01*
X153475176Y30195543D01*
X153480383Y30206173D01*
X153501695Y30244940D01*
X153503666Y30252617D01*
X153503668Y30252622D01*
X153506732Y30264558D01*
X153513138Y30283270D01*
X153518034Y30294583D01*
X153521181Y30301855D01*
X153526791Y30337271D01*
X153528097Y30345519D01*
X153530504Y30357140D01*
X153539528Y30392289D01*
X153539528Y30392290D01*
X153541500Y30399970D01*
X153541500Y30420231D01*
X153543051Y30439942D01*
X153544979Y30452115D01*
X153546219Y30459943D01*
X153542059Y30503954D01*
X153541500Y30515811D01*
X153541500Y34540600D01*
X156133500Y34540600D01*
X156133837Y34537354D01*
X156133837Y34537350D01*
X156135766Y34518763D01*
X156144474Y34434834D01*
X156146655Y34428298D01*
X156146655Y34428296D01*
X156165483Y34371863D01*
X156200450Y34267054D01*
X156293522Y34116652D01*
X156418697Y33991695D01*
X156424927Y33987855D01*
X156424928Y33987854D01*
X156562090Y33903306D01*
X156569262Y33898885D01*
X156594217Y33890608D01*
X156730611Y33845368D01*
X156730613Y33845368D01*
X156737139Y33843203D01*
X156743975Y33842503D01*
X156743978Y33842502D01*
X156782386Y33838567D01*
X156841600Y33832500D01*
X157642400Y33832500D01*
X157645646Y33832837D01*
X157645650Y33832837D01*
X157741308Y33842762D01*
X157741312Y33842763D01*
X157748166Y33843474D01*
X157754702Y33845655D01*
X157754704Y33845655D01*
X157889443Y33890608D01*
X157915946Y33899450D01*
X158066348Y33992522D01*
X158191305Y34117697D01*
X158223075Y34169236D01*
X158275846Y34216729D01*
X158345918Y34228153D01*
X158411042Y34199879D01*
X158429418Y34180955D01*
X158435604Y34173080D01*
X158440135Y34169148D01*
X158440138Y34169145D01*
X158558962Y34066035D01*
X158595363Y34034448D01*
X158600549Y34031448D01*
X158600553Y34031445D01*
X158696957Y33975674D01*
X158778454Y33928527D01*
X158978271Y33859139D01*
X158984206Y33858278D01*
X158984208Y33858278D01*
X159181664Y33829648D01*
X159181667Y33829648D01*
X159187604Y33828787D01*
X159398899Y33838567D01*
X159530077Y33870181D01*
X159598701Y33886719D01*
X159598703Y33886720D01*
X159604534Y33888125D01*
X159609992Y33890607D01*
X159609996Y33890608D01*
X159771132Y33963873D01*
X159797087Y33975674D01*
X159969611Y34098054D01*
X160115881Y34250850D01*
X160230620Y34428548D01*
X160265413Y34514882D01*
X160307442Y34619168D01*
X160307443Y34619171D01*
X160309686Y34624737D01*
X160350228Y34832337D01*
X160350500Y34837899D01*
X160350500Y35543846D01*
X160335452Y35701566D01*
X160275908Y35904534D01*
X160237064Y35979955D01*
X160181804Y36087249D01*
X160181802Y36087252D01*
X160179058Y36092580D01*
X160048396Y36258920D01*
X160043865Y36262852D01*
X160043862Y36262855D01*
X159893167Y36393621D01*
X159888637Y36397552D01*
X159883451Y36400552D01*
X159883447Y36400555D01*
X159710742Y36500467D01*
X159705546Y36503473D01*
X159505729Y36572861D01*
X159499794Y36573722D01*
X159499792Y36573722D01*
X159302336Y36602352D01*
X159302333Y36602352D01*
X159296396Y36603213D01*
X159085101Y36593433D01*
X158953923Y36561819D01*
X158885299Y36545281D01*
X158885297Y36545280D01*
X158879466Y36543875D01*
X158874008Y36541393D01*
X158874004Y36541392D01*
X158782504Y36499789D01*
X158686913Y36456326D01*
X158514389Y36333946D01*
X158510247Y36329619D01*
X158510241Y36329614D01*
X158423194Y36238683D01*
X158361639Y36203306D01*
X158290730Y36206825D01*
X158232979Y36248121D01*
X158225032Y36259509D01*
X158190478Y36315348D01*
X158065303Y36440305D01*
X158023787Y36465896D01*
X157920968Y36529275D01*
X157920966Y36529276D01*
X157914738Y36533115D01*
X157787391Y36575354D01*
X157753389Y36586632D01*
X157753387Y36586632D01*
X157746861Y36588797D01*
X157740025Y36589497D01*
X157740022Y36589498D01*
X157696969Y36593909D01*
X157642400Y36599500D01*
X156841600Y36599500D01*
X156838354Y36599163D01*
X156838350Y36599163D01*
X156742692Y36589238D01*
X156742688Y36589237D01*
X156735834Y36588526D01*
X156729298Y36586345D01*
X156729296Y36586345D01*
X156629113Y36552921D01*
X156568054Y36532550D01*
X156417652Y36439478D01*
X156292695Y36314303D01*
X156288855Y36308073D01*
X156288854Y36308072D01*
X156218231Y36193500D01*
X156199885Y36163738D01*
X156144203Y35995861D01*
X156133500Y35891400D01*
X156133500Y34540600D01*
X153541500Y34540600D01*
X153541500Y37531406D01*
X153561502Y37599527D01*
X153578405Y37620501D01*
X154128499Y38170595D01*
X154190811Y38204621D01*
X154217594Y38207500D01*
X154273487Y38207500D01*
X154279939Y38208872D01*
X154279944Y38208872D01*
X154366887Y38227353D01*
X154460288Y38247206D01*
X154466319Y38249891D01*
X154628722Y38322197D01*
X154628724Y38322198D01*
X154634752Y38324882D01*
X154652808Y38338000D01*
X154690157Y38365136D01*
X154789253Y38437134D01*
X154917040Y38579056D01*
X155012527Y38744444D01*
X155071542Y38926072D01*
X155091504Y39116000D01*
X155088907Y39140708D01*
X155072232Y39299365D01*
X155072232Y39299367D01*
X155071542Y39305928D01*
X155012527Y39487556D01*
X154917040Y39652944D01*
X154862731Y39713261D01*
X154793675Y39789955D01*
X154793674Y39789956D01*
X154789253Y39794866D01*
X154634752Y39907118D01*
X154628724Y39909802D01*
X154628722Y39909803D01*
X154466319Y39982109D01*
X154466318Y39982109D01*
X154460288Y39984794D01*
X154366887Y40004647D01*
X154279944Y40023128D01*
X154279939Y40023128D01*
X154273487Y40024500D01*
X154082513Y40024500D01*
X154076061Y40023128D01*
X154076056Y40023128D01*
X153989112Y40004647D01*
X153895712Y39984794D01*
X153889682Y39982109D01*
X153889681Y39982109D01*
X153727278Y39909803D01*
X153727276Y39909802D01*
X153721248Y39907118D01*
X153566747Y39794866D01*
X153562326Y39789956D01*
X153562325Y39789955D01*
X153493270Y39713261D01*
X153438960Y39652944D01*
X153343473Y39487556D01*
X153284458Y39305928D01*
X153283768Y39299367D01*
X153283768Y39299365D01*
X153267093Y39140708D01*
X153240080Y39075051D01*
X153230878Y39064783D01*
X152515747Y38349652D01*
X152507461Y38342112D01*
X152500982Y38338000D01*
X152495557Y38332223D01*
X152454357Y38288349D01*
X152451602Y38285507D01*
X152431865Y38265770D01*
X152429385Y38262573D01*
X152421682Y38253553D01*
X152391414Y38221321D01*
X152387595Y38214375D01*
X152387593Y38214372D01*
X152381652Y38203566D01*
X152370801Y38187047D01*
X152358386Y38171041D01*
X152358380Y38171028D01*
X152309061Y38124978D01*
X152239210Y38112273D01*
X152173579Y38139348D01*
X152133005Y38197609D01*
X152126500Y38237570D01*
X152126500Y39398134D01*
X152119745Y39460316D01*
X152068615Y39596705D01*
X151981261Y39713261D01*
X151864705Y39800615D01*
X151728316Y39851745D01*
X151666134Y39858500D01*
X149069866Y39858500D01*
X149007684Y39851745D01*
X148871295Y39800615D01*
X148754739Y39713261D01*
X148667385Y39596705D01*
X148616255Y39460316D01*
X148609500Y39398134D01*
X148609500Y36801866D01*
X148616255Y36739684D01*
X148667385Y36603295D01*
X148705138Y36552921D01*
X148734963Y36513126D01*
X148759811Y36446620D01*
X148744758Y36377237D01*
X148694584Y36327007D01*
X148625218Y36311877D01*
X148560077Y36335624D01*
X148538752Y36351118D01*
X148532724Y36353802D01*
X148532722Y36353803D01*
X148370319Y36426109D01*
X148370318Y36426109D01*
X148364288Y36428794D01*
X148357827Y36430167D01*
X148357825Y36430168D01*
X148348407Y36432170D01*
X148285932Y36465896D01*
X148251609Y36528045D01*
X148256335Y36598884D01*
X148257915Y36602362D01*
X148258615Y36603295D01*
X148264481Y36618941D01*
X148306971Y36732285D01*
X148309745Y36739684D01*
X148316500Y36801866D01*
X148316500Y39398134D01*
X148309745Y39460316D01*
X148258615Y39596705D01*
X148171261Y39713261D01*
X148054705Y39800615D01*
X147918316Y39851745D01*
X147856134Y39858500D01*
X145259866Y39858500D01*
X145197684Y39851745D01*
X145061295Y39800615D01*
X144944739Y39713261D01*
X144857385Y39596705D01*
X144806255Y39460316D01*
X144799500Y39398134D01*
X144799500Y36801866D01*
X137912414Y36801866D01*
X137680395Y37310811D01*
X137669134Y37367858D01*
X138005595Y46228000D01*
X148438496Y46228000D01*
X148458458Y46038072D01*
X148517473Y45856444D01*
X148612960Y45691056D01*
X148617378Y45686149D01*
X148617379Y45686148D01*
X148730429Y45560593D01*
X148740747Y45549134D01*
X148895248Y45436882D01*
X148901276Y45434198D01*
X148901278Y45434197D01*
X148988481Y45395372D01*
X149069712Y45359206D01*
X149163113Y45339353D01*
X149250056Y45320872D01*
X149250061Y45320872D01*
X149256513Y45319500D01*
X149447487Y45319500D01*
X149453939Y45320872D01*
X149453944Y45320872D01*
X149540887Y45339353D01*
X149634288Y45359206D01*
X149715519Y45395372D01*
X149802722Y45434197D01*
X149802724Y45434198D01*
X149808752Y45436882D01*
X149963253Y45549134D01*
X149967668Y45554037D01*
X149972580Y45558460D01*
X149973705Y45557211D01*
X150027014Y45590051D01*
X150060200Y45594500D01*
X151691800Y45594500D01*
X151759921Y45574498D01*
X151779147Y45558157D01*
X151779420Y45558460D01*
X151784332Y45554037D01*
X151788747Y45549134D01*
X151943248Y45436882D01*
X151949276Y45434198D01*
X151949278Y45434197D01*
X152036481Y45395372D01*
X152117712Y45359206D01*
X152211113Y45339353D01*
X152298056Y45320872D01*
X152298061Y45320872D01*
X152304513Y45319500D01*
X152495487Y45319500D01*
X152501939Y45320872D01*
X152501944Y45320872D01*
X152588887Y45339353D01*
X152682288Y45359206D01*
X152763519Y45395372D01*
X152850722Y45434197D01*
X152850724Y45434198D01*
X152856752Y45436882D01*
X153011253Y45549134D01*
X153021571Y45560593D01*
X153043817Y45585300D01*
X155094696Y45585300D01*
X155114658Y45395372D01*
X155173673Y45213744D01*
X155269160Y45048356D01*
X155396947Y44906434D01*
X155551448Y44794182D01*
X155557476Y44791498D01*
X155557478Y44791497D01*
X155719881Y44719191D01*
X155725912Y44716506D01*
X155819312Y44696653D01*
X155906256Y44678172D01*
X155906261Y44678172D01*
X155912713Y44676800D01*
X156103687Y44676800D01*
X156110139Y44678172D01*
X156110144Y44678172D01*
X156197088Y44696653D01*
X156290488Y44716506D01*
X156296519Y44719191D01*
X156458922Y44791497D01*
X156458924Y44791498D01*
X156464952Y44794182D01*
X156619453Y44906434D01*
X156747240Y45048356D01*
X156842727Y45213744D01*
X156901742Y45395372D01*
X156919107Y45560594D01*
X156946120Y45626250D01*
X156955322Y45636518D01*
X162416170Y51097366D01*
X167013500Y51097366D01*
X167020255Y51035184D01*
X167071385Y50898795D01*
X167158739Y50782239D01*
X167275295Y50694885D01*
X167411684Y50643755D01*
X167473866Y50637000D01*
X169870134Y50637000D01*
X169932316Y50643755D01*
X170068705Y50694885D01*
X170185261Y50782239D01*
X170272615Y50898795D01*
X170323745Y51035184D01*
X170330500Y51097366D01*
X170330500Y53993634D01*
X170323745Y54055816D01*
X170272615Y54192205D01*
X170185261Y54308761D01*
X170068705Y54396115D01*
X169932316Y54447245D01*
X169870134Y54454000D01*
X167473866Y54454000D01*
X167411684Y54447245D01*
X167275295Y54396115D01*
X167158739Y54308761D01*
X167071385Y54192205D01*
X167020255Y54055816D01*
X167013500Y53993634D01*
X167013500Y51097366D01*
X162416170Y51097366D01*
X163286799Y51967995D01*
X163349111Y52002021D01*
X163375894Y52004900D01*
X163532587Y52004900D01*
X163539039Y52006272D01*
X163539044Y52006272D01*
X163625988Y52024753D01*
X163719388Y52044606D01*
X163761679Y52063435D01*
X163887822Y52119597D01*
X163887824Y52119598D01*
X163893852Y52122282D01*
X164048353Y52234534D01*
X164063245Y52251073D01*
X164171721Y52371548D01*
X164171722Y52371549D01*
X164176140Y52376456D01*
X164271627Y52541844D01*
X164330642Y52723472D01*
X164333457Y52750249D01*
X164349914Y52906835D01*
X164350604Y52913400D01*
X164335459Y53057499D01*
X164331332Y53096765D01*
X164331332Y53096767D01*
X164330642Y53103328D01*
X164271627Y53284956D01*
X164176140Y53450344D01*
X164117238Y53515762D01*
X164052775Y53587355D01*
X164052774Y53587356D01*
X164048353Y53592266D01*
X163893852Y53704518D01*
X163887824Y53707202D01*
X163887822Y53707203D01*
X163725419Y53779509D01*
X163725418Y53779509D01*
X163719388Y53782194D01*
X163625988Y53802047D01*
X163539044Y53820528D01*
X163539039Y53820528D01*
X163532587Y53821900D01*
X163341613Y53821900D01*
X163335161Y53820528D01*
X163335156Y53820528D01*
X163248212Y53802047D01*
X163154812Y53782194D01*
X163148782Y53779509D01*
X163148781Y53779509D01*
X162986378Y53707203D01*
X162986376Y53707202D01*
X162980348Y53704518D01*
X162825847Y53592266D01*
X162821426Y53587356D01*
X162821425Y53587355D01*
X162756963Y53515762D01*
X162698060Y53450344D01*
X162602573Y53284956D01*
X162543558Y53103328D01*
X162542868Y53096765D01*
X162542868Y53096764D01*
X162538032Y53050748D01*
X162511019Y52985091D01*
X162501817Y52974822D01*
X156057700Y46530705D01*
X155995388Y46496679D01*
X155968605Y46493800D01*
X155912713Y46493800D01*
X155906261Y46492428D01*
X155906256Y46492428D01*
X155819313Y46473947D01*
X155725912Y46454094D01*
X155719882Y46451409D01*
X155719881Y46451409D01*
X155557478Y46379103D01*
X155557476Y46379102D01*
X155551448Y46376418D01*
X155396947Y46264166D01*
X155269160Y46122244D01*
X155173673Y45956856D01*
X155114658Y45775228D01*
X155094696Y45585300D01*
X153043817Y45585300D01*
X153134621Y45686148D01*
X153134622Y45686149D01*
X153139040Y45691056D01*
X153234527Y45856444D01*
X153293542Y46038072D01*
X153313504Y46228000D01*
X153293542Y46417928D01*
X153234527Y46599556D01*
X153139040Y46764944D01*
X153011253Y46906866D01*
X152856752Y47019118D01*
X152850724Y47021802D01*
X152850722Y47021803D01*
X152688319Y47094109D01*
X152688318Y47094109D01*
X152682288Y47096794D01*
X152573391Y47119941D01*
X152501944Y47135128D01*
X152501939Y47135128D01*
X152495487Y47136500D01*
X152304513Y47136500D01*
X152298061Y47135128D01*
X152298056Y47135128D01*
X152226609Y47119941D01*
X152117712Y47096794D01*
X152111682Y47094109D01*
X152111681Y47094109D01*
X151949278Y47021803D01*
X151949276Y47021802D01*
X151943248Y47019118D01*
X151788747Y46906866D01*
X151784332Y46901963D01*
X151779420Y46897540D01*
X151778295Y46898789D01*
X151724986Y46865949D01*
X151691800Y46861500D01*
X150060200Y46861500D01*
X149992079Y46881502D01*
X149972853Y46897843D01*
X149972580Y46897540D01*
X149967668Y46901963D01*
X149963253Y46906866D01*
X149808752Y47019118D01*
X149802724Y47021802D01*
X149802722Y47021803D01*
X149640319Y47094109D01*
X149640318Y47094109D01*
X149634288Y47096794D01*
X149525391Y47119941D01*
X149453944Y47135128D01*
X149453939Y47135128D01*
X149447487Y47136500D01*
X149256513Y47136500D01*
X149250061Y47135128D01*
X149250056Y47135128D01*
X149178609Y47119941D01*
X149069712Y47096794D01*
X149063682Y47094109D01*
X149063681Y47094109D01*
X148901278Y47021803D01*
X148901276Y47021802D01*
X148895248Y47019118D01*
X148740747Y46906866D01*
X148612960Y46764944D01*
X148517473Y46599556D01*
X148458458Y46417928D01*
X148438496Y46228000D01*
X138005595Y46228000D01*
X138429923Y57401963D01*
X138429923Y57401974D01*
X138430000Y57404000D01*
X138396313Y58674000D01*
X164694496Y58674000D01*
X164695186Y58667435D01*
X164705342Y58570810D01*
X164714458Y58484072D01*
X164773473Y58302444D01*
X164868960Y58137056D01*
X164942137Y58055785D01*
X164972853Y57991779D01*
X164974500Y57971476D01*
X164974500Y57482767D01*
X164973973Y57471584D01*
X164972298Y57464091D01*
X164972547Y57456165D01*
X164972547Y57456164D01*
X164974438Y57396014D01*
X164974500Y57392055D01*
X164974500Y57364144D01*
X164974997Y57360210D01*
X164974997Y57360209D01*
X164975005Y57360144D01*
X164975938Y57348307D01*
X164977327Y57304111D01*
X164981806Y57288694D01*
X164982978Y57284661D01*
X164986987Y57265300D01*
X164989526Y57245203D01*
X164992445Y57237832D01*
X164992445Y57237830D01*
X165005804Y57204088D01*
X165009649Y57192858D01*
X165015596Y57172388D01*
X165021982Y57150407D01*
X165026015Y57143588D01*
X165026017Y57143583D01*
X165032293Y57132972D01*
X165040988Y57115224D01*
X165048448Y57096383D01*
X165053110Y57089967D01*
X165053110Y57089966D01*
X165074436Y57060613D01*
X165080952Y57050693D01*
X165103458Y57012638D01*
X165117779Y56998317D01*
X165130619Y56983284D01*
X165142528Y56966893D01*
X165148636Y56961840D01*
X165176598Y56938708D01*
X165185378Y56930718D01*
X165422878Y56693218D01*
X165456904Y56630906D01*
X165459093Y56617293D01*
X165473786Y56477499D01*
X165476458Y56452072D01*
X165535473Y56270444D01*
X165630960Y56105056D01*
X165635378Y56100149D01*
X165635379Y56100148D01*
X165672774Y56058617D01*
X165758747Y55963134D01*
X165913248Y55850882D01*
X165919276Y55848198D01*
X165919278Y55848197D01*
X165996266Y55813920D01*
X166087712Y55773206D01*
X166181113Y55753353D01*
X166268056Y55734872D01*
X166268061Y55734872D01*
X166274513Y55733500D01*
X166465487Y55733500D01*
X166471939Y55734872D01*
X166471944Y55734872D01*
X166558887Y55753353D01*
X166652288Y55773206D01*
X166743734Y55813920D01*
X166820722Y55848197D01*
X166820724Y55848198D01*
X166826752Y55850882D01*
X166981253Y55963134D01*
X167067226Y56058617D01*
X167104621Y56100148D01*
X167104622Y56100149D01*
X167109040Y56105056D01*
X167204527Y56270444D01*
X167263542Y56452072D01*
X167266215Y56477499D01*
X167282814Y56635435D01*
X167283504Y56642000D01*
X167263542Y56831928D01*
X167204527Y57013556D01*
X167201116Y57019465D01*
X167121122Y57158017D01*
X167109040Y57178944D01*
X167027646Y57269342D01*
X166985675Y57315955D01*
X166985674Y57315956D01*
X166981253Y57320866D01*
X166826752Y57433118D01*
X166820724Y57435802D01*
X166820722Y57435803D01*
X166658319Y57508109D01*
X166658318Y57508109D01*
X166652288Y57510794D01*
X166558888Y57530647D01*
X166471944Y57549128D01*
X166471939Y57549128D01*
X166465487Y57550500D01*
X166409595Y57550500D01*
X166341474Y57570502D01*
X166320500Y57587405D01*
X166278405Y57629500D01*
X166244379Y57691812D01*
X166241500Y57718595D01*
X166241500Y57971476D01*
X166261502Y58039597D01*
X166273858Y58055779D01*
X166347040Y58137056D01*
X166442527Y58302444D01*
X166480724Y58420000D01*
X170282496Y58420000D01*
X170302458Y58230072D01*
X170361473Y58048444D01*
X170456960Y57883056D01*
X170584747Y57741134D01*
X170739248Y57628882D01*
X170745276Y57626198D01*
X170745278Y57626197D01*
X170907681Y57553891D01*
X170913712Y57551206D01*
X170992105Y57534543D01*
X171094056Y57512872D01*
X171094061Y57512872D01*
X171100513Y57511500D01*
X171156406Y57511500D01*
X171224527Y57491498D01*
X171245501Y57474595D01*
X171795595Y56924501D01*
X171829621Y56862189D01*
X171832500Y56835406D01*
X171832500Y53146594D01*
X171812498Y53078473D01*
X171795595Y53057499D01*
X171753501Y53015405D01*
X171691189Y52981379D01*
X171664406Y52978500D01*
X171608513Y52978500D01*
X171602061Y52977128D01*
X171602056Y52977128D01*
X171515113Y52958647D01*
X171421712Y52938794D01*
X171415682Y52936109D01*
X171415681Y52936109D01*
X171253278Y52863803D01*
X171253276Y52863802D01*
X171247248Y52861118D01*
X171092747Y52748866D01*
X171088326Y52743956D01*
X171088325Y52743955D01*
X170982268Y52626166D01*
X170964960Y52606944D01*
X170924070Y52536121D01*
X170880133Y52460019D01*
X170869473Y52441556D01*
X170810458Y52259928D01*
X170809768Y52253367D01*
X170809768Y52253365D01*
X170807381Y52230651D01*
X170790496Y52070000D01*
X170810458Y51880072D01*
X170869473Y51698444D01*
X170964960Y51533056D01*
X171092747Y51391134D01*
X171247248Y51278882D01*
X171253276Y51276198D01*
X171253278Y51276197D01*
X171408386Y51207139D01*
X171421712Y51201206D01*
X171515112Y51181353D01*
X171602056Y51162872D01*
X171602061Y51162872D01*
X171608513Y51161500D01*
X171799487Y51161500D01*
X171805939Y51162872D01*
X171805944Y51162872D01*
X171892888Y51181353D01*
X171986288Y51201206D01*
X171999614Y51207139D01*
X172154722Y51276197D01*
X172154724Y51276198D01*
X172160752Y51278882D01*
X172315253Y51391134D01*
X172443040Y51533056D01*
X172538527Y51698444D01*
X172597542Y51880072D01*
X172614907Y52045292D01*
X172641920Y52110949D01*
X172651122Y52121218D01*
X172858258Y52328353D01*
X172866537Y52335887D01*
X172873018Y52340000D01*
X172919644Y52389652D01*
X172922398Y52392493D01*
X172942135Y52412230D01*
X172944615Y52415427D01*
X172952320Y52424449D01*
X172982586Y52456679D01*
X172986405Y52463625D01*
X172986407Y52463628D01*
X172992348Y52474434D01*
X173003199Y52490953D01*
X173010758Y52500699D01*
X173015614Y52506959D01*
X173018759Y52514228D01*
X173018762Y52514232D01*
X173033174Y52547537D01*
X173038391Y52558187D01*
X173059695Y52596940D01*
X173064733Y52616563D01*
X173071137Y52635266D01*
X173076033Y52646580D01*
X173076033Y52646581D01*
X173079181Y52653855D01*
X173080420Y52661678D01*
X173080423Y52661688D01*
X173086099Y52697524D01*
X173088505Y52709144D01*
X173097528Y52744289D01*
X173097528Y52744290D01*
X173099500Y52751970D01*
X173099500Y52772224D01*
X173101051Y52791935D01*
X173102980Y52804114D01*
X173104220Y52811943D01*
X173100059Y52855962D01*
X173099500Y52867819D01*
X173099500Y57071233D01*
X173100027Y57082416D01*
X173101702Y57089909D01*
X173099562Y57157986D01*
X173099500Y57161945D01*
X173099500Y57189856D01*
X173098995Y57193856D01*
X173098062Y57205699D01*
X173096922Y57241971D01*
X173096673Y57249890D01*
X173091022Y57269342D01*
X173087014Y57288694D01*
X173085467Y57300937D01*
X173084474Y57308797D01*
X173079696Y57320866D01*
X173068200Y57349903D01*
X173064355Y57361130D01*
X173055370Y57392055D01*
X173052018Y57403593D01*
X173047984Y57410415D01*
X173047981Y57410421D01*
X173041706Y57421032D01*
X173033010Y57438782D01*
X173028472Y57450244D01*
X173028469Y57450249D01*
X173025552Y57457617D01*
X173002316Y57489599D01*
X172999573Y57493375D01*
X172993057Y57503293D01*
X172974575Y57534543D01*
X172970542Y57541363D01*
X172956218Y57555687D01*
X172943376Y57570722D01*
X172931472Y57587107D01*
X172897406Y57615289D01*
X172888627Y57623278D01*
X172143122Y58368783D01*
X172109096Y58431095D01*
X172106907Y58444708D01*
X172106696Y58446721D01*
X172096944Y58539502D01*
X172090232Y58603365D01*
X172090232Y58603367D01*
X172089542Y58609928D01*
X172030527Y58791556D01*
X171935040Y58956944D01*
X171855254Y59045556D01*
X171811675Y59093955D01*
X171811674Y59093956D01*
X171807253Y59098866D01*
X171652752Y59211118D01*
X171646724Y59213802D01*
X171646722Y59213803D01*
X171484319Y59286109D01*
X171484318Y59286109D01*
X171478288Y59288794D01*
X171384887Y59308647D01*
X171297944Y59327128D01*
X171297939Y59327128D01*
X171291487Y59328500D01*
X171100513Y59328500D01*
X171094061Y59327128D01*
X171094056Y59327128D01*
X171007113Y59308647D01*
X170913712Y59288794D01*
X170907682Y59286109D01*
X170907681Y59286109D01*
X170745278Y59213803D01*
X170745276Y59213802D01*
X170739248Y59211118D01*
X170584747Y59098866D01*
X170580326Y59093956D01*
X170580325Y59093955D01*
X170536747Y59045556D01*
X170456960Y58956944D01*
X170361473Y58791556D01*
X170302458Y58609928D01*
X170301768Y58603367D01*
X170301768Y58603365D01*
X170295056Y58539502D01*
X170282496Y58420000D01*
X166480724Y58420000D01*
X166501542Y58484072D01*
X166510659Y58570810D01*
X166520814Y58667435D01*
X166521504Y58674000D01*
X166501542Y58863928D01*
X166442527Y59045556D01*
X166347040Y59210944D01*
X166219253Y59352866D01*
X166064752Y59465118D01*
X166058724Y59467802D01*
X166058722Y59467803D01*
X165896319Y59540109D01*
X165896318Y59540109D01*
X165890288Y59542794D01*
X165796888Y59562647D01*
X165709944Y59581128D01*
X165709939Y59581128D01*
X165703487Y59582500D01*
X165512513Y59582500D01*
X165506061Y59581128D01*
X165506056Y59581128D01*
X165419112Y59562647D01*
X165325712Y59542794D01*
X165319682Y59540109D01*
X165319681Y59540109D01*
X165157278Y59467803D01*
X165157276Y59467802D01*
X165151248Y59465118D01*
X164996747Y59352866D01*
X164868960Y59210944D01*
X164773473Y59045556D01*
X164714458Y58863928D01*
X164694496Y58674000D01*
X138396313Y58674000D01*
X138227878Y65024000D01*
X151232496Y65024000D01*
X151252458Y64834072D01*
X151311473Y64652444D01*
X151406960Y64487056D01*
X151534747Y64345134D01*
X151689248Y64232882D01*
X151695276Y64230198D01*
X151695278Y64230197D01*
X151857681Y64157891D01*
X151863712Y64155206D01*
X151957113Y64135353D01*
X152044056Y64116872D01*
X152044061Y64116872D01*
X152050513Y64115500D01*
X152241487Y64115500D01*
X152247939Y64116872D01*
X152247944Y64116872D01*
X152334887Y64135353D01*
X152428288Y64155206D01*
X152434319Y64157891D01*
X152596722Y64230197D01*
X152596724Y64230198D01*
X152602752Y64232882D01*
X152757253Y64345134D01*
X152885040Y64487056D01*
X152980527Y64652444D01*
X153039542Y64834072D01*
X153056907Y64999294D01*
X153083920Y65064950D01*
X153093122Y65075218D01*
X154713059Y66695155D01*
X154775371Y66729181D01*
X154846186Y66724116D01*
X154853400Y66721168D01*
X154911712Y66695206D01*
X155005113Y66675353D01*
X155092056Y66656872D01*
X155092061Y66656872D01*
X155098513Y66655500D01*
X155289487Y66655500D01*
X155295939Y66656872D01*
X155295944Y66656872D01*
X155382887Y66675353D01*
X155476288Y66695206D01*
X155534598Y66721167D01*
X155644722Y66770197D01*
X155644724Y66770198D01*
X155650752Y66772882D01*
X155684427Y66797348D01*
X155706157Y66813136D01*
X155805253Y66885134D01*
X155933040Y67027056D01*
X156028527Y67192444D01*
X156087542Y67374072D01*
X156107504Y67564000D01*
X156087542Y67753928D01*
X156028527Y67935556D01*
X155933040Y68100944D01*
X155916882Y68118890D01*
X155809675Y68237955D01*
X155809674Y68237956D01*
X155805253Y68242866D01*
X155691739Y68325339D01*
X155656094Y68351237D01*
X155656093Y68351238D01*
X155650752Y68355118D01*
X155644724Y68357802D01*
X155644722Y68357803D01*
X155482319Y68430109D01*
X155482318Y68430109D01*
X155476288Y68432794D01*
X155382888Y68452647D01*
X155295944Y68471128D01*
X155295939Y68471128D01*
X155289487Y68472500D01*
X155098513Y68472500D01*
X155092061Y68471128D01*
X155092056Y68471128D01*
X155005112Y68452647D01*
X154911712Y68432794D01*
X154905682Y68430109D01*
X154905681Y68430109D01*
X154743278Y68357803D01*
X154743276Y68357802D01*
X154737248Y68355118D01*
X154731907Y68351238D01*
X154731906Y68351237D01*
X154643451Y68286970D01*
X154582747Y68242866D01*
X154578329Y68237960D01*
X154578322Y68237953D01*
X154548790Y68205154D01*
X154501544Y68172315D01*
X154486086Y68166194D01*
X154474885Y68162359D01*
X154432406Y68150018D01*
X154425587Y68145985D01*
X154425582Y68145983D01*
X154414971Y68139707D01*
X154397221Y68131010D01*
X154378383Y68123552D01*
X154371967Y68118891D01*
X154371966Y68118890D01*
X154342625Y68097572D01*
X154332701Y68091053D01*
X154301460Y68072578D01*
X154301455Y68072574D01*
X154294637Y68068542D01*
X154280313Y68054218D01*
X154265281Y68041379D01*
X154248893Y68029472D01*
X154227435Y68003534D01*
X154220712Y67995407D01*
X154212722Y67986627D01*
X152195500Y65969405D01*
X152133188Y65935379D01*
X152106405Y65932500D01*
X152050513Y65932500D01*
X152044061Y65931128D01*
X152044056Y65931128D01*
X151957112Y65912647D01*
X151863712Y65892794D01*
X151857682Y65890109D01*
X151857681Y65890109D01*
X151695278Y65817803D01*
X151695276Y65817802D01*
X151689248Y65815118D01*
X151534747Y65702866D01*
X151530326Y65697956D01*
X151530325Y65697955D01*
X151484577Y65647146D01*
X151406960Y65560944D01*
X151311473Y65395556D01*
X151252458Y65213928D01*
X151232496Y65024000D01*
X138227878Y65024000D01*
X138105722Y69629305D01*
X144687251Y69629305D01*
X144687548Y69624152D01*
X144687548Y69624149D01*
X144693011Y69529410D01*
X144700110Y69406285D01*
X144701247Y69401239D01*
X144701248Y69401233D01*
X144721119Y69313061D01*
X144749222Y69188361D01*
X144833266Y68981384D01*
X144949987Y68790912D01*
X145096250Y68622062D01*
X145268126Y68479368D01*
X145461000Y68366662D01*
X145465825Y68364820D01*
X145465826Y68364819D01*
X145501394Y68351237D01*
X145669692Y68286970D01*
X145674760Y68285939D01*
X145674763Y68285938D01*
X145782017Y68264117D01*
X145888597Y68242433D01*
X145893772Y68242243D01*
X145893774Y68242243D01*
X146106673Y68234436D01*
X146106677Y68234436D01*
X146111837Y68234247D01*
X146116957Y68234903D01*
X146116959Y68234903D01*
X146328288Y68261975D01*
X146328289Y68261975D01*
X146333416Y68262632D01*
X146338366Y68264117D01*
X146542429Y68325339D01*
X146542434Y68325341D01*
X146547384Y68326826D01*
X146747994Y68425104D01*
X146929860Y68554827D01*
X147088096Y68712511D01*
X147147594Y68795311D01*
X147215435Y68889723D01*
X147218453Y68893923D01*
X147262901Y68983856D01*
X147315136Y69089547D01*
X147315137Y69089549D01*
X147317430Y69094189D01*
X147382370Y69307931D01*
X147411529Y69529410D01*
X147413156Y69596000D01*
X147410418Y69629305D01*
X162467251Y69629305D01*
X162467548Y69624152D01*
X162467548Y69624149D01*
X162473011Y69529410D01*
X162480110Y69406285D01*
X162481247Y69401239D01*
X162481248Y69401233D01*
X162501119Y69313061D01*
X162529222Y69188361D01*
X162613266Y68981384D01*
X162729987Y68790912D01*
X162876250Y68622062D01*
X163048126Y68479368D01*
X163241000Y68366662D01*
X163245825Y68364820D01*
X163245826Y68364819D01*
X163281394Y68351237D01*
X163449692Y68286970D01*
X163454760Y68285939D01*
X163454763Y68285938D01*
X163562017Y68264117D01*
X163668597Y68242433D01*
X163673772Y68242243D01*
X163673774Y68242243D01*
X163886673Y68234436D01*
X163886677Y68234436D01*
X163891837Y68234247D01*
X163896957Y68234903D01*
X163896959Y68234903D01*
X164108288Y68261975D01*
X164108289Y68261975D01*
X164113416Y68262632D01*
X164118366Y68264117D01*
X164322429Y68325339D01*
X164322434Y68325341D01*
X164327384Y68326826D01*
X164527994Y68425104D01*
X164709860Y68554827D01*
X164868096Y68712511D01*
X164927594Y68795311D01*
X164995435Y68889723D01*
X164998453Y68893923D01*
X165042901Y68983856D01*
X165095136Y69089547D01*
X165095137Y69089549D01*
X165097430Y69094189D01*
X165162370Y69307931D01*
X165191529Y69529410D01*
X165193156Y69596000D01*
X165174852Y69818639D01*
X165120431Y70035298D01*
X165031354Y70240160D01*
X164935391Y70388496D01*
X164912822Y70423383D01*
X164912820Y70423386D01*
X164910014Y70427723D01*
X164759670Y70592949D01*
X164755619Y70596148D01*
X164755615Y70596152D01*
X164588414Y70728200D01*
X164588410Y70728202D01*
X164584359Y70731402D01*
X164543053Y70754204D01*
X164493084Y70804636D01*
X164478312Y70874079D01*
X164503428Y70940484D01*
X164530780Y70967091D01*
X164574603Y70998350D01*
X164709860Y71094827D01*
X164868096Y71252511D01*
X164927594Y71335311D01*
X164995435Y71429723D01*
X164998453Y71433923D01*
X165063065Y71564655D01*
X165095136Y71629547D01*
X165095137Y71629549D01*
X165097430Y71634189D01*
X165162370Y71847931D01*
X165191529Y72069410D01*
X165191948Y72086546D01*
X165193074Y72132635D01*
X165193074Y72132639D01*
X165193156Y72136000D01*
X165174852Y72358639D01*
X165120431Y72575298D01*
X165031354Y72780160D01*
X164910014Y72967723D01*
X164759670Y73132949D01*
X164755619Y73136148D01*
X164755615Y73136152D01*
X164588414Y73268200D01*
X164588410Y73268202D01*
X164584359Y73271402D01*
X164543053Y73294204D01*
X164493084Y73344636D01*
X164478312Y73414079D01*
X164503428Y73480484D01*
X164530780Y73507091D01*
X164574603Y73538350D01*
X164709860Y73634827D01*
X164868096Y73792511D01*
X164927594Y73875311D01*
X164995435Y73969723D01*
X164998453Y73973923D01*
X165024114Y74025843D01*
X165095136Y74169547D01*
X165095137Y74169549D01*
X165097430Y74174189D01*
X165162370Y74387931D01*
X165191529Y74609410D01*
X165192666Y74655941D01*
X165193074Y74672635D01*
X165193074Y74672639D01*
X165193156Y74676000D01*
X165174852Y74898639D01*
X165120431Y75115298D01*
X165031354Y75320160D01*
X164910014Y75507723D01*
X164759670Y75672949D01*
X164755619Y75676148D01*
X164755615Y75676152D01*
X164588414Y75808200D01*
X164588410Y75808202D01*
X164584359Y75811402D01*
X164543053Y75834204D01*
X164493084Y75884636D01*
X164478312Y75954079D01*
X164503428Y76020484D01*
X164530780Y76047091D01*
X164574603Y76078350D01*
X164709860Y76174827D01*
X164868096Y76332511D01*
X164927594Y76415311D01*
X164995435Y76509723D01*
X164998453Y76513923D01*
X165097430Y76714189D01*
X165162370Y76927931D01*
X165191529Y77149410D01*
X165193156Y77216000D01*
X165174852Y77438639D01*
X165120431Y77655298D01*
X165031354Y77860160D01*
X164934608Y78009707D01*
X164912822Y78043383D01*
X164912820Y78043386D01*
X164910014Y78047723D01*
X164759670Y78212949D01*
X164755619Y78216148D01*
X164755615Y78216152D01*
X164588414Y78348200D01*
X164588410Y78348202D01*
X164584359Y78351402D01*
X164543053Y78374204D01*
X164493084Y78424636D01*
X164478312Y78494079D01*
X164503428Y78560484D01*
X164530780Y78587091D01*
X164574603Y78618350D01*
X164709860Y78714827D01*
X164868096Y78872511D01*
X164927594Y78955311D01*
X164995435Y79049723D01*
X164998453Y79053923D01*
X165097430Y79254189D01*
X165162370Y79467931D01*
X165191529Y79689410D01*
X165193156Y79756000D01*
X165174852Y79978639D01*
X165120431Y80195298D01*
X165031354Y80400160D01*
X164910014Y80587723D01*
X164759670Y80752949D01*
X164755619Y80756148D01*
X164755615Y80756152D01*
X164588414Y80888200D01*
X164588410Y80888202D01*
X164584359Y80891402D01*
X164543053Y80914204D01*
X164493084Y80964636D01*
X164486015Y80997866D01*
X166389500Y80997866D01*
X166396255Y80935684D01*
X166447385Y80799295D01*
X166534739Y80682739D01*
X166651295Y80595385D01*
X166787684Y80544255D01*
X166849866Y80537500D01*
X169446134Y80537500D01*
X169508316Y80544255D01*
X169644705Y80595385D01*
X169761261Y80682739D01*
X169848615Y80799295D01*
X169899745Y80935684D01*
X169906500Y80997866D01*
X169906500Y83594134D01*
X169899745Y83656316D01*
X169848615Y83792705D01*
X169761261Y83909261D01*
X169644705Y83996615D01*
X169508316Y84047745D01*
X169446134Y84054500D01*
X166849866Y84054500D01*
X166787684Y84047745D01*
X166651295Y83996615D01*
X166534739Y83909261D01*
X166447385Y83792705D01*
X166396255Y83656316D01*
X166389500Y83594134D01*
X166389500Y80997866D01*
X164486015Y80997866D01*
X164478312Y81034079D01*
X164503428Y81100484D01*
X164530780Y81127091D01*
X164574603Y81158350D01*
X164709860Y81254827D01*
X164868096Y81412511D01*
X164927594Y81495311D01*
X164995435Y81589723D01*
X164998453Y81593923D01*
X165097430Y81794189D01*
X165162370Y82007931D01*
X165191529Y82229410D01*
X165191611Y82232760D01*
X165193074Y82292635D01*
X165193074Y82292639D01*
X165193156Y82296000D01*
X165174852Y82518639D01*
X165120431Y82735298D01*
X165031354Y82940160D01*
X164910014Y83127723D01*
X164759670Y83292949D01*
X164755619Y83296148D01*
X164755615Y83296152D01*
X164588414Y83428200D01*
X164588410Y83428202D01*
X164584359Y83431402D01*
X164543053Y83454204D01*
X164493084Y83504636D01*
X164478312Y83574079D01*
X164503428Y83640484D01*
X164530780Y83667091D01*
X164574603Y83698350D01*
X164709860Y83794827D01*
X164868096Y83952511D01*
X164891075Y83984489D01*
X164995435Y84129723D01*
X164998453Y84133923D01*
X165089816Y84318782D01*
X165095136Y84329547D01*
X165095137Y84329549D01*
X165097430Y84334189D01*
X165129900Y84441060D01*
X165160865Y84542977D01*
X165160865Y84542979D01*
X165162370Y84547931D01*
X165191529Y84769410D01*
X165192469Y84807866D01*
X166389500Y84807866D01*
X166396255Y84745684D01*
X166447385Y84609295D01*
X166534739Y84492739D01*
X166651295Y84405385D01*
X166787684Y84354255D01*
X166849866Y84347500D01*
X169446134Y84347500D01*
X169508316Y84354255D01*
X169644705Y84405385D01*
X169761261Y84492739D01*
X169848615Y84609295D01*
X169899745Y84745684D01*
X169906500Y84807866D01*
X169906500Y87404134D01*
X169899745Y87466316D01*
X169848615Y87602705D01*
X169761261Y87719261D01*
X169644705Y87806615D01*
X169508316Y87857745D01*
X169446134Y87864500D01*
X166849866Y87864500D01*
X166787684Y87857745D01*
X166651295Y87806615D01*
X166534739Y87719261D01*
X166447385Y87602705D01*
X166396255Y87466316D01*
X166389500Y87404134D01*
X166389500Y84807866D01*
X165192469Y84807866D01*
X165193156Y84836000D01*
X165174852Y85058639D01*
X165120431Y85275298D01*
X165031354Y85480160D01*
X164910014Y85667723D01*
X164906532Y85671550D01*
X164762798Y85829512D01*
X164731746Y85893358D01*
X164740141Y85963857D01*
X164785317Y86018625D01*
X164811761Y86032294D01*
X164918297Y86072233D01*
X164926705Y86075385D01*
X165043261Y86162739D01*
X165130615Y86279295D01*
X165181745Y86415684D01*
X165188500Y86477866D01*
X165188500Y88274134D01*
X165181745Y88336316D01*
X165174366Y88356000D01*
X172274835Y88356000D01*
X172293465Y88119289D01*
X172348895Y87888406D01*
X172350788Y87883835D01*
X172350789Y87883833D01*
X172421931Y87712081D01*
X172439760Y87669037D01*
X172442346Y87664817D01*
X172561241Y87470798D01*
X172561245Y87470792D01*
X172563824Y87466584D01*
X172718031Y87286031D01*
X172898584Y87131824D01*
X172902792Y87129245D01*
X172902798Y87129241D01*
X173025649Y87053958D01*
X173101037Y87007760D01*
X173105607Y87005867D01*
X173105611Y87005865D01*
X173253056Y86944792D01*
X173320406Y86916895D01*
X173383065Y86901852D01*
X173546476Y86862620D01*
X173546482Y86862619D01*
X173551289Y86861465D01*
X173788000Y86842835D01*
X174024711Y86861465D01*
X174029518Y86862619D01*
X174029524Y86862620D01*
X174192935Y86901852D01*
X174255594Y86916895D01*
X174322944Y86944792D01*
X174470389Y87005865D01*
X174470393Y87005867D01*
X174474963Y87007760D01*
X174550351Y87053958D01*
X174673202Y87129241D01*
X174673208Y87129245D01*
X174677416Y87131824D01*
X174857969Y87286031D01*
X175012176Y87466584D01*
X175014755Y87470792D01*
X175014759Y87470798D01*
X175133654Y87664817D01*
X175136240Y87669037D01*
X175154070Y87712081D01*
X175225211Y87883833D01*
X175225212Y87883835D01*
X175227105Y87888406D01*
X175282535Y88119289D01*
X175301165Y88356000D01*
X175282535Y88592711D01*
X175262392Y88676615D01*
X175228260Y88818782D01*
X175227105Y88823594D01*
X175136240Y89042963D01*
X175133654Y89047183D01*
X175014759Y89241202D01*
X175014755Y89241208D01*
X175012176Y89245416D01*
X174857969Y89425969D01*
X174677416Y89580176D01*
X174673208Y89582755D01*
X174673202Y89582759D01*
X174479183Y89701654D01*
X174474963Y89704240D01*
X174470393Y89706133D01*
X174470389Y89706135D01*
X174260167Y89793211D01*
X174260165Y89793212D01*
X174255594Y89795105D01*
X174175391Y89814360D01*
X174029524Y89849380D01*
X174029518Y89849381D01*
X174024711Y89850535D01*
X173788000Y89869165D01*
X173551289Y89850535D01*
X173546482Y89849381D01*
X173546476Y89849380D01*
X173400609Y89814360D01*
X173320406Y89795105D01*
X173315835Y89793212D01*
X173315833Y89793211D01*
X173105611Y89706135D01*
X173105607Y89706133D01*
X173101037Y89704240D01*
X173096817Y89701654D01*
X172902798Y89582759D01*
X172902792Y89582755D01*
X172898584Y89580176D01*
X172718031Y89425969D01*
X172563824Y89245416D01*
X172561245Y89241208D01*
X172561241Y89241202D01*
X172442346Y89047183D01*
X172439760Y89042963D01*
X172348895Y88823594D01*
X172347740Y88818782D01*
X172313609Y88676615D01*
X172293465Y88592711D01*
X172274835Y88356000D01*
X165174366Y88356000D01*
X165130615Y88472705D01*
X165043261Y88589261D01*
X164926705Y88676615D01*
X164790316Y88727745D01*
X164728134Y88734500D01*
X162931866Y88734500D01*
X162869684Y88727745D01*
X162733295Y88676615D01*
X162616739Y88589261D01*
X162529385Y88472705D01*
X162478255Y88336316D01*
X162471500Y88274134D01*
X162471500Y86477866D01*
X162478255Y86415684D01*
X162529385Y86279295D01*
X162616739Y86162739D01*
X162733295Y86075385D01*
X162741704Y86072233D01*
X162741705Y86072232D01*
X162850451Y86031465D01*
X162907216Y85988824D01*
X162931916Y85922262D01*
X162916709Y85852913D01*
X162897316Y85826432D01*
X162770629Y85693862D01*
X162767715Y85689590D01*
X162767714Y85689589D01*
X162759298Y85677251D01*
X162644743Y85509320D01*
X162625812Y85468536D01*
X162570502Y85349380D01*
X162550688Y85306695D01*
X162490989Y85091430D01*
X162467251Y84869305D01*
X162467548Y84864152D01*
X162467548Y84864149D01*
X162474379Y84745684D01*
X162480110Y84646285D01*
X162481247Y84641239D01*
X162481248Y84641233D01*
X162502275Y84547931D01*
X162529222Y84428361D01*
X162613266Y84221384D01*
X162615965Y84216980D01*
X162721372Y84044971D01*
X162729987Y84030912D01*
X162876250Y83862062D01*
X163048126Y83719368D01*
X163118595Y83678189D01*
X163121445Y83676524D01*
X163170169Y83624886D01*
X163183240Y83555103D01*
X163156509Y83489331D01*
X163116055Y83455973D01*
X163103607Y83449493D01*
X163099474Y83446390D01*
X163099471Y83446388D01*
X162929100Y83318470D01*
X162924965Y83315365D01*
X162921393Y83311627D01*
X162785131Y83169037D01*
X162770629Y83153862D01*
X162644743Y82969320D01*
X162550688Y82766695D01*
X162490989Y82551430D01*
X162467251Y82329305D01*
X162467548Y82324152D01*
X162467548Y82324149D01*
X162479812Y82111453D01*
X162480110Y82106285D01*
X162481247Y82101239D01*
X162481248Y82101233D01*
X162501119Y82013061D01*
X162529222Y81888361D01*
X162613266Y81681384D01*
X162729987Y81490912D01*
X162876250Y81322062D01*
X163048126Y81179368D01*
X163118595Y81138189D01*
X163121445Y81136524D01*
X163170169Y81084886D01*
X163183240Y81015103D01*
X163156509Y80949331D01*
X163116055Y80915973D01*
X163103607Y80909493D01*
X163099474Y80906390D01*
X163099471Y80906388D01*
X162929100Y80778470D01*
X162924965Y80775365D01*
X162770629Y80613862D01*
X162644743Y80429320D01*
X162630531Y80398703D01*
X162564514Y80256480D01*
X162550688Y80226695D01*
X162490989Y80011430D01*
X162467251Y79789305D01*
X162467548Y79784152D01*
X162467548Y79784149D01*
X162473011Y79689410D01*
X162480110Y79566285D01*
X162481247Y79561239D01*
X162481248Y79561233D01*
X162501119Y79473061D01*
X162529222Y79348361D01*
X162613266Y79141384D01*
X162729987Y78950912D01*
X162876250Y78782062D01*
X163048126Y78639368D01*
X163118595Y78598189D01*
X163121445Y78596524D01*
X163170169Y78544886D01*
X163183240Y78475103D01*
X163156509Y78409331D01*
X163116055Y78375973D01*
X163103607Y78369493D01*
X163099474Y78366390D01*
X163099471Y78366388D01*
X163075247Y78348200D01*
X162924965Y78235365D01*
X162770629Y78073862D01*
X162767715Y78069590D01*
X162767714Y78069589D01*
X162690136Y77955864D01*
X162644743Y77889320D01*
X162550688Y77686695D01*
X162490989Y77471430D01*
X162467251Y77249305D01*
X162467548Y77244152D01*
X162467548Y77244149D01*
X162473011Y77149410D01*
X162480110Y77026285D01*
X162481247Y77021239D01*
X162481248Y77021233D01*
X162501119Y76933061D01*
X162529222Y76808361D01*
X162613266Y76601384D01*
X162729987Y76410912D01*
X162876250Y76242062D01*
X163048126Y76099368D01*
X163118595Y76058189D01*
X163121445Y76056524D01*
X163170169Y76004886D01*
X163183240Y75935103D01*
X163156509Y75869331D01*
X163116055Y75835973D01*
X163103607Y75829493D01*
X163099474Y75826390D01*
X163099471Y75826388D01*
X162929100Y75698470D01*
X162924965Y75695365D01*
X162770629Y75533862D01*
X162644743Y75349320D01*
X162629003Y75315410D01*
X162587332Y75225637D01*
X162550688Y75146695D01*
X162490989Y74931430D01*
X162467251Y74709305D01*
X162467548Y74704152D01*
X162467548Y74704149D01*
X162473011Y74609410D01*
X162480110Y74486285D01*
X162481247Y74481239D01*
X162481248Y74481233D01*
X162501119Y74393061D01*
X162529222Y74268361D01*
X162613266Y74061384D01*
X162664019Y73978562D01*
X162715839Y73894000D01*
X162729987Y73870912D01*
X162876250Y73702062D01*
X163048126Y73559368D01*
X163118595Y73518189D01*
X163121445Y73516524D01*
X163170169Y73464886D01*
X163183240Y73395103D01*
X163156509Y73329331D01*
X163116055Y73295973D01*
X163103607Y73289493D01*
X163099474Y73286390D01*
X163099471Y73286388D01*
X163075247Y73268200D01*
X162924965Y73155365D01*
X162770629Y72993862D01*
X162644743Y72809320D01*
X162550688Y72606695D01*
X162490989Y72391430D01*
X162467251Y72169305D01*
X162467548Y72164152D01*
X162467548Y72164149D01*
X162473011Y72069410D01*
X162480110Y71946285D01*
X162481247Y71941239D01*
X162481248Y71941233D01*
X162501119Y71853061D01*
X162529222Y71728361D01*
X162613266Y71521384D01*
X162615965Y71516980D01*
X162715839Y71354000D01*
X162729987Y71330912D01*
X162876250Y71162062D01*
X163048126Y71019368D01*
X163118595Y70978189D01*
X163121445Y70976524D01*
X163170169Y70924886D01*
X163183240Y70855103D01*
X163156509Y70789331D01*
X163116055Y70755973D01*
X163103607Y70749493D01*
X163099474Y70746390D01*
X163099471Y70746388D01*
X162929100Y70618470D01*
X162924965Y70615365D01*
X162770629Y70453862D01*
X162644743Y70269320D01*
X162629003Y70235410D01*
X162585348Y70141363D01*
X162550688Y70066695D01*
X162490989Y69851430D01*
X162467251Y69629305D01*
X147410418Y69629305D01*
X147394852Y69818639D01*
X147340431Y70035298D01*
X147251354Y70240160D01*
X147155391Y70388496D01*
X147132822Y70423383D01*
X147132820Y70423386D01*
X147130014Y70427723D01*
X146979670Y70592949D01*
X146975619Y70596148D01*
X146975615Y70596152D01*
X146808414Y70728200D01*
X146808410Y70728202D01*
X146804359Y70731402D01*
X146763053Y70754204D01*
X146713084Y70804636D01*
X146698312Y70874079D01*
X146723428Y70940484D01*
X146750780Y70967091D01*
X146794603Y70998350D01*
X146929860Y71094827D01*
X147088096Y71252511D01*
X147147594Y71335311D01*
X147215435Y71429723D01*
X147218453Y71433923D01*
X147283065Y71564655D01*
X147315136Y71629547D01*
X147315137Y71629549D01*
X147317430Y71634189D01*
X147382370Y71847931D01*
X147411529Y72069410D01*
X147411948Y72086546D01*
X147413074Y72132635D01*
X147413074Y72132639D01*
X147413156Y72136000D01*
X147394852Y72358639D01*
X147340431Y72575298D01*
X147251354Y72780160D01*
X147130014Y72967723D01*
X146979670Y73132949D01*
X146975619Y73136148D01*
X146975615Y73136152D01*
X146808414Y73268200D01*
X146808410Y73268202D01*
X146804359Y73271402D01*
X146763053Y73294204D01*
X146713084Y73344636D01*
X146698312Y73414079D01*
X146723428Y73480484D01*
X146750780Y73507091D01*
X146794603Y73538350D01*
X146929860Y73634827D01*
X147088096Y73792511D01*
X147147594Y73875311D01*
X147215435Y73969723D01*
X147218453Y73973923D01*
X147244114Y74025843D01*
X147315136Y74169547D01*
X147315137Y74169549D01*
X147317430Y74174189D01*
X147382370Y74387931D01*
X147411529Y74609410D01*
X147412666Y74655941D01*
X147413074Y74672635D01*
X147413074Y74672639D01*
X147413156Y74676000D01*
X147394852Y74898639D01*
X147340431Y75115298D01*
X147251354Y75320160D01*
X147130014Y75507723D01*
X146979670Y75672949D01*
X146975619Y75676148D01*
X146975615Y75676152D01*
X146808414Y75808200D01*
X146808410Y75808202D01*
X146804359Y75811402D01*
X146763053Y75834204D01*
X146713084Y75884636D01*
X146698312Y75954079D01*
X146723428Y76020484D01*
X146750780Y76047091D01*
X146794603Y76078350D01*
X146929860Y76174827D01*
X147088096Y76332511D01*
X147147594Y76415311D01*
X147215435Y76509723D01*
X147218453Y76513923D01*
X147317430Y76714189D01*
X147382370Y76927931D01*
X147411529Y77149410D01*
X147413156Y77216000D01*
X147394852Y77438639D01*
X147340431Y77655298D01*
X147251354Y77860160D01*
X147154608Y78009707D01*
X147132822Y78043383D01*
X147132820Y78043386D01*
X147130014Y78047723D01*
X146979670Y78212949D01*
X146975619Y78216148D01*
X146975615Y78216152D01*
X146808414Y78348200D01*
X146808410Y78348202D01*
X146804359Y78351402D01*
X146763053Y78374204D01*
X146713084Y78424636D01*
X146698312Y78494079D01*
X146723428Y78560484D01*
X146750780Y78587091D01*
X146794603Y78618350D01*
X146929860Y78714827D01*
X147088096Y78872511D01*
X147147594Y78955311D01*
X147215435Y79049723D01*
X147218453Y79053923D01*
X147317430Y79254189D01*
X147382370Y79467931D01*
X147411529Y79689410D01*
X147413156Y79756000D01*
X147394852Y79978639D01*
X147340431Y80195298D01*
X147251354Y80400160D01*
X147130014Y80587723D01*
X146979670Y80752949D01*
X146975619Y80756148D01*
X146975615Y80756152D01*
X146808414Y80888200D01*
X146808410Y80888202D01*
X146804359Y80891402D01*
X146763053Y80914204D01*
X146713084Y80964636D01*
X146698312Y81034079D01*
X146723428Y81100484D01*
X146750780Y81127091D01*
X146794603Y81158350D01*
X146929860Y81254827D01*
X147088096Y81412511D01*
X147147594Y81495311D01*
X147215435Y81589723D01*
X147218453Y81593923D01*
X147317430Y81794189D01*
X147382370Y82007931D01*
X147411529Y82229410D01*
X147411611Y82232760D01*
X147413074Y82292635D01*
X147413074Y82292639D01*
X147413156Y82296000D01*
X147394852Y82518639D01*
X147340431Y82735298D01*
X147251354Y82940160D01*
X147130014Y83127723D01*
X146979670Y83292949D01*
X146975619Y83296148D01*
X146975615Y83296152D01*
X146808414Y83428200D01*
X146808410Y83428202D01*
X146804359Y83431402D01*
X146763053Y83454204D01*
X146713084Y83504636D01*
X146698312Y83574079D01*
X146723428Y83640484D01*
X146750780Y83667091D01*
X146794603Y83698350D01*
X146929860Y83794827D01*
X147088096Y83952511D01*
X147111075Y83984489D01*
X147215435Y84129723D01*
X147218453Y84133923D01*
X147309816Y84318782D01*
X147315136Y84329547D01*
X147315137Y84329549D01*
X147317430Y84334189D01*
X147349900Y84441060D01*
X147380865Y84542977D01*
X147380865Y84542979D01*
X147382370Y84547931D01*
X147411529Y84769410D01*
X147413156Y84836000D01*
X147394852Y85058639D01*
X147340431Y85275298D01*
X147251354Y85480160D01*
X147130014Y85667723D01*
X147126540Y85671541D01*
X147126533Y85671550D01*
X146982435Y85829912D01*
X146951383Y85893758D01*
X146959779Y85964256D01*
X147004956Y86019024D01*
X147031400Y86032693D01*
X147138052Y86072675D01*
X147153649Y86081214D01*
X147255724Y86157715D01*
X147268285Y86170276D01*
X147344786Y86272351D01*
X147353324Y86287946D01*
X147398478Y86408394D01*
X147402105Y86423649D01*
X147407631Y86474514D01*
X147408000Y86481328D01*
X147408000Y87103885D01*
X147403525Y87119124D01*
X147402135Y87120329D01*
X147394452Y87122000D01*
X144710116Y87122000D01*
X144694877Y87117525D01*
X144693672Y87116135D01*
X144692001Y87108452D01*
X144692001Y86481331D01*
X144692371Y86474510D01*
X144697895Y86423648D01*
X144701521Y86408396D01*
X144746676Y86287946D01*
X144755214Y86272351D01*
X144831715Y86170276D01*
X144844276Y86157715D01*
X144946351Y86081214D01*
X144961946Y86072676D01*
X145070827Y86031858D01*
X145127591Y85989216D01*
X145152291Y85922655D01*
X145137083Y85853306D01*
X145117691Y85826825D01*
X145028771Y85733775D01*
X144990629Y85693862D01*
X144987715Y85689590D01*
X144987714Y85689589D01*
X144979298Y85677251D01*
X144864743Y85509320D01*
X144845812Y85468536D01*
X144790502Y85349380D01*
X144770688Y85306695D01*
X144710989Y85091430D01*
X144687251Y84869305D01*
X144687548Y84864152D01*
X144687548Y84864149D01*
X144694379Y84745684D01*
X144700110Y84646285D01*
X144701247Y84641239D01*
X144701248Y84641233D01*
X144722275Y84547931D01*
X144749222Y84428361D01*
X144833266Y84221384D01*
X144835965Y84216980D01*
X144941372Y84044971D01*
X144949987Y84030912D01*
X145096250Y83862062D01*
X145268126Y83719368D01*
X145338595Y83678189D01*
X145341445Y83676524D01*
X145390169Y83624886D01*
X145403240Y83555103D01*
X145376509Y83489331D01*
X145336055Y83455973D01*
X145323607Y83449493D01*
X145319474Y83446390D01*
X145319471Y83446388D01*
X145149100Y83318470D01*
X145144965Y83315365D01*
X145141393Y83311627D01*
X145005131Y83169037D01*
X144990629Y83153862D01*
X144864743Y82969320D01*
X144770688Y82766695D01*
X144710989Y82551430D01*
X144687251Y82329305D01*
X144687548Y82324152D01*
X144687548Y82324149D01*
X144699812Y82111453D01*
X144700110Y82106285D01*
X144701247Y82101239D01*
X144701248Y82101233D01*
X144721119Y82013061D01*
X144749222Y81888361D01*
X144833266Y81681384D01*
X144949987Y81490912D01*
X145096250Y81322062D01*
X145268126Y81179368D01*
X145338595Y81138189D01*
X145341445Y81136524D01*
X145390169Y81084886D01*
X145403240Y81015103D01*
X145376509Y80949331D01*
X145336055Y80915973D01*
X145323607Y80909493D01*
X145319474Y80906390D01*
X145319471Y80906388D01*
X145149100Y80778470D01*
X145144965Y80775365D01*
X144990629Y80613862D01*
X144864743Y80429320D01*
X144850531Y80398703D01*
X144784514Y80256480D01*
X144770688Y80226695D01*
X144710989Y80011430D01*
X144687251Y79789305D01*
X144687548Y79784152D01*
X144687548Y79784149D01*
X144693011Y79689410D01*
X144700110Y79566285D01*
X144701247Y79561239D01*
X144701248Y79561233D01*
X144721119Y79473061D01*
X144749222Y79348361D01*
X144833266Y79141384D01*
X144949987Y78950912D01*
X145096250Y78782062D01*
X145268126Y78639368D01*
X145338595Y78598189D01*
X145341445Y78596524D01*
X145390169Y78544886D01*
X145403240Y78475103D01*
X145376509Y78409331D01*
X145336055Y78375973D01*
X145323607Y78369493D01*
X145319474Y78366390D01*
X145319471Y78366388D01*
X145295247Y78348200D01*
X145144965Y78235365D01*
X144990629Y78073862D01*
X144987715Y78069590D01*
X144987714Y78069589D01*
X144910136Y77955864D01*
X144864743Y77889320D01*
X144770688Y77686695D01*
X144710989Y77471430D01*
X144687251Y77249305D01*
X144687548Y77244152D01*
X144687548Y77244149D01*
X144693011Y77149410D01*
X144700110Y77026285D01*
X144701247Y77021239D01*
X144701248Y77021233D01*
X144721119Y76933061D01*
X144749222Y76808361D01*
X144833266Y76601384D01*
X144949987Y76410912D01*
X145096250Y76242062D01*
X145268126Y76099368D01*
X145338595Y76058189D01*
X145341445Y76056524D01*
X145390169Y76004886D01*
X145403240Y75935103D01*
X145376509Y75869331D01*
X145336055Y75835973D01*
X145323607Y75829493D01*
X145319474Y75826390D01*
X145319471Y75826388D01*
X145149100Y75698470D01*
X145144965Y75695365D01*
X144990629Y75533862D01*
X144864743Y75349320D01*
X144849003Y75315410D01*
X144807332Y75225637D01*
X144770688Y75146695D01*
X144710989Y74931430D01*
X144687251Y74709305D01*
X144687548Y74704152D01*
X144687548Y74704149D01*
X144693011Y74609410D01*
X144700110Y74486285D01*
X144701247Y74481239D01*
X144701248Y74481233D01*
X144721119Y74393061D01*
X144749222Y74268361D01*
X144833266Y74061384D01*
X144884019Y73978562D01*
X144935839Y73894000D01*
X144949987Y73870912D01*
X145096250Y73702062D01*
X145268126Y73559368D01*
X145338595Y73518189D01*
X145341445Y73516524D01*
X145390169Y73464886D01*
X145403240Y73395103D01*
X145376509Y73329331D01*
X145336055Y73295973D01*
X145323607Y73289493D01*
X145319474Y73286390D01*
X145319471Y73286388D01*
X145295247Y73268200D01*
X145144965Y73155365D01*
X144990629Y72993862D01*
X144864743Y72809320D01*
X144770688Y72606695D01*
X144710989Y72391430D01*
X144687251Y72169305D01*
X144687548Y72164152D01*
X144687548Y72164149D01*
X144693011Y72069410D01*
X144700110Y71946285D01*
X144701247Y71941239D01*
X144701248Y71941233D01*
X144721119Y71853061D01*
X144749222Y71728361D01*
X144833266Y71521384D01*
X144835965Y71516980D01*
X144935839Y71354000D01*
X144949987Y71330912D01*
X145096250Y71162062D01*
X145268126Y71019368D01*
X145338595Y70978189D01*
X145341445Y70976524D01*
X145390169Y70924886D01*
X145403240Y70855103D01*
X145376509Y70789331D01*
X145336055Y70755973D01*
X145323607Y70749493D01*
X145319474Y70746390D01*
X145319471Y70746388D01*
X145149100Y70618470D01*
X145144965Y70615365D01*
X144990629Y70453862D01*
X144864743Y70269320D01*
X144849003Y70235410D01*
X144805348Y70141363D01*
X144770688Y70066695D01*
X144710989Y69851430D01*
X144687251Y69629305D01*
X138105722Y69629305D01*
X138059974Y71354000D01*
X140264884Y71354000D01*
X140283314Y71143345D01*
X140284738Y71138032D01*
X140284738Y71138030D01*
X140331074Y70965104D01*
X140338044Y70939090D01*
X140427411Y70747442D01*
X140548699Y70574224D01*
X140698224Y70424699D01*
X140871442Y70303411D01*
X140876420Y70301090D01*
X140876423Y70301088D01*
X141058108Y70216367D01*
X141063090Y70214044D01*
X141068398Y70212622D01*
X141068400Y70212621D01*
X141262030Y70160738D01*
X141262032Y70160738D01*
X141267345Y70159314D01*
X141478000Y70140884D01*
X141688655Y70159314D01*
X141693968Y70160738D01*
X141693970Y70160738D01*
X141887600Y70212621D01*
X141887602Y70212622D01*
X141892910Y70214044D01*
X141897892Y70216367D01*
X142079577Y70301088D01*
X142079580Y70301090D01*
X142084558Y70303411D01*
X142257776Y70424699D01*
X142407301Y70574224D01*
X142528589Y70747442D01*
X142617956Y70939090D01*
X142624927Y70965104D01*
X142671262Y71138030D01*
X142671262Y71138032D01*
X142672686Y71143345D01*
X142691116Y71354000D01*
X142672686Y71564655D01*
X142671262Y71569970D01*
X142619379Y71763600D01*
X142619378Y71763602D01*
X142617956Y71768910D01*
X142598510Y71810612D01*
X142530912Y71955577D01*
X142530910Y71955580D01*
X142528589Y71960558D01*
X142407301Y72133776D01*
X142257776Y72283301D01*
X142084558Y72404589D01*
X142079580Y72406910D01*
X142079577Y72406912D01*
X141897892Y72491633D01*
X141897891Y72491634D01*
X141892910Y72493956D01*
X141887602Y72495378D01*
X141887600Y72495379D01*
X141861796Y72502293D01*
X141801173Y72539245D01*
X141770152Y72603106D01*
X141778580Y72673600D01*
X141823783Y72728347D01*
X141861796Y72745707D01*
X141887600Y72752621D01*
X141887602Y72752622D01*
X141892910Y72754044D01*
X141912764Y72763302D01*
X142079577Y72841088D01*
X142079580Y72841090D01*
X142084558Y72843411D01*
X142257776Y72964699D01*
X142407301Y73114224D01*
X142528589Y73287442D01*
X142539008Y73309784D01*
X142615633Y73474108D01*
X142615634Y73474109D01*
X142617956Y73479090D01*
X142624927Y73505104D01*
X142671262Y73678030D01*
X142671262Y73678032D01*
X142672686Y73683345D01*
X142691116Y73894000D01*
X142672686Y74104655D01*
X142655298Y74169547D01*
X142619379Y74303600D01*
X142619378Y74303602D01*
X142617956Y74308910D01*
X142572327Y74406762D01*
X142530912Y74495577D01*
X142530910Y74495580D01*
X142528589Y74500558D01*
X142407301Y74673776D01*
X142257776Y74823301D01*
X142084558Y74944589D01*
X142079580Y74946910D01*
X142079577Y74946912D01*
X141897892Y75031633D01*
X141897891Y75031634D01*
X141892910Y75033956D01*
X141887602Y75035378D01*
X141887600Y75035379D01*
X141693970Y75087262D01*
X141693968Y75087262D01*
X141688655Y75088686D01*
X141478000Y75107116D01*
X141267345Y75088686D01*
X141262032Y75087262D01*
X141262030Y75087262D01*
X141068400Y75035379D01*
X141068398Y75035378D01*
X141063090Y75033956D01*
X141058109Y75031634D01*
X141058108Y75031633D01*
X140876423Y74946912D01*
X140876420Y74946910D01*
X140871442Y74944589D01*
X140698224Y74823301D01*
X140548699Y74673776D01*
X140427411Y74500558D01*
X140425090Y74495580D01*
X140425088Y74495577D01*
X140383673Y74406762D01*
X140338044Y74308910D01*
X140336622Y74303602D01*
X140336621Y74303600D01*
X140300702Y74169547D01*
X140283314Y74104655D01*
X140264884Y73894000D01*
X140283314Y73683345D01*
X140284738Y73678032D01*
X140284738Y73678030D01*
X140331074Y73505104D01*
X140338044Y73479090D01*
X140340366Y73474109D01*
X140340367Y73474108D01*
X140416993Y73309784D01*
X140427411Y73287442D01*
X140548699Y73114224D01*
X140698224Y72964699D01*
X140871442Y72843411D01*
X140876420Y72841090D01*
X140876423Y72841088D01*
X141043236Y72763302D01*
X141063090Y72754044D01*
X141068398Y72752622D01*
X141068400Y72752621D01*
X141094204Y72745707D01*
X141154827Y72708755D01*
X141185848Y72644894D01*
X141177420Y72574400D01*
X141132217Y72519653D01*
X141094204Y72502293D01*
X141068400Y72495379D01*
X141068398Y72495378D01*
X141063090Y72493956D01*
X141058109Y72491634D01*
X141058108Y72491633D01*
X140876423Y72406912D01*
X140876420Y72406910D01*
X140871442Y72404589D01*
X140698224Y72283301D01*
X140548699Y72133776D01*
X140427411Y71960558D01*
X140425090Y71955580D01*
X140425088Y71955577D01*
X140357490Y71810612D01*
X140338044Y71768910D01*
X140336622Y71763602D01*
X140336621Y71763600D01*
X140284738Y71569970D01*
X140283314Y71564655D01*
X140264884Y71354000D01*
X138059974Y71354000D01*
X137627769Y87648115D01*
X144692000Y87648115D01*
X144696475Y87632876D01*
X144697865Y87631671D01*
X144705548Y87630000D01*
X145777885Y87630000D01*
X145793124Y87634475D01*
X145794329Y87635865D01*
X145796000Y87643548D01*
X145796000Y87648115D01*
X146304000Y87648115D01*
X146308475Y87632876D01*
X146309865Y87631671D01*
X146317548Y87630000D01*
X147389884Y87630000D01*
X147405123Y87634475D01*
X147406328Y87635865D01*
X147407999Y87643548D01*
X147407999Y88270669D01*
X147407629Y88277490D01*
X147402105Y88328352D01*
X147398479Y88343604D01*
X147353324Y88464054D01*
X147344786Y88479649D01*
X147268285Y88581724D01*
X147255724Y88594285D01*
X147153649Y88670786D01*
X147138054Y88679324D01*
X147017606Y88724478D01*
X147002351Y88728105D01*
X146951486Y88733631D01*
X146944672Y88734000D01*
X146322115Y88734000D01*
X146306876Y88729525D01*
X146305671Y88728135D01*
X146304000Y88720452D01*
X146304000Y87648115D01*
X145796000Y87648115D01*
X145796000Y88715884D01*
X145791525Y88731123D01*
X145790135Y88732328D01*
X145782452Y88733999D01*
X145155331Y88733999D01*
X145148510Y88733629D01*
X145097648Y88728105D01*
X145082396Y88724479D01*
X144961946Y88679324D01*
X144946351Y88670786D01*
X144844276Y88594285D01*
X144831715Y88581724D01*
X144755214Y88479649D01*
X144746676Y88464054D01*
X144701522Y88343606D01*
X144697895Y88328351D01*
X144692369Y88277486D01*
X144692000Y88270672D01*
X144692000Y87648115D01*
X137627769Y87648115D01*
X137554138Y90424000D01*
X148692496Y90424000D01*
X148712458Y90234072D01*
X148771473Y90052444D01*
X148866960Y89887056D01*
X148871378Y89882149D01*
X148871379Y89882148D01*
X148948713Y89796260D01*
X148994747Y89745134D01*
X149149248Y89632882D01*
X149155276Y89630198D01*
X149155278Y89630197D01*
X149267628Y89580176D01*
X149323712Y89555206D01*
X149417113Y89535353D01*
X149504056Y89516872D01*
X149504061Y89516872D01*
X149510513Y89515500D01*
X149566406Y89515500D01*
X149634527Y89495498D01*
X149655501Y89478595D01*
X152722878Y86411217D01*
X152756904Y86348905D01*
X152759093Y86335294D01*
X152776458Y86170072D01*
X152835473Y85988444D01*
X152930960Y85823056D01*
X153058747Y85681134D01*
X153213248Y85568882D01*
X153219276Y85566198D01*
X153219278Y85566197D01*
X153337416Y85513599D01*
X153387712Y85491206D01*
X153481112Y85471353D01*
X153568056Y85452872D01*
X153568061Y85452872D01*
X153574513Y85451500D01*
X153765487Y85451500D01*
X153771939Y85452872D01*
X153771944Y85452872D01*
X153858887Y85471353D01*
X153952288Y85491206D01*
X154002584Y85513599D01*
X154120722Y85566197D01*
X154120724Y85566198D01*
X154126752Y85568882D01*
X154281253Y85681134D01*
X154409040Y85823056D01*
X154504527Y85988444D01*
X154563542Y86170072D01*
X154571104Y86242015D01*
X154582814Y86353435D01*
X154583504Y86360000D01*
X154578121Y86411217D01*
X154564232Y86543365D01*
X154564232Y86543367D01*
X154563542Y86549928D01*
X154504527Y86731556D01*
X154409040Y86896944D01*
X154341279Y86972201D01*
X154285675Y87033955D01*
X154285674Y87033956D01*
X154281253Y87038866D01*
X154156863Y87129241D01*
X154132094Y87147237D01*
X154132093Y87147238D01*
X154126752Y87151118D01*
X154120724Y87153802D01*
X154120722Y87153803D01*
X153958319Y87226109D01*
X153958318Y87226109D01*
X153952288Y87228794D01*
X153858888Y87248647D01*
X153771944Y87267128D01*
X153771939Y87267128D01*
X153765487Y87268500D01*
X153709594Y87268500D01*
X153641473Y87288502D01*
X153620499Y87305405D01*
X150553122Y90372783D01*
X150519096Y90435095D01*
X150516907Y90448708D01*
X150500232Y90607365D01*
X150500232Y90607367D01*
X150499542Y90613928D01*
X150440527Y90795556D01*
X150345040Y90960944D01*
X150306976Y91003219D01*
X150221675Y91097955D01*
X150221674Y91097956D01*
X150217253Y91102866D01*
X150093648Y91192671D01*
X150068094Y91211237D01*
X150068093Y91211238D01*
X150062752Y91215118D01*
X150056724Y91217802D01*
X150056722Y91217803D01*
X149894319Y91290109D01*
X149894318Y91290109D01*
X149888288Y91292794D01*
X149781804Y91315428D01*
X149707944Y91331128D01*
X149707939Y91331128D01*
X149701487Y91332500D01*
X149510513Y91332500D01*
X149504061Y91331128D01*
X149504056Y91331128D01*
X149430196Y91315428D01*
X149323712Y91292794D01*
X149317682Y91290109D01*
X149317681Y91290109D01*
X149155278Y91217803D01*
X149155276Y91217802D01*
X149149248Y91215118D01*
X149143907Y91211238D01*
X149143906Y91211237D01*
X149118352Y91192671D01*
X148994747Y91102866D01*
X148990326Y91097956D01*
X148990325Y91097955D01*
X148905025Y91003219D01*
X148866960Y90960944D01*
X148771473Y90795556D01*
X148712458Y90613928D01*
X148692496Y90424000D01*
X137554138Y90424000D01*
X137510587Y92065866D01*
X146977500Y92065866D01*
X146984255Y92003684D01*
X147035385Y91867295D01*
X147122739Y91750739D01*
X147239295Y91663385D01*
X147375684Y91612255D01*
X147437866Y91605500D01*
X149234134Y91605500D01*
X149296316Y91612255D01*
X149432705Y91663385D01*
X149549261Y91750739D01*
X149636615Y91867295D01*
X149658799Y91926471D01*
X149680598Y91984618D01*
X149723240Y92041382D01*
X149789802Y92066082D01*
X149859150Y92050874D01*
X149893817Y92022886D01*
X149922250Y91990062D01*
X150094126Y91847368D01*
X150287000Y91734662D01*
X150495692Y91654970D01*
X150500760Y91653939D01*
X150500763Y91653938D01*
X150595862Y91634590D01*
X150714597Y91610433D01*
X150719772Y91610243D01*
X150719774Y91610243D01*
X150932673Y91602436D01*
X150932677Y91602436D01*
X150937837Y91602247D01*
X150942957Y91602903D01*
X150942959Y91602903D01*
X151154288Y91629975D01*
X151154289Y91629975D01*
X151159416Y91630632D01*
X151164366Y91632117D01*
X151368429Y91693339D01*
X151368434Y91693341D01*
X151373384Y91694826D01*
X151573994Y91793104D01*
X151755860Y91922827D01*
X151914096Y92080511D01*
X152044453Y92261923D01*
X152045776Y92260972D01*
X152092645Y92304143D01*
X152162580Y92316375D01*
X152228026Y92288856D01*
X152255875Y92257006D01*
X152315987Y92158912D01*
X152462250Y91990062D01*
X152634126Y91847368D01*
X152827000Y91734662D01*
X153035692Y91654970D01*
X153040760Y91653939D01*
X153040763Y91653938D01*
X153135862Y91634590D01*
X153254597Y91610433D01*
X153259772Y91610243D01*
X153259774Y91610243D01*
X153472673Y91602436D01*
X153472677Y91602436D01*
X153477837Y91602247D01*
X153482957Y91602903D01*
X153482959Y91602903D01*
X153694288Y91629975D01*
X153694289Y91629975D01*
X153699416Y91630632D01*
X153704366Y91632117D01*
X153908429Y91693339D01*
X153908434Y91693341D01*
X153913384Y91694826D01*
X154113994Y91793104D01*
X154295860Y91922827D01*
X154454096Y92080511D01*
X154584453Y92261923D01*
X154585776Y92260972D01*
X154632645Y92304143D01*
X154702580Y92316375D01*
X154768026Y92288856D01*
X154795875Y92257006D01*
X154855987Y92158912D01*
X155002250Y91990062D01*
X155174126Y91847368D01*
X155367000Y91734662D01*
X155575692Y91654970D01*
X155580760Y91653939D01*
X155580763Y91653938D01*
X155675862Y91634590D01*
X155794597Y91610433D01*
X155799772Y91610243D01*
X155799774Y91610243D01*
X156012673Y91602436D01*
X156012677Y91602436D01*
X156017837Y91602247D01*
X156022957Y91602903D01*
X156022959Y91602903D01*
X156234288Y91629975D01*
X156234289Y91629975D01*
X156239416Y91630632D01*
X156244366Y91632117D01*
X156448429Y91693339D01*
X156448434Y91693341D01*
X156453384Y91694826D01*
X156653994Y91793104D01*
X156835860Y91922827D01*
X156994096Y92080511D01*
X157124453Y92261923D01*
X157125776Y92260972D01*
X157172645Y92304143D01*
X157242580Y92316375D01*
X157308026Y92288856D01*
X157335875Y92257006D01*
X157395987Y92158912D01*
X157542250Y91990062D01*
X157714126Y91847368D01*
X157907000Y91734662D01*
X158115692Y91654970D01*
X158120760Y91653939D01*
X158120763Y91653938D01*
X158215862Y91634590D01*
X158334597Y91610433D01*
X158339772Y91610243D01*
X158339774Y91610243D01*
X158552673Y91602436D01*
X158552677Y91602436D01*
X158557837Y91602247D01*
X158562957Y91602903D01*
X158562959Y91602903D01*
X158774288Y91629975D01*
X158774289Y91629975D01*
X158779416Y91630632D01*
X158784366Y91632117D01*
X158988429Y91693339D01*
X158988434Y91693341D01*
X158993384Y91694826D01*
X159193994Y91793104D01*
X159270070Y91847368D01*
X159331810Y91891406D01*
X159398884Y91914680D01*
X159467892Y91897996D01*
X159494073Y91877922D01*
X159983348Y91388647D01*
X159990888Y91380361D01*
X159995000Y91373882D01*
X160000777Y91368457D01*
X160044651Y91327257D01*
X160047493Y91324502D01*
X160067230Y91304765D01*
X160070427Y91302285D01*
X160079447Y91294582D01*
X160111679Y91264314D01*
X160118625Y91260495D01*
X160118628Y91260493D01*
X160129434Y91254552D01*
X160145953Y91243701D01*
X160161959Y91231286D01*
X160169228Y91228141D01*
X160169232Y91228138D01*
X160202537Y91213726D01*
X160213187Y91208509D01*
X160251940Y91187205D01*
X160259615Y91185234D01*
X160259616Y91185234D01*
X160271562Y91182167D01*
X160290267Y91175763D01*
X160308855Y91167719D01*
X160316678Y91166480D01*
X160316688Y91166477D01*
X160352524Y91160801D01*
X160364144Y91158395D01*
X160395959Y91150227D01*
X160406970Y91147400D01*
X160427224Y91147400D01*
X160446934Y91145849D01*
X160466943Y91142680D01*
X160474835Y91143426D01*
X160493580Y91145198D01*
X160510962Y91146841D01*
X160522819Y91147400D01*
X161462633Y91147400D01*
X161473816Y91146873D01*
X161481309Y91145198D01*
X161489235Y91145447D01*
X161489236Y91145447D01*
X161549386Y91147338D01*
X161553345Y91147400D01*
X161581256Y91147400D01*
X161585191Y91147897D01*
X161585256Y91147905D01*
X161597093Y91148838D01*
X161629351Y91149852D01*
X161633370Y91149978D01*
X161641289Y91150227D01*
X161660743Y91155879D01*
X161680100Y91159887D01*
X161692330Y91161432D01*
X161692331Y91161432D01*
X161700197Y91162426D01*
X161707568Y91165345D01*
X161707570Y91165345D01*
X161741312Y91178704D01*
X161752542Y91182549D01*
X161787383Y91192671D01*
X161787384Y91192671D01*
X161794993Y91194882D01*
X161801812Y91198915D01*
X161801817Y91198917D01*
X161812428Y91205193D01*
X161830176Y91213888D01*
X161849017Y91221348D01*
X161884787Y91247336D01*
X161894707Y91253852D01*
X161925935Y91272320D01*
X161925938Y91272322D01*
X161932762Y91276358D01*
X161947083Y91290679D01*
X161962117Y91303520D01*
X161972094Y91310769D01*
X161978507Y91315428D01*
X162006698Y91349505D01*
X162014688Y91358284D01*
X162554624Y91898220D01*
X162616936Y91932246D01*
X162687751Y91927181D01*
X162724204Y91906069D01*
X162790434Y91851084D01*
X162798881Y91845169D01*
X162982756Y91737721D01*
X162992042Y91733271D01*
X163191001Y91657297D01*
X163200899Y91654421D01*
X163304250Y91633394D01*
X163318299Y91634590D01*
X163322000Y91644935D01*
X163322000Y91645483D01*
X163830000Y91645483D01*
X163834064Y91631641D01*
X163847478Y91629607D01*
X163854184Y91630466D01*
X163864262Y91632608D01*
X164068255Y91693809D01*
X164077842Y91697567D01*
X164269095Y91791261D01*
X164277945Y91796536D01*
X164451328Y91920208D01*
X164459200Y91926861D01*
X164610052Y92077188D01*
X164616730Y92085035D01*
X164744022Y92262181D01*
X164745279Y92261278D01*
X164792373Y92304638D01*
X164862311Y92316855D01*
X164927751Y92289322D01*
X164955579Y92257489D01*
X165015987Y92158912D01*
X165162250Y91990062D01*
X165334126Y91847368D01*
X165527000Y91734662D01*
X165735692Y91654970D01*
X165740760Y91653939D01*
X165740763Y91653938D01*
X165835862Y91634590D01*
X165954597Y91610433D01*
X165959772Y91610243D01*
X165959774Y91610243D01*
X166172673Y91602436D01*
X166172677Y91602436D01*
X166177837Y91602247D01*
X166182957Y91602903D01*
X166182959Y91602903D01*
X166394288Y91629975D01*
X166394289Y91629975D01*
X166399416Y91630632D01*
X166404366Y91632117D01*
X166608429Y91693339D01*
X166608434Y91693341D01*
X166613384Y91694826D01*
X166813994Y91793104D01*
X166995860Y91922827D01*
X167154096Y92080511D01*
X167284453Y92261923D01*
X167297995Y92289322D01*
X167381136Y92457547D01*
X167381137Y92457549D01*
X167383430Y92462189D01*
X167439466Y92646625D01*
X167446865Y92670977D01*
X167446865Y92670979D01*
X167448370Y92675931D01*
X167477529Y92897410D01*
X167479156Y92964000D01*
X167460852Y93186639D01*
X167406431Y93403298D01*
X167317354Y93608160D01*
X167223158Y93753765D01*
X167198822Y93791383D01*
X167198820Y93791386D01*
X167196014Y93795723D01*
X167045670Y93960949D01*
X167041619Y93964148D01*
X167041615Y93964152D01*
X166874414Y94096200D01*
X166874410Y94096202D01*
X166870359Y94099402D01*
X166843216Y94114386D01*
X166752669Y94164370D01*
X166674789Y94207362D01*
X166669920Y94209086D01*
X166669916Y94209088D01*
X166469087Y94280205D01*
X166469083Y94280206D01*
X166464212Y94281931D01*
X166459119Y94282838D01*
X166459116Y94282839D01*
X166249373Y94320200D01*
X166249367Y94320201D01*
X166244284Y94321106D01*
X166170452Y94322008D01*
X166026081Y94323772D01*
X166026079Y94323772D01*
X166020911Y94323835D01*
X165800091Y94290045D01*
X165587756Y94220643D01*
X165546148Y94198983D01*
X165417815Y94132177D01*
X165389607Y94117493D01*
X165385474Y94114390D01*
X165385471Y94114388D01*
X165215100Y93986470D01*
X165210965Y93983365D01*
X165207393Y93979627D01*
X165099729Y93866963D01*
X165056629Y93821862D01*
X164949204Y93664382D01*
X164948898Y93663934D01*
X164893987Y93618931D01*
X164823462Y93610760D01*
X164759715Y93642014D01*
X164739018Y93666498D01*
X164658426Y93791074D01*
X164652136Y93799243D01*
X164508806Y93956760D01*
X164501273Y93963785D01*
X164334139Y94095778D01*
X164325552Y94101483D01*
X164139117Y94204401D01*
X164129705Y94208631D01*
X163928959Y94279720D01*
X163918988Y94282354D01*
X163847837Y94295028D01*
X163834540Y94293568D01*
X163830000Y94279011D01*
X163830000Y91645483D01*
X163322000Y91645483D01*
X163322000Y94280898D01*
X163318082Y94294242D01*
X163303806Y94296229D01*
X163265324Y94290340D01*
X163255288Y94287949D01*
X163104645Y94238712D01*
X163033681Y94236561D01*
X162972819Y94273118D01*
X162941383Y94336775D01*
X162939500Y94358477D01*
X162939500Y94778000D01*
X172274835Y94778000D01*
X172293465Y94541289D01*
X172294619Y94536482D01*
X172294620Y94536476D01*
X172322727Y94419402D01*
X172348895Y94310406D01*
X172350788Y94305835D01*
X172350789Y94305833D01*
X172435261Y94101899D01*
X172439760Y94091037D01*
X172442346Y94086817D01*
X172561241Y93892798D01*
X172561245Y93892792D01*
X172563824Y93888584D01*
X172718031Y93708031D01*
X172898584Y93553824D01*
X172902792Y93551245D01*
X172902798Y93551241D01*
X173063775Y93452594D01*
X173101037Y93429760D01*
X173105607Y93427867D01*
X173105611Y93427865D01*
X173315833Y93340789D01*
X173320406Y93338895D01*
X173400609Y93319640D01*
X173546476Y93284620D01*
X173546482Y93284619D01*
X173551289Y93283465D01*
X173788000Y93264835D01*
X174024711Y93283465D01*
X174029518Y93284619D01*
X174029524Y93284620D01*
X174175391Y93319640D01*
X174255594Y93338895D01*
X174260167Y93340789D01*
X174470389Y93427865D01*
X174470393Y93427867D01*
X174474963Y93429760D01*
X174512225Y93452594D01*
X174673202Y93551241D01*
X174673208Y93551245D01*
X174677416Y93553824D01*
X174857969Y93708031D01*
X175012176Y93888584D01*
X175014755Y93892792D01*
X175014759Y93892798D01*
X175132133Y94084335D01*
X175184781Y94131966D01*
X175239566Y94144500D01*
X178836434Y94144500D01*
X178904555Y94124498D01*
X178943867Y94084335D01*
X179061241Y93892798D01*
X179061245Y93892792D01*
X179063824Y93888584D01*
X179218031Y93708031D01*
X179398584Y93553824D01*
X179402792Y93551245D01*
X179402798Y93551241D01*
X179563775Y93452594D01*
X179601037Y93429760D01*
X179605607Y93427867D01*
X179605611Y93427865D01*
X179815833Y93340789D01*
X179820406Y93338895D01*
X179900609Y93319640D01*
X180046476Y93284620D01*
X180046482Y93284619D01*
X180051289Y93283465D01*
X180288000Y93264835D01*
X180524711Y93283465D01*
X180529518Y93284619D01*
X180529524Y93284620D01*
X180675391Y93319640D01*
X180755594Y93338895D01*
X180760167Y93340789D01*
X180970389Y93427865D01*
X180970393Y93427867D01*
X180974963Y93429760D01*
X181012225Y93452594D01*
X181173202Y93551241D01*
X181173208Y93551245D01*
X181177416Y93553824D01*
X181357969Y93708031D01*
X181512176Y93888584D01*
X181514755Y93892792D01*
X181514759Y93892798D01*
X181633654Y94086817D01*
X181636240Y94091037D01*
X181640740Y94101899D01*
X181725211Y94305833D01*
X181725212Y94305835D01*
X181727105Y94310406D01*
X181753273Y94419402D01*
X181781380Y94536476D01*
X181781381Y94536482D01*
X181782535Y94541289D01*
X181801165Y94778000D01*
X181782535Y95014711D01*
X181767069Y95079134D01*
X181728260Y95240782D01*
X181727105Y95245594D01*
X181671134Y95380721D01*
X181638135Y95460389D01*
X181638133Y95460393D01*
X181636240Y95464963D01*
X181576902Y95561794D01*
X181514759Y95663202D01*
X181514755Y95663208D01*
X181512176Y95667416D01*
X181357969Y95847969D01*
X181177416Y96002176D01*
X181173208Y96004755D01*
X181173202Y96004759D01*
X180979183Y96123654D01*
X180974963Y96126240D01*
X180970393Y96128133D01*
X180970389Y96128135D01*
X180760167Y96215211D01*
X180760165Y96215212D01*
X180755594Y96217105D01*
X180675391Y96236360D01*
X180529524Y96271380D01*
X180529518Y96271381D01*
X180524711Y96272535D01*
X180288000Y96291165D01*
X180051289Y96272535D01*
X180046482Y96271381D01*
X180046476Y96271380D01*
X179900609Y96236360D01*
X179820406Y96217105D01*
X179815835Y96215212D01*
X179815833Y96215211D01*
X179605611Y96128135D01*
X179605607Y96128133D01*
X179601037Y96126240D01*
X179596817Y96123654D01*
X179402798Y96004759D01*
X179402792Y96004755D01*
X179398584Y96002176D01*
X179218031Y95847969D01*
X179063824Y95667416D01*
X179061245Y95663208D01*
X179061241Y95663202D01*
X178943867Y95471665D01*
X178891219Y95424034D01*
X178836434Y95411500D01*
X175239566Y95411500D01*
X175171445Y95431502D01*
X175132133Y95471665D01*
X175014759Y95663202D01*
X175014755Y95663208D01*
X175012176Y95667416D01*
X174857969Y95847969D01*
X174677416Y96002176D01*
X174673208Y96004755D01*
X174673202Y96004759D01*
X174479183Y96123654D01*
X174474963Y96126240D01*
X174470393Y96128133D01*
X174470389Y96128135D01*
X174260167Y96215211D01*
X174260165Y96215212D01*
X174255594Y96217105D01*
X174175391Y96236360D01*
X174029524Y96271380D01*
X174029518Y96271381D01*
X174024711Y96272535D01*
X173788000Y96291165D01*
X173551289Y96272535D01*
X173546482Y96271381D01*
X173546476Y96271380D01*
X173400609Y96236360D01*
X173320406Y96217105D01*
X173315835Y96215212D01*
X173315833Y96215211D01*
X173105611Y96128135D01*
X173105607Y96128133D01*
X173101037Y96126240D01*
X173096817Y96123654D01*
X172902798Y96004759D01*
X172902792Y96004755D01*
X172898584Y96002176D01*
X172718031Y95847969D01*
X172563824Y95667416D01*
X172561245Y95663208D01*
X172561241Y95663202D01*
X172499098Y95561794D01*
X172439760Y95464963D01*
X172437867Y95460393D01*
X172437865Y95460389D01*
X172404866Y95380721D01*
X172348895Y95245594D01*
X172347740Y95240782D01*
X172308932Y95079134D01*
X172293465Y95014711D01*
X172274835Y94778000D01*
X162939500Y94778000D01*
X162939500Y98389706D01*
X162959502Y98457827D01*
X162976405Y98478801D01*
X166518929Y102021325D01*
X166581241Y102055351D01*
X166652056Y102050286D01*
X166708892Y102007739D01*
X166733703Y101941219D01*
X166733334Y101919060D01*
X166726496Y101854000D01*
X166746458Y101664072D01*
X166805473Y101482444D01*
X166900960Y101317056D01*
X167028747Y101175134D01*
X167183248Y101062882D01*
X167189276Y101060198D01*
X167189278Y101060197D01*
X167326696Y100999015D01*
X167357712Y100985206D01*
X167451113Y100965353D01*
X167538056Y100946872D01*
X167538061Y100946872D01*
X167544513Y100945500D01*
X167735487Y100945500D01*
X167741939Y100946872D01*
X167741944Y100946872D01*
X167828888Y100965353D01*
X167922288Y100985206D01*
X167953304Y100999015D01*
X168090722Y101060197D01*
X168090724Y101060198D01*
X168096752Y101062882D01*
X168251253Y101175134D01*
X168255668Y101180037D01*
X168260580Y101184460D01*
X168261705Y101183211D01*
X168315014Y101216051D01*
X168348200Y101220500D01*
X171198500Y101220500D01*
X171266621Y101200498D01*
X171313114Y101146842D01*
X171324500Y101094500D01*
X171324500Y97342595D01*
X171304498Y97274474D01*
X171287595Y97253500D01*
X170737500Y96703405D01*
X170675188Y96669379D01*
X170648405Y96666500D01*
X170592513Y96666500D01*
X170586061Y96665128D01*
X170586056Y96665128D01*
X170500298Y96646899D01*
X170405712Y96626794D01*
X170399682Y96624109D01*
X170399681Y96624109D01*
X170237278Y96551803D01*
X170237276Y96551802D01*
X170231248Y96549118D01*
X170225907Y96545238D01*
X170225906Y96545237D01*
X170208144Y96532332D01*
X170076747Y96436866D01*
X169948960Y96294944D01*
X169853473Y96129556D01*
X169794458Y95947928D01*
X169793768Y95941367D01*
X169793768Y95941365D01*
X169784289Y95851177D01*
X169774496Y95758000D01*
X169775186Y95751435D01*
X169784460Y95663202D01*
X169794458Y95568072D01*
X169853473Y95386444D01*
X169948960Y95221056D01*
X170076747Y95079134D01*
X170231248Y94966882D01*
X170237276Y94964198D01*
X170237278Y94964197D01*
X170328650Y94923516D01*
X170405712Y94889206D01*
X170499112Y94869353D01*
X170586056Y94850872D01*
X170586061Y94850872D01*
X170592513Y94849500D01*
X170783487Y94849500D01*
X170789939Y94850872D01*
X170789944Y94850872D01*
X170876888Y94869353D01*
X170970288Y94889206D01*
X171047350Y94923516D01*
X171138722Y94964197D01*
X171138724Y94964198D01*
X171144752Y94966882D01*
X171299253Y95079134D01*
X171427040Y95221056D01*
X171522527Y95386444D01*
X171581542Y95568072D01*
X171598907Y95733294D01*
X171625920Y95798950D01*
X171635122Y95809218D01*
X172350247Y96524343D01*
X172358537Y96531887D01*
X172365018Y96536000D01*
X172411659Y96585668D01*
X172414413Y96588509D01*
X172434134Y96608230D01*
X172436612Y96611425D01*
X172444318Y96620447D01*
X172469158Y96646899D01*
X172474586Y96652679D01*
X172484346Y96670432D01*
X172495199Y96686955D01*
X172502753Y96696694D01*
X172507613Y96702959D01*
X172525176Y96743543D01*
X172530383Y96754173D01*
X172551695Y96792940D01*
X172553666Y96800617D01*
X172553668Y96800622D01*
X172556732Y96812558D01*
X172563138Y96831270D01*
X172568033Y96842581D01*
X172571181Y96849855D01*
X172572421Y96857683D01*
X172572423Y96857690D01*
X172578099Y96893524D01*
X172580505Y96905144D01*
X172589528Y96940289D01*
X172589528Y96940290D01*
X172591500Y96947970D01*
X172591500Y96968224D01*
X172593051Y96987935D01*
X172594980Y97000114D01*
X172596220Y97007943D01*
X172592059Y97051962D01*
X172591500Y97063819D01*
X172591500Y98042783D01*
X172611502Y98110904D01*
X172665158Y98157397D01*
X172735432Y98167501D01*
X172799330Y98138594D01*
X172894818Y98057039D01*
X172894824Y98057035D01*
X172898584Y98053824D01*
X172902792Y98051245D01*
X172902798Y98051241D01*
X173032573Y97971715D01*
X173101037Y97929760D01*
X173105607Y97927867D01*
X173105611Y97927865D01*
X173315833Y97840789D01*
X173320406Y97838895D01*
X173400609Y97819640D01*
X173546476Y97784620D01*
X173546482Y97784619D01*
X173551289Y97783465D01*
X173788000Y97764835D01*
X174024711Y97783465D01*
X174029518Y97784619D01*
X174029524Y97784620D01*
X174175391Y97819640D01*
X174255594Y97838895D01*
X174260167Y97840789D01*
X174470389Y97927865D01*
X174470393Y97927867D01*
X174474963Y97929760D01*
X174543427Y97971715D01*
X174673202Y98051241D01*
X174673208Y98051245D01*
X174677416Y98053824D01*
X174857969Y98208031D01*
X175012176Y98388584D01*
X175014755Y98392792D01*
X175014759Y98392798D01*
X175133654Y98586817D01*
X175136240Y98591037D01*
X175142898Y98607109D01*
X175225211Y98805833D01*
X175225212Y98805835D01*
X175227105Y98810406D01*
X175265464Y98970181D01*
X175281380Y99036476D01*
X175281381Y99036482D01*
X175282535Y99041289D01*
X175301165Y99278000D01*
X175282535Y99514711D01*
X175227105Y99745594D01*
X175136240Y99964963D01*
X175125978Y99981709D01*
X175014759Y100163202D01*
X175014755Y100163208D01*
X175012176Y100167416D01*
X174857969Y100347969D01*
X174677416Y100502176D01*
X174673208Y100504755D01*
X174673202Y100504759D01*
X174479183Y100623654D01*
X174474963Y100626240D01*
X174470393Y100628133D01*
X174470389Y100628135D01*
X174260167Y100715211D01*
X174260165Y100715212D01*
X174255594Y100717105D01*
X174071138Y100761389D01*
X174009569Y100796741D01*
X173976886Y100859768D01*
X173983467Y100930459D01*
X174027221Y100986370D01*
X174049304Y100999015D01*
X174186719Y101060195D01*
X174186726Y101060199D01*
X174192752Y101062882D01*
X174347253Y101175134D01*
X174351668Y101180037D01*
X174356580Y101184460D01*
X174357705Y101183211D01*
X174411014Y101216051D01*
X174444200Y101220500D01*
X179631800Y101220500D01*
X179699921Y101200498D01*
X179719147Y101184157D01*
X179719420Y101184460D01*
X179724332Y101180037D01*
X179728747Y101175134D01*
X179883248Y101062882D01*
X179889274Y101060199D01*
X179889281Y101060195D01*
X180026696Y100999015D01*
X180080792Y100953035D01*
X180101442Y100885108D01*
X180082090Y100816800D01*
X180028879Y100769798D01*
X180004861Y100761389D01*
X179820406Y100717105D01*
X179815835Y100715212D01*
X179815833Y100715211D01*
X179605611Y100628135D01*
X179605607Y100628133D01*
X179601037Y100626240D01*
X179596817Y100623654D01*
X179402798Y100504759D01*
X179402792Y100504755D01*
X179398584Y100502176D01*
X179218031Y100347969D01*
X179063824Y100167416D01*
X179061245Y100163208D01*
X179061241Y100163202D01*
X178950022Y99981709D01*
X178939760Y99964963D01*
X178848895Y99745594D01*
X178793465Y99514711D01*
X178774835Y99278000D01*
X178793465Y99041289D01*
X178794619Y99036482D01*
X178794620Y99036476D01*
X178810536Y98970181D01*
X178848895Y98810406D01*
X178850788Y98805835D01*
X178850789Y98805833D01*
X178933103Y98607109D01*
X178939760Y98591037D01*
X178942346Y98586817D01*
X179061241Y98392798D01*
X179061245Y98392792D01*
X179063824Y98388584D01*
X179218031Y98208031D01*
X179398584Y98053824D01*
X179402792Y98051245D01*
X179402798Y98051241D01*
X179532573Y97971715D01*
X179601037Y97929760D01*
X179605607Y97927867D01*
X179605611Y97927865D01*
X179815833Y97840789D01*
X179820406Y97838895D01*
X179900609Y97819640D01*
X180046476Y97784620D01*
X180046482Y97784619D01*
X180051289Y97783465D01*
X180288000Y97764835D01*
X180524711Y97783465D01*
X180529518Y97784619D01*
X180529524Y97784620D01*
X180675391Y97819640D01*
X180755594Y97838895D01*
X180760167Y97840789D01*
X180970389Y97927865D01*
X180970393Y97927867D01*
X180974963Y97929760D01*
X181043427Y97971715D01*
X181173202Y98051241D01*
X181173208Y98051245D01*
X181177416Y98053824D01*
X181357969Y98208031D01*
X181512176Y98388584D01*
X181514755Y98392792D01*
X181514759Y98392798D01*
X181633654Y98586817D01*
X181636240Y98591037D01*
X181642898Y98607109D01*
X181725211Y98805833D01*
X181725212Y98805835D01*
X181727105Y98810406D01*
X181765464Y98970181D01*
X181781380Y99036476D01*
X181781381Y99036482D01*
X181782535Y99041289D01*
X181801165Y99278000D01*
X181782535Y99514711D01*
X181727105Y99745594D01*
X181636240Y99964963D01*
X181625978Y99981709D01*
X181514759Y100163202D01*
X181514755Y100163208D01*
X181512176Y100167416D01*
X181357969Y100347969D01*
X181177416Y100502176D01*
X181173208Y100504755D01*
X181173202Y100504759D01*
X180979183Y100623654D01*
X180974963Y100626240D01*
X180970393Y100628133D01*
X180970389Y100628135D01*
X180760167Y100715211D01*
X180760165Y100715212D01*
X180755594Y100717105D01*
X180708826Y100728333D01*
X180637551Y100745445D01*
X180575981Y100780798D01*
X180543299Y100843824D01*
X180549880Y100914515D01*
X180593634Y100970427D01*
X180622400Y100984954D01*
X180622288Y100985206D01*
X180627461Y100987509D01*
X180627464Y100987510D01*
X180722647Y101029888D01*
X180790722Y101060197D01*
X180790724Y101060198D01*
X180796752Y101062882D01*
X180951253Y101175134D01*
X181079040Y101317056D01*
X181174527Y101482444D01*
X181233542Y101664072D01*
X181253504Y101854000D01*
X181233542Y102043928D01*
X181174527Y102225556D01*
X181079040Y102390944D01*
X180991877Y102487749D01*
X180955675Y102527955D01*
X180955674Y102527956D01*
X180951253Y102532866D01*
X180796752Y102645118D01*
X180790724Y102647802D01*
X180790722Y102647803D01*
X180628319Y102720109D01*
X180628318Y102720109D01*
X180622288Y102722794D01*
X180528888Y102742647D01*
X180441944Y102761128D01*
X180441939Y102761128D01*
X180435487Y102762500D01*
X180244513Y102762500D01*
X180238061Y102761128D01*
X180238056Y102761128D01*
X180151112Y102742647D01*
X180057712Y102722794D01*
X180051682Y102720109D01*
X180051681Y102720109D01*
X179889278Y102647803D01*
X179889276Y102647802D01*
X179883248Y102645118D01*
X179728747Y102532866D01*
X179724332Y102527963D01*
X179719420Y102523540D01*
X179718295Y102524789D01*
X179664986Y102491949D01*
X179631800Y102487500D01*
X174444200Y102487500D01*
X174376079Y102507502D01*
X174356853Y102523843D01*
X174356580Y102523540D01*
X174351668Y102527963D01*
X174347253Y102532866D01*
X174192752Y102645118D01*
X174186724Y102647802D01*
X174186722Y102647803D01*
X174024319Y102720109D01*
X174024318Y102720109D01*
X174018288Y102722794D01*
X173924888Y102742647D01*
X173837944Y102761128D01*
X173837939Y102761128D01*
X173831487Y102762500D01*
X173640513Y102762500D01*
X173634061Y102761128D01*
X173634056Y102761128D01*
X173547112Y102742647D01*
X173453712Y102722794D01*
X173447682Y102720109D01*
X173447681Y102720109D01*
X173285278Y102647803D01*
X173285276Y102647802D01*
X173279248Y102645118D01*
X173124747Y102532866D01*
X173120332Y102527963D01*
X173115420Y102523540D01*
X173114295Y102524789D01*
X173060986Y102491949D01*
X173027800Y102487500D01*
X172029793Y102487500D01*
X172006184Y102489732D01*
X172005881Y102489790D01*
X172005877Y102489790D01*
X171998094Y102491275D01*
X171942049Y102487749D01*
X171934138Y102487500D01*
X168348200Y102487500D01*
X168280079Y102507502D01*
X168260853Y102523843D01*
X168260580Y102523540D01*
X168255668Y102527963D01*
X168251253Y102532866D01*
X168096752Y102645118D01*
X168090724Y102647802D01*
X168090722Y102647803D01*
X167928319Y102720109D01*
X167928318Y102720109D01*
X167922288Y102722794D01*
X167828888Y102742647D01*
X167741944Y102761128D01*
X167741939Y102761128D01*
X167735487Y102762500D01*
X167564294Y102762500D01*
X167496173Y102782502D01*
X167449680Y102836158D01*
X167439576Y102906432D01*
X167469070Y102971012D01*
X167475199Y102977595D01*
X172898999Y108401395D01*
X172961311Y108435421D01*
X172988094Y108438300D01*
X173043587Y108438300D01*
X173050039Y108439672D01*
X173050044Y108439672D01*
X173138474Y108458469D01*
X173230388Y108478006D01*
X173236419Y108480691D01*
X173398822Y108552997D01*
X173398824Y108552998D01*
X173404852Y108555682D01*
X173559353Y108667934D01*
X173687140Y108809856D01*
X173782627Y108975244D01*
X173841642Y109156872D01*
X173846665Y109204658D01*
X173860914Y109340235D01*
X173861604Y109346800D01*
X173841642Y109536728D01*
X173782627Y109718356D01*
X173766382Y109746494D01*
X173690441Y109878026D01*
X173687140Y109883744D01*
X173559353Y110025666D01*
X173404852Y110137918D01*
X173398824Y110140602D01*
X173398822Y110140603D01*
X173236419Y110212909D01*
X173236418Y110212909D01*
X173230388Y110215594D01*
X173136987Y110235447D01*
X173050044Y110253928D01*
X173050039Y110253928D01*
X173043587Y110255300D01*
X172852613Y110255300D01*
X172846161Y110253928D01*
X172846156Y110253928D01*
X172759213Y110235447D01*
X172665812Y110215594D01*
X172659782Y110212909D01*
X172659781Y110212909D01*
X172497378Y110140603D01*
X172497376Y110140602D01*
X172491348Y110137918D01*
X172336847Y110025666D01*
X172209060Y109883744D01*
X172205759Y109878026D01*
X172129819Y109746494D01*
X172113573Y109718356D01*
X172111533Y109712078D01*
X172111168Y109711258D01*
X172065187Y109657162D01*
X171997260Y109636514D01*
X171928952Y109655867D01*
X171922010Y109660566D01*
X171910652Y109668818D01*
X171904624Y109671502D01*
X171904622Y109671503D01*
X171742219Y109743809D01*
X171742218Y109743809D01*
X171736188Y109746494D01*
X171642787Y109766347D01*
X171555844Y109784828D01*
X171555839Y109784828D01*
X171549387Y109786200D01*
X171358413Y109786200D01*
X171351961Y109784828D01*
X171351956Y109784828D01*
X171265013Y109766347D01*
X171171612Y109746494D01*
X171165582Y109743809D01*
X171165581Y109743809D01*
X171003178Y109671503D01*
X171003176Y109671502D01*
X170997148Y109668818D01*
X170991807Y109664938D01*
X170991806Y109664937D01*
X170950289Y109634773D01*
X170842647Y109556566D01*
X170838226Y109551656D01*
X170838225Y109551655D01*
X170830438Y109543006D01*
X170714860Y109414644D01*
X170675690Y109346800D01*
X170643755Y109291486D01*
X170619373Y109249256D01*
X170560358Y109067628D01*
X170559668Y109061067D01*
X170559668Y109061065D01*
X170557349Y109038999D01*
X170546301Y108933877D01*
X170542993Y108902407D01*
X170515980Y108836750D01*
X170506778Y108826482D01*
X156489800Y94809505D01*
X156427488Y94775479D01*
X156400705Y94772600D01*
X156027793Y94772600D01*
X156004184Y94774832D01*
X156003881Y94774890D01*
X156003877Y94774890D01*
X155996094Y94776375D01*
X155943562Y94773070D01*
X155940049Y94772849D01*
X155932138Y94772600D01*
X155916144Y94772600D01*
X155900270Y94770594D01*
X155892410Y94769852D01*
X155864951Y94768124D01*
X155844263Y94766823D01*
X155844262Y94766823D01*
X155836350Y94766325D01*
X155828809Y94763875D01*
X155828513Y94763779D01*
X155805369Y94758606D01*
X155805065Y94758568D01*
X155805060Y94758567D01*
X155797203Y94757574D01*
X155789838Y94754658D01*
X155789834Y94754657D01*
X155744989Y94736901D01*
X155737570Y94734229D01*
X155684125Y94716864D01*
X155677429Y94712614D01*
X155677428Y94712614D01*
X155677169Y94712450D01*
X155656042Y94701685D01*
X155655754Y94701571D01*
X155655749Y94701568D01*
X155648383Y94698652D01*
X155641975Y94693996D01*
X155641969Y94693993D01*
X155602948Y94665642D01*
X155596411Y94661199D01*
X155548982Y94631100D01*
X155543556Y94625322D01*
X155543555Y94625321D01*
X155543341Y94625093D01*
X155525554Y94609412D01*
X155525309Y94609234D01*
X155525307Y94609232D01*
X155518893Y94604572D01*
X155513839Y94598463D01*
X155513838Y94598462D01*
X155483097Y94561304D01*
X155477866Y94555370D01*
X155444842Y94520202D01*
X155444840Y94520199D01*
X155439414Y94514421D01*
X155435445Y94507201D01*
X155422119Y94487594D01*
X155421920Y94487354D01*
X155421916Y94487347D01*
X155416867Y94481244D01*
X155406780Y94459807D01*
X155392953Y94430424D01*
X155389371Y94423392D01*
X155362305Y94374160D01*
X155360335Y94366485D01*
X155360332Y94366479D01*
X155360256Y94366181D01*
X155352224Y94343872D01*
X155352094Y94343597D01*
X155352091Y94343589D01*
X155348717Y94336418D01*
X155338195Y94281257D01*
X155336471Y94273542D01*
X155322500Y94219130D01*
X155320887Y94219544D01*
X155296263Y94163077D01*
X155257815Y94132177D01*
X155243064Y94124498D01*
X155229607Y94117493D01*
X155225472Y94114388D01*
X155225469Y94114386D01*
X155105864Y94024584D01*
X155050965Y93983365D01*
X155047393Y93979627D01*
X154939729Y93866963D01*
X154896629Y93821862D01*
X154789201Y93664379D01*
X154734293Y93619379D01*
X154663768Y93611208D01*
X154600021Y93642462D01*
X154579324Y93666946D01*
X154498822Y93791383D01*
X154498820Y93791386D01*
X154496014Y93795723D01*
X154345670Y93960949D01*
X154341619Y93964149D01*
X154341615Y93964152D01*
X154338434Y93966664D01*
X154297376Y94024584D01*
X154294150Y94095507D01*
X154327439Y94154635D01*
X169089247Y108916443D01*
X169097537Y108923987D01*
X169104018Y108928100D01*
X169150659Y108977768D01*
X169153413Y108980609D01*
X169173134Y109000330D01*
X169175612Y109003525D01*
X169183318Y109012547D01*
X169208158Y109038999D01*
X169213586Y109044779D01*
X169223346Y109062532D01*
X169234199Y109079055D01*
X169241753Y109088794D01*
X169246613Y109095059D01*
X169264176Y109135643D01*
X169269383Y109146273D01*
X169290695Y109185040D01*
X169292666Y109192717D01*
X169292668Y109192722D01*
X169295732Y109204658D01*
X169302138Y109223370D01*
X169307034Y109234683D01*
X169310181Y109241955D01*
X169317097Y109285619D01*
X169319504Y109297240D01*
X169328528Y109332389D01*
X169328528Y109332390D01*
X169330500Y109340070D01*
X169330500Y109360331D01*
X169332051Y109380042D01*
X169333979Y109392215D01*
X169335219Y109400043D01*
X169331059Y109444054D01*
X169330500Y109455911D01*
X169330500Y116586000D01*
X170790496Y116586000D01*
X170791186Y116579435D01*
X170805894Y116439500D01*
X170810458Y116396072D01*
X170869473Y116214444D01*
X170964960Y116049056D01*
X171092747Y115907134D01*
X171247248Y115794882D01*
X171253276Y115792198D01*
X171253278Y115792197D01*
X171415681Y115719891D01*
X171421712Y115717206D01*
X171515113Y115697353D01*
X171602056Y115678872D01*
X171602061Y115678872D01*
X171608513Y115677500D01*
X171799487Y115677500D01*
X171805939Y115678872D01*
X171805944Y115678872D01*
X171892887Y115697353D01*
X171986288Y115717206D01*
X171992319Y115719891D01*
X172154722Y115792197D01*
X172154724Y115792198D01*
X172160752Y115794882D01*
X172315253Y115907134D01*
X172443040Y116049056D01*
X172538527Y116214444D01*
X172597542Y116396072D01*
X172602107Y116439500D01*
X172616814Y116579435D01*
X172617504Y116586000D01*
X172610080Y116656635D01*
X172598232Y116769365D01*
X172598232Y116769367D01*
X172597542Y116775928D01*
X172576724Y116840000D01*
X174600496Y116840000D01*
X174601186Y116833435D01*
X174618863Y116665251D01*
X174620458Y116650072D01*
X174679473Y116468444D01*
X174774960Y116303056D01*
X174779378Y116298149D01*
X174779379Y116298148D01*
X174898325Y116166045D01*
X174902747Y116161134D01*
X175001843Y116089136D01*
X175026207Y116071435D01*
X175057248Y116048882D01*
X175063276Y116046198D01*
X175063278Y116046197D01*
X175225681Y115973891D01*
X175231712Y115971206D01*
X175325112Y115951353D01*
X175412056Y115932872D01*
X175412061Y115932872D01*
X175418513Y115931500D01*
X175609487Y115931500D01*
X175615939Y115932872D01*
X175615944Y115932872D01*
X175702888Y115951353D01*
X175796288Y115971206D01*
X175802319Y115973891D01*
X175964722Y116046197D01*
X175964724Y116046198D01*
X175970752Y116048882D01*
X176001794Y116071435D01*
X176026157Y116089136D01*
X176125253Y116161134D01*
X176129675Y116166045D01*
X176248621Y116298148D01*
X176248622Y116298149D01*
X176253040Y116303056D01*
X176348527Y116468444D01*
X176407542Y116650072D01*
X176409138Y116665251D01*
X176426814Y116833435D01*
X176427504Y116840000D01*
X176421768Y116894576D01*
X176408232Y117023365D01*
X176408232Y117023367D01*
X176407542Y117029928D01*
X176348527Y117211556D01*
X176253040Y117376944D01*
X176232985Y117399218D01*
X176129675Y117513955D01*
X176129674Y117513956D01*
X176125253Y117518866D01*
X175970752Y117631118D01*
X175964724Y117633802D01*
X175964722Y117633803D01*
X175802319Y117706109D01*
X175802318Y117706109D01*
X175796288Y117708794D01*
X175702887Y117728647D01*
X175615944Y117747128D01*
X175615939Y117747128D01*
X175609487Y117748500D01*
X175418513Y117748500D01*
X175412061Y117747128D01*
X175412056Y117747128D01*
X175325113Y117728647D01*
X175231712Y117708794D01*
X175225682Y117706109D01*
X175225681Y117706109D01*
X175063278Y117633803D01*
X175063276Y117633802D01*
X175057248Y117631118D01*
X174902747Y117518866D01*
X174898326Y117513956D01*
X174898325Y117513955D01*
X174795016Y117399218D01*
X174774960Y117376944D01*
X174679473Y117211556D01*
X174620458Y117029928D01*
X174619768Y117023367D01*
X174619768Y117023365D01*
X174606232Y116894576D01*
X174600496Y116840000D01*
X172576724Y116840000D01*
X172538527Y116957556D01*
X172443040Y117122944D01*
X172417064Y117151794D01*
X172319675Y117259955D01*
X172319674Y117259956D01*
X172315253Y117264866D01*
X172200829Y117348000D01*
X172166094Y117373237D01*
X172166093Y117373238D01*
X172160752Y117377118D01*
X172154724Y117379802D01*
X172154722Y117379803D01*
X171992319Y117452109D01*
X171992318Y117452109D01*
X171986288Y117454794D01*
X171892887Y117474647D01*
X171805944Y117493128D01*
X171805939Y117493128D01*
X171799487Y117494500D01*
X171608513Y117494500D01*
X171602061Y117493128D01*
X171602056Y117493128D01*
X171515113Y117474647D01*
X171421712Y117454794D01*
X171415682Y117452109D01*
X171415681Y117452109D01*
X171253278Y117379803D01*
X171253276Y117379802D01*
X171247248Y117377118D01*
X171241907Y117373238D01*
X171241906Y117373237D01*
X171207171Y117348000D01*
X171092747Y117264866D01*
X171088326Y117259956D01*
X171088325Y117259955D01*
X170990937Y117151794D01*
X170964960Y117122944D01*
X170869473Y116957556D01*
X170810458Y116775928D01*
X170809768Y116769367D01*
X170809768Y116769365D01*
X170797920Y116656635D01*
X170790496Y116586000D01*
X169330500Y116586000D01*
X169330500Y116894576D01*
X169350502Y116962697D01*
X169362858Y116978879D01*
X169436040Y117060156D01*
X169531527Y117225544D01*
X169590542Y117407172D01*
X169595692Y117456166D01*
X169609814Y117590535D01*
X169610504Y117597100D01*
X169598765Y117708794D01*
X169591232Y117780465D01*
X169591232Y117780467D01*
X169590542Y117787028D01*
X169531527Y117968656D01*
X169518823Y117990661D01*
X169455671Y118100042D01*
X169436040Y118134044D01*
X169431472Y118139118D01*
X169312675Y118271055D01*
X169312674Y118271056D01*
X169308253Y118275966D01*
X169297119Y118284056D01*
X169255469Y118314316D01*
X169184577Y118365822D01*
X169141224Y118422043D01*
X169135149Y118492779D01*
X169147817Y118526258D01*
X169147739Y118526293D01*
X169148349Y118527663D01*
X169149519Y118530755D01*
X169150422Y118532319D01*
X169150423Y118532321D01*
X169153727Y118538044D01*
X169212742Y118719672D01*
X169217011Y118760284D01*
X169232014Y118903035D01*
X169232704Y118909600D01*
X169212742Y119099528D01*
X169153727Y119281156D01*
X169058240Y119446544D01*
X168930453Y119588466D01*
X168775952Y119700718D01*
X168769924Y119703402D01*
X168769922Y119703403D01*
X168607519Y119775709D01*
X168607518Y119775709D01*
X168601488Y119778394D01*
X168507109Y119798455D01*
X168421144Y119816728D01*
X168421139Y119816728D01*
X168414687Y119818100D01*
X168223713Y119818100D01*
X168217261Y119816728D01*
X168217256Y119816728D01*
X168131291Y119798455D01*
X168036912Y119778394D01*
X168030882Y119775709D01*
X168030881Y119775709D01*
X167868478Y119703403D01*
X167868476Y119703402D01*
X167862448Y119700718D01*
X167707947Y119588466D01*
X167580160Y119446544D01*
X167484673Y119281156D01*
X167425658Y119099528D01*
X167424968Y119092967D01*
X167424968Y119092965D01*
X167408293Y118934308D01*
X167381280Y118868651D01*
X167372078Y118858383D01*
X167339647Y118825952D01*
X167331361Y118818412D01*
X167324882Y118814300D01*
X167319457Y118808523D01*
X167278257Y118764649D01*
X167275502Y118761807D01*
X167255765Y118742070D01*
X167253285Y118738873D01*
X167245582Y118729853D01*
X167215314Y118697621D01*
X167211495Y118690675D01*
X167211493Y118690672D01*
X167205552Y118679866D01*
X167194701Y118663347D01*
X167182286Y118647341D01*
X167179141Y118640072D01*
X167179138Y118640068D01*
X167164726Y118606763D01*
X167159509Y118596113D01*
X167138205Y118557360D01*
X167133246Y118538044D01*
X167133167Y118537738D01*
X167126763Y118519034D01*
X167118719Y118500445D01*
X167117480Y118492622D01*
X167117477Y118492612D01*
X167111801Y118456776D01*
X167109395Y118445156D01*
X167106788Y118435002D01*
X167098400Y118402330D01*
X167098400Y118382076D01*
X167096849Y118362366D01*
X167093680Y118342357D01*
X167094426Y118334465D01*
X167097841Y118298339D01*
X167098400Y118286481D01*
X167098400Y117112500D01*
X167078398Y117044379D01*
X167024742Y116997886D01*
X166972400Y116986500D01*
X166782513Y116986500D01*
X166776061Y116985128D01*
X166776056Y116985128D01*
X166708279Y116970721D01*
X166595712Y116946794D01*
X166589682Y116944109D01*
X166589681Y116944109D01*
X166427278Y116871803D01*
X166427276Y116871802D01*
X166421248Y116869118D01*
X166415907Y116865238D01*
X166415906Y116865237D01*
X166381171Y116840000D01*
X166266747Y116756866D01*
X166262326Y116751956D01*
X166262325Y116751955D01*
X166164937Y116643794D01*
X166138960Y116614944D01*
X166043473Y116449556D01*
X165984458Y116267928D01*
X165983768Y116261367D01*
X165983768Y116261365D01*
X165965186Y116084565D01*
X165964496Y116078000D01*
X165965186Y116071435D01*
X165982863Y115903251D01*
X165984458Y115888072D01*
X166043473Y115706444D01*
X166138960Y115541056D01*
X166266747Y115399134D01*
X166421248Y115286882D01*
X166427276Y115284198D01*
X166427278Y115284197D01*
X166589681Y115211891D01*
X166595712Y115209206D01*
X166689113Y115189353D01*
X166776056Y115170872D01*
X166776061Y115170872D01*
X166782513Y115169500D01*
X166972400Y115169500D01*
X167040521Y115149498D01*
X167087014Y115095842D01*
X167098400Y115043500D01*
X167098400Y109957794D01*
X167078398Y109889673D01*
X167061495Y109868699D01*
X166861595Y109668799D01*
X166799283Y109634773D01*
X166728468Y109639838D01*
X166671632Y109682385D01*
X166646821Y109748905D01*
X166646500Y109757894D01*
X166646500Y111158134D01*
X166639745Y111220316D01*
X166588615Y111356705D01*
X166501261Y111473261D01*
X166384705Y111560615D01*
X166248316Y111611745D01*
X166186134Y111618500D01*
X165036055Y111618500D01*
X164967934Y111638502D01*
X164921441Y111692158D01*
X164920499Y111694577D01*
X164918216Y111699430D01*
X164915764Y111706975D01*
X164911514Y111713672D01*
X164911350Y111713931D01*
X164900585Y111735058D01*
X164900471Y111735346D01*
X164900468Y111735351D01*
X164897552Y111742717D01*
X164892896Y111749125D01*
X164892893Y111749131D01*
X164864542Y111788152D01*
X164860092Y111794699D01*
X164830000Y111842118D01*
X164823993Y111847759D01*
X164808312Y111865546D01*
X164808134Y111865791D01*
X164808132Y111865793D01*
X164803472Y111872207D01*
X164797362Y111877262D01*
X164760204Y111908003D01*
X164754270Y111913234D01*
X164719102Y111946258D01*
X164719099Y111946260D01*
X164713321Y111951686D01*
X164706097Y111955658D01*
X164686494Y111968981D01*
X164686254Y111969180D01*
X164686247Y111969184D01*
X164680144Y111974233D01*
X164629324Y111998147D01*
X164622292Y112001729D01*
X164573060Y112028795D01*
X164565385Y112030765D01*
X164565379Y112030768D01*
X164565081Y112030844D01*
X164542772Y112038876D01*
X164542497Y112039006D01*
X164542489Y112039009D01*
X164535318Y112042383D01*
X164480151Y112052906D01*
X164472442Y112054629D01*
X164438449Y112063357D01*
X164425707Y112066629D01*
X164425706Y112066629D01*
X164418030Y112068600D01*
X164409793Y112068600D01*
X164386184Y112070832D01*
X164385881Y112070890D01*
X164385877Y112070890D01*
X164378094Y112072375D01*
X164322049Y112068849D01*
X164314138Y112068600D01*
X163810194Y112068600D01*
X163742073Y112088602D01*
X163721099Y112105505D01*
X157734122Y118092483D01*
X157700096Y118154795D01*
X157697907Y118168408D01*
X157681232Y118327065D01*
X157681232Y118327067D01*
X157680542Y118333628D01*
X157664024Y118384465D01*
X157661996Y118455431D01*
X157698658Y118516229D01*
X157762370Y118547554D01*
X157783857Y118549400D01*
X165700233Y118549400D01*
X165711416Y118548873D01*
X165718909Y118547198D01*
X165726835Y118547447D01*
X165726836Y118547447D01*
X165786986Y118549338D01*
X165790945Y118549400D01*
X165818856Y118549400D01*
X165822791Y118549897D01*
X165822856Y118549905D01*
X165834693Y118550838D01*
X165866951Y118551852D01*
X165870970Y118551978D01*
X165878889Y118552227D01*
X165898343Y118557879D01*
X165917700Y118561887D01*
X165929930Y118563432D01*
X165929931Y118563432D01*
X165937797Y118564426D01*
X165945168Y118567345D01*
X165945170Y118567345D01*
X165978912Y118580704D01*
X165990142Y118584549D01*
X166024983Y118594671D01*
X166024984Y118594671D01*
X166032593Y118596882D01*
X166039412Y118600915D01*
X166039417Y118600917D01*
X166050028Y118607193D01*
X166067776Y118615888D01*
X166086617Y118623348D01*
X166109631Y118640068D01*
X166122387Y118649336D01*
X166132307Y118655852D01*
X166163535Y118674320D01*
X166163538Y118674322D01*
X166170362Y118678358D01*
X166184683Y118692679D01*
X166199717Y118705520D01*
X166209694Y118712769D01*
X166216107Y118717428D01*
X166244298Y118751505D01*
X166252288Y118760284D01*
X168931899Y121439895D01*
X168994211Y121473921D01*
X169020994Y121476800D01*
X169076887Y121476800D01*
X169083339Y121478172D01*
X169083344Y121478172D01*
X169170287Y121496653D01*
X169263688Y121516506D01*
X169410117Y121581700D01*
X169432122Y121591497D01*
X169432124Y121591498D01*
X169438152Y121594182D01*
X169592653Y121706434D01*
X169720440Y121848356D01*
X169815927Y122013744D01*
X169874942Y122195372D01*
X169894904Y122385300D01*
X169874942Y122575228D01*
X169815927Y122756856D01*
X169720440Y122922244D01*
X169592653Y123064166D01*
X169438152Y123176418D01*
X169432124Y123179102D01*
X169432122Y123179103D01*
X169269719Y123251409D01*
X169269718Y123251409D01*
X169263688Y123254094D01*
X169170288Y123273947D01*
X169083344Y123292428D01*
X169083339Y123292428D01*
X169076887Y123293800D01*
X168885913Y123293800D01*
X168879461Y123292428D01*
X168879456Y123292428D01*
X168792512Y123273947D01*
X168699112Y123254094D01*
X168693082Y123251409D01*
X168693081Y123251409D01*
X168530678Y123179103D01*
X168530676Y123179102D01*
X168524648Y123176418D01*
X168370147Y123064166D01*
X168242360Y122922244D01*
X168146873Y122756856D01*
X168087858Y122575228D01*
X168087168Y122568667D01*
X168087168Y122568665D01*
X168070493Y122410007D01*
X168043480Y122344350D01*
X168034278Y122334082D01*
X165553500Y119853305D01*
X165491188Y119819279D01*
X165464405Y119816400D01*
X156852867Y119816400D01*
X156841684Y119816927D01*
X156834191Y119818602D01*
X156826265Y119818353D01*
X156826264Y119818353D01*
X156766114Y119816462D01*
X156762155Y119816400D01*
X156734244Y119816400D01*
X156730310Y119815903D01*
X156730309Y119815903D01*
X156730244Y119815895D01*
X156718407Y119814962D01*
X156686149Y119813948D01*
X156682130Y119813822D01*
X156674211Y119813573D01*
X156654757Y119807921D01*
X156635400Y119803913D01*
X156623170Y119802368D01*
X156623169Y119802368D01*
X156615303Y119801374D01*
X156607932Y119798455D01*
X156607930Y119798455D01*
X156574188Y119785096D01*
X156562958Y119781251D01*
X156528117Y119771129D01*
X156528116Y119771129D01*
X156520507Y119768918D01*
X156513688Y119764885D01*
X156513683Y119764883D01*
X156503072Y119758607D01*
X156485324Y119749912D01*
X156466483Y119742452D01*
X156460067Y119737790D01*
X156460066Y119737790D01*
X156430713Y119716464D01*
X156420793Y119709948D01*
X156389565Y119691480D01*
X156389562Y119691478D01*
X156382738Y119687442D01*
X156368417Y119673121D01*
X156353384Y119660281D01*
X156336993Y119648372D01*
X156331943Y119642268D01*
X156331938Y119642263D01*
X156308807Y119614302D01*
X156300817Y119605521D01*
X155360142Y118664847D01*
X155351863Y118657313D01*
X155345382Y118653200D01*
X155314610Y118620431D01*
X155298757Y118603549D01*
X155296002Y118600707D01*
X155276265Y118580970D01*
X155273785Y118577773D01*
X155266082Y118568753D01*
X155235814Y118536521D01*
X155231995Y118529575D01*
X155231993Y118529572D01*
X155226052Y118518766D01*
X155215201Y118502247D01*
X155202786Y118486241D01*
X155199641Y118478972D01*
X155199638Y118478968D01*
X155185226Y118445663D01*
X155180009Y118435013D01*
X155158705Y118396260D01*
X155156734Y118388585D01*
X155156734Y118388584D01*
X155153667Y118376638D01*
X155147263Y118357934D01*
X155139219Y118339345D01*
X155137980Y118331522D01*
X155137977Y118331512D01*
X155132301Y118295676D01*
X155129895Y118284056D01*
X155122468Y118255128D01*
X155118900Y118241230D01*
X155118900Y118220976D01*
X155117349Y118201266D01*
X155114180Y118181257D01*
X155114926Y118173365D01*
X155118341Y118137239D01*
X155118900Y118125381D01*
X155118900Y106736995D01*
X155098898Y106668874D01*
X155081995Y106647899D01*
X154396299Y105962204D01*
X154333987Y105928179D01*
X154307204Y105925300D01*
X154251313Y105925300D01*
X154244861Y105923928D01*
X154244856Y105923928D01*
X154157912Y105905447D01*
X154064512Y105885594D01*
X154058482Y105882909D01*
X154058481Y105882909D01*
X153896078Y105810603D01*
X153896076Y105810602D01*
X153890048Y105807918D01*
X153735547Y105695666D01*
X153607760Y105553744D01*
X153512273Y105388356D01*
X153453258Y105206728D01*
X153452568Y105200167D01*
X153452568Y105200165D01*
X153435893Y105041507D01*
X153408880Y104975850D01*
X153399678Y104965582D01*
X147943747Y99509652D01*
X147935461Y99502112D01*
X147928982Y99498000D01*
X147923557Y99492223D01*
X147882357Y99448349D01*
X147879602Y99445507D01*
X147859865Y99425770D01*
X147857385Y99422573D01*
X147849682Y99413553D01*
X147819414Y99381321D01*
X147815595Y99374375D01*
X147815593Y99374372D01*
X147809652Y99363566D01*
X147798801Y99347047D01*
X147786386Y99331041D01*
X147783241Y99323772D01*
X147783238Y99323768D01*
X147768826Y99290463D01*
X147763609Y99279813D01*
X147742305Y99241060D01*
X147740334Y99233385D01*
X147740334Y99233384D01*
X147737267Y99221438D01*
X147730863Y99202734D01*
X147722819Y99184145D01*
X147721580Y99176322D01*
X147721577Y99176312D01*
X147715901Y99140476D01*
X147713495Y99128856D01*
X147702500Y99086030D01*
X147702500Y99065776D01*
X147700949Y99046066D01*
X147697780Y99026057D01*
X147698526Y99018165D01*
X147701941Y98982039D01*
X147702500Y98970181D01*
X147702500Y94448500D01*
X147682498Y94380379D01*
X147628842Y94333886D01*
X147576500Y94322500D01*
X147437866Y94322500D01*
X147375684Y94315745D01*
X147239295Y94264615D01*
X147122739Y94177261D01*
X147035385Y94060705D01*
X146984255Y93924316D01*
X146977500Y93862134D01*
X146977500Y92065866D01*
X137510587Y92065866D01*
X137142925Y105926732D01*
X136631114Y125222000D01*
X150216496Y125222000D01*
X150236458Y125032072D01*
X150295473Y124850444D01*
X150390960Y124685056D01*
X150464137Y124603785D01*
X150494853Y124539779D01*
X150496500Y124519476D01*
X150496500Y118188767D01*
X150495973Y118177584D01*
X150494298Y118170091D01*
X150494547Y118162165D01*
X150494547Y118162164D01*
X150496438Y118102014D01*
X150496500Y118098055D01*
X150496500Y118070144D01*
X150496997Y118066210D01*
X150496997Y118066209D01*
X150497005Y118066144D01*
X150497938Y118054307D01*
X150499327Y118010111D01*
X150504978Y117990661D01*
X150508987Y117971300D01*
X150511526Y117951203D01*
X150514445Y117943832D01*
X150514445Y117943830D01*
X150527804Y117910088D01*
X150531649Y117898858D01*
X150541771Y117864017D01*
X150543982Y117856407D01*
X150548015Y117849588D01*
X150548017Y117849583D01*
X150554293Y117838972D01*
X150562988Y117821224D01*
X150570448Y117802383D01*
X150575110Y117795967D01*
X150575110Y117795966D01*
X150596436Y117766613D01*
X150602952Y117756693D01*
X150625458Y117718638D01*
X150639779Y117704317D01*
X150652619Y117689284D01*
X150664528Y117672893D01*
X150670636Y117667840D01*
X150698598Y117644708D01*
X150707378Y117636718D01*
X150944878Y117399218D01*
X150978904Y117336906D01*
X150981092Y117323297D01*
X150998458Y117158072D01*
X151057473Y116976444D01*
X151152960Y116811056D01*
X151157378Y116806149D01*
X151157379Y116806148D01*
X151201753Y116756866D01*
X151280747Y116669134D01*
X151348578Y116619852D01*
X151404207Y116579435D01*
X151435248Y116556882D01*
X151441276Y116554198D01*
X151441278Y116554197D01*
X151603681Y116481891D01*
X151609712Y116479206D01*
X151703113Y116459353D01*
X151790056Y116440872D01*
X151790061Y116440872D01*
X151796513Y116439500D01*
X151987487Y116439500D01*
X151993939Y116440872D01*
X151993944Y116440872D01*
X152080887Y116459353D01*
X152174288Y116479206D01*
X152180319Y116481891D01*
X152342722Y116554197D01*
X152342724Y116554198D01*
X152348752Y116556882D01*
X152379794Y116579435D01*
X152435422Y116619852D01*
X152503253Y116669134D01*
X152582247Y116756866D01*
X152626621Y116806148D01*
X152626622Y116806149D01*
X152631040Y116811056D01*
X152726527Y116976444D01*
X152785542Y117158072D01*
X152793649Y117235200D01*
X152804814Y117341435D01*
X152805504Y117348000D01*
X152794280Y117454794D01*
X152786232Y117531365D01*
X152786232Y117531367D01*
X152785542Y117537928D01*
X152726527Y117719556D01*
X152723116Y117725465D01*
X152634341Y117879226D01*
X152631040Y117884944D01*
X152561325Y117962371D01*
X152507675Y118021955D01*
X152507674Y118021956D01*
X152503253Y118026866D01*
X152348752Y118139118D01*
X152342724Y118141802D01*
X152342722Y118141803D01*
X152180319Y118214109D01*
X152180318Y118214109D01*
X152174288Y118216794D01*
X152080888Y118236647D01*
X151993944Y118255128D01*
X151993939Y118255128D01*
X151987487Y118256500D01*
X151931595Y118256500D01*
X151863474Y118276502D01*
X151842500Y118293405D01*
X151800405Y118335500D01*
X151766379Y118397812D01*
X151763500Y118424595D01*
X151763500Y124519476D01*
X151783502Y124587597D01*
X151795858Y124603779D01*
X151869040Y124685056D01*
X151964527Y124850444D01*
X152023542Y125032072D01*
X152043504Y125222000D01*
X152023542Y125411928D01*
X151964527Y125593556D01*
X151869040Y125758944D01*
X151741253Y125900866D01*
X151586752Y126013118D01*
X151580724Y126015802D01*
X151580722Y126015803D01*
X151418319Y126088109D01*
X151418318Y126088109D01*
X151412288Y126090794D01*
X151318887Y126110647D01*
X151231944Y126129128D01*
X151231939Y126129128D01*
X151225487Y126130500D01*
X151034513Y126130500D01*
X151028061Y126129128D01*
X151028056Y126129128D01*
X150941113Y126110647D01*
X150847712Y126090794D01*
X150841682Y126088109D01*
X150841681Y126088109D01*
X150679278Y126015803D01*
X150679276Y126015802D01*
X150673248Y126013118D01*
X150518747Y125900866D01*
X150390960Y125758944D01*
X150295473Y125593556D01*
X150236458Y125411928D01*
X150216496Y125222000D01*
X136631114Y125222000D01*
X136298492Y137761866D01*
X162029500Y137761866D01*
X162036255Y137699684D01*
X162087385Y137563295D01*
X162174739Y137446739D01*
X162291295Y137359385D01*
X162427684Y137308255D01*
X162489866Y137301500D01*
X163578500Y137301500D01*
X163646621Y137281498D01*
X163693114Y137227842D01*
X163704500Y137175500D01*
X163704500Y137136667D01*
X163703973Y137125484D01*
X163702298Y137117991D01*
X163702547Y137110065D01*
X163702547Y137110064D01*
X163704438Y137049914D01*
X163704500Y137045955D01*
X163704500Y137018044D01*
X163704997Y137014110D01*
X163704997Y137014109D01*
X163705005Y137014044D01*
X163705938Y137002207D01*
X163707327Y136958011D01*
X163712978Y136938561D01*
X163716987Y136919200D01*
X163719526Y136899103D01*
X163722445Y136891732D01*
X163722445Y136891730D01*
X163735804Y136857988D01*
X163739649Y136846758D01*
X163751982Y136804307D01*
X163756015Y136797488D01*
X163756017Y136797483D01*
X163762293Y136786872D01*
X163770988Y136769124D01*
X163778448Y136750283D01*
X163783110Y136743867D01*
X163783110Y136743866D01*
X163790124Y136734212D01*
X163811415Y136668681D01*
X163813496Y136668900D01*
X163833458Y136478972D01*
X163892473Y136297344D01*
X163987960Y136131956D01*
X164115747Y135990034D01*
X164270248Y135877782D01*
X164276276Y135875098D01*
X164276278Y135875097D01*
X164438681Y135802791D01*
X164444712Y135800106D01*
X164538113Y135780253D01*
X164625056Y135761772D01*
X164625061Y135761772D01*
X164631513Y135760400D01*
X164822487Y135760400D01*
X164828939Y135761772D01*
X164828944Y135761772D01*
X164915887Y135780253D01*
X165009288Y135800106D01*
X165015319Y135802791D01*
X165177722Y135875097D01*
X165177724Y135875098D01*
X165183752Y135877782D01*
X165338253Y135990034D01*
X165466040Y136131956D01*
X165561527Y136297344D01*
X165620542Y136478972D01*
X165640504Y136668900D01*
X165639814Y136675465D01*
X165621232Y136852265D01*
X165621232Y136852267D01*
X165620542Y136858828D01*
X165561527Y137040456D01*
X165556067Y137049914D01*
X165543532Y137071624D01*
X165519932Y137112501D01*
X165503194Y137181495D01*
X165526414Y137248587D01*
X165582221Y137292474D01*
X165629051Y137301500D01*
X166186134Y137301500D01*
X166248316Y137308255D01*
X166384705Y137359385D01*
X166501261Y137446739D01*
X166588615Y137563295D01*
X166639745Y137699684D01*
X166646500Y137761866D01*
X166646500Y140458134D01*
X166639745Y140520316D01*
X166588615Y140656705D01*
X166501261Y140773261D01*
X166384705Y140860615D01*
X166248316Y140911745D01*
X166186134Y140918500D01*
X162489866Y140918500D01*
X162427684Y140911745D01*
X162291295Y140860615D01*
X162174739Y140773261D01*
X162087385Y140656705D01*
X162036255Y140520316D01*
X162029500Y140458134D01*
X162029500Y137761866D01*
X136298492Y137761866D01*
X136051698Y147066000D01*
X179588835Y147066000D01*
X179607465Y146829289D01*
X179662895Y146598406D01*
X179753760Y146379037D01*
X179756346Y146374817D01*
X179875241Y146180798D01*
X179875245Y146180792D01*
X179877824Y146176584D01*
X180032031Y145996031D01*
X180212584Y145841824D01*
X180216792Y145839245D01*
X180216798Y145839241D01*
X180410817Y145720346D01*
X180415037Y145717760D01*
X180419607Y145715867D01*
X180419611Y145715865D01*
X180629833Y145628789D01*
X180634406Y145626895D01*
X180714609Y145607640D01*
X180860476Y145572620D01*
X180860482Y145572619D01*
X180865289Y145571465D01*
X181102000Y145552835D01*
X181338711Y145571465D01*
X181343518Y145572619D01*
X181343524Y145572620D01*
X181489391Y145607640D01*
X181569594Y145626895D01*
X181574167Y145628789D01*
X181784389Y145715865D01*
X181784393Y145715867D01*
X181788963Y145717760D01*
X181793183Y145720346D01*
X181987202Y145839241D01*
X181987208Y145839245D01*
X181991416Y145841824D01*
X182171969Y145996031D01*
X182326176Y146176584D01*
X182328755Y146180792D01*
X182328759Y146180798D01*
X182447654Y146374817D01*
X182450240Y146379037D01*
X182541105Y146598406D01*
X182596535Y146829289D01*
X182615165Y147066000D01*
X182596535Y147302711D01*
X182541105Y147533594D01*
X182539211Y147538167D01*
X182452135Y147748389D01*
X182452133Y147748393D01*
X182450240Y147752963D01*
X182447654Y147757183D01*
X182328759Y147951202D01*
X182328755Y147951208D01*
X182326176Y147955416D01*
X182171969Y148135969D01*
X181991416Y148290176D01*
X181987208Y148292755D01*
X181987202Y148292759D01*
X181793183Y148411654D01*
X181788963Y148414240D01*
X181784393Y148416133D01*
X181784389Y148416135D01*
X181574167Y148503211D01*
X181574165Y148503212D01*
X181569594Y148505105D01*
X181489391Y148524360D01*
X181343524Y148559380D01*
X181343518Y148559381D01*
X181338711Y148560535D01*
X181102000Y148579165D01*
X180865289Y148560535D01*
X180860482Y148559381D01*
X180860476Y148559380D01*
X180714609Y148524360D01*
X180634406Y148505105D01*
X180629835Y148503212D01*
X180629833Y148503211D01*
X180419611Y148416135D01*
X180419607Y148416133D01*
X180415037Y148414240D01*
X180410817Y148411654D01*
X180216798Y148292759D01*
X180216792Y148292755D01*
X180212584Y148290176D01*
X180032031Y148135969D01*
X179877824Y147955416D01*
X179875245Y147951208D01*
X179875241Y147951202D01*
X179756346Y147757183D01*
X179753760Y147752963D01*
X179751867Y147748393D01*
X179751865Y147748389D01*
X179664789Y147538167D01*
X179662895Y147533594D01*
X179607465Y147302711D01*
X179588835Y147066000D01*
X136051698Y147066000D01*
X135893431Y153032659D01*
X135911620Y153101286D01*
X135964024Y153149185D01*
X136019387Y153162000D01*
X185311183Y153162000D01*
X185379304Y153141998D01*
G37*
%TD.AperFunction*%
%TD*%
M02*
