  0
SECTION
  2
HEADER
  9
$ACADVER
  1
AC1006
  9
$EXTMIN
 10
0.000000
 20
0.000000
 30
0.000000
  9
$EXTMAX
 10
408.000000
 20
1236.000000
 30
0.000000
  0
ENDSEC
  0
SECTION
  2
ENTITIES
  0
POLYLINE
  8
0
 66
1
 70
1
  0
VERTEX
  8
0
 10
51.968971
 20
1206.968971
 42
0.084148
  0
VERTEX
  8
0
 10
50.874559
 20
1205.427844
 42
0.080851
  0
VERTEX
  8
0
 10
50.329859
 20
1203.590761
 42
0.037126
  0
VERTEX
  8
0
 10
50.175292
 20
1200.659154
 42
0.004906
  0
VERTEX
  8
0
 10
50.370388
 20
1194.438918
 42
0.000000
  0
VERTEX
  8
0
 10
50.802834
 20
1183.939894
 42
0.000000
  0
VERTEX
  8
0
 10
57.901417
 20
1176.466933
 42
-0.007324
  0
VERTEX
  8
0
 10
60.626037
 20
1173.513147
 42
-0.010649
  0
VERTEX
  8
0
 10
62.934294
 20
1170.822852
 42
-0.006495
  0
VERTEX
  8
0
 10
64.778236
 20
1168.518342
 42
-0.153348
  0
VERTEX
  8
0
 10
65.066391
 20
1167.746986
 42
0.110338
  0
VERTEX
  8
0
 10
65.268261
 20
1167.025935
 42
0.012510
  0
VERTEX
  8
0
 10
66.112163
 20
1165.544427
 42
0.014654
  0
VERTEX
  8
0
 10
67.226195
 20
1163.814419
 42
0.011425
  0
VERTEX
  8
0
 10
68.533237
 20
1162.000000
 42
-0.016697
  0
VERTEX
  8
0
 10
70.121165
 20
1159.745934
 42
-0.006855
  0
VERTEX
  8
0
 10
72.129123
 20
1156.589826
 42
-0.006773
  0
VERTEX
  8
0
 10
74.193899
 20
1153.140306
 42
-0.008627
  0
VERTEX
  8
0
 10
75.999443
 20
1149.901534
 42
0.015570
  0
VERTEX
  8
0
 10
77.803076
 20
1146.769247
 42
0.020726
  0
VERTEX
  8
0
 10
79.644155
 20
1144.049258
 42
0.021858
  0
VERTEX
  8
0
 10
81.345344
 20
1141.946356
 42
0.089110
  0
VERTEX
  8
0
 10
82.629749
 20
1140.930560
 42
-0.080175
  0
VERTEX
  8
0
 10
83.804772
 20
1140.034697
 42
-0.024573
  0
VERTEX
  8
0
 10
85.264662
 20
1138.337075
 42
-0.023895
  0
VERTEX
  8
0
 10
86.736365
 20
1136.246254
 42
-0.024053
  0
VERTEX
  8
0
 10
87.998374
 20
1134.029026
 42
0.025890
  0
VERTEX
  8
0
 10
89.496785
 20
1131.418803
 42
0.010913
  0
VERTEX
  8
0
 10
91.763373
 20
1128.067901
 42
0.010764
  0
VERTEX
  8
0
 10
94.346247
 20
1124.584828
 42
0.013800
  0
VERTEX
  8
0
 10
96.877764
 20
1121.500000
 42
-0.015893
  0
VERTEX
  8
0
 10
99.444433
 20
1118.345512
 42
-0.011194
  0
VERTEX
  8
0
 10
102.134610
 20
1114.646875
 42
-0.011311
  0
VERTEX
  8
0
 10
104.551026
 20
1110.989305
 42
-0.023197
  0
VERTEX
  8
0
 10
106.242111
 20
1108.000000
 42
0.026280
  0
VERTEX
  8
0
 10
108.138886
 20
1104.694783
 42
0.023974
  0
VERTEX
  8
0
 10
110.426788
 20
1101.500000
 42
0.022102
  0
VERTEX
  8
0
 10
113.192507
 20
1098.305695
 42
0.016116
  0
VERTEX
  8
0
 10
116.529022
 20
1095.000000
 42
-0.025478
  0
VERTEX
  8
0
 10
121.788363
 20
1089.590481
 42
-0.016515
  0
VERTEX
  8
0
 10
127.326398
 20
1082.844127
 42
-0.011015
  0
VERTEX
  8
0
 10
132.130843
 20
1076.286373
 42
-0.153761
  0
VERTEX
  8
0
 10
133.000000
 20
1073.526873
 42
0.088701
  0
VERTEX
  8
0
 10
133.408114
 20
1071.244458
 42
0.031113
  0
VERTEX
  8
0
 10
134.759422
 20
1068.186385
 42
0.029938
  0
VERTEX
  8
0
 10
136.439502
 20
1065.371774
 42
0.120933
  0
VERTEX
  8
0
 10
137.915712
 20
1064.045110
 42
-0.109801
  0
VERTEX
  8
0
 10
138.847713
 20
1063.243830
 42
-0.017872
  0
VERTEX
  8
0
 10
140.215143
 20
1061.271459
 42
-0.018958
  0
VERTEX
  8
0
 10
141.677554
 20
1058.790101
 42
-0.015686
  0
VERTEX
  8
0
 10
143.048781
 20
1056.045097
 42
0.012559
  0
VERTEX
  8
0
 10
144.425917
 20
1053.244594
 42
0.013665
  0
VERTEX
  8
0
 10
145.905707
 20
1050.595770
 42
0.013221
  0
VERTEX
  8
0
 10
147.290661
 20
1048.402531
 42
0.063020
  0
VERTEX
  8
0
 10
148.261128
 20
1047.286054
 42
-0.050531
  0
VERTEX
  8
0
 10
150.690651
 20
1044.627662
 42
-0.036984
  0
VERTEX
  8
0
 10
152.834289
 20
1041.250193
 42
-0.036795
  0
VERTEX
  8
0
 10
154.469419
 20
1037.569360
 42
-0.048033
  0
VERTEX
  8
0
 10
155.375101
 20
1034.000000
 42
0.035811
  0
VERTEX
  8
0
 10
157.034665
 20
1026.718675
 42
0.030297
  0
VERTEX
  8
0
 10
159.789320
 20
1019.316474
 42
0.031242
  0
VERTEX
  8
0
 10
163.269664
 20
1012.619945
 42
0.050780
  0
VERTEX
  8
0
 10
167.110848
 20
1007.495571
 42
-0.043174
  0
VERTEX
  8
0
 10
169.789626
 20
1004.032700
 42
-0.061105
  0
VERTEX
  8
0
 10
171.483321
 20
1000.527062
 42
-0.106241
  0
VERTEX
  8
0
 10
171.778994
 20
997.996620
 42
-0.386548
  0
VERTEX
  8
0
 10
170.682488
 20
997.000000
 42
0.088528
  0
VERTEX
  8
0
 10
170.035266
 20
996.884500
 42
0.043272
  0
VERTEX
  8
0
 10
169.274227
 20
996.526515
 42
0.041115
  0
VERTEX
  8
0
 10
168.525251
 20
996.004876
 42
0.046918
  0
VERTEX
  8
0
 10
167.907163
 20
995.388138
 42
-0.071737
  0
VERTEX
  8
0
 10
166.098552
 20
993.753733
 42
-0.101114
  0
VERTEX
  8
0
 10
164.094483
 20
992.929781
 42
-0.102885
  0
VERTEX
  8
0
 10
161.954251
 20
992.965140
 42
-0.076522
  0
VERTEX
  8
0
 10
159.748716
 20
993.831551
 42
-0.035597
  0
VERTEX
  8
0
 10
158.653349
 20
994.578081
 42
-0.032294
  0
VERTEX
  8
0
 10
157.636453
 20
995.495386
 42
-0.033809
  0
VERTEX
  8
0
 10
156.834730
 20
996.438223
 42
-0.082628
  0
VERTEX
  8
0
 10
156.421541
 20
997.247201
 42
0.087401
  0
VERTEX
  8
0
 10
155.970660
 20
998.109699
 42
0.151539
  0
VERTEX
  8
0
 10
155.315600
 20
998.571402
 42
0.099688
  0
VERTEX
  8
0
 10
154.305840
 20
998.687474
 42
0.025299
  0
VERTEX
  8
0
 10
152.662420
 20
998.464492
 42
-0.043817
  0
VERTEX
  8
0
 10
151.225935
 20
998.323455
 42
-0.027380
  0
VERTEX
  8
0
 10
149.536069
 20
998.398629
 42
-0.027389
  0
VERTEX
  8
0
 10
147.865847
 20
998.657841
 42
-0.044103
  0
VERTEX
  8
0
 10
146.489594
 20
999.078867
 42
0.055153
  0
VERTEX
  8
0
 10
143.152579
 20
1000.019809
 42
0.037597
  0
VERTEX
  8
0
 10
139.222572
 20
1000.372419
 42
0.033840
  0
VERTEX
  8
0
 10
135.744468
 20
1000.186755
 42
0.277503
  0
VERTEX
  8
0
 10
134.543355
 20
999.250000
 42
-0.190853
  0
VERTEX
  8
0
 10
133.652548
 20
998.282623
 42
-0.155597
  0
VERTEX
  8
0
 10
132.248283
 20
998.083738
 42
-0.109880
  0
VERTEX
  8
0
 10
130.584226
 20
998.761748
 42
-0.071207
  0
VERTEX
  8
0
 10
129.054482
 20
1000.181045
 42
0.034838
  0
VERTEX
  8
0
 10
127.950525
 20
1001.365336
 42
0.141644
  0
VERTEX
  8
0
 10
127.080941
 20
1001.806428
 42
0.122543
  0
VERTEX
  8
0
 10
126.038963
 20
1001.748165
 42
0.023247
  0
VERTEX
  8
0
 10
124.236076
 20
1001.097786
 42
-0.089713
  0
VERTEX
  8
0
 10
121.833777
 20
1000.576324
 42
-0.101070
  0
VERTEX
  8
0
 10
119.506940
 20
1000.967724
 42
-0.067989
  0
VERTEX
  8
0
 10
116.851150
 20
1002.431981
 42
-0.020960
  0
VERTEX
  8
0
 10
113.293279
 20
1005.318274
 42
0.047118
  0
VERTEX
  8
0
 10
112.090661
 20
1006.193838
 42
0.071413
  0
VERTEX
  8
0
 10
110.897089
 20
1006.688029
 42
0.069601
  0
VERTEX
  8
0
 10
109.590027
 20
1006.833702
 42
0.042378
  0
VERTEX
  8
0
 10
108.043279
 20
1006.658656
 42
-0.020729
  0
VERTEX
  8
0
 10
106.238873
 20
1006.374966
 42
-0.183646
  0
VERTEX
  8
0
 10
105.471755
 20
1006.569825
 42
-0.213855
  0
VERTEX
  8
0
 10
105.092273
 20
1007.206595
 42
-0.029026
  0
VERTEX
  8
0
 10
105.000000
 20
1008.794723
 42
0.087998
  0
VERTEX
  8
0
 10
104.727336
 20
1010.331986
 42
0.072538
  0
VERTEX
  8
0
 10
103.933838
 20
1011.798701
 42
0.048889
  0
VERTEX
  8
0
 10
102.458334
 20
1013.419743
 42
0.016189
  0
VERTEX
  8
0
 10
100.000000
 20
1015.500000
 42
-0.007989
  0
VERTEX
  8
0
 10
98.083962
 20
1017.068182
 42
-0.012008
  0
VERTEX
  8
0
 10
96.468750
 20
1018.501732
 42
-0.006941
  0
VERTEX
  8
0
 10
95.173883
 20
1019.741793
 42
-0.200923
  0
VERTEX
  8
0
 10
95.000000
 20
1020.157035
 42
0.275676
  0
VERTEX
  8
0
 10
94.379254
 20
1021.197336
 42
0.026716
  0
VERTEX
  8
0
 10
91.612680
 20
1022.504522
 42
0.030518
  0
VERTEX
  8
0
 10
88.664233
 20
1023.504455
 42
0.144310
  0
VERTEX
  8
0
 10
86.898939
 20
1023.467925
 42
-0.208963
  0
VERTEX
  8
0
 10
85.567187
 20
1023.607826
 42
-0.105584
  0
VERTEX
  8
0
 10
84.281928
 20
1024.751228
 42
-0.045559
  0
VERTEX
  8
0
 10
82.762624
 20
1027.272659
 42
-0.008194
  0
VERTEX
  8
0
 10
80.450599
 20
1032.250000
 42
0.011915
  0
VERTEX
  8
0
 10
79.161723
 20
1034.971513
 42
0.159798
  0
VERTEX
  8
0
 10
78.392651
 20
1035.744219
 42
0.271976
  0
VERTEX
  8
0
 10
77.522864
 20
1035.691736
 42
0.036063
  0
VERTEX
  8
0
 10
76.010928
 20
1034.509890
 42
-0.126890
  0
VERTEX
  8
0
 10
74.928707
 20
1033.942158
 42
-0.196790
  0
VERTEX
  8
0
 10
73.901059
 20
1034.105801
 42
-0.070822
  0
VERTEX
  8
0
 10
72.554510
 20
1035.212491
 42
-0.007487
  0
VERTEX
  8
0
 10
69.846595
 20
1038.259890
 42
-0.010951
  0
VERTEX
  8
0
 10
66.482228
 20
1042.339518
 42
-0.033771
  0
VERTEX
  8
0
 10
64.463923
 20
1045.288472
 42
-0.050816
  0
VERTEX
  8
0
 10
63.365408
 20
1047.676616
 42
-0.082583
  0
VERTEX
  8
0
 10
63.000000
 20
1049.873893
 42
0.096791
  0
VERTEX
  8
0
 10
62.804054
 20
1050.876620
 42
0.157385
  0
VERTEX
  8
0
 10
62.251262
 20
1051.535359
 42
0.096459
  0
VERTEX
  8
0
 10
61.192087
 20
1051.943852
 42
0.022970
  0
VERTEX
  8
0
 10
59.309739
 20
1052.189635
 42
-0.036559
  0
VERTEX
  8
0
 10
57.123975
 20
1052.535628
 42
-0.136789
  0
VERTEX
  8
0
 10
55.916465
 20
1053.198382
 42
-0.101300
  0
VERTEX
  8
0
 10
55.032275
 20
1054.504693
 42
-0.015380
  0
VERTEX
  8
0
 10
53.909355
 20
1057.466795
 42
0.029459
  0
VERTEX
  8
0
 10
52.719668
 20
1060.356915
 42
0.058393
  0
VERTEX
  8
0
 10
51.392239
 20
1062.445984
 42
0.243879
  0
VERTEX
  8
0
 10
50.515512
 20
1062.826693
 42
0.394218
  0
VERTEX
  8
0
 10
50.000000
 20
1062.274463
 42
-0.091827
  0
VERTEX
  8
0
 10
49.914406
 20
1061.812333
 42
-0.022807
  0
VERTEX
  8
0
 10
49.605043
 20
1061.104208
 42
-0.022548
  0
VERTEX
  8
0
 10
49.170113
 20
1060.312936
 42
-0.020928
  0
VERTEX
  8
0
 10
48.655465
 20
1059.543498
 42
-0.221669
  0
VERTEX
  8
0
 10
47.545300
 20
1058.932477
 42
-0.165789
  0
VERTEX
  8
0
 10
46.178227
 20
1059.298686
 42
-0.042951
  0
VERTEX
  8
0
 10
43.920529
 20
1061.110151
 42
-0.003593
  0
VERTEX
  8
0
 10
38.533714
 20
1066.325305
 42
-0.006425
  0
VERTEX
  8
0
 10
32.746907
 20
1072.156792
 42
-0.074704
  0
VERTEX
  8
0
 10
30.885799
 20
1074.766075
 42
-0.142690
  0
VERTEX
  8
0
 10
30.428432
 20
1077.183629
 42
-0.042487
  0
VERTEX
  8
0
 10
31.113312
 20
1080.917399
 42
0.192475
  0
VERTEX
  8
0
 10
31.036703
 20
1081.586705
 42
0.103387
  0
VERTEX
  8
0
 10
30.492753
 20
1082.232105
 42
0.066247
  0
VERTEX
  8
0
 10
29.476227
 20
1082.830642
 42
0.029002
  0
VERTEX
  8
0
 10
28.000000
 20
1083.355929
 42
-0.019064
  0
VERTEX
  8
0
 10
26.611152
 20
1083.819258
 42
-0.022209
  0
VERTEX
  8
0
 10
25.332158
 20
1084.366853
 42
-0.021898
  0
VERTEX
  8
0
 10
24.304184
 20
1084.918775
 42
-0.110348
  0
VERTEX
  8
0
 10
23.832879
 20
1085.363445
 42
0.196973
  0
VERTEX
  8
0
 10
23.220424
 20
1085.771011
 42
0.010932
  0
VERTEX
  8
0
 10
20.913942
 20
1086.182004
 42
0.015540
  0
VERTEX
  8
0
 10
18.074021
 20
1086.534235
 42
0.010639
  0
VERTEX
  8
0
 10
14.832879
 20
1086.764890
 42
0.000000
  0
VERTEX
  8
0
 10
6.500000
 20
1087.179948
 42
0.000000
  0
VERTEX
  8
0
 10
3.632843
 20
1081.600358
 42
0.037020
  0
VERTEX
  8
0
 10
1.856014
 20
1077.405630
 42
0.074173
  0
VERTEX
  8
0
 10
1.218102
 20
1073.871797
 42
0.035179
  0
VERTEX
  8
0
 10
1.416380
 20
1068.894108
 42
0.003170
  0
VERTEX
  8
0
 10
2.866620
 20
1056.500000
 42
0.041484
  0
VERTEX
  8
0
 10
4.853519
 20
1046.979329
 42
0.012497
  0
VERTEX
  8
0
 10
9.419659
 20
1032.901951
 42
0.010189
  0
VERTEX
  8
0
 10
14.554185
 20
1019.220382
 42
0.082325
  0
VERTEX
  8
0
 10
18.011831
 20
1013.500000
 42
-0.032861
  0
VERTEX
  8
0
 10
18.896447
 20
1012.317460
 42
-0.006622
  0
VERTEX
  8
0
 10
20.299674
 20
1010.095697
 42
-0.006965
  0
VERTEX
  8
0
 10
21.864631
 20
1007.461985
 42
-0.006461
  0
VERTEX
  8
0
 10
23.396179
 20
1004.719393
 42
0.000633
  0
VERTEX
  8
0
 10
24.934686
 20
1001.887285
 42
0.000586
  0
VERTEX
  8
0
 10
26.520549
 20
998.984892
 42
0.000584
  0
VERTEX
  8
0
 10
27.938408
 20
996.404340
 42
0.001962
  0
VERTEX
  8
0
 10
28.875386
 20
994.719393
 42
-0.017137
  0
VERTEX
  8
0
 10
29.661187
 20
993.199478
 42
-0.009135
  0
VERTEX
  8
0
 10
30.533232
 20
991.270697
 42
-0.009083
  0
VERTEX
  8
0
 10
31.353039
 20
989.265939
 42
-0.013967
  0
VERTEX
  8
0
 10
31.981858
 20
987.500000
 42
0.015383
  0
VERTEX
  8
0
 10
32.760867
 20
985.331714
 42
0.003568
  0
VERTEX
  8
0
 10
34.208177
 20
981.737500
 42
0.003680
  0
VERTEX
  8
0
 10
35.935193
 20
977.621875
 42
0.003595
  0
VERTEX
  8
0
 10
37.735798
 20
973.500000
 42
-0.004040
  0
VERTEX
  8
0
 10
39.760399
 20
968.854094
 42
-0.002179
  0
VERTEX
  8
0
 10
42.183419
 20
963.099542
 42
-0.002169
  0
VERTEX
  8
0
 10
44.601386
 20
957.214415
 42
-0.003412
  0
VERTEX
  8
0
 10
46.621655
 20
952.136738
 42
0.001880
  0
VERTEX
  8
0
 10
48.471253
 20
947.446229
 42
0.001856
  0
VERTEX
  8
0
 10
50.364018
 20
942.749393
 42
0.001821
  0
VERTEX
  8
0
 10
52.051857
 20
938.648331
 42
0.007143
  0
VERTEX
  8
0
 10
53.138584
 20
936.136738
 42
0.000722
  0
VERTEX
  8
0
 10
56.890722
 20
927.826120
 42
0.002161
  0
VERTEX
  8
0
 10
59.488416
 20
922.159803
 42
0.002588
  0
VERTEX
  8
0
 10
61.867662
 20
917.097459
 42
0.001474
  0
VERTEX
  8
0
 10
64.794105
 20
911.000000
 42
0.004987
  0
VERTEX
  8
0
 10
66.851520
 20
906.851494
 42
0.003530
  0
VERTEX
  8
0
 10
69.240175
 20
902.234375
 42
0.003563
  0
VERTEX
  8
0
 10
71.585021
 20
897.855289
 42
0.007524
  0
VERTEX
  8
0
 10
73.478555
 20
894.500000
 42
-0.004447
  0
VERTEX
  8
0
 10
75.180725
 20
891.526698
 42
-0.003863
  0
VERTEX
  8
0
 10
76.912683
 20
888.381250
 42
-0.003888
  0
VERTEX
  8
0
 10
78.436326
 20
885.509646
 42
-0.011398
  0
VERTEX
  8
0
 10
79.425123
 20
883.500000
 42
0.009813
  0
VERTEX
  8
0
 10
80.261945
 20
881.785535
 42
0.007476
  0
VERTEX
  8
0
 10
81.242814
 20
879.940625
 42
0.007566
  0
VERTEX
  8
0
 10
82.214564
 20
878.238453
 42
0.017556
  0
VERTEX
  8
0
 10
83.006588
 20
877.000000
 42
-0.015476
  0
VERTEX
  8
0
 10
83.910610
 20
875.599288
 42
-0.003555
  0
VERTEX
  8
0
 10
85.345773
 20
873.178125
 42
-0.003671
  0
VERTEX
  8
0
 10
86.959788
 20
870.363281
 42
-0.003574
  0
VERTEX
  8
0
 10
88.546900
 20
867.500000
 42
0.006780
  0
VERTEX
  8
0
 10
90.250044
 20
864.473318
 42
0.004985
  0
VERTEX
  8
0
 10
92.216177
 20
861.163950
 42
0.005038
  0
VERTEX
  8
0
 10
94.139402
 20
858.069775
 42
0.011177
  0
VERTEX
  8
0
 10
95.680917
 20
855.760256
 42
-0.008169
  0
VERTEX
  8
0
 10
96.952343
 20
853.879980
 42
-0.011338
  0
VERTEX
  8
0
 10
98.025019
 20
852.152017
 42
-0.008001
  0
VERTEX
  8
0
 10
98.858562
 20
850.685606
 42
-0.125878
  0
VERTEX
  8
0
 10
99.000000
 20
850.132700
 42
0.117124
  0
VERTEX
  8
0
 10
99.101173
 20
849.706720
 42
0.036664
  0
VERTEX
  8
0
 10
99.440625
 20
849.139998
 42
0.034366
  0
VERTEX
  8
0
 10
99.925957
 20
848.541870
 42
0.031936
  0
VERTEX
  8
0
 10
100.500000
 20
848.000000
 42
-0.080964
  0
VERTEX
  8
0
 10
101.735874
 20
846.580903
 42
-0.208705
  0
VERTEX
  8
0
 10
101.926024
 20
845.264153
 42
-0.233170
  0
VERTEX
  8
0
 10
101.098104
 20
844.331984
 42
-0.096903
  0
VERTEX
  8
0
 10
99.401210
 20
844.000000
 42
-0.079145
  0
VERTEX
  8
0
 10
98.138809
 20
844.201085
 42
-0.047807
  0
VERTEX
  8
0
 10
96.747563
 20
844.808185
 42
-0.042870
  0
VERTEX
  8
0
 10
95.333263
 20
845.760657
 42
-0.035280
  0
VERTEX
  8
0
 10
94.000000
 20
847.000000
 42
0.074537
  0
VERTEX
  8
0
 10
91.584798
 20
848.915957
 42
0.085253
  0
VERTEX
  8
0
 10
88.820158
 20
849.930594
 42
0.098551
  0
VERTEX
  8
0
 10
86.206542
 20
849.891862
 42
0.144522
  0
VERTEX
  8
0
 10
84.200000
 20
848.800000
 42
0.138651
  0
VERTEX
  8
0
 10
83.710464
 20
847.924523
 42
0.021419
  0
VERTEX
  8
0
 10
83.328079
 20
845.951947
 42
0.021554
  0
VERTEX
  8
0
 10
83.062151
 20
843.441700
 42
0.014355
  0
VERTEX
  8
0
 10
82.964565
 20
840.550000
 42
-0.002712
  0
VERTEX
  8
0
 10
82.917322
 20
836.029471
 42
-0.076545
  0
VERTEX
  8
0
 10
82.720970
 20
834.876381
 42
-0.585376
  0
VERTEX
  8
0
 10
82.305215
 20
834.796360
 42
-0.041851
  0
VERTEX
  8
0
 10
81.449384
 20
836.000000
 42
0.061193
  0
VERTEX
  8
0
 10
80.676331
 20
837.002935
 42
0.614810
  0
VERTEX
  8
0
 10
80.291400
 20
836.879381
 42
0.055865
  0
VERTEX
  8
0
 10
80.225304
 20
835.447229
 42
0.002495
  0
VERTEX
  8
0
 10
80.574589
 20
830.500000
 42
-0.007254
  0
VERTEX
  8
0
 10
80.867295
 20
825.704885
 42
-0.050909
  0
VERTEX
  8
0
 10
80.738107
 20
823.369964
 42
-0.093948
  0
VERTEX
  8
0
 10
80.158948
 20
821.755079
 42
-0.056460
  0
VERTEX
  8
0
 10
78.931720
 20
820.122167
 42
0.043210
  0
VERTEX
  8
0
 10
77.677916
 20
818.542618
 42
0.114615
  0
VERTEX
  8
0
 10
77.178204
 20
817.200102
 42
0.069494
  0
VERTEX
  8
0
 10
77.197434
 20
815.397399
 42
0.009180
  0
VERTEX
  8
0
 10
77.836896
 20
811.622167
 42
-0.004584
  0
VERTEX
  8
0
 10
78.325084
 20
808.892646
 42
-0.003014
  0
VERTEX
  8
0
 10
78.839165
 20
805.742911
 42
-0.003033
  0
VERTEX
  8
0
 10
79.302440
 20
802.671235
 42
-0.005842
  0
VERTEX
  8
0
 10
79.629777
 20
800.204763
 42
-0.043042
  0
VERTEX
  8
0
 10
79.861050
 20
793.450615
 42
-0.007894
  0
VERTEX
  8
0
 10
79.017001
 20
780.981957
 42
-0.007463
  0
VERTEX
  8
0
 10
77.790815
 20
768.548819
 42
-0.050234
  0
VERTEX
  8
0
 10
76.478686
 20
762.500000
 42
0.018463
  0
VERTEX
  8
0
 10
75.897223
 20
760.455402
 42
0.006429
  0
VERTEX
  8
0
 10
75.207159
 20
757.471875
 42
0.006375
  0
VERTEX
  8
0
 10
74.530960
 20
754.164728
 42
0.007389
  0
VERTEX
  8
0
 10
73.974160
 20
751.000000
 42
-0.014740
  0
VERTEX
  8
0
 10
73.362306
 20
747.798838
 42
-0.011707
  0
VERTEX
  8
0
 10
72.519630
 20
744.381250
 42
-0.011879
  0
VERTEX
  8
0
 10
71.588290
 20
741.247907
 42
-0.028848
  0
VERTEX
  8
0
 10
70.715489
 20
739.000000
 42
0.030638
  0
VERTEX
  8
0
 10
69.914385
 20
736.914677
 42
0.018316
  0
VERTEX
  8
0
 10
69.208500
 20
734.353125
 42
0.018303
  0
VERTEX
  8
0
 10
68.690829
 20
731.741262
 42
0.030080
  0
VERTEX
  8
0
 10
68.468400
 20
729.500000
 42
-0.012549
  0
VERTEX
  8
0
 10
68.314354
 20
727.091597
 42
-0.005516
  0
VERTEX
  8
0
 10
67.995370
 20
723.912500
 42
-0.005454
  0
VERTEX
  8
0
 10
67.582778
 20
720.545795
 42
-0.007284
  0
VERTEX
  8
0
 10
67.130488
 20
717.500000
 42
0.001434
  0
VERTEX
  8
0
 10
66.647522
 20
714.490397
 42
0.001136
  0
VERTEX
  8
0
 10
66.142162
 20
711.234375
 42
0.001148
  0
VERTEX
  8
0
 10
65.687098
 20
708.211382
 42
0.002865
  0
VERTEX
  8
0
 10
65.372340
 20
706.000000
 42
-0.023206
  0
VERTEX
  8
0
 10
64.714988
 20
702.429342
 42
-0.008415
  0
VERTEX
  8
0
 10
63.463498
 20
697.430065
 42
-0.008004
  0
VERTEX
  8
0
 10
61.847014
 20
691.768730
 42
-0.007358
  0
VERTEX
  8
0
 10
60.006431
 20
686.000000
 42
0.017650
  0
VERTEX
  8
0
 10
59.579077
 20
684.558818
 42
0.003295
  0
VERTEX
  8
0
 10
58.906467
 20
681.884375
 42
0.003525
  0
VERTEX
  8
0
 10
58.162571
 20
678.746129
 42
0.003215
  0
VERTEX
  8
0
 10
57.439174
 20
675.500000
 42
-0.018747
  0
VERTEX
  8
0
 10
56.506755
 20
671.853310
 42
-0.010374
  0
VERTEX
  8
0
 10
55.110759
 20
667.473612
 42
-0.010332
  0
VERTEX
  8
0
 10
53.510302
 20
663.088758
 42
-0.016362
  0
VERTEX
  8
0
 10
51.940441
 20
659.410170
 42
0.014310
  0
VERTEX
  8
0
 10
50.448183
 20
655.952795
 42
0.012469
  0
VERTEX
  8
0
 10
49.081757
 20
652.254365
 42
0.012636
  0
VERTEX
  8
0
 10
48.013837
 20
648.846749
 42
0.035819
  0
VERTEX
  8
0
 10
47.502595
 20
646.410170
 42
-0.009492
  0
VERTEX
  8
0
 10
47.119595
 20
643.946034
 42
-0.003392
  0
VERTEX
  8
0
 10
46.482736
 20
640.445487
 42
-0.003364
  0
VERTEX
  8
0
 10
45.732100
 20
636.614255
 42
-0.003970
  0
VERTEX
  8
0
 10
44.968762
 20
633.000000
 42
0.015378
  0
VERTEX
  8
0
 10
42.994492
 20
622.469550
 42
0.010114
  0
VERTEX
  8
0
 10
41.342674
 20
610.248770
 42
0.008587
  0
VERTEX
  8
0
 10
40.241748
 20
598.928837
 42
0.052965
  0
VERTEX
  8
0
 10
40.393962
 20
593.087824
 42
0.018327
  0
VERTEX
  8
0
 10
40.746524
 20
591.015733
 42
0.014521
  0
VERTEX
  8
0
 10
41.273814
 20
588.805832
 42
0.014763
  0
VERTEX
  8
0
 10
41.883735
 20
586.782556
 42
0.035121
  0
VERTEX
  8
0
 10
42.484371
 20
585.331783
 42
-0.027458
  0
VERTEX
  8
0
 10
43.150835
 20
583.789266
 42
-0.008348
  0
VERTEX
  8
0
 10
43.991140
 20
581.385032
 42
-0.008332
  0
VERTEX
  8
0
 10
44.844290
 20
578.654886
 42
-0.008997
  0
VERTEX
  8
0
 10
45.583158
 20
575.966544
 42
0.042022
  0
VERTEX
  8
0
 10
48.778954
 20
566.763295
 42
0.026342
  0
VERTEX
  8
0
 10
53.952790
 20
556.600234
 42
0.026245
  0
VERTEX
  8
0
 10
59.857060
 20
547.510041
 42
0.069259
  0
VERTEX
  8
0
 10
65.230756
 20
541.932814
 42
0.041099
  0
VERTEX
  8
0
 10
70.971341
 20
538.142712
 42
0.051773
  0
VERTEX
  8
0
 10
76.838899
 20
535.676267
 42
0.059687
  0
VERTEX
  8
0
 10
82.237963
 20
534.720316
 42
0.113430
  0
VERTEX
  8
0
 10
86.564417
 20
535.462468
 42
-0.046354
  0
VERTEX
  8
0
 10
88.250184
 20
535.989739
 42
-0.013284
  0
VERTEX
  8
0
 10
90.943637
 20
536.490810
 42
-0.013249
  0
VERTEX
  8
0
 10
94.026930
 20
536.896633
 42
-0.013716
  0
VERTEX
  8
0
 10
97.091923
 20
537.132925
 42
0.000000
  0
VERTEX
  8
0
 10
104.500000
 20
537.500000
 42
0.000000
  0
VERTEX
  8
0
 10
104.212336
 20
524.500000
 42
-0.012881
  0
VERTEX
  8
0
 10
103.715060
 20
514.123006
 42
-0.007383
  0
VERTEX
  8
0
 10
102.608432
 20
501.638669
 42
-0.003349
  0
VERTEX
  8
0
 10
101.263858
 20
489.450602
 42
-0.109687
  0
VERTEX
  8
0
 10
100.295117
 20
486.668492
 42
0.087916
  0
VERTEX
  8
0
 10
99.516828
 20
484.709643
 42
0.004417
  0
VERTEX
  8
0
 10
98.183465
 20
477.922315
 42
0.007788
  0
VERTEX
  8
0
 10
96.932475
 20
470.615689
 42
0.010658
  0
VERTEX
  8
0
 10
96.049529
 20
464.000000
 42
-0.009754
  0
VERTEX
  8
0
 10
94.444690
 20
451.807278
 42
-0.012678
  0
VERTEX
  8
0
 10
92.475143
 20
440.715195
 42
-0.014035
  0
VERTEX
  8
0
 10
90.283314
 20
431.318387
 42
-0.033115
  0
VERTEX
  8
0
 10
87.997785
 20
424.500000
 42
0.031589
  0
VERTEX
  8
0
 10
87.480464
 20
422.972164
 42
0.011764
  0
VERTEX
  8
0
 10
86.941832
 20
420.769174
 42
0.011602
  0
VERTEX
  8
0
 10
86.465585
 20
418.333137
 42
0.013760
  0
VERTEX
  8
0
 10
86.132946
 20
416.012083
 42
-0.013663
  0
VERTEX
  8
0
 10
85.720954
 20
413.133387
 42
-0.063962
  0
VERTEX
  8
0
 10
85.231753
 20
411.536264
 42
-0.121679
  0
VERTEX
  8
0
 10
84.529536
 20
410.644692
 42
-0.125134
  0
VERTEX
  8
0
 10
83.500000
 20
410.194148
 42
0.050495
  0
VERTEX
  8
0
 10
80.499387
 20
409.381636
 42
0.042616
  0
VERTEX
  8
0
 10
77.536696
 20
407.948572
 42
0.044711
  0
VERTEX
  8
0
 10
75.106324
 20
406.194839
 42
0.107622
  0
VERTEX
  8
0
 10
73.784858
 20
404.427161
 42
-0.121475
  0
VERTEX
  8
0
 10
72.273534
 20
402.516755
 42
-0.312303
  0
VERTEX
  8
0
 10
70.603463
 20
402.425932
 42
-0.122890
  0
VERTEX
  8
0
 10
68.650208
 20
404.419594
 42
-0.021338
  0
VERTEX
  8
0
 10
66.158548
 20
409.114255
 42
0.035551
  0
VERTEX
  8
0
 10
61.243008
 20
417.772698
 42
0.052761
  0
VERTEX
  8
0
 10
55.676599
 20
424.478235
 42
0.091703
  0
VERTEX
  8
0
 10
51.018515
 20
427.594645
 42
0.426078
  0
VERTEX
  8
0
 10
48.350191
 20
426.470199
 42
-0.097268
  0
VERTEX
  8
0
 10
47.986332
 20
425.890267
 42
-0.106659
  0
VERTEX
  8
0
 10
47.440495
 20
425.513608
 42
-0.099771
  0
VERTEX
  8
0
 10
46.757065
 20
425.380312
 42
-0.075410
  0
VERTEX
  8
0
 10
46.000000
 20
425.500000
 42
0.259316
  0
VERTEX
  8
0
 10
44.410367
 20
425.177563
 42
0.270528
  0
VERTEX
  8
0
 10
43.887008
 20
423.673270
 42
0.071971
  0
VERTEX
  8
0
 10
45.068141
 20
420.305247
 42
0.016211
  0
VERTEX
  8
0
 10
48.058058
 20
415.002427
 42
-0.002806
  0
VERTEX
  8
0
 10
49.952206
 20
411.844013
 42
-0.004348
  0
VERTEX
  8
0
 10
51.548305
 20
409.094131
 42
-0.001442
  0
VERTEX
  8
0
 10
52.897800
 20
406.705839
 42
-0.128561
  0
VERTEX
  8
0
 10
53.000000
 20
406.314932
 42
0.156681
  0
VERTEX
  8
0
 10
53.110981
 20
405.969466
 42
0.006549
  0
VERTEX
  8
0
 10
53.887482
 20
404.915071
 42
0.010774
  0
VERTEX
  8
0
 10
54.863634
 20
403.681463
 42
0.007393
  0
VERTEX
  8
0
 10
56.021216
 20
402.323055
 42
-0.052399
  0
VERTEX
  8
0
 10
59.179198
 20
397.860324
 42
-0.008864
  0
VERTEX
  8
0
 10
64.131281
 20
388.651711
 42
-0.010329
  0
VERTEX
  8
0
 10
68.895273
 20
378.914574
 42
-0.024099
  0
VERTEX
  8
0
 10
71.951084
 20
371.398851
 42
-0.037129
  0
VERTEX
  8
0
 10
73.280241
 20
366.477036
 42
-0.035303
  0
VERTEX
  8
0
 10
73.895593
 20
361.328779
 42
-0.033185
  0
VERTEX
  8
0
 10
73.797214
 20
355.852286
 42
-0.025784
  0
VERTEX
  8
0
 10
72.989856
 20
349.946511
 42
0.014504
  0
VERTEX
  8
0
 10
70.403359
 20
333.755893
 42
0.007323
  0
VERTEX
  8
0
 10
68.036390
 20
313.221472
 42
0.007087
  0
VERTEX
  8
0
 10
66.134023
 20
291.140729
 42
0.008126
  0
VERTEX
  8
0
 10
64.959113
 20
270.000000
 42
-0.003742
  0
VERTEX
  8
0
 10
64.593429
 20
262.183892
 42
-0.003249
  0
VERTEX
  8
0
 10
64.095577
 20
253.996875
 42
-0.003270
  0
VERTEX
  8
0
 10
63.548209
 20
246.590809
 42
-0.009588
  0
VERTEX
  8
0
 10
63.040052
 20
241.500000
 42
0.022905
  0
VERTEX
  8
0
 10
62.154098
 20
229.362239
 42
0.004051
  0
VERTEX
  8
0
 10
61.721400
 20
206.540571
 42
0.003840
  0
VERTEX
  8
0
 10
61.648935
 20
183.710406
 42
0.026360
  0
VERTEX
  8
0
 10
62.291029
 20
172.500000
 42
0.013133
  0
VERTEX
  8
0
 10
63.606225
 20
162.902435
 42
0.024174
  0
VERTEX
  8
0
 10
65.255228
 20
155.195648
 42
0.021630
  0
VERTEX
  8
0
 10
67.768248
 20
147.139732
 42
0.008428
  0
VERTEX
  8
0
 10
71.905783
 20
136.229902
 42
-0.003960
  0
VERTEX
  8
0
 10
73.474369
 20
132.202774
 42
-0.005657
  0
VERTEX
  8
0
 10
74.797324
 20
128.603052
 42
-0.003237
  0
VERTEX
  8
0
 10
75.856709
 20
125.554060
 42
-0.082167
  0
VERTEX
  8
0
 10
76.000000
 20
124.687996
 42
0.088967
  0
VERTEX
  8
0
 10
76.333631
 20
122.827810
 42
0.000667
  0
VERTEX
  8
0
 10
81.767456
 20
108.226573
 42
0.002232
  0
VERTEX
  8
0
 10
86.844766
 20
94.821648
 42
0.017950
  0
VERTEX
  8
0
 10
89.426545
 20
88.756268
 42
-0.022878
  0
VERTEX
  8
0
 10
90.293075
 20
86.663550
 42
-0.002286
  0
VERTEX
  8
0
 10
92.111224
 20
81.560333
 42
-0.002871
  0
VERTEX
  8
0
 10
94.216360
 20
75.453042
 42
-0.002278
  0
VERTEX
  8
0
 10
96.422521
 20
68.832099
 42
0.018513
  0
VERTEX
  8
0
 10
102.558713
 20
52.233742
 42
0.032138
  0
VERTEX
  8
0
 10
109.019003
 20
39.041590
 42
0.037576
  0
VERTEX
  8
0
 10
116.258219
 20
28.339919
 42
0.042903
  0
VERTEX
  8
0
 10
124.732879
 20
19.344877
 42
0.000000
  0
VERTEX
  8
0
 10
130.500000
 20
14.189755
 42
0.000000
  0
VERTEX
  8
0
 10
128.500000
 20
11.509982
 42
-0.063479
  0
VERTEX
  8
0
 10
127.382829
 20
10.353099
 42
-0.026567
  0
VERTEX
  8
0
 10
125.619988
 20
9.086726
 42
-0.025736
  0
VERTEX
  8
0
 10
123.563306
 20
7.913606
 42
-0.030112
  0
VERTEX
  8
0
 10
121.500000
 20
7.024913
 42
0.007662
  0
VERTEX
  8
0
 10
119.190407
 20
6.150784
 42
0.004058
  0
VERTEX
  8
0
 10
116.353125
 20
5.000214
 42
0.004037
  0
VERTEX
  8
0
 10
113.469494
 20
3.776125
 42
0.006237
  0
VERTEX
  8
0
 10
111.000000
 20
2.667415
 42
0.000000
  0
VERTEX
  8
0
 10
105.500000
 20
0.115212
 42
0.000000
  0
VERTEX
  8
0
 10
134.725000
 20
0.057606
 42
0.000000
  0
VERTEX
  8
0
 10
163.950000
 20
0.000000
 42
0.000000
  0
VERTEX
  8
0
 10
163.421698
 20
2.750000
 42
-0.068158
  0
VERTEX
  8
0
 10
163.339786
 20
4.274109
 42
-0.074589
  0
VERTEX
  8
0
 10
163.679162
 20
5.715019
 42
-0.056661
  0
VERTEX
  8
0
 10
164.523826
 20
7.285655
 42
-0.022077
  0
VERTEX
  8
0
 10
166.019502
 20
9.250000
 42
-0.020930
  0
VERTEX
  8
0
 10
167.321995
 20
10.685763
 42
-0.026176
  0
VERTEX
  8
0
 10
168.650539
 20
11.898437
 42
-0.025984
  0
VERTEX
  8
0
 10
169.839988
 20
12.775813
 42
-0.146940
  0
VERTEX
  8
0
 10
170.586373
 20
13.000000
 42
0.046205
  0
VERTEX
  8
0
 10
171.262026
 20
13.062570
 42
0.021946
  0
VERTEX
  8
0
 10
172.113990
 20
13.260769
 42
0.021537
  0
VERTEX
  8
0
 10
172.993253
 20
13.547786
 42
0.028509
  0
VERTEX
  8
0
 10
173.763569
 20
13.887723
 42
-0.007289
  0
VERTEX
  8
0
 10
178.577787
 20
16.261037
 42
-0.010204
  0
VERTEX
  8
0
 10
182.950824
 20
18.229832
 42
-0.008020
  0
VERTEX
  8
0
 10
186.603166
 20
19.716578
 42
-0.092902
  0
VERTEX
  8
0
 10
188.115384
 20
20.000000
 42
0.048389
  0
VERTEX
  8
0
 10
189.160998
 20
20.101430
 42
0.003164
  0
VERTEX
  8
0
 10
192.143797
 20
20.705244
 42
0.004573
  0
VERTEX
  8
0
 10
195.693769
 20
21.481244
 42
0.003396
  0
VERTEX
  8
0
 10
199.601031
 20
22.400831
 42
-0.004336
  0
VERTEX
  8
0
 10
203.903091
 20
23.404806
 42
-0.003267
  0
VERTEX
  8
0
 10
208.648428
 20
24.436408
 42
-0.003302
  0
VERTEX
  8
0
 10
213.122346
 20
25.347618
 42
-0.007614
  0
VERTEX
  8
0
 10
216.500000
 20
25.959075
 42
0.028013
  0
VERTEX
  8
0
 10
221.853652
 20
27.155544
 42
0.023291
  0
VERTEX
  8
0
 10
227.388065
 20
29.004696
 42
0.023802
  0
VERTEX
  8
0
 10
232.558099
 20
31.292597
 42
0.035704
  0
VERTEX
  8
0
 10
236.800229
 20
33.810142
 42
-0.015108
  0
VERTEX
  8
0
 10
238.207047
 20
34.725352
 42
-0.005012
  0
VERTEX
  8
0
 10
240.322567
 20
35.983491
 42
-0.004985
  0
VERTEX
  8
0
 10
242.696308
 20
37.331698
 42
-0.005649
  0
VERTEX
  8
0
 10
245.000000
 20
38.576082
 42
0.011191
  0
VERTEX
  8
0
 10
247.696131
 20
40.071286
 42
0.004284
  0
VERTEX
  8
0
 10
251.381250
 20
42.266741
 42
0.004240
  0
VERTEX
  8
0
 10
255.342696
 20
44.719272
 42
0.005197
  0
VERTEX
  8
0
 10
259.000000
 20
47.080125
 42
-0.005562
  0
VERTEX
  8
0
 10
262.765235
 20
49.506749
 42
-0.003893
  0
VERTEX
  8
0
 10
267.059375
 20
52.160678
 42
-0.003928
  0
VERTEX
  8
0
 10
271.214080
 20
54.639476
 42
-0.008166
  0
VERTEX
  8
0
 10
274.500000
 20
56.493681
 42
0.004084
  0
VERTEX
  8
0
 10
282.508873
 20
60.927191
 42
0.002922
  0
VERTEX
  8
0
 10
291.397480
 20
66.011701
 42
0.002479
  0
VERTEX
  8
0
 10
299.465997
 20
70.743498
 42
0.015385
  0
VERTEX
  8
0
 10
303.516785
 20
73.317832
 42
0.031735
  0
VERTEX
  8
0
 10
307.947876
 20
76.759254
 42
0.010216
  0
VERTEX
  8
0
 10
314.071461
 20
82.398231
 42
0.007799
  0
VERTEX
  8
0
 10
319.913624
 20
88.180561
 42
0.074493
  0
VERTEX
  8
0
 10
321.964155
 20
91.015269
 42
-0.021567
  0
VERTEX
  8
0
 10
322.601453
 20
92.126653
 42
-0.012160
  0
VERTEX
  8
0
 10
323.463883
 20
93.420036
 42
-0.012120
  0
VERTEX
  8
0
 10
324.399198
 20
94.685077
 42
-0.019404
  0
VERTEX
  8
0
 10
325.264060
 20
95.712513
 42
0.018922
  0
VERTEX
  8
0
 10
326.117844
 20
96.724809
 42
0.012704
  0
VERTEX
  8
0
 10
327.018659
 20
97.941261
 42
0.012806
  0
VERTEX
  8
0
 10
327.831879
 20
99.165351
 42
0.024578
  0
VERTEX
  8
0
 10
328.408805
 20
100.192806
 42
-0.051398
  0
VERTEX
  8
0
 10
329.014459
 20
101.147778
 42
-0.031385
  0
VERTEX
  8
0
 10
329.906108
 20
102.142819
 42
-0.031238
  0
VERTEX
  8
0
 10
330.924734
 20
103.027140
 42
-0.047534
  0
VERTEX
  8
0
 10
331.918342
 20
103.646609
 42
0.061706
  0
VERTEX
  8
0
 10
333.011417
 20
104.371768
 42
0.022722
  0
VERTEX
  8
0
 10
334.362611
 20
105.641782
 42
0.022114
  0
VERTEX
  8
0
 10
335.727986
 20
107.177642
 42
0.024757
  0
VERTEX
  8
0
 10
336.898635
 20
108.773208
 42
-0.000386
  0
VERTEX
  8
0
 10
338.093100
 20
110.579559
 42
-0.000218
  0
VERTEX
  8
0
 10
339.543661
 20
112.767440
 42
-0.000218
  0
VERTEX
  8
0
 10
341.008447
 20
114.972595
 42
-0.000358
  0
VERTEX
  8
0
 10
342.250000
 20
116.837020
 42
0.014960
  0
VERTEX
  8
0
 10
343.302839
 20
118.522747
 42
0.017692
  0
VERTEX
  8
0
 10
344.192187
 20
120.178182
 42
0.016736
  0
VERTEX
  8
0
 10
344.840139
 20
121.613149
 42
0.097979
  0
VERTEX
  8
0
 10
345.000000
 20
122.421111
 42
-0.054689
  0
VERTEX
  8
0
 10
345.065762
 20
123.020555
 42
-0.049319
  0
VERTEX
  8
0
 10
345.260450
 20
123.613807
 42
-0.052423
  0
VERTEX
  8
0
 10
345.546970
 20
124.113755
 42
-0.098331
  0
VERTEX
  8
0
 10
345.886637
 20
124.429938
 42
0.154372
  0
VERTEX
  8
0
 10
346.445021
 20
125.078401
 42
0.030914
  0
VERTEX
  8
0
 10
346.964197
 20
126.533292
 42
0.017380
  0
VERTEX
  8
0
 10
347.585396
 20
129.005285
 42
0.003018
  0
VERTEX
  8
0
 10
348.567762
 20
133.720436
 42
-0.051806
  0
VERTEX
  8
0
 10
348.806670
 20
134.484935
 42
-0.004253
  0
VERTEX
  8
0
 10
349.650434
 20
136.400472
 42
-0.005666
  0
VERTEX
  8
0
 10
350.704664
 20
138.670644
 42
-0.004333
  0
VERTEX
  8
0
 10
351.907177
 20
141.130158
 42
0.010460
  0
VERTEX
  8
0
 10
353.091388
 20
143.629387
 42
0.012705
  0
VERTEX
  8
0
 10
354.091483
 20
146.020350
 42
0.011310
  0
VERTEX
  8
0
 10
354.831268
 20
148.058766
 42
0.081560
  0
VERTEX
  8
0
 10
355.000000
 20
149.086282
 42
-0.087715
  0
VERTEX
  8
0
 10
355.192962
 20
150.177760
 42
-0.007904
  0
VERTEX
  8
0
 10
356.189304
 20
152.779122
 42
-0.010079
  0
VERTEX
  8
0
 10
357.498124
 20
155.859827
 42
-0.007707
  0
VERTEX
  8
0
 10
359.048695
 20
159.176560
 42
0.005976
  0
VERTEX
  8
0
 10
364.669113
 20
171.091145
 42
0.019962
  0
VERTEX
  8
0
 10
367.946147
 20
179.088328
 42
0.029687
  0
VERTEX
  8
0
 10
369.813232
 20
185.353554
 42
0.038257
  0
VERTEX
  8
0
 10
370.733043
 20
191.287114
 42
-0.016130
  0
VERTEX
  8
0
 10
371.088028
 20
194.513799
 42
-0.064521
  0
VERTEX
  8
0
 10
371.618459
 20
196.425212
 42
-0.087652
  0
VERTEX
  8
0
 10
372.528009
 20
197.830539
 42
-0.046254
  0
VERTEX
  8
0
 10
374.082535
 20
199.219142
 42
0.043853
  0
VERTEX
  8
0
 10
375.811744
 20
200.748944
 42
0.135225
  0
VERTEX
  8
0
 10
376.539884
 20
202.113939
 42
0.068321
  0
VERTEX
  8
0
 10
376.713364
 20
204.155051
 42
0.005779
  0
VERTEX
  8
0
 10
376.379415
 20
209.432028
 42
-0.012722
  0
VERTEX
  8
0
 10
376.158798
 20
213.901999
 42
-0.032273
  0
VERTEX
  8
0
 10
376.290864
 20
217.148901
 42
-0.035998
  0
VERTEX
  8
0
 10
376.826240
 20
220.139533
 42
-0.019594
  0
VERTEX
  8
0
 10
377.887572
 20
223.718455
 42
0.016165
  0
VERTEX
  8
0
 10
378.696311
 20
226.378570
 42
0.013798
  0
VERTEX
  8
0
 10
379.379474
 20
229.229143
 42
0.014017
  0
VERTEX
  8
0
 10
379.856582
 20
231.857076
 42
0.037909
  0
VERTEX
  8
0
 10
380.000000
 20
233.745948
 42
-0.035667
  0
VERTEX
  8
0
 10
380.115981
 20
235.369760
 42
-0.028079
  0
VERTEX
  8
0
 10
380.464245
 20
237.098884
 42
-0.028831
  0
VERTEX
  8
0
 10
380.973712
 20
238.675540
 42
-0.060279
  0
VERTEX
  8
0
 10
381.580407
 20
239.811335
 42
0.073488
  0
VERTEX
  8
0
 10
382.215914
 20
241.080280
 42
0.021395
  0
VERTEX
  8
0
 10
382.810636
 20
243.189706
 42
0.021005
  0
VERTEX
  8
0
 10
383.284229
 20
245.652042
 42
0.021050
  0
VERTEX
  8
0
 10
383.549126
 20
248.143686
 42
-0.015855
  0
VERTEX
  8
0
 10
383.781715
 20
250.571018
 42
-0.018884
  0
VERTEX
  8
0
 10
384.159511
 20
252.839888
 42
-0.017954
  0
VERTEX
  8
0
 10
384.614047
 20
254.708076
 42
-0.104921
  0
VERTEX
  8
0
 10
385.081744
 20
255.598495
 42
0.148910
  0
VERTEX
  8
0
 10
385.600479
 20
256.835489
 42
0.016989
  0
VERTEX
  8
0
 10
385.806887
 20
259.890743
 42
0.014947
  0
VERTEX
  8
0
 10
385.822704
 20
264.296879
 42
0.004992
  0
VERTEX
  8
0
 10
385.588853
 20
270.738650
 42
-0.007688
  0
VERTEX
  8
0
 10
385.405395
 20
276.674970
 42
-0.008893
  0
VERTEX
  8
0
 10
385.418216
 20
282.332543
 42
-0.009374
  0
VERTEX
  8
0
 10
385.607199
 20
287.200845
 42
-0.028264
  0
VERTEX
  8
0
 10
385.985145
 20
290.500000
 42
0.004822
  0
VERTEX
  8
0
 10
386.445785
 20
293.337605
 42
0.002358
  0
VERTEX
  8
0
 10
386.981006
 20
296.963067
 42
0.002339
  0
VERTEX
  8
0
 10
387.502091
 20
300.737883
 42
0.003390
  0
VERTEX
  8
0
 10
387.924027
 20
304.076398
 42
-0.006870
  0
VERTEX
  8
0
 10
388.350950
 20
307.275253
 42
-0.005934
  0
VERTEX
  8
0
 10
388.885116
 20
310.621768
 42
-0.005981
  0
VERTEX
  8
0
 10
389.441716
 20
313.644236
 42
-0.017241
  0
VERTEX
  8
0
 10
389.924418
 20
315.719311
 42
0.020073
  0
VERTEX
  8
0
 10
390.301861
 20
317.384562
 42
0.021966
  0
VERTEX
  8
0
 10
390.531141
 20
319.025493
 42
0.022071
  0
VERTEX
  8
0
 10
390.602799
 20
320.435834
 42
0.093531
  0
VERTEX
  8
0
 10
390.452198
 20
321.263974
 42
-0.096148
  0
VERTEX
  8
0
 10
390.334361
 20
321.931604
 42
-0.061723
  0
VERTEX
  8
0
 10
390.444708
 20
322.712979
 42
-0.058970
  0
VERTEX
  8
0
 10
390.753766
 20
323.483650
 42
-0.067911
  0
VERTEX
  8
0
 10
391.223221
 20
324.121061
 42
0.116247
  0
VERTEX
  8
0
 10
391.810353
 20
325.102846
 42
0.013490
  0
VERTEX
  8
0
 10
392.524817
 20
327.582506
 42
0.015633
  0
VERTEX
  8
0
 10
393.212412
 20
330.624613
 42
0.012175
  0
VERTEX
  8
0
 10
393.774953
 20
333.968321
 42
0.000000
  0
VERTEX
  8
0
 10
394.988442
 20
342.436642
 42
0.000000
  0
VERTEX
  8
0
 10
388.319442
 20
348.468321
 42
0.006083
  0
VERTEX
  8
0
 10
382.604057
 20
353.512479
 42
0.014729
  0
VERTEX
  8
0
 10
378.230904
 20
357.059542
 42
0.014966
  0
VERTEX
  8
0
 10
374.898203
 20
359.449293
 42
0.143447
  0
VERTEX
  8
0
 10
373.250000
 20
359.972180
 42
-0.064029
  0
VERTEX
  8
0
 10
372.772105
 20
360.044473
 42
-0.080452
  0
VERTEX
  8
0
 10
372.367188
 20
360.234397
 42
-0.096231
  0
VERTEX
  8
0
 10
372.096004
 20
360.508640
 42
-0.148047
  0
VERTEX
  8
0
 10
372.000000
 20
360.825767
 42
0.223708
  0
VERTEX
  8
0
 10
371.261838
 20
362.393033
 42
0.002414
  0
VERTEX
  8
0
 10
361.820947
 20
370.115820
 42
0.008184
  0
VERTEX
  8
0
 10
352.376169
 20
377.513280
 42
0.015541
  0
VERTEX
  8
0
 10
344.500000
 20
383.100396
 42
-0.006439
  0
VERTEX
  8
0
 10
337.920197
 20
387.590153
 42
-0.011348
  0
VERTEX
  8
0
 10
332.620564
 20
391.489678
 42
-0.008743
  0
VERTEX
  8
0
 10
326.655663
 20
396.259614
 42
-0.002374
  0
VERTEX
  8
0
 10
317.391133
 20
404.012018
 42
0.005539
  0
VERTEX
  8
0
 10
313.404451
 20
407.305333
 42
0.003677
  0
VERTEX
  8
0
 10
308.761770
 20
410.998731
 42
0.003701
  0
VERTEX
  8
0
 10
304.200501
 20
414.518725
 42
0.007205
  0
VERTEX
  8
0
 10
300.500000
 20
417.247780
 42
-0.014772
  0
VERTEX
  8
0
 10
296.759668
 20
420.094585
 42
-0.006786
  0
VERTEX
  8
0
 10
292.049266
 20
424.011544
 42
-0.006714
  0
VERTEX
  8
0
 10
287.200504
 20
428.270139
 42
-0.009228
  0
VERTEX
  8
0
 10
282.965586
 20
432.235762
 42
0.004503
  0
VERTEX
  8
0
 10
279.024470
 20
435.996792
 42
0.004683
  0
VERTEX
  8
0
 10
275.067015
 20
439.636877
 42
0.004515
  0
VERTEX
  8
0
 10
271.587063
 20
442.721525
 42
0.020315
  0
VERTEX
  8
0
 10
269.465586
 20
444.421693
 42
-0.000400
  0
VERTEX
  8
0
 10
267.914635
 20
445.566292
 42
-0.000568
  0
VERTEX
  8
0
 10
266.536855
 20
446.587219
 42
-0.000318
  0
VERTEX
  8
0
 10
265.374205
 20
447.451931
 42
-0.008240
  0
VERTEX
  8
0
 10
265.064133
 20
447.690894
 42
-0.243050
  0
VERTEX
  8
0
 10
264.593021
 20
448.743400
 42
-0.007208
  0
VERTEX
  8
0
 10
264.944027
 20
453.720690
 42
-0.013996
  0
VERTEX
  8
0
 10
265.578285
 20
459.319194
 42
-0.013094
  0
VERTEX
  8
0
 10
266.535815
 20
465.000000
 42
-0.005540
  0
VERTEX
  8
0
 10
268.113537
 20
472.616691
 42
-0.007171
  0
VERTEX
  8
0
 10
269.738029
 20
479.564969
 42
-0.006374
  0
VERTEX
  8
0
 10
271.709095
 20
487.072142
 42
-0.003205
  0
VERTEX
  8
0
 10
274.378531
 20
496.500000
 42
0.000592
  0
VERTEX
  8
0
 10
275.864037
 20
501.643768
 42
0.000476
  0
VERTEX
  8
0
 10
277.449542
 20
507.178125
 42
0.000481
  0
VERTEX
  8
0
 10
278.904553
 20
512.293965
 42
0.001233
  0
VERTEX
  8
0
 10
279.944874
 20
516.000000
 42
-0.006300
  0
VERTEX
  8
0
 10
280.950519
 20
519.447859
 42
-0.003454
  0
VERTEX
  8
0
 10
282.264653
 20
523.646875
 42
-0.003441
  0
VERTEX
  8
0
 10
283.657874
 20
527.892307
 42
-0.005487
  0
VERTEX
  8
0
 10
284.913594
 20
531.500000
 42
0.006782
  0
VERTEX
  8
0
 10
288.208745
 20
541.046591
 42
0.006581
  0
VERTEX
  8
0
 10
291.278304
 20
550.775114
 42
0.006713
  0
VERTEX
  8
0
 10
293.773014
 20
559.481913
 42
0.020244
  0
VERTEX
  8
0
 10
295.151292
 20
565.500000
 42
-0.017871
  0
VERTEX
  8
0
 10
296.493844
 20
571.492654
 42
-0.008566
  0
VERTEX
  8
0
 10
298.621819
 20
579.085131
 42
-0.004828
  0
VERTEX
  8
0
 10
300.903669
 20
586.460405
 42
-0.095112
  0
VERTEX
  8
0
 10
302.034920
 20
588.534293
 42
0.099770
  0
VERTEX
  8
0
 10
302.419900
 20
589.255824
 42
0.010462
  0
VERTEX
  8
0
 10
302.933827
 20
591.110414
 42
0.012629
  0
VERTEX
  8
0
 10
303.448948
 20
593.369928
 42
0.009804
  0
VERTEX
  8
0
 10
303.898707
 20
595.851654
 42
-0.018087
  0
VERTEX
  8
0
 10
304.521665
 20
598.991759
 42
-0.006449
  0
VERTEX
  8
0
 10
305.630190
 20
603.427096
 42
-0.006389
  0
VERTEX
  8
0
 10
306.972686
 20
608.266781
 42
-0.007500
  0
VERTEX
  8
0
 10
308.372211
 20
612.817361
 42
0.000883
  0
VERTEX
  8
0
 10
310.030763
 20
617.966663
 42
0.000392
  0
VERTEX
  8
0
 10
312.202366
 20
624.768225
 42
0.000388
  0
VERTEX
  8
0
 10
314.491239
 20
631.975831
 42
0.000523
  0
VERTEX
  8
0
 10
316.550004
 20
638.500000
 42
-0.000349
  0
VERTEX
  8
0
 10
321.390506
 20
653.858073
 42
-0.004950
  0
VERTEX
  8
0
 10
323.179257
 20
659.330500
 42
-0.014202
  0
VERTEX
  8
0
 10
324.337547
 20
662.462548
 42
-0.023661
  0
VERTEX
  8
0
 10
325.509523
 20
665.018416
 42
0.030934
  0
VERTEX
  8
0
 10
327.748958
 20
670.095706
 42
0.005009
  0
VERTEX
  8
0
 10
331.385504
 20
680.261577
 42
0.005882
  0
VERTEX
  8
0
 10
334.896122
 20
690.793248
 42
0.015155
  0
VERTEX
  8
0
 10
337.109604
 20
698.500000
 42
-0.015460
  0
VERTEX
  8
0
 10
342.194390
 20
716.163204
 42
-0.014950
  0
VERTEX
  8
0
 10
348.412536
 20
733.679649
 42
-0.014582
  0
VERTEX
  8
0
 10
354.746503
 20
748.653638
 42
-0.060578
  0
VERTEX
  8
0
 10
359.867659
 20
757.000000
 42
0.016944
  0
VERTEX
  8
0
 10
361.254971
 20
758.873184
 42
0.005057
  0
VERTEX
  8
0
 10
363.244140
 20
761.821875
 42
0.005065
  0
VERTEX
  8
0
 10
365.412214
 20
765.180476
 42
0.005459
  0
VERTEX
  8
0
 10
367.457384
 20
768.500000
 42
-0.003598
  0
VERTEX
  8
0
 10
369.696171
 20
772.164254
 42
-0.002002
  0
VERTEX
  8
0
 10
372.474455
 20
776.599078
 42
-0.001997
  0
VERTEX
  8
0
 10
375.321988
 20
781.064645
 42
-0.003232
  0
VERTEX
  8
0
 10
377.783540
 20
784.837285
 42
0.012535
  0
VERTEX
  8
0
 10
379.904872
 20
788.224564
 42
0.015176
  0
VERTEX
  8
0
 10
381.715908
 20
791.507666
 42
0.013827
  0
VERTEX
  8
0
 10
383.067520
 20
794.333904
 42
0.093392
  0
VERTEX
  8
0
 10
383.423001
 20
795.837285
 42
0.084049
  0
VERTEX
  8
0
 10
383.142625
 20
798.128628
 42
0.090128
  0
VERTEX
  8
0
 10
382.123382
 20
800.138968
 42
0.099773
  0
VERTEX
  8
0
 10
380.566866
 20
801.512165
 42
0.131760
  0
VERTEX
  8
0
 10
378.747773
 20
802.000000
 42
0.189015
  0
VERTEX
  8
0
 10
376.493961
 20
801.116426
 42
0.018865
  0
VERTEX
  8
0
 10
372.318883
 20
796.944932
 42
0.024617
  0
VERTEX
  8
0
 10
368.259274
 20
792.114195
 42
0.044967
  0
VERTEX
  8
0
 10
365.527603
 20
787.754983
 42
-0.036637
  0
VERTEX
  8
0
 10
364.433255
 20
785.942297
 42
-0.015654
  0
VERTEX
  8
0
 10
362.723858
 20
783.682896
 42
-0.015390
  0
VERTEX
  8
0
 10
360.743276
 20
781.377589
 42
-0.019557
  0
VERTEX
  8
0
 10
358.771061
 20
779.382623
 42
0.010129
  0
VERTEX
  8
0
 10
356.943225
 20
777.602120
 42
0.014485
  0
VERTEX
  8
0
 10
355.401499
 20
775.944828
 42
0.010309
  0
VERTEX
  8
0
 10
354.202999
 20
774.521063
 42
0.171422
  0
VERTEX
  8
0
 10
354.000000
 20
773.946358
 42
-0.114172
  0
VERTEX
  8
0
 10
353.704416
 20
772.668759
 42
-0.018883
  0
VERTEX
  8
0
 10
352.501109
 20
770.426198
 42
-0.012345
  0
VERTEX
  8
0
 10
350.377316
 20
767.000215
 42
-0.002524
  0
VERTEX
  8
0
 10
346.443538
 20
761.056663
 42
0.014694
  0
VERTEX
  8
0
 10
341.282679
 20
752.830930
 42
0.020503
  0
VERTEX
  8
0
 10
337.195626
 20
745.167391
 42
0.022030
  0
VERTEX
  8
0
 10
333.979526
 20
737.663084
 42
0.022208
  0
VERTEX
  8
0
 10
331.445801
 20
729.924835
 42
-0.006634
  0
VERTEX
  8
0
 10
330.291403
 20
725.988769
 42
-0.006026
  0
VERTEX
  8
0
 10
328.996872
 20
721.955942
 42
-0.006042
  0
VERTEX
  8
0
 10
327.751780
 20
718.376386
 42
-0.019263
  0
VERTEX
  8
0
 10
326.800655
 20
716.031562
 42
0.005976
  0
VERTEX
  8
0
 10
324.777118
 20
711.400112
 42
0.021048
  0
VERTEX
  8
0
 10
323.638781
 20
708.356247
 42
0.028347
  0
VERTEX
  8
0
 10
322.942479
 20
705.729304
 42
0.019361
  0
VERTEX
  8
0
 10
322.439081
 20
702.681814
 42
-0.026089
  0
VERTEX
  8
0
 10
322.104234
 20
700.811497
 42
-0.013530
  0
VERTEX
  8
0
 10
321.502337
 20
698.515478
 42
-0.013415
  0
VERTEX
  8
0
 10
320.754869
 20
696.184162
 42
-0.019847
  0
VERTEX
  8
0
 10
319.965011
 20
694.187998
 42
0.010102
  0
VERTEX
  8
0
 10
319.212671
 20
692.389867
 42
0.011960
  0
VERTEX
  8
0
 10
318.577222
 20
690.660575
 42
0.010850
  0
VERTEX
  8
0
 10
318.109849
 20
689.183896
 42
0.071328
  0
VERTEX
  8
0
 10
318.000000
 20
688.417782
 42
-0.083311
  0
VERTEX
  8
0
 10
317.861997
 20
687.595288
 42
-0.007554
  0
VERTEX
  8
0
 10
317.150270
 20
685.630768
 42
-0.009630
  0
VERTEX
  8
0
 10
316.215140
 20
683.302687
 42
-0.007386
  0
VERTEX
  8
0
 10
315.107301
 20
680.794900
 42
0.024400
  0
VERTEX
  8
0
 10
312.308354
 20
673.826922
 42
0.002931
  0
VERTEX
  8
0
 10
306.979474
 20
658.131474
 42
0.001229
  0
VERTEX
  8
0
 10
301.437669
 20
641.351569
 42
0.082731
  0
VERTEX
  8
0
 10
300.984769
 20
638.383876
 42
-0.078267
  0
VERTEX
  8
0
 10
300.720884
 20
636.545513
 42
-0.001134
  0
VERTEX
  8
0
 10
297.440555
 20
625.980500
 42
-0.003422
  0
VERTEX
  8
0
 10
294.242779
 20
616.003294
 42
-0.011330
  0
VERTEX
  8
0
 10
291.944762
 20
609.500000
 42
0.011214
  0
VERTEX
  8
0
 10
291.140740
 20
607.226326
 42
0.006877
  0
VERTEX
  8
0
 10
290.290546
 20
604.513642
 42
0.006892
  0
VERTEX
  8
0
 10
289.522607
 20
601.804128
 42
0.012194
  0
VERTEX
  8
0
 10
288.974876
 20
599.546442
 42
-0.024275
  0
VERTEX
  8
0
 10
288.359331
 20
597.252531
 42
-0.012187
  0
VERTEX
  8
0
 10
287.372580
 20
594.418724
 42
-0.012072
  0
VERTEX
  8
0
 10
286.207296
 20
591.531381
 42
-0.017483
  0
VERTEX
  8
0
 10
285.029241
 20
589.046442
 42
0.025946
  0
VERTEX
  8
0
 10
283.871484
 20
586.493631
 42
0.017473
  0
VERTEX
  8
0
 10
282.807151
 20
583.474794
 42
0.017600
  0
VERTEX
  8
0
 10
281.972361
 20
580.444559
 42
0.030289
  0
VERTEX
  8
0
 10
281.521727
 20
577.866764
 42
-0.015124
  0
VERTEX
  8
0
 10
281.117554
 20
575.054726
 42
-0.005503
  0
VERTEX
  8
0
 10
280.380789
 20
571.095964
 42
-0.005451
  0
VERTEX
  8
0
 10
279.479307
 20
566.780053
 42
-0.006481
  0
VERTEX
  8
0
 10
278.531439
 20
562.727734
 42
-0.014615
  0
VERTEX
  8
0
 10
276.818122
 20
556.584067
 42
-0.013958
  0
VERTEX
  8
0
 10
274.724861
 20
550.454977
 42
-0.009287
  0
VERTEX
  8
0
 10
271.626567
 20
542.597576
 42
-0.002484
  0
VERTEX
  8
0
 10
266.404340
 20
530.216073
 42
0.027717
  0
VERTEX
  8
0
 10
265.866310
 20
528.736093
 42
0.018791
  0
VERTEX
  8
0
 10
265.412525
 20
527.000160
 42
0.018969
  0
VERTEX
  8
0
 10
265.100110
 20
525.285003
 42
0.035575
  0
VERTEX
  8
0
 10
265.000000
 20
523.879757
 42
-0.057137
  0
VERTEX
  8
0
 10
264.504447
 20
519.557369
 42
-0.013831
  0
VERTEX
  8
0
 10
262.679963
 20
512.585705
 42
-0.014814
  0
VERTEX
  8
0
 10
260.288027
 20
505.201117
 42
-0.022943
  0
VERTEX
  8
0
 10
257.748105
 20
499.000000
 42
0.008789
  0
VERTEX
  8
0
 10
256.572585
 20
496.346662
 42
0.009819
  0
VERTEX
  8
0
 10
255.535644
 20
493.749223
 42
0.009214
  0
VERTEX
  8
0
 10
254.738146
 20
491.507325
 42
0.050222
  0
VERTEX
  8
0
 10
254.453655
 20
490.252676
 42
-0.010225
  0
VERTEX
  8
0
 10
253.813735
 20
485.810421
 42
-0.015927
  0
VERTEX
  8
0
 10
253.062978
 20
482.016700
 42
-0.018485
  0
VERTEX
  8
0
 10
252.191383
 20
478.794667
 42
-0.028786
  0
VERTEX
  8
0
 10
251.181765
 20
476.101850
 42
0.037518
  0
VERTEX
  8
0
 10
250.531676
 20
474.271437
 42
0.014447
  0
VERTEX
  8
0
 10
249.897144
 20
471.648669
 42
0.014209
  0
VERTEX
  8
0
 10
249.369975
 20
468.752669
 42
0.017012
  0
VERTEX
  8
0
 10
249.044693
 20
466.000000
 42
0.000000
  0
VERTEX
  8
0
 10
248.500000
 20
459.500000
 42
0.000000
  0
VERTEX
  8
0
 10
244.540436
 20
459.500000
 42
0.027514
  0
VERTEX
  8
0
 10
242.388843
 20
459.381511
 42
0.090686
  0
VERTEX
  8
0
 10
241.032975
 20
458.975562
 42
0.105181
  0
VERTEX
  8
0
 10
240.020315
 20
458.154355
 42
0.044478
  0
VERTEX
  8
0
 10
239.040436
 20
456.693820
 42
0.024004
  0
VERTEX
  8
0
 10
238.176477
 20
454.923555
 42
0.169376
  0
VERTEX
  8
0
 10
238.110041
 20
453.982319
 42
0.150902
  0
VERTEX
  8
0
 10
238.639127
 20
453.147060
 42
0.017906
  0
VERTEX
  8
0
 10
240.377970
 20
451.767194
 42
-0.078137
  0
VERTEX
  8
0
 10
243.482206
 20
448.628310
 42
-0.080856
  0
VERTEX
  8
0
 10
245.429264
 20
444.723289
 42
-0.063322
  0
VERTEX
  8
0
 10
246.329604
 20
439.622017
 42
-0.028236
  0
VERTEX
  8
0
 10
246.273297
 20
432.787832
 42
0.006118
  0
VERTEX
  8
0
 10
245.989841
 20
427.389517
 42
0.048487
  0
VERTEX
  8
0
 10
246.131396
 20
424.894496
 42
0.094423
  0
VERTEX
  8
0
 10
246.735074
 20
423.197964
 42
0.056069
  0
VERTEX
  8
0
 10
248.024597
 20
421.473818
 42
0.103514
  0
VERTEX
  8
0
 10
250.909768
 20
419.455966
 42
0.113469
  0
VERTEX
  8
0
 10
254.266241
 20
418.851952
 42
0.115798
  0
VERTEX
  8
0
 10
257.497092
 20
419.775721
 42
0.111195
  0
VERTEX
  8
0
 10
260.035500
 20
422.049855
 42
0.035312
  0
VERTEX
  8
0
 10
260.831017
 20
423.352688
 42
0.036183
  0
VERTEX
  8
0
 10
261.427953
 20
424.744152
 42
0.038691
  0
VERTEX
  8
0
 10
261.761754
 20
426.021676
 42
0.108930
  0
VERTEX
  8
0
 10
261.726162
 20
426.939157
 42
-0.086095
  0
VERTEX
  8
0
 10
261.573847
 20
428.747935
 42
-0.137485
  0
VERTEX
  8
0
 10
262.118117
 20
430.189477
 42
-0.204371
  0
VERTEX
  8
0
 10
263.149706
 20
430.798531
 42
-0.189592
  0
VERTEX
  8
0
 10
264.345797
 20
430.500000
 42
-0.016624
  0
VERTEX
  8
0
 10
267.475172
 20
428.108304
 42
-0.001100
  0
VERTEX
  8
0
 10
276.234394
 20
420.908153
 42
-0.001738
  0
VERTEX
  8
0
 10
284.983414
 20
413.632800
 42
-0.004966
  0
VERTEX
  8
0
 10
291.000000
 20
408.491629
 42
0.002597
  0
VERTEX
  8
0
 10
306.626010
 20
395.010569
 42
0.004934
  0
VERTEX
  8
0
 10
319.364488
 20
384.351096
 42
0.006032
  0
VERTEX
  8
0
 10
329.684993
 20
376.092949
 42
0.014364
  0
VERTEX
  8
0
 10
337.598373
 20
370.273908
 42
-0.003821
  0
VERTEX
  8
0
 10
342.686866
 20
366.694918
 42
-0.001560
  0
VERTEX
  8
0
 10
349.550703
 20
361.755978
 42
-0.001543
  0
VERTEX
  8
0
 10
356.892730
 20
356.403474
 42
-0.001972
  0
VERTEX
  8
0
 10
363.623186
 20
351.423980
 42
0.000000
  0
VERTEX
  8
0
 10
379.205476
 20
339.800144
 42
0.000000
  0
VERTEX
  8
0
 10
378.506364
 20
334.150072
 42
-0.010574
  0
VERTEX
  8
0
 10
378.181440
 20
331.913318
 42
-0.013447
  0
VERTEX
  8
0
 10
377.782813
 20
329.865959
 42
-0.011442
  0
VERTEX
  8
0
 10
377.367438
 20
328.183691
 42
-0.100058
  0
VERTEX
  8
0
 10
377.024942
 20
327.500000
 42
0.118014
  0
VERTEX
  8
0
 10
376.668694
 20
326.720998
 42
0.004970
  0
VERTEX
  8
0
 10
376.108100
 20
323.709375
 42
0.008328
  0
VERTEX
  8
0
 10
375.534371
 20
320.095495
 42
0.005803
  0
VERTEX
  8
0
 10
375.002339
 20
316.000000
 42
-0.009711
  0
VERTEX
  8
0
 10
374.412759
 20
311.723444
 42
-0.010298
  0
VERTEX
  8
0
 10
373.667294
 20
307.556250
 42
-0.009961
  0
VERTEX
  8
0
 10
372.881069
 20
303.999154
 42
-0.045659
  0
VERTEX
  8
0
 10
372.199191
 20
302.000000
 42
0.049201
  0
VERTEX
  8
0
 10
371.554109
 20
300.064047
 42
0.018451
  0
VERTEX
  8
0
 10
371.023352
 20
297.250008
 42
0.017199
  0
VERTEX
  8
0
 10
370.643513
 20
293.965358
 42
0.014886
  0
VERTEX
  8
0
 10
370.466746
 20
290.500000
 42
-0.012087
  0
VERTEX
  8
0
 10
370.011074
 20
280.463074
 42
-0.007778
  0
VERTEX
  8
0
 10
369.020865
 20
268.854922
 42
-0.007297
  0
VERTEX
  8
0
 10
367.772822
 20
258.073567
 42
-0.028665
  0
VERTEX
  8
0
 10
366.527985
 20
251.500000
 42
0.013278
  0
VERTEX
  8
0
 10
365.953690
 20
248.906420
 42
0.010488
  0
VERTEX
  8
0
 10
365.466321
 20
246.073747
 42
0.010633
  0
VERTEX
  8
0
 10
365.124820
 20
243.423367
 42
0.025760
  0
VERTEX
  8
0
 10
365.015621
 20
241.453180
 42
-0.028000
  0
VERTEX
  8
0
 10
364.887466
 20
239.314321
 42
-0.007675
  0
VERTEX
  8
0
 10
364.445576
 20
235.965117
 42
-0.007733
  0
VERTEX
  8
0
 10
363.826618
 20
232.177763
 42
-0.007994
  0
VERTEX
  8
0
 10
363.096980
 20
228.453180
 42
0.005228
  0
VERTEX
  8
0
 10
362.317183
 20
224.586056
 42
0.004073
  0
VERTEX
  8
0
 10
361.547890
 20
220.367497
 42
0.004119
  0
VERTEX
  8
0
 10
360.895405
 20
216.424502
 42
0.009980
  0
VERTEX
  8
0
 10
360.495808
 20
213.500000
 42
-0.011151
  0
VERTEX
  8
0
 10
360.158145
 20
211.071201
 42
-0.012244
  0
VERTEX
  8
0
 10
359.721095
 20
208.734838
 42
-0.011723
  0
VERTEX
  8
0
 10
359.253000
 20
206.761085
 42
-0.058564
  0
VERTEX
  8
0
 10
358.838868
 20
205.703703
 42
0.050142
  0
VERTEX
  8
0
 10
358.410984
 20
204.663025
 42
0.010701
  0
VERTEX
  8
0
 10
357.891553
 20
202.775085
 42
0.011086
  0
VERTEX
  8
0
 10
357.382849
 20
200.551587
 42
0.010351
  0
VERTEX
  8
0
 10
356.960353
 20
198.256397
 42
-0.015751
  0
VERTEX
  8
0
 10
356.488618
 20
195.840521
 42
-0.012359
  0
VERTEX
  8
0
 10
355.830669
 20
193.253578
 42
-0.012544
  0
VERTEX
  8
0
 10
355.098286
 20
190.876382
 42
-0.029789
  0
VERTEX
  8
0
 10
354.406150
 20
189.160982
 42
0.024769
  0
VERTEX
  8
0
 10
353.741980
 20
187.561326
 42
0.014483
  0
VERTEX
  8
0
 10
353.098822
 20
185.587836
 42
0.014462
  0
VERTEX
  8
0
 10
352.568331
 20
183.570614
 42
0.023730
  0
VERTEX
  8
0
 10
352.250897
 20
181.833908
 42
-0.018583
  0
VERTEX
  8
0
 10
351.988191
 20
180.308025
 42
-0.024091
  0
VERTEX
  8
0
 10
351.628988
 20
178.934724
 42
-0.022982
  0
VERTEX
  8
0
 10
351.231646
 20
177.846070
 42
-0.156587
  0
VERTEX
  8
0
 10
350.865061
 20
177.416603
 42
0.135724
  0
VERTEX
  8
0
 10
350.532169
 20
177.057417
 42
0.043904
  0
VERTEX
  8
0
 10
350.254112
 20
176.380727
 42
0.040041
  0
VERTEX
  8
0
 10
350.063816
 20
175.537998
 42
0.035526
  0
VERTEX
  8
0
 10
350.000000
 20
174.640983
 42
-0.033512
  0
VERTEX
  8
0
 10
349.937754
 20
173.713329
 42
-0.031185
  0
VERTEX
  8
0
 10
349.751951
 20
172.779226
 42
-0.032657
  0
VERTEX
  8
0
 10
349.480294
 20
171.970294
 42
-0.084538
  0
VERTEX
  8
0
 10
349.155576
 20
171.450000
 42
0.069500
  0
VERTEX
  8
0
 10
348.668144
 20
170.718617
 42
0.002818
  0
VERTEX
  8
0
 10
347.301564
 20
167.841562
 42
0.004885
  0
VERTEX
  8
0
 10
345.731447
 20
164.400198
 42
0.003437
  0
VERTEX
  8
0
 10
344.029830
 20
160.500000
 42
-0.011105
  0
VERTEX
  8
0
 10
338.853733
 20
149.115679
 42
-0.011882
  0
VERTEX
  8
0
 10
333.286956
 20
138.229669
 42
-0.011270
  0
VERTEX
  8
0
 10
326.943822
 20
127.125517
 42
-0.008226
  0
VERTEX
  8
0
 10
319.420422
 20
115.071861
 42
-0.006602
  0
VERTEX
  8
0
 10
313.840889
 20
106.696157
 42
-0.018929
  0
VERTEX
  8
0
 10
309.673822
 20
101.084208
 42
-0.023203
  0
VERTEX
  8
0
 10
305.600803
 20
96.467915
 42
-0.015090
  0
VERTEX
  8
0
 10
300.500000
 20
91.509303
 42
-0.013622
  0
VERTEX
  8
0
 10
296.535158
 20
88.074811
 42
-0.010890
  0
VERTEX
  8
0
 10
292.086168
 20
84.587400
 42
-0.011060
  0
VERTEX
  8
0
 10
287.817838
 20
81.534212
 42
-0.026676
  0
VERTEX
  8
0
 10
284.500000
 20
79.520648
 42
0.003999
  0
VERTEX
  8
0
 10
281.636719
 20
77.955949
 42
0.004097
  0
VERTEX
  8
0
 10
278.821875
 20
76.357994
 42
0.003973
  0
VERTEX
  8
0
 10
276.401492
 20
74.931829
 42
0.017148
  0
VERTEX
  8
0
 10
275.000000
 20
74.024189
 42
-0.020683
  0
VERTEX
  8
0
 10
273.511736
 20
73.075217
 42
-0.003525
  0
VERTEX
  8
0
 10
270.593607
 20
71.407417
 42
-0.003842
  0
VERTEX
  8
0
 10
267.135263
 20
69.497909
 42
-0.003416
  0
VERTEX
  8
0
 10
263.510151
 20
67.564437
 42
0.006112
  0
VERTEX
  8
0
 10
259.664739
 20
65.486754
 42
0.004787
  0
VERTEX
  8
0
 10
255.542463
 20
63.141991
 42
0.004842
  0
VERTEX
  8
0
 10
251.748319
 20
60.886079
 42
0.011814
  0
VERTEX
  8
0
 10
249.010151
 20
59.132035
 42
-0.022968
  0
VERTEX
  8
0
 10
234.022287
 20
49.995787
 42
-0.033785
  0
VERTEX
  8
0
 10
220.033407
 20
43.513025
 42
-0.031146
  0
VERTEX
  8
0
 10
204.472393
 20
38.628692
 42
-0.016054
  0
VERTEX
  8
0
 10
184.500000
 20
34.376586
 42
0.013737
  0
VERTEX
  8
0
 10
183.187118
 20
34.103426
 42
0.009554
  0
VERTEX
  8
0
 10
181.720313
 20
33.726209
 42
0.009644
  0
VERTEX
  8
0
 10
180.325521
 20
33.309819
 42
0.019590
  0
VERTEX
  8
0
 10
179.250000
 20
32.918960
 42
-0.001483
  0
VERTEX
  8
0
 10
178.225684
 20
32.504144
 42
-0.000875
  0
VERTEX
  8
0
 10
177.000000
 20
32.014497
 42
-0.000876
  0
VERTEX
  8
0
 10
175.774219
 20
31.529783
 42
-0.001501
  0
VERTEX
  8
0
 10
174.750000
 20
31.130392
 42
0.022318
  0
VERTEX
  8
0
 10
170.660423
 20
29.336203
 42
0.002547
  0
VERTEX
  8
0
 10
161.643441
 20
24.833234
 42
0.001119
  0
VERTEX
  8
0
 10
152.092603
 20
19.975840
 42
0.070246
  0
VERTEX
  8
0
 10
150.550000
 20
18.890804
 42
-0.188825
  0
VERTEX
  8
0
 10
148.439508
 20
18.047855
 42
-0.134406
  0
VERTEX
  8
0
 10
145.952922
 20
18.710587
 42
-0.062402
  0
VERTEX
  8
0
 10
142.643838
 20
21.238309
 42
-0.013838
  0
VERTEX
  8
0
 10
137.691995
 20
26.384476
 42
-0.031000
  0
VERTEX
  8
0
 10
126.931570
 20
39.786542
 42
-0.033236
  0
VERTEX
  8
0
 10
118.182521
 20
54.118434
 42
-0.028822
  0
VERTEX
  8
0
 10
110.486087
 20
71.169425
 42
-0.015419
  0
VERTEX
  8
0
 10
102.873318
 20
93.000000
 42
0.009704
  0
VERTEX
  8
0
 10
100.007074
 20
101.531705
 42
0.007710
  0
VERTEX
  8
0
 10
96.593009
 20
110.631411
 42
0.007791
  0
VERTEX
  8
0
 10
92.956428
 20
119.480014
 42
0.010973
  0
VERTEX
  8
0
 10
89.420028
 20
127.242919
 42
-0.029911
  0
VERTEX
  8
0
 10
84.927256
 20
138.185185
 42
-0.016803
  0
VERTEX
  8
0
 10
80.731835
 20
151.932908
 42
-0.016388
  0
VERTEX
  8
0
 10
77.296553
 20
166.616571
 42
-0.020229
  0
VERTEX
  8
0
 10
75.104547
 20
180.500000
 42
-0.034341
  0
VERTEX
  8
0
 10
74.365441
 20
196.052957
 42
-0.004108
  0
VERTEX
  8
0
 10
75.377441
 20
230.481489
 42
-0.005346
  0
VERTEX
  8
0
 10
77.146813
 20
267.090883
 42
-0.009222
  0
VERTEX
  8
0
 10
79.506045
 20
297.500000
 42
0.002411
  0
VERTEX
  8
0
 10
80.181768
 20
304.900958
 42
0.001785
  0
VERTEX
  8
0
 10
80.860257
 20
313.090532
 42
0.001803
  0
VERTEX
  8
0
 10
81.445507
 20
320.829233
 42
0.004060
  0
VERTEX
  8
0
 10
81.820430
 20
326.701811
 42
-0.009275
  0
VERTEX
  8
0
 10
82.425522
 20
334.843279
 42
-0.055228
  0
VERTEX
  8
0
 10
83.283756
 20
339.011149
 42
-0.364967
  0
VERTEX
  8
0
 10
84.429029
 20
339.725169
 42
-0.250089
  0
VERTEX
  8
0
 10
85.731842
 20
338.770206
 42
-0.019677
  0
VERTEX
  8
0
 10
88.976846
 20
331.279331
 42
-0.005320
  0
VERTEX
  8
0
 10
93.519439
 20
319.166943
 42
-0.005221
  0
VERTEX
  8
0
 10
97.791491
 20
307.001973
 42
-0.021419
  0
VERTEX
  8
0
 10
99.984915
 20
299.500000
 42
0.008957
  0
VERTEX
  8
0
 10
100.551569
 20
297.365904
 42
0.007166
  0
VERTEX
  8
0
 10
101.235893
 20
295.087500
 42
0.007252
  0
VERTEX
  8
0
 10
101.930052
 20
292.997112
 42
0.018181
  0
VERTEX
  8
0
 10
102.513273
 20
291.500000
 42
-0.007160
  0
VERTEX
  8
0
 10
105.786169
 20
283.616736
 42
-0.017398
  0
VERTEX
  8
0
 10
107.912271
 20
277.689455
 42
-0.019281
  0
VERTEX
  8
0
 10
109.492866
 20
272.001651
 42
-0.010884
  0
VERTEX
  8
0
 10
110.990551
 20
265.000000
 42
0.015798
  0
VERTEX
  8
0
 10
113.465201
 20
253.962435
 42
0.018606
  0
VERTEX
  8
0
 10
116.521176
 20
243.697526
 42
0.014971
  0
VERTEX
  8
0
 10
119.661887
 20
235.264125
 42
0.159016
  0
VERTEX
  8
0
 10
121.997367
 20
232.501627
 42
0.349016
  0
VERTEX
  8
0
 10
122.569661
 20
232.569486
 42
0.123591
  0
VERTEX
  8
0
 10
123.019985
 20
233.328910
 42
0.068254
  0
VERTEX
  8
0
 10
123.227904
 20
234.677149
 42
0.043833
  0
VERTEX
  8
0
 10
123.115610
 20
236.258434
 42
-0.006403
  0
VERTEX
  8
0
 10
121.898876
 20
244.550319
 42
-0.006419
  0
VERTEX
  8
0
 10
120.895965
 20
252.864007
 42
-0.006564
  0
VERTEX
  8
0
 10
120.202063
 20
260.217262
 42
-0.020243
  0
VERTEX
  8
0
 10
120.000000
 20
265.206188
 42
0.018680
  0
VERTEX
  8
0
 10
119.891058
 20
268.121170
 42
0.016972
  0
VERTEX
  8
0
 10
119.564451
 20
271.115309
 42
0.017464
  0
VERTEX
  8
0
 10
119.083944
 20
273.793636
 42
0.045866
  0
VERTEX
  8
0
 10
118.500000
 20
275.654243
 42
-0.022350
  0
VERTEX
  8
0
 10
117.926063
 20
277.221262
 42
-0.017638
  0
VERTEX
  8
0
 10
117.442301
 20
278.961622
 42
-0.017972
  0
VERTEX
  8
0
 10
117.107846
 20
280.612311
 42
-0.041559
  0
VERTEX
  8
0
 10
117.005706
 20
281.872124
 42
0.069948
  0
VERTEX
  8
0
 10
116.634130
 20
284.557498
 42
0.004400
  0
VERTEX
  8
0
 10
114.375996
 20
292.237580
 42
0.007132
  0
VERTEX
  8
0
 10
111.911383
 20
299.957396
 42
0.017809
  0
VERTEX
  8
0
 10
109.832040
 20
305.500000
 42
-0.015754
  0
VERTEX
  8
0
 10
109.342798
 20
306.787980
 42
-0.001476
  0
VERTEX
  8
0
 10
108.248829
 20
309.996875
 42
-0.001893
  0
VERTEX
  8
0
 10
106.969880
 20
313.832798
 42
-0.001487
  0
VERTEX
  8
0
 10
105.611714
 20
318.000000
 42
0.004779
  0
VERTEX
  8
0
 10
101.605827
 20
330.021853
 42
0.006083
  0
VERTEX
  8
0
 10
97.670132
 20
341.029741
 42
0.006416
  0
VERTEX
  8
0
 10
94.129718
 20
350.202068
 42
0.022188
  0
VERTEX
  8
0
 10
91.501685
 20
356.000000
 42
-0.022603
  0
VERTEX
  8
0
 10
87.818169
 20
364.144464
 42
-0.025229
  0
VERTEX
  8
0
 10
85.033465
 20
372.298403
 42
-0.026260
  0
VERTEX
  8
0
 10
83.176128
 20
380.371068
 42
-0.029659
  0
VERTEX
  8
0
 10
82.268794
 20
388.272337
 42
-0.005870
  0
VERTEX
  8
0
 10
82.029743
 20
393.790659
 42
-0.034553
  0
VERTEX
  8
0
 10
82.138373
 20
396.684163
 42
-0.068454
  0
VERTEX
  8
0
 10
82.600001
 20
398.543955
 42
-0.089128
  0
VERTEX
  8
0
 10
83.526940
 20
400.029768
 42
-0.059962
  0
VERTEX
  8
0
 10
85.880765
 20
402.075368
 42
-0.049758
  0
VERTEX
  8
0
 10
88.801089
 20
403.656510
 42
-0.048511
  0
VERTEX
  8
0
 10
92.056594
 20
404.663045
 42
-0.050376
  0
VERTEX
  8
0
 10
95.403638
 20
405.006456
 42
0.042450
  0
VERTEX
  8
0
 10
97.713278
 20
405.206568
 42
0.065256
  0
VERTEX
  8
0
 10
99.626865
 20
405.801871
 42
0.051737
  0
VERTEX
  8
0
 10
101.615183
 20
406.981094
 42
0.017482
  0
VERTEX
  8
0
 10
104.250000
 20
409.084262
 42
0.031994
  0
VERTEX
  8
0
 10
107.724674
 20
412.470993
 42
0.130645
  0
VERTEX
  8
0
 10
109.059459
 20
415.070110
 42
0.375624
  0
VERTEX
  8
0
 10
108.299916
 20
416.447255
 42
0.137236
  0
VERTEX
  8
0
 10
105.894508
 20
416.628902
 42
-0.017872
  0
VERTEX
  8
0
 10
104.428933
 20
416.389898
 42
-0.089714
  0
VERTEX
  8
0
 10
103.602388
 20
416.433774
 42
-0.246229
  0
VERTEX
  8
0
 10
103.253923
 20
416.736232
 42
-0.183681
  0
VERTEX
  8
0
 10
103.248852
 20
417.253902
 42
0.015549
  0
VERTEX
  8
0
 10
104.523331
 20
421.068786
 42
0.007816
  0
VERTEX
  8
0
 10
105.905860
 20
425.955743
 42
0.007509
  0
VERTEX
  8
0
 10
107.238262
 20
431.283764
 42
0.008180
  0
VERTEX
  8
0
 10
108.370102
 20
436.500000
 42
-0.000739
  0
VERTEX
  8
0
 10
109.092523
 20
440.086064
 42
-0.000468
  0
VERTEX
  8
0
 10
109.944733
 20
444.264238
 42
-0.000470
  0
VERTEX
  8
0
 10
110.789416
 20
448.366162
 42
-0.000869
  0
VERTEX
  8
0
 10
111.484707
 20
451.697405
 42
0.014005
  0
VERTEX
  8
0
 10
112.065318
 20
454.897279
 42
0.009490
  0
VERTEX
  8
0
 10
112.554883
 20
458.570225
 42
0.009567
  0
VERTEX
  8
0
 10
112.892770
 20
462.139076
 42
0.018818
  0
VERTEX
  8
0
 10
113.000000
 20
464.987244
 42
-0.020928
  0
VERTEX
  8
0
 10
113.126682
 20
468.012566
 42
-0.031058
  0
VERTEX
  8
0
 10
113.511939
 20
470.636275
 42
-0.033848
  0
VERTEX
  8
0
 10
114.183947
 20
473.012916
 42
-0.033332
  0
VERTEX
  8
0
 10
115.173221
 20
475.289838
 42
0.040520
  0
VERTEX
  8
0
 10
116.167387
 20
477.670978
 42
0.022174
  0
VERTEX
  8
0
 10
117.012130
 20
480.721142
 42
0.019313
  0
VERTEX
  8
0
 10
117.699003
 20
484.347037
 42
0.013281
  0
VERTEX
  8
0
 10
118.208347
 20
488.500000
 42
-0.001403
  0
VERTEX
  8
0
 10
118.961474
 20
496.138177
 42
-0.004821
  0
VERTEX
  8
0
 10
119.512105
 20
501.090487
 42
-0.006385
  0
VERTEX
  8
0
 10
120.070476
 20
505.259395
 42
-0.004312
  0
VERTEX
  8
0
 10
120.808971
 20
510.000000
 42
0.028317
  0
VERTEX
  8
0
 10
121.168786
 20
513.364338
 42
0.003608
  0
VERTEX
  8
0
 10
121.479753
 20
520.640625
 42
0.004217
  0
VERTEX
  8
0
 10
121.713890
 20
529.290613
 42
0.003498
  0
VERTEX
  8
0
 10
121.821009
 20
538.500000
 42
-0.003653
  0
VERTEX
  8
0
 10
121.936663
 20
548.185704
 42
-0.003236
  0
VERTEX
  8
0
 10
122.196025
 20
558.268750
 42
-0.003249
  0
VERTEX
  8
0
 10
122.547364
 20
567.345994
 42
-0.009911
  0
VERTEX
  8
0
 10
122.947973
 20
573.500000
 42
0.013161
  0
VERTEX
  8
0
 10
123.752140
 20
587.229290
 42
0.010406
  0
VERTEX
  8
0
 10
123.921321
 20
602.103849
 42
0.010633
  0
VERTEX
  8
0
 10
123.485132
 20
616.305323
 42
0.019265
  0
VERTEX
  8
0
 10
122.434658
 20
627.881660
 42
-0.006859
  0
VERTEX
  8
0
 10
121.164787
 20
638.846182
 42
-0.065498
  0
VERTEX
  8
0
 10
121.302163
 20
643.545697
 42
-0.156017
  0
VERTEX
  8
0
 10
122.698085
 20
646.296679
 42
-0.092042
  0
VERTEX
  8
0
 10
125.750000
 20
648.421187
 42
0.025794
  0
VERTEX
  8
0
 10
127.540624
 20
649.344611
 42
0.046888
  0
VERTEX
  8
0
 10
128.878263
 20
650.302416
 42
0.061174
  0
VERTEX
  8
0
 10
129.725657
 20
651.242703
 42
0.154022
  0
VERTEX
  8
0
 10
130.000000
 20
652.112170
 42
0.097048
  0
VERTEX
  8
0
 10
129.672973
 20
653.781175
 42
0.311253
  0
VERTEX
  8
0
 10
128.774239
 20
654.370408
 42
0.164780
  0
VERTEX
  8
0
 10
127.338043
 20
653.846478
 42
0.034478
  0
VERTEX
  8
0
 10
125.341965
 20
652.004187
 42
-0.021118
  0
VERTEX
  8
0
 10
124.160738
 20
650.854074
 42
-0.025521
  0
VERTEX
  8
0
 10
122.956284
 20
649.882480
 42
-0.025484
  0
VERTEX
  8
0
 10
121.880503
 20
649.182563
 42
-0.132225
  0
VERTEX
  8
0
 10
121.202221
 20
649.000000
 42
-0.268862
  0
VERTEX
  8
0
 10
119.608832
 20
649.923565
 42
-0.052933
  0
VERTEX
  8
0
 10
118.224016
 20
653.071564
 42
-0.049516
  0
VERTEX
  8
0
 10
117.372969
 20
657.070152
 42
-0.058923
  0
VERTEX
  8
0
 10
117.399783
 20
660.925474
 42
0.008128
  0
VERTEX
  8
0
 10
117.691164
 20
663.602720
 42
0.001326
  0
VERTEX
  8
0
 10
118.157905
 20
668.803688
 42
0.001460
  0
VERTEX
  8
0
 10
118.673169
 20
674.928480
 42
0.001286
  0
VERTEX
  8
0
 10
119.175622
 20
681.321124
 42
0.010492
  0
VERTEX
  8
0
 10
119.835900
 20
693.339758
 42
0.077529
  0
VERTEX
  8
0
 10
119.146058
 20
699.020269
 42
0.097853
  0
VERTEX
  8
0
 10
116.787440
 20
703.655703
 42
0.021301
  0
VERTEX
  8
0
 10
110.924043
 20
710.500000
 42
-0.030461
  0
VERTEX
  8
0
 10
106.487091
 20
715.875345
 42
-0.036049
  0
VERTEX
  8
0
 10
103.004073
 20
721.466997
 42
-0.040020
  0
VERTEX
  8
0
 10
100.731289
 20
726.768254
 42
-0.081436
  0
VERTEX
  8
0
 10
100.000000
 20
731.228463
 42
0.031206
  0
VERTEX
  8
0
 10
99.891976
 20
732.957587
 42
0.018635
  0
VERTEX
  8
0
 10
99.559375
 20
734.992043
 42
0.018619
  0
VERTEX
  8
0
 10
99.075005
 20
737.001344
 42
0.030508
  0
VERTEX
  8
0
 10
98.500000
 20
738.654243
 42
-0.029899
  0
VERTEX
  8
0
 10
97.925059
 20
740.300499
 42
-0.018596
  0
VERTEX
  8
0
 10
97.440625
 20
742.288418
 42
-0.018641
  0
VERTEX
  8
0
 10
97.107848
 20
744.292315
 42
-0.031832
  0
VERTEX
  8
0
 10
97.000000
 20
745.984619
 42
0.044503
  0
VERTEX
  8
0
 10
96.831743
 20
747.871277
 42
0.047022
  0
VERTEX
  8
0
 10
96.332417
 20
749.662443
 42
0.044230
  0
VERTEX
  8
0
 10
95.474371
 20
751.419654
 42
0.032225
  0
VERTEX
  8
0
 10
94.233514
 20
753.206160
 42
0.000000
  0
VERTEX
  8
0
 10
91.467029
 20
756.687330
 42
0.000000
  0
VERTEX
  8
0
 10
93.667443
 20
780.593665
 42
0.004722
  0
VERTEX
  8
0
 10
94.514895
 20
790.862526
 42
0.003764
  0
VERTEX
  8
0
 10
95.240893
 20
801.953259
 42
0.003805
  0
VERTEX
  8
0
 10
95.757811
 20
812.236125
 42
0.009570
  0
VERTEX
  8
0
 10
95.933928
 20
819.736580
 42
0.000000
  0
VERTEX
  8
0
 10
96.000000
 20
834.973160
 42
0.000000
  0
VERTEX
  8
0
 10
99.622124
 20
836.486580
 42
-0.026411
  0
VERTEX
  8
0
 10
103.259241
 20
837.785329
 42
-0.131496
  0
VERTEX
  8
0
 10
105.407784
 20
837.846943
 42
-0.190038
  0
VERTEX
  8
0
 10
106.865863
 20
836.831291
 42
-0.067102
  0
VERTEX
  8
0
 10
108.000000
 20
834.500000
 42
0.020525
  0
VERTEX
  8
0
 10
108.873663
 20
832.177645
 42
0.143566
  0
VERTEX
  8
0
 10
109.632661
 20
831.250584
 42
0.275590
  0
VERTEX
  8
0
 10
110.492347
 20
831.197443
 42
0.077481
  0
VERTEX
  8
0
 10
111.623409
 20
832.023409
 42
-0.065916
  0
VERTEX
  8
0
 10
112.177301
 20
832.447773
 42
-0.026865
  0
VERTEX
  8
0
 10
113.025797
 20
832.877072
 42
-0.026012
  0
VERTEX
  8
0
 10
113.999547
 20
833.246564
 42
-0.030110
  0
VERTEX
  8
0
 10
114.960368
 20
833.492368
 42
0.134825
  0
VERTEX
  8
0
 10
118.688910
 20
835.331717
 42
0.146007
  0
VERTEX
  8
0
 10
120.816662
 20
838.767284
 42
0.146313
  0
VERTEX
  8
0
 10
120.711683
 20
842.801379
 42
0.135532
  0
VERTEX
  8
0
 10
118.418153
 20
846.256613
 42
-0.055776
  0
VERTEX
  8
0
 10
117.181874
 20
847.599760
 42
-0.014129
  0
VERTEX
  8
0
 10
115.494118
 20
850.044130
 42
-0.014234
  0
VERTEX
  8
0
 10
113.713528
 20
852.964202
 42
-0.013954
  0
VERTEX
  8
0
 10
112.089564
 20
856.000000
 42
0.008821
  0
VERTEX
  8
0
 10
109.013546
 20
861.894913
 42
0.009670
  0
VERTEX
  8
0
 10
105.821024
 20
867.497720
 42
0.010374
  0
VERTEX
  8
0
 10
102.758545
 20
872.404122
 42
0.020777
  0
VERTEX
  8
0
 10
100.102472
 20
876.122190
 42
-0.041218
  0
VERTEX
  8
0
 10
97.881295
 20
879.516400
 42
-0.006521
  0
VERTEX
  8
0
 10
94.171503
 20
886.572620
 42
-0.003572
  0
VERTEX
  8
0
 10
90.455784
 20
894.000354
 42
-0.114674
  0
VERTEX
  8
0
 10
90.000000
 20
895.961519
 42
0.056916
  0
VERTEX
  8
0
 10
89.939716
 20
896.489395
 42
0.020141
  0
VERTEX
  8
0
 10
89.738179
 20
897.224189
 42
0.019689
  0
VERTEX
  8
0
 10
89.449876
 20
898.020564
 42
0.021882
  0
VERTEX
  8
0
 10
89.108694
 20
898.763569
 42
-0.041600
  0
VERTEX
  8
0
 10
88.073498
 20
901.274259
 42
-0.007434
  0
VERTEX
  8
0
 10
86.607304
 20
906.133263
 42
-0.006193
  0
VERTEX
  8
0
 10
85.266434
 20
911.058414
 42
-0.063440
  0
VERTEX
  8
0
 10
85.000000
 20
913.149834
 42
0.138083
  0
VERTEX
  8
0
 10
84.797619
 20
913.868683
 42
0.035073
  0
VERTEX
  8
0
 10
84.087502
 20
914.865520
 42
0.033056
  0
VERTEX
  8
0
 10
83.082627
 20
915.933025
 42
0.028229
  0
VERTEX
  8
0
 10
81.893623
 20
916.920527
 42
-0.094672
  0
VERTEX
  8
0
 10
79.393898
 20
919.628798
 42
-0.016139
  0
VERTEX
  8
0
 10
75.865054
 20
925.730773
 42
-0.015423
  0
VERTEX
  8
0
 10
72.729517
 20
932.040393
 42
-0.108006
  0
VERTEX
  8
0
 10
72.000000
 20
935.378188
 42
0.087174
  0
VERTEX
  8
0
 10
71.862628
 20
936.160114
 42
0.007954
  0
VERTEX
  8
0
 10
71.156770
 20
938.014398
 42
0.010103
  0
VERTEX
  8
0
 10
70.228794
 20
940.210240
 42
0.007741
  0
VERTEX
  8
0
 10
69.129429
 20
942.572787
 42
-0.007727
  0
VERTEX
  8
0
 10
67.736834
 20
945.565267
 42
-0.002819
  0
VERTEX
  8
0
 10
65.854729
 20
949.843256
 42
-0.002794
  0
VERTEX
  8
0
 10
63.848665
 20
954.545509
 42
-0.003337
  0
VERTEX
  8
0
 10
62.012529
 20
959.000000
 42
0.002104
  0
VERTEX
  8
0
 10
60.201990
 20
963.423304
 42
0.001844
  0
VERTEX
  8
0
 10
58.273256
 20
968.031250
 42
0.001853
  0
VERTEX
  8
0
 10
56.500449
 20
972.180281
 42
0.005539
  0
VERTEX
  8
0
 10
55.246019
 20
975.000000
 42
-0.002908
  0
VERTEX
  8
0
 10
49.595237
 20
987.524010
 42
-0.011034
  0
VERTEX
  8
0
 10
46.283135
 20
995.446828
 42
-0.017342
  0
VERTEX
  8
0
 10
44.322208
 20
1001.004082
 42
-0.044392
  0
VERTEX
  8
0
 10
43.409289
 20
1005.168320
 42
0.016355
  0
VERTEX
  8
0
 10
43.048378
 20
1007.407632
 42
0.014210
  0
VERTEX
  8
0
 10
42.527466
 20
1009.727044
 42
0.014433
  0
VERTEX
  8
0
 10
41.935443
 20
1011.799858
 42
0.040189
  0
VERTEX
  8
0
 10
41.364011
 20
1013.200340
 42
-0.036545
  0
VERTEX
  8
0
 10
40.841160
 20
1014.455570
 42
-0.022181
  0
VERTEX
  8
0
 10
40.400678
 20
1016.003293
 42
-0.022169
  0
VERTEX
  8
0
 10
40.098553
 20
1017.586325
 42
-0.036079
  0
VERTEX
  8
0
 10
40.000000
 20
1018.950340
 42
0.029689
  0
VERTEX
  8
0
 10
39.908904
 20
1020.483182
 42
0.115948
  0
VERTEX
  8
0
 10
39.586047
 20
1021.368793
 42
0.167493
  0
VERTEX
  8
0
 10
38.978488
 20
1021.838808
 42
0.081816
  0
VERTEX
  8
0
 10
38.000000
 20
1022.000000
 42
0.048028
  0
VERTEX
  8
0
 10
37.234582
 20
1021.926307
 42
0.068025
  0
VERTEX
  8
0
 10
36.587500
 20
1021.706250
 42
0.088204
  0
VERTEX
  8
0
 10
36.151477
 20
1021.381882
 42
0.191087
  0
VERTEX
  8
0
 10
36.000000
 20
1021.000000
 42
-0.287471
  0
VERTEX
  8
0
 10
35.497786
 20
1020.198684
 42
-0.234070
  0
VERTEX
  8
0
 10
34.465501
 20
1020.207726
 42
-0.090537
  0
VERTEX
  8
0
 10
32.949384
 20
1021.358379
 42
-0.044324
  0
VERTEX
  8
0
 10
31.471786
 20
1023.292326
 42
-0.018692
  0
VERTEX
  8
0
 10
26.993349
 20
1030.998333
 42
-0.021403
  0
VERTEX
  8
0
 10
23.316644
 20
1038.682664
 42
-0.023227
  0
VERTEX
  8
0
 10
20.701339
 20
1045.693921
 42
-0.052017
  0
VERTEX
  8
0
 10
19.536390
 20
1051.250947
 42
0.021448
  0
VERTEX
  8
0
 10
19.090634
 20
1054.290965
 42
0.019687
  0
VERTEX
  8
0
 10
18.376451
 20
1057.370972
 42
0.020515
  0
VERTEX
  8
0
 10
17.475342
 20
1060.201174
 42
0.034870
  0
VERTEX
  8
0
 10
16.465099
 20
1062.469615
 42
-0.017518
  0
VERTEX
  8
0
 10
15.612664
 20
1064.217935
 42
-0.028006
  0
VERTEX
  8
0
 10
15.023477
 20
1065.770849
 42
-0.026997
  0
VERTEX
  8
0
 10
14.705721
 20
1067.001664
 42
-0.313695
  0
VERTEX
  8
0
 10
14.893273
 20
1067.434039
 42
-0.326372
  0
VERTEX
  8
0
 10
15.469158
 20
1067.389393
 42
-0.002856
  0
VERTEX
  8
0
 10
18.984163
 20
1064.343446
 42
-0.008353
  0
VERTEX
  8
0
 10
23.034802
 20
1060.671174
 42
-0.005122
  0
VERTEX
  8
0
 10
27.691132
 20
1056.215371
 42
0.001850
  0
VERTEX
  8
0
 10
33.128703
 20
1050.943372
 42
0.001129
  0
VERTEX
  8
0
 10
39.586364
 20
1044.756557
 42
0.001131
  0
VERTEX
  8
0
 10
46.013621
 20
1038.654343
 42
0.002006
  0
VERTEX
  8
0
 10
51.342654
 20
1033.658015
 42
-0.005473
  0
VERTEX
  8
0
 10
55.810417
 20
1029.410606
 42
-0.008403
  0
VERTEX
  8
0
 10
59.575654
 20
1025.626698
 42
-0.003751
  0
VERTEX
  8
0
 10
62.681647
 20
1022.349725
 42
-0.190018
  0
VERTEX
  8
0
 10
63.000000
 20
1021.542277
 42
0.201190
  0
VERTEX
  8
0
 10
64.195181
 20
1018.692220
 42
0.015563
  0
VERTEX
  8
0
 10
70.413289
 20
1012.951315
 42
0.019445
  0
VERTEX
  8
0
 10
78.540586
 20
1006.439265
 42
0.013809
  0
VERTEX
  8
0
 10
88.120663
 20
999.757762
 42
0.009033
  0
VERTEX
  8
0
 10
99.296650
 20
992.699154
 42
0.018264
  0
VERTEX
  8
0
 10
108.387269
 20
987.629342
 42
0.021612
  0
VERTEX
  8
0
 10
116.729343
 20
983.813662
 42
0.020621
  0
VERTEX
  8
0
 10
125.500000
 20
980.666293
 42
0.010357
  0
VERTEX
  8
0
 10
130.857870
 20
979.110582
 42
0.019323
  0
VERTEX
  8
0
 10
135.264036
 20
978.110304
 42
0.015727
  0
VERTEX
  8
0
 10
140.293064
 20
977.334068
 42
0.004708
  0
VERTEX
  8
0
 10
148.000000
 20
976.465115
 42
-0.008782
  0
VERTEX
  8
0
 10
150.370124
 20
976.178311
 42
-0.006766
  0
VERTEX
  8
0
 10
152.945199
 20
975.785127
 42
-0.006847
  0
VERTEX
  8
0
 10
155.342389
 20
975.352025
 42
-0.016194
  0
VERTEX
  8
0
 10
157.111317
 20
974.947494
 42
0.058028
  0
VERTEX
  8
0
 10
161.177023
 20
974.369237
 42
0.033530
  0
VERTEX
  8
0
 10
166.119129
 20
974.575352
 42
0.031230
  0
VERTEX
  8
0
 10
171.456726
 20
975.497940
 42
0.029589
  0
VERTEX
  8
0
 10
176.737430
 20
977.089633
 42
-0.004273
  0
VERTEX
  8
0
 10
179.108539
 20
977.937383
 42
-0.004418
  0
VERTEX
  8
0
 10
181.467746
 20
978.734908
 42
-0.004270
  0
VERTEX
  8
0
 10
183.522670
 20
979.390015
 42
-0.018894
  0
VERTEX
  8
0
 10
184.748515
 20
979.719124
 42
0.075792
  0
VERTEX
  8
0
 10
185.807471
 20
980.136938
 42
0.026961
  0
VERTEX
  8
0
 10
187.171148
 20
981.032337
 42
0.026026
  0
VERTEX
  8
0
 10
188.585289
 20
982.192255
 42
0.027824
  0
VERTEX
  8
0
 10
189.838288
 20
983.468602
 42
0.042991
  0
VERTEX
  8
0
 10
191.398903
 20
985.588451
 42
0.067099
  0
VERTEX
  8
0
 10
192.310872
 20
987.660144
 42
0.043051
  0
VERTEX
  8
0
 10
192.869508
 20
990.494025
 42
0.008726
  0
VERTEX
  8
0
 10
193.336332
 20
995.602309
 42
-0.003614
  0
VERTEX
  8
0
 10
193.635379
 20
999.290267
 42
-0.003499
  0
VERTEX
  8
0
 10
193.990675
 20
1003.013548
 42
-0.003457
  0
VERTEX
  8
0
 10
194.348900
 20
1006.285483
 42
-0.012861
  0
VERTEX
  8
0
 10
194.641588
 20
1008.337428
 42
0.011368
  0
VERTEX
  8
0
 10
194.968050
 20
1010.578259
 42
0.120616
  0
VERTEX
  8
0
 10
194.860102
 20
1011.487759
 42
0.280771
  0
VERTEX
  8
0
 10
194.374208
 20
1011.868882
 42
0.071500
  0
VERTEX
  8
0
 10
193.329362
 20
1011.842689
 42
-0.128968
  0
VERTEX
  8
0
 10
192.278663
 20
1011.936133
 42
-0.057885
  0
VERTEX
  8
0
 10
191.027937
 20
1012.557150
 42
-0.044593
  0
VERTEX
  8
0
 10
189.619135
 20
1013.663294
 42
-0.023881
  0
VERTEX
  8
0
 10
188.080740
 20
1015.255261
 42
0.019447
  0
VERTEX
  8
0
 10
186.719545
 20
1016.689077
 42
0.024530
  0
VERTEX
  8
0
 10
185.348449
 20
1017.899983
 42
0.023851
  0
VERTEX
  8
0
 10
184.131716
 20
1018.780974
 42
0.145770
  0
VERTEX
  8
0
 10
183.396408
 20
1019.000000
 42
-0.110055
  0
VERTEX
  8
0
 10
182.863681
 20
1019.118696
 42
-0.099906
  0
VERTEX
  8
0
 10
182.410195
 20
1019.454651
 42
-0.095013
  0
VERTEX
  8
0
 10
182.106044
 20
1019.956818
 42
-0.089016
  0
VERTEX
  8
0
 10
182.000000
 20
1020.547749
 42
0.106774
  0
VERTEX
  8
0
 10
181.839010
 20
1021.293030
 42
0.034872
  0
VERTEX
  8
0
 10
181.301566
 20
1022.288133
 42
0.032920
  0
VERTEX
  8
0
 10
180.532258
 20
1023.341629
 42
0.031719
  0
VERTEX
  8
0
 10
179.622353
 20
1024.299027
 42
-0.071115
  0
VERTEX
  8
0
 10
176.541729
 20
1028.097696
 42
-0.044388
  0
VERTEX
  8
0
 10
174.041457
 20
1033.264553
 42
-0.039992
  0
VERTEX
  8
0
 10
172.256541
 20
1039.424631
 42
-0.032819
  0
VERTEX
  8
0
 10
171.324175
 20
1046.213826
 42
0.008318
  0
VERTEX
  8
0
 10
170.794491
 20
1052.252051
 42
0.164863
  0
VERTEX
  8
0
 10
170.029223
 20
1053.916640
 42
0.508449
  0
VERTEX
  8
0
 10
169.027917
 20
1053.788097
 42
0.026649
  0
VERTEX
  8
0
 10
167.384546
 20
1050.377923
 42
-0.029328
  0
VERTEX
  8
0
 10
166.753527
 20
1049.086214
 42
-0.038747
  0
VERTEX
  8
0
 10
166.024509
 20
1047.998610
 42
-0.043074
  0
VERTEX
  8
0
 10
165.306174
 20
1047.233781
 42
-0.189238
  0
VERTEX
  8
0
 10
164.736580
 20
1047.021600
 42
-0.276863
  0
VERTEX
  8
0
 10
163.173290
 20
1047.996615
 42
-0.016302
  0
VERTEX
  8
0
 10
160.688608
 20
1053.269746
 42
-0.023552
  0
VERTEX
  8
0
 10
158.603794
 20
1058.797723
 42
-0.078548
  0
VERTEX
  8
0
 10
158.000000
 20
1062.617471
 42
0.054794
  0
VERTEX
  8
0
 10
157.781672
 20
1064.603772
 42
0.061064
  0
VERTEX
  8
0
 10
157.137494
 20
1066.419456
 42
0.046972
  0
VERTEX
  8
0
 10
155.920922
 20
1068.373863
 42
0.018110
  0
VERTEX
  8
0
 10
153.893080
 20
1070.846550
 42
-0.040487
  0
VERTEX
  8
0
 10
150.559996
 20
1075.303075
 42
-0.013776
  0
VERTEX
  8
0
 10
146.444046
 20
1082.268924
 42
-0.009732
  0
VERTEX
  8
0
 10
142.706960
 20
1089.331767
 42
-0.117336
  0
VERTEX
  8
0
 10
142.000000
 20
1092.302837
 42
0.107218
  0
VERTEX
  8
0
 10
141.859187
 20
1092.951957
 42
0.034834
  0
VERTEX
  8
0
 10
141.388605
 20
1093.819778
 42
0.032885
  0
VERTEX
  8
0
 10
140.715170
 20
1094.739028
 42
0.031610
  0
VERTEX
  8
0
 10
139.918654
 20
1095.575035
 42
-0.013023
  0
VERTEX
  8
0
 10
134.738069
 20
1100.622956
 42
-0.017649
  0
VERTEX
  8
0
 10
130.346947
 20
1105.460828
 42
-0.018962
  0
VERTEX
  8
0
 10
126.569947
 20
1110.289302
 42
-0.020017
  0
VERTEX
  8
0
 10
123.241124
 20
1115.305740
 42
0.000134
  0
VERTEX
  8
0
 10
121.282495
 20
1118.528454
 42
0.000134
  0
VERTEX
  8
0
 10
119.318036
 20
1121.756858
 42
0.000131
  0
VERTEX
  8
0
 10
117.598953
 20
1124.578646
 42
0.000523
  0
VERTEX
  8
0
 10
116.543678
 20
1126.305740
 42
0.020027
  0
VERTEX
  8
0
 10
115.660080
 20
1127.626644
 42
0.016819
  0
VERTEX
  8
0
 10
114.622889
 20
1128.954106
 42
0.017149
  0
VERTEX
  8
0
 10
113.592287
 20
1130.102983
 42
0.044062
  0
VERTEX
  8
0
 10
112.751998
 20
1130.835898
 42
-0.073045
  0
VERTEX
  8
0
 10
110.717625
 20
1132.828460
 42
-0.026157
  0
VERTEX
  8
0
 10
108.427461
 20
1136.192942
 42
-0.025628
  0
VERTEX
  8
0
 10
106.299806
 20
1140.142802
 42
-0.030288
  0
VERTEX
  8
0
 10
104.717107
 20
1144.079100
 42
0.029980
  0
VERTEX
  8
0
 10
103.881786
 20
1146.160319
 42
0.049897
  0
VERTEX
  8
0
 10
102.909112
 20
1147.778095
 42
0.057610
  0
VERTEX
  8
0
 10
101.753517
 20
1149.003380
 42
0.061381
  0
VERTEX
  8
0
 10
100.371767
 20
1149.902665
 42
-0.029763
  0
VERTEX
  8
0
 10
97.276462
 20
1151.649771
 42
-0.037445
  0
VERTEX
  8
0
 10
94.652990
 20
1153.636803
 42
-0.031041
  0
VERTEX
  8
0
 10
92.007349
 20
1156.281077
 42
-0.013135
  0
VERTEX
  8
0
 10
88.782679
 20
1160.130373
 42
-0.006039
  0
VERTEX
  8
0
 10
84.422820
 20
1165.759821
 42
-0.016978
  0
VERTEX
  8
0
 10
81.557034
 20
1169.834481
 42
-0.020708
  0
VERTEX
  8
0
 10
79.305348
 20
1173.611497
 42
-0.013607
  0
VERTEX
  8
0
 10
77.016974
 20
1178.128029
 42
0.009874
  0
VERTEX
  8
0
 10
75.799498
 20
1180.576096
 42
0.010266
  0
VERTEX
  8
0
 10
74.501357
 20
1182.942299
 42
0.010012
  0
VERTEX
  8
0
 10
73.296973
 20
1184.940920
 42
0.043329
  0
VERTEX
  8
0
 10
72.460392
 20
1186.043766
 42
-0.097366
  0
VERTEX
  8
0
 10
71.478948
 20
1187.675718
 42
-0.144169
  0
VERTEX
  8
0
 10
71.377902
 20
1189.331354
 42
-0.180125
  0
VERTEX
  8
0
 10
72.167930
 20
1190.532373
 42
-0.159464
  0
VERTEX
  8
0
 10
73.596889
 20
1191.000000
 42
-0.120363
  0
VERTEX
  8
0
 10
76.363460
 20
1190.324227
 42
-0.021078
  0
VERTEX
  8
0
 10
81.048298
 20
1187.633801
 42
-0.020861
  0
VERTEX
  8
0
 10
85.488915
 20
1184.562041
 42
-0.124739
  0
VERTEX
  8
0
 10
87.234743
 20
1182.384140
 42
0.072777
  0
VERTEX
  8
0
 10
88.194298
 20
1180.896364
 42
0.135542
  0
VERTEX
  8
0
 10
89.383044
 20
1180.112028
 42
0.184787
  0
VERTEX
  8
0
 10
90.551010
 20
1180.172417
 42
0.151164
  0
VERTEX
  8
0
 10
91.500000
 20
1181.000000
 42
-0.184824
  0
VERTEX
  8
0
 10
92.010622
 20
1181.389547
 42
-0.025529
  0
VERTEX
  8
0
 10
93.332658
 20
1181.706250
 42
-0.026458
  0
VERTEX
  8
0
 10
95.005573
 20
1181.926961
 42
-0.019570
  0
VERTEX
  8
0
 10
96.870959
 20
1182.000000
 42
-0.021344
  0
VERTEX
  8
0
 10
99.532803
 20
1181.886321
 42
-0.078604
  0
VERTEX
  8
0
 10
101.163009
 20
1181.483498
 42
-0.094647
  0
VERTEX
  8
0
 10
102.427145
 20
1180.640993
 42
-0.039411
  0
VERTEX
  8
0
 10
103.777551
 20
1179.087009
 42
0.047904
  0
VERTEX
  8
0
 10
104.824303
 20
1177.922918
 42
0.034650
  0
VERTEX
  8
0
 10
106.188972
 20
1176.834145
 42
0.035247
  0
VERTEX
  8
0
 10
107.644957
 20
1175.973848
 42
0.061831
  0
VERTEX
  8
0
 10
108.962347
 20
1175.508270
 42
-0.073582
  0
VERTEX
  8
0
 10
110.416600
 20
1174.955727
 42
-0.024526
  0
VERTEX
  8
0
 10
112.352309
 20
1173.744709
 42
-0.023796
  0
VERTEX
  8
0
 10
114.395096
 20
1172.173418
 42
-0.024915
  0
VERTEX
  8
0
 10
116.246738
 20
1170.437778
 42
0.013441
  0
VERTEX
  8
0
 10
117.966954
 20
1168.749557
 42
0.018084
  0
VERTEX
  8
0
 10
119.617792
 20
1167.322075
 42
0.015308
  0
VERTEX
  8
0
 10
121.044747
 20
1166.245851
 42
0.151740
  0
VERTEX
  8
0
 10
121.750000
 20
1166.016517
 42
-0.069021
  0
VERTEX
  8
0
 10
122.227757
 20
1165.943805
 42
-0.084329
  0
VERTEX
  8
0
 10
122.632812
 20
1165.744572
 42
-0.098493
  0
VERTEX
  8
0
 10
122.903797
 20
1165.453144
 42
-0.139065
  0
VERTEX
  8
0
 10
123.000000
 20
1165.113941
 42
0.207820
  0
VERTEX
  8
0
 10
123.188797
 20
1164.679328
 42
0.028082
  0
VERTEX
  8
0
 10
123.970190
 20
1164.027777
 42
0.028529
  0
VERTEX
  8
0
 10
125.037762
 20
1163.325527
 42
0.020436
  0
VERTEX
  8
0
 10
126.302775
 20
1162.660614
 42
-0.024258
  0
VERTEX
  8
0
 10
127.702910
 20
1161.910969
 42
-0.017841
  0
VERTEX
  8
0
 10
129.179447
 20
1160.952520
 42
-0.018113
  0
VERTEX
  8
0
 10
130.513827
 20
1159.943040
 42
-0.037856
  0
VERTEX
  8
0
 10
131.457762
 20
1159.046672
 42
0.063634
  0
VERTEX
  8
0
 10
132.488864
 20
1158.163747
 42
0.055608
  0
VERTEX
  8
0
 10
133.755532
 20
1157.520420
 42
0.050922
  0
VERTEX
  8
0
 10
135.239203
 20
1157.130365
 42
0.038851
  0
VERTEX
  8
0
 10
136.914441
 20
1157.000000
 42
-0.033892
  0
VERTEX
  8
0
 10
138.636680
 20
1156.883125
 42
-0.065122
  0
VERTEX
  8
0
 10
139.969776
 20
1156.520520
 42
-0.078524
  0
VERTEX
  8
0
 10
140.996187
 20
1155.887878
 42
-0.076011
  0
VERTEX
  8
0
 10
141.790836
 20
1154.963318
 42
0.046660
  0
VERTEX
  8
0
 10
142.439105
 20
1154.113209
 42
0.029128
  0
VERTEX
  8
0
 10
143.340855
 20
1153.242637
 42
0.029109
  0
VERTEX
  8
0
 10
144.338987
 20
1152.481698
 42
0.046142
  0
VERTEX
  8
0
 10
145.281382
 20
1151.965705
 42
-0.021177
  0
VERTEX
  8
0
 10
147.711025
 20
1150.788827
 42
-0.028407
  0
VERTEX
  8
0
 10
149.796558
 20
1149.509540
 42
-0.031820
  0
VERTEX
  8
0
 10
151.504275
 20
1148.154820
 42
-0.047436
  0
VERTEX
  8
0
 10
152.791487
 20
1146.750000
 42
0.070896
  0
VERTEX
  8
0
 10
153.465539
 20
1146.080106
 42
0.047341
  0
VERTEX
  8
0
 10
154.396829
 20
1145.514062
 42
0.047014
  0
VERTEX
  8
0
 10
155.427593
 20
1145.128938
 42
0.065998
  0
VERTEX
  8
0
 10
156.400167
 20
1145.000000
 42
-0.162514
  0
VERTEX
  8
0
 10
158.352210
 20
1144.348319
 42
-0.038118
  0
VERTEX
  8
0
 10
160.976862
 20
1142.043436
 42
-0.020924
  0
VERTEX
  8
0
 10
164.807814
 20
1137.780998
 42
-0.003832
  0
VERTEX
  8
0
 10
171.492614
 20
1129.558812
 42
-0.003480
  0
VERTEX
  8
0
 10
173.245828
 20
1127.336780
 42
-0.002392
  0
VERTEX
  8
0
 10
175.204080
 20
1124.794042
 42
-0.002411
  0
VERTEX
  8
0
 10
177.065651
 20
1122.328209
 42
-0.004905
  0
VERTEX
  8
0
 10
178.500000
 20
1120.369318
 42
0.003786
  0
VERTEX
  8
0
 10
183.350500
 20
1113.713785
 42
0.015316
  0
VERTEX
  8
0
 10
186.460160
 20
1109.772462
 42
0.022476
  0
VERTEX
  8
0
 10
188.680054
 20
1107.358614
 42
0.119300
  0
VERTEX
  8
0
 10
190.203559
 20
1106.435393
 42
-0.111089
  0
VERTEX
  8
0
 10
191.046740
 20
1105.942940
 42
-0.030771
  0
VERTEX
  8
0
 10
192.108581
 20
1104.824403
 42
-0.029466
  0
VERTEX
  8
0
 10
193.186068
 20
1103.374091
 42
-0.027083
  0
VERTEX
  8
0
 10
194.118978
 20
1101.766784
 42
0.058601
  0
VERTEX
  8
0
 10
197.254672
 20
1097.071481
 42
0.005439
  0
VERTEX
  8
0
 10
206.434488
 20
1086.536304
 42
0.007591
  0
VERTEX
  8
0
 10
216.072625
 20
1076.040347
 42
0.019908
  0
VERTEX
  8
0
 10
223.392527
 20
1068.899941
 42
0.012718
  0
VERTEX
  8
0
 10
225.604603
 20
1067.007273
 42
0.010861
  0
VERTEX
  8
0
 10
228.027805
 20
1065.124348
 42
0.010999
  0
VERTEX
  8
0
 10
230.306621
 20
1063.508245
 42
0.030348
  0
VERTEX
  8
0
 10
232.000000
 20
1062.506514
 42
-0.019764
  0
VERTEX
  8
0
 10
233.491993
 20
1061.666001
 42
-0.014435
  0
VERTEX
  8
0
 10
235.081837
 20
1060.621142
 42
-0.014629
  0
VERTEX
  8
0
 10
236.533008
 20
1059.541698
 42
-0.030958
  0
VERTEX
  8
0
 10
237.576466
 20
1058.606573
 42
0.017293
  0
VERTEX
  8
0
 10
238.809975
 20
1057.438838
 42
0.003099
  0
VERTEX
  8
0
 10
241.197698
 20
1055.356306
 42
0.003343
  0
VERTEX
  8
0
 10
244.027607
 20
1052.951596
 42
0.003015
  0
VERTEX
  8
0
 10
246.988176
 20
1050.500000
 42
-0.004749
  0
VERTEX
  8
0
 10
253.411362
 20
1045.143419
 42
-0.015999
  0
VERTEX
  8
0
 10
257.462898
 20
1041.469246
 42
-0.016012
  0
VERTEX
  8
0
 10
261.269509
 20
1037.545022
 42
-0.004762
  0
VERTEX
  8
0
 10
266.831833
 20
1031.312519
 42
-0.009685
  0
VERTEX
  8
0
 10
270.051304
 20
1027.488257
 42
-0.023074
  0
VERTEX
  8
0
 10
272.251899
 20
1024.496797
 42
-0.029521
  0
VERTEX
  8
0
 10
273.617014
 20
1022.161963
 42
-0.118056
  0
VERTEX
  8
0
 10
274.000000
 20
1020.562519
 42
0.038300
  0
VERTEX
  8
0
 10
274.075277
 20
1019.581232
 42
0.057279
  0
VERTEX
  8
0
 10
274.302392
 20
1018.752740
 42
0.075271
  0
VERTEX
  8
0
 10
274.635244
 20
1018.187569
 42
0.225796
  0
VERTEX
  8
0
 10
275.029418
 20
1018.000000
 42
-0.136864
  0
VERTEX
  8
0
 10
275.657465
 20
1017.824804
 42
-0.009273
  0
VERTEX
  8
0
 10
277.242931
 20
1016.825000
 42
-0.012746
  0
VERTEX
  8
0
 10
279.105814
 20
1015.532247
 42
-0.009187
  0
VERTEX
  8
0
 10
281.119216
 20
1014.000000
 42
0.017666
  0
VERTEX
  8
0
 10
283.784528
 20
1012.042090
 42
0.043235
  0
VERTEX
  8
0
 10
285.904657
 20
1010.851103
 42
0.055184
  0
VERTEX
  8
0
 10
287.855489
 20
1010.215104
 42
0.051268
  0
VERTEX
  8
0
 10
289.947825
 20
1010.000000
 42
0.038792
  0
VERTEX
  8
0
 10
292.205273
 20
1010.175406
 42
0.130342
  0
VERTEX
  8
0
 10
293.550777
 20
1010.767117
 42
0.091337
  0
VERTEX
  8
0
 10
294.684074
 20
1012.072124
 42
0.013585
  0
VERTEX
  8
0
 10
296.378592
 20
1015.131923
 42
0.018287
  0
VERTEX
  8
0
 10
297.638413
 20
1017.793988
 42
0.042761
  0
VERTEX
  8
0
 10
298.330820
 20
1019.883541
 42
0.053893
  0
VERTEX
  8
0
 10
298.567183
 20
1021.737210
 42
0.051192
  0
VERTEX
  8
0
 10
298.409273
 20
1023.631923
 42
-0.017072
  0
VERTEX
  8
0
 10
298.126693
 20
1025.485274
 42
-0.119163
  0
VERTEX
  8
0
 10
298.235569
 20
1026.387884
 42
-0.227012
  0
VERTEX
  8
0
 10
298.710107
 20
1026.845354
 42
-0.080329
  0
VERTEX
  8
0
 10
299.666468
 20
1027.000000
 42
-0.087625
  0
VERTEX
  8
0
 10
300.520186
 20
1026.849229
 42
-0.042276
  0
VERTEX
  8
0
 10
301.530906
 20
1026.380659
 42
-0.040197
  0
VERTEX
  8
0
 10
302.530469
 20
1025.698351
 42
-0.045880
  0
VERTEX
  8
0
 10
303.360783
 20
1024.891605
 42
0.049219
  0
VERTEX
  8
0
 10
304.403015
 20
1023.892370
 42
0.092604
  0
VERTEX
  8
0
 10
305.433048
 20
1023.354422
 42
0.085940
  0
VERTEX
  8
0
 10
306.640528
 20
1023.202499
 42
0.037792
  0
VERTEX
  8
0
 10
308.244638
 20
1023.398928
 42
-0.004875
  0
VERTEX
  8
0
 10
310.291120
 20
1023.787511
 42
-0.245757
  0
VERTEX
  8
0
 10
310.669200
 20
1023.668870
 42
-0.389715
  0
VERTEX
  8
0
 10
310.682481
 20
1023.349406
 42
-0.008474
  0
VERTEX
  8
0
 10
309.567408
 20
1022.074485
 42
0.130517
  0
VERTEX
  8
0
 10
308.550317
 20
1020.101599
 42
0.079685
  0
VERTEX
  8
0
 10
308.399085
 20
1017.469701
 42
0.078292
  0
VERTEX
  8
0
 10
309.083690
 20
1014.874295
 42
0.116499
  0
VERTEX
  8
0
 10
310.492235
 20
1013.006444
 42
-0.062519
  0
VERTEX
  8
0
 10
311.169990
 20
1012.283572
 42
-0.012245
  0
VERTEX
  8
0
 10
312.184152
 20
1010.813304
 42
-0.012820
  0
VERTEX
  8
0
 10
313.287071
 20
1009.029274
 42
-0.011571
  0
VERTEX
  8
0
 10
314.336999
 20
1007.129705
 42
0.001403
  0
VERTEX
  8
0
 10
315.425887
 20
1005.061399
 42
0.001021
  0
VERTEX
  8
0
 10
316.647854
 20
1002.767364
 42
0.001032
  0
VERTEX
  8
0
 10
317.815799
 20
1000.596278
 42
0.002269
  0
VERTEX
  8
0
 10
318.719660
 20
998.942358
 42
-0.014962
  0
VERTEX
  8
0
 10
319.610868
 20
997.208411
 42
-0.005742
  0
VERTEX
  8
0
 10
320.748968
 20
994.748693
 42
-0.005679
  0
VERTEX
  8
0
 10
321.923820
 20
992.049430
 42
-0.006956
  0
VERTEX
  8
0
 10
322.957644
 20
989.500000
 42
0.012454
  0
VERTEX
  8
0
 10
324.141757
 20
986.669711
 42
0.005809
  0
VERTEX
  8
0
 10
325.809645
 20
983.059375
 42
0.005751
  0
VERTEX
  8
0
 10
327.648213
 20
979.309782
 42
0.008008
  0
VERTEX
  8
0
 10
329.385670
 20
976.000000
 42
-0.023883
  0
VERTEX
  8
0
 10
334.136195
 20
966.207272
 42
-0.030081
  0
VERTEX
  8
0
 10
337.531804
 20
956.721678
 42
-0.031045
  0
VERTEX
  8
0
 10
339.686728
 20
947.154698
 42
-0.028544
  0
VERTEX
  8
0
 10
340.717804
 20
937.121516
 42
-0.005443
  0
VERTEX
  8
0
 10
340.927183
 20
931.045864
 42
-0.056095
  0
VERTEX
  8
0
 10
340.705701
 20
928.550089
 42
-0.103520
  0
VERTEX
  8
0
 10
339.940001
 20
926.773264
 42
-0.036722
  0
VERTEX
  8
0
 10
338.176336
 20
924.621516
 42
0.028761
  0
VERTEX
  8
0
 10
336.830273
 20
923.031523
 42
0.012302
  0
VERTEX
  8
0
 10
335.210751
 20
920.764899
 42
0.012125
  0
VERTEX
  8
0
 10
333.598373
 20
918.257898
 42
0.015624
  0
VERTEX
  8
0
 10
332.247063
 20
915.876014
 42
-0.025126
  0
VERTEX
  8
0
 10
330.805716
 20
913.444249
 42
-0.016355
  0
VERTEX
  8
0
 10
328.913598
 20
910.782620
 42
-0.016455
  0
VERTEX
  8
0
 10
326.891703
 20
908.300698
 42
-0.029901
  0
VERTEX
  8
0
 10
325.058973
 20
906.434314
 42
0.044767
  0
VERTEX
  8
0
 10
322.790530
 20
903.982691
 42
0.012011
  0
VERTEX
  8
0
 10
319.647172
 20
899.699572
 42
0.011168
  0
VERTEX
  8
0
 10
316.055926
 20
894.298152
 42
0.007804
  0
VERTEX
  8
0
 10
312.240401
 20
888.058300
 42
-0.001468
  0
VERTEX
  8
0
 10
308.818949
 20
882.300217
 42
-0.001903
  0
VERTEX
  8
0
 10
305.646439
 20
877.042126
 42
-0.001428
  0
VERTEX
  8
0
 10
302.958382
 20
872.653323
 42
-0.017128
  0
VERTEX
  8
0
 10
301.859385
 20
871.000000
 42
0.065178
  0
VERTEX
  8
0
 10
301.066408
 20
869.515948
 42
0.033324
  0
VERTEX
  8
0
 10
300.453486
 20
867.491161
 42
0.028094
  0
VERTEX
  8
0
 10
300.021206
 20
864.990050
 42
0.017708
  0
VERTEX
  8
0
 10
299.785594
 20
862.034808
 42
0.022649
  0
VERTEX
  8
0
 10
299.790755
 20
857.529018
 42
0.171632
  0
VERTEX
  8
0
 10
300.579525
 20
855.590239
 42
0.232973
  0
VERTEX
  8
0
 10
302.260994
 20
854.905586
 42
0.043728
  0
VERTEX
  8
0
 10
305.639130
 20
855.445563
 42
0.121635
  0
VERTEX
  8
0
 10
308.239516
 20
856.825858
 42
0.015635
  0
VERTEX
  8
0
 10
312.843128
 20
861.213074
 42
0.019446
  0
VERTEX
  8
0
 10
317.367779
 20
866.175294
 42
0.038529
  0
VERTEX
  8
0
 10
320.475441
 20
870.497171
 42
-0.007101
  0
VERTEX
  8
0
 10
321.652031
 20
872.371442
 42
-0.001359
  0
VERTEX
  8
0
 10
323.845647
 20
875.737943
 42
-0.001448
  0
VERTEX
  8
0
 10
326.428116
 20
879.652971
 42
-0.001333
  0
VERTEX
  8
0
 10
329.105484
 20
883.663150
 42
0.001232
  0
VERTEX
  8
0
 10
331.830983
 20
887.743636
 42
0.001203
  0
VERTEX
  8
0
 10
334.557956
 20
891.869695
 42
0.001184
  0
VERTEX
  8
0
 10
336.935150
 20
895.504131
 42
0.004523
  0
VERTEX
  8
0
 10
338.391307
 20
897.786877
 42
-0.017311
  0
VERTEX
  8
0
 10
339.475865
 20
899.394865
 42
-0.028148
  0
VERTEX
  8
0
 10
340.516767
 20
900.670809
 42
-0.027425
  0
VERTEX
  8
0
 10
341.410461
 20
901.546780
 42
-0.329759
  0
VERTEX
  8
0
 10
341.863032
 20
901.584651
 42
-0.157439
  0
VERTEX
  8
0
 10
342.247996
 20
901.132131
 42
-0.008788
  0
VERTEX
  8
0
 10
342.934077
 20
899.389251
 42
-0.012844
  0
VERTEX
  8
0
 10
343.672380
 20
897.246067
 42
-0.009001
  0
VERTEX
  8
0
 10
344.397837
 20
894.797774
 42
0.002657
  0
VERTEX
  8
0
 10
346.882112
 20
886.005793
 42
0.003589
  0
VERTEX
  8
0
 10
349.227962
 20
878.083293
 42
0.003563
  0
VERTEX
  8
0
 10
351.253736
 20
871.584723
 42
0.017889
  0
VERTEX
  8
0
 10
352.542316
 20
868.000000
 42
-0.029820
  0
VERTEX
  8
0
 10
354.207408
 20
862.996094
 42
-0.010075
  0
VERTEX
  8
0
 10
356.044958
 20
855.534433
 42
-0.010078
  0
VERTEX
  8
0
 10
357.727779
 20
847.281821
 42
-0.012311
  0
VERTEX
  8
0
 10
358.954720
 20
839.500000
 42
0.003558
  0
VERTEX
  8
0
 10
359.479330
 20
835.746792
 42
0.003316
  0
VERTEX
  8
0
 10
360.069190
 20
831.912109
 42
0.003304
  0
VERTEX
  8
0
 10
360.638456
 20
828.511585
 42
0.011238
  0
VERTEX
  8
0
 10
361.073735
 20
826.307180
 42
-0.015648
  0
VERTEX
  8
0
 10
361.428749
 20
824.421921
 42
-0.010041
  0
VERTEX
  8
0
 10
361.727910
 20
822.215365
 42
-0.010090
  0
VERTEX
  8
0
 10
361.933992
 20
820.040998
 42
-0.018581
  0
VERTEX
  8
0
 10
362.000000
 20
818.265388
 42
0.045401
  0
VERTEX
  8
0
 10
362.198862
 20
816.079834
 42
0.077046
  0
VERTEX
  8
0
 10
362.801840
 20
814.349238
 42
0.059096
  0
VERTEX
  8
0
 10
364.022881
 20
812.591403
 42
0.017403
  0
VERTEX
  8
0
 10
366.287852
 20
810.208208
 42
0.032337
  0
VERTEX
  8
0
 10
369.600312
 20
807.353134
 42
0.114865
  0
VERTEX
  8
0
 10
372.145291
 20
806.222735
 42
0.169066
  0
VERTEX
  8
0
 10
374.351619
 20
806.546490
 42
0.093978
  0
VERTEX
  8
0
 10
376.510376
 20
808.250000
 42
0.184010
  0
VERTEX
  8
0
 10
378.533025
 20
813.767532
 42
0.024509
  0
VERTEX
  8
0
 10
377.755684
 20
826.374334
 42
0.023002
  0
VERTEX
  8
0
 10
375.114385
 20
843.104337
 42
0.011486
  0
VERTEX
  8
0
 10
370.319744
 20
864.000000
 42
-0.000841
  0
VERTEX
  8
0
 10
369.320097
 20
867.967168
 42
-0.000784
  0
VERTEX
  8
0
 10
368.310059
 20
872.031250
 42
-0.000780
  0
VERTEX
  8
0
 10
367.423930
 20
875.645016
 42
-0.002666
  0
VERTEX
  8
0
 10
366.863645
 20
878.000000
 42
0.003941
  0
VERTEX
  8
0
 10
366.324341
 20
880.241389
 42
0.001470
  0
VERTEX
  8
0
 10
365.532813
 20
883.381250
 42
0.001456
  0
VERTEX
  8
0
 10
364.649989
 20
886.798763
 42
0.001762
  0
VERTEX
  8
0
 10
363.801016
 20
890.000000
 42
-0.006234
  0
VERTEX
  8
0
 10
361.307971
 20
899.751733
 42
-0.018698
  0
VERTEX
  8
0
 10
359.939133
 20
906.489509
 42
-0.023727
  0
VERTEX
  8
0
 10
359.256063
 20
912.372383
 42
-0.016494
  0
VERTEX
  8
0
 10
359.020840
 20
919.058870
 42
-0.008502
  0
VERTEX
  8
0
 10
359.088782
 20
923.641728
 42
-0.023347
  0
VERTEX
  8
0
 10
359.342441
 20
926.865852
 42
-0.032621
  0
VERTEX
  8
0
 10
359.781309
 20
929.142689
 42
-0.098296
  0
VERTEX
  8
0
 10
360.468197
 20
930.558870
 42
0.105050
  0
VERTEX
  8
0
 10
361.177563
 20
932.072612
 42
0.029770
  0
VERTEX
  8
0
 10
361.618473
 20
934.650878
 42
0.020453
  0
VERTEX
  8
0
 10
361.880202
 20
938.440883
 42
0.006330
  0
VERTEX
  8
0
 10
361.968197
 20
944.159009
 42
0.000000
  0
VERTEX
  8
0
 10
362.000000
 20
955.818018
 42
0.000000
  0
VERTEX
  8
0
 10
356.500000
 20
961.634184
 42
-0.012237
  0
VERTEX
  8
0
 10
353.730516
 20
964.710280
 42
-0.040409
  0
VERTEX
  8
0
 10
352.129729
 20
966.916222
 42
-0.061328
  0
VERTEX
  8
0
 10
351.286741
 20
968.781464
 42
-0.075636
  0
VERTEX
  8
0
 10
351.000000
 20
970.666158
 42
0.029525
  0
VERTEX
  8
0
 10
350.924492
 20
971.943752
 42
0.035654
  0
VERTEX
  8
0
 10
350.698360
 20
973.123746
 42
0.038460
  0
VERTEX
  8
0
 10
350.369510
 20
974.060831
 42
0.151861
  0
VERTEX
  8
0
 10
349.973141
 20
974.516600
 42
-0.134203
  0
VERTEX
  8
0
 10
348.654880
 20
975.930494
 42
-0.004170
  0
VERTEX
  8
0
 10
344.992508
 20
983.047457
 42
-0.004722
  0
VERTEX
  8
0
 10
341.491924
 20
990.158037
 42
-0.112478
  0
VERTEX
  8
0
 10
341.000000
 20
992.317125
 42
0.141603
  0
VERTEX
  8
0
 10
340.792452
 20
993.035282
 42
0.023693
  0
VERTEX
  8
0
 10
339.962188
 20
994.223086
 42
0.024324
  0
VERTEX
  8
0
 10
338.819725
 20
995.562887
 42
0.019450
  0
VERTEX
  8
0
 10
337.467022
 20
996.893582
 42
-0.036748
  0
VERTEX
  8
0
 10
333.668430
 20
1000.897964
 42
-0.012557
  0
VERTEX
  8
0
 10
328.753956
 20
1007.224262
 42
-0.011819
  0
VERTEX
  8
0
 10
324.227886
 20
1013.676629
 42
-0.051099
  0
VERTEX
  8
0
 10
322.044139
 20
1017.810878
 42
0.047146
  0
VERTEX
  8
0
 10
321.291249
 20
1019.263873
 42
0.025506
  0
VERTEX
  8
0
 10
320.114653
 20
1020.900542
 42
0.025181
  0
VERTEX
  8
0
 10
318.735422
 20
1022.458421
 42
0.036064
  0
VERTEX
  8
0
 10
317.353463
 20
1023.679567
 42
-0.029330
  0
VERTEX
  8
0
 10
315.632901
 20
1025.159178
 42
-0.077070
  0
VERTEX
  8
0
 10
314.653147
 20
1026.453160
 42
-0.084029
  0
VERTEX
  8
0
 10
314.158371
 20
1027.913991
 42
-0.039747
  0
VERTEX
  8
0
 10
314.000000
 20
1029.903081
 42
0.034934
  0
VERTEX
  8
0
 10
313.859392
 20
1031.913087
 42
0.097331
  0
VERTEX
  8
0
 10
313.398124
 20
1033.243548
 42
0.095455
  0
VERTEX
  8
0
 10
312.461644
 20
1034.315360
 42
0.032798
  0
VERTEX
  8
0
 10
310.750000
 20
1035.478278
 42
-0.010899
  0
VERTEX
  8
0
 10
309.406325
 20
1036.307654
 42
-0.009919
  0
VERTEX
  8
0
 10
308.056547
 20
1037.220500
 42
-0.009982
  0
VERTEX
  8
0
 10
306.882330
 20
1038.084644
 42
-0.031340
  0
VERTEX
  8
0
 10
306.144628
 20
1038.727829
 42
0.220572
  0
VERTEX
  8
0
 10
303.747922
 20
1039.590561
 42
0.113424
  0
VERTEX
  8
0
 10
300.648568
 20
1038.582182
 42
0.085820
  0
VERTEX
  8
0
 10
297.577319
 20
1035.933511
 42
0.072018
  0
VERTEX
  8
0
 10
295.348564
 20
1032.250000
 42
-0.027437
  0
VERTEX
  8
0
 10
294.739439
 20
1031.005601
 42
-0.036507
  0
VERTEX
  8
0
 10
294.046323
 20
1029.954688
 42
-0.039818
  0
VERTEX
  8
0
 10
293.370242
 20
1029.207719
 42
-0.191173
  0
VERTEX
  8
0
 10
292.846823
 20
1029.000000
 42
-0.177843
  0
VERTEX
  8
0
 10
291.670786
 20
1029.431963
 42
-0.058105
  0
VERTEX
  8
0
 10
290.390172
 20
1030.804670
 42
-0.056492
  0
VERTEX
  8
0
 10
289.385998
 20
1032.551361
 42
-0.097807
  0
VERTEX
  8
0
 10
289.031803
 20
1034.181906
 42
0.117927
  0
VERTEX
  8
0
 10
288.828879
 20
1034.964607
 42
0.041367
  0
VERTEX
  8
0
 10
288.196742
 20
1035.948374
 42
0.038304
  0
VERTEX
  8
0
 10
287.294584
 20
1036.955673
 42
0.036281
  0
VERTEX
  8
0
 10
286.233700
 20
1037.833591
 42
-0.057766
  0
VERTEX
  8
0
 10
284.956918
 20
1038.985853
 42
-0.044728
  0
VERTEX
  8
0
 10
283.849690
 20
1040.498668
 42
-0.040249
  0
VERTEX
  8
0
 10
282.928184
 20
1042.349460
 42
-0.030051
  0
VERTEX
  8
0
 10
282.207689
 20
1044.513290
 42
0.013451
  0
VERTEX
  8
0
 10
281.412900
 20
1047.193859
 42
0.098236
  0
VERTEX
  8
0
 10
280.760865
 20
1048.356844
 42
0.188023
  0
VERTEX
  8
0
 10
279.906946
 20
1048.814796
 42
0.077514
  0
VERTEX
  8
0
 10
278.572995
 20
1048.769203
 42
-0.125402
  0
VERTEX
  8
0
 10
277.094625
 20
1048.858930
 42
-0.073841
  0
VERTEX
  8
0
 10
275.497193
 20
1049.645480
 42
-0.041313
  0
VERTEX
  8
0
 10
273.449200
 20
1051.327279
 42
-0.009895
  0
VERTEX
  8
0
 10
270.349007
 20
1054.455517
 42
-0.006426
  0
VERTEX
  8
0
 10
267.853394
 20
1057.143768
 42
-0.004908
  0
VERTEX
  8
0
 10
265.190021
 20
1060.146439
 42
-0.004964
  0
VERTEX
  8
0
 10
262.750506
 20
1063.008624
 42
-0.011647
  0
VERTEX
  8
0
 10
261.000000
 20
1065.206290
 42
0.056273
  0
VERTEX
  8
0
 10
257.603355
 20
1068.767467
 42
0.026292
  0
VERTEX
  8
0
 10
252.498332
 20
1072.600542
 42
0.026242
  0
VERTEX
  8
0
 10
247.054920
 20
1075.856059
 42
0.060227
  0
VERTEX
  8
0
 10
242.602454
 20
1077.563642
 42
-0.116773
  0
VERTEX
  8
0
 10
240.575716
 20
1078.614660
 42
-0.075505
  0
VERTEX
  8
0
 10
238.846882
 20
1080.629368
 42
-0.075802
  0
VERTEX
  8
0
 10
237.800020
 20
1083.056947
 42
-0.119988
  0
VERTEX
  8
0
 10
237.761710
 20
1085.311283
 42
0.078338
  0
VERTEX
  8
0
 10
237.823006
 20
1086.245969
 42
0.291378
  0
VERTEX
  8
0
 10
237.478620
 20
1086.691609
 42
0.121131
  0
VERTEX
  8
0
 10
236.624955
 20
1086.781338
 42
0.012271
  0
VERTEX
  8
0
 10
234.595687
 20
1086.451973
 42
-0.019834
  0
VERTEX
  8
0
 10
232.677128
 20
1086.170284
 42
-0.095880
  0
VERTEX
  8
0
 10
231.584354
 20
1086.263456
 42
-0.158860
  0
VERTEX
  8
0
 10
230.892488
 20
1086.728022
 42
-0.085993
  0
VERTEX
  8
0
 10
230.402364
 20
1087.640690
 42
0.020679
  0
VERTEX
  8
0
 10
229.081255
 20
1091.122896
 42
0.013605
  0
VERTEX
  8
0
 10
227.289753
 20
1095.017112
 42
0.012721
  0
VERTEX
  8
0
 10
225.442015
 20
1098.533407
 42
0.052188
  0
VERTEX
  8
0
 10
224.057128
 20
1100.500000
 42
-0.026149
  0
VERTEX
  8
0
 10
223.158066
 20
1101.645275
 42
-0.005989
  0
VERTEX
  8
0
 10
221.765656
 20
1103.675000
 42
-0.006177
  0
VERTEX
  8
0
 10
220.215922
 20
1106.056252
 42
-0.005986
  0
VERTEX
  8
0
 10
218.708835
 20
1108.500000
 42
0.032194
  0
VERTEX
  8
0
 10
216.186571
 20
1112.147434
 42
0.053469
  0
VERTEX
  8
0
 10
213.569937
 20
1114.812585
 42
0.066209
  0
VERTEX
  8
0
 10
210.937181
 20
1116.446811
 42
0.106221
  0
VERTEX
  8
0
 10
208.362604
 20
1117.000000
 42
-0.238136
  0
VERTEX
  8
0
 10
207.714040
 20
1117.327463
 42
-0.014142
  0
VERTEX
  8
0
 10
206.421689
 20
1119.186872
 42
-0.018815
  0
VERTEX
  8
0
 10
204.975153
 20
1121.591997
 42
-0.012563
  0
VERTEX
  8
0
 10
203.494637
 20
1124.444669
 42
0.011157
  0
VERTEX
  8
0
 10
201.455063
 20
1128.401715
 42
0.044735
  0
VERTEX
  8
0
 10
199.946624
 20
1130.666158
 42
0.071813
  0
VERTEX
  8
0
 10
198.467180
 20
1132.045418
 42
0.072178
  0
VERTEX
  8
0
 10
196.660491
 20
1132.947033
 42
-0.118329
  0
VERTEX
  8
0
 10
194.042152
 20
1134.568015
 42
-0.057772
  0
VERTEX
  8
0
 10
191.602330
 20
1137.676357
 42
-0.051617
  0
VERTEX
  8
0
 10
189.654356
 20
1141.740846
 42
-0.046811
  0
VERTEX
  8
0
 10
188.500990
 20
1146.253519
 42
0.032278
  0
VERTEX
  8
0
 10
188.157283
 20
1147.781873
 42
0.031239
  0
VERTEX
  8
0
 10
187.616894
 20
1149.270595
 42
0.032807
  0
VERTEX
  8
0
 10
186.974131
 20
1150.516625
 42
0.090819
  0
VERTEX
  8
0
 10
186.323934
 20
1151.253519
 42
-0.026483
  0
VERTEX
  8
0
 10
183.886367
 20
1153.389841
 42
-0.013392
  0
VERTEX
  8
0
 10
181.038576
 20
1156.318329
 42
-0.006939
  0
VERTEX
  8
0
 10
178.371182
 20
1159.294327
 42
-0.181167
  0
VERTEX
  8
0
 10
178.000000
 20
1160.285125
 42
0.201411
  0
VERTEX
  8
0
 10
177.456945
 20
1161.578564
 42
0.029934
  0
VERTEX
  8
0
 10
175.277200
 20
1163.474749
 42
0.029685
  0
VERTEX
  8
0
 10
172.275858
 20
1165.513735
 42
0.021372
  0
VERTEX
  8
0
 10
168.710320
 20
1167.436883
 42
-0.020082
  0
VERTEX
  8
0
 10
165.051221
 20
1169.398327
 42
-0.038103
  0
VERTEX
  8
0
 10
162.309625
 20
1171.307937
 42
-0.048425
  0
VERTEX
  8
0
 10
160.532702
 20
1173.070492
 42
-0.174923
  0
VERTEX
  8
0
 10
160.000000
 20
1174.546580
 42
0.266810
  0
VERTEX
  8
0
 10
159.302960
 20
1175.759838
 42
0.095361
  0
VERTEX
  8
0
 10
157.348664
 20
1176.446099
 42
0.083426
  0
VERTEX
  8
0
 10
155.041581
 20
1176.402469
 42
0.151141
  0
VERTEX
  8
0
 10
153.386703
 20
1175.529560
 42
-0.041452
  0
VERTEX
  8
0
 10
152.040949
 20
1174.390189
 42
-0.154602
  0
VERTEX
  8
0
 10
150.998244
 20
1174.052834
 42
-0.381357
  0
VERTEX
  8
0
 10
150.515020
 20
1174.478825
 42
-0.122103
  0
VERTEX
  8
0
 10
150.643260
 20
1175.512735
 42
0.162628
  0
VERTEX
  8
0
 10
150.714340
 20
1177.128073
 42
0.135396
  0
VERTEX
  8
0
 10
149.815099
 20
1178.602658
 42
0.115412
  0
VERTEX
  8
0
 10
148.141217
 20
1179.570458
 42
0.099330
  0
VERTEX
  8
0
 10
146.113856
 20
1179.766507
 42
-0.040751
  0
VERTEX
  8
0
 10
144.791821
 20
1179.739863
 42
-0.134018
  0
VERTEX
  8
0
 10
143.972900
 20
1180.018311
 42
-0.152255
  0
VERTEX
  8
0
 10
143.469409
 20
1180.648110
 42
-0.057846
  0
VERTEX
  8
0
 10
143.180665
 20
1181.748350
 42
0.157781
  0
VERTEX
  8
0
 10
142.422683
 20
1183.301330
 42
0.096648
  0
VERTEX
  8
0
 10
140.738650
 20
1184.480966
 42
0.095428
  0
VERTEX
  8
0
 10
138.714138
 20
1184.950879
 42
0.148929
  0
VERTEX
  8
0
 10
136.996478
 20
1184.497824
 42
-0.212519
  0
VERTEX
  8
0
 10
134.974017
 20
1184.223600
 42
-0.083429
  0
VERTEX
  8
0
 10
132.384384
 20
1185.476177
 42
-0.062117
  0
VERTEX
  8
0
 10
129.610978
 20
1188.013949
 42
-0.040220
  0
VERTEX
  8
0
 10
127.061873
 20
1191.545132
 42
0.018976
  0
VERTEX
  8
0
 10
125.595971
 20
1193.768900
 42
0.031823
  0
VERTEX
  8
0
 10
124.181568
 20
1195.502365
 42
0.036513
  0
VERTEX
  8
0
 10
122.921377
 20
1196.675868
 42
0.170833
  0
VERTEX
  8
0
 10
122.000383
 20
1197.000000
 42
-0.071448
  0
VERTEX
  8
0
 10
121.237126
 20
1197.109627
 42
-0.044601
  0
VERTEX
  8
0
 10
120.394879
 20
1197.440625
 42
-0.043901
  0
VERTEX
  8
0
 10
119.605741
 20
1197.925908
 42
-0.059817
  0
VERTEX
  8
0
 10
119.000000
 20
1198.500000
 42
0.088265
  0
VERTEX
  8
0
 10
117.780715
 20
1199.531160
 42
0.121794
  0
VERTEX
  8
0
 10
116.409729
 20
1199.930635
 42
0.100826
  0
VERTEX
  8
0
 10
114.816117
 20
1199.673720
 42
0.046866
  0
VERTEX
  8
0
 10
112.925527
 20
1198.750000
 42
-0.032393
  0
VERTEX
  8
0
 10
111.792740
 20
1198.155389
 42
-0.134120
  0
VERTEX
  8
0
 10
111.035697
 20
1198.039453
 42
-0.156432
  0
VERTEX
  8
0
 10
110.391196
 20
1198.331172
 42
-0.049085
  0
VERTEX
  8
0
 10
109.670268
 20
1199.124983
 42
0.175596
  0
VERTEX
  8
0
 10
107.588195
 20
1200.500784
 42
0.024580
  0
VERTEX
  8
0
 10
102.436584
 20
1201.476163
 42
0.021851
  0
VERTEX
  8
0
 10
97.234713
 20
1201.968025
 42
0.273478
  0
VERTEX
  8
0
 10
95.552671
 20
1201.085224
 42
-0.138827
  0
VERTEX
  8
0
 10
95.096285
 20
1200.667387
 42
-0.042920
  0
VERTEX
  8
0
 10
94.222615
 20
1200.318785
 42
-0.039205
  0
VERTEX
  8
0
 10
93.131786
 20
1200.080009
 42
-0.034295
  0
VERTEX
  8
0
 10
91.966663
 20
1200.000000
 42
-0.053177
  0
VERTEX
  8
0
 10
90.474185
 20
1200.159182
 42
-0.095017
  0
VERTEX
  8
0
 10
89.342471
 20
1200.640299
 42
-0.086947
  0
VERTEX
  8
0
 10
88.404598
 20
1201.540484
 42
-0.038818
  0
VERTEX
  8
0
 10
87.500000
 20
1203.000000
 42
0.039154
  0
VERTEX
  8
0
 10
86.513861
 20
1204.588696
 42
0.107965
  0
VERTEX
  8
0
 10
85.530367
 20
1205.454626
 42
0.098085
  0
VERTEX
  8
0
 10
84.217085
 20
1205.877152
 42
0.028941
  0
VERTEX
  8
0
 10
82.096444
 20
1206.000000
 42
-0.031101
  0
VERTEX
  8
0
 10
80.360985
 20
1206.108053
 42
-0.018634
  0
VERTEX
  8
0
 10
78.321266
 20
1206.440625
 42
-0.018622
  0
VERTEX
  8
0
 10
76.308281
 20
1206.924984
 42
-0.030612
  0
VERTEX
  8
0
 10
74.654243
 20
1207.500000
 42
0.048299
  0
VERTEX
  8
0
 10
72.610726
 20
1208.130470
 42
0.019907
  0
VERTEX
  8
0
 10
69.749166
 20
1208.600858
 42
0.017750
  0
VERTEX
  8
0
 10
66.333420
 20
1208.900910
 42
0.013032
  0
VERTEX
  8
0
 10
62.532119
 20
1209.000000
 42
0.007988
  0
VERTEX
  8
0
 10
57.817385
 20
1208.924677
 42
0.039522
  0
VERTEX
  8
0
 10
55.181199
 20
1208.630977
 42
0.070750
  0
VERTEX
  8
0
 10
53.421903
 20
1208.025973
 42
0.078388
  0
SEQEND
  0
POLYLINE
  8
0
 66
1
 70
1
  0
VERTEX
  8
0
 10
87.413859
 20
724.250000
 42
-0.005069
  0
VERTEX
  8
0
 10
88.583416
 20
717.357981
 42
-0.006792
  0
VERTEX
  8
0
 10
89.495393
 20
711.085153
 42
-0.006682
  0
VERTEX
  8
0
 10
90.247522
 20
704.709471
 42
-0.004663
  0
VERTEX
  8
0
 10
90.932565
 20
697.500000
 42
0.016712
  0
VERTEX
  8
0
 10
91.679437
 20
691.244357
 42
0.012717
  0
VERTEX
  8
0
 10
92.899510
 20
684.450130
 42
0.010379
  0
VERTEX
  8
0
 10
94.716989
 20
676.467787
 42
0.005269
  0
VERTEX
  8
0
 10
97.317106
 20
666.500000
 42
-0.009447
  0
VERTEX
  8
0
 10
103.124545
 20
643.449711
 42
-0.026572
  0
VERTEX
  8
0
 10
106.015406
 20
627.078895
 42
-0.025592
  0
VERTEX
  8
0
 10
107.209984
 20
610.157830
 42
-0.008244
  0
VERTEX
  8
0
 10
107.280959
 20
585.000000
 42
-0.000772
  0
VERTEX
  8
0
 10
107.102016
 20
573.236131
 42
-0.001226
  0
VERTEX
  8
0
 10
106.908574
 20
563.165625
 42
-0.000248
  0
VERTEX
  8
0
 10
106.712107
 20
554.299121
 42
-0.059290
  0
VERTEX
  8
0
 10
106.598603
 20
553.500000
 42
-0.269073
  0
VERTEX
  8
0
 10
106.201200
 20
553.102463
 42
-0.020857
  0
VERTEX
  8
0
 10
104.673094
 20
552.763699
 42
-0.024039
  0
VERTEX
  8
0
 10
102.703017
 20
552.509373
 42
-0.015758
  0
VERTEX
  8
0
 10
100.416540
 20
552.397697
 42
0.016737
  0
VERTEX
  8
0
 10
97.822618
 20
552.265917
 42
0.011758
  0
VERTEX
  8
0
 10
94.916109
 20
551.951536
 42
0.011881
  0
VERTEX
  8
0
 10
92.145165
 20
551.518505
 42
0.024224
  0
VERTEX
  8
0
 10
90.000000
 20
551.022510
 42
-0.025594
  0
VERTEX
  8
0
 10
84.747027
 20
549.823082
 42
-0.069627
  0
VERTEX
  8
0
 10
80.942055
 20
549.692602
 42
-0.099521
  0
VERTEX
  8
0
 10
78.081920
 20
550.587194
 42
-0.100721
  0
VERTEX
  8
0
 10
75.803720
 20
552.515040
 42
-0.036690
  0
VERTEX
  8
0
 10
73.249647
 20
556.293604
 42
-0.026476
  0
VERTEX
  8
0
 10
70.953598
 20
560.834941
 42
-0.026920
  0
VERTEX
  8
0
 10
69.238352
 20
565.373379
 42
-0.055300
  0
VERTEX
  8
0
 10
68.495465
 20
569.094884
 42
0.074382
  0
VERTEX
  8
0
 10
68.300177
 20
569.910420
 42
0.019902
  0
VERTEX
  8
0
 10
67.750692
 20
571.129966
 42
0.019714
  0
VERTEX
  8
0
 10
67.007685
 20
572.481834
 42
0.019203
  0
VERTEX
  8
0
 10
66.154376
 20
573.783200
 42
-0.022338
  0
VERTEX
  8
0
 10
65.050038
 20
575.490639
 42
-0.005808
  0
VERTEX
  8
0
 10
63.430806
 20
578.333009
 42
-0.005894
  0
VERTEX
  8
0
 10
61.659593
 20
581.618629
 42
-0.005987
  0
VERTEX
  8
0
 10
59.975829
 20
584.927946
 42
-0.029574
  0
VERTEX
  8
0
 10
57.435968
 20
590.942768
 42
-0.049260
  0
VERTEX
  8
0
 10
56.119360
 20
596.277086
 42
-0.057999
  0
VERTEX
  8
0
 10
55.986323
 20
601.083415
 42
-0.068890
  0
VERTEX
  8
0
 10
57.001765
 20
605.504642
 42
0.036453
  0
VERTEX
  8
0
 10
57.447429
 20
606.995659
 42
0.007973
  0
VERTEX
  8
0
 10
57.984180
 20
609.621574
 42
0.008262
  0
VERTEX
  8
0
 10
58.507583
 20
612.686147
 42
0.007844
  0
VERTEX
  8
0
 10
58.939423
 20
615.819741
 42
-0.008137
  0
VERTEX
  8
0
 10
60.243475
 20
625.241570
 42
-0.016676
  0
VERTEX
  8
0
 10
61.630568
 20
632.566188
 42
-0.016388
  0
VERTEX
  8
0
 10
63.519057
 20
639.862190
 42
-0.007582
  0
VERTEX
  8
0
 10
66.425916
 20
649.218914
 42
0.008175
  0
VERTEX
  8
0
 10
68.200173
 20
654.953968
 42
0.007230
  0
VERTEX
  8
0
 10
69.863711
 20
660.983040
 42
0.007279
  0
VERTEX
  8
0
 10
71.204735
 20
666.458158
 42
0.021864
  0
VERTEX
  8
0
 10
71.900952
 20
670.242857
 42
-0.019525
  0
VERTEX
  8
0
 10
72.539165
 20
673.805803
 42
-0.008789
  0
VERTEX
  8
0
 10
73.640391
 20
678.428386
 42
-0.008686
  0
VERTEX
  8
0
 10
74.975909
 20
683.276238
 42
-0.011714
  0
VERTEX
  8
0
 10
76.362192
 20
687.609651
 42
0.007476
  0
VERTEX
  8
0
 10
79.139279
 20
696.043668
 42
0.019672
  0
VERTEX
  8
0
 10
80.798800
 20
702.187896
 42
0.019669
  0
VERTEX
  8
0
 10
81.970428
 20
708.444134
 42
0.007472
  0
VERTEX
  8
0
 10
83.129331
 20
717.250000
 42
-0.011453
  0
VERTEX
  8
0
 10
84.144894
 20
724.518911
 42
-0.097187
  0
VERTEX
  8
0
 10
85.287290
 20
727.596011
 42
-0.603123
  0
VERTEX
  8
0
 10
86.401353
 20
727.524748
 42
-0.060890
  0
SEQEND
  0
POLYLINE
  8
0
 66
1
 70
1
  0
VERTEX
  8
0
 10
108.799621
 20
708.250000
 42
-0.017676
  0
VERTEX
  8
0
 10
112.230093
 20
704.255767
 42
-0.045871
  0
VERTEX
  8
0
 10
114.315191
 20
701.091115
 42
-0.047716
  0
VERTEX
  8
0
 10
115.742354
 20
697.673220
 42
-0.020472
  0
VERTEX
  8
0
 10
117.011498
 20
692.887950
 42
-0.062706
  0
VERTEX
  8
0
 10
117.727664
 20
685.214756
 42
-0.026543
  0
VERTEX
  8
0
 10
116.845607
 20
674.894010
 42
-0.048267
  0
VERTEX
  8
0
 10
115.218854
 20
668.093234
 42
-0.708830
  0
VERTEX
  8
0
 10
113.558120
 20
668.082783
 42
-0.025175
  0
VERTEX
  8
0
 10
112.313855
 20
672.199811
 42
-0.000913
  0
VERTEX
  8
0
 10
108.395848
 20
688.118389
 42
-0.001053
  0
VERTEX
  8
0
 10
104.584647
 20
703.869722
 42
-0.020818
  0
VERTEX
  8
0
 10
103.627527
 20
708.750000
 42
-0.015612
  0
VERTEX
  8
0
 10
103.429687
 20
710.379641
 42
-0.026530
  0
VERTEX
  8
0
 10
103.379535
 20
711.751562
 42
-0.025547
  0
VERTEX
  8
0
 10
103.449107
 20
712.779290
 42
-0.379867
  0
VERTEX
  8
0
 10
103.697697
 20
713.000000
 42
-0.182790
  0
VERTEX
  8
0
 10
104.138892
 20
712.833132
 42
-0.006629
  0
VERTEX
  8
0
 10
105.493936
 20
711.604687
 42
-0.011382
  0
VERTEX
  8
0
 10
107.068728
 20
710.070142
 42
-0.007654
  0
SEQEND
  0
POLYLINE
  8
0
 66
1
 70
1
  0
VERTEX
  8
0
 10
269.068094
 20
1012.095630
 42
0.076400
  0
VERTEX
  8
0
 10
267.622031
 20
1009.222379
 42
0.079086
  0
VERTEX
  8
0
 10
267.128344
 20
1006.081900
 42
0.045082
  0
VERTEX
  8
0
 10
267.536269
 20
1001.661467
 42
0.009191
  0
VERTEX
  8
0
 10
269.102879
 20
993.953180
 42
-0.016681
  0
VERTEX
  8
0
 10
270.233005
 20
987.931881
 42
-0.025028
  0
VERTEX
  8
0
 10
270.778021
 20
982.613697
 42
-0.016022
  0
VERTEX
  8
0
 10
270.914826
 20
975.787300
 42
-0.003135
  0
VERTEX
  8
0
 10
270.690285
 20
963.500000
 42
-0.002866
  0
VERTEX
  8
0
 10
270.320562
 20
951.291276
 42
-0.016945
  0
VERTEX
  8
0
 10
269.873979
 20
944.912234
 42
-0.030920
  0
VERTEX
  8
0
 10
269.128262
 20
940.450388
 42
-0.030813
  0
VERTEX
  8
0
 10
267.837405
 20
936.109263
 42
-0.019158
  0
VERTEX
  8
0
 10
266.686036
 20
933.299835
 42
-0.029347
  0
VERTEX
  8
0
 10
265.457439
 20
930.973729
 42
-0.034483
  0
VERTEX
  8
0
 10
264.209128
 20
929.201111
 42
-0.080238
  0
VERTEX
  8
0
 10
263.000000
 20
928.123015
 42
0.030725
  0
VERTEX
  8
0
 10
260.885369
 20
926.582926
 42
0.050835
  0
VERTEX
  8
0
 10
259.336300
 20
925.011755
 42
0.062626
  0
VERTEX
  8
0
 10
258.375482
 20
923.450383
 42
0.101899
  0
VERTEX
  8
0
 10
258.031803
 20
921.938058
 42
-0.184129
  0
VERTEX
  8
0
 10
257.448217
 20
920.495982
 42
-0.029708
  0
VERTEX
  8
0
 10
255.218081
 20
918.364939
 42
-0.031139
  0
VERTEX
  8
0
 10
252.725683
 20
916.505269
 42
-0.145710
  0
VERTEX
  8
0
 10
251.028675
 20
916.000000
 42
0.298082
  0
VERTEX
  8
0
 10
250.626491
 20
915.736851
 42
0.077455
  0
VERTEX
  8
0
 10
250.419793
 20
914.951667
 42
0.046795
  0
VERTEX
  8
0
 10
250.408200
 20
913.703187
 42
0.018584
  0
VERTEX
  8
0
 10
250.615991
 20
912.000000
 42
-0.019053
  0
VERTEX
  8
0
 10
250.817861
 20
910.332316
 42
-0.044284
  0
VERTEX
  8
0
 10
250.810124
 20
909.074106
 42
-0.068840
  0
VERTEX
  8
0
 10
250.618054
 20
908.261569
 42
-0.309668
  0
VERTEX
  8
0
 10
250.236216
 20
908.000000
 42
0.183756
  0
VERTEX
  8
0
 10
249.803522
 20
907.835423
 42
0.060285
  0
VERTEX
  8
0
 10
249.344522
 20
907.315723
 42
0.050597
  0
VERTEX
  8
0
 10
248.930956
 20
906.562146
 42
0.038747
  0
VERTEX
  8
0
 10
248.632160
 20
905.670546
 42
-0.083986
  0
VERTEX
  8
0
 10
248.074920
 20
904.400565
 42
-0.013054
  0
VERTEX
  8
0
 10
246.504015
 20
902.139333
 42
-0.014227
  0
VERTEX
  8
0
 10
244.486867
 20
899.549516
 42
-0.011957
  0
VERTEX
  8
0
 10
242.208417
 20
896.920546
 42
0.007358
  0
VERTEX
  8
0
 10
239.747050
 20
894.132745
 42
0.005910
  0
VERTEX
  8
0
 10
237.179393
 20
891.064160
 42
0.005978
  0
VERTEX
  8
0
 10
234.873289
 20
888.171094
 42
0.015151
  0
VERTEX
  8
0
 10
233.287905
 20
886.000000
 42
-0.023988
  0
VERTEX
  8
0
 10
230.465233
 20
882.274540
 42
-0.015750
  0
VERTEX
  8
0
 10
226.883712
 20
878.255173
 42
-0.015474
  0
VERTEX
  8
0
 10
222.949530
 20
874.359376
 42
-0.019246
  0
VERTEX
  8
0
 10
219.049538
 20
871.000000
 42
0.061000
  0
VERTEX
  8
0
 10
215.881707
 20
867.774449
 42
0.064574
  0
VERTEX
  8
0
 10
213.656766
 20
863.938078
 42
0.082320
  0
VERTEX
  8
0
 10
212.852429
 20
860.538330
 42
0.278176
  0
VERTEX
  8
0
 10
213.852926
 20
858.590897
 42
0.177745
  0
VERTEX
  8
0
 10
215.801371
 20
858.192357
 42
0.011104
  0
VERTEX
  8
0
 10
221.687028
 20
859.216385
 42
0.017120
  0
VERTEX
  8
0
 10
227.567936
 20
860.585347
 42
0.048707
  0
VERTEX
  8
0
 10
231.500000
 20
862.066654
 42
0.021912
  0
VERTEX
  8
0
 10
235.033687
 20
864.003710
 42
0.047283
  0
VERTEX
  8
0
 10
237.519703
 20
865.853687
 42
0.027450
  0
VERTEX
  8
0
 10
240.325997
 20
868.681008
 42
0.003454
  0
VERTEX
  8
0
 10
246.009408
 20
875.162704
 42
0.017154
  0
VERTEX
  8
0
 10
258.050381
 20
890.093652
 42
0.016744
  0
VERTEX
  8
0
 10
269.141559
 20
905.933421
 42
0.017541
  0
VERTEX
  8
0
 10
278.124214
 20
920.840782
 42
0.041548
  0
VERTEX
  8
0
 10
283.453928
 20
932.642854
 42
0.024707
  0
VERTEX
  8
0
 10
285.822986
 20
940.532009
 42
0.033427
  0
VERTEX
  8
0
 10
287.122498
 20
947.860708
 42
0.025786
  0
VERTEX
  8
0
 10
287.623147
 20
956.618303
 42
0.008528
  0
VERTEX
  8
0
 10
287.474871
 20
969.500000
 42
0.003273
  0
VERTEX
  8
0
 10
287.014672
 20
982.601225
 42
0.015830
  0
VERTEX
  8
0
 10
286.469154
 20
990.028465
 42
0.028064
  0
VERTEX
  8
0
 10
285.668511
 20
994.955589
 42
0.053288
  0
VERTEX
  8
0
 10
284.391859
 20
998.761075
 42
-0.026467
  0
VERTEX
  8
0
 10
283.866711
 20
1000.086513
 42
-0.032542
  0
VERTEX
  8
0
 10
283.525659
 20
1001.372435
 42
-0.034316
  0
VERTEX
  8
0
 10
283.388613
 20
1002.457955
 42
-0.153835
  0
VERTEX
  8
0
 10
283.544147
 20
1003.071432
 42
0.211329
  0
VERTEX
  8
0
 10
283.795842
 20
1004.896517
 42
0.070175
  0
VERTEX
  8
0
 10
282.670261
 20
1007.419667
 42
0.058484
  0
VERTEX
  8
0
 10
280.543025
 20
1010.068796
 42
0.050578
  0
VERTEX
  8
0
 10
277.760499
 20
1012.302064
 42
0.019235
  0
VERTEX
  8
0
 10
274.312737
 20
1014.353754
 42
0.131264
  0
VERTEX
  8
0
 10
272.406639
 20
1014.814741
 42
0.186879
  0
VERTEX
  8
0
 10
270.869576
 20
1014.177092
 42
0.047356
  0
SEQEND
  0
POLYLINE
  8
0
 66
1
 70
1
  0
VERTEX
  8
0
 10
128.500000
 20
432.432999
 42
-0.005769
  0
VERTEX
  8
0
 10
125.965627
 20
430.173360
 42
-0.005329
  0
VERTEX
  8
0
 10
123.312412
 20
427.911432
 42
-0.005326
  0
VERTEX
  8
0
 10
120.906489
 20
425.947287
 42
-0.017650
  0
VERTEX
  8
0
 10
119.265659
 20
424.728929
 42
0.031502
  0
VERTEX
  8
0
 10
117.241423
 20
423.137093
 42
0.055356
  0
VERTEX
  8
0
 10
115.821706
 20
421.553311
 42
0.080694
  0
VERTEX
  8
0
 10
115.152410
 20
420.199663
 42
0.277713
  0
VERTEX
  8
0
 10
115.379128
 20
419.287538
 42
0.274466
  0
VERTEX
  8
0
 10
115.726249
 20
419.199030
 42
0.009767
  0
VERTEX
  8
0
 10
117.093524
 20
419.630403
 42
0.015587
  0
VERTEX
  8
0
 10
118.741909
 20
420.243942
 42
0.009993
  0
VERTEX
  8
0
 10
120.616868
 20
421.053240
 42
0.058385
  0
VERTEX
  8
0
 10
125.106619
 20
423.769612
 42
0.017707
  0
VERTEX
  8
0
 10
131.223334
 20
428.881496
 42
0.011378
  0
VERTEX
  8
0
 10
137.025765
 20
434.333934
 42
0.201079
  0
VERTEX
  8
0
 10
138.000000
 20
436.658507
 42
0.339819
  0
VERTEX
  8
0
 10
137.195778
 20
437.705172
 42
0.171401
  0
VERTEX
  8
0
 10
135.438188
 20
437.566014
 42
0.061128
  0
VERTEX
  8
0
 10
132.466852
 20
435.782416
 42
0.019245
  0
SEQEND
  0
POLYLINE
  8
0
 66
1
 70
1
  0
VERTEX
  8
0
 10
399.812500
 20
423.316886
 42
0.051402
  0
VERTEX
  8
0
 10
400.359369
 20
423.160852
 42
0.054150
  0
VERTEX
  8
0
 10
400.916927
 20
423.123424
 42
0.060344
  0
VERTEX
  8
0
 10
401.402231
 20
423.202593
 42
0.126455
  0
VERTEX
  8
0
 10
401.729167
 20
423.395833
 42
0.296942
  0
VERTEX
  8
0
 10
401.775380
 20
423.614691
 42
0.208169
  0
VERTEX
  8
0
 10
401.592839
 20
423.799335
 42
0.077125
  0
VERTEX
  8
0
 10
401.112848
 20
423.910055
 42
0.028489
  0
VERTEX
  8
0
 10
400.416667
 20
423.921053
 42
0.018894
  0
VERTEX
  8
0
 10
399.670344
 20
423.862007
 42
0.168741
  0
VERTEX
  8
0
 10
399.378580
 20
423.720685
 42
0.470617
  0
VERTEX
  8
0
 10
399.395823
 20
423.538436
 42
0.054073
  0
SEQEND
  0
ENDSEC
  0
EOF
