  0
SECTION
  2
HEADER
  9
$ACADVER
  1
AC1006
  9
$EXTMIN
 10
0.000000
 20
0.000000
 30
0.000000
  9
$EXTMAX
 10
296.000000
 20
251.000000
 30
0.000000
  0
ENDSEC
  0
SECTION
  2
ENTITIES
  0
POLYLINE
  8
0
 66
1
 70
1
  0
VERTEX
  8
0
 10
102.500000
 20
247.936260
 42
0.005646
  0
VERTEX
  8
0
 10
96.189464
 20
247.642542
 42
0.007523
  0
VERTEX
  8
0
 10
90.465625
 20
247.224833
 42
0.005508
  0
VERTEX
  8
0
 10
85.699366
 20
246.751860
 42
0.073457
  0
VERTEX
  8
0
 10
84.000000
 20
246.306017
 42
0.019064
  0
VERTEX
  8
0
 10
72.284241
 20
240.771151
 42
0.022267
  0
VERTEX
  8
0
 10
61.632731
 20
234.615823
 42
0.019882
  0
VERTEX
  8
0
 10
53.203768
 20
228.746169
 42
0.154458
  0
VERTEX
  8
0
 10
50.466916
 20
224.882082
 42
0.077860
  0
VERTEX
  8
0
 10
50.340372
 20
224.068809
 42
0.030070
  0
VERTEX
  8
0
 10
50.410345
 20
222.926275
 42
0.028882
  0
VERTEX
  8
0
 10
50.636867
 20
221.674605
 42
0.031644
  0
VERTEX
  8
0
 10
51.001526
 20
220.495988
 42
0.043979
  0
VERTEX
  8
0
 10
51.777010
 20
218.895608
 42
0.172349
  0
VERTEX
  8
0
 10
52.610479
 20
218.207255
 42
0.105493
  0
VERTEX
  8
0
 10
53.933601
 20
218.022448
 42
0.011614
  0
VERTEX
  8
0
 10
56.999326
 20
218.313514
 42
0.050669
  0
VERTEX
  8
0
 10
60.299316
 20
219.048471
 42
0.033684
  0
VERTEX
  8
0
 10
63.891351
 20
220.515484
 42
0.034002
  0
VERTEX
  8
0
 10
67.073193
 20
222.350209
 42
0.083530
  0
VERTEX
  8
0
 10
69.027732
 20
224.199380
 42
-0.122355
  0
VERTEX
  8
0
 10
70.394889
 20
225.306929
 42
-0.011592
  0
VERTEX
  8
0
 10
74.369035
 20
227.054069
 42
-0.013694
  0
VERTEX
  8
0
 10
78.406910
 20
228.590672
 42
-0.081650
  0
VERTEX
  8
0
 10
80.619728
 20
228.978038
 42
0.045223
  0
VERTEX
  8
0
 10
81.796371
 20
229.096980
 42
0.009241
  0
VERTEX
  8
0
 10
83.844116
 20
229.532605
 42
0.009663
  0
VERTEX
  8
0
 10
86.213016
 20
230.130971
 42
0.008939
  0
VERTEX
  8
0
 10
88.619728
 20
230.835087
 42
-0.029787
  0
VERTEX
  8
0
 10
92.121595
 20
231.702975
 42
-0.019562
  0
VERTEX
  8
0
 10
96.234021
 20
232.300408
 42
-0.015296
  0
VERTEX
  8
0
 10
101.346072
 20
232.682263
 42
-0.007100
  0
VERTEX
  8
0
 10
108.000000
 20
232.880417
 42
0.006974
  0
VERTEX
  8
0
 10
113.418686
 20
233.040421
 42
0.008245
  0
VERTEX
  8
0
 10
118.535981
 20
233.347601
 42
0.007332
  0
VERTEX
  8
0
 10
122.837534
 20
233.740600
 42
0.050614
  0
VERTEX
  8
0
 10
124.909722
 20
234.175595
 42
-0.043805
  0
VERTEX
  8
0
 10
126.860174
 20
234.612787
 42
-0.032827
  0
VERTEX
  8
0
 10
129.057491
 20
234.760932
 42
-0.026724
  0
VERTEX
  8
0
 10
131.670695
 20
234.625586
 42
-0.013872
  0
VERTEX
  8
0
 10
134.909722
 20
234.192485
 42
0.003517
  0
VERTEX
  8
0
 10
137.996053
 20
233.714555
 42
0.001801
  0
VERTEX
  8
0
 10
141.873609
 20
233.156261
 42
0.001789
  0
VERTEX
  8
0
 10
145.871892
 20
232.609860
 42
0.002693
  0
VERTEX
  8
0
 10
149.362139
 20
232.164721
 42
0.000000
  0
VERTEX
  8
0
 10
157.224278
 20
231.205001
 42
0.000000
  0
VERTEX
  8
0
 10
165.210646
 20
222.852501
 42
-0.034655
  0
VERTEX
  8
0
 10
172.359173
 20
214.256341
 42
-0.071295
  0
VERTEX
  8
0
 10
176.407895
 20
206.518836
 42
-0.062929
  0
VERTEX
  8
0
 10
178.403161
 20
197.339697
 42
-0.022090
  0
VERTEX
  8
0
 10
179.000000
 20
183.837339
 42
-0.018497
  0
VERTEX
  8
0
 10
178.727324
 20
176.469056
 42
-0.030482
  0
VERTEX
  8
0
 10
177.889166
 20
170.294726
 42
-0.028279
  0
VERTEX
  8
0
 10
176.254023
 20
163.954806
 42
-0.013476
  0
VERTEX
  8
0
 10
173.476719
 20
156.000000
 42
0.009707
  0
VERTEX
  8
0
 10
172.695786
 20
153.816262
 42
0.001096
  0
VERTEX
  8
0
 10
171.032901
 20
148.829023
 42
0.001328
  0
VERTEX
  8
0
 10
169.082870
 20
142.884700
 42
0.001079
  0
VERTEX
  8
0
 10
167.023350
 20
136.503058
 42
-0.011930
  0
VERTEX
  8
0
 10
161.107826
 20
119.448516
 42
-0.015425
  0
VERTEX
  8
0
 10
154.831725
 20
104.118367
 42
-0.014936
  0
VERTEX
  8
0
 10
148.891410
 20
91.798911
 42
-0.084560
  0
VERTEX
  8
0
 10
144.508118
 20
86.007627
 42
0.035630
  0
VERTEX
  8
0
 10
143.365079
 20
84.769233
 42
0.016082
  0
VERTEX
  8
0
 10
142.041022
 20
82.998248
 42
0.015828
  0
VERTEX
  8
0
 10
140.757287
 20
81.031023
 42
0.020836
  0
VERTEX
  8
0
 10
139.720964
 20
79.155735
 42
-0.037325
  0
VERTEX
  8
0
 10
137.319518
 20
75.129470
 42
-0.021727
  0
VERTEX
  8
0
 10
133.887147
 20
70.668932
 42
-0.014987
  0
VERTEX
  8
0
 10
130.374998
 20
66.738695
 42
-0.205717
  0
VERTEX
  8
0
 10
128.655560
 20
66.000000
 42
-0.252929
  0
VERTEX
  8
0
 10
126.734840
 20
67.038015
 42
-0.026417
  0
VERTEX
  8
0
 10
124.069149
 20
71.618618
 42
-0.023673
  0
VERTEX
  8
0
 10
120.966823
 20
78.439075
 42
-0.009616
  0
VERTEX
  8
0
 10
117.368472
 20
87.989734
 42
-0.007805
  0
VERTEX
  8
0
 10
116.078731
 20
91.811422
 42
-0.009369
  0
VERTEX
  8
0
 10
114.989489
 20
95.446531
 42
-0.008250
  0
VERTEX
  8
0
 10
114.182542
 20
98.530832
 42
-0.059920
  0
VERTEX
  8
0
 10
114.000000
 20
100.048563
 42
-0.082589
  0
VERTEX
  8
0
 10
114.227002
 20
101.413479
 42
-0.018814
  0
VERTEX
  8
0
 10
115.071272
 20
103.608205
 42
-0.018973
  0
VERTEX
  8
0
 10
116.250892
 20
106.095797
 42
-0.017449
  0
VERTEX
  8
0
 10
117.646884
 20
108.558828
 42
0.003049
  0
VERTEX
  8
0
 10
119.220042
 20
111.157083
 42
0.002242
  0
VERTEX
  8
0
 10
120.933003
 20
114.055021
 42
0.002265
  0
VERTEX
  8
0
 10
122.528883
 20
116.811312
 42
0.005048
  0
VERTEX
  8
0
 10
123.712515
 20
118.926349
 42
-0.019677
  0
VERTEX
  8
0
 10
129.009934
 20
127.774682
 42
-0.021908
  0
VERTEX
  8
0
 10
134.812102
 20
135.857240
 42
-0.023557
  0
VERTEX
  8
0
 10
140.517366
 20
142.447723
 42
-0.057594
  0
VERTEX
  8
0
 10
145.438297
 20
146.551527
 42
0.034010
  0
VERTEX
  8
0
 10
146.418642
 20
147.293752
 42
0.038375
  0
VERTEX
  8
0
 10
147.247500
 20
148.134869
 42
0.041791
  0
VERTEX
  8
0
 10
147.826063
 20
148.949045
 42
0.134370
  0
VERTEX
  8
0
 10
148.000000
 20
149.584594
 42
-0.077342
  0
VERTEX
  8
0
 10
148.113183
 20
150.311921
 42
-0.017053
  0
VERTEX
  8
0
 10
148.539016
 20
151.504884
 42
-0.017346
  0
VERTEX
  8
0
 10
149.132534
 20
152.864322
 42
-0.015919
  0
VERTEX
  8
0
 10
149.834948
 20
154.219584
 42
0.032562
  0
VERTEX
  8
0
 10
151.954047
 20
158.664156
 42
0.114673
  0
VERTEX
  8
0
 10
152.428682
 20
161.774058
 42
0.101879
  0
VERTEX
  8
0
 10
151.507818
 20
164.977002
 42
0.022798
  0
VERTEX
  8
0
 10
148.625905
 20
169.911447
 42
0.061521
  0
VERTEX
  8
0
 10
141.615277
 20
178.284280
 42
0.033285
  0
VERTEX
  8
0
 10
131.186296
 20
186.791965
 42
0.032623
  0
VERTEX
  8
0
 10
119.258515
 20
194.146347
 42
0.044288
  0
VERTEX
  8
0
 10
107.606182
 20
199.056104
 42
0.019931
  0
VERTEX
  8
0
 10
103.273108
 20
200.257204
 42
0.038904
  0
VERTEX
  8
0
 10
99.731975
 20
200.802463
 42
0.026968
  0
VERTEX
  8
0
 10
95.394987
 20
200.893927
 42
0.005367
  0
VERTEX
  8
0
 10
87.646393
 20
200.556089
 42
0.006633
  0
VERTEX
  8
0
 10
82.493209
 20
200.207338
 42
0.008814
  0
VERTEX
  8
0
 10
77.819239
 20
199.745608
 42
0.006596
  0
VERTEX
  8
0
 10
73.938697
 20
199.241091
 42
0.083535
  0
VERTEX
  8
0
 10
72.540211
 20
198.794409
 42
0.054961
  0
VERTEX
  8
0
 10
68.986609
 20
196.437360
 42
0.144640
  0
VERTEX
  8
0
 10
67.307839
 20
193.919413
 42
0.151266
  0
VERTEX
  8
0
 10
67.306371
 20
190.970137
 42
0.062025
  0
VERTEX
  8
0
 10
68.969522
 20
187.282095
 42
0.042391
  0
VERTEX
  8
0
 10
71.277325
 20
184.131946
 42
0.017089
  0
VERTEX
  8
0
 10
74.919523
 20
180.231547
 42
0.010558
  0
VERTEX
  8
0
 10
78.704965
 20
176.602365
 42
0.187971
  0
VERTEX
  8
0
 10
80.250634
 20
176.000000
 42
0.412518
  0
VERTEX
  8
0
 10
80.860171
 20
176.606017
 42
0.017981
  0
VERTEX
  8
0
 10
80.760442
 20
179.910952
 42
0.026136
  0
VERTEX
  8
0
 10
80.343792
 20
183.413966
 42
0.055453
  0
VERTEX
  8
0
 10
79.586129
 20
186.034639
 42
-0.386395
  0
VERTEX
  8
0
 10
80.213009
 20
187.777822
 42
-0.046232
  0
VERTEX
  8
0
 10
84.332363
 20
189.498780
 42
-0.044529
  0
VERTEX
  8
0
 10
89.511207
 20
190.626109
 42
-0.067954
  0
VERTEX
  8
0
 10
94.103547
 20
190.578515
 42
-0.042453
  0
VERTEX
  8
0
 10
100.857620
 20
188.990549
 42
-0.026473
  0
VERTEX
  8
0
 10
108.447282
 20
186.058080
 42
-0.026573
  0
VERTEX
  8
0
 10
115.608753
 20
182.377179
 42
-0.046418
  0
VERTEX
  8
0
 10
121.031906
 20
178.500000
 42
0.001988
  0
VERTEX
  8
0
 10
123.543275
 20
176.343719
 42
0.001507
  0
VERTEX
  8
0
 10
126.314843
 20
173.997476
 42
0.001523
  0
VERTEX
  8
0
 10
128.929578
 20
171.811056
 42
0.003549
  0
VERTEX
  8
0
 10
130.904331
 20
170.193535
 42
-0.024046
  0
VERTEX
  8
0
 10
132.659142
 20
168.631752
 42
-0.041003
  0
VERTEX
  8
0
 10
133.942905
 20
167.148690
 42
-0.050922
  0
VERTEX
  8
0
 10
134.741030
 20
165.785800
 42
-0.107414
  0
VERTEX
  8
0
 10
135.000000
 20
164.594238
 42
-0.100578
  0
VERTEX
  8
0
 10
134.521399
 20
162.239059
 42
-0.012835
  0
VERTEX
  8
0
 10
132.371779
 20
157.509968
 42
-0.011334
  0
VERTEX
  8
0
 10
128.999718
 20
150.952484
 42
-0.003948
  0
VERTEX
  8
0
 10
123.856557
 20
141.660467
 42
0.004291
  0
VERTEX
  8
0
 10
122.378783
 20
138.986279
 42
0.006346
  0
VERTEX
  8
0
 10
121.132864
 20
136.613802
 42
0.003144
  0
VERTEX
  8
0
 10
120.117201
 20
134.587255
 42
0.115080
  0
VERTEX
  8
0
 10
120.000000
 20
134.084781
 42
-0.155122
  0
VERTEX
  8
0
 10
119.869340
 20
133.673764
 42
-0.016672
  0
VERTEX
  8
0
 10
119.258041
 20
132.867839
 42
-0.019236
  0
VERTEX
  8
0
 10
118.441546
 20
131.938275
 42
-0.014353
  0
VERTEX
  8
0
 10
117.474183
 20
130.975746
 42
0.023287
  0
VERTEX
  8
0
 10
116.412714
 20
129.881165
 42
0.016052
  0
VERTEX
  8
0
 10
115.311323
 20
128.550416
 42
0.016218
  0
VERTEX
  8
0
 10
114.332573
 20
127.199080
 42
0.031566
  0
VERTEX
  8
0
 10
113.658148
 20
126.051432
 42
-0.008714
  0
VERTEX
  8
0
 10
111.876115
 20
122.674869
 42
-0.016478
  0
VERTEX
  8
0
 10
110.304382
 20
120.028835
 42
-0.018860
  0
VERTEX
  8
0
 10
108.719331
 20
117.744769
 42
-0.016920
  0
VERTEX
  8
0
 10
106.910695
 20
115.500000
 42
0.033336
  0
VERTEX
  8
0
 10
105.757163
 20
113.968042
 42
0.014159
  0
VERTEX
  8
0
 10
104.412288
 20
111.776670
 42
0.013936
  0
VERTEX
  8
0
 10
103.103965
 20
109.348763
 42
0.017750
  0
VERTEX
  8
0
 10
102.041525
 20
107.037600
 42
0.059730
  0
VERTEX
  8
0
 10
100.384210
 20
101.187779
 42
0.053962
  0
VERTEX
  8
0
 10
100.076431
 20
94.903535
 42
0.056901
  0
VERTEX
  8
0
 10
101.092554
 20
89.073656
 42
0.091595
  0
VERTEX
  8
0
 10
103.364945
 20
84.588179
 42
-0.020492
  0
VERTEX
  8
0
 10
104.373595
 20
83.146943
 42
-0.022611
  0
VERTEX
  8
0
 10
105.225953
 20
81.673460
 42
-0.022747
  0
VERTEX
  8
0
 10
105.834281
 20
80.359994
 42
-0.097367
  0
VERTEX
  8
0
 10
106.000000
 20
79.517062
 42
0.131069
  0
VERTEX
  8
0
 10
106.896540
 20
76.155701
 42
0.044993
  0
VERTEX
  8
0
 10
109.811743
 20
71.995585
 42
0.037099
  0
VERTEX
  8
0
 10
114.315376
 20
67.400249
 42
0.022567
  0
VERTEX
  8
0
 10
120.250000
 20
62.638481
 42
-0.020921
  0
VERTEX
  8
0
 10
121.685886
 20
61.494116
 42
-0.026956
  0
VERTEX
  8
0
 10
122.898438
 20
60.321568
 42
-0.026690
  0
VERTEX
  8
0
 10
123.778491
 20
59.265858
 42
-0.161773
  0
VERTEX
  8
0
 10
124.000000
 20
58.599147
 42
-0.150475
  0
VERTEX
  8
0
 10
123.241352
 20
56.135387
 42
-0.033514
  0
VERTEX
  8
0
 10
120.493103
 20
52.626450
 42
-0.035486
  0
VERTEX
  8
0
 10
117.074300
 20
49.321745
 42
-0.067135
  0
VERTEX
  8
0
 10
113.839860
 20
47.278476
 42
-0.034440
  0
VERTEX
  8
0
 10
111.611614
 20
46.438491
 42
-0.012593
  0
VERTEX
  8
0
 10
108.359784
 20
45.550899
 42
-0.012416
  0
VERTEX
  8
0
 10
104.744434
 20
44.755923
 42
-0.014533
  0
VERTEX
  8
0
 10
101.278552
 20
44.187531
 42
0.014587
  0
VERTEX
  8
0
 10
97.927260
 20
43.637562
 42
0.015147
  0
VERTEX
  8
0
 10
94.655955
 20
42.898755
 42
0.015002
  0
VERTEX
  8
0
 10
91.871397
 20
42.090770
 42
0.061391
  0
VERTEX
  8
0
 10
90.278552
 20
41.350518
 42
0.003537
  0
VERTEX
  8
0
 10
88.700585
 20
40.350752
 42
0.000661
  0
VERTEX
  8
0
 10
85.823261
 20
38.493699
 42
0.000708
  0
VERTEX
  8
0
 10
82.466260
 20
36.314011
 42
0.000647
  0
VERTEX
  8
0
 10
79.013402
 20
34.058757
 42
-0.008449
  0
VERTEX
  8
0
 10
74.003193
 20
30.896723
 42
-0.040856
  0
VERTEX
  8
0
 10
70.995976
 20
29.390201
 42
-0.059128
  0
VERTEX
  8
0
 10
68.327971
 20
28.667185
 42
-0.031259
  0
VERTEX
  8
0
 10
64.906123
 20
28.378990
 42
0.017231
  0
VERTEX
  8
0
 10
62.380024
 20
28.237420
 42
0.010642
  0
VERTEX
  8
0
 10
59.423283
 20
27.905697
 42
0.010669
  0
VERTEX
  8
0
 10
56.512201
 20
27.452781
 42
0.018804
  0
VERTEX
  8
0
 10
54.134005
 20
26.937707
 42
-0.014827
  0
VERTEX
  8
0
 10
51.777733
 20
26.407728
 42
-0.035551
  0
VERTEX
  8
0
 10
50.001254
 20
26.192587
 42
-0.049171
  0
VERTEX
  8
0
 10
48.717021
 20
26.255330
 42
-0.160948
  0
VERTEX
  8
0
 10
47.967455
 20
26.632545
 42
-0.152230
  0
VERTEX
  8
0
 10
47.203939
 20
28.087533
 42
-0.031715
  0
VERTEX
  8
0
 10
46.861222
 20
30.985694
 42
-0.033893
  0
VERTEX
  8
0
 10
46.903787
 20
34.147347
 42
-0.056900
  0
VERTEX
  8
0
 10
47.417565
 20
36.750000
 42
0.035962
  0
VERTEX
  8
0
 10
47.716404
 20
37.988934
 42
0.221424
  0
VERTEX
  8
0
 10
47.545285
 20
38.604784
 42
0.191766
  0
VERTEX
  8
0
 10
46.940958
 20
38.923274
 42
0.026530
  0
VERTEX
  8
0
 10
45.495959
 20
39.000000
 42
0.089371
  0
VERTEX
  8
0
 10
43.227336
 20
38.591235
 42
0.125581
  0
VERTEX
  8
0
 10
41.544527
 20
37.424104
 42
0.066689
  0
VERTEX
  8
0
 10
39.956901
 20
35.008102
 42
0.011461
  0
VERTEX
  8
0
 10
37.688693
 20
30.000000
 42
-0.013277
  0
VERTEX
  8
0
 10
36.466874
 20
27.328129
 42
-0.012570
  0
VERTEX
  8
0
 10
35.083636
 20
24.675000
 42
-0.012630
  0
VERTEX
  8
0
 10
33.741847
 20
22.390113
 42
-0.042372
  0
VERTEX
  8
0
 10
32.704813
 20
21.000000
 42
-0.086022
  0
VERTEX
  8
0
 10
30.083953
 20
18.908465
 42
-0.032732
  0
VERTEX
  8
0
 10
25.832146
 20
16.925049
 42
-0.032902
  0
VERTEX
  8
0
 10
21.196884
 20
15.464433
 42
-0.060326
  0
VERTEX
  8
0
 10
17.270324
 20
14.995054
 42
-0.049150
  0
VERTEX
  8
0
 10
15.459647
 20
15.176274
 42
-0.116512
  0
VERTEX
  8
0
 10
14.235970
 20
15.737405
 42
-0.088659
  0
VERTEX
  8
0
 10
13.196501
 20
16.894240
 42
-0.020856
  0
VERTEX
  8
0
 10
11.913885
 20
19.168799
 42
-0.026885
  0
VERTEX
  8
0
 10
10.881342
 20
21.493502
 42
-0.050425
  0
VERTEX
  8
0
 10
10.346311
 20
23.477030
 42
-0.049244
  0
VERTEX
  8
0
 10
10.212287
 20
25.558717
 42
-0.024447
  0
VERTEX
  8
0
 10
10.431805
 20
28.197450
 42
0.000000
  0
VERTEX
  8
0
 10
11.076487
 20
33.057301
 42
0.000000
  0
VERTEX
  8
0
 10
8.288243
 20
32.397412
 42
0.041959
  0
VERTEX
  8
0
 10
7.049954
 20
31.992187
 42
0.023818
  0
VERTEX
  8
0
 10
5.627472
 20
31.308979
 42
0.023644
  0
VERTEX
  8
0
 10
4.250297
 20
30.478462
 42
0.035727
  0
VERTEX
  8
0
 10
3.145704
 20
29.618761
 42
0.056864
  0
VERTEX
  8
0
 10
1.842285
 20
28.145775
 42
0.108055
  0
VERTEX
  8
0
 10
1.235271
 20
26.691927
 42
0.057632
  0
VERTEX
  8
0
 10
1.096126
 20
24.557826
 42
0.007501
  0
VERTEX
  8
0
 10
1.392942
 20
20.000000
 42
0.012238
  0
VERTEX
  8
0
 10
2.632258
 20
8.184635
 42
0.097089
  0
VERTEX
  8
0
 10
4.365995
 20
2.997322
 42
0.207453
  0
VERTEX
  8
0
 10
7.370648
 20
0.734115
 42
0.088425
  0
VERTEX
  8
0
 10
12.500000
 20
0.425606
 42
0.009844
  0
VERTEX
  8
0
 10
20.228337
 20
1.483222
 42
0.026689
  0
VERTEX
  8
0
 10
25.637287
 20
2.630765
 42
0.030189
  0
VERTEX
  8
0
 10
30.505502
 20
4.259083
 42
0.015942
  0
VERTEX
  8
0
 10
36.337384
 20
6.828712
 42
-0.018124
  0
VERTEX
  8
0
 10
44.207613
 20
10.255554
 42
-0.028250
  0
VERTEX
  8
0
 10
51.230737
 20
12.566847
 42
-0.029711
  0
VERTEX
  8
0
 10
58.201086
 20
13.994648
 42
-0.023220
  0
VERTEX
  8
0
 10
65.892670
 20
14.736933
 42
0.028485
  0
VERTEX
  8
0
 10
72.029347
 20
15.394402
 42
0.063936
  0
VERTEX
  8
0
 10
76.508457
 20
16.737772
 42
0.067274
  0
VERTEX
  8
0
 10
80.362971
 20
19.119199
 42
0.034517
  0
VERTEX
  8
0
 10
84.500000
 20
23.025940
 42
-0.053878
  0
VERTEX
  8
0
 10
86.292114
 20
24.591830
 42
-0.013328
  0
VERTEX
  8
0
 10
89.552835
 20
26.746031
 42
-0.013460
  0
VERTEX
  8
0
 10
93.445879
 20
29.028364
 42
-0.013010
  0
VERTEX
  8
0
 10
97.500000
 20
31.125183
 42
0.006408
  0
VERTEX
  8
0
 10
101.529588
 20
33.142342
 42
0.007109
  0
VERTEX
  8
0
 10
105.368081
 20
35.195426
 42
0.006642
  0
VERTEX
  8
0
 10
108.591396
 20
37.035205
 42
0.036259
  0
VERTEX
  8
0
 10
110.242402
 20
38.175468
 42
0.000000
  0
VERTEX
  8
0
 10
112.984805
 20
40.379157
 42
0.000000
  0
VERTEX
  8
0
 10
117.086903
 20
38.189578
 42
0.017148
  0
VERTEX
  8
0
 10
118.795679
 20
37.351453
 42
0.017777
  0
VERTEX
  8
0
 10
120.537701
 20
36.643189
 42
0.017781
  0
VERTEX
  8
0
 10
122.083964
 20
36.139249
 42
0.069987
  0
VERTEX
  8
0
 10
123.073906
 20
36.000000
 42
0.183952
  0
VERTEX
  8
0
 10
125.378396
 20
36.877525
 42
0.023111
  0
VERTEX
  8
0
 10
129.264780
 20
40.675448
 42
0.026960
  0
VERTEX
  8
0
 10
133.253844
 20
45.442412
 42
0.031207
  0
VERTEX
  8
0
 10
136.500000
 20
50.391821
 42
-0.022792
  0
VERTEX
  8
0
 10
138.060794
 20
52.861136
 42
-0.009957
  0
VERTEX
  8
0
 10
140.341967
 20
55.995356
 42
-0.009829
  0
VERTEX
  8
0
 10
142.900543
 20
59.233285
 42
-0.012942
  0
VERTEX
  8
0
 10
145.366272
 20
62.077326
 42
0.007934
  0
VERTEX
  8
0
 10
147.801159
 20
64.829609
 42
0.006894
  0
VERTEX
  8
0
 10
150.266229
 20
67.788339
 42
0.006950
  0
VERTEX
  8
0
 10
152.423348
 20
70.528270
 42
0.020196
  0
VERTEX
  8
0
 10
153.809233
 20
72.500000
 42
-0.008722
  0
VERTEX
  8
0
 10
154.956422
 20
74.214429
 42
-0.006574
  0
VERTEX
  8
0
 10
156.274391
 20
76.059375
 42
-0.006651
  0
VERTEX
  8
0
 10
157.559438
 20
77.761213
 42
-0.015233
  0
VERTEX
  8
0
 10
158.582932
 20
79.000000
 42
0.047441
  0
VERTEX
  8
0
 10
159.828935
 20
80.722745
 42
0.004141
  0
VERTEX
  8
0
 10
162.528807
 20
85.404681
 42
0.005409
  0
VERTEX
  8
0
 10
165.648605
 20
91.061809
 42
0.004179
  0
VERTEX
  8
0
 10
168.930535
 20
97.292532
 42
-0.001378
  0
VERTEX
  8
0
 10
172.194709
 20
103.574616
 42
-0.001722
  0
VERTEX
  8
0
 10
175.261377
 20
109.388202
 42
-0.001389
  0
VERTEX
  8
0
 10
177.865647
 20
114.251641
 42
-0.013286
  0
VERTEX
  8
0
 10
179.036826
 20
116.292532
 42
0.044411
  0
VERTEX
  8
0
 10
179.817021
 20
117.872090
 42
0.028815
  0
VERTEX
  8
0
 10
180.443488
 20
119.811729
 42
0.028248
  0
VERTEX
  8
0
 10
180.857257
 20
121.870776
 42
0.035255
  0
VERTEX
  8
0
 10
180.996262
 20
123.815741
 42
-0.023413
  0
VERTEX
  8
0
 10
181.082672
 20
125.626561
 42
-0.020690
  0
VERTEX
  8
0
 10
181.338591
 20
127.498449
 42
-0.021208
  0
VERTEX
  8
0
 10
181.710975
 20
129.166378
 42
-0.057395
  0
VERTEX
  8
0
 10
182.156389
 20
130.292216
 42
0.040705
  0
VERTEX
  8
0
 10
183.221833
 20
132.743379
 42
0.019795
  0
VERTEX
  8
0
 10
184.195695
 20
136.017832
 42
0.018612
  0
VERTEX
  8
0
 10
184.992782
 20
139.716227
 42
0.018074
  0
VERTEX
  8
0
 10
185.521800
 20
143.500000
 42
-0.057897
  0
VERTEX
  8
0
 10
186.499624
 20
147.905098
 42
-0.028176
  0
VERTEX
  8
0
 10
188.695725
 20
153.241065
 42
-0.023363
  0
VERTEX
  8
0
 10
191.270836
 20
158.028569
 42
-0.182810
  0
VERTEX
  8
0
 10
193.220681
 20
159.570041
 42
0.105561
  0
VERTEX
  8
0
 10
194.126616
 20
160.085951
 42
0.129216
  0
VERTEX
  8
0
 10
194.663631
 20
160.895380
 42
0.076503
  0
VERTEX
  8
0
 10
194.895965
 20
162.201388
 42
0.018768
  0
VERTEX
  8
0
 10
194.864919
 20
164.389816
 42
-0.020704
  0
VERTEX
  8
0
 10
194.847129
 20
166.114301
 42
-0.022004
  0
VERTEX
  8
0
 10
194.973898
 20
167.799410
 42
-0.022265
  0
VERTEX
  8
0
 10
195.210346
 20
169.231688
 42
-0.087426
  0
VERTEX
  8
0
 10
195.543276
 20
170.059130
 42
0.143678
  0
VERTEX
  8
0
 10
196.448296
 20
173.309653
 42
0.004936
  0
VERTEX
  8
0
 10
196.131902
 20
186.640860
 42
0.006033
  0
VERTEX
  8
0
 10
195.532828
 20
199.750128
 42
0.106183
  0
VERTEX
  8
0
 10
194.408314
 20
203.824294
 42
-0.030698
  0
VERTEX
  8
0
 10
193.873209
 20
205.024145
 42
-0.022135
  0
VERTEX
  8
0
 10
193.420584
 20
206.418590
 42
-0.022476
  0
VERTEX
  8
0
 10
193.107657
 20
207.788006
 42
-0.044314
  0
VERTEX
  8
0
 10
193.006161
 20
208.898566
 42
0.115844
  0
VERTEX
  8
0
 10
192.038413
 20
212.972416
 42
0.018449
  0
VERTEX
  8
0
 10
188.074329
 20
220.215173
 42
0.021542
  0
VERTEX
  8
0
 10
183.330288
 20
227.444266
 42
0.047258
  0
VERTEX
  8
0
 10
178.980072
 20
232.421527
 42
0.013600
  0
VERTEX
  8
0
 10
175.222861
 20
235.789886
 42
0.013615
  0
VERTEX
  8
0
 10
171.289477
 20
238.947666
 42
0.008621
  0
VERTEX
  8
0
 10
167.702655
 20
241.573787
 42
0.154907
  0
VERTEX
  8
0
 10
166.359961
 20
242.000000
 42
-0.122886
  0
VERTEX
  8
0
 10
166.022601
 20
242.084185
 42
-0.009237
  0
VERTEX
  8
0
 10
165.190941
 20
242.546726
 42
-0.012323
  0
VERTEX
  8
0
 10
164.211263
 20
243.148294
 42
-0.009048
  0
VERTEX
  8
0
 10
163.154370
 20
243.861194
 42
0.057445
  0
VERTEX
  8
0
 10
158.768257
 20
246.238887
 42
0.054099
  0
VERTEX
  8
0
 10
153.867022
 20
247.615932
 42
0.033364
  0
VERTEX
  8
0
 10
146.998189
 20
248.298874
 42
0.007936
  0
VERTEX
  8
0
 10
135.500000
 20
248.488897
 42
0.002695
  0
VERTEX
  8
0
 10
127.830304
 20
248.452564
 42
0.001654
  0
VERTEX
  8
0
 10
118.793750
 20
248.331140
 42
0.001658
  0
VERTEX
  8
0
 10
109.852214
 20
248.151733
 42
0.002960
  0
SEQEND
  0
POLYLINE
  8
0
 66
1
 70
1
  0
VERTEX
  8
0
 10
40.083463
 20
213.250000
 42
-0.002163
  0
VERTEX
  8
0
 10
39.219986
 20
212.108570
 42
-0.002045
  0
VERTEX
  8
0
 10
38.330443
 20
210.953023
 42
-0.002030
  0
VERTEX
  8
0
 10
37.534565
 20
209.936401
 42
-0.007153
  0
VERTEX
  8
0
 10
37.010883
 20
209.292206
 42
0.119187
  0
VERTEX
  8
0
 10
36.151005
 20
207.555007
 42
0.105163
  0
VERTEX
  8
0
 10
36.125067
 20
205.530506
 42
0.095779
  0
VERTEX
  8
0
 10
36.947602
 20
203.516427
 42
0.081576
  0
VERTEX
  8
0
 10
38.500000
 20
201.821340
 42
-0.022379
  0
VERTEX
  8
0
 10
39.457137
 20
200.996543
 42
-0.027828
  0
VERTEX
  8
0
 10
40.265625
 20
200.144437
 42
-0.028122
  0
VERTEX
  8
0
 10
40.847743
 20
199.374337
 42
-0.148844
  0
VERTEX
  8
0
 10
41.000000
 20
198.874203
 42
0.147458
  0
VERTEX
  8
0
 10
41.699701
 20
196.553243
 42
0.008838
  0
VERTEX
  8
0
 10
45.888819
 20
190.472986
 42
0.009194
  0
VERTEX
  8
0
 10
50.281392
 20
184.565251
 42
0.137429
  0
VERTEX
  8
0
 10
52.323531
 20
183.045054
 42
0.084047
  0
VERTEX
  8
0
 10
54.364524
 20
182.633301
 42
0.274712
  0
VERTEX
  8
0
 10
55.522510
 20
183.273191
 42
0.201136
  0
VERTEX
  8
0
 10
55.731095
 20
184.834675
 42
0.051338
  0
VERTEX
  8
0
 10
54.796412
 20
187.267812
 42
-0.034525
  0
VERTEX
  8
0
 10
54.136492
 20
188.827232
 42
-0.017364
  0
VERTEX
  8
0
 10
53.511490
 20
190.872420
 42
-0.017155
  0
VERTEX
  8
0
 10
53.009363
 20
193.040850
 42
-0.024328
  0
VERTEX
  8
0
 10
52.724081
 20
195.000000
 42
0.028833
  0
VERTEX
  8
0
 10
52.404948
 20
197.061283
 42
0.015540
  0
VERTEX
  8
0
 10
51.787956
 20
199.557321
 42
0.015430
  0
VERTEX
  8
0
 10
50.999012
 20
202.069747
 42
0.023380
  0
VERTEX
  8
0
 10
50.145481
 20
204.195136
 42
-0.016858
  0
VERTEX
  8
0
 10
49.324232
 20
206.165464
 42
-0.016447
  0
VERTEX
  8
0
 10
48.630235
 20
208.202817
 42
-0.016587
  0
VERTEX
  8
0
 10
48.139811
 20
210.029830
 42
-0.057332
  0
VERTEX
  8
0
 10
48.000000
 20
211.245136
 42
0.123547
  0
VERTEX
  8
0
 10
47.249668
 20
214.235422
 42
0.210809
  0
VERTEX
  8
0
 10
45.255934
 20
215.794200
 42
0.191519
  0
VERTEX
  8
0
 10
42.595627
 20
215.445260
 42
0.105035
  0
SEQEND
  0
POLYLINE
  8
0
 66
1
 70
1
  0
VERTEX
  8
0
 10
197.710251
 20
153.000000
 42
0.038887
  0
VERTEX
  8
0
 10
197.975456
 20
152.234516
 42
0.050447
  0
VERTEX
  8
0
 10
198.339118
 20
151.587500
 42
0.059916
  0
VERTEX
  8
0
 10
198.740524
 20
151.141258
 42
0.181596
  0
VERTEX
  8
0
 10
199.116631
 20
151.000000
 42
0.092479
  0
VERTEX
  8
0
 10
199.708231
 20
151.110365
 42
0.278948
  0
VERTEX
  8
0
 10
199.948950
 20
151.421900
 42
0.108904
  0
VERTEX
  8
0
 10
199.884706
 20
152.042483
 42
0.011575
  0
VERTEX
  8
0
 10
199.393011
 20
153.418213
 42
0.062823
  0
VERTEX
  8
0
 10
198.712793
 20
154.687713
 42
0.308520
  0
VERTEX
  8
0
 10
197.989637
 20
154.955723
 42
0.341547
  0
VERTEX
  8
0
 10
197.539518
 20
154.386353
 42
0.066720
  0
SEQEND
  0
POLYLINE
  8
0
 66
1
 70
1
  0
VERTEX
  8
0
 10
271.072268
 20
69.547312
 42
-0.008758
  0
VERTEX
  8
0
 10
268.516344
 20
67.805479
 42
-0.012023
  0
VERTEX
  8
0
 10
266.154488
 20
66.335773
 42
-0.008818
  0
VERTEX
  8
0
 10
264.149548
 20
65.201222
 42
-0.124974
  0
VERTEX
  8
0
 10
263.357064
 20
65.000000
 42
0.124149
  0
VERTEX
  8
0
 10
262.653764
 20
64.822638
 42
0.019406
  0
VERTEX
  8
0
 10
261.410935
 20
64.089632
 42
0.020575
  0
VERTEX
  8
0
 10
259.985673
 20
63.087475
 42
0.016642
  0
VERTEX
  8
0
 10
258.539883
 20
61.900874
 42
-0.079631
  0
VERTEX
  8
0
 10
252.538791
 20
58.125051
 42
-0.015349
  0
VERTEX
  8
0
 10
240.540514
 20
53.443951
 42
-0.014638
  0
VERTEX
  8
0
 10
225.032620
 20
48.441850
 42
-0.008985
  0
VERTEX
  8
0
 10
206.500000
 20
43.416925
 42
-0.013580
  0
VERTEX
  8
0
 10
199.495601
 20
41.853204
 42
-0.025230
  0
VERTEX
  8
0
 10
193.734372
 20
41.029335
 42
-0.016595
  0
VERTEX
  8
0
 10
186.523712
 20
40.607741
 42
-0.003004
  0
VERTEX
  8
0
 10
173.108889
 20
40.350073
 42
0.002174
  0
VERTEX
  8
0
 10
160.532928
 20
40.129410
 42
0.014872
  0
VERTEX
  8
0
 10
154.344762
 20
39.809598
 42
0.028512
  0
VERTEX
  8
0
 10
150.713502
 20
39.303852
 42
0.135870
  0
VERTEX
  8
0
 10
148.858889
 20
38.372297
 42
0.087335
  0
VERTEX
  8
0
 10
147.525370
 20
36.657636
 42
0.127268
  0
VERTEX
  8
0
 10
147.084315
 20
34.804043
 42
0.126324
  0
VERTEX
  8
0
 10
147.596700
 20
32.959053
 42
0.085329
  0
VERTEX
  8
0
 10
148.997924
 20
31.269749
 42
0.133615
  0
VERTEX
  8
0
 10
154.516259
 20
28.655354
 42
0.027760
  0
VERTEX
  8
0
 10
165.263569
 20
27.345516
 42
0.027746
  0
VERTEX
  8
0
 10
178.121258
 20
27.213147
 42
0.024970
  0
VERTEX
  8
0
 10
191.380671
 20
28.478097
 42
0.000654
  0
VERTEX
  8
0
 10
205.913924
 20
30.620326
 42
0.005560
  0
VERTEX
  8
0
 10
212.425389
 20
31.662962
 42
0.008243
  0
VERTEX
  8
0
 10
216.226247
 20
32.379688
 42
0.112409
  0
VERTEX
  8
0
 10
217.500000
 20
32.958846
 42
-0.079745
  0
VERTEX
  8
0
 10
219.597562
 20
34.081623
 42
-0.007171
  0
VERTEX
  8
0
 10
225.278443
 20
35.951443
 42
-0.007760
  0
VERTEX
  8
0
 10
230.986095
 20
37.642956
 42
-0.068254
  0
VERTEX
  8
0
 10
233.589462
 20
38.000000
 42
0.067056
  0
VERTEX
  8
0
 10
234.843477
 20
38.168938
 42
0.011151
  0
VERTEX
  8
0
 10
237.180853
 20
38.866758
 42
0.012059
  0
VERTEX
  8
0
 10
239.908433
 20
39.821001
 42
0.010418
  0
VERTEX
  8
0
 10
242.724540
 20
40.950664
 42
-0.015842
  0
VERTEX
  8
0
 10
245.812138
 20
42.150524
 42
-0.011050
  0
VERTEX
  8
0
 10
249.363615
 20
43.315106
 42
-0.011160
  0
VERTEX
  8
0
 10
252.822373
 20
44.281469
 42
-0.022618
  0
VERTEX
  8
0
 10
255.588599
 20
44.856343
 42
0.027226
  0
VERTEX
  8
0
 10
258.553482
 20
45.501045
 42
0.028777
  0
VERTEX
  8
0
 10
261.375031
 20
46.455181
 42
0.028176
  0
VERTEX
  8
0
 10
264.120965
 20
47.747790
 42
0.024015
  0
VERTEX
  8
0
 10
266.859839
 20
49.405679
 42
-0.010101
  0
VERTEX
  8
0
 10
268.997409
 20
50.782254
 42
-0.013332
  0
VERTEX
  8
0
 10
271.002133
 20
51.944168
 42
-0.010744
  0
VERTEX
  8
0
 10
272.705881
 20
52.824943
 42
-0.114405
  0
VERTEX
  8
0
 10
273.460942
 20
53.000000
 42
0.100230
  0
VERTEX
  8
0
 10
274.159814
 20
53.141518
 42
0.016644
  0
VERTEX
  8
0
 10
275.411996
 20
53.720153
 42
0.017685
  0
VERTEX
  8
0
 10
276.858013
 20
54.512977
 42
0.014837
  0
VERTEX
  8
0
 10
278.333516
 20
55.451583
 42
-0.038413
  0
VERTEX
  8
0
 10
280.392582
 20
56.629004
 42
-0.042885
  0
VERTEX
  8
0
 10
282.534439
 20
57.427724
 42
-0.036922
  0
VERTEX
  8
0
 10
285.037666
 20
57.928402
 42
-0.019025
  0
VERTEX
  8
0
 10
288.223063
 20
58.201583
 42
0.007321
  0
VERTEX
  8
0
 10
292.280945
 20
58.454093
 42
0.098173
  0
VERTEX
  8
0
 10
293.710518
 20
58.853599
 42
0.207158
  0
VERTEX
  8
0
 10
294.409931
 20
59.694095
 42
0.051039
  0
VERTEX
  8
0
 10
294.745103
 20
61.500000
 42
0.039997
  0
VERTEX
  8
0
 10
294.747077
 20
62.758683
 42
0.035086
  0
VERTEX
  8
0
 10
294.552458
 20
64.059375
 42
0.036727
  0
VERTEX
  8
0
 10
294.205831
 20
65.212145
 42
0.082008
  0
VERTEX
  8
0
 10
293.745103
 20
66.000000
 42
0.051498
  0
VERTEX
  8
0
 10
291.179220
 20
68.513490
 42
0.031309
  0
VERTEX
  8
0
 10
287.694562
 20
70.946810
 42
0.031389
  0
VERTEX
  8
0
 10
284.082923
 20
72.846505
 42
0.075575
  0
VERTEX
  8
0
 10
281.179582
 20
73.651914
 42
0.054800
  0
VERTEX
  8
0
 10
278.964266
 20
73.674618
 42
0.071751
  0
VERTEX
  8
0
 10
277.001267
 20
73.189037
 42
0.046565
  0
VERTEX
  8
0
 10
274.688131
 20
71.988264
 42
0.010957
  0
SEQEND
  0
ENDSEC
  0
EOF
