  0
SECTION
  2
HEADER
  9
$ACADVER
  1
AC1006
  9
$EXTMIN
 10
0.000000
 20
0.000000
 30
0.000000
  9
$EXTMAX
 10
209.000000
 20
125.000000
 30
0.000000
  0
ENDSEC
  0
SECTION
  2
ENTITIES
  0
POLYLINE
  8
0
 66
1
 70
1
  0
VERTEX
  8
0
 10
106.890507
 20
121.981172
 42
0.007208
  0
VERTEX
  8
0
 10
104.221438
 20
121.217379
 42
0.008001
  0
VERTEX
  8
0
 10
101.667216
 20
120.401632
 42
0.007492
  0
VERTEX
  8
0
 10
99.512740
 20
119.639227
 42
0.040665
  0
VERTEX
  8
0
 10
98.390507
 20
119.115845
 42
-0.018831
  0
VERTEX
  8
0
 10
92.413197
 20
116.003870
 42
-0.001597
  0
VERTEX
  8
0
 10
76.721279
 20
108.632401
 42
-0.001885
  0
VERTEX
  8
0
 10
61.122719
 20
101.436963
 42
-0.013581
  0
VERTEX
  8
0
 10
53.500000
 20
98.202710
 42
-0.000459
  0
VERTEX
  8
0
 10
37.003073
 20
91.743495
 42
-0.002631
  0
VERTEX
  8
0
 10
28.237476
 20
88.373731
 42
-0.001896
  0
VERTEX
  8
0
 10
22.478673
 20
86.219513
 42
-0.088774
  0
VERTEX
  8
0
 10
21.252053
 20
86.000000
 42
0.084480
  0
VERTEX
  8
0
 10
20.596955
 20
85.888518
 42
0.007389
  0
VERTEX
  8
0
 10
19.008675
 20
85.305331
 42
0.009530
  0
VERTEX
  8
0
 10
17.126112
 20
84.540864
 42
0.007268
  0
VERTEX
  8
0
 10
15.094349
 20
83.635169
 42
0.055632
  0
VERTEX
  8
0
 10
10.609585
 20
80.916206
 42
0.043056
  0
VERTEX
  8
0
 10
6.396008
 20
77.051622
 42
0.044618
  0
VERTEX
  8
0
 10
3.150392
 20
72.811674
 42
0.096407
  0
VERTEX
  8
0
 10
1.663472
 20
69.000000
 42
0.000000
  0
VERTEX
  8
0
 10
1.027596
 20
65.500000
 42
0.000000
  0
VERTEX
  8
0
 10
12.370169
 20
59.689343
 42
0.005868
  0
VERTEX
  8
0
 10
18.902905
 20
56.438916
 42
0.030803
  0
VERTEX
  8
0
 10
22.613338
 20
54.920783
 42
0.052574
  0
VERTEX
  8
0
 10
25.491486
 20
54.271931
 42
0.045079
  0
VERTEX
  8
0
 10
28.597377
 20
54.189343
 42
0.016810
  0
VERTEX
  8
0
 10
31.013761
 20
54.424788
 42
0.061436
  0
VERTEX
  8
0
 10
32.501239
 20
54.810099
 42
0.108644
  0
VERTEX
  8
0
 10
33.377642
 20
55.400232
 42
0.144512
  0
VERTEX
  8
0
 10
33.814330
 20
56.250000
 42
0.108216
  0
VERTEX
  8
0
 10
33.790266
 20
57.111294
 42
0.208466
  0
VERTEX
  8
0
 10
33.377886
 20
57.648639
 42
0.106875
  0
VERTEX
  8
0
 10
32.446938
 20
57.928717
 42
0.019827
  0
VERTEX
  8
0
 10
30.650049
 20
58.000000
 42
-0.097246
  0
VERTEX
  8
0
 10
27.537823
 20
58.611080
 42
-0.061529
  0
VERTEX
  8
0
 10
24.300657
 20
60.424652
 42
-0.064399
  0
VERTEX
  8
0
 10
21.808238
 20
62.803987
 42
-0.171653
  0
VERTEX
  8
0
 10
21.000000
 20
65.088894
 42
-0.044548
  0
VERTEX
  8
0
 10
21.065308
 20
65.820451
 42
-0.064390
  0
VERTEX
  8
0
 10
21.261058
 20
66.438613
 42
-0.084263
  0
VERTEX
  8
0
 10
21.549082
 20
66.856556
 42
-0.202518
  0
VERTEX
  8
0
 10
21.888709
 20
67.000000
 42
0.257095
  0
VERTEX
  8
0
 10
22.273334
 20
67.211768
 42
0.037229
  0
VERTEX
  8
0
 10
22.709610
 20
68.030110
 42
0.034488
  0
VERTEX
  8
0
 10
23.118652
 20
69.163263
 42
0.023011
  0
VERTEX
  8
0
 10
23.435290
 20
70.506758
 42
-0.051048
  0
VERTEX
  8
0
 10
24.013842
 20
72.463704
 42
-0.093985
  0
VERTEX
  8
0
 10
24.916332
 20
73.850620
 42
-0.068367
  0
VERTEX
  8
0
 10
26.465505
 20
75.077898
 42
-0.017241
  0
VERTEX
  8
0
 10
29.296581
 20
76.620759
 42
0.006936
  0
VERTEX
  8
0
 10
31.398687
 20
77.710785
 42
0.007534
  0
VERTEX
  8
0
 10
33.412121
 20
78.829912
 42
0.007141
  0
VERTEX
  8
0
 10
35.107321
 20
79.838378
 42
0.036167
  0
VERTEX
  8
0
 10
36.000000
 20
80.480049
 42
-0.088072
  0
VERTEX
  8
0
 10
36.911999
 20
81.002046
 42
-0.019911
  0
VERTEX
  8
0
 10
38.621736
 20
81.539081
 42
-0.020033
  0
VERTEX
  8
0
 10
40.672500
 20
82.007303
 42
-0.018254
  0
VERTEX
  8
0
 10
42.818677
 20
82.327068
 42
0.019736
  0
VERTEX
  8
0
 10
45.088113
 20
82.672075
 42
0.015623
  0
VERTEX
  8
0
 10
47.509507
 20
83.217561
 42
0.015896
  0
VERTEX
  8
0
 10
49.726845
 20
83.866251
 42
0.037479
  0
VERTEX
  8
0
 10
51.318677
 20
84.523044
 42
-0.011595
  0
VERTEX
  8
0
 10
53.028609
 20
85.334442
 42
-0.003153
  0
VERTEX
  8
0
 10
55.768611
 20
86.536956
 42
-0.003188
  0
VERTEX
  8
0
 10
58.895279
 20
87.862140
 42
-0.003309
  0
VERTEX
  8
0
 10
62.000000
 20
89.130692
 42
0.001457
  0
VERTEX
  8
0
 10
65.128110
 20
90.395296
 42
0.001355
  0
VERTEX
  8
0
 10
68.325000
 20
91.708671
 42
0.001350
  0
VERTEX
  8
0
 10
71.160711
 20
92.891637
 42
0.004588
  0
VERTEX
  8
0
 10
73.000000
 20
93.684702
 42
-0.016088
  0
VERTEX
  8
0
 10
74.847436
 20
94.431380
 42
-0.004839
  0
VERTEX
  8
0
 10
77.703267
 20
95.448807
 42
-0.004845
  0
VERTEX
  8
0
 10
80.931279
 20
96.528848
 42
-0.005242
  0
VERTEX
  8
0
 10
84.096228
 20
97.517264
 42
0.008499
  0
VERTEX
  8
0
 10
87.290751
 20
98.537802
 42
0.007353
  0
VERTEX
  8
0
 10
90.607797
 20
99.714600
 42
0.007418
  0
VERTEX
  8
0
 10
93.582279
 20
100.869874
 42
0.021338
  0
VERTEX
  8
0
 10
95.596228
 20
101.788564
 42
-0.043910
  0
VERTEX
  8
0
 10
105.056451
 20
105.598642
 42
-0.050402
  0
VERTEX
  8
0
 10
114.609915
 20
107.479483
 42
-0.048810
  0
VERTEX
  8
0
 10
124.602910
 20
107.440782
 42
-0.037248
  0
VERTEX
  8
0
 10
135.378225
 20
105.525874
 42
0.010180
  0
VERTEX
  8
0
 10
139.508279
 20
104.558949
 42
0.009647
  0
VERTEX
  8
0
 10
143.748873
 20
103.741975
 42
0.009644
  0
VERTEX
  8
0
 10
147.527453
 20
103.164158
 42
0.033126
  0
VERTEX
  8
0
 10
150.002498
 20
103.000000
 42
-0.024402
  0
VERTEX
  8
0
 10
152.113508
 20
102.896911
 42
-0.015787
  0
VERTEX
  8
0
 10
154.539770
 20
102.581776
 42
-0.015877
  0
VERTEX
  8
0
 10
156.896692
 20
102.122418
 42
-0.028745
  0
VERTEX
  8
0
 10
158.783864
 20
101.576257
 42
0.012106
  0
VERTEX
  8
0
 10
160.361674
 20
101.062174
 42
0.018236
  0
VERTEX
  8
0
 10
161.761418
 20
100.698350
 42
0.013349
  0
VERTEX
  8
0
 10
162.908876
 20
100.476326
 42
0.242024
  0
VERTEX
  8
0
 10
163.253601
 20
100.586935
 42
-0.249904
  0
VERTEX
  8
0
 10
163.603619
 20
100.693531
 42
-0.011629
  0
VERTEX
  8
0
 10
164.854670
 20
100.417168
 42
-0.016931
  0
VERTEX
  8
0
 10
166.374068
 20
99.989247
 42
-0.011108
  0
VERTEX
  8
0
 10
168.094011
 20
99.398970
 42
0.034406
  0
VERTEX
  8
0
 10
170.209475
 20
98.781414
 42
0.016927
  0
VERTEX
  8
0
 10
172.968241
 20
98.275421
 42
0.016709
  0
VERTEX
  8
0
 10
175.880673
 20
97.941571
 42
0.023341
  0
VERTEX
  8
0
 10
178.500000
 20
97.852366
 42
-0.017792
  0
VERTEX
  8
0
 10
181.206228
 20
97.790245
 42
-0.029561
  0
VERTEX
  8
0
 10
183.471648
 20
97.522514
 42
-0.035597
  0
VERTEX
  8
0
 10
185.265587
 20
97.068447
 42
-0.081867
  0
VERTEX
  8
0
 10
186.495470
 20
96.424340
 42
-0.032674
  0
VERTEX
  8
0
 10
187.649179
 20
95.430418
 42
-0.187249
  0
VERTEX
  8
0
 10
187.975432
 20
94.707874
 42
-0.131258
  0
VERTEX
  8
0
 10
187.786980
 20
93.810997
 42
-0.013224
  0
VERTEX
  8
0
 10
186.741169
 20
91.871733
 42
0.024930
  0
VERTEX
  8
0
 10
186.112458
 20
90.637617
 42
0.032572
  0
VERTEX
  8
0
 10
185.670868
 20
89.450775
 42
0.034179
  0
VERTEX
  8
0
 10
185.445031
 20
88.453735
 42
0.178870
  0
VERTEX
  8
0
 10
185.554716
 20
87.911467
 42
0.249434
  0
VERTEX
  8
0
 10
187.185533
 20
86.959597
 42
0.021829
  0
VERTEX
  8
0
 10
192.136810
 20
86.980449
 42
0.023705
  0
VERTEX
  8
0
 10
197.072992
 20
87.452111
 42
0.185952
  0
VERTEX
  8
0
 10
199.047949
 20
88.557775
 42
-0.056884
  0
VERTEX
  8
0
 10
199.772039
 20
89.252115
 42
-0.020731
  0
VERTEX
  8
0
 10
200.939088
 20
90.066618
 42
-0.020241
  0
VERTEX
  8
0
 10
202.300839
 20
90.859731
 42
-0.022789
  0
VERTEX
  8
0
 10
203.670394
 20
91.506748
 42
0.034316
  0
VERTEX
  8
0
 10
205.566340
 20
92.456466
 42
0.128501
  0
VERTEX
  8
0
 10
206.497418
 20
93.393506
 42
0.105740
  0
VERTEX
  8
0
 10
206.946951
 20
94.768836
 42
0.019440
  0
VERTEX
  8
0
 10
207.125000
 20
97.448973
 42
-0.000137
  0
VERTEX
  8
0
 10
207.175879
 20
99.283036
 42
-0.000159
  0
VERTEX
  8
0
 10
207.225385
 20
101.030323
 42
-0.000142
  0
VERTEX
  8
0
 10
207.268208
 20
102.510314
 42
-0.000936
  0
VERTEX
  8
0
 10
207.291206
 20
103.250000
 42
0.088092
  0
VERTEX
  8
0
 10
207.030162
 20
105.065894
 42
0.037627
  0
VERTEX
  8
0
 10
206.085608
 20
107.339649
 42
0.037557
  0
VERTEX
  8
0
 10
204.777078
 20
109.502831
 42
0.068678
  0
VERTEX
  8
0
 10
203.364763
 20
111.000000
 42
0.044037
  0
VERTEX
  8
0
 10
199.551404
 20
113.549919
 42
0.074850
  0
VERTEX
  8
0
 10
195.956983
 20
114.869961
 42
0.029178
  0
VERTEX
  8
0
 10
190.299346
 20
115.691475
 42
0.001958
  0
VERTEX
  8
0
 10
174.000000
 20
117.030073
 42
-0.000824
  0
VERTEX
  8
0
 10
155.829496
 20
118.480848
 42
-0.009869
  0
VERTEX
  8
0
 10
148.828887
 20
119.190732
 42
-0.026232
  0
VERTEX
  8
0
 10
144.908798
 20
119.876757
 42
-0.066522
  0
VERTEX
  8
0
 10
142.206811
 20
120.889318
 42
0.079723
  0
VERTEX
  8
0
 10
140.926066
 20
121.331282
 42
0.009251
  0
VERTEX
  8
0
 10
137.917429
 20
121.800403
 42
0.010933
  0
VERTEX
  8
0
 10
134.292251
 20
122.216627
 42
0.008727
  0
VERTEX
  8
0
 10
130.369098
 20
122.511400
 42
-0.001300
  0
VERTEX
  8
0
 10
126.334045
 20
122.754367
 42
-0.001371
  0
VERTEX
  8
0
 10
122.370923
 20
123.014253
 42
-0.001309
  0
VERTEX
  8
0
 10
118.954844
 20
123.256658
 42
-0.006198
  0
VERTEX
  8
0
 10
117.000000
 20
123.424906
 42
0.045253
  0
VERTEX
  8
0
 10
115.210508
 20
123.438879
 42
0.014805
  0
VERTEX
  8
0
 10
112.586586
 20
123.143119
 42
0.014616
  0
VERTEX
  8
0
 10
109.677750
 20
122.640564
 42
0.015999
  0
SEQEND
  0
POLYLINE
  8
0
 66
1
 70
1
  0
VERTEX
  8
0
 10
153.441130
 20
83.531803
 42
-0.036864
  0
VERTEX
  8
0
 10
152.568040
 20
82.967408
 42
-0.029037
  0
VERTEX
  8
0
 10
151.550091
 20
82.485547
 42
-0.029835
  0
VERTEX
  8
0
 10
150.546643
 20
82.148103
 42
-0.061777
  0
VERTEX
  8
0
 10
149.729392
 20
82.031803
 42
0.153631
  0
VERTEX
  8
0
 10
148.844162
 20
81.735657
 42
0.030065
  0
VERTEX
  8
0
 10
147.530267
 20
80.656038
 42
0.029356
  0
VERTEX
  8
0
 10
146.095629
 20
79.159130
 42
0.023525
  0
VERTEX
  8
0
 10
144.729392
 20
77.393008
 42
0.000000
  0
VERTEX
  8
0
 10
141.500000
 20
72.786016
 42
0.000000
  0
VERTEX
  8
0
 10
134.000000
 20
73.578373
 42
0.023687
  0
VERTEX
  8
0
 10
123.009581
 20
74.215348
 42
0.004758
  0
VERTEX
  8
0
 10
103.401546
 20
74.235182
 42
0.003883
  0
VERTEX
  8
0
 10
83.709807
 20
73.914765
 42
0.038617
  0
VERTEX
  8
0
 10
75.500000
 20
73.080823
 42
0.006603
  0
VERTEX
  8
0
 10
67.337070
 20
71.497096
 42
0.008682
  0
VERTEX
  8
0
 10
59.935484
 20
69.824831
 42
0.007630
  0
VERTEX
  8
0
 10
53.863152
 20
68.243054
 42
0.059479
  0
VERTEX
  8
0
 10
51.161526
 20
67.135995
 42
0.043245
  0
VERTEX
  8
0
 10
47.994972
 20
64.996688
 42
0.024856
  0
VERTEX
  8
0
 10
44.561526
 20
61.922209
 42
0.019518
  0
VERTEX
  8
0
 10
41.636544
 20
58.793568
 42
0.180095
  0
VERTEX
  8
0
 10
41.000000
 20
57.083638
 42
0.226666
  0
VERTEX
  8
0
 10
42.229803
 20
54.510203
 42
0.132651
  0
VERTEX
  8
0
 10
45.419947
 20
53.102999
 42
0.092100
  0
VERTEX
  8
0
 10
49.962658
 20
53.248450
 42
0.066296
  0
VERTEX
  8
0
 10
54.742985
 20
54.983054
 42
-0.045157
  0
VERTEX
  8
0
 10
61.547704
 20
57.782023
 42
-0.034448
  0
VERTEX
  8
0
 10
69.391882
 20
59.627876
 42
-0.027467
  0
VERTEX
  8
0
 10
79.024646
 20
60.665662
 42
-0.013325
  0
VERTEX
  8
0
 10
91.409963
 20
60.984687
 42
-0.004944
  0
VERTEX
  8
0
 10
98.062577
 20
60.912940
 42
-0.007285
  0
VERTEX
  8
0
 10
103.901419
 20
60.707082
 42
-0.003788
  0
VERTEX
  8
0
 10
108.818254
 20
60.424606
 42
-0.125454
  0
VERTEX
  8
0
 10
109.935295
 20
60.061152
 42
-0.103944
  0
VERTEX
  8
0
 10
110.615486
 20
59.399852
 42
-0.143344
  0
VERTEX
  8
0
 10
110.871971
 20
58.592453
 42
-0.072921
  0
VERTEX
  8
0
 10
110.721668
 20
57.374122
 42
-0.012611
  0
VERTEX
  8
0
 10
110.047603
 20
55.144240
 42
0.059550
  0
VERTEX
  8
0
 10
109.187079
 20
50.895088
 42
0.055406
  0
VERTEX
  8
0
 10
109.319631
 20
46.454944
 42
0.056875
  0
VERTEX
  8
0
 10
110.407352
 20
42.268001
 42
0.071071
  0
VERTEX
  8
0
 10
112.364687
 20
38.766291
 42
-0.043940
  0
VERTEX
  8
0
 10
114.276698
 20
35.742047
 42
-0.129486
  0
VERTEX
  8
0
 10
114.805479
 20
33.359699
 42
-0.095306
  0
VERTEX
  8
0
 10
114.161765
 20
30.600025
 42
-0.017626
  0
VERTEX
  8
0
 10
111.860675
 20
25.889977
 42
-0.014207
  0
VERTEX
  8
0
 10
110.226351
 20
23.022987
 42
-0.047109
  0
VERTEX
  8
0
 10
108.929832
 20
21.284045
 42
-0.077251
  0
VERTEX
  8
0
 10
107.751446
 20
20.327645
 42
-0.132668
  0
VERTEX
  8
0
 10
106.538345
 20
20.000000
 42
-0.055130
  0
VERTEX
  8
0
 10
105.137484
 20
20.154929
 42
-0.004370
  0
VERTEX
  8
0
 10
101.492845
 20
21.004591
 42
-0.005887
  0
VERTEX
  8
0
 10
97.155232
 20
22.110089
 42
-0.004476
  0
VERTEX
  8
0
 10
92.427670
 20
23.419885
 42
0.008409
  0
VERTEX
  8
0
 10
87.239034
 20
24.813571
 42
0.006384
  0
VERTEX
  8
0
 10
81.506878
 20
26.172807
 42
0.006458
  0
VERTEX
  8
0
 10
76.094875
 20
27.310170
 42
0.014956
  0
VERTEX
  8
0
 10
72.000000
 20
27.989142
 42
-0.014175
  0
VERTEX
  8
0
 10
65.111552
 20
29.120260
 42
-0.028819
  0
VERTEX
  8
0
 10
59.795170
 20
30.470518
 42
-0.025290
  0
VERTEX
  8
0
 10
54.248992
 20
32.538592
 42
-0.008606
  0
VERTEX
  8
0
 10
46.411817
 20
36.082688
 42
0.010371
  0
VERTEX
  8
0
 10
41.443107
 20
38.308526
 42
0.031674
  0
VERTEX
  8
0
 10
37.958060
 20
39.529940
 42
0.039606
  0
VERTEX
  8
0
 10
34.796219
 20
40.153113
 42
0.024973
  0
VERTEX
  8
0
 10
31.039644
 20
40.399491
 42
0.008059
  0
VERTEX
  8
0
 10
26.983534
 20
40.397212
 42
0.082885
  0
VERTEX
  8
0
 10
25.341140
 20
40.094831
 42
0.164917
  0
VERTEX
  8
0
 10
24.376442
 20
39.323684
 42
0.056672
  0
VERTEX
  8
0
 10
23.578045
 20
37.697231
 42
0.033686
  0
VERTEX
  8
0
 10
23.195527
 20
36.345420
 42
0.055441
  0
VERTEX
  8
0
 10
23.079823
 20
35.164215
 42
0.064644
  0
VERTEX
  8
0
 10
23.228713
 20
34.124489
 42
0.071889
  0
VERTEX
  8
0
 10
23.637113
 20
33.197231
 42
0.117830
  0
VERTEX
  8
0
 10
25.670682
 20
31.194281
 42
0.021356
  0
VERTEX
  8
0
 10
30.353181
 20
28.633004
 42
0.023641
  0
VERTEX
  8
0
 10
35.363799
 20
26.451950
 42
0.069446
  0
VERTEX
  8
0
 10
39.023100
 20
25.615933
 42
-0.036538
  0
VERTEX
  8
0
 10
42.496629
 20
25.059005
 42
-0.056724
  0
VERTEX
  8
0
 10
45.349431
 20
24.032655
 42
-0.059569
  0
VERTEX
  8
0
 10
47.799118
 20
22.435827
 42
-0.045602
  0
VERTEX
  8
0
 10
50.056350
 20
20.167676
 42
0.067880
  0
VERTEX
  8
0
 10
52.445507
 20
17.971225
 42
0.028934
  0
VERTEX
  8
0
 10
56.156181
 20
15.696223
 42
0.028971
  0
VERTEX
  8
0
 10
60.212852
 20
13.815016
 42
0.052164
  0
VERTEX
  8
0
 10
63.740987
 20
12.830771
 42
0.071970
  0
VERTEX
  8
0
 10
64.615749
 20
12.809661
 42
0.043520
  0
VERTEX
  8
0
 10
65.631925
 20
13.022588
 42
0.042669
  0
VERTEX
  8
0
 10
66.625962
 20
13.418261
 42
0.057216
  0
VERTEX
  8
0
 10
67.437448
 20
13.948086
 42
-0.088446
  0
VERTEX
  8
0
 10
68.659859
 20
14.641984
 42
-0.092917
  0
VERTEX
  8
0
 10
70.025457
 20
14.854741
 42
-0.047261
  0
VERTEX
  8
0
 10
72.035827
 20
14.601725
 42
-0.007804
  0
VERTEX
  8
0
 10
75.841072
 20
13.689630
 42
0.005515
  0
VERTEX
  8
0
 10
78.510514
 20
13.036848
 42
0.006716
  0
VERTEX
  8
0
 10
81.024270
 20
12.486934
 42
0.005729
  0
VERTEX
  8
0
 10
83.146091
 20
12.077812
 42
0.046072
  0
VERTEX
  8
0
 10
84.135165
 20
11.991602
 42
-0.063638
  0
VERTEX
  8
0
 10
85.993297
 20
11.763836
 42
-0.005815
  0
VERTEX
  8
0
 10
90.502547
 20
10.560874
 42
-0.008224
  0
VERTEX
  8
0
 10
95.106723
 20
9.193029
 42
-0.019063
  0
VERTEX
  8
0
 10
98.500000
 20
7.979883
 42
0.039024
  0
VERTEX
  8
0
 10
99.701617
 20
7.603608
 42
0.006201
  0
VERTEX
  8
0
 10
102.115625
 20
7.081355
 42
0.006840
  0
VERTEX
  8
0
 10
104.981918
 20
6.539085
 42
0.005939
  0
VERTEX
  8
0
 10
108.000000
 20
6.047627
 42
-0.016424
  0
VERTEX
  8
0
 10
111.161901
 20
5.464452
 42
-0.013912
  0
VERTEX
  8
0
 10
114.460479
 20
4.646537
 42
-0.014138
  0
VERTEX
  8
0
 10
117.425821
 20
3.731997
 42
-0.037694
  0
VERTEX
  8
0
 10
119.461204
 20
2.864775
 42
0.067302
  0
VERTEX
  8
0
 10
122.882398
 20
1.640194
 42
0.064657
  0
VERTEX
  8
0
 10
126.553917
 20
1.345124
 42
0.064802
  0
VERTEX
  8
0
 10
130.171501
 20
1.997297
 42
0.068169
  0
VERTEX
  8
0
 10
133.434723
 20
3.549185
 42
-0.046661
  0
VERTEX
  8
0
 10
134.774270
 20
4.258162
 42
-0.010010
  0
VERTEX
  8
0
 10
137.224348
 20
5.218363
 42
-0.010374
  0
VERTEX
  8
0
 10
140.118536
 20
6.218569
 42
-0.009727
  0
VERTEX
  8
0
 10
143.114322
 20
7.120848
 42
-0.002167
  0
VERTEX
  8
0
 10
153.671744
 20
10.028551
 42
-0.004579
  0
VERTEX
  8
0
 10
161.887720
 20
12.172546
 42
-0.003588
  0
VERTEX
  8
0
 10
168.209392
 20
13.712377
 42
-0.055561
  0
VERTEX
  8
0
 10
170.425406
 20
13.981254
 42
0.081455
  0
VERTEX
  8
0
 10
171.565266
 20
14.179604
 42
0.010019
  0
VERTEX
  8
0
 10
173.943309
 20
15.060823
 42
0.011633
  0
VERTEX
  8
0
 10
176.743424
 20
16.238683
 42
0.009371
  0
VERTEX
  8
0
 10
179.697482
 20
17.630058
 42
0.035776
  0
VERTEX
  8
0
 10
185.522517
 20
21.046539
 42
0.032578
  0
VERTEX
  8
0
 10
190.996747
 20
25.357759
 42
0.033369
  0
VERTEX
  8
0
 10
195.722255
 20
30.213109
 42
0.043788
  0
VERTEX
  8
0
 10
199.303520
 20
35.254944
 42
0.023916
  0
VERTEX
  8
0
 10
200.667336
 20
37.860152
 42
0.064761
  0
VERTEX
  8
0
 10
201.292741
 20
39.845968
 42
0.057479
  0
VERTEX
  8
0
 10
201.427723
 20
42.058575
 42
0.015871
  0
VERTEX
  8
0
 10
201.129245
 20
45.535266
 42
0.026496
  0
VERTEX
  8
0
 10
200.679873
 20
48.147465
 42
0.017907
  0
VERTEX
  8
0
 10
199.905144
 20
51.069734
 42
0.018070
  0
VERTEX
  8
0
 10
198.949982
 20
53.848372
 42
0.033960
  0
VERTEX
  8
0
 10
197.949813
 20
56.000000
 42
0.019267
  0
VERTEX
  8
0
 10
196.402518
 20
58.572217
 42
0.089816
  0
VERTEX
  8
0
 10
195.216096
 20
59.822411
 42
0.107031
  0
VERTEX
  8
0
 10
193.771085
 20
60.466262
 42
0.033141
  0
VERTEX
  8
0
 10
191.400411
 20
60.799507
 42
0.026120
  0
VERTEX
  8
0
 10
189.517224
 20
60.839378
 42
0.049561
  0
VERTEX
  8
0
 10
188.014800
 20
60.642802
 42
0.063549
  0
VERTEX
  8
0
 10
186.861952
 20
60.214034
 42
0.099092
  0
VERTEX
  8
0
 10
186.041087
 20
59.549507
 42
-0.104762
  0
VERTEX
  8
0
 10
184.561833
 20
58.379221
 42
-0.129537
  0
VERTEX
  8
0
 10
182.846493
 20
58.026306
 42
-0.177023
  0
VERTEX
  8
0
 10
181.533898
 20
58.589243
 42
-0.206678
  0
VERTEX
  8
0
 10
181.000000
 20
59.825686
 42
0.152169
  0
VERTEX
  8
0
 10
180.371528
 20
61.842921
 42
0.070471
  0
VERTEX
  8
0
 10
178.491273
 20
63.882597
 42
0.062673
  0
VERTEX
  8
0
 10
175.814806
 20
65.561172
 42
0.063201
  0
VERTEX
  8
0
 10
172.813405
 20
66.518417
 42
-0.042066
  0
VERTEX
  8
0
 10
170.772477
 20
67.075761
 42
-0.095446
  0
VERTEX
  8
0
 10
169.406754
 20
67.896239
 42
-0.078355
  0
VERTEX
  8
0
 10
168.286270
 20
69.273061
 42
-0.021832
  0
VERTEX
  8
0
 10
166.990949
 20
71.742641
 42
-0.024683
  0
VERTEX
  8
0
 10
166.212214
 20
73.636845
 42
-0.025819
  0
VERTEX
  8
0
 10
165.637119
 20
75.570593
 42
-0.026618
  0
VERTEX
  8
0
 10
165.318160
 20
77.282383
 42
-0.094235
  0
VERTEX
  8
0
 10
165.381460
 20
78.393245
 42
0.097297
  0
VERTEX
  8
0
 10
165.439016
 20
79.524078
 42
0.112041
  0
VERTEX
  8
0
 10
165.052814
 20
80.530880
 42
0.076040
  0
VERTEX
  8
0
 10
164.122101
 20
81.547683
 42
0.024640
  0
VERTEX
  8
0
 10
162.467940
 20
82.750000
 42
0.035691
  0
VERTEX
  8
0
 10
159.702117
 20
84.289444
 42
0.087761
  0
VERTEX
  8
0
 10
157.463576
 20
84.888462
 42
0.108682
  0
VERTEX
  8
0
 10
155.457935
 20
84.626002
 42
0.075373
  0
SEQEND
  0
POLYLINE
  8
0
 66
1
 70
1
  0
VERTEX
  8
0
 10
184.750000
 20
54.369714
 42
-0.066456
  0
VERTEX
  8
0
 10
185.665855
 20
53.988362
 42
-0.080444
  0
VERTEX
  8
0
 10
186.384195
 20
53.398126
 42
-0.086753
  0
VERTEX
  8
0
 10
186.841007
 20
52.651991
 42
-0.094353
  0
VERTEX
  8
0
 10
187.000000
 20
51.816946
 42
-0.266276
  0
VERTEX
  8
0
 10
186.177450
 20
50.381917
 42
-0.173928
  0
VERTEX
  8
0
 10
184.252746
 20
50.020865
 42
-0.135127
  0
VERTEX
  8
0
 10
182.171358
 20
50.969404
 42
-0.185455
  0
VERTEX
  8
0
 10
181.180449
 20
52.750000
 42
-0.045847
  0
VERTEX
  8
0
 10
181.107931
 20
54.215296
 42
-0.282862
  0
VERTEX
  8
0
 10
181.511857
 20
54.814028
 42
-0.158905
  0
VERTEX
  8
0
 10
182.442492
 20
54.917567
 42
-0.014367
  0
SEQEND
  0
POLYLINE
  8
0
 66
1
 70
1
  0
VERTEX
  8
0
 10
179.998013
 20
37.435212
 42
-0.260726
  0
VERTEX
  8
0
 10
179.401025
 20
36.363493
 42
-0.019902
  0
VERTEX
  8
0
 10
176.410944
 20
34.680467
 42
-0.019247
  0
VERTEX
  8
0
 10
173.302202
 20
33.238213
 42
-0.304219
  0
VERTEX
  8
0
 10
172.213753
 20
33.452913
 42
-0.211059
  0
VERTEX
  8
0
 10
172.074141
 20
33.813521
 42
-0.036450
  0
VERTEX
  8
0
 10
172.163527
 20
34.558000
 42
-0.034192
  0
VERTEX
  8
0
 10
172.408014
 20
35.474398
 42
-0.024618
  0
VERTEX
  8
0
 10
172.799152
 20
36.458531
 42
-0.052063
  0
VERTEX
  8
0
 10
173.507185
 20
37.662646
 42
-0.110108
  0
VERTEX
  8
0
 10
174.319932
 20
38.369569
 42
-0.101747
  0
VERTEX
  8
0
 10
175.400331
 20
38.696387
 42
-0.040248
  0
VERTEX
  8
0
 10
176.959605
 20
38.712757
 42
-0.033053
  0
VERTEX
  8
0
 10
178.122679
 20
38.553554
 42
-0.049016
  0
VERTEX
  8
0
 10
179.104661
 20
38.249716
 42
-0.061426
  0
VERTEX
  8
0
 10
179.785475
 20
37.859255
 42
-0.235597
  0
SEQEND
  0
ENDSEC
  0
EOF
