  0
SECTION
  2
HEADER
  9
$ACADVER
  1
AC1006
  9
$EXTMIN
 10
0.000000
 20
0.000000
 30
0.000000
  9
$EXTMAX
 10
492.000000
 20
29.000000
 30
0.000000
  0
ENDSEC
  0
SECTION
  2
ENTITIES
  0
POLYLINE
  8
0
 66
1
 70
1
  0
VERTEX
  8
0
 10
31.000000
 20
26.909171
 42
-0.023132
  0
VERTEX
  8
0
 10
27.676612
 20
26.570237
 42
-0.007805
  0
VERTEX
  8
0
 10
22.810938
 20
26.376636
 42
-0.007744
  0
VERTEX
  8
0
 10
17.416672
 20
26.329861
 42
-0.008806
  0
VERTEX
  8
0
 10
12.250000
 20
26.456096
 42
0.000000
  0
VERTEX
  8
0
 10
0.000000
 20
26.971371
 42
0.000000
  0
VERTEX
  8
0
 10
0.000000
 20
21.485685
 42
0.000000
  0
VERTEX
  8
0
 10
0.000000
 20
16.000000
 42
0.000000
  0
VERTEX
  8
0
 10
10.750000
 20
15.896533
 42
0.001813
  0
VERTEX
  8
0
 10
15.414457
 20
15.868549
 42
0.001363
  0
VERTEX
  8
0
 10
20.545313
 20
15.870355
 42
0.001378
  0
VERTEX
  8
0
 10
25.371093
 20
15.898506
 42
0.003174
  0
VERTEX
  8
0
 10
29.000000
 20
15.952710
 42
-0.026427
  0
VERTEX
  8
0
 10
37.762456
 20
15.676087
 42
-0.004353
  0
VERTEX
  8
0
 10
54.622755
 20
14.101735
 42
-0.002816
  0
VERTEX
  8
0
 10
71.921416
 20
12.235890
 42
-0.058343
  0
VERTEX
  8
0
 10
77.000000
 20
11.048745
 42
0.018045
  0
VERTEX
  8
0
 10
78.323247
 20
10.624727
 42
0.005312
  0
VERTEX
  8
0
 10
80.381250
 20
10.069775
 42
0.005326
  0
VERTEX
  8
0
 10
82.710943
 20
9.494432
 42
0.005702
  0
VERTEX
  8
0
 10
85.000000
 20
8.982410
 42
-0.003241
  0
VERTEX
  8
0
 10
90.004879
 20
7.888750
 42
-0.004524
  0
VERTEX
  8
0
 10
94.465316
 20
6.841234
 42
-0.005106
  0
VERTEX
  8
0
 10
98.345546
 20
5.850760
 42
-0.008647
  0
VERTEX
  8
0
 10
101.570998
 20
4.932239
 42
0.016204
  0
VERTEX
  8
0
 10
102.900480
 20
4.575268
 42
0.012872
  0
VERTEX
  8
0
 10
104.356247
 20
4.273845
 42
0.013072
  0
VERTEX
  8
0
 10
105.721272
 20
4.064352
 42
0.031546
  0
VERTEX
  8
0
 10
106.740231
 20
4.000000
 42
-0.042971
  0
VERTEX
  8
0
 10
107.927683
 20
3.897760
 42
-0.007982
  0
VERTEX
  8
0
 10
110.081772
 20
3.488531
 42
-0.008504
  0
VERTEX
  8
0
 10
112.591626
 20
2.925404
 42
-0.007670
  0
VERTEX
  8
0
 10
115.169233
 20
2.258830
 42
0.056100
  0
VERTEX
  8
0
 10
123.695849
 20
0.915039
 42
0.011512
  0
VERTEX
  8
0
 10
138.956231
 20
0.591347
 42
0.012262
  0
VERTEX
  8
0
 10
156.398870
 20
1.050837
 42
0.012885
  0
VERTEX
  8
0
 10
173.511082
 20
2.364682
 42
-0.006118
  0
VERTEX
  8
0
 10
180.934941
 20
3.035843
 42
-0.003291
  0
VERTEX
  8
0
 10
190.103153
 20
3.691043
 42
-0.003277
  0
VERTEX
  8
0
 10
199.459537
 20
4.236270
 42
-0.005138
  0
VERTEX
  8
0
 10
207.511082
 20
4.569627
 42
0.003267
  0
VERTEX
  8
0
 10
221.495165
 20
5.096222
 42
0.003069
  0
VERTEX
  8
0
 10
235.766332
 20
5.814834
 42
0.002845
  0
VERTEX
  8
0
 10
251.024834
 20
6.764212
 42
0.002065
  0
VERTEX
  8
0
 10
268.000000
 20
7.987834
 42
-0.008618
  0
VERTEX
  8
0
 10
274.666078
 20
8.380607
 42
-0.003400
  0
VERTEX
  8
0
 10
283.850000
 20
8.700504
 42
-0.003364
  0
VERTEX
  8
0
 10
293.779557
 20
8.911939
 42
-0.004202
  0
VERTEX
  8
0
 10
303.000000
 20
8.968722
 42
0.006050
  0
VERTEX
  8
0
 10
319.258212
 20
9.128944
 42
0.005110
  0
VERTEX
  8
0
 10
336.450949
 20
9.682307
 42
0.004867
  0
VERTEX
  8
0
 10
354.503322
 20
10.624205
 42
0.004265
  0
VERTEX
  8
0
 10
373.346794
 20
11.952850
 42
-0.013458
  0
VERTEX
  8
0
 10
381.037664
 20
12.353212
 42
-0.001911
  0
VERTEX
  8
0
 10
396.858597
 20
12.689833
 42
-0.002175
  0
VERTEX
  8
0
 10
415.585795
 20
12.935207
 42
-0.001852
  0
VERTEX
  8
0
 10
435.346794
 20
13.034965
 42
0.000000
  0
VERTEX
  8
0
 10
484.500000
 20
13.101052
 42
0.000000
  0
VERTEX
  8
0
 10
487.108459
 20
15.800526
 42
0.077116
  0
VERTEX
  8
0
 10
489.124452
 20
18.658563
 42
0.065602
  0
VERTEX
  8
0
 10
490.319565
 20
22.154749
 42
0.087526
  0
VERTEX
  8
0
 10
490.387628
 20
25.019155
 42
0.347027
  0
VERTEX
  8
0
 10
489.187129
 20
26.141804
 42
0.023358
  0
VERTEX
  8
0
 10
481.488233
 20
26.427910
 42
0.000527
  0
VERTEX
  8
0
 10
444.606566
 20
26.036311
 42
0.001169
  0
VERTEX
  8
0
 10
409.654886
 20
25.546669
 42
0.006588
  0
VERTEX
  8
0
 10
391.000000
 20
24.995798
 42
-0.003899
  0
VERTEX
  8
0
 10
379.659512
 20
24.599856
 42
-0.001105
  0
VERTEX
  8
0
 10
362.009375
 20
24.160407
 42
-0.001113
  0
VERTEX
  8
0
 10
342.071047
 20
23.752492
 42
-0.001177
  0
VERTEX
  8
0
 10
322.500000
 20
23.441780
 42
0.001630
  0
VERTEX
  8
0
 10
304.235593
 20
23.135292
 42
0.002436
  0
VERTEX
  8
0
 10
288.278125
 20
22.737696
 42
0.001016
  0
VERTEX
  8
0
 10
274.622306
 20
22.303093
 42
0.052430
  0
VERTEX
  8
0
 10
272.000000
 20
21.937270
 42
-0.031882
  0
VERTEX
  8
0
 10
265.043357
 20
20.674026
 42
-0.008924
  0
VERTEX
  8
0
 10
254.037021
 20
19.591490
 42
-0.006736
  0
VERTEX
  8
0
 10
238.720232
 20
18.568011
 42
-0.002454
  0
VERTEX
  8
0
 10
217.000000
 20
17.517198
 42
0.002100
  0
VERTEX
  8
0
 10
203.732038
 20
16.884724
 42
0.002726
  0
VERTEX
  8
0
 10
191.578125
 20
16.187713
 42
0.002045
  0
VERTEX
  8
0
 10
181.401339
 20
15.506595
 42
0.024595
  0
VERTEX
  8
0
 10
177.500000
 20
15.035777
 42
-0.044385
  0
VERTEX
  8
0
 10
163.778569
 20
13.927846
 42
-0.007593
  0
VERTEX
  8
0
 10
137.589693
 20
14.538845
 42
-0.004804
  0
VERTEX
  8
0
 10
110.692755
 20
15.834097
 42
-0.104816
  0
VERTEX
  8
0
 10
103.122345
 20
17.901551
 42
0.051936
  0
VERTEX
  8
0
 10
102.109202
 20
18.296479
 42
0.007192
  0
VERTEX
  8
0
 10
99.920314
 20
18.863620
 42
0.008177
  0
VERTEX
  8
0
 10
97.299041
 20
19.457462
 42
0.006846
  0
VERTEX
  8
0
 10
94.500000
 20
20.003731
 42
-0.002472
  0
VERTEX
  8
0
 10
91.361248
 20
20.587840
 42
-0.001558
  0
VERTEX
  8
0
 10
87.702084
 20
21.299356
 42
-0.001564
  0
VERTEX
  8
0
 10
84.108470
 20
22.021447
 42
-0.002875
  0
VERTEX
  8
0
 10
81.187947
 20
22.635316
 42
0.010665
  0
VERTEX
  8
0
 10
78.494285
 20
23.157820
 42
0.008962
  0
VERTEX
  8
0
 10
75.619974
 20
23.599124
 42
0.009068
  0
VERTEX
  8
0
 10
72.979972
 20
23.907512
 42
0.024543
  0
VERTEX
  8
0
 10
71.096878
 20
24.000000
 42
-0.030240
  0
VERTEX
  8
0
 10
69.301204
 20
24.108701
 42
-0.013962
  0
VERTEX
  8
0
 10
66.985949
 20
24.455880
 42
-0.013772
  0
VERTEX
  8
0
 10
64.564807
 20
24.957538
 42
-0.018590
  0
VERTEX
  8
0
 10
62.408931
 20
25.551933
 42
0.050096
  0
VERTEX
  8
0
 10
56.576481
 20
26.771276
 42
0.015701
  0
VERTEX
  8
0
 10
47.665094
 20
27.437166
 42
0.016229
  0
VERTEX
  8
0
 10
38.382445
 20
27.536766
 42
0.031551
  0
SEQEND
  0
ENDSEC
  0
EOF
