  0
SECTION
  2
HEADER
  9
$ACADVER
  1
AC1006
  9
$EXTMIN
 10
0.000000
 20
0.000000
 30
0.000000
  9
$EXTMAX
 10
54.000000
 20
120.000000
 30
0.000000
  0
ENDSEC
  0
SECTION
  2
ENTITIES
  0
POLYLINE
  8
0
 66
1
 70
1
  0
VERTEX
  8
0
 10
2.200000
 20
117.800000
 42
0.120392
  0
VERTEX
  8
0
 10
1.189953
 20
116.136812
 42
0.114852
  0
VERTEX
  8
0
 10
1.036930
 20
114.164587
 42
0.124238
  0
VERTEX
  8
0
 10
1.761827
 20
112.442744
 42
0.155684
  0
VERTEX
  8
0
 10
3.168480
 20
111.446526
 42
-0.075629
  0
VERTEX
  8
0
 10
4.302847
 20
110.886904
 42
-0.014837
  0
VERTEX
  8
0
 10
6.133542
 20
109.526878
 42
-0.015431
  0
VERTEX
  8
0
 10
8.189744
 20
107.796814
 42
-0.013767
  0
VERTEX
  8
0
 10
10.217209
 20
105.878029
 42
0.014175
  0
VERTEX
  8
0
 10
12.330408
 20
103.881364
 42
0.012465
  0
VERTEX
  8
0
 10
14.644069
 20
101.917617
 42
0.012625
  0
VERTEX
  8
0
 10
16.820692
 20
100.250548
 42
0.036414
  0
VERTEX
  8
0
 10
18.434255
 20
99.248890
 42
-0.027267
  0
VERTEX
  8
0
 10
20.009463
 20
98.310482
 42
-0.011340
  0
VERTEX
  8
0
 10
22.033003
 20
96.882667
 42
-0.011180
  0
VERTEX
  8
0
 10
24.136298
 20
95.251926
 42
-0.014191
  0
VERTEX
  8
0
 10
25.999595
 20
93.649549
 42
0.000000
  0
VERTEX
  8
0
 10
30.228136
 20
89.799098
 42
0.000000
  0
VERTEX
  8
0
 10
30.158293
 20
70.437805
 42
0.005958
  0
VERTEX
  8
0
 10
30.264857
 20
57.612914
 42
0.024030
  0
VERTEX
  8
0
 10
30.798805
 20
49.804641
 42
0.025090
  0
VERTEX
  8
0
 10
32.069324
 20
42.244316
 42
0.006911
  0
VERTEX
  8
0
 10
34.825188
 20
30.500000
 42
-0.011444
  0
VERTEX
  8
0
 10
35.637366
 20
26.892100
 42
-0.007215
  0
VERTEX
  8
0
 10
36.427885
 20
22.646875
 42
-0.007243
  0
VERTEX
  8
0
 10
37.084787
 20
18.448026
 42
-0.013193
  0
VERTEX
  8
0
 10
37.480691
 20
15.000000
 42
0.013090
  0
VERTEX
  8
0
 10
37.915450
 20
11.206665
 42
0.035140
  0
VERTEX
  8
0
 10
38.482997
 20
8.550984
 42
0.048518
  0
VERTEX
  8
0
 10
39.274330
 20
6.556752
 42
0.059846
  0
VERTEX
  8
0
 10
40.393541
 20
4.900492
 42
0.112974
  0
VERTEX
  8
0
 10
44.099678
 20
2.186967
 42
0.132508
  0
VERTEX
  8
0
 10
48.398242
 20
1.565776
 42
0.172569
  0
VERTEX
  8
0
 10
51.669960
 20
3.193817
 42
0.200895
  0
VERTEX
  8
0
 10
52.920483
 20
6.410515
 42
0.017678
  0
VERTEX
  8
0
 10
52.586637
 20
11.869066
 42
0.007080
  0
VERTEX
  8
0
 10
51.760386
 20
19.309537
 42
0.007137
  0
VERTEX
  8
0
 10
50.680922
 20
27.023831
 42
0.011790
  0
VERTEX
  8
0
 10
49.523313
 20
33.500000
 42
-0.007451
  0
VERTEX
  8
0
 10
47.477230
 20
44.399808
 42
-0.018964
  0
VERTEX
  8
0
 10
46.412457
 20
52.374677
 42
-0.016630
  0
VERTEX
  8
0
 10
45.881808
 20
60.985237
 42
-0.004630
  0
VERTEX
  8
0
 10
45.624544
 20
74.500000
 42
0.003373
  0
VERTEX
  8
0
 10
45.458948
 20
84.522567
 42
0.010410
  0
VERTEX
  8
0
 10
45.160327
 20
91.291509
 42
0.012488
  0
VERTEX
  8
0
 10
44.738089
 20
95.976503
 42
0.087325
  0
VERTEX
  8
0
 10
44.086087
 20
98.168876
 42
0.094328
  0
VERTEX
  8
0
 10
42.254374
 20
100.571520
 42
0.023043
  0
VERTEX
  8
0
 10
38.382390
 20
103.736373
 42
0.021902
  0
VERTEX
  8
0
 10
33.365517
 20
107.134599
 42
0.016732
  0
VERTEX
  8
0
 10
27.604964
 20
110.418437
 42
-0.003699
  0
VERTEX
  8
0
 10
25.649773
 20
111.466464
 42
-0.004417
  0
VERTEX
  8
0
 10
23.823261
 20
112.484024
 42
-0.003826
  0
VERTEX
  8
0
 10
22.298579
 20
113.366681
 42
-0.028688
  0
VERTEX
  8
0
 10
21.604964
 20
113.830877
 42
0.085583
  0
VERTEX
  8
0
 10
19.950474
 20
114.684651
 42
0.003202
  0
VERTEX
  8
0
 10
13.244933
 20
116.753333
 42
0.003682
  0
VERTEX
  8
0
 10
6.587028
 20
118.707358
 42
0.070398
  0
VERTEX
  8
0
 10
4.450000
 20
119.003167
 42
0.085557
  0
VERTEX
  8
0
 10
3.962357
 20
118.917594
 42
0.036676
  0
VERTEX
  8
0
 10
3.355937
 20
118.648430
 42
0.034914
  0
VERTEX
  8
0
 10
2.736673
 20
118.259447
 42
0.038706
  0
SEQEND
  0
ENDSEC
  0
EOF
