  0
SECTION
  2
HEADER
  9
$ACADVER
  1
AC1006
  9
$EXTMIN
 10
0.000000
 20
0.000000
 30
0.000000
  9
$EXTMAX
 10
1714.000000
 20
2690.000000
 30
0.000000
  0
ENDSEC
  0
SECTION
  2
ENTITIES
  0
POLYLINE
  8
0
 66
1
 70
1
  0
VERTEX
  8
0
 10
922.000000
 20
2686.847795
 42
0.000555
  0
VERTEX
  8
0
 10
906.584794
 20
2683.919643
 42
0.004199
  0
VERTEX
  8
0
 10
899.320288
 20
2682.468033
 42
0.008944
  0
VERTEX
  8
0
 10
894.867248
 20
2681.455815
 42
0.019464
  0
VERTEX
  8
0
 10
891.500000
 20
2680.486373
 42
-0.025898
  0
VERTEX
  8
0
 10
889.483680
 20
2679.933851
 42
-0.009809
  0
VERTEX
  8
0
 10
886.618750
 20
2679.364854
 42
-0.009685
  0
VERTEX
  8
0
 10
883.473229
 20
2678.866683
 42
-0.011667
  0
VERTEX
  8
0
 10
880.500000
 20
2678.525150
 42
0.012221
  0
VERTEX
  8
0
 10
877.490440
 20
2678.176061
 42
0.009485
  0
VERTEX
  8
0
 10
874.234375
 20
2677.654313
 42
0.009610
  0
VERTEX
  8
0
 10
871.214487
 20
2677.051336
 42
0.022760
  0
VERTEX
  8
0
 10
869.000000
 20
2676.457944
 42
-0.011848
  0
VERTEX
  8
0
 10
864.314901
 20
2675.092316
 42
-0.000720
  0
VERTEX
  8
0
 10
850.191333
 20
2671.357958
 42
-0.001100
  0
VERTEX
  8
0
 10
833.670268
 20
2667.053941
 42
-0.000902
  0
VERTEX
  8
0
 10
816.000000
 20
2662.525996
 42
0.014387
  0
VERTEX
  8
0
 10
804.806085
 20
2659.333565
 42
0.005802
  0
VERTEX
  8
0
 10
789.709819
 20
2654.361065
 42
0.005619
  0
VERTEX
  8
0
 10
774.993069
 20
2649.138080
 42
0.018685
  0
VERTEX
  8
0
 10
765.500000
 20
2645.239940
 42
-0.009145
  0
VERTEX
  8
0
 10
760.577698
 20
2643.108079
 42
-0.022265
  0
VERTEX
  8
0
 10
756.857843
 20
2641.767473
 42
-0.030154
  0
VERTEX
  8
0
 10
753.910676
 20
2641.042842
 42
-0.057021
  0
VERTEX
  8
0
 10
751.472624
 20
2640.879534
 42
0.104558
  0
VERTEX
  8
0
 10
746.320805
 20
2640.041140
 42
0.051415
  0
VERTEX
  8
0
 10
740.379781
 20
2637.005170
 42
0.037248
  0
VERTEX
  8
0
 10
733.348231
 20
2631.663922
 42
0.015821
  0
VERTEX
  8
0
 10
724.731151
 20
2623.543637
 42
0.036658
  0
VERTEX
  8
0
 10
718.152368
 20
2615.891987
 42
0.036832
  0
VERTEX
  8
0
 10
712.773053
 20
2607.373202
 42
0.039548
  0
VERTEX
  8
0
 10
709.157912
 20
2599.067989
 42
0.083064
  0
VERTEX
  8
0
 10
708.000000
 20
2592.146096
 42
-0.053754
  0
VERTEX
  8
0
 10
707.861131
 20
2590.858112
 42
-0.022044
  0
VERTEX
  8
0
 10
707.410476
 20
2589.156449
 42
-0.021506
  0
VERTEX
  8
0
 10
706.761402
 20
2587.355829
 42
-0.025763
  0
VERTEX
  8
0
 10
705.993111
 20
2585.725961
 42
0.051808
  0
VERTEX
  8
0
 10
704.951603
 20
2583.181250
 42
0.036573
  0
VERTEX
  8
0
 10
704.301480
 20
2580.158449
 42
0.022332
  0
VERTEX
  8
0
 10
703.895337
 20
2575.854003
 42
0.005470
  0
VERTEX
  8
0
 10
703.621490
 20
2568.740770
 42
-0.014118
  0
VERTEX
  8
0
 10
703.062106
 20
2558.721675
 42
-0.022548
  0
VERTEX
  8
0
 10
701.958477
 20
2550.220407
 42
-0.023987
  0
VERTEX
  8
0
 10
700.156824
 20
2542.244228
 42
-0.019183
  0
VERTEX
  8
0
 10
697.481492
 20
2533.848369
 42
0.004739
  0
VERTEX
  8
0
 10
696.404601
 20
2530.778297
 42
0.004480
  0
VERTEX
  8
0
 10
695.365195
 20
2527.630458
 42
0.004454
  0
VERTEX
  8
0
 10
694.494820
 20
2524.827283
 42
0.015603
  0
VERTEX
  8
0
 10
694.006868
 20
2523.000000
 42
-0.016098
  0
VERTEX
  8
0
 10
693.501207
 20
2521.113885
 42
-0.003899
  0
VERTEX
  8
0
 10
692.541118
 20
2518.031250
 42
-0.003996
  0
VERTEX
  8
0
 10
691.383426
 20
2514.510938
 42
-0.003964
  0
VERTEX
  8
0
 10
690.166546
 20
2511.000000
 42
0.000284
  0
VERTEX
  8
0
 10
688.733987
 20
2506.963042
 42
0.000135
  0
VERTEX
  8
0
 10
686.894536
 20
2501.765625
 42
0.000134
  0
VERTEX
  8
0
 10
684.974824
 20
2496.332121
 42
0.000191
  0
VERTEX
  8
0
 10
683.271115
 20
2491.500000
 42
-0.003639
  0
VERTEX
  8
0
 10
681.674247
 20
2487.068606
 42
-0.004145
  0
VERTEX
  8
0
 10
680.079424
 20
2482.850000
 42
-0.003766
  0
VERTEX
  8
0
 10
678.669216
 20
2479.291025
 42
-0.023163
  0
VERTEX
  8
0
 10
677.845404
 20
2477.500000
 42
0.000801
  0
VERTEX
  8
0
 10
676.777387
 20
2475.427463
 42
0.000037
  0
VERTEX
  8
0
 10
673.171832
 20
2468.401819
 42
0.000062
  0
VERTEX
  8
0
 10
668.893155
 20
2460.060490
 42
0.000044
  0
VERTEX
  8
0
 10
664.114835
 20
2450.740234
 42
-0.008212
  0
VERTEX
  8
0
 10
655.376649
 20
2434.360827
 42
-0.020883
  0
VERTEX
  8
0
 10
648.355168
 20
2422.863638
 42
-0.021517
  0
VERTEX
  8
0
 10
640.523458
 20
2412.190697
 42
-0.009211
  0
VERTEX
  8
0
 10
629.199343
 20
2398.595079
 42
0.002043
  0
VERTEX
  8
0
 10
626.098200
 20
2394.978594
 42
0.002299
  0
VERTEX
  8
0
 10
623.147070
 20
2391.475959
 42
0.002104
  0
VERTEX
  8
0
 10
620.662338
 20
2388.473620
 42
0.012440
  0
VERTEX
  8
0
 10
619.407705
 20
2386.864557
 42
-0.018037
  0
VERTEX
  8
0
 10
618.116163
 20
2385.245844
 42
-0.002789
  0
VERTEX
  8
0
 10
615.424227
 20
2382.146066
 42
-0.003108
  0
VERTEX
  8
0
 10
612.204392
 20
2378.525565
 42
-0.002698
  0
VERTEX
  8
0
 10
608.785047
 20
2374.769477
 42
0.003544
  0
VERTEX
  8
0
 10
605.100917
 20
2370.708739
 42
0.002621
  0
VERTEX
  8
0
 10
601.081067
 20
2366.166659
 42
0.002648
  0
VERTEX
  8
0
 10
597.328602
 20
2361.835584
 42
0.005946
  0
VERTEX
  8
0
 10
594.537538
 20
2358.500000
 42
-0.012079
  0
VERTEX
  8
0
 10
591.832935
 20
2355.347141
 42
-0.006734
  0
VERTEX
  8
0
 10
588.396495
 20
2351.633465
 42
-0.006713
  0
VERTEX
  8
0
 10
584.817252
 20
2347.968293
 42
-0.010811
  0
VERTEX
  8
0
 10
581.660196
 20
2344.954349
 42
0.004856
  0
VERTEX
  8
0
 10
578.153023
 20
2341.685101
 42
0.001898
  0
VERTEX
  8
0
 10
573.372057
 20
2337.106223
 42
0.001879
  0
VERTEX
  8
0
 10
568.235980
 20
2332.112308
 42
0.002337
  0
VERTEX
  8
0
 10
563.500000
 20
2327.429089
 42
-0.001084
  0
VERTEX
  8
0
 10
558.739534
 20
2322.698016
 42
-0.000837
  0
VERTEX
  8
0
 10
553.528125
 20
2317.558434
 42
-0.000846
  0
VERTEX
  8
0
 10
548.643247
 20
2312.773198
 42
-0.002025
  0
VERTEX
  8
0
 10
545.000000
 20
2309.245034
 42
0.006265
  0
VERTEX
  8
0
 10
541.629002
 20
2305.924676
 42
0.003683
  0
VERTEX
  8
0
 10
537.677332
 20
2301.874369
 42
0.003683
  0
VERTEX
  8
0
 10
533.786437
 20
2297.767015
 42
0.006274
  0
VERTEX
  8
0
 10
530.603685
 20
2294.270293
 42
-0.004008
  0
VERTEX
  8
0
 10
527.188127
 20
2290.483460
 42
-0.001621
  0
VERTEX
  8
0
 10
522.471455
 20
2285.370985
 42
-0.001603
  0
VERTEX
  8
0
 10
517.359927
 20
2279.901704
 42
-0.002036
  0
VERTEX
  8
0
 10
512.603685
 20
2274.886252
 42
0.002517
  0
VERTEX
  8
0
 10
504.766675
 20
2266.606185
 42
0.014450
  0
VERTEX
  8
0
 10
500.764898
 20
2262.079997
 42
0.023968
  0
VERTEX
  8
0
 10
498.547186
 20
2259.145469
 42
0.150939
  0
VERTEX
  8
0
 10
498.000000
 20
2257.374157
 42
-0.166163
  0
VERTEX
  8
0
 10
497.764304
 20
2256.684507
 42
-0.014681
  0
VERTEX
  8
0
 10
496.578592
 20
2255.241977
 42
-0.017940
  0
VERTEX
  8
0
 10
495.014626
 20
2253.574008
 42
-0.013004
  0
VERTEX
  8
0
 10
493.161164
 20
2251.827547
 42
0.038320
  0
VERTEX
  8
0
 10
487.422702
 20
2245.844292
 42
0.007848
  0
VERTEX
  8
0
 10
478.294680
 20
2234.375090
 42
0.008350
  0
VERTEX
  8
0
 10
469.465963
 20
2222.512821
 42
0.029613
  0
VERTEX
  8
0
 10
464.398510
 20
2214.500000
 42
-0.013255
  0
VERTEX
  8
0
 10
463.539609
 20
2213.038171
 42
-0.005144
  0
VERTEX
  8
0
 10
462.276801
 20
2211.059375
 42
-0.005088
  0
VERTEX
  8
0
 10
460.864207
 20
2208.942661
 42
-0.006280
  0
VERTEX
  8
0
 10
459.502936
 20
2207.000000
 42
0.021064
  0
VERTEX
  8
0
 10
457.863007
 20
2204.505922
 42
0.005330
  0
VERTEX
  8
0
 10
455.414530
 20
2200.316192
 42
0.005427
  0
VERTEX
  8
0
 10
452.717678
 20
2195.464802
 42
0.005460
  0
VERTEX
  8
0
 10
450.132328
 20
2190.565760
 42
0.000000
  0
VERTEX
  8
0
 10
444.000000
 20
2178.631519
 42
0.000000
  0
VERTEX
  8
0
 10
444.000000
 20
2166.452249
 42
0.014217
  0
VERTEX
  8
0
 10
444.303757
 20
2155.771670
 42
0.039376
  0
VERTEX
  8
0
 10
445.319106
 20
2148.328458
 42
0.039387
  0
VERTEX
  8
0
 10
447.488608
 20
2141.137665
 42
0.014232
  0
VERTEX
  8
0
 10
451.649804
 20
2131.301464
 42
0.014606
  0
VERTEX
  8
0
 10
456.861906
 20
2120.725477
 42
0.074058
  0
VERTEX
  8
0
 10
460.749537
 20
2115.448538
 42
0.123014
  0
VERTEX
  8
0
 10
465.005761
 20
2112.878663
 42
0.074740
  0
VERTEX
  8
0
 10
470.851048
 20
2112.000000
 42
0.070347
  0
VERTEX
  8
0
 10
477.976464
 20
2113.007491
 42
0.017709
  0
VERTEX
  8
0
 10
489.142823
 20
2116.662594
 42
0.013525
  0
VERTEX
  8
0
 10
500.026187
 20
2120.994420
 42
0.154045
  0
VERTEX
  8
0
 10
503.486170
 20
2123.977622
 42
-0.165450
  0
VERTEX
  8
0
 10
503.966568
 20
2124.373541
 42
-0.033351
  0
VERTEX
  8
0
 10
505.041068
 20
2124.699676
 42
-0.031898
  0
VERTEX
  8
0
 10
506.400867
 20
2124.925031
 42
-0.025120
  0
VERTEX
  8
0
 10
507.892143
 20
2125.000000
 42
0.058531
  0
VERTEX
  8
0
 10
510.012669
 20
2125.249086
 42
0.026862
  0
VERTEX
  8
0
 10
512.685788
 20
2126.039701
 42
0.022463
  0
VERTEX
  8
0
 10
515.841799
 20
2127.322984
 42
0.013447
  0
VERTEX
  8
0
 10
519.474246
 20
2129.113669
 42
-0.008881
  0
VERTEX
  8
0
 10
524.162675
 20
2131.478375
 42
-0.046903
  0
VERTEX
  8
0
 10
526.858786
 20
2132.479798
 42
-0.067112
  0
VERTEX
  8
0
 10
529.239538
 20
2132.785919
 42
-0.030168
  0
VERTEX
  8
0
 10
532.391120
 20
2132.576157
 42
0.004979
  0
VERTEX
  8
0
 10
534.504323
 20
2132.328167
 42
0.004930
  0
VERTEX
  8
0
 10
536.629103
 20
2132.121415
 42
0.004845
  0
VERTEX
  8
0
 10
538.491738
 20
2131.976862
 42
0.018989
  0
VERTEX
  8
0
 10
539.644124
 20
2131.942523
 42
-0.109177
  0
VERTEX
  8
0
 10
541.292185
 20
2131.592442
 42
-0.075545
  0
VERTEX
  8
0
 10
542.894640
 20
2130.548038
 42
-0.097195
  0
VERTEX
  8
0
 10
543.837738
 20
2129.303855
 42
-0.320389
  0
VERTEX
  8
0
 10
543.677684
 20
2128.344351
 42
0.177448
  0
VERTEX
  8
0
 10
543.511415
 20
2127.985752
 42
0.057033
  0
VERTEX
  8
0
 10
543.529898
 20
2127.390135
 42
0.048640
  0
VERTEX
  8
0
 10
543.705824
 20
2126.677926
 42
0.038025
  0
VERTEX
  8
0
 10
544.027411
 20
2125.948783
 42
-0.082853
  0
VERTEX
  8
0
 10
545.269369
 20
2122.275836
 42
-0.013861
  0
VERTEX
  8
0
 10
546.259458
 20
2114.876563
 42
-0.014653
  0
VERTEX
  8
0
 10
546.941223
 20
2105.922818
 42
-0.011744
  0
VERTEX
  8
0
 10
547.165576
 20
2096.256706
 42
-0.006394
  0
VERTEX
  8
0
 10
547.049422
 20
2087.369404
 42
-0.022245
  0
VERTEX
  8
0
 10
546.645900
 20
2081.642074
 42
-0.034602
  0
VERTEX
  8
0
 10
545.894912
 20
2077.606730
 42
-0.063169
  0
VERTEX
  8
0
 10
544.656404
 20
2074.500000
 42
0.037076
  0
VERTEX
  8
0
 10
544.152420
 20
2073.405129
 42
0.010278
  0
VERTEX
  8
0
 10
543.527087
 20
2071.618750
 42
0.010318
  0
VERTEX
  8
0
 10
542.900584
 20
2069.560937
 42
0.010641
  0
VERTEX
  8
0
 10
542.366392
 20
2067.500000
 42
-0.004263
  0
VERTEX
  8
0
 10
541.824522
 20
2065.293954
 42
-0.002903
  0
VERTEX
  8
0
 10
541.172269
 20
2062.793750
 42
-0.002925
  0
VERTEX
  8
0
 10
540.514789
 20
2060.388634
 42
-0.005879
  0
VERTEX
  8
0
 10
539.962581
 20
2058.500000
 42
0.021819
  0
VERTEX
  8
0
 10
539.461123
 20
2056.557088
 42
0.009777
  0
VERTEX
  8
0
 10
538.964341
 20
2053.965594
 42
0.009657
  0
VERTEX
  8
0
 10
538.545065
 20
2051.201378
 42
0.012947
  0
VERTEX
  8
0
 10
538.278592
 20
2048.680745
 42
0.040986
  0
VERTEX
  8
0
 10
538.291337
 20
2043.568089
 42
0.172050
  0
VERTEX
  8
0
 10
539.539310
 20
2040.811992
 42
0.165473
  0
VERTEX
  8
0
 10
542.279935
 20
2039.396061
 42
0.037242
  0
VERTEX
  8
0
 10
547.589888
 20
2039.000000
 42
0.022842
  0
VERTEX
  8
0
 10
552.678824
 20
2039.232607
 42
0.061828
  0
VERTEX
  8
0
 10
556.203820
 20
2040.001830
 42
0.093088
  0
VERTEX
  8
0
 10
558.541553
 20
2041.352740
 42
0.125108
  0
VERTEX
  8
0
 10
559.941571
 20
2043.346319
 42
-0.123557
  0
VERTEX
  8
0
 10
562.255764
 20
2046.663148
 42
-0.037127
  0
VERTEX
  8
0
 10
567.224766
 20
2050.374531
 42
-0.020947
  0
VERTEX
  8
0
 10
575.714649
 20
2055.296687
 42
-0.004262
  0
VERTEX
  8
0
 10
591.177758
 20
2063.248867
 42
-0.008130
  0
VERTEX
  8
0
 10
607.318028
 20
2071.049745
 42
-0.020582
  0
VERTEX
  8
0
 10
619.355493
 20
2076.037197
 42
-0.021032
  0
VERTEX
  8
0
 10
628.172137
 20
2078.857342
 42
-0.269172
  0
VERTEX
  8
0
 10
631.397579
 20
2078.004983
 42
-0.177295
  0
VERTEX
  8
0
 10
632.510997
 20
2075.612787
 42
-0.011228
  0
VERTEX
  8
0
 10
633.000715
 20
2067.752001
 42
-0.017365
  0
VERTEX
  8
0
 10
633.041087
 20
2059.735966
 42
-0.044914
  0
VERTEX
  8
0
 10
632.352602
 20
2054.000000
 42
-0.015228
  0
VERTEX
  8
0
 10
631.021942
 20
2048.554911
 42
-0.028227
  0
VERTEX
  8
0
 10
629.562651
 20
2044.246421
 42
-0.027577
  0
VERTEX
  8
0
 10
627.603239
 20
2040.064352
 42
-0.013821
  0
VERTEX
  8
0
 10
624.697299
 20
2035.000000
 42
0.017832
  0
VERTEX
  8
0
 10
622.555023
 20
2031.196177
 42
0.039804
  0
VERTEX
  8
0
 10
621.270034
 20
2028.137189
 42
0.037287
  0
VERTEX
  8
0
 10
620.438744
 20
2024.792181
 42
0.013938
  0
VERTEX
  8
0
 10
619.757708
 20
2020.000000
 42
-0.018168
  0
VERTEX
  8
0
 10
618.824749
 20
2013.811412
 42
-0.032361
  0
VERTEX
  8
0
 10
617.547559
 20
2008.823283
 42
-0.040043
  0
VERTEX
  8
0
 10
615.962729
 20
2005.026254
 42
-0.090189
  0
VERTEX
  8
0
 10
614.068614
 20
2002.562095
 42
-0.088764
  0
VERTEX
  8
0
 10
613.093835
 20
2001.952993
 42
-0.040485
  0
VERTEX
  8
0
 10
611.654401
 20
2001.506920
 42
-0.035504
  0
VERTEX
  8
0
 10
609.901892
 20
2001.244553
 42
-0.026882
  0
VERTEX
  8
0
 10
607.957124
 20
2001.198111
 42
0.017304
  0
VERTEX
  8
0
 10
601.185624
 20
2001.166093
 42
0.002649
  0
VERTEX
  8
0
 10
587.716614
 20
2000.564576
 42
0.003205
  0
VERTEX
  8
0
 10
573.490659
 20
1999.762289
 42
0.006005
  0
VERTEX
  8
0
 10
562.000000
 20
1998.901691
 42
-0.013332
  0
VERTEX
  8
0
 10
555.063226
 20
1998.484264
 42
-0.001809
  0
VERTEX
  8
0
 10
540.512500
 20
1998.050193
 42
-0.002083
  0
VERTEX
  8
0
 10
523.263723
 20
1997.669991
 42
-0.001756
  0
VERTEX
  8
0
 10
505.000000
 20
1997.407682
 42
0.001698
  0
VERTEX
  8
0
 10
483.570380
 20
1997.102367
 42
0.004311
  0
VERTEX
  8
0
 10
468.010939
 20
1996.693596
 42
0.005351
  0
VERTEX
  8
0
 10
456.689776
 20
1996.177108
 42
0.023178
  0
VERTEX
  8
0
 10
450.000000
 20
1995.488052
 42
0.002438
  0
VERTEX
  8
0
 10
440.449701
 20
1994.006903
 42
0.002863
  0
VERTEX
  8
0
 10
431.413229
 20
1992.507159
 42
0.003076
  0
VERTEX
  8
0
 10
423.080832
 20
1991.022360
 42
0.004316
  0
VERTEX
  8
0
 10
415.662032
 20
1989.586888
 42
-0.010314
  0
VERTEX
  8
0
 10
412.306472
 20
1988.979277
 42
-0.008497
  0
VERTEX
  8
0
 10
408.704755
 20
1988.466148
 42
-0.008601
  0
VERTEX
  8
0
 10
405.381234
 20
1988.108086
 42
-0.022534
  0
VERTEX
  8
0
 10
402.984195
 20
1988.000000
 42
0.034348
  0
VERTEX
  8
0
 10
400.501575
 20
1987.829251
 42
0.010833
  0
VERTEX
  8
0
 10
396.827652
 20
1987.240107
 42
0.010763
  0
VERTEX
  8
0
 10
392.746222
 20
1986.403425
 42
0.011742
  0
VERTEX
  8
0
 10
388.822163
 20
1985.413130
 42
-0.005671
  0
VERTEX
  8
0
 10
380.220920
 20
1983.131057
 42
-0.017739
  0
VERTEX
  8
0
 10
374.371234
 20
1981.868771
 42
-0.017112
  0
VERTEX
  8
0
 10
368.337645
 20
1981.001066
 42
-0.004991
  0
VERTEX
  8
0
 10
359.000000
 20
1980.077100
 42
0.011525
  0
VERTEX
  8
0
 10
348.006307
 20
1978.844012
 42
0.049474
  0
VERTEX
  8
0
 10
341.603415
 20
1977.320394
 42
0.087096
  0
VERTEX
  8
0
 10
337.583126
 20
1975.091447
 42
0.105151
  0
VERTEX
  8
0
 10
334.869908
 20
1971.744998
 42
-0.027214
  0
VERTEX
  8
0
 10
333.828154
 20
1969.951249
 42
-0.016074
  0
VERTEX
  8
0
 10
332.403471
 20
1967.924598
 42
-0.016057
  0
VERTEX
  8
0
 10
330.846184
 20
1965.986882
 42
-0.026400
  0
VERTEX
  8
0
 10
329.394802
 20
1964.465557
 42
0.026484
  0
VERTEX
  8
0
 10
327.657432
 20
1962.643849
 42
0.066968
  0
VERTEX
  8
0
 10
326.663788
 20
1961.110602
 42
0.073409
  0
VERTEX
  8
0
 10
326.161659
 20
1959.456495
 42
0.037059
  0
VERTEX
  8
0
 10
326.000000
 20
1957.278399
 42
-0.065944
  0
VERTEX
  8
0
 10
325.660374
 20
1954.714509
 42
-0.021834
  0
VERTEX
  8
0
 10
324.510768
 20
1951.088989
 42
-0.016488
  0
VERTEX
  8
0
 10
322.579672
 20
1946.305513
 42
-0.006631
  0
VERTEX
  8
0
 10
319.640910
 20
1939.896476
 42
0.002329
  0
VERTEX
  8
0
 10
317.149083
 20
1934.583275
 42
0.003045
  0
VERTEX
  8
0
 10
314.922984
 20
1929.700840
 42
0.002252
  0
VERTEX
  8
0
 10
313.101633
 20
1925.591350
 42
0.028288
  0
VERTEX
  8
0
 10
312.509674
 20
1924.000000
 42
-0.024014
  0
VERTEX
  8
0
 10
311.927192
 20
1922.392232
 42
-0.001814
  0
VERTEX
  8
0
 10
310.125584
 20
1918.121875
 42
-0.002499
  0
VERTEX
  8
0
 10
307.931682
 20
1913.044417
 42
-0.001899
  0
VERTEX
  8
0
 10
305.477913
 20
1907.500000
 42
0.004700
  0
VERTEX
  8
0
 10
299.927287
 20
1894.765788
 42
0.002446
  0
VERTEX
  8
0
 10
293.230883
 20
1878.783178
 42
0.000446
  0
VERTEX
  8
0
 10
286.332084
 20
1862.046639
 42
0.097832
  0
VERTEX
  8
0
 10
286.000000
 20
1860.365675
 42
-0.099609
  0
VERTEX
  8
0
 10
285.893032
 20
1859.834062
 42
-0.001477
  0
VERTEX
  8
0
 10
284.647031
 20
1856.887652
 42
-0.003954
  0
VERTEX
  8
0
 10
283.159327
 20
1853.473558
 42
-0.002594
  0
VERTEX
  8
0
 10
281.394149
 20
1849.563339
 42
0.003553
  0
VERTEX
  8
0
 10
275.933990
 20
1837.405868
 42
0.007843
  0
VERTEX
  8
0
 10
271.977670
 20
1828.030775
 42
0.008148
  0
VERTEX
  8
0
 10
268.409578
 20
1818.758565
 42
0.004151
  0
VERTEX
  8
0
 10
264.213720
 20
1807.000000
 42
-0.002985
  0
VERTEX
  8
0
 10
263.525691
 20
1805.057549
 42
-0.002282
  0
VERTEX
  8
0
 10
262.750671
 20
1802.940625
 42
-0.002307
  0
VERTEX
  8
0
 10
262.006637
 20
1800.964695
 42
-0.005441
  0
VERTEX
  8
0
 10
261.429042
 20
1799.500000
 42
0.002628
  0
VERTEX
  8
0
 10
259.689976
 20
1795.161667
 42
0.002189
  0
VERTEX
  8
0
 10
257.886051
 20
1790.532900
 42
0.002166
  0
VERTEX
  8
0
 10
256.287012
 20
1786.321821
 42
0.006965
  0
VERTEX
  8
0
 10
255.274067
 20
1783.500000
 42
-0.009826
  0
VERTEX
  8
0
 10
254.559823
 20
1781.545526
 42
-0.000727
  0
VERTEX
  8
0
 10
252.493279
 20
1776.240625
 42
-0.001010
  0
VERTEX
  8
0
 10
250.006303
 20
1769.921429
 42
-0.000766
  0
VERTEX
  8
0
 10
247.253885
 20
1763.000000
 42
0.002682
  0
VERTEX
  8
0
 10
244.374076
 20
1755.676606
 42
0.002494
  0
VERTEX
  8
0
 10
241.501587
 20
1748.143750
 42
0.002486
  0
VERTEX
  8
0
 10
239.014402
 20
1741.420941
 42
0.008427
  0
VERTEX
  8
0
 10
237.487650
 20
1737.000000
 42
-0.006263
  0
VERTEX
  8
0
 10
236.081016
 20
1732.869026
 42
-0.002604
  0
VERTEX
  8
0
 10
234.082834
 20
1727.325000
 42
-0.002576
  0
VERTEX
  8
0
 10
231.880712
 20
1721.408009
 42
-0.003326
  0
VERTEX
  8
0
 10
229.795019
 20
1716.000000
 42
0.002027
  0
VERTEX
  8
0
 10
227.763998
 20
1710.774246
 42
0.001890
  0
VERTEX
  8
0
 10
225.727140
 20
1705.409375
 42
0.001882
  0
VERTEX
  8
0
 10
223.953445
 20
1700.629273
 42
0.006427
  0
VERTEX
  8
0
 10
222.851107
 20
1697.500000
 42
-0.004401
  0
VERTEX
  8
0
 10
221.973629
 20
1694.976472
 42
-0.003860
  0
VERTEX
  8
0
 10
221.013489
 20
1692.355624
 42
-0.003882
  0
VERTEX
  8
0
 10
220.109940
 20
1690.002694
 42
-0.011595
  0
VERTEX
  8
0
 10
219.442226
 20
1688.412764
 42
0.011126
  0
VERTEX
  8
0
 10
216.586104
 20
1681.629720
 42
0.004434
  0
VERTEX
  8
0
 10
212.961106
 20
1672.211543
 42
0.001577
  0
VERTEX
  8
0
 10
209.338884
 20
1662.452192
 42
0.088289
  0
VERTEX
  8
0
 10
209.000000
 20
1660.547965
 42
-0.082552
  0
VERTEX
  8
0
 10
208.844283
 20
1659.611242
 42
-0.011149
  0
VERTEX
  8
0
 10
208.155203
 20
1657.733749
 42
-0.012608
  0
VERTEX
  8
0
 10
207.225268
 20
1655.529751
 42
-0.010321
  0
VERTEX
  8
0
 10
206.124096
 20
1653.221483
 42
0.011309
  0
VERTEX
  8
0
 10
204.971666
 20
1650.793430
 42
0.010176
  0
VERTEX
  8
0
 10
203.887061
 20
1648.229367
 42
0.010257
  0
VERTEX
  8
0
 10
203.008483
 20
1645.890347
 42
0.031416
  0
VERTEX
  8
0
 10
202.547160
 20
1644.261468
 42
-0.021660
  0
VERTEX
  8
0
 10
202.211023
 20
1642.979805
 42
-0.025815
  0
VERTEX
  8
0
 10
201.780905
 20
1641.806674
 42
-0.025954
  0
VERTEX
  8
0
 10
201.323968
 20
1640.872546
 42
-0.128294
  0
VERTEX
  8
0
 10
200.923063
 20
1640.452451
 42
0.094058
  0
VERTEX
  8
0
 10
200.569552
 20
1640.128924
 42
0.052889
  0
VERTEX
  8
0
 10
200.271150
 20
1639.627041
 42
0.050197
  0
VERTEX
  8
0
 10
200.068473
 20
1639.036143
 42
0.057592
  0
VERTEX
  8
0
 10
200.000000
 20
1638.443651
 42
-0.083720
  0
VERTEX
  8
0
 10
199.851959
 20
1637.565710
 42
-0.008399
  0
VERTEX
  8
0
 10
199.118750
 20
1635.562673
 42
-0.010360
  0
VERTEX
  8
0
 10
198.148872
 20
1633.192528
 42
-0.008063
  0
VERTEX
  8
0
 10
197.000000
 20
1630.655825
 42
0.008752
  0
VERTEX
  8
0
 10
195.851207
 20
1628.109963
 42
0.011011
  0
VERTEX
  8
0
 10
194.881250
 20
1625.711898
 42
0.009270
  0
VERTEX
  8
0
 10
194.154065
 20
1623.680744
 42
0.081494
  0
VERTEX
  8
0
 10
194.000000
 20
1622.741771
 42
-0.080692
  0
VERTEX
  8
0
 10
193.838794
 20
1621.749380
 42
-0.006200
  0
VERTEX
  8
0
 10
192.948415
 20
1619.187345
 42
-0.008374
  0
VERTEX
  8
0
 10
191.791253
 20
1616.146512
 42
-0.006287
  0
VERTEX
  8
0
 10
190.420135
 20
1612.838615
 42
0.005740
  0
VERTEX
  8
0
 10
188.767302
 20
1608.863370
 42
0.002742
  0
VERTEX
  8
0
 10
186.729708
 20
1603.718218
 42
0.002717
  0
VERTEX
  8
0
 10
184.659931
 20
1598.320375
 42
0.003867
  0
VERTEX
  8
0
 10
182.884026
 20
1593.500000
 42
-0.003067
  0
VERTEX
  8
0
 10
181.152169
 20
1588.775906
 42
-0.002408
  0
VERTEX
  8
0
 10
179.218559
 20
1583.675000
 42
-0.002434
  0
VERTEX
  8
0
 10
177.374468
 20
1578.948833
 42
-0.005985
  0
VERTEX
  8
0
 10
175.961419
 20
1575.500000
 42
0.006026
  0
VERTEX
  8
0
 10
174.825425
 20
1572.726718
 42
0.008086
  0
VERTEX
  8
0
 10
173.867151
 20
1570.185077
 42
0.005865
  0
VERTEX
  8
0
 10
173.127410
 20
1568.043916
 42
0.080894
  0
VERTEX
  8
0
 10
172.997528
 20
1567.236431
 42
-0.054803
  0
VERTEX
  8
0
 10
172.930415
 20
1566.614771
 42
-0.020194
  0
VERTEX
  8
0
 10
172.705524
 20
1565.760522
 42
-0.019732
  0
VERTEX
  8
0
 10
172.382618
 20
1564.839669
 42
-0.022418
  0
VERTEX
  8
0
 10
172.000000
 20
1563.986431
 42
-0.000000
  0
VERTEX
  8
0
 10
171.544770
 20
1563.082149
 42
-0.000000
  0
VERTEX
  8
0
 10
171.000000
 20
1562.000000
 42
0.000000
  0
VERTEX
  8
0
 10
170.455230
 20
1560.917851
 42
0.000000
  0
VERTEX
  8
0
 10
170.000000
 20
1560.013569
 42
0.037365
  0
VERTEX
  8
0
 10
169.616623
 20
1559.085345
 42
0.022126
  0
VERTEX
  8
0
 10
169.293750
 20
1557.931041
 42
0.022065
  0
VERTEX
  8
0
 10
169.072377
 20
1556.743996
 42
0.035077
  0
VERTEX
  8
0
 10
169.000000
 20
1555.713569
 42
-0.034885
  0
VERTEX
  8
0
 10
168.933259
 20
1554.758136
 42
-0.032765
  0
VERTEX
  8
0
 10
168.734169
 20
1553.800548
 42
-0.034448
  0
VERTEX
  8
0
 10
168.442970
 20
1552.975671
 42
-0.088452
  0
VERTEX
  8
0
 10
168.095043
 20
1552.450000
 42
0.098684
  0
VERTEX
  8
0
 10
167.587887
 20
1551.648910
 42
0.001928
  0
VERTEX
  8
0
 10
165.847911
 20
1547.079062
 42
0.004549
  0
VERTEX
  8
0
 10
163.879333
 20
1541.700304
 42
0.003026
  0
VERTEX
  8
0
 10
161.716023
 20
1535.500000
 42
-0.003382
  0
VERTEX
  8
0
 10
159.420014
 20
1528.934376
 42
-0.003439
  0
VERTEX
  8
0
 10
157.048092
 20
1522.437500
 42
-0.003343
  0
VERTEX
  8
0
 10
154.909460
 20
1516.817470
 42
-0.014169
  0
VERTEX
  8
0
 10
153.512176
 20
1513.500000
 42
0.008588
  0
VERTEX
  8
0
 10
152.371337
 20
1510.873707
 42
0.006407
  0
VERTEX
  8
0
 10
151.200479
 20
1507.940625
 42
0.006480
  0
VERTEX
  8
0
 10
150.167960
 20
1505.147062
 42
0.014628
  0
VERTEX
  8
0
 10
149.475884
 20
1503.000000
 42
-0.009570
  0
VERTEX
  8
0
 10
147.296006
 20
1495.995368
 42
-0.007263
  0
VERTEX
  8
0
 10
144.648426
 20
1488.399075
 42
-0.007370
  0
VERTEX
  8
0
 10
141.859801
 20
1481.093372
 42
-0.012063
  0
VERTEX
  8
0
 10
139.258377
 20
1475.000000
 42
0.001166
  0
VERTEX
  8
0
 10
137.891350
 20
1471.981867
 42
0.001371
  0
VERTEX
  8
0
 10
136.610606
 20
1469.115625
 42
0.001202
  0
VERTEX
  8
0
 10
135.540976
 20
1466.688385
 42
0.008515
  0
VERTEX
  8
0
 10
135.044630
 20
1465.500000
 42
-0.000969
  0
VERTEX
  8
0
 10
134.654190
 20
1464.524021
 42
-0.000402
  0
VERTEX
  8
0
 10
134.122820
 20
1463.206250
 42
-0.000398
  0
VERTEX
  8
0
 10
133.551132
 20
1461.795000
 42
-0.000513
  0
VERTEX
  8
0
 10
133.023788
 20
1460.500000
 42
0.005954
  0
VERTEX
  8
0
 10
132.352558
 20
1458.798895
 42
0.001181
  0
VERTEX
  8
0
 10
131.194786
 20
1455.737500
 42
0.001250
  0
VERTEX
  8
0
 10
129.863783
 20
1452.165645
 42
0.001163
  0
VERTEX
  8
0
 10
128.517944
 20
1448.500000
 42
-0.006549
  0
VERTEX
  8
0
 10
126.024492
 20
1441.928301
 42
-0.003760
  0
VERTEX
  8
0
 10
122.855481
 20
1434.068625
 42
-0.002373
  0
VERTEX
  8
0
 10
118.269824
 20
1423.085794
 42
-0.000620
  0
VERTEX
  8
0
 10
110.803318
 20
1405.500000
 42
-0.003283
  0
VERTEX
  8
0
 10
109.515231
 20
1402.530827
 42
-0.002750
  0
VERTEX
  8
0
 10
108.110756
 20
1399.397466
 42
-0.002774
  0
VERTEX
  8
0
 10
106.795337
 20
1396.547571
 42
-0.007611
  0
VERTEX
  8
0
 10
105.825034
 20
1394.555202
 42
0.009617
  0
VERTEX
  8
0
 10
104.833413
 20
1392.498139
 42
0.003020
  0
VERTEX
  8
0
 10
103.427359
 20
1389.382437
 42
0.003016
  0
VERTEX
  8
0
 10
101.899728
 20
1385.885344
 42
0.003335
  0
VERTEX
  8
0
 10
100.465633
 20
1382.485293
 42
-0.004769
  0
VERTEX
  8
0
 10
98.885938
 20
1378.769842
 42
-0.002680
  0
VERTEX
  8
0
 10
96.900217
 20
1374.286133
 42
-0.002674
  0
VERTEX
  8
0
 10
94.846437
 20
1369.779712
 42
-0.004366
  0
VERTEX
  8
0
 10
93.051117
 20
1365.982989
 42
0.008038
  0
VERTEX
  8
0
 10
91.499680
 20
1362.638695
 42
0.010393
  0
VERTEX
  8
0
 10
90.190016
 20
1359.519300
 42
0.008342
  0
VERTEX
  8
0
 10
89.197782
 20
1356.883421
 42
0.086047
  0
VERTEX
  8
0
 10
89.000000
 20
1355.742662
 42
-0.091636
  0
VERTEX
  8
0
 10
88.544737
 20
1353.279441
 42
-0.003139
  0
VERTEX
  8
0
 10
84.966088
 20
1344.101958
 42
-0.006463
  0
VERTEX
  8
0
 10
80.941346
 20
1334.338674
 42
-0.008021
  0
VERTEX
  8
0
 10
76.935080
 20
1325.366904
 42
0.000250
  0
VERTEX
  8
0
 10
75.609379
 20
1322.517856
 42
0.000242
  0
VERTEX
  8
0
 10
74.271811
 20
1319.635903
 42
0.000238
  0
VERTEX
  8
0
 10
73.096956
 20
1317.098157
 42
0.000890
  0
VERTEX
  8
0
 10
72.361461
 20
1315.500000
 42
0.026157
  0
VERTEX
  8
0
 10
71.651972
 20
1313.709315
 42
0.004240
  0
VERTEX
  8
0
 10
70.486441
 20
1310.150000
 42
0.004668
  0
VERTEX
  8
0
 10
69.187762
 20
1305.931396
 42
0.004091
  0
VERTEX
  8
0
 10
67.908117
 20
1301.500000
 42
-0.007031
  0
VERTEX
  8
0
 10
65.917448
 20
1294.755359
 42
-0.013874
  0
VERTEX
  8
0
 10
64.113884
 20
1289.469320
 42
-0.014942
  0
VERTEX
  8
0
 10
62.113057
 20
1284.552024
 42
-0.009761
  0
VERTEX
  8
0
 10
59.527436
 20
1279.000000
 42
0.036123
  0
VERTEX
  8
0
 10
58.015490
 20
1275.248866
 42
0.026335
  0
VERTEX
  8
0
 10
56.866933
 20
1270.901081
 42
0.026412
  0
VERTEX
  8
0
 10
56.232565
 20
1266.781811
 42
0.074483
  0
VERTEX
  8
0
 10
56.374010
 20
1263.879950
 42
-0.039809
  0
VERTEX
  8
0
 10
56.547225
 20
1262.416596
 42
-0.021418
  0
VERTEX
  8
0
 10
56.538890
 20
1260.598554
 42
-0.021200
  0
VERTEX
  8
0
 10
56.371053
 20
1258.734746
 42
-0.031058
  0
VERTEX
  8
0
 10
56.053228
 20
1257.119615
 42
0.005427
  0
VERTEX
  8
0
 10
54.125277
 20
1249.426098
 42
0.003742
  0
VERTEX
  8
0
 10
52.101784
 20
1240.673609
 42
0.003000
  0
VERTEX
  8
0
 10
49.796839
 20
1230.053127
 42
0.001471
  0
VERTEX
  8
0
 10
46.982080
 20
1216.500000
 42
-0.010678
  0
VERTEX
  8
0
 10
46.317795
 20
1213.573201
 42
-0.004344
  0
VERTEX
  8
0
 10
45.294446
 20
1209.618750
 42
-0.004296
  0
VERTEX
  8
0
 10
44.120434
 20
1205.385122
 42
-0.005463
  0
VERTEX
  8
0
 10
42.960948
 20
1201.500000
 42
0.009620
  0
VERTEX
  8
0
 10
41.815674
 20
1197.542748
 42
0.006935
  0
VERTEX
  8
0
 10
40.684675
 20
1193.087500
 42
0.007007
  0
VERTEX
  8
0
 10
39.727023
 20
1188.819467
 42
0.015053
  0
VERTEX
  8
0
 10
39.134621
 20
1185.500000
 42
-0.003034
  0
VERTEX
  8
0
 10
37.711143
 20
1176.242353
 42
-0.007228
  0
VERTEX
  8
0
 10
36.512476
 20
1169.386619
 42
-0.009203
  0
VERTEX
  8
0
 10
35.323264
 20
1163.694344
 42
-0.009966
  0
VERTEX
  8
0
 10
33.953599
 20
1158.199656
 42
0.008495
  0
VERTEX
  8
0
 10
33.125192
 20
1154.917508
 42
0.005422
  0
VERTEX
  8
0
 10
32.268515
 20
1151.075763
 42
0.005446
  0
VERTEX
  8
0
 10
31.510310
 20
1147.290080
 42
0.010097
  0
VERTEX
  8
0
 10
30.990689
 20
1144.199656
 42
-0.002915
  0
VERTEX
  8
0
 10
29.613950
 20
1135.225052
 42
-0.003387
  0
VERTEX
  8
0
 10
28.196952
 20
1126.705866
 42
-0.003436
  0
VERTEX
  8
0
 10
26.890927
 20
1119.465735
 42
-0.013261
  0
VERTEX
  8
0
 10
25.930401
 20
1115.000000
 42
0.022689
  0
VERTEX
  8
0
 10
25.449157
 20
1112.537690
 42
0.005552
  0
VERTEX
  8
0
 10
24.886681
 20
1108.443750
 42
0.005677
  0
VERTEX
  8
0
 10
24.346911
 20
1103.732811
 42
0.005638
  0
VERTEX
  8
0
 10
23.912872
 20
1099.000000
 42
-0.002419
  0
VERTEX
  8
0
 10
22.705467
 20
1084.832205
 42
-0.009090
  0
VERTEX
  8
0
 10
21.743619
 20
1075.963751
 42
-0.014349
  0
VERTEX
  8
0
 10
20.777450
 20
1069.776805
 42
-0.029177
  0
VERTEX
  8
0
 10
19.598629
 20
1065.000000
 42
0.028806
  0
VERTEX
  8
0
 10
18.878872
 20
1062.092686
 42
0.008624
  0
VERTEX
  8
0
 10
18.116051
 20
1057.590625
 42
0.008616
  0
VERTEX
  8
0
 10
17.432772
 20
1052.497652
 42
0.009232
  0
VERTEX
  8
0
 10
16.943092
 20
1047.500000
 42
-0.003230
  0
VERTEX
  8
0
 10
15.996052
 20
1036.472030
 42
-0.007505
  0
VERTEX
  8
0
 10
15.108737
 20
1028.221558
 42
-0.005855
  0
VERTEX
  8
0
 10
14.275281
 20
1022.032266
 42
-0.102357
  0
VERTEX
  8
0
 10
13.583957
 20
1020.135846
 42
0.095048
  0
VERTEX
  8
0
 10
13.253534
 20
1019.268666
 42
0.005656
  0
VERTEX
  8
0
 10
12.795782
 20
1016.488947
 42
0.008344
  0
VERTEX
  8
0
 10
12.340619
 20
1013.143195
 42
0.006049
  0
VERTEX
  8
0
 10
11.941185
 20
1009.404237
 42
-0.009891
  0
VERTEX
  8
0
 10
11.479322
 20
1005.374287
 42
-0.008454
  0
VERTEX
  8
0
 10
10.837183
 20
1001.148366
 42
-0.008544
  0
VERTEX
  8
0
 10
10.122682
 20
997.326002
 42
-0.023909
  0
VERTEX
  8
0
 10
9.449376
 20
994.685695
 42
0.021391
  0
VERTEX
  8
0
 10
8.245937
 20
990.063773
 42
0.007658
  0
VERTEX
  8
0
 10
6.915298
 20
983.383958
 42
0.006289
  0
VERTEX
  8
0
 10
5.453074
 20
974.800586
 42
0.003220
  0
VERTEX
  8
0
 10
3.823852
 20
964.000000
 42
0.014245
  0
VERTEX
  8
0
 10
3.421224
 20
960.507867
 42
0.007573
  0
VERTEX
  8
0
 10
3.111767
 20
956.166181
 42
0.007531
  0
VERTEX
  8
0
 10
2.929448
 20
951.716074
 42
0.011602
  0
VERTEX
  8
0
 10
2.919118
 20
947.863593
 42
-0.014007
  0
VERTEX
  8
0
 10
2.890861
 20
944.091851
 42
-0.010134
  0
VERTEX
  8
0
 10
2.656544
 20
939.894826
 42
-0.010250
  0
VERTEX
  8
0
 10
2.271017
 20
935.913676
 42
-0.021878
  0
VERTEX
  8
0
 10
1.776338
 20
932.863593
 42
0.022217
  0
VERTEX
  8
0
 10
1.280003
 20
929.790136
 42
0.010030
  0
VERTEX
  8
0
 10
0.890141
 20
925.725556
 42
0.009907
  0
VERTEX
  8
0
 10
0.649362
 20
921.411277
 42
0.013342
  0
VERTEX
  8
0
 10
0.613159
 20
917.500000
 42
0.001251
  0
VERTEX
  8
0
 10
0.768597
 20
909.701081
 42
0.025702
  0
VERTEX
  8
0
 10
0.941959
 20
907.357004
 42
0.172495
  0
VERTEX
  8
0
 10
1.339782
 20
906.567678
 42
0.341379
  0
VERTEX
  8
0
 10
1.997948
 20
906.498732
 42
-0.225990
  0
VERTEX
  8
0
 10
3.088318
 20
906.618122
 42
-0.022995
  0
VERTEX
  8
0
 10
5.570111
 20
905.622734
 42
-0.027203
  0
VERTEX
  8
0
 10
8.363605
 20
904.161987
 42
-0.026704
  0
VERTEX
  8
0
 10
11.000000
 20
902.398325
 42
0.050840
  0
VERTEX
  8
0
 10
11.783518
 20
901.927172
 42
0.020222
  0
VERTEX
  8
0
 10
12.940625
 20
901.438820
 42
0.019765
  0
VERTEX
  8
0
 10
14.241419
 20
901.008613
 42
0.023476
  0
VERTEX
  8
0
 10
15.500000
 20
900.710025
 42
-0.017174
  0
VERTEX
  8
0
 10
16.865308
 20
900.404233
 42
-0.009676
  0
VERTEX
  8
0
 10
18.500000
 20
899.944713
 42
-0.009649
  0
VERTEX
  8
0
 10
20.133640
 20
899.416579
 42
-0.015571
  0
VERTEX
  8
0
 10
21.500000
 20
898.897410
 42
0.027355
  0
VERTEX
  8
0
 10
24.446959
 20
897.856425
 42
0.009072
  0
VERTEX
  8
0
 10
28.870252
 20
896.647859
 42
0.007898
  0
VERTEX
  8
0
 10
34.409722
 20
895.334588
 42
0.004793
  0
VERTEX
  8
0
 10
41.000000
 20
893.947857
 42
-0.012287
  0
VERTEX
  8
0
 10
43.635638
 20
893.351884
 42
-0.005432
  0
VERTEX
  8
0
 10
47.087500
 20
892.441675
 42
-0.005373
  0
VERTEX
  8
0
 10
50.726266
 20
891.397585
 42
-0.007205
  0
VERTEX
  8
0
 10
54.000000
 20
890.368434
 42
0.001005
  0
VERTEX
  8
0
 10
57.091406
 20
889.354311
 42
0.001014
  0
VERTEX
  8
0
 10
60.178125
 20
888.355517
 42
0.000988
  0
VERTEX
  8
0
 10
62.870753
 20
887.496134
 42
0.004107
  0
VERTEX
  8
0
 10
64.500000
 20
886.994373
 42
0.020179
  0
VERTEX
  8
0
 10
69.091241
 20
885.821124
 42
0.003484
  0
VERTEX
  8
0
 10
77.882761
 20
884.012759
 42
0.002186
  0
VERTEX
  8
0
 10
86.949834
 20
882.254643
 42
0.047119
  0
VERTEX
  8
0
 10
89.657084
 20
882.002184
 42
-0.092994
  0
VERTEX
  8
0
 10
90.812192
 20
881.786890
 42
-0.007289
  0
VERTEX
  8
0
 10
93.727841
 20
880.607772
 42
-0.009727
  0
VERTEX
  8
0
 10
97.181962
 20
879.072158
 42
-0.007284
  0
VERTEX
  8
0
 10
100.927056
 20
877.252184
 42
-0.043559
  0
VERTEX
  8
0
 10
110.467942
 20
871.350163
 42
-0.033408
  0
VERTEX
  8
0
 10
119.786076
 20
863.375892
 42
-0.032415
  0
VERTEX
  8
0
 10
128.262402
 20
853.930115
 42
-0.034112
  0
VERTEX
  8
0
 10
135.290171
 20
843.621242
 42
-0.015988
  0
VERTEX
  8
0
 10
143.009882
 20
829.429104
 42
-0.002691
  0
VERTEX
  8
0
 10
156.759761
 20
801.734227
 42
-0.001668
  0
VERTEX
  8
0
 10
170.682557
 20
773.066278
 42
-0.037503
  0
VERTEX
  8
0
 10
174.042621
 20
764.500000
 42
0.017201
  0
VERTEX
  8
0
 10
174.706757
 20
762.581288
 42
0.007329
  0
VERTEX
  8
0
 10
175.720732
 20
760.059375
 42
0.007242
  0
VERTEX
  8
0
 10
176.881754
 20
757.398494
 42
0.009439
  0
VERTEX
  8
0
 10
178.024986
 20
755.000000
 42
-0.012003
  0
VERTEX
  8
0
 10
179.186769
 20
752.530065
 42
-0.007982
  0
VERTEX
  8
0
 10
180.404730
 20
749.646875
 42
-0.008037
  0
VERTEX
  8
0
 10
181.497769
 20
746.809092
 42
-0.015529
  0
VERTEX
  8
0
 10
182.264340
 20
744.500000
 42
0.011110
  0
VERTEX
  8
0
 10
183.029663
 20
742.124679
 42
0.005087
  0
VERTEX
  8
0
 10
184.128098
 20
739.059375
 42
0.005035
  0
VERTEX
  8
0
 10
185.350483
 20
735.854027
 42
0.006925
  0
VERTEX
  8
0
 10
186.517816
 20
733.000000
 42
-0.005699
  0
VERTEX
  8
0
 10
187.633424
 20
730.291405
 42
-0.005513
  0
VERTEX
  8
0
 10
188.699728
 20
727.528125
 42
-0.005457
  0
VERTEX
  8
0
 10
189.584734
 20
725.075794
 42
-0.020128
  0
VERTEX
  8
0
 10
190.063864
 20
723.500000
 42
0.023774
  0
VERTEX
  8
0
 10
190.599680
 20
721.782843
 42
0.003998
  0
VERTEX
  8
0
 10
191.806689
 20
718.556565
 42
0.004367
  0
VERTEX
  8
0
 10
193.289879
 20
714.785546
 42
0.003866
  0
VERTEX
  8
0
 10
194.899064
 20
710.884052
 42
-0.012995
  0
VERTEX
  8
0
 10
196.633162
 20
706.451842
 42
-0.007525
  0
VERTEX
  8
0
 10
198.497502
 20
701.042474
 42
-0.007517
  0
VERTEX
  8
0
 10
200.205281
 20
695.557001
 42
-0.012528
  0
VERTEX
  8
0
 10
201.457030
 20
690.884052
 42
0.000017
  0
VERTEX
  8
0
 10
202.495667
 20
686.578440
 42
0.000017
  0
VERTEX
  8
0
 10
203.545329
 20
682.228440
 42
0.000017
  0
VERTEX
  8
0
 10
204.468945
 20
678.401928
 42
0.000063
  0
VERTEX
  8
0
 10
205.049109
 20
676.000000
 42
-0.042870
  0
VERTEX
  8
0
 10
206.963851
 20
663.453083
 42
-0.010837
  0
VERTEX
  8
0
 10
207.874046
 20
642.816516
 42
-0.010535
  0
VERTEX
  8
0
 10
207.901547
 20
622.237771
 42
-0.048140
  0
VERTEX
  8
0
 10
206.519734
 20
610.372665
 42
0.017676
  0
VERTEX
  8
0
 10
205.886252
 20
606.826928
 42
0.005759
  0
VERTEX
  8
0
 10
205.197168
 20
601.553220
 42
0.005731
  0
VERTEX
  8
0
 10
204.565836
 20
595.672581
 42
0.006429
  0
VERTEX
  8
0
 10
204.096056
 20
590.000000
 42
-0.010165
  0
VERTEX
  8
0
 10
203.493627
 20
583.331706
 42
-0.011032
  0
VERTEX
  8
0
 10
202.632968
 20
576.873699
 42
-0.011289
  0
VERTEX
  8
0
 10
201.510634
 20
570.603857
 42
-0.011894
  0
VERTEX
  8
0
 10
200.123289
 20
564.500000
 42
0.001202
  0
VERTEX
  8
0
 10
198.819836
 20
559.283917
 42
0.000898
  0
VERTEX
  8
0
 10
197.407167
 20
553.528125
 42
0.000907
  0
VERTEX
  8
0
 10
196.095869
 20
548.100776
 42
0.002071
  0
VERTEX
  8
0
 10
195.130905
 20
544.000000
 42
-0.008462
  0
VERTEX
  8
0
 10
194.159681
 20
540.097035
 42
-0.004652
  0
VERTEX
  8
0
 10
192.846169
 20
535.353125
 42
-0.004636
  0
VERTEX
  8
0
 10
191.423601
 20
530.563158
 42
-0.007399
  0
VERTEX
  8
0
 10
190.109677
 20
526.500000
 42
0.003758
  0
VERTEX
  8
0
 10
186.848174
 20
516.659498
 42
0.009700
  0
VERTEX
  8
0
 10
184.685799
 20
509.495055
 42
0.011966
  0
VERTEX
  8
0
 10
183.348950
 20
504.255049
 42
0.056526
  0
VERTEX
  8
0
 10
183.000000
 20
501.178284
 42
-0.046849
  0
VERTEX
  8
0
 10
182.717429
 20
498.169151
 42
-0.007734
  0
VERTEX
  8
0
 10
181.542160
 20
492.451521
 42
-0.006187
  0
VERTEX
  8
0
 10
179.614679
 20
484.240562
 42
-0.001944
  0
VERTEX
  8
0
 10
176.530425
 20
472.000000
 42
0.002326
  0
VERTEX
  8
0
 10
175.479420
 20
467.815355
 42
0.001625
  0
VERTEX
  8
0
 10
174.331616
 20
463.087500
 42
0.001639
  0
VERTEX
  8
0
 10
173.260906
 20
458.548166
 42
0.003408
  0
VERTEX
  8
0
 10
172.461706
 20
455.000000
 42
-0.005413
  0
VERTEX
  8
0
 10
171.670511
 20
451.551948
 42
-0.002985
  0
VERTEX
  8
0
 10
170.632510
 20
447.353125
 42
-0.002975
  0
VERTEX
  8
0
 10
169.529092
 20
443.107550
 42
-0.004771
  0
VERTEX
  8
0
 10
168.531587
 20
439.500000
 42
0.001715
  0
VERTEX
  8
0
 10
167.571110
 20
436.107216
 42
0.001469
  0
VERTEX
  8
0
 10
166.582472
 20
432.528125
 42
0.001480
  0
VERTEX
  8
0
 10
165.703353
 20
429.270784
 42
0.004237
  0
VERTEX
  8
0
 10
165.118262
 20
427.000000
 42
-0.001915
  0
VERTEX
  8
0
 10
163.137286
 20
419.161185
 42
-0.002243
  0
VERTEX
  8
0
 10
161.196534
 20
411.741825
 42
-0.002436
  0
VERTEX
  8
0
 10
159.413034
 20
405.175245
 42
-0.004858
  0
VERTEX
  8
0
 10
157.926038
 20
400.000000
 42
0.012965
  0
VERTEX
  8
0
 10
157.111309
 20
396.980871
 42
0.007111
  0
VERTEX
  8
0
 10
156.262557
 20
393.245510
 42
0.007083
  0
VERTEX
  8
0
 10
155.508100
 20
389.426491
 42
0.011227
  0
VERTEX
  8
0
 10
154.982032
 20
386.133651
 42
-0.006140
  0
VERTEX
  8
0
 10
154.549390
 20
383.236713
 42
-0.008274
  0
VERTEX
  8
0
 10
154.082420
 20
380.627229
 42
-0.005954
  0
VERTEX
  8
0
 10
153.631313
 20
378.463406
 42
-0.084232
  0
VERTEX
  8
0
 10
153.334749
 20
377.732619
 42
0.102572
  0
VERTEX
  8
0
 10
153.051868
 20
376.955600
 42
0.004333
  0
VERTEX
  8
0
 10
152.652098
 20
374.035302
 42
0.007302
  0
VERTEX
  8
0
 10
152.256596
 20
370.543278
 42
0.005114
  0
VERTEX
  8
0
 10
151.908808
 20
366.598967
 42
-0.001604
  0
VERTEX
  8
0
 10
151.528222
 20
361.906427
 42
-0.000848
  0
VERTEX
  8
0
 10
151.027624
 20
356.088447
 42
-0.000844
  0
VERTEX
  8
0
 10
150.495306
 20
350.137700
 42
-0.001306
  0
VERTEX
  8
0
 10
150.013439
 20
345.000000
 42
0.016567
  0
VERTEX
  8
0
 10
149.448719
 20
336.047591
 42
0.014338
  0
VERTEX
  8
0
 10
149.437510
 20
326.633964
 42
0.012675
  0
VERTEX
  8
0
 10
149.990849
 20
316.170324
 42
0.008034
  0
VERTEX
  8
0
 10
151.140227
 20
304.011452
 42
-0.016690
  0
VERTEX
  8
0
 10
151.597227
 20
298.083502
 42
-0.001812
  0
VERTEX
  8
0
 10
152.144763
 20
284.381801
 42
-0.002220
  0
VERTEX
  8
0
 10
152.665269
 20
268.058755
 42
-0.001789
  0
VERTEX
  8
0
 10
153.084025
 20
250.511452
 42
0.000366
  0
VERTEX
  8
0
 10
154.557246
 20
180.415750
 42
0.002192
  0
VERTEX
  8
0
 10
155.511122
 20
143.919985
 42
0.003713
  0
VERTEX
  8
0
 10
156.364040
 20
121.450977
 42
0.018969
  0
VERTEX
  8
0
 10
157.403633
 20
109.000000
 42
-0.000501
  0
VERTEX
  8
0
 10
158.058129
 20
103.582730
 42
-0.000379
  0
VERTEX
  8
0
 10
158.765890
 20
97.636682
 42
-0.000383
  0
VERTEX
  8
0
 10
159.421824
 20
92.053487
 42
-0.000893
  0
VERTEX
  8
0
 10
159.902542
 20
87.869556
 42
0.049871
  0
VERTEX
  8
0
 10
162.251859
 20
76.968591
 42
0.019740
  0
VERTEX
  8
0
 10
167.533884
 20
62.561138
 42
0.019842
  0
VERTEX
  8
0
 10
174.222389
 20
47.998499
 42
0.032375
  0
VERTEX
  8
0
 10
181.149569
 20
36.309033
 42
0.039631
  0
VERTEX
  8
0
 10
185.747884
 20
30.610012
 42
0.010012
  0
VERTEX
  8
0
 10
194.114602
 20
22.121208
 42
0.008417
  0
VERTEX
  8
0
 10
202.742688
 20
13.989597
 42
0.066901
  0
VERTEX
  8
0
 10
207.239052
 20
10.878045
 42
-0.021096
  0
VERTEX
  8
0
 10
208.755384
 20
10.022032
 42
-0.024321
  0
VERTEX
  8
0
 10
210.121321
 20
9.077994
 42
-0.024425
  0
VERTEX
  8
0
 10
211.186262
 20
8.176957
 42
-0.113820
  0
VERTEX
  8
0
 10
211.632865
 20
7.514354
 42
0.212800
  0
VERTEX
  8
0
 10
213.243056
 20
5.905304
 42
0.016457
  0
VERTEX
  8
0
 10
219.150719
 20
3.863351
 42
0.023218
  0
VERTEX
  8
0
 10
225.484484
 20
2.222764
 42
0.049709
  0
VERTEX
  8
0
 10
230.500000
 20
1.680557
 42
0.023443
  0
VERTEX
  8
0
 10
232.970533
 20
1.775785
 42
0.009057
  0
VERTEX
  8
0
 10
236.381250
 20
2.130120
 42
0.008944
  0
VERTEX
  8
0
 10
240.070692
 20
2.648237
 42
0.010923
  0
VERTEX
  8
0
 10
243.500000
 20
3.269616
 42
-0.003326
  0
VERTEX
  8
0
 10
247.107385
 20
3.980025
 42
-0.002061
  0
VERTEX
  8
0
 10
251.353125
 20
4.768725
 42
-0.002067
  0
VERTEX
  8
0
 10
255.551749
 20
5.512866
 42
-0.003726
  0
VERTEX
  8
0
 10
259.000000
 20
6.082890
 42
0.020645
  0
VERTEX
  8
0
 10
268.845682
 20
8.054717
 42
0.014647
  0
VERTEX
  8
0
 10
279.708128
 20
11.040340
 42
0.014262
  0
VERTEX
  8
0
 10
289.577646
 20
14.377350
 42
0.047313
  0
VERTEX
  8
0
 10
295.745130
 20
17.349912
 42
-0.019093
  0
VERTEX
  8
0
 10
298.362498
 20
18.798521
 42
-0.012485
  0
VERTEX
  8
0
 10
301.480557
 20
20.275383
 42
-0.012564
  0
VERTEX
  8
0
 10
304.596047
 20
21.564218
 42
-0.023407
  0
VERTEX
  8
0
 10
307.188680
 20
22.424301
 42
0.013769
  0
VERTEX
  8
0
 10
309.462728
 20
23.130357
 42
0.015790
  0
VERTEX
  8
0
 10
311.591511
 20
23.932024
 42
0.015022
  0
VERTEX
  8
0
 10
313.343683
 20
24.718235
 42
0.082079
  0
VERTEX
  8
0
 10
314.188680
 20
25.315903
 42
-0.039788
  0
VERTEX
  8
0
 10
314.959525
 20
25.965003
 42
-0.009129
  0
VERTEX
  8
0
 10
316.363237
 20
26.929620
 42
-0.009381
  0
VERTEX
  8
0
 10
318.026753
 20
27.984317
 42
-0.009026
  0
VERTEX
  8
0
 10
319.750000
 20
28.989935
 42
0.009453
  0
VERTEX
  8
0
 10
321.378894
 20
29.942359
 42
0.014397
  0
VERTEX
  8
0
 10
322.752252
 20
30.835864
 42
0.008921
  0
VERTEX
  8
0
 10
323.844778
 20
31.621500
 42
0.235562
  0
VERTEX
  8
0
 10
324.002346
 20
31.934141
 42
-0.152042
  0
VERTEX
  8
0
 10
324.114453
 20
32.289096
 42
-0.006661
  0
VERTEX
  8
0
 10
324.878367
 20
33.356846
 42
-0.010778
  0
VERTEX
  8
0
 10
325.840637
 20
34.607289
 42
-0.007435
  0
VERTEX
  8
0
 10
326.981249
 20
35.982781
 42
-0.034604
  0
VERTEX
  8
0
 10
328.983185
 20
38.021202
 42
-0.092809
  0
VERTEX
  8
0
 10
330.720452
 20
39.062949
 42
-0.059670
  0
VERTEX
  8
0
 10
333.133939
 20
39.643022
 42
-0.008430
  0
VERTEX
  8
0
 10
338.228903
 20
40.153265
 42
-0.016893
  0
VERTEX
  8
0
 10
349.452118
 20
40.705565
 42
-0.004392
  0
VERTEX
  8
0
 10
367.527303
 20
40.824921
 42
-0.004028
  0
VERTEX
  8
0
 10
385.475885
 20
40.641173
 42
-0.022928
  0
VERTEX
  8
0
 10
395.000000
 20
40.029452
 42
-0.005691
  0
VERTEX
  8
0
 10
403.370114
 20
39.008549
 42
-0.008005
  0
VERTEX
  8
0
 10
410.809232
 20
37.893649
 42
-0.006082
  0
VERTEX
  8
0
 10
416.913992
 20
36.802079
 42
-0.076298
  0
VERTEX
  8
0
 10
419.117140
 20
36.019267
 42
0.060548
  0
VERTEX
  8
0
 10
420.199451
 20
35.596044
 42
0.005519
  0
VERTEX
  8
0
 10
423.015461
 20
34.904623
 42
0.007082
  0
VERTEX
  8
0
 10
426.405665
 20
34.162273
 42
0.005485
  0
VERTEX
  8
0
 10
430.117140
 20
33.446817
 42
-0.004363
  0
VERTEX
  8
0
 10
434.234146
 20
32.662768
 42
-0.003065
  0
VERTEX
  8
0
 10
438.854540
 20
31.711519
 42
-0.003092
  0
VERTEX
  8
0
 10
443.266673
 20
30.746369
 42
-0.006466
  0
VERTEX
  8
0
 10
446.685550
 20
29.929714
 42
0.008610
  0
VERTEX
  8
0
 10
450.132608
 20
29.121937
 42
0.003972
  0
VERTEX
  8
0
 10
454.643340
 20
28.183966
 42
0.003933
  0
VERTEX
  8
0
 10
459.402822
 20
27.272518
 42
0.005446
  0
VERTEX
  8
0
 10
463.685550
 20
26.535361
 42
-0.003570
  0
VERTEX
  8
0
 10
470.279446
 20
25.425852
 42
-0.010174
  0
VERTEX
  8
0
 10
474.847294
 20
24.527507
 42
-0.010039
  0
VERTEX
  8
0
 10
479.407888
 20
23.437460
 42
-0.003400
  0
VERTEX
  8
0
 10
486.000000
 20
21.673296
 42
0.008518
  0
VERTEX
  8
0
 10
488.434106
 20
21.048517
 42
0.005899
  0
VERTEX
  8
0
 10
491.206250
 20
20.421570
 42
0.005951
  0
VERTEX
  8
0
 10
493.884526
 20
19.882230
 42
0.012157
  0
VERTEX
  8
0
 10
496.000000
 20
19.535399
 42
-0.008614
  0
VERTEX
  8
0
 10
498.148177
 20
19.198818
 42
-0.003938
  0
VERTEX
  8
0
 10
500.940625
 20
18.689173
 42
-0.003898
  0
VERTEX
  8
0
 10
503.873929
 20
18.106176
 42
-0.005364
  0
VERTEX
  8
0
 10
506.500000
 20
17.533483
 42
0.029583
  0
VERTEX
  8
0
 10
527.287351
 20
14.044376
 42
0.019630
  0
VERTEX
  8
0
 10
551.424536
 20
12.403060
 42
0.014542
  0
VERTEX
  8
0
 10
582.215524
 20
12.416653
 42
0.005759
  0
VERTEX
  8
0
 10
624.500000
 20
14.152991
 42
-0.000008
  0
VERTEX
  8
0
 10
632.670336
 20
14.582669
 42
-0.000008
  0
VERTEX
  8
0
 10
640.681250
 20
15.003706
 42
-0.000008
  0
VERTEX
  8
0
 10
647.579657
 20
15.366049
 42
-0.000038
  0
VERTEX
  8
0
 10
651.500000
 20
15.571609
 42
0.001849
  0
VERTEX
  8
0
 10
668.044217
 20
16.499183
 42
0.003057
  0
VERTEX
  8
0
 10
682.005132
 20
17.419402
 42
0.002167
  0
VERTEX
  8
0
 10
693.263651
 20
18.279712
 42
0.035471
  0
VERTEX
  8
0
 10
697.000000
 20
18.850188
 42
-0.031660
  0
VERTEX
  8
0
 10
698.987693
 20
19.169179
 42
-0.006384
  0
VERTEX
  8
0
 10
702.556250
 20
19.466260
 42
-0.006716
  0
VERTEX
  8
0
 10
706.723422
 20
19.703447
 42
-0.006235
  0
VERTEX
  8
0
 10
711.000000
 20
19.835863
 42
0.009740
  0
VERTEX
  8
0
 10
715.675337
 20
20.013431
 42
0.006363
  0
VERTEX
  8
0
 10
721.059375
 20
20.391828
 42
0.006400
  0
VERTEX
  8
0
 10
726.300343
 20
20.894879
 42
0.012163
  0
VERTEX
  8
0
 10
730.500000
 20
21.455960
 42
-0.004971
  0
VERTEX
  8
0
 10
734.954046
 20
22.116358
 42
-0.001945
  0
VERTEX
  8
0
 10
741.113945
 20
22.942776
 42
-0.001925
  0
VERTEX
  8
0
 10
747.785663
 20
23.785343
 42
-0.002395
  0
VERTEX
  8
0
 10
753.994281
 20
24.514981
 42
0.003509
  0
VERTEX
  8
0
 10
763.708746
 20
25.678572
 42
0.009997
  0
VERTEX
  8
0
 10
770.448572
 20
26.671171
 42
0.010681
  0
VERTEX
  8
0
 10
776.894781
 20
27.894707
 42
0.004507
  0
VERTEX
  8
0
 10
785.500000
 20
29.800483
 42
-0.004580
  0
VERTEX
  8
0
 10
788.234107
 20
30.405577
 42
-0.006686
  0
VERTEX
  8
0
 10
790.654167
 20
30.884245
 42
-0.003566
  0
VERTEX
  8
0
 10
792.701878
 20
31.245809
 42
-0.109541
  0
VERTEX
  8
0
 10
793.216312
 20
31.219769
 42
0.101027
  0
VERTEX
  8
0
 10
793.761404
 20
31.182965
 42
0.001423
  0
VERTEX
  8
0
 10
797.036791
 20
31.633848
 42
0.003899
  0
VERTEX
  8
0
 10
800.839988
 20
32.198695
 42
0.002551
  0
VERTEX
  8
0
 10
805.216312
 20
32.906472
 42
-0.001842
  0
VERTEX
  8
0
 10
810.367983
 20
33.747140
 42
-0.001068
  0
VERTEX
  8
0
 10
816.563542
 20
34.721169
 42
-0.001067
  0
VERTEX
  8
0
 10
822.779881
 20
35.671276
 42
-0.001798
  0
VERTEX
  8
0
 10
828.000000
 20
36.438530
 42
0.005011
  0
VERTEX
  8
0
 10
832.622871
 20
37.148376
 42
0.005827
  0
VERTEX
  8
0
 10
837.003125
 20
37.918489
 42
0.005217
  0
VERTEX
  8
0
 10
840.691569
 20
38.651303
 42
0.034456
  0
VERTEX
  8
0
 10
842.500000
 20
39.162414
 42
-0.012821
  0
VERTEX
  8
0
 10
844.025745
 20
39.665806
 42
-0.004536
  0
VERTEX
  8
0
 10
846.234375
 20
40.310415
 42
-0.004499
  0
VERTEX
  8
0
 10
848.674333
 20
40.974937
 42
-0.005275
  0
VERTEX
  8
0
 10
851.000000
 20
41.559748
 42
0.006150
  0
VERTEX
  8
0
 10
853.433692
 20
42.176252
 42
0.004102
  0
VERTEX
  8
0
 10
856.206250
 20
42.939419
 42
0.004130
  0
VERTEX
  8
0
 10
858.883297
 20
43.723932
 42
0.008081
  0
VERTEX
  8
0
 10
861.000000
 20
44.400784
 42
-0.012789
  0
VERTEX
  8
0
 10
863.149960
 20
45.066028
 42
-0.006130
  0
VERTEX
  8
0
 10
865.940625
 20
45.815109
 42
-0.006073
  0
VERTEX
  8
0
 10
868.874175
 20
46.526279
 42
-0.008625
  0
VERTEX
  8
0
 10
871.500000
 20
47.081684
 42
0.013415
  0
VERTEX
  8
0
 10
878.162863
 20
48.557816
 42
0.001599
  0
VERTEX
  8
0
 10
892.814247
 20
52.268529
 42
0.001900
  0
VERTEX
  8
0
 10
907.446770
 20
56.083626
 42
0.008437
  0
VERTEX
  8
0
 10
916.000000
 20
58.503587
 42
-0.007208
  0
VERTEX
  8
0
 10
917.978565
 20
59.068637
 42
-0.005160
  0
VERTEX
  8
0
 10
920.206250
 20
59.645639
 42
-0.005211
  0
VERTEX
  8
0
 10
922.340182
 20
60.151369
 42
-0.011140
  0
VERTEX
  8
0
 10
924.000000
 20
60.487828
 42
0.011049
  0
VERTEX
  8
0
 10
925.486599
 20
60.788892
 42
0.009085
  0
VERTEX
  8
0
 10
927.059375
 20
61.173914
 42
0.009200
  0
VERTEX
  8
0
 10
928.491485
 20
61.580536
 42
0.023963
  0
VERTEX
  8
0
 10
929.500000
 20
61.940655
 42
-0.014085
  0
VERTEX
  8
0
 10
930.729994
 20
62.407448
 42
-0.001791
  0
VERTEX
  8
0
 10
933.409375
 20
63.328096
 42
-0.002098
  0
VERTEX
  8
0
 10
936.598921
 20
64.396373
 42
-0.001744
  0
VERTEX
  8
0
 10
940.000000
 20
65.506503
 42
0.002096
  0
VERTEX
  8
0
 10
943.437573
 20
66.631221
 42
0.002348
  0
VERTEX
  8
0
 10
946.737500
 20
67.743470
 42
0.002157
  0
VERTEX
  8
0
 10
949.538954
 20
68.715906
 42
0.012544
  0
VERTEX
  8
0
 10
951.000000
 20
69.271705
 42
-0.004860
  0
VERTEX
  8
0
 10
952.347176
 20
69.808027
 42
-0.001258
  0
VERTEX
  8
0
 10
954.528125
 20
70.645516
 42
-0.001279
  0
VERTEX
  8
0
 10
957.019531
 20
71.587742
 42
-0.001304
  0
VERTEX
  8
0
 10
959.500000
 20
72.511210
 42
0.001271
  0
VERTEX
  8
0
 10
962.265421
 20
73.540556
 42
0.000698
  0
VERTEX
  8
0
 10
965.646875
 20
74.814384
 42
0.000695
  0
VERTEX
  8
0
 10
969.075584
 20
76.116930
 42
0.001112
  0
VERTEX
  8
0
 10
972.000000
 20
77.240007
 42
-0.001459
  0
VERTEX
  8
0
 10
974.745222
 20
78.292077
 42
-0.001281
  0
VERTEX
  8
0
 10
977.618750
 20
79.375295
 42
-0.001287
  0
VERTEX
  8
0
 10
980.217979
 20
80.339898
 42
-0.003862
  0
VERTEX
  8
0
 10
982.000000
 20
80.980428
 42
0.003573
  0
VERTEX
  8
0
 10
987.040837
 20
82.789011
 42
0.001366
  0
VERTEX
  8
0
 10
994.030976
 20
85.375195
 42
0.000928
  0
VERTEX
  8
0
 10
1000.902956
 20
87.953574
 42
0.011408
  0
VERTEX
  8
0
 10
1003.500000
 20
89.001779
 42
-0.015099
  0
VERTEX
  8
0
 10
1004.760962
 20
89.499931
 42
-0.001643
  0
VERTEX
  8
0
 10
1007.703125
 20
90.549818
 42
-0.002012
  0
VERTEX
  8
0
 10
1011.215887
 20
91.774453
 42
-0.001622
  0
VERTEX
  8
0
 10
1015.000000
 20
93.062923
 42
0.001802
  0
VERTEX
  8
0
 10
1025.752050
 20
96.728258
 42
0.003542
  0
VERTEX
  8
0
 10
1034.271898
 20
99.734662
 42
0.004407
  0
VERTEX
  8
0
 10
1041.094767
 20
102.264927
 42
0.008514
  0
VERTEX
  8
0
 10
1046.500000
 20
104.429924
 42
-0.013578
  0
VERTEX
  8
0
 10
1048.987899
 20
105.397301
 42
-0.013966
  0
VERTEX
  8
0
 10
1051.501562
 20
106.218486
 42
-0.013819
  0
VERTEX
  8
0
 10
1053.716271
 20
106.808105
 42
-0.055916
  0
VERTEX
  8
0
 10
1055.101061
 20
106.976265
 42
0.063269
  0
VERTEX
  8
0
 10
1056.426861
 20
107.157012
 42
0.018987
  0
VERTEX
  8
0
 10
1058.377123
 20
107.759948
 42
0.018703
  0
VERTEX
  8
0
 10
1060.534608
 20
108.609709
 42
0.019261
  0
VERTEX
  8
0
 10
1062.601061
 20
109.610792
 42
-0.013165
  0
VERTEX
  8
0
 10
1065.258305
 20
110.938307
 42
-0.003454
  0
VERTEX
  8
0
 10
1069.585937
 20
112.923455
 42
-0.003506
  0
VERTEX
  8
0
 10
1074.546484
 20
115.115879
 42
-0.003586
  0
VERTEX
  8
0
 10
1079.500000
 20
117.221727
 42
-0.001642
  0
VERTEX
  8
0
 10
1086.738232
 20
120.209892
 42
-0.002393
  0
VERTEX
  8
0
 10
1093.138442
 20
122.791846
 42
-0.001989
  0
VERTEX
  8
0
 10
1100.374086
 20
125.637339
 42
-0.000754
  0
VERTEX
  8
0
 10
1110.500000
 20
129.555450
 42
-0.016919
  0
VERTEX
  8
0
 10
1112.694887
 20
130.316719
 42
-0.002698
  0
VERTEX
  8
0
 10
1117.046377
 20
131.637209
 42
-0.002360
  0
VERTEX
  8
0
 10
1123.090190
 20
133.404680
 42
-0.000908
  0
VERTEX
  8
0
 10
1131.500000
 20
135.804513
 42
-0.023113
  0
VERTEX
  8
0
 10
1139.438785
 20
137.662813
 42
-0.011069
  0
VERTEX
  8
0
 10
1149.775400
 20
139.347732
 42
-0.010591
  0
VERTEX
  8
0
 10
1161.131762
 20
140.697109
 42
-0.011197
  0
VERTEX
  8
0
 10
1172.326218
 20
141.534809
 42
0.011386
  0
VERTEX
  8
0
 10
1178.027980
 20
141.963640
 42
0.012025
  0
VERTEX
  8
0
 10
1183.600957
 20
142.646303
 42
0.012492
  0
VERTEX
  8
0
 10
1188.912045
 20
143.563011
 42
0.015244
  0
VERTEX
  8
0
 10
1193.826218
 20
144.694911
 42
-0.004179
  0
VERTEX
  8
0
 10
1197.914878
 20
145.732441
 42
-0.003671
  0
VERTEX
  8
0
 10
1202.200514
 20
146.748616
 42
-0.003691
  0
VERTEX
  8
0
 10
1206.081840
 20
147.608768
 42
-0.011065
  0
VERTEX
  8
0
 10
1208.750000
 20
148.117976
 42
0.000073
  0
VERTEX
  8
0
 10
1211.139953
 20
148.519856
 42
0.000043
  0
VERTEX
  8
0
 10
1214.000000
 20
149.001461
 42
0.000043
  0
VERTEX
  8
0
 10
1216.860042
 20
149.483567
 42
0.000073
  0
VERTEX
  8
0
 10
1219.250000
 20
149.886999
 42
0.006184
  0
VERTEX
  8
0
 10
1227.225505
 20
151.336148
 42
0.006117
  0
VERTEX
  8
0
 10
1235.191765
 20
152.987019
 42
0.006405
  0
VERTEX
  8
0
 10
1242.329612
 20
154.653658
 42
0.014883
  0
VERTEX
  8
0
 10
1247.622466
 20
156.129656
 42
-0.014541
  0
VERTEX
  8
0
 10
1250.078530
 20
156.816379
 42
-0.018178
  0
VERTEX
  8
0
 10
1252.394832
 20
157.303325
 42
-0.016587
  0
VERTEX
  8
0
 10
1254.336987
 20
157.572433
 42
-0.118277
  0
VERTEX
  8
0
 10
1255.271315
 20
157.449381
 42
0.066987
  0
VERTEX
  8
0
 10
1255.900946
 20
157.300207
 42
0.072387
  0
VERTEX
  8
0
 10
1256.530571
 20
157.328975
 42
0.081074
  0
VERTEX
  8
0
 10
1257.063844
 20
157.524829
 42
0.126532
  0
VERTEX
  8
0
 10
1257.414712
 20
157.862001
 42
-0.148741
  0
VERTEX
  8
0
 10
1257.982986
 20
158.362334
 42
-0.008027
  0
VERTEX
  8
0
 10
1260.203084
 20
159.328668
 42
-0.011958
  0
VERTEX
  8
0
 10
1262.927475
 20
160.387132
 42
-0.008395
  0
VERTEX
  8
0
 10
1266.040598
 20
161.452973
 42
0.008290
  0
VERTEX
  8
0
 10
1269.596418
 20
162.669552
 42
0.005362
  0
VERTEX
  8
0
 10
1273.672411
 20
164.189624
 42
0.005390
  0
VERTEX
  8
0
 10
1277.624648
 20
165.761147
 42
0.010147
  0
VERTEX
  8
0
 10
1280.774736
 20
167.128525
 42
-0.005810
  0
VERTEX
  8
0
 10
1288.766318
 20
170.680168
 42
-0.005967
  0
VERTEX
  8
0
 10
1296.767723
 20
174.012792
 42
-0.006323
  0
VERTEX
  8
0
 10
1304.175220
 20
176.886517
 42
-0.011462
  0
VERTEX
  8
0
 10
1310.314550
 20
179.020349
 42
0.017635
  0
VERTEX
  8
0
 10
1313.104781
 20
180.028917
 42
0.016972
  0
VERTEX
  8
0
 10
1315.853559
 20
181.243473
 42
0.017174
  0
VERTEX
  8
0
 10
1318.199909
 20
182.477987
 42
0.057243
  0
VERTEX
  8
0
 10
1319.601383
 20
183.506378
 42
-0.045474
  0
VERTEX
  8
0
 10
1320.939120
 20
184.537171
 42
-0.016040
  0
VERTEX
  8
0
 10
1323.025675
 20
185.769720
 42
-0.015770
  0
VERTEX
  8
0
 10
1325.418204
 20
186.984884
 42
-0.017852
  0
VERTEX
  8
0
 10
1327.786832
 20
187.993896
 42
0.005852
  0
VERTEX
  8
0
 10
1330.338689
 20
189.009332
 42
0.003691
  0
VERTEX
  8
0
 10
1333.294723
 20
190.251464
 42
0.003705
  0
VERTEX
  8
0
 10
1336.183349
 20
191.515865
 42
0.006799
  0
VERTEX
  8
0
 10
1338.514353
 20
192.595090
 42
-0.011259
  0
VERTEX
  8
0
 10
1340.550480
 20
193.515827
 42
-0.013198
  0
VERTEX
  8
0
 10
1342.521826
 20
194.293558
 42
-0.012169
  0
VERTEX
  8
0
 10
1344.212034
 20
194.863147
 42
-0.075318
  0
VERTEX
  8
0
 10
1345.115384
 20
195.000000
 42
0.048389
  0
VERTEX
  8
0
 10
1346.160998
 20
195.101430
 42
0.003164
  0
VERTEX
  8
0
 10
1349.143797
 20
195.705244
 42
0.004573
  0
VERTEX
  8
0
 10
1352.693769
 20
196.481244
 42
0.003396
  0
VERTEX
  8
0
 10
1356.601031
 20
197.400831
 42
-0.004336
  0
VERTEX
  8
0
 10
1360.903091
 20
198.404806
 42
-0.003267
  0
VERTEX
  8
0
 10
1365.648428
 20
199.436408
 42
-0.003302
  0
VERTEX
  8
0
 10
1370.122346
 20
200.347618
 42
-0.007614
  0
VERTEX
  8
0
 10
1373.500000
 20
200.959075
 42
0.028013
  0
VERTEX
  8
0
 10
1378.853652
 20
202.155544
 42
0.023291
  0
VERTEX
  8
0
 10
1384.388065
 20
204.004696
 42
0.023802
  0
VERTEX
  8
0
 10
1389.558099
 20
206.292597
 42
0.035704
  0
VERTEX
  8
0
 10
1393.800229
 20
208.810142
 42
-0.015108
  0
VERTEX
  8
0
 10
1395.207047
 20
209.725352
 42
-0.005012
  0
VERTEX
  8
0
 10
1397.322567
 20
210.983491
 42
-0.004985
  0
VERTEX
  8
0
 10
1399.696308
 20
212.331698
 42
-0.005649
  0
VERTEX
  8
0
 10
1402.000000
 20
213.576082
 42
0.011191
  0
VERTEX
  8
0
 10
1404.696131
 20
215.071286
 42
0.004284
  0
VERTEX
  8
0
 10
1408.381250
 20
217.266741
 42
0.004240
  0
VERTEX
  8
0
 10
1412.342696
 20
219.719272
 42
0.005197
  0
VERTEX
  8
0
 10
1416.000000
 20
222.080125
 42
-0.005562
  0
VERTEX
  8
0
 10
1419.765235
 20
224.506749
 42
-0.003893
  0
VERTEX
  8
0
 10
1424.059375
 20
227.160678
 42
-0.003928
  0
VERTEX
  8
0
 10
1428.214080
 20
229.639476
 42
-0.008166
  0
VERTEX
  8
0
 10
1431.500000
 20
231.493681
 42
0.004084
  0
VERTEX
  8
0
 10
1439.508873
 20
235.927191
 42
0.002922
  0
VERTEX
  8
0
 10
1448.397480
 20
241.011701
 42
0.002479
  0
VERTEX
  8
0
 10
1456.465997
 20
245.743498
 42
0.015385
  0
VERTEX
  8
0
 10
1460.516785
 20
248.317832
 42
0.031735
  0
VERTEX
  8
0
 10
1464.947876
 20
251.759254
 42
0.010216
  0
VERTEX
  8
0
 10
1471.071461
 20
257.398231
 42
0.007799
  0
VERTEX
  8
0
 10
1476.913624
 20
263.180561
 42
0.074493
  0
VERTEX
  8
0
 10
1478.964155
 20
266.015269
 42
-0.021567
  0
VERTEX
  8
0
 10
1479.601453
 20
267.126653
 42
-0.012160
  0
VERTEX
  8
0
 10
1480.463883
 20
268.420036
 42
-0.012120
  0
VERTEX
  8
0
 10
1481.399198
 20
269.685077
 42
-0.019404
  0
VERTEX
  8
0
 10
1482.264060
 20
270.712513
 42
0.018922
  0
VERTEX
  8
0
 10
1483.117844
 20
271.724809
 42
0.012704
  0
VERTEX
  8
0
 10
1484.018659
 20
272.941261
 42
0.012806
  0
VERTEX
  8
0
 10
1484.831879
 20
274.165351
 42
0.024578
  0
VERTEX
  8
0
 10
1485.408805
 20
275.192806
 42
-0.051398
  0
VERTEX
  8
0
 10
1486.014459
 20
276.147778
 42
-0.031385
  0
VERTEX
  8
0
 10
1486.906108
 20
277.142819
 42
-0.031238
  0
VERTEX
  8
0
 10
1487.924734
 20
278.027140
 42
-0.047534
  0
VERTEX
  8
0
 10
1488.918342
 20
278.646609
 42
0.061706
  0
VERTEX
  8
0
 10
1490.011417
 20
279.371768
 42
0.022722
  0
VERTEX
  8
0
 10
1491.362611
 20
280.641782
 42
0.022114
  0
VERTEX
  8
0
 10
1492.727986
 20
282.177642
 42
0.024757
  0
VERTEX
  8
0
 10
1493.898635
 20
283.773208
 42
-0.000386
  0
VERTEX
  8
0
 10
1495.093100
 20
285.579559
 42
-0.000218
  0
VERTEX
  8
0
 10
1496.543661
 20
287.767440
 42
-0.000218
  0
VERTEX
  8
0
 10
1498.008447
 20
289.972595
 42
-0.000358
  0
VERTEX
  8
0
 10
1499.250000
 20
291.837020
 42
0.014960
  0
VERTEX
  8
0
 10
1500.302839
 20
293.522747
 42
0.017692
  0
VERTEX
  8
0
 10
1501.192188
 20
295.178182
 42
0.016736
  0
VERTEX
  8
0
 10
1501.840139
 20
296.613149
 42
0.097979
  0
VERTEX
  8
0
 10
1502.000000
 20
297.421111
 42
-0.054689
  0
VERTEX
  8
0
 10
1502.065762
 20
298.020555
 42
-0.049319
  0
VERTEX
  8
0
 10
1502.260450
 20
298.613807
 42
-0.052423
  0
VERTEX
  8
0
 10
1502.546970
 20
299.113755
 42
-0.098331
  0
VERTEX
  8
0
 10
1502.886637
 20
299.429938
 42
0.154372
  0
VERTEX
  8
0
 10
1503.445021
 20
300.078401
 42
0.030914
  0
VERTEX
  8
0
 10
1503.964197
 20
301.533292
 42
0.017380
  0
VERTEX
  8
0
 10
1504.585396
 20
304.005285
 42
0.003018
  0
VERTEX
  8
0
 10
1505.567762
 20
308.720436
 42
-0.051806
  0
VERTEX
  8
0
 10
1505.806670
 20
309.484935
 42
-0.004253
  0
VERTEX
  8
0
 10
1506.650434
 20
311.400472
 42
-0.005666
  0
VERTEX
  8
0
 10
1507.704664
 20
313.670644
 42
-0.004333
  0
VERTEX
  8
0
 10
1508.907177
 20
316.130158
 42
0.010460
  0
VERTEX
  8
0
 10
1510.091388
 20
318.629387
 42
0.012705
  0
VERTEX
  8
0
 10
1511.091483
 20
321.020350
 42
0.011310
  0
VERTEX
  8
0
 10
1511.831268
 20
323.058766
 42
0.081560
  0
VERTEX
  8
0
 10
1512.000000
 20
324.086282
 42
-0.087715
  0
VERTEX
  8
0
 10
1512.192962
 20
325.177760
 42
-0.007904
  0
VERTEX
  8
0
 10
1513.189304
 20
327.779122
 42
-0.010079
  0
VERTEX
  8
0
 10
1514.498124
 20
330.859827
 42
-0.007707
  0
VERTEX
  8
0
 10
1516.048695
 20
334.176560
 42
0.002504
  0
VERTEX
  8
0
 10
1519.549424
 20
341.466060
 42
0.006945
  0
VERTEX
  8
0
 10
1521.913857
 20
346.637686
 42
0.009381
  0
VERTEX
  8
0
 10
1523.681957
 20
350.864715
 42
0.010502
  0
VERTEX
  8
0
 10
1525.221534
 20
355.000000
 42
-0.014898
  0
VERTEX
  8
0
 10
1528.139133
 20
362.630823
 42
-0.009830
  0
VERTEX
  8
0
 10
1531.923230
 20
371.227802
 42
-0.007552
  0
VERTEX
  8
0
 10
1537.010824
 20
381.775868
 42
-0.003291
  0
VERTEX
  8
0
 10
1544.068450
 20
395.632230
 42
0.003247
  0
VERTEX
  8
0
 10
1548.425452
 20
404.184540
 42
0.003837
  0
VERTEX
  8
0
 10
1552.431373
 20
412.331040
 42
0.003359
  0
VERTEX
  8
0
 10
1555.712838
 20
419.254135
 42
0.024112
  0
VERTEX
  8
0
 10
1557.110746
 20
422.677383
 42
-0.000095
  0
VERTEX
  8
0
 10
1558.063679
 20
425.374154
 42
-0.000051
  0
VERTEX
  8
0
 10
1559.239635
 20
428.698981
 42
-0.000051
  0
VERTEX
  8
0
 10
1560.439094
 20
432.088063
 42
-0.000080
  0
VERTEX
  8
0
 10
1561.470540
 20
435.000000
 42
-0.012525
  0
VERTEX
  8
0
 10
1563.565284
 20
440.471496
 42
-0.006193
  0
VERTEX
  8
0
 10
1566.483777
 20
447.315800
 42
-0.005553
  0
VERTEX
  8
0
 10
1570.036700
 20
455.133710
 42
-0.004198
  0
VERTEX
  8
0
 10
1574.104461
 20
463.640075
 42
-0.020577
  0
VERTEX
  8
0
 10
1575.547266
 20
466.308947
 42
-0.013578
  0
VERTEX
  8
0
 10
1577.411758
 20
469.257230
 42
-0.013672
  0
VERTEX
  8
0
 10
1579.384539
 20
472.029959
 42
-0.025607
  0
VERTEX
  8
0
 10
1581.150868
 20
474.140075
 42
0.046174
  0
VERTEX
  8
0
 10
1585.565171
 20
479.876689
 42
0.035326
  0
VERTEX
  8
0
 10
1589.313203
 20
486.853768
 42
0.028088
  0
VERTEX
  8
0
 10
1592.727614
 20
495.757808
 42
0.013520
  0
VERTEX
  8
0
 10
1596.141981
 20
507.500000
 42
-0.017310
  0
VERTEX
  8
0
 10
1597.612056
 20
512.416407
 42
-0.007523
  0
VERTEX
  8
0
 10
1599.888221
 20
518.846668
 42
-0.007439
  0
VERTEX
  8
0
 10
1602.327152
 20
525.132251
 42
-0.020002
  0
VERTEX
  8
0
 10
1604.303986
 20
529.500000
 42
0.013095
  0
VERTEX
  8
0
 10
1605.134229
 20
531.268946
 42
0.009480
  0
VERTEX
  8
0
 10
1605.969407
 20
533.279688
 42
0.009586
  0
VERTEX
  8
0
 10
1606.690326
 20
535.221170
 42
0.020533
  0
VERTEX
  8
0
 10
1607.155406
 20
536.750000
 42
-0.002372
  0
VERTEX
  8
0
 10
1608.458886
 20
541.669794
 42
-0.003530
  0
VERTEX
  8
0
 10
1609.650434
 20
545.961806
 42
-0.002632
  0
VERTEX
  8
0
 10
1611.133336
 20
551.058706
 42
-0.000740
  0
VERTEX
  8
0
 10
1613.501998
 20
559.000000
 42
0.002969
  0
VERTEX
  8
0
 10
1616.575219
 20
569.473699
 42
0.004944
  0
VERTEX
  8
0
 10
1619.023936
 20
578.335799
 42
0.005848
  0
VERTEX
  8
0
 10
1620.889740
 20
585.704195
 42
0.012152
  0
VERTEX
  8
0
 10
1622.137238
 20
591.500000
 42
-0.002418
  0
VERTEX
  8
0
 10
1622.567332
 20
593.706096
 42
-0.001657
  0
VERTEX
  8
0
 10
1623.075941
 20
596.206250
 42
-0.001670
  0
VERTEX
  8
0
 10
1623.581956
 20
598.611618
 42
-0.003386
  0
VERTEX
  8
0
 10
1623.999194
 20
600.500000
 42
0.001320
  0
VERTEX
  8
0
 10
1624.445916
 20
602.482898
 42
0.000510
  0
VERTEX
  8
0
 10
1625.055215
 20
605.234375
 42
0.000505
  0
VERTEX
  8
0
 10
1625.709647
 20
608.218344
 42
0.000624
  0
VERTEX
  8
0
 10
1626.313128
 20
611.000000
 42
-0.002703
  0
VERTEX
  8
0
 10
1626.928725
 20
613.781640
 42
-0.002176
  0
VERTEX
  8
0
 10
1627.619713
 20
616.765625
 42
-0.002198
  0
VERTEX
  8
0
 10
1628.282149
 20
619.516581
 42
-0.005633
  0
VERTEX
  8
0
 10
1628.792756
 20
621.500000
 42
0.012600
  0
VERTEX
  8
0
 10
1629.288444
 20
623.542949
 42
0.004316
  0
VERTEX
  8
0
 10
1629.906285
 20
626.526381
 42
0.004286
  0
VERTEX
  8
0
 10
1630.531668
 20
629.831607
 42
0.004942
  0
VERTEX
  8
0
 10
1631.069784
 20
632.994064
 42
-0.014649
  0
VERTEX
  8
0
 10
1631.692013
 20
636.265499
 42
-0.010325
  0
VERTEX
  8
0
 10
1632.574356
 20
639.904115
 42
-0.010432
  0
VERTEX
  8
0
 10
1633.563611
 20
643.351957
 42
-0.021493
  0
VERTEX
  8
0
 10
1634.507912
 20
645.994064
 42
0.020933
  0
VERTEX
  8
0
 10
1635.487839
 20
648.726198
 42
0.008613
  0
VERTEX
  8
0
 10
1636.595318
 20
652.502230
 42
0.008504
  0
VERTEX
  8
0
 10
1637.646332
 20
656.600214
 42
0.010804
  0
VERTEX
  8
0
 10
1638.469785
 20
660.417781
 42
-0.004955
  0
VERTEX
  8
0
 10
1639.188263
 20
663.948565
 42
-0.006361
  0
VERTEX
  8
0
 10
1639.922519
 20
667.180741
 42
-0.004982
  0
VERTEX
  8
0
 10
1640.597677
 20
669.868946
 42
-0.053498
  0
VERTEX
  8
0
 10
1640.995969
 20
670.917781
 42
0.060506
  0
VERTEX
  8
0
 10
1641.369288
 20
671.943823
 42
0.006712
  0
VERTEX
  8
0
 10
1641.901575
 20
674.385223
 42
0.008098
  0
VERTEX
  8
0
 10
1642.451082
 20
677.320827
 42
0.006475
  0
VERTEX
  8
0
 10
1642.950768
 20
680.500000
 42
-0.007602
  0
VERTEX
  8
0
 10
1643.491857
 20
683.892751
 42
-0.006383
  0
VERTEX
  8
0
 10
1644.165805
 20
687.471875
 42
-0.006448
  0
VERTEX
  8
0
 10
1644.865395
 20
690.725711
 42
-0.017610
  0
VERTEX
  8
0
 10
1645.470141
 20
693.000000
 42
0.039385
  0
VERTEX
  8
0
 10
1647.186931
 20
700.809979
 42
0.006637
  0
VERTEX
  8
0
 10
1649.085949
 20
715.999555
 42
0.007772
  0
VERTEX
  8
0
 10
1650.659495
 20
732.416178
 42
0.012374
  0
VERTEX
  8
0
 10
1651.438679
 20
746.500000
 42
-0.005887
  0
VERTEX
  8
0
 10
1651.806034
 20
755.180227
 42
-0.016529
  0
VERTEX
  8
0
 10
1652.335210
 20
761.238522
 42
-0.020848
  0
VERTEX
  8
0
 10
1653.178436
 20
766.402161
 42
-0.015676
  0
VERTEX
  8
0
 10
1654.518165
 20
772.000000
 42
0.002128
  0
VERTEX
  8
0
 10
1655.687157
 20
776.359177
 42
0.001207
  0
VERTEX
  8
0
 10
1657.067407
 20
781.646875
 42
0.001205
  0
VERTEX
  8
0
 10
1658.432698
 20
786.982435
 42
0.001985
  0
VERTEX
  8
0
 10
1659.558017
 20
791.500000
 42
-0.000820
  0
VERTEX
  8
0
 10
1660.601689
 20
795.731830
 42
-0.000705
  0
VERTEX
  8
0
 10
1661.712653
 20
800.178125
 42
-0.000710
  0
VERTEX
  8
0
 10
1662.732329
 20
804.210498
 42
-0.002051
  0
VERTEX
  8
0
 10
1663.454130
 20
807.000000
 42
0.004658
  0
VERTEX
  8
0
 10
1664.052228
 20
809.362139
 42
0.003748
  0
VERTEX
  8
0
 10
1664.652551
 20
811.912500
 42
0.003788
  0
VERTEX
  8
0
 10
1665.171676
 20
814.277151
 42
0.009678
  0
VERTEX
  8
0
 10
1665.501542
 20
816.000000
 42
-0.002719
  0
VERTEX
  8
0
 10
1667.226851
 20
825.743283
 42
-0.003570
  0
VERTEX
  8
0
 10
1668.913896
 20
834.618722
 42
-0.003780
  0
VERTEX
  8
0
 10
1670.433135
 20
842.016816
 42
-0.013271
  0
VERTEX
  8
0
 10
1671.573106
 20
846.743855
 42
0.013322
  0
VERTEX
  8
0
 10
1672.768840
 20
851.704308
 42
0.009808
  0
VERTEX
  8
0
 10
1673.838044
 20
857.255329
 42
0.007905
  0
VERTEX
  8
0
 10
1674.883337
 20
863.951300
 42
0.003887
  0
VERTEX
  8
0
 10
1676.012042
 20
872.500000
 42
-0.009412
  0
VERTEX
  8
0
 10
1677.114655
 20
880.194946
 42
-0.004208
  0
VERTEX
  8
0
 10
1678.840748
 20
890.276983
 42
-0.003473
  0
VERTEX
  8
0
 10
1681.173291
 20
902.746528
 42
-0.001900
  0
VERTEX
  8
0
 10
1684.196590
 20
918.000000
 42
0.002006
  0
VERTEX
  8
0
 10
1685.389018
 20
924.022854
 42
0.001934
  0
VERTEX
  8
0
 10
1686.547994
 20
930.128931
 42
0.001911
  0
VERTEX
  8
0
 10
1687.527603
 20
935.515816
 42
0.007059
  0
VERTEX
  8
0
 10
1688.085112
 20
938.928274
 42
-0.007592
  0
VERTEX
  8
0
 10
1688.562306
 20
941.829717
 42
-0.004589
  0
VERTEX
  8
0
 10
1689.211111
 20
945.251813
 42
-0.004596
  0
VERTEX
  8
0
 10
1689.918056
 20
948.639315
 42
-0.008046
  0
VERTEX
  8
0
 10
1690.574084
 20
951.428274
 42
0.006583
  0
VERTEX
  8
0
 10
1691.263667
 20
954.321857
 42
0.003124
  0
VERTEX
  8
0
 10
1692.079580
 20
958.066431
 42
0.003095
  0
VERTEX
  8
0
 10
1692.884268
 20
961.993678
 42
0.004381
  0
VERTEX
  8
0
 10
1693.548244
 20
965.500000
 42
-0.004913
  0
VERTEX
  8
0
 10
1694.215109
 20
969.001185
 42
-0.003494
  0
VERTEX
  8
0
 10
1695.028470
 20
972.912500
 42
-0.003527
  0
VERTEX
  8
0
 10
1695.857117
 20
976.634351
 42
-0.007494
  0
VERTEX
  8
0
 10
1696.561766
 20
979.500000
 42
0.005275
  0
VERTEX
  8
0
 10
1697.228806
 20
982.161723
 42
0.003578
  0
VERTEX
  8
0
 10
1697.934728
 20
985.206250
 42
0.003605
  0
VERTEX
  8
0
 10
1698.574303
 20
988.156650
 42
0.007206
  0
VERTEX
  8
0
 10
1699.029473
 20
990.500000
 42
-0.004705
  0
VERTEX
  8
0
 10
1699.446534
 20
992.706062
 42
-0.003208
  0
VERTEX
  8
0
 10
1699.960308
 20
995.206250
 42
-0.003233
  0
VERTEX
  8
0
 10
1700.486935
 20
997.611404
 42
-0.006509
  0
VERTEX
  8
0
 10
1700.939190
 20
999.500000
 42
0.019231
  0
VERTEX
  8
0
 10
1701.329403
 20
1001.334352
 42
0.011281
  0
VERTEX
  8
0
 10
1701.661697
 20
1003.554314
 42
0.011274
  0
VERTEX
  8
0
 10
1701.894131
 20
1005.792613
 42
0.018809
  0
VERTEX
  8
0
 10
1701.976143
 20
1007.684900
 42
-0.022272
  0
VERTEX
  8
0
 10
1702.067066
 20
1009.493244
 42
-0.016782
  0
VERTEX
  8
0
 10
1702.321822
 20
1011.467422
 42
-0.017053
  0
VERTEX
  8
0
 10
1702.687698
 20
1013.310174
 42
-0.037111
  0
VERTEX
  8
0
 10
1703.119421
 20
1014.684900
 42
0.040500
  0
VERTEX
  8
0
 10
1703.605366
 20
1016.269729
 42
0.009238
  0
VERTEX
  8
0
 10
1704.158022
 20
1019.023064
 42
0.009500
  0
VERTEX
  8
0
 10
1704.677707
 20
1022.230772
 42
0.009118
  0
VERTEX
  8
0
 10
1705.083129
 20
1025.500000
 42
-0.001252
  0
VERTEX
  8
0
 10
1705.484047
 20
1029.209862
 42
-0.000669
  0
VERTEX
  8
0
 10
1705.997238
 20
1033.793750
 42
-0.000666
  0
VERTEX
  8
0
 10
1706.533686
 20
1038.472418
 42
-0.001039
  0
VERTEX
  8
0
 10
1707.009396
 20
1042.500000
 42
0.002457
  0
VERTEX
  8
0
 10
1707.489407
 20
1046.665359
 42
0.001331
  0
VERTEX
  8
0
 10
1708.041069
 20
1051.793750
 42
0.001325
  0
VERTEX
  8
0
 10
1708.574907
 20
1057.017204
 42
0.002094
  0
VERTEX
  8
0
 10
1709.002099
 20
1061.500000
 42
0.018522
  0
VERTEX
  8
0
 10
1709.708978
 20
1074.630527
 42
0.003968
  0
VERTEX
  8
0
 10
1709.909992
 20
1097.451972
 42
0.003121
  0
VERTEX
  8
0
 10
1709.786848
 20
1120.385835
 42
0.033023
  0
VERTEX
  8
0
 10
1709.061561
 20
1129.709569
 42
-0.023280
  0
VERTEX
  8
0
 10
1708.755539
 20
1132.851131
 42
-0.013755
  0
VERTEX
  8
0
 10
1708.668690
 20
1136.619073
 42
-0.013061
  0
VERTEX
  8
0
 10
1708.792791
 20
1140.675705
 42
-0.013165
  0
VERTEX
  8
0
 10
1709.128497
 20
1144.709569
 42
0.010449
  0
VERTEX
  8
0
 10
1709.552930
 20
1149.494937
 42
0.002537
  0
VERTEX
  8
0
 10
1710.048472
 20
1157.414384
 42
0.002601
  0
VERTEX
  8
0
 10
1710.523524
 20
1166.504168
 42
0.002586
  0
VERTEX
  8
0
 10
1710.904992
 20
1175.615994
 42
-0.002481
  0
VERTEX
  8
0
 10
1711.261134
 20
1184.165896
 42
-0.003859
  0
VERTEX
  8
0
 10
1711.661608
 20
1191.532505
 42
-0.001197
  0
VERTEX
  8
0
 10
1712.072715
 20
1197.905178
 42
-0.122294
  0
VERTEX
  8
0
 10
1712.341388
 20
1198.743360
 42
0.134985
  0
VERTEX
  8
0
 10
1712.598058
 20
1199.618706
 42
0.000303
  0
VERTEX
  8
0
 10
1712.821883
 20
1213.373353
 42
0.001985
  0
VERTEX
  8
0
 10
1713.003376
 20
1228.893081
 42
0.001229
  0
VERTEX
  8
0
 10
1713.099369
 20
1247.127366
 42
0.002536
  0
VERTEX
  8
0
 10
1713.031290
 20
1277.180438
 42
0.009347
  0
VERTEX
  8
0
 10
1712.536970
 20
1296.166854
 42
0.014647
  0
VERTEX
  8
0
 10
1711.545642
 20
1309.536099
 42
0.029233
  0
VERTEX
  8
0
 10
1709.838131
 20
1320.000000
 42
-0.016065
  0
VERTEX
  8
0
 10
1709.389333
 20
1322.358025
 42
-0.004840
  0
VERTEX
  8
0
 10
1708.857390
 20
1325.968750
 42
-0.004845
  0
VERTEX
  8
0
 10
1708.338869
 20
1330.032833
 42
-0.005246
  0
VERTEX
  8
0
 10
1707.913881
 20
1334.000000
 42
0.003563
  0
VERTEX
  8
0
 10
1705.774032
 20
1354.630404
 42
0.006019
  0
VERTEX
  8
0
 10
1703.649419
 20
1371.884959
 42
0.007090
  0
VERTEX
  8
0
 10
1701.556887
 20
1385.850017
 42
0.017531
  0
VERTEX
  8
0
 10
1699.520811
 20
1396.000000
 42
-0.002057
  0
VERTEX
  8
0
 10
1698.898992
 20
1398.668756
 42
-0.000884
  0
VERTEX
  8
0
 10
1698.090287
 20
1402.234375
 42
-0.000875
  0
VERTEX
  8
0
 10
1697.242406
 20
1406.034666
 42
-0.001156
  0
VERTEX
  8
0
 10
1696.484021
 20
1409.500000
 42
0.004740
  0
VERTEX
  8
0
 10
1695.614644
 20
1413.340481
 42
0.002115
  0
VERTEX
  8
0
 10
1694.400676
 20
1418.381250
 42
0.002093
  0
VERTEX
  8
0
 10
1693.071417
 20
1423.703549
 42
0.002836
  0
VERTEX
  8
0
 10
1691.823135
 20
1428.500000
 42
-0.003686
  0
VERTEX
  8
0
 10
1690.658957
 20
1433.004694
 42
-0.003896
  0
VERTEX
  8
0
 10
1689.583269
 20
1437.443750
 42
-0.003723
  0
VERTEX
  8
0
 10
1688.714715
 20
1441.282660
 42
-0.017652
  0
VERTEX
  8
0
 10
1688.311781
 20
1443.500000
 42
0.012029
  0
VERTEX
  8
0
 10
1688.038771
 20
1445.104735
 42
0.013888
  0
VERTEX
  8
0
 10
1687.699658
 20
1446.618750
 42
0.013004
  0
VERTEX
  8
0
 10
1687.345245
 20
1447.879077
 42
0.075224
  0
VERTEX
  8
0
 10
1687.045075
 20
1448.500000
 42
-0.055765
  0
VERTEX
  8
0
 10
1686.716307
 20
1449.117788
 42
-0.009250
  0
VERTEX
  8
0
 10
1686.241980
 20
1450.381250
 42
-0.010053
  0
VERTEX
  8
0
 10
1685.739359
 20
1451.895255
 42
-0.008745
  0
VERTEX
  8
0
 10
1685.272798
 20
1453.500000
 42
0.000284
  0
VERTEX
  8
0
 10
1684.749499
 20
1455.420553
 42
0.000128
  0
VERTEX
  8
0
 10
1684.060619
 20
1457.940625
 42
0.000126
  0
VERTEX
  8
0
 10
1683.331707
 20
1460.601825
 42
0.000172
  0
VERTEX
  8
0
 10
1682.673296
 20
1463.000000
 42
-0.007568
  0
VERTEX
  8
0
 10
1682.043590
 20
1465.434077
 42
-0.005230
  0
VERTEX
  8
0
 10
1681.401642
 20
1468.206250
 42
-0.005275
  0
VERTEX
  8
0
 10
1680.840450
 20
1470.884508
 42
-0.010763
  0
VERTEX
  8
0
 10
1680.467560
 20
1473.000000
 42
0.011304
  0
VERTEX
  8
0
 10
1680.148942
 20
1474.796215
 42
0.013505
  0
VERTEX
  8
0
 10
1679.765121
 20
1476.471875
 42
0.012284
  0
VERTEX
  8
0
 10
1679.371258
 20
1477.858537
 42
0.081428
  0
VERTEX
  8
0
 10
1679.050394
 20
1478.500000
 42
-0.107770
  0
VERTEX
  8
0
 10
1678.337397
 20
1480.133323
 42
-0.001762
  0
VERTEX
  8
0
 10
1676.409278
 20
1489.980235
 42
-0.004786
  0
VERTEX
  8
0
 10
1674.411867
 20
1500.940254
 42
-0.004118
  0
VERTEX
  8
0
 10
1672.517186
 20
1512.500000
 42
0.002625
  0
VERTEX
  8
0
 10
1671.848324
 20
1516.658587
 42
0.002489
  0
VERTEX
  8
0
 10
1671.124241
 20
1520.884375
 42
0.002470
  0
VERTEX
  8
0
 10
1670.446603
 20
1524.616373
 42
0.008757
  0
VERTEX
  8
0
 10
1669.958272
 20
1527.000000
 42
-0.003373
  0
VERTEX
  8
0
 10
1669.437753
 20
1529.408534
 42
-0.000893
  0
VERTEX
  8
0
 10
1668.639210
 20
1533.262500
 42
-0.000906
  0
VERTEX
  8
0
 10
1667.746567
 20
1537.650001
 42
-0.000932
  0
VERTEX
  8
0
 10
1666.878191
 20
1542.000000
 42
0.000756
  0
VERTEX
  8
0
 10
1665.989514
 20
1546.459845
 42
0.000638
  0
VERTEX
  8
0
 10
1665.035659
 20
1551.178125
 42
0.000643
  0
VERTEX
  8
0
 10
1664.154331
 20
1555.480880
 42
0.001789
  0
VERTEX
  8
0
 10
1663.520615
 20
1558.500000
 42
-0.000404
  0
VERTEX
  8
0
 10
1662.884525
 20
1561.489246
 42
-0.000152
  0
VERTEX
  8
0
 10
1661.998697
 20
1565.675000
 42
-0.000151
  0
VERTEX
  8
0
 10
1661.037248
 20
1570.231711
 42
-0.000183
  0
VERTEX
  8
0
 10
1660.139636
 20
1574.500000
 42
0.005825
  0
VERTEX
  8
0
 10
1658.440252
 20
1582.151158
 42
0.011221
  0
VERTEX
  8
0
 10
1656.871054
 20
1588.229376
 42
0.008367
  0
VERTEX
  8
0
 10
1654.753269
 20
1595.279224
 42
0.001965
  0
VERTEX
  8
0
 10
1650.966585
 20
1607.000000
 42
-0.000176
  0
VERTEX
  8
0
 10
1649.245627
 20
1612.262376
 42
-0.000157
  0
VERTEX
  8
0
 10
1647.459130
 20
1617.737500
 42
-0.000157
  0
VERTEX
  8
0
 10
1645.854722
 20
1622.665058
 42
-0.000484
  0
VERTEX
  8
0
 10
1644.773596
 20
1626.000000
 42
0.015891
  0
VERTEX
  8
0
 10
1643.599996
 20
1629.272856
 42
0.005353
  0
VERTEX
  8
0
 10
1641.687325
 20
1633.968750
 42
0.005319
  0
VERTEX
  8
0
 10
1639.459638
 20
1639.120493
 42
0.006071
  0
VERTEX
  8
0
 10
1637.216394
 20
1644.000000
 42
-0.001071
  0
VERTEX
  8
0
 10
1631.393804
 20
1656.338657
 42
-0.003117
  0
VERTEX
  8
0
 10
1627.442750
 20
1664.896316
 42
-0.003877
  0
VERTEX
  8
0
 10
1624.102983
 20
1672.404177
 42
-0.002634
  0
VERTEX
  8
0
 10
1620.412569
 20
1681.000000
 42
0.008696
  0
VERTEX
  8
0
 10
1615.943692
 20
1691.070459
 42
0.006874
  0
VERTEX
  8
0
 10
1610.772838
 20
1701.808029
 42
0.005037
  0
VERTEX
  8
0
 10
1603.931790
 20
1715.188857
 42
0.001838
  0
VERTEX
  8
0
 10
1593.985908
 20
1734.000000
 42
-0.003616
  0
VERTEX
  8
0
 10
1589.587696
 20
1742.390638
 42
-0.002903
  0
VERTEX
  8
0
 10
1584.972977
 20
1751.480574
 42
-0.002934
  0
VERTEX
  8
0
 10
1580.805003
 20
1759.933549
 42
-0.007477
  0
VERTEX
  8
0
 10
1577.910613
 20
1766.125359
 42
0.003599
  0
VERTEX
  8
0
 10
1575.482475
 20
1771.426528
 42
0.003183
  0
VERTEX
  8
0
 10
1572.878129
 20
1776.914569
 42
0.003197
  0
VERTEX
  8
0
 10
1570.468766
 20
1781.828859
 42
0.009722
  0
VERTEX
  8
0
 10
1568.745548
 20
1785.125359
 42
-0.001957
  0
VERTEX
  8
0
 10
1567.009517
 20
1788.324371
 42
-0.000718
  0
VERTEX
  8
0
 10
1564.580149
 20
1792.858699
 42
-0.000711
  0
VERTEX
  8
0
 10
1561.939542
 20
1797.821312
 42
-0.000853
  0
VERTEX
  8
0
 10
1559.468761
 20
1802.500000
 42
0.011606
  0
VERTEX
  8
0
 10
1550.475848
 20
1818.676790
 42
0.027256
  0
VERTEX
  8
0
 10
1542.843965
 20
1830.197407
 42
0.022768
  0
VERTEX
  8
0
 10
1533.216527
 20
1841.979267
 42
0.006044
  0
VERTEX
  8
0
 10
1516.794639
 20
1859.866270
 42
0.003486
  0
VERTEX
  8
0
 10
1504.145541
 20
1873.127445
 42
0.013557
  0
VERTEX
  8
0
 10
1496.040194
 20
1881.064886
 42
0.020646
  0
VERTEX
  8
0
 10
1489.448421
 20
1886.691085
 42
0.020975
  0
VERTEX
  8
0
 10
1482.448729
 20
1891.723214
 42
-0.002244
  0
VERTEX
  8
0
 10
1479.148830
 20
1893.912891
 42
-0.002123
  0
VERTEX
  8
0
 10
1475.806814
 20
1896.172801
 42
-0.002108
  0
VERTEX
  8
0
 10
1472.865367
 20
1898.198317
 42
-0.007434
  0
VERTEX
  8
0
 10
1471.000000
 20
1899.536015
 42
0.006184
  0
VERTEX
  8
0
 10
1469.310872
 20
1900.753733
 42
0.002839
  0
VERTEX
  8
0
 10
1467.080652
 20
1902.301150
 42
0.002811
  0
VERTEX
  8
0
 10
1464.714845
 20
1903.903350
 42
0.003883
  0
VERTEX
  8
0
 10
1462.572432
 20
1905.312801
 42
-0.001724
  0
VERTEX
  8
0
 10
1460.188108
 20
1906.866693
 42
-0.000740
  0
VERTEX
  8
0
 10
1457.014810
 20
1908.957123
 42
-0.000732
  0
VERTEX
  8
0
 10
1453.640746
 20
1911.194079
 42
-0.000966
  0
VERTEX
  8
0
 10
1450.572432
 20
1913.243363
 42
0.001350
  0
VERTEX
  8
0
 10
1447.655673
 20
1915.188185
 42
0.001367
  0
VERTEX
  8
0
 10
1444.740151
 20
1917.109375
 42
0.001329
  0
VERTEX
  8
0
 10
1442.193333
 20
1918.767979
 42
0.005582
  0
VERTEX
  8
0
 10
1440.649358
 20
1919.743363
 42
0.002901
  0
VERTEX
  8
0
 10
1435.584149
 20
1922.824273
 42
0.002578
  0
VERTEX
  8
0
 10
1430.280826
 20
1925.970938
 42
0.002667
  0
VERTEX
  8
0
 10
1425.240317
 20
1928.890614
 42
0.004567
  0
VERTEX
  8
0
 10
1421.000000
 20
1931.265531
 42
-0.005898
  0
VERTEX
  8
0
 10
1418.784335
 20
1932.514244
 42
-0.006546
  0
VERTEX
  8
0
 10
1416.675000
 20
1933.773202
 42
-0.006104
  0
VERTEX
  8
0
 10
1414.904281
 20
1934.891759
 42
-0.033528
  0
VERTEX
  8
0
 10
1414.000000
 20
1935.568753
 42
0.061942
  0
VERTEX
  8
0
 10
1410.588513
 20
1937.832952
 42
0.004662
  0
VERTEX
  8
0
 10
1400.576141
 20
1942.705273
 42
0.007108
  0
VERTEX
  8
0
 10
1389.832952
 20
1947.623957
 42
0.011536
  0
VERTEX
  8
0
 10
1380.554830
 20
1951.460248
 42
-0.006085
  0
VERTEX
  8
0
 10
1375.561553
 20
1953.461405
 42
-0.003622
  0
VERTEX
  8
0
 10
1369.662981
 20
1955.959355
 42
-0.003625
  0
VERTEX
  8
0
 10
1363.819217
 20
1958.534614
 42
-0.006255
  0
VERTEX
  8
0
 10
1359.000000
 20
1960.773107
 42
0.002651
  0
VERTEX
  8
0
 10
1346.925152
 20
1966.487966
 42
0.011285
  0
VERTEX
  8
0
 10
1339.616711
 20
1969.700809
 42
0.017049
  0
VERTEX
  8
0
 10
1334.741088
 20
1971.522173
 42
0.081031
  0
VERTEX
  8
0
 10
1331.812025
 20
1972.000000
 42
-0.041069
  0
VERTEX
  8
0
 10
1330.484076
 20
1972.109260
 42
-0.022622
  0
VERTEX
  8
0
 10
1328.889042
 20
1972.448263
 42
-0.022415
  0
VERTEX
  8
0
 10
1327.291952
 20
1972.941388
 42
-0.033250
  0
VERTEX
  8
0
 10
1325.949715
 20
1973.526003
 42
0.028877
  0
VERTEX
  8
0
 10
1324.485521
 20
1974.179015
 42
0.012495
  0
VERTEX
  8
0
 10
1322.470467
 20
1974.884533
 42
0.012316
  0
VERTEX
  8
0
 10
1320.283841
 20
1975.530303
 42
0.015982
  0
VERTEX
  8
0
 10
1318.249375
 20
1976.007888
 42
-0.008737
  0
VERTEX
  8
0
 10
1315.793540
 20
1976.546973
 42
-0.002680
  0
VERTEX
  8
0
 10
1312.104504
 20
1977.445511
 42
-0.002681
  0
VERTEX
  8
0
 10
1307.985458
 20
1978.495695
 42
-0.002934
  0
VERTEX
  8
0
 10
1304.000000
 20
1979.559622
 42
0.005659
  0
VERTEX
  8
0
 10
1299.959622
 20
1980.614654
 42
0.004821
  0
VERTEX
  8
0
 10
1295.675000
 20
1981.638042
 42
0.004862
  0
VERTEX
  8
0
 10
1291.758235
 20
1982.493743
 42
0.013703
  0
VERTEX
  8
0
 10
1289.000000
 20
1982.989853
 42
-0.007142
  0
VERTEX
  8
0
 10
1286.428875
 20
1983.417562
 42
-0.003626
  0
VERTEX
  8
0
 10
1283.206250
 20
1984.025243
 42
-0.003601
  0
VERTEX
  8
0
 10
1279.889416
 20
1984.700476
 42
-0.005372
  0
VERTEX
  8
0
 10
1277.000000
 20
1985.342906
 42
0.002878
  0
VERTEX
  8
0
 10
1273.664246
 20
1986.102059
 42
0.000941
  0
VERTEX
  8
0
 10
1268.737500
 20
1987.183783
 42
0.000937
  0
VERTEX
  8
0
 10
1263.262370
 20
1988.364369
 42
0.001058
  0
VERTEX
  8
0
 10
1258.000000
 20
1989.477113
 42
-0.002386
  0
VERTEX
  8
0
 10
1252.847656
 20
1990.580889
 42
-0.002382
  0
VERTEX
  8
0
 10
1247.703125
 20
1991.734400
 42
-0.002329
  0
VERTEX
  8
0
 10
1243.219813
 20
1992.784111
 42
-0.009403
  0
VERTEX
  8
0
 10
1240.500000
 20
1993.488619
 42
0.031017
  0
VERTEX
  8
0
 10
1225.470724
 20
1996.695886
 42
0.020952
  0
VERTEX
  8
0
 10
1208.037194
 20
1998.556704
 42
0.021008
  0
VERTEX
  8
0
 10
1191.429081
 20
1998.929228
 42
0.051702
  0
VERTEX
  8
0
 10
1179.335062
 20
1997.435382
 42
-0.040849
  0
VERTEX
  8
0
 10
1170.948161
 20
1996.214478
 42
-0.016452
  0
VERTEX
  8
0
 10
1159.368051
 20
1995.866934
 42
-0.015987
  0
VERTEX
  8
0
 10
1146.656792
 20
1996.310352
 42
-0.018017
  0
VERTEX
  8
0
 10
1134.500000
 20
1997.565356
 42
0.009526
  0
VERTEX
  8
0
 10
1130.040125
 20
1998.102445
 42
0.006269
  0
VERTEX
  8
0
 10
1124.891213
 20
1998.558078
 42
0.006308
  0
VERTEX
  8
0
 10
1119.868167
 20
1998.875489
 42
0.012095
  0
VERTEX
  8
0
 10
1115.831787
 20
1998.981680
 42
-0.009020
  0
VERTEX
  8
0
 10
1109.077434
 20
1999.117817
 42
-0.068770
  0
VERTEX
  8
0
 10
1105.954877
 20
1999.671570
 42
-0.130564
  0
VERTEX
  8
0
 10
1104.004542
 20
2000.928557
 42
-0.065441
  0
VERTEX
  8
0
 10
1102.317445
 20
2003.353022
 42
-0.104547
  0
VERTEX
  8
0
 10
1100.906749
 20
2008.471899
 42
-0.009493
  0
VERTEX
  8
0
 10
1100.352876
 20
2021.782143
 42
-0.009959
  0
VERTEX
  8
0
 10
1100.317189
 20
2035.066430
 42
-0.094921
  0
VERTEX
  8
0
 10
1101.475505
 20
2040.595618
 42
0.023765
  0
VERTEX
  8
0
 10
1102.021024
 20
2042.098192
 42
0.011217
  0
VERTEX
  8
0
 10
1102.588029
 20
2044.082658
 42
0.011088
  0
VERTEX
  8
0
 10
1103.089853
 20
2046.190726
 42
0.015364
  0
VERTEX
  8
0
 10
1103.439199
 20
2048.101850
 42
-0.022718
  0
VERTEX
  8
0
 10
1104.037027
 20
2051.120684
 42
-0.017911
  0
VERTEX
  8
0
 10
1104.947474
 20
2054.326047
 42
-0.014818
  0
VERTEX
  8
0
 10
1106.258160
 20
2058.005508
 42
-0.007795
  0
VERTEX
  8
0
 10
1108.092135
 20
2062.500000
 42
0.005403
  0
VERTEX
  8
0
 10
1108.548077
 20
2063.602265
 42
0.001248
  0
VERTEX
  8
0
 10
1109.291395
 20
2065.469202
 42
0.001288
  0
VERTEX
  8
0
 10
1110.136632
 20
2067.623856
 42
0.001259
  0
VERTEX
  8
0
 10
1110.977305
 20
2069.799413
 42
-0.013379
  0
VERTEX
  8
0
 10
1113.193325
 20
2075.145107
 42
-0.015567
  0
VERTEX
  8
0
 10
1115.590542
 20
2080.096751
 42
-0.012269
  0
VERTEX
  8
0
 10
1118.728609
 20
2085.752779
 42
-0.004647
  0
VERTEX
  8
0
 10
1123.376367
 20
2093.500000
 42
0.002914
  0
VERTEX
  8
0
 10
1125.905109
 20
2097.682168
 42
0.002743
  0
VERTEX
  8
0
 10
1128.437085
 20
2101.978734
 42
0.002727
  0
VERTEX
  8
0
 10
1130.639658
 20
2105.811573
 42
0.009495
  0
VERTEX
  8
0
 10
1132.001365
 20
2108.321223
 42
-0.051298
  0
VERTEX
  8
0
 10
1135.813191
 20
2114.131031
 42
-0.013237
  0
VERTEX
  8
0
 10
1143.125979
 20
2122.645302
 42
-0.013436
  0
VERTEX
  8
0
 10
1150.909651
 20
2130.786142
 42
-0.047508
  0
VERTEX
  8
0
 10
1156.500000
 20
2135.362657
 42
0.023206
  0
VERTEX
  8
0
 10
1158.896484
 20
2137.137526
 42
0.041088
  0
VERTEX
  8
0
 10
1160.667927
 20
2138.841547
 42
0.047491
  0
VERTEX
  8
0
 10
1161.958138
 20
2140.619476
 42
0.047478
  0
VERTEX
  8
0
 10
1162.889846
 20
2142.609067
 42
-0.027386
  0
VERTEX
  8
0
 10
1163.610821
 20
2144.324688
 42
-0.016668
  0
VERTEX
  8
0
 10
1164.638157
 20
2146.269796
 42
-0.016685
  0
VERTEX
  8
0
 10
1165.789084
 20
2148.135996
 42
-0.028177
  0
VERTEX
  8
0
 10
1166.889846
 20
2149.607261
 42
0.002128
  0
VERTEX
  8
0
 10
1169.905078
 20
2153.227921
 42
0.011350
  0
VERTEX
  8
0
 10
1171.497760
 20
2155.248761
 42
0.019744
  0
VERTEX
  8
0
 10
1172.417938
 20
2156.578663
 42
0.075047
  0
VERTEX
  8
0
 10
1172.824952
 20
2157.500000
 42
-0.042627
  0
VERTEX
  8
0
 10
1173.013676
 20
2158.014816
 42
-0.011537
  0
VERTEX
  8
0
 10
1173.399256
 20
2158.793750
 42
-0.011591
  0
VERTEX
  8
0
 10
1173.879664
 20
2159.660930
 42
-0.011787
  0
VERTEX
  8
0
 10
1174.397171
 20
2160.500000
 42
0.031565
  0
VERTEX
  8
0
 10
1174.983493
 20
2161.540573
 42
0.011372
  0
VERTEX
  8
0
 10
1175.687833
 20
2163.087500
 42
0.011228
  0
VERTEX
  8
0
 10
1176.384740
 20
2164.821913
 42
0.013089
  0
VERTEX
  8
0
 10
1176.965973
 20
2166.500000
 42
-0.018736
  0
VERTEX
  8
0
 10
1177.726380
 20
2168.617760
 42
-0.004850
  0
VERTEX
  8
0
 10
1179.111240
 20
2171.968750
 42
-0.004927
  0
VERTEX
  8
0
 10
1180.765964
 20
2175.760935
 42
-0.005004
  0
VERTEX
  8
0
 10
1182.486699
 20
2179.500000
 42
0.001799
  0
VERTEX
  8
0
 10
1184.245149
 20
2183.257408
 42
0.001692
  0
VERTEX
  8
0
 10
1186.013014
 20
2187.104687
 42
0.001682
  0
VERTEX
  8
0
 10
1187.557185
 20
2190.525829
 42
0.005860
  0
VERTEX
  8
0
 10
1188.520976
 20
2192.750000
 42
-0.022605
  0
VERTEX
  8
0
 10
1189.292027
 20
2194.377728
 42
-0.031465
  0
VERTEX
  8
0
 10
1190.135273
 20
2195.751563
 42
-0.032368
  0
VERTEX
  8
0
 10
1190.937146
 20
2196.746991
 42
-0.209999
  0
VERTEX
  8
0
 10
1191.512986
 20
2197.000000
 42
0.287381
  0
VERTEX
  8
0
 10
1192.056677
 20
2197.340624
 42
0.042096
  0
VERTEX
  8
0
 10
1192.545591
 20
2198.611344
 42
0.033177
  0
VERTEX
  8
0
 10
1192.963616
 20
2200.508980
 42
0.015018
  0
VERTEX
  8
0
 10
1193.269666
 20
2203.037305
 42
-0.030385
  0
VERTEX
  8
0
 10
1193.798010
 20
2206.505441
 42
-0.036973
  0
VERTEX
  8
0
 10
1194.724236
 20
2209.657038
 42
-0.028817
  0
VERTEX
  8
0
 10
1196.295082
 20
2213.199564
 42
-0.010500
  0
VERTEX
  8
0
 10
1198.908555
 20
2218.029429
 42
0.004370
  0
VERTEX
  8
0
 10
1200.859507
 20
2221.531645
 42
0.006455
  0
VERTEX
  8
0
 10
1202.504388
 20
2224.640898
 42
0.003229
  0
VERTEX
  8
0
 10
1203.843857
 20
2227.295998
 42
0.115706
  0
VERTEX
  8
0
 10
1204.000000
 20
2227.961707
 42
-0.093733
  0
VERTEX
  8
0
 10
1204.109083
 20
2228.538476
 42
-0.011154
  0
VERTEX
  8
0
 10
1204.613259
 20
2229.743895
 42
-0.012997
  0
VERTEX
  8
0
 10
1205.288259
 20
2231.161298
 42
-0.010330
  0
VERTEX
  8
0
 10
1206.087691
 20
2232.656127
 42
0.029417
  0
VERTEX
  8
0
 10
1206.966029
 20
2234.460859
 42
0.041881
  0
VERTEX
  8
0
 10
1207.510437
 20
2236.157992
 42
0.047151
  0
VERTEX
  8
0
 10
1207.722237
 20
2237.747531
 42
0.058976
  0
VERTEX
  8
0
 10
1207.604019
 20
2239.229903
 42
-0.049421
  0
VERTEX
  8
0
 10
1207.444063
 20
2240.846370
 42
-0.134561
  0
VERTEX
  8
0
 10
1207.745560
 20
2241.945827
 42
-0.103365
  0
VERTEX
  8
0
 10
1208.626661
 20
2242.908554
 42
-0.022653
  0
VERTEX
  8
0
 10
1210.516328
 20
2244.142135
 42
0.013298
  0
VERTEX
  8
0
 10
1213.045148
 20
2245.726304
 42
0.160761
  0
VERTEX
  8
0
 10
1213.744286
 20
2246.616482
 42
0.161431
  0
VERTEX
  8
0
 10
1213.774657
 20
2247.746358
 42
0.013438
  0
VERTEX
  8
0
 10
1212.839597
 20
2250.567042
 42
-0.045007
  0
VERTEX
  8
0
 10
1212.343532
 20
2252.454398
 42
-0.045618
  0
VERTEX
  8
0
 10
1212.196235
 20
2254.391450
 42
-0.034904
  0
VERTEX
  8
0
 10
1212.395338
 20
2256.726641
 42
-0.013570
  0
VERTEX
  8
0
 10
1212.982452
 20
2259.917312
 42
-0.010792
  0
VERTEX
  8
0
 10
1213.544081
 20
2262.308467
 42
-0.015229
  0
VERTEX
  8
0
 10
1214.154665
 20
2264.410170
 42
-0.011334
  0
VERTEX
  8
0
 10
1214.746749
 20
2266.106273
 42
-0.166179
  0
VERTEX
  8
0
 10
1215.142855
 20
2266.588289
 42
0.151905
  0
VERTEX
  8
0
 10
1215.473924
 20
2266.969038
 42
0.038333
  0
VERTEX
  8
0
 10
1215.749075
 20
2267.752898
 42
0.035558
  0
VERTEX
  8
0
 10
1215.938784
 20
2268.740023
 42
0.029432
  0
VERTEX
  8
0
 10
1216.002931
 20
2269.809017
 42
-0.048643
  0
VERTEX
  8
0
 10
1216.171792
 20
2271.521326
 42
-0.004208
  0
VERTEX
  8
0
 10
1217.061165
 20
2275.822024
 42
-0.005511
  0
VERTEX
  8
0
 10
1218.224128
 20
2280.941806
 42
-0.004251
  0
VERTEX
  8
0
 10
1219.601313
 20
2286.500000
 42
0.005078
  0
VERTEX
  8
0
 10
1221.028229
 20
2292.300002
 42
0.005020
  0
VERTEX
  8
0
 10
1222.342749
 20
2298.150000
 42
0.004936
  0
VERTEX
  8
0
 10
1223.391348
 20
2303.293271
 42
0.019266
  0
VERTEX
  8
0
 10
1223.884931
 20
2306.500000
 42
-0.014877
  0
VERTEX
  8
0
 10
1224.242436
 20
2308.966409
 42
-0.014726
  0
VERTEX
  8
0
 10
1224.746956
 20
2311.415666
 42
-0.014746
  0
VERTEX
  8
0
 10
1225.314114
 20
2313.529904
 42
-0.053720
  0
VERTEX
  8
0
 10
1225.853122
 20
2314.808652
 42
0.057138
  0
VERTEX
  8
0
 10
1226.314050
 20
2315.923319
 42
0.038279
  0
VERTEX
  8
0
 10
1226.590338
 20
2317.276366
 42
0.037622
  0
VERTEX
  8
0
 10
1226.660608
 20
2318.689165
 42
0.047709
  0
VERTEX
  8
0
 10
1226.503149
 20
2319.985663
 42
-0.052068
  0
VERTEX
  8
0
 10
1226.345927
 20
2321.381515
 42
-0.041335
  0
VERTEX
  8
0
 10
1226.458924
 20
2322.895408
 42
-0.039897
  0
VERTEX
  8
0
 10
1226.828747
 20
2324.427342
 42
-0.040177
  0
VERTEX
  8
0
 10
1227.436576
 20
2325.877351
 42
0.026290
  0
VERTEX
  8
0
 10
1228.036233
 20
2327.203443
 42
0.020983
  0
VERTEX
  8
0
 10
1228.545019
 20
2328.688102
 42
0.021451
  0
VERTEX
  8
0
 10
1228.899891
 20
2330.105669
 42
0.049058
  0
VERTEX
  8
0
 10
1229.014553
 20
2331.200340
 42
-0.041304
  0
VERTEX
  8
0
 10
1229.118849
 20
2332.370562
 42
-0.013327
  0
VERTEX
  8
0
 10
1229.461739
 20
2334.078728
 42
-0.013189
  0
VERTEX
  8
0
 10
1229.946013
 20
2335.966380
 42
-0.014423
  0
VERTEX
  8
0
 10
1230.516452
 20
2337.769797
 42
0.034435
  0
VERTEX
  8
0
 10
1231.962297
 20
2343.069134
 42
0.008629
  0
VERTEX
  8
0
 10
1233.569882
 20
2351.890973
 42
0.006409
  0
VERTEX
  8
0
 10
1235.475356
 20
2364.483969
 42
0.002125
  0
VERTEX
  8
0
 10
1237.954578
 20
2383.000000
 42
-0.003927
  0
VERTEX
  8
0
 10
1238.417463
 20
2386.364836
 42
-0.005081
  0
VERTEX
  8
0
 10
1238.897679
 20
2389.443750
 42
-0.003884
  0
VERTEX
  8
0
 10
1239.345645
 20
2392.012511
 42
-0.044632
  0
VERTEX
  8
0
 10
1239.618542
 20
2393.000000
 42
0.027708
  0
VERTEX
  8
0
 10
1241.077780
 20
2397.660661
 42
0.010083
  0
VERTEX
  8
0
 10
1242.641843
 20
2404.405579
 42
0.010087
  0
VERTEX
  8
0
 10
1244.035071
 20
2411.747970
 42
0.013264
  0
VERTEX
  8
0
 10
1244.992250
 20
2418.500000
 42
-0.005588
  0
VERTEX
  8
0
 10
1245.508675
 20
2422.594183
 42
-0.005793
  0
VERTEX
  8
0
 10
1246.110864
 20
2426.626736
 42
-0.005603
  0
VERTEX
  8
0
 10
1246.711415
 20
2430.103847
 42
-0.024843
  0
VERTEX
  8
0
 10
1247.188238
 20
2432.122931
 42
0.068573
  0
VERTEX
  8
0
 10
1247.796868
 20
2436.301051
 42
0.010466
  0
VERTEX
  8
0
 10
1247.685429
 20
2444.736356
 42
0.012237
  0
VERTEX
  8
0
 10
1247.131556
 20
2454.175000
 42
0.014759
  0
VERTEX
  8
0
 10
1246.133621
 20
2463.000000
 42
0.026563
  0
VERTEX
  8
0
 10
1244.690136
 20
2470.299533
 42
0.014676
  0
VERTEX
  8
0
 10
1242.197298
 20
2479.044495
 42
0.013708
  0
VERTEX
  8
0
 10
1238.912016
 20
2488.498156
 42
0.012717
  0
VERTEX
  8
0
 10
1235.036126
 20
2498.000000
 42
-0.007632
  0
VERTEX
  8
0
 10
1232.749344
 20
2503.447052
 42
-0.007485
  0
VERTEX
  8
0
 10
1230.614446
 20
2508.996659
 42
-0.006670
  0
VERTEX
  8
0
 10
1228.441167
 20
2515.161351
 42
-0.004060
  0
VERTEX
  8
0
 10
1226.029778
 20
2522.500000
 42
0.026871
  0
VERTEX
  8
0
 10
1222.848682
 20
2530.872931
 42
0.008953
  0
VERTEX
  8
0
 10
1217.323970
 20
2542.770855
 42
0.007233
  0
VERTEX
  8
0
 10
1211.517530
 20
2554.284522
 42
0.056857
  0
VERTEX
  8
0
 10
1208.165438
 20
2559.235662
 42
-0.014154
  0
VERTEX
  8
0
 10
1206.920739
 20
2560.773513
 42
-0.007837
  0
VERTEX
  8
0
 10
1205.485083
 20
2562.716101
 42
-0.007810
  0
VERTEX
  8
0
 10
1204.091196
 20
2564.731154
 42
-0.012466
  0
VERTEX
  8
0
 10
1202.970827
 20
2566.500000
 42
0.007405
  0
VERTEX
  8
0
 10
1201.967883
 20
2568.119485
 42
0.007837
  0
VERTEX
  8
0
 10
1200.935725
 20
2569.677934
 42
0.007538
  0
VERTEX
  8
0
 10
1200.005997
 20
2570.992098
 42
0.035077
  0
VERTEX
  8
0
 10
1199.407378
 20
2571.701477
 42
-0.037438
  0
VERTEX
  8
0
 10
1198.659336
 20
2572.596456
 42
-0.001536
  0
VERTEX
  8
0
 10
1196.227013
 20
2576.015836
 42
-0.002668
  0
VERTEX
  8
0
 10
1193.377382
 20
2580.094036
 42
-0.001888
  0
VERTEX
  8
0
 10
1190.220036
 20
2584.701477
 42
0.023536
  0
VERTEX
  8
0
 10
1182.951124
 20
2594.382109
 42
0.014060
  0
VERTEX
  8
0
 10
1173.463766
 20
2605.215840
 42
0.011040
  0
VERTEX
  8
0
 10
1161.024011
 20
2618.059192
 42
0.005228
  0
VERTEX
  8
0
 10
1144.454384
 20
2634.088530
 42
0.009850
  0
VERTEX
  8
0
 10
1136.901426
 20
2640.966664
 42
0.012109
  0
VERTEX
  8
0
 10
1129.576710
 20
2647.070772
 42
0.011514
  0
VERTEX
  8
0
 10
1123.225568
 20
2651.874004
 42
0.065319
  0
VERTEX
  8
0
 10
1119.500000
 20
2653.880488
 42
-0.038743
  0
VERTEX
  8
0
 10
1119.013742
 20
2654.110015
 42
-0.013596
  0
VERTEX
  8
0
 10
1118.353125
 20
2654.511107
 42
-0.013406
  0
VERTEX
  8
0
 10
1117.647639
 20
2654.993402
 42
-0.015288
  0
VERTEX
  8
0
 10
1117.000000
 20
2655.492973
 42
0.077739
  0
VERTEX
  8
0
 10
1114.039345
 20
2657.237421
 42
0.002924
  0
VERTEX
  8
0
 10
1102.009232
 20
2661.923323
 42
0.005913
  0
VERTEX
  8
0
 10
1089.856602
 20
2666.411251
 42
0.013234
  0
VERTEX
  8
0
 10
1080.500000
 20
2669.464955
 42
-0.003820
  0
VERTEX
  8
0
 10
1076.797657
 20
2670.596618
 42
-0.003828
  0
VERTEX
  8
0
 10
1073.115625
 20
2671.783951
 42
-0.003743
  0
VERTEX
  8
0
 10
1069.918980
 20
2672.868465
 42
-0.015208
  0
VERTEX
  8
0
 10
1068.000000
 20
2673.601705
 42
0.026624
  0
VERTEX
  8
0
 10
1064.382224
 20
2674.890236
 42
0.006442
  0
VERTEX
  8
0
 10
1058.268596
 20
2676.622045
 42
0.005566
  0
VERTEX
  8
0
 10
1050.223850
 20
2678.693554
 42
0.002779
  0
VERTEX
  8
0
 10
1040.000000
 20
2681.144995
 42
0.017755
  0
VERTEX
  8
0
 10
1035.802287
 20
2681.970898
 42
0.007195
  0
VERTEX
  8
0
 10
1030.031250
 20
2682.809921
 42
0.007108
  0
VERTEX
  8
0
 10
1023.791237
 20
2683.535562
 42
0.008974
  0
VERTEX
  8
0
 10
1018.000000
 20
2684.020871
 42
-0.002989
  0
VERTEX
  8
0
 10
1012.647307
 20
2684.404981
 42
-0.003844
  0
VERTEX
  8
0
 10
1007.731250
 20
2684.825363
 42
-0.002957
  0
VERTEX
  8
0
 10
1003.618983
 20
2685.233422
 42
-0.033121
  0
VERTEX
  8
0
 10
1002.000000
 20
2685.513060
 42
0.035183
  0
VERTEX
  8
0
 10
995.835041
 20
2686.551768
 42
0.008027
  0
VERTEX
  8
0
 10
985.281121
 20
2687.403478
 42
0.007490
  0
VERTEX
  8
0
 10
972.034585
 20
2688.059623
 42
0.004675
  0
VERTEX
  8
0
 10
956.500000
 20
2688.450622
 42
0.002904
  0
VERTEX
  8
0
 10
942.908442
 20
2688.586653
 42
0.012657
  0
VERTEX
  8
0
 10
934.863030
 20
2688.416772
 42
0.019345
  0
VERTEX
  8
0
 10
928.628314
 20
2687.884850
 42
0.015704
  0
SEQEND
  0
ENDSEC
  0
EOF
