  0
SECTION
  2
HEADER
  9
$ACADVER
  1
AC1006
  9
$EXTMIN
 10
0.000000
 20
0.000000
 30
0.000000
  9
$EXTMAX
 10
1500.000000
 20
2354.000000
 30
0.000000
  0
ENDSEC
  0
SECTION
  2
ENTITIES
  0
POLYLINE
  8
0
 66
1
 70
1
  0
VERTEX
  8
0
 10
811.500000
 20
2352.090993
 42
-0.045236
  0
VERTEX
  8
0
 10
810.275625
 20
2351.705853
 42
-0.006573
  0
VERTEX
  8
0
 10
807.713877
 20
2351.183347
 42
-0.007396
  0
VERTEX
  8
0
 10
804.659933
 20
2350.648837
 42
-0.006275
  0
VERTEX
  8
0
 10
801.419581
 20
2350.172603
 42
0.010045
  0
VERTEX
  8
0
 10
797.576728
 20
2349.578191
 42
0.004667
  0
VERTEX
  8
0
 10
792.613575
 20
2348.660238
 42
0.004621
  0
VERTEX
  8
0
 10
787.418437
 20
2347.599208
 42
0.006428
  0
VERTEX
  8
0
 10
782.788661
 20
2346.546565
 42
-0.004012
  0
VERTEX
  8
0
 10
778.318983
 20
2345.507580
 42
-0.003473
  0
VERTEX
  8
0
 10
773.613327
 20
2344.487736
 42
-0.003496
  0
VERTEX
  8
0
 10
769.336973
 20
2343.623156
 42
-0.010190
  0
VERTEX
  8
0
 10
766.369080
 20
2343.107227
 42
0.013178
  0
VERTEX
  8
0
 10
763.433780
 20
2342.578871
 42
0.004744
  0
VERTEX
  8
0
 10
759.286542
 20
2341.677837
 42
0.004702
  0
VERTEX
  8
0
 10
754.758834
 20
2340.604188
 42
0.005563
  0
VERTEX
  8
0
 10
750.500000
 20
2339.501485
 42
-0.002004
  0
VERTEX
  8
0
 10
746.231680
 20
2338.363848
 42
-0.001657
  0
VERTEX
  8
0
 10
741.675000
 20
2337.185023
 42
-0.001673
  0
VERTEX
  8
0
 10
737.488433
 20
2336.131644
 42
-0.004490
  0
VERTEX
  8
0
 10
734.500000
 20
2335.418772
 42
0.004316
  0
VERTEX
  8
0
 10
731.838574
 20
2334.784885
 42
0.002859
  0
VERTEX
  8
0
 10
728.793750
 20
2334.013343
 42
0.002878
  0
VERTEX
  8
0
 10
725.844213
 20
2333.229823
 42
0.005593
  0
VERTEX
  8
0
 10
723.500000
 20
2332.564388
 42
-0.003441
  0
VERTEX
  8
0
 10
721.258441
 20
2331.917652
 42
-0.002204
  0
VERTEX
  8
0
 10
718.646875
 20
2331.195996
 42
-0.002214
  0
VERTEX
  8
0
 10
716.082393
 20
2330.511683
 42
-0.004140
  0
VERTEX
  8
0
 10
714.000000
 20
2329.984264
 42
0.016925
  0
VERTEX
  8
0
 10
706.317537
 20
2327.828059
 42
0.003452
  0
VERTEX
  8
0
 10
692.885497
 20
2323.460506
 42
0.003000
  0
VERTEX
  8
0
 10
679.501808
 20
2318.916925
 42
0.024389
  0
VERTEX
  8
0
 10
673.500000
 20
2316.505478
 42
-0.005400
  0
VERTEX
  8
0
 10
667.093221
 20
2313.644280
 42
-0.020634
  0
VERTEX
  8
0
 10
663.013065
 20
2312.071344
 42
-0.032752
  0
VERTEX
  8
0
 10
659.944431
 20
2311.251045
 42
-0.046076
  0
VERTEX
  8
0
 10
657.127876
 20
2310.958084
 42
0.061952
  0
VERTEX
  8
0
 10
653.959588
 20
2310.526783
 42
0.049440
  0
VERTEX
  8
0
 10
650.727752
 20
2309.318255
 42
0.039265
  0
VERTEX
  8
0
 10
647.166761
 20
2307.207171
 42
0.019145
  0
VERTEX
  8
0
 10
642.964621
 20
2304.000000
 42
0.029044
  0
VERTEX
  8
0
 10
633.898690
 20
2295.583505
 42
0.040597
  0
VERTEX
  8
0
 10
626.919734
 20
2287.011382
 42
0.046625
  0
VERTEX
  8
0
 10
622.217760
 20
2278.585086
 42
0.073231
  0
VERTEX
  8
0
 10
620.013252
 20
2270.606854
 42
-0.018008
  0
VERTEX
  8
0
 10
619.588184
 20
2267.962807
 42
-0.018208
  0
VERTEX
  8
0
 10
618.975161
 20
2265.366005
 42
-0.018341
  0
VERTEX
  8
0
 10
618.277779
 20
2263.150178
 42
-0.067458
  0
VERTEX
  8
0
 10
617.605603
 20
2261.847307
 42
0.084628
  0
VERTEX
  8
0
 10
616.825052
 20
2260.198557
 42
0.036912
  0
VERTEX
  8
0
 10
616.343597
 20
2257.817499
 42
0.024124
  0
VERTEX
  8
0
 10
616.076545
 20
2254.377825
 42
0.007311
  0
VERTEX
  8
0
 10
616.000000
 20
2249.143513
 42
-0.007887
  0
VERTEX
  8
0
 10
615.932935
 20
2244.892318
 42
-0.008366
  0
VERTEX
  8
0
 10
615.731732
 20
2240.728204
 42
-0.008048
  0
VERTEX
  8
0
 10
615.441016
 20
2237.151808
 42
-0.037562
  0
VERTEX
  8
0
 10
615.086748
 20
2235.116020
 42
0.003129
  0
VERTEX
  8
0
 10
614.651561
 20
2233.346319
 42
0.001294
  0
VERTEX
  8
0
 10
614.083904
 20
2230.946581
 42
0.001280
  0
VERTEX
  8
0
 10
613.488513
 20
2228.370478
 42
0.001648
  0
VERTEX
  8
0
 10
612.955250
 20
2226.000000
 42
-0.012335
  0
VERTEX
  8
0
 10
612.327234
 20
2223.462826
 42
-0.006559
  0
VERTEX
  8
0
 10
611.431559
 20
2220.353125
 42
-0.006524
  0
VERTEX
  8
0
 10
610.432480
 20
2217.197328
 42
-0.010075
  0
VERTEX
  8
0
 10
609.478945
 20
2214.500000
 42
0.008379
  0
VERTEX
  8
0
 10
608.454781
 20
2211.633841
 42
0.003985
  0
VERTEX
  8
0
 10
607.227915
 20
2207.912500
 42
0.003948
  0
VERTEX
  8
0
 10
606.006844
 20
2204.001106
 42
0.005593
  0
VERTEX
  8
0
 10
604.986752
 20
2200.500000
 42
-0.007456
  0
VERTEX
  8
0
 10
603.985966
 20
2197.112219
 42
-0.006243
  0
VERTEX
  8
0
 10
602.825995
 20
2193.548018
 42
-0.006307
  0
VERTEX
  8
0
 10
601.683736
 20
2190.316222
 42
-0.017148
  0
VERTEX
  8
0
 10
600.768278
 20
2188.067721
 42
0.010975
  0
VERTEX
  8
0
 10
599.901300
 20
2186.011347
 42
0.006125
  0
VERTEX
  8
0
 10
598.931962
 20
2183.473039
 42
0.006108
  0
VERTEX
  8
0
 10
598.014067
 20
2180.880867
 42
0.009859
  0
VERTEX
  8
0
 10
597.303510
 20
2178.650301
 42
-0.042706
  0
VERTEX
  8
0
 10
593.575371
 20
2169.152087
 42
-0.004305
  0
VERTEX
  8
0
 10
582.600461
 20
2147.439103
 42
-0.003969
  0
VERTEX
  8
0
 10
571.205118
 20
2125.791644
 42
-0.049393
  0
VERTEX
  8
0
 10
566.037181
 20
2118.093036
 42
0.004232
  0
VERTEX
  8
0
 10
564.092432
 20
2115.695167
 42
0.003526
  0
VERTEX
  8
0
 10
562.065242
 20
2113.114829
 42
0.003559
  0
VERTEX
  8
0
 10
560.243038
 20
2110.726517
 42
0.009656
  0
VERTEX
  8
0
 10
558.996540
 20
2109.000000
 42
-0.016619
  0
VERTEX
  8
0
 10
557.599280
 20
2107.120373
 42
-0.003772
  0
VERTEX
  8
0
 10
555.101100
 20
2104.031250
 42
-0.003901
  0
VERTEX
  8
0
 10
552.163729
 20
2100.510937
 42
-0.003782
  0
VERTEX
  8
0
 10
549.141468
 20
2097.000000
 42
-0.000526
  0
VERTEX
  8
0
 10
541.996806
 20
2088.843322
 42
-0.000718
  0
VERTEX
  8
0
 10
535.537490
 20
2081.505985
 42
-0.000411
  0
VERTEX
  8
0
 10
530.039113
 20
2075.288566
 42
-0.009885
  0
VERTEX
  8
0
 10
528.464285
 20
2073.580014
 42
0.014788
  0
VERTEX
  8
0
 10
527.813145
 20
2072.859538
 42
0.001189
  0
VERTEX
  8
0
 10
526.159459
 20
2070.907879
 42
0.001605
  0
VERTEX
  8
0
 10
524.199400
 20
2068.568256
 42
0.001232
  0
VERTEX
  8
0
 10
522.072479
 20
2066.000000
 42
-0.005571
  0
VERTEX
  8
0
 10
519.793896
 20
2063.296720
 42
-0.005024
  0
VERTEX
  8
0
 10
517.376708
 20
2060.549310
 42
-0.005039
  0
VERTEX
  8
0
 10
515.160759
 20
2058.130572
 42
-0.015880
  0
VERTEX
  8
0
 10
513.608194
 20
2056.572118
 42
0.004936
  0
VERTEX
  8
0
 10
502.465177
 20
2045.865938
 42
0.001449
  0
VERTEX
  8
0
 10
485.566745
 20
2029.209775
 42
0.000911
  0
VERTEX
  8
0
 10
468.613397
 20
2012.341007
 42
0.014824
  0
VERTEX
  8
0
 10
463.101340
 20
2006.500000
 42
-0.005031
  0
VERTEX
  8
0
 10
460.387825
 20
2003.509322
 42
-0.001804
  0
VERTEX
  8
0
 10
456.463727
 20
1999.301453
 42
-0.001790
  0
VERTEX
  8
0
 10
452.128252
 20
1994.718942
 42
-0.002119
  0
VERTEX
  8
0
 10
447.996739
 20
1990.419839
 42
0.007067
  0
VERTEX
  8
0
 10
444.129221
 20
1986.314898
 42
0.008319
  0
VERTEX
  8
0
 10
440.587977
 20
1982.316632
 42
0.007433
  0
VERTEX
  8
0
 10
437.709971
 20
1978.853270
 42
0.050351
  0
VERTEX
  8
0
 10
436.494608
 20
1976.989573
 42
-0.037738
  0
VERTEX
  8
0
 10
435.485332
 20
1975.353297
 42
-0.012369
  0
VERTEX
  8
0
 10
433.763836
 20
1973.102208
 42
-0.012245
  0
VERTEX
  8
0
 10
431.722579
 20
1970.689013
 42
-0.013542
  0
VERTEX
  8
0
 10
429.631101
 20
1968.460390
 42
0.019371
  0
VERTEX
  8
0
 10
425.083724
 20
1963.500211
 42
0.011696
  0
VERTEX
  8
0
 10
420.069808
 20
1957.298404
 42
0.009727
  0
VERTEX
  8
0
 10
414.401582
 20
1949.638044
 42
0.005523
  0
VERTEX
  8
0
 10
407.827083
 20
1940.161572
 42
0.003027
  0
VERTEX
  8
0
 10
402.802792
 20
1932.648436
 42
0.011307
  0
VERTEX
  8
0
 10
399.780312
 20
1927.835699
 42
0.012200
  0
VERTEX
  8
0
 10
397.092490
 20
1923.072584
 42
0.003961
  0
VERTEX
  8
0
 10
393.348482
 20
1915.906150
 42
0.000000
  0
VERTEX
  8
0
 10
388.945042
 20
1907.312300
 42
0.000000
  0
VERTEX
  8
0
 10
388.817608
 20
1893.406150
 42
0.000000
  0
VERTEX
  8
0
 10
388.690173
 20
1879.500000
 42
0.000000
  0
VERTEX
  8
0
 10
394.595087
 20
1866.593572
 42
0.007119
  0
VERTEX
  8
0
 10
397.631836
 20
1860.198389
 42
0.020621
  0
VERTEX
  8
0
 10
399.975140
 20
1855.896733
 42
0.029762
  0
VERTEX
  8
0
 10
402.008286
 20
1852.921963
 42
0.060107
  0
VERTEX
  8
0
 10
404.000000
 20
1850.905067
 42
0.029615
  0
VERTEX
  8
0
 10
406.338479
 20
1849.262297
 42
0.098300
  0
VERTEX
  8
0
 10
408.091107
 20
1848.608169
 42
0.061760
  0
VERTEX
  8
0
 10
410.364498
 20
1848.522009
 42
0.006992
  0
VERTEX
  8
0
 10
415.500000
 20
1849.034513
 42
0.008086
  0
VERTEX
  8
0
 10
418.709537
 20
1849.452887
 42
0.009478
  0
VERTEX
  8
0
 10
421.737500
 20
1849.956308
 42
0.008552
  0
VERTEX
  8
0
 10
424.273884
 20
1850.472600
 42
0.056084
  0
VERTEX
  8
0
 10
425.500000
 20
1850.892528
 42
-0.002312
  0
VERTEX
  8
0
 10
426.664158
 20
1851.436886
 42
-0.000390
  0
VERTEX
  8
0
 10
428.895312
 20
1852.465511
 42
-0.000427
  0
VERTEX
  8
0
 10
431.519079
 20
1853.669948
 42
-0.000379
  0
VERTEX
  8
0
 10
434.250000
 20
1854.918249
 42
0.011481
  0
VERTEX
  8
0
 10
436.836723
 20
1856.170791
 42
0.017459
  0
VERTEX
  8
0
 10
439.017187
 20
1857.387075
 42
0.012276
  0
VERTEX
  8
0
 10
440.721534
 20
1858.475386
 42
0.249482
  0
VERTEX
  8
0
 10
441.000000
 20
1858.998739
 42
-0.290930
  0
VERTEX
  8
0
 10
441.246126
 20
1859.385936
 42
-0.046133
  0
VERTEX
  8
0
 10
442.133243
 20
1859.705880
 42
-0.038997
  0
VERTEX
  8
0
 10
443.379442
 20
1859.927480
 42
-0.024512
  0
VERTEX
  8
0
 10
444.857848
 20
1860.000000
 42
0.053770
  0
VERTEX
  8
0
 10
446.941626
 20
1860.224737
 42
0.026904
  0
VERTEX
  8
0
 10
449.500008
 20
1860.929121
 42
0.023371
  0
VERTEX
  8
0
 10
452.415230
 20
1862.057134
 42
0.016142
  0
VERTEX
  8
0
 10
455.604686
 20
1863.590786
 42
-0.011206
  0
VERTEX
  8
0
 10
459.354229
 20
1865.439534
 42
-0.040769
  0
VERTEX
  8
0
 10
461.842847
 20
1866.359744
 42
-0.060833
  0
VERTEX
  8
0
 10
463.880660
 20
1866.670162
 42
-0.055720
  0
VERTEX
  8
0
 10
465.996838
 20
1866.496939
 42
0.006299
  0
VERTEX
  8
0
 10
467.496854
 20
1866.223356
 42
0.005149
  0
VERTEX
  8
0
 10
469.107508
 20
1865.967546
 42
0.005205
  0
VERTEX
  8
0
 10
470.594257
 20
1865.762881
 42
0.013615
  0
VERTEX
  8
0
 10
471.667019
 20
1865.656152
 42
-0.030419
  0
VERTEX
  8
0
 10
472.555172
 20
1865.537549
 42
-0.029482
  0
VERTEX
  8
0
 10
473.431919
 20
1865.311325
 42
-0.030825
  0
VERTEX
  8
0
 10
474.177299
 20
1865.019561
 42
-0.087949
  0
VERTEX
  8
0
 10
474.632138
 20
1864.701548
 42
-0.137335
  0
VERTEX
  8
0
 10
476.064076
 20
1862.154843
 42
-0.021016
  0
VERTEX
  8
0
 10
477.215215
 20
1856.394100
 42
-0.019595
  0
VERTEX
  8
0
 10
478.117420
 20
1848.652486
 42
-0.009924
  0
VERTEX
  8
0
 10
478.676467
 20
1838.852440
 42
-0.004140
  0
VERTEX
  8
0
 10
478.926270
 20
1830.197740
 42
-0.018968
  0
VERTEX
  8
0
 10
478.839049
 20
1825.172743
 42
-0.031978
  0
VERTEX
  8
0
 10
478.411006
 20
1821.599441
 42
-0.039203
  0
VERTEX
  8
0
 10
477.541941
 20
1818.352440
 42
0.012896
  0
VERTEX
  8
0
 10
475.386563
 20
1811.717454
 42
0.010995
  0
VERTEX
  8
0
 10
473.450142
 20
1804.619062
 42
0.011219
  0
VERTEX
  8
0
 10
471.966398
 20
1798.042336
 42
0.028281
  0
VERTEX
  8
0
 10
471.267514
 20
1793.185161
 42
0.047690
  0
VERTEX
  8
0
 10
471.311449
 20
1788.275215
 42
0.180713
  0
VERTEX
  8
0
 10
472.656671
 20
1785.572454
 42
0.166249
  0
VERTEX
  8
0
 10
475.530992
 20
1784.282236
 42
0.039026
  0
VERTEX
  8
0
 10
480.879845
 20
1784.205084
 42
0.013170
  0
VERTEX
  8
0
 10
484.362671
 20
1784.519136
 42
0.054614
  0
VERTEX
  8
0
 10
486.417717
 20
1784.990321
 42
0.084624
  0
VERTEX
  8
0
 10
487.844118
 20
1785.775784
 42
0.065065
  0
VERTEX
  8
0
 10
489.082066
 20
1787.055901
 42
-0.036720
  0
VERTEX
  8
0
 10
492.924192
 20
1791.506874
 42
-0.052887
  0
VERTEX
  8
0
 10
496.968345
 20
1794.774540
 42
-0.025256
  0
VERTEX
  8
0
 10
503.415305
 20
1798.495160
 42
-0.002743
  0
VERTEX
  8
0
 10
518.739307
 20
1806.229782
 42
-0.008556
  0
VERTEX
  8
0
 10
532.139397
 20
1812.617571
 42
-0.020024
  0
VERTEX
  8
0
 10
542.415072
 20
1816.813552
 42
-0.019140
  0
VERTEX
  8
0
 10
550.086619
 20
1819.265525
 42
-0.269714
  0
VERTEX
  8
0
 10
552.774767
 20
1818.562468
 42
-0.183701
  0
VERTEX
  8
0
 10
553.722566
 20
1816.466853
 42
-0.010476
  0
VERTEX
  8
0
 10
554.014251
 20
1809.258958
 42
-0.016879
  0
VERTEX
  8
0
 10
553.909670
 20
1801.925280
 42
-0.042416
  0
VERTEX
  8
0
 10
553.202381
 20
1796.630478
 42
-0.037390
  0
VERTEX
  8
0
 10
551.682683
 20
1791.580718
 42
-0.014662
  0
VERTEX
  8
0
 10
548.872788
 20
1784.867231
 42
-0.009619
  0
VERTEX
  8
0
 10
545.796203
 20
1778.415227
 42
-0.139146
  0
VERTEX
  8
0
 10
544.103365
 20
1776.563883
 42
0.188967
  0
VERTEX
  8
0
 10
543.700044
 20
1776.026336
 42
0.013364
  0
VERTEX
  8
0
 10
543.239262
 20
1774.171057
 42
0.017387
  0
VERTEX
  8
0
 10
542.814806
 20
1771.863914
 42
0.012162
  0
VERTEX
  8
0
 10
542.490769
 20
1769.239478
 42
-0.018470
  0
VERTEX
  8
0
 10
541.232929
 20
1760.010738
 42
-0.087707
  0
VERTEX
  8
0
 10
539.425395
 20
1755.018165
 42
-0.155072
  0
VERTEX
  8
0
 10
536.578732
 20
1752.414873
 42
-0.101543
  0
VERTEX
  8
0
 10
532.215568
 20
1751.390108
 42
0.005158
  0
VERTEX
  8
0
 10
523.304072
 20
1751.045867
 42
0.002248
  0
VERTEX
  8
0
 10
511.479939
 20
1750.413592
 42
0.002254
  0
VERTEX
  8
0
 10
499.607010
 20
1749.671438
 42
0.004898
  0
VERTEX
  8
0
 10
490.500000
 20
1748.971278
 42
-0.014318
  0
VERTEX
  8
0
 10
484.045004
 20
1748.597161
 42
-0.002296
  0
VERTEX
  8
0
 10
471.421875
 20
1748.285701
 42
-0.002537
  0
VERTEX
  8
0
 10
456.546573
 20
1748.062513
 42
-0.002224
  0
VERTEX
  8
0
 10
441.000000
 20
1747.977301
 42
0.001271
  0
VERTEX
  8
0
 10
415.873271
 20
1747.887438
 42
0.012295
  0
VERTEX
  8
0
 10
405.212430
 20
1747.559962
 42
0.021736
  0
VERTEX
  8
0
 10
396.880280
 20
1746.734377
 42
0.008572
  0
VERTEX
  8
0
 10
385.500000
 20
1744.905178
 42
-0.003378
  0
VERTEX
  8
0
 10
378.294887
 20
1743.670155
 42
-0.002906
  0
VERTEX
  8
0
 10
370.703125
 20
1742.466865
 42
-0.002926
  0
VERTEX
  8
0
 10
363.800422
 20
1741.455185
 42
-0.008435
  0
VERTEX
  8
0
 10
359.000000
 20
1740.862688
 42
0.014062
  0
VERTEX
  8
0
 10
354.574377
 20
1740.265822
 42
0.007201
  0
VERTEX
  8
0
 10
349.059375
 20
1739.281732
 42
0.007150
  0
VERTEX
  8
0
 10
343.403778
 20
1738.104157
 42
0.010679
  0
VERTEX
  8
0
 10
338.500000
 20
1736.899251
 42
-0.012925
  0
VERTEX
  8
0
 10
333.525853
 20
1735.700717
 42
-0.008079
  0
VERTEX
  8
0
 10
327.646875
 20
1734.542980
 42
-0.008106
  0
VERTEX
  8
0
 10
321.813576
 20
1733.589211
 42
-0.014594
  0
VERTEX
  8
0
 10
317.000000
 20
1733.025042
 42
0.005612
  0
VERTEX
  8
0
 10
312.591614
 20
1732.588474
 42
0.005026
  0
VERTEX
  8
0
 10
308.028677
 20
1732.038347
 42
0.005045
  0
VERTEX
  8
0
 10
303.941497
 20
1731.461845
 42
0.015668
  0
VERTEX
  8
0
 10
301.204008
 20
1730.959321
 42
0.022282
  0
VERTEX
  8
0
 10
298.219271
 20
1730.173491
 42
0.072009
  0
VERTEX
  8
0
 10
296.373726
 20
1729.291608
 42
0.076883
  0
VERTEX
  8
0
 10
294.919487
 20
1727.955736
 42
0.027816
  0
VERTEX
  8
0
 10
293.288292
 20
1725.664634
 42
-0.014822
  0
VERTEX
  8
0
 10
292.078749
 20
1723.868806
 42
-0.010153
  0
VERTEX
  8
0
 10
290.605541
 20
1721.901188
 42
-0.010242
  0
VERTEX
  8
0
 10
289.107619
 20
1720.061941
 42
-0.020363
  0
VERTEX
  8
0
 10
287.834284
 20
1718.680438
 42
0.035756
  0
VERTEX
  8
0
 10
286.559802
 20
1717.209363
 42
0.052190
  0
VERTEX
  8
0
 10
285.681631
 20
1715.738185
 42
0.056336
  0
VERTEX
  8
0
 10
285.172347
 20
1714.208092
 42
0.052237
  0
VERTEX
  8
0
 10
285.000000
 20
1712.562924
 42
-0.080129
  0
VERTEX
  8
0
 10
284.538131
 20
1709.699401
 42
-0.015327
  0
VERTEX
  8
0
 10
282.723379
 20
1704.735328
 42
-0.011763
  0
VERTEX
  8
0
 10
279.718149
 20
1697.718623
 42
-0.003766
  0
VERTEX
  8
0
 10
274.930209
 20
1687.434276
 42
0.005988
  0
VERTEX
  8
0
 10
274.190838
 20
1685.827502
 42
0.008214
  0
VERTEX
  8
0
 10
273.566999
 20
1684.363695
 42
0.005641
  0
VERTEX
  8
0
 10
273.080568
 20
1683.128491
 42
0.091220
  0
VERTEX
  8
0
 10
273.000000
 20
1682.690549
 42
-0.098884
  0
VERTEX
  8
0
 10
272.901604
 20
1682.197880
 42
-0.001214
  0
VERTEX
  8
0
 10
271.645385
 20
1679.198929
 42
-0.003549
  0
VERTEX
  8
0
 10
270.155950
 20
1675.736169
 42
-0.002309
  0
VERTEX
  8
0
 10
268.388544
 20
1671.756273
 42
0.004103
  0
VERTEX
  8
0
 10
264.547065
 20
1663.021543
 42
0.002671
  0
VERTEX
  8
0
 10
260.247571
 20
1652.874491
 42
0.002478
  0
VERTEX
  8
0
 10
255.664503
 20
1641.740342
 42
0.002138
  0
VERTEX
  8
0
 10
250.958192
 20
1630.000000
 42
-0.004843
  0
VERTEX
  8
0
 10
249.120101
 20
1625.485566
 42
-0.002251
  0
VERTEX
  8
0
 10
246.651895
 20
1619.661519
 42
-0.002230
  0
VERTEX
  8
0
 10
244.005536
 20
1613.569647
 42
-0.003111
  0
VERTEX
  8
0
 10
241.580094
 20
1608.145598
 42
0.004707
  0
VERTEX
  8
0
 10
239.364589
 20
1603.148285
 42
0.005456
  0
VERTEX
  8
0
 10
237.352741
 20
1598.349407
 42
0.004894
  0
VERTEX
  8
0
 10
235.734974
 20
1594.254836
 42
0.032001
  0
VERTEX
  8
0
 10
235.076713
 20
1592.145598
 42
-0.015117
  0
VERTEX
  8
0
 10
234.595157
 20
1590.397166
 42
-0.006563
  0
VERTEX
  8
0
 10
233.854635
 20
1588.102144
 42
-0.006488
  0
VERTEX
  8
0
 10
233.003048
 20
1585.681042
 42
-0.008576
  0
VERTEX
  8
0
 10
232.161245
 20
1583.500000
 42
0.002608
  0
VERTEX
  8
0
 10
231.161266
 20
1580.998436
 42
0.000971
  0
VERTEX
  8
0
 10
229.780748
 20
1577.471875
 42
0.000962
  0
VERTEX
  8
0
 10
228.290312
 20
1573.620751
 42
0.001163
  0
VERTEX
  8
0
 10
226.906691
 20
1570.000000
 42
-0.002454
  0
VERTEX
  8
0
 10
225.303549
 20
1565.837076
 42
-0.000994
  0
VERTEX
  8
0
 10
223.079351
 20
1560.178125
 42
-0.000984
  0
VERTEX
  8
0
 10
220.662454
 20
1554.099640
 42
-0.001251
  0
VERTEX
  8
0
 10
218.406918
 20
1548.500000
 42
0.004201
  0
VERTEX
  8
0
 10
216.063324
 20
1542.581221
 42
0.002504
  0
VERTEX
  8
0
 10
213.368727
 20
1535.500000
 42
0.002506
  0
VERTEX
  8
0
 10
210.754505
 20
1528.417267
 42
0.004336
  0
VERTEX
  8
0
 10
208.662009
 20
1522.500000
 42
-0.002480
  0
VERTEX
  8
0
 10
206.680074
 20
1516.828475
 42
-0.001795
  0
VERTEX
  8
0
 10
204.417768
 20
1510.528125
 42
-0.001813
  0
VERTEX
  8
0
 10
202.225466
 20
1504.558498
 42
-0.003952
  0
VERTEX
  8
0
 10
200.491491
 20
1500.000000
 42
0.001682
  0
VERTEX
  8
0
 10
198.905594
 20
1495.887085
 42
0.001289
  0
VERTEX
  8
0
 10
197.198868
 20
1491.381250
 42
0.001302
  0
VERTEX
  8
0
 10
195.623372
 20
1487.155900
 42
0.003087
  0
VERTEX
  8
0
 10
194.478091
 20
1484.000000
 42
-0.005583
  0
VERTEX
  8
0
 10
193.305744
 20
1480.819124
 42
-0.002246
  0
VERTEX
  8
0
 10
191.635794
 20
1476.497846
 42
-0.002222
  0
VERTEX
  8
0
 10
189.795398
 20
1471.859198
 42
-0.002811
  0
VERTEX
  8
0
 10
188.051001
 20
1467.588412
 42
0.004634
  0
VERTEX
  8
0
 10
186.410828
 20
1463.530599
 42
0.004962
  0
VERTEX
  8
0
 10
184.884045
 20
1459.534257
 42
0.004716
  0
VERTEX
  8
0
 10
183.638942
 20
1456.075885
 42
0.023188
  0
VERTEX
  8
0
 10
183.046332
 20
1454.088412
 42
-0.027492
  0
VERTEX
  8
0
 10
182.105299
 20
1451.028773
 42
-0.004819
  0
VERTEX
  8
0
 10
179.965382
 20
1445.394739
 42
-0.004368
  0
VERTEX
  8
0
 10
176.970319
 20
1437.925676
 42
-0.002011
  0
VERTEX
  8
0
 10
172.946370
 20
1428.250000
 42
0.007900
  0
VERTEX
  8
0
 10
169.577198
 20
1419.871811
 42
0.001486
  0
VERTEX
  8
0
 10
163.705635
 20
1404.440215
 42
0.000235
  0
VERTEX
  8
0
 10
157.235587
 20
1387.257953
 42
0.090159
  0
VERTEX
  8
0
 10
157.000000
 20
1385.962064
 42
-0.087906
  0
VERTEX
  8
0
 10
156.896746
 20
1385.379307
 42
-0.005594
  0
VERTEX
  8
0
 10
156.280339
 20
1383.751128
 42
-0.008068
  0
VERTEX
  8
0
 10
155.488519
 20
1381.820613
 42
-0.005907
  0
VERTEX
  8
0
 10
154.550092
 20
1379.703224
 42
0.011554
  0
VERTEX
  8
0
 10
153.456327
 20
1377.158133
 42
0.005747
  0
VERTEX
  8
0
 10
152.182610
 20
1373.886711
 42
0.005701
  0
VERTEX
  8
0
 10
150.939871
 20
1370.465150
 42
0.008340
  0
VERTEX
  8
0
 10
149.930877
 20
1367.423588
 42
-0.004055
  0
VERTEX
  8
0
 10
149.005781
 20
1364.552841
 42
-0.003871
  0
VERTEX
  8
0
 10
148.020156
 20
1361.652554
 42
-0.003838
  0
VERTEX
  8
0
 10
147.110270
 20
1359.104762
 42
-0.013785
  0
VERTEX
  8
0
 10
146.472554
 20
1357.500000
 42
0.013640
  0
VERTEX
  8
0
 10
145.734223
 20
1355.643616
 42
0.001669
  0
VERTEX
  8
0
 10
144.242800
 20
1351.531418
 42
0.001976
  0
VERTEX
  8
0
 10
142.506205
 20
1346.632089
 42
0.001630
  0
VERTEX
  8
0
 10
140.692012
 20
1341.394189
 42
-0.002951
  0
VERTEX
  8
0
 10
138.865004
 20
1336.164022
 42
-0.003590
  0
VERTEX
  8
0
 10
137.089817
 20
1331.288042
 42
-0.003029
  0
VERTEX
  8
0
 10
135.542884
 20
1327.207860
 42
-0.024972
  0
VERTEX
  8
0
 10
134.736469
 20
1325.394189
 42
0.025324
  0
VERTEX
  8
0
 10
133.939982
 20
1323.599453
 42
0.003291
  0
VERTEX
  8
0
 10
132.461988
 20
1319.678293
 42
0.003828
  0
VERTEX
  8
0
 10
130.773604
 20
1314.998128
 42
0.003191
  0
VERTEX
  8
0
 10
129.049409
 20
1310.000000
 42
-0.003768
  0
VERTEX
  8
0
 10
127.265349
 20
1304.847656
 42
-0.003726
  0
VERTEX
  8
0
 10
125.397187
 20
1299.703125
 42
-0.003659
  0
VERTEX
  8
0
 10
123.695412
 20
1295.224096
 42
-0.014348
  0
VERTEX
  8
0
 10
122.546544
 20
1292.500000
 42
0.005593
  0
VERTEX
  8
0
 10
120.655815
 20
1288.227374
 42
0.003352
  0
VERTEX
  8
0
 10
118.500862
 20
1283.112294
 42
0.003308
  0
VERTEX
  8
0
 10
116.355118
 20
1277.823262
 42
0.004438
  0
VERTEX
  8
0
 10
114.484819
 20
1273.000000
 42
0.000352
  0
VERTEX
  8
0
 10
113.824061
 20
1271.246329
 42
0.000129
  0
VERTEX
  8
0
 10
112.892090
 20
1268.765625
 42
0.000128
  0
VERTEX
  8
0
 10
111.874838
 20
1266.053692
 42
0.000153
  0
VERTEX
  8
0
 10
110.918577
 20
1263.500000
 42
-0.003139
  0
VERTEX
  8
0
 10
109.931070
 20
1260.910072
 42
-0.002396
  0
VERTEX
  8
0
 10
108.818914
 20
1258.087500
 42
-0.002422
  0
VERTEX
  8
0
 10
107.751432
 20
1255.453030
 42
-0.005700
  0
VERTEX
  8
0
 10
106.922887
 20
1253.500000
 42
0.000755
  0
VERTEX
  8
0
 10
106.099686
 20
1251.611728
 42
0.000371
  0
VERTEX
  8
0
 10
105.057451
 20
1249.206250
 42
0.000368
  0
VERTEX
  8
0
 10
103.978591
 20
1246.706116
 42
0.000536
  0
VERTEX
  8
0
 10
103.031335
 20
1244.500000
 42
-0.000132
  0
VERTEX
  8
0
 10
102.132669
 20
1242.402373
 42
-0.000119
  0
VERTEX
  8
0
 10
101.202566
 20
1240.234375
 42
-0.000119
  0
VERTEX
  8
0
 10
100.368816
 20
1238.293529
 42
-0.000382
  0
VERTEX
  8
0
 10
99.811602
 20
1237.000000
 42
0.002037
  0
VERTEX
  8
0
 10
99.340736
 20
1235.896892
 42
0.001414
  0
VERTEX
  8
0
 10
98.817332
 20
1234.646875
 42
0.001426
  0
VERTEX
  8
0
 10
98.321657
 20
1233.443943
 42
0.002944
  0
VERTEX
  8
0
 10
97.942317
 20
1232.500000
 42
-0.010946
  0
VERTEX
  8
0
 10
97.412542
 20
1231.240361
 42
-0.001034
  0
VERTEX
  8
0
 10
96.040083
 20
1228.184107
 42
-0.001323
  0
VERTEX
  8
0
 10
94.386300
 20
1224.547358
 42
-0.001041
  0
VERTEX
  8
0
 10
92.576113
 20
1220.616108
 42
0.002712
  0
VERTEX
  8
0
 10
90.822360
 20
1216.773660
 42
0.004123
  0
VERTEX
  8
0
 10
89.344233
 20
1213.414264
 42
0.001588
  0
VERTEX
  8
0
 10
88.109406
 20
1210.518549
 42
0.100311
  0
VERTEX
  8
0
 10
88.000000
 20
1209.978702
 42
-0.102432
  0
VERTEX
  8
0
 10
87.887605
 20
1209.435830
 42
-0.001409
  0
VERTEX
  8
0
 10
86.531250
 20
1206.324700
 42
-0.003902
  0
VERTEX
  8
0
 10
84.916274
 20
1202.725231
 42
-0.002550
  0
VERTEX
  8
0
 10
83.000000
 20
1198.597672
 42
0.004352
  0
VERTEX
  8
0
 10
81.084304
 20
1194.432107
 42
0.006280
  0
VERTEX
  8
0
 10
79.468750
 20
1190.712830
 42
0.003490
  0
VERTEX
  8
0
 10
78.169935
 20
1187.555301
 42
0.096110
  0
VERTEX
  8
0
 10
78.000000
 20
1186.679403
 42
-0.096452
  0
VERTEX
  8
0
 10
77.470168
 20
1183.958354
 42
-0.002162
  0
VERTEX
  8
0
 10
72.399553
 20
1171.585597
 42
-0.005320
  0
VERTEX
  8
0
 10
67.340063
 20
1159.747995
 42
-0.016949
  0
VERTEX
  8
0
 10
63.612201
 20
1152.000000
 42
0.028438
  0
VERTEX
  8
0
 10
63.023651
 20
1150.701233
 42
0.009836
  0
VERTEX
  8
0
 10
62.319409
 20
1148.765625
 42
0.009736
  0
VERTEX
  8
0
 10
61.625405
 20
1146.597617
 42
0.011156
  0
VERTEX
  8
0
 10
61.049338
 20
1144.500000
 42
-0.009527
  0
VERTEX
  8
0
 10
59.395597
 20
1138.400533
 42
-0.009063
  0
VERTEX
  8
0
 10
57.484755
 20
1132.265528
 42
-0.007732
  0
VERTEX
  8
0
 10
55.634505
 20
1126.959648
 42
-0.053874
  0
VERTEX
  8
0
 10
54.420044
 20
1124.500000
 42
0.056674
  0
VERTEX
  8
0
 10
52.666332
 20
1120.897686
 42
0.017748
  0
VERTEX
  8
0
 10
50.864572
 20
1115.161322
 42
0.017526
  0
VERTEX
  8
0
 10
49.477912
 20
1109.338694
 42
0.061406
  0
VERTEX
  8
0
 10
49.185268
 20
1105.500000
 42
-0.032596
  0
VERTEX
  8
0
 10
49.147835
 20
1103.487547
 42
-0.011516
  0
VERTEX
  8
0
 10
48.840286
 20
1100.618750
 42
-0.011375
  0
VERTEX
  8
0
 10
48.356615
 20
1097.473344
 42
-0.013114
  0
VERTEX
  8
0
 10
47.749089
 20
1094.500000
 42
0.001139
  0
VERTEX
  8
0
 10
45.745713
 20
1085.766914
 42
0.000939
  0
VERTEX
  8
0
 10
43.648122
 20
1076.445557
 42
0.000961
  0
VERTEX
  8
0
 10
41.666112
 20
1067.478851
 42
0.001564
  0
VERTEX
  8
0
 10
40.021812
 20
1059.857534
 42
-0.005738
  0
VERTEX
  8
0
 10
39.248344
 20
1056.412301
 42
-0.007003
  0
VERTEX
  8
0
 10
38.442722
 20
1053.208142
 42
-0.005966
  0
VERTEX
  8
0
 10
37.696932
 20
1050.536913
 42
-0.048304
  0
VERTEX
  8
0
 10
37.224881
 20
1049.357534
 42
0.054502
  0
VERTEX
  8
0
 10
36.330455
 20
1047.040252
 42
0.011202
  0
VERTEX
  8
0
 10
35.299701
 20
1042.774007
 42
0.010023
  0
VERTEX
  8
0
 10
34.188057
 20
1037.134289
 42
0.005090
  0
VERTEX
  8
0
 10
33.004570
 20
1030.000000
 42
-0.006733
  0
VERTEX
  8
0
 10
32.393129
 20
1026.387653
 42
-0.002953
  0
VERTEX
  8
0
 10
31.490571
 20
1021.618750
 42
-0.002922
  0
VERTEX
  8
0
 10
30.473186
 20
1016.568643
 42
-0.003909
  0
VERTEX
  8
0
 10
29.487657
 20
1012.000000
 42
0.001844
  0
VERTEX
  8
0
 10
27.143292
 20
1001.345898
 42
0.007986
  0
VERTEX
  8
0
 10
25.876308
 20
994.995719
 42
0.013270
  0
VERTEX
  8
0
 10
25.205979
 20
990.689437
 42
0.031982
  0
VERTEX
  8
0
 10
25.000000
 20
987.472500
 42
-0.031701
  0
VERTEX
  8
0
 10
24.892676
 20
985.781455
 42
-0.011275
  0
VERTEX
  8
0
 10
24.532260
 20
983.385568
 42
-0.011137
  0
VERTEX
  8
0
 10
24.017305
 20
980.766393
 42
-0.012896
  0
VERTEX
  8
0
 10
23.407693
 20
978.298790
 42
0.021835
  0
VERTEX
  8
0
 10
22.736388
 20
975.356586
 42
0.007856
  0
VERTEX
  8
0
 10
22.030995
 20
971.119020
 42
0.007775
  0
VERTEX
  8
0
 10
21.402403
 20
966.445163
 42
0.009144
  0
VERTEX
  8
0
 10
20.957066
 20
962.000000
 42
-0.003503
  0
VERTEX
  8
0
 10
19.867579
 20
949.731145
 42
-0.008116
  0
VERTEX
  8
0
 10
18.836238
 20
940.545229
 42
-0.008970
  0
VERTEX
  8
0
 10
17.844272
 20
933.798240
 42
-0.056192
  0
VERTEX
  8
0
 10
16.895212
 20
930.449716
 42
0.050889
  0
VERTEX
  8
0
 10
16.377952
 20
928.695612
 42
0.008823
  0
VERTEX
  8
0
 10
15.801059
 20
925.282104
 42
0.009512
  0
VERTEX
  8
0
 10
15.269025
 20
921.236246
 42
0.008389
  0
VERTEX
  8
0
 10
14.865584
 20
917.000000
 42
-0.004062
  0
VERTEX
  8
0
 10
14.476612
 20
912.503769
 42
-0.003267
  0
VERTEX
  8
0
 10
13.987464
 20
907.675000
 42
-0.003302
  0
VERTEX
  8
0
 10
13.476858
 20
903.219074
 42
-0.008436
  0
VERTEX
  8
0
 10
13.031205
 20
900.000000
 42
0.004817
  0
VERTEX
  8
0
 10
12.575461
 20
896.874695
 42
0.002170
  0
VERTEX
  8
0
 10
12.034789
 20
892.765625
 42
0.002148
  0
VERTEX
  8
0
 10
11.501254
 20
888.420985
 42
0.002930
  0
VERTEX
  8
0
 10
11.060119
 20
884.500000
 42
-0.011999
  0
VERTEX
  8
0
 10
10.551537
 20
880.615085
 42
-0.009101
  0
VERTEX
  8
0
 10
9.814438
 20
876.381250
 42
-0.009216
  0
VERTEX
  8
0
 10
8.976724
 20
872.431612
 42
-0.021118
  0
VERTEX
  8
0
 10
8.166441
 20
869.500000
 42
0.013317
  0
VERTEX
  8
0
 10
7.375404
 20
866.802588
 42
0.008645
  0
VERTEX
  8
0
 10
6.598672
 20
863.646875
 42
0.008693
  0
VERTEX
  8
0
 10
5.946736
 20
860.537335
 42
0.016296
  0
VERTEX
  8
0
 10
5.545880
 20
858.000000
 42
-0.001891
  0
VERTEX
  8
0
 10
5.206850
 20
855.363310
 42
-0.000856
  0
VERTEX
  8
0
 10
4.743852
 20
851.912500
 42
-0.000848
  0
VERTEX
  8
0
 10
4.242973
 20
848.273513
 42
-0.001162
  0
VERTEX
  8
0
 10
3.778987
 20
845.000000
 42
0.013327
  0
VERTEX
  8
0
 10
3.377029
 20
841.564537
 42
0.007683
  0
VERTEX
  8
0
 10
3.067233
 20
837.411428
 42
0.007673
  0
VERTEX
  8
0
 10
2.884161
 20
833.229197
 42
0.012727
  0
VERTEX
  8
0
 10
2.873751
 20
829.698478
 42
-0.013849
  0
VERTEX
  8
0
 10
2.856640
 20
826.403708
 42
-0.012024
  0
VERTEX
  8
0
 10
2.660091
 20
822.955350
 42
-0.012181
  0
VERTEX
  8
0
 10
2.330860
 20
819.841628
 42
-0.034398
  0
VERTEX
  8
0
 10
1.899824
 20
817.698478
 42
0.034255
  0
VERTEX
  8
0
 10
1.445343
 20
815.442102
 42
0.009393
  0
VERTEX
  8
0
 10
1.041562
 20
811.835544
 42
0.009448
  0
VERTEX
  8
0
 10
0.737225
 20
807.719955
 42
0.009725
  0
VERTEX
  8
0
 10
0.592295
 20
803.635290
 42
0.005578
  0
VERTEX
  8
0
 10
0.566740
 20
798.378447
 42
0.031430
  0
VERTEX
  8
0
 10
0.760572
 20
795.579180
 42
0.066153
  0
VERTEX
  8
0
 10
1.189784
 20
793.991873
 42
0.219372
  0
VERTEX
  8
0
 10
1.967141
 20
793.278228
 42
-0.024679
  0
VERTEX
  8
0
 10
3.607024
 20
792.660713
 42
-0.006030
  0
VERTEX
  8
0
 10
6.242255
 20
791.479003
 42
-0.006500
  0
VERTEX
  8
0
 10
8.948341
 20
790.183128
 42
-0.013812
  0
VERTEX
  8
0
 10
11.000000
 20
789.096093
 42
0.039945
  0
VERTEX
  8
0
 10
11.900357
 20
788.677706
 42
0.006882
  0
VERTEX
  8
0
 10
13.675000
 20
788.047171
 42
0.007454
  0
VERTEX
  8
0
 10
15.784320
 20
787.365169
 42
0.006601
  0
VERTEX
  8
0
 10
18.000000
 20
786.716968
 42
-0.000024
  0
VERTEX
  8
0
 10
20.503762
 20
786.020106
 42
-0.000014
  0
VERTEX
  8
0
 10
23.500000
 20
785.185932
 42
-0.000014
  0
VERTEX
  8
0
 10
26.496235
 20
784.351579
 42
-0.000024
  0
VERTEX
  8
0
 10
29.000000
 20
783.654158
 42
0.006890
  0
VERTEX
  8
0
 10
31.398310
 20
783.021470
 42
0.005141
  0
VERTEX
  8
0
 10
34.059375
 20
782.387536
 42
0.005198
  0
VERTEX
  8
0
 10
36.580074
 20
781.841861
 42
0.011774
  0
VERTEX
  8
0
 10
38.500000
 20
781.493992
 42
-0.015690
  0
VERTEX
  8
0
 10
40.285877
 20
781.155948
 42
-0.009826
  0
VERTEX
  8
0
 10
42.353125
 20
780.654213
 42
-0.009860
  0
VERTEX
  8
0
 10
44.371567
 20
780.079316
 42
-0.017691
  0
VERTEX
  8
0
 10
46.000000
 20
779.516853
 42
0.014933
  0
VERTEX
  8
0
 10
51.206547
 20
777.686312
 42
0.013161
  0
VERTEX
  8
0
 10
56.735916
 20
776.084939
 42
0.011243
  0
VERTEX
  8
0
 10
63.113839
 20
774.570769
 42
0.006262
  0
VERTEX
  8
0
 10
70.944751
 20
772.998976
 42
-0.010534
  0
VERTEX
  8
0
 10
76.765833
 20
771.778757
 42
-0.020055
  0
VERTEX
  8
0
 10
81.378142
 20
770.513178
 42
-0.023343
  0
VERTEX
  8
0
 10
85.370972
 20
769.034912
 42
-0.022533
  0
VERTEX
  8
0
 10
89.257180
 20
767.175278
 42
-0.039234
  0
VERTEX
  8
0
 10
96.375356
 20
762.614730
 42
-0.026610
  0
VERTEX
  8
0
 10
103.734295
 20
756.398273
 42
-0.026396
  0
VERTEX
  8
0
 10
110.479732
 20
749.348942
 42
-0.035520
  0
VERTEX
  8
0
 10
115.751064
 20
742.262807
 42
-0.022507
  0
VERTEX
  8
0
 10
122.495930
 20
730.579405
 42
-0.003489
  0
VERTEX
  8
0
 10
134.636188
 20
706.772834
 42
-0.003469
  0
VERTEX
  8
0
 10
146.444851
 20
682.797912
 42
-0.022827
  0
VERTEX
  8
0
 10
151.718115
 20
670.500000
 42
0.005804
  0
VERTEX
  8
0
 10
152.439635
 20
668.645488
 42
0.003038
  0
VERTEX
  8
0
 10
153.378509
 20
666.353125
 42
0.003021
  0
VERTEX
  8
0
 10
154.369796
 20
664.014015
 42
0.004627
  0
VERTEX
  8
0
 10
155.259889
 20
662.000000
 42
-0.011621
  0
VERTEX
  8
0
 10
157.094767
 20
657.686006
 42
-0.003952
  0
VERTEX
  8
0
 10
159.564622
 20
651.337146
 42
-0.003927
  0
VERTEX
  8
0
 10
162.183086
 20
644.279124
 42
-0.004513
  0
VERTEX
  8
0
 10
164.568706
 20
637.500000
 42
0.008162
  0
VERTEX
  8
0
 10
165.424204
 20
635.124465
 42
0.003761
  0
VERTEX
  8
0
 10
166.611325
 20
632.059375
 42
0.003724
  0
VERTEX
  8
0
 10
167.908299
 20
628.853958
 42
0.005154
  0
VERTEX
  8
0
 10
169.122464
 20
626.000000
 42
-0.017255
  0
VERTEX
  8
0
 10
171.969755
 20
618.830502
 42
-0.013064
  0
VERTEX
  8
0
 10
174.612190
 20
610.786851
 42
-0.012350
  0
VERTEX
  8
0
 10
176.983778
 20
602.102246
 42
-0.011109
  0
VERTEX
  8
0
 10
179.016023
 20
593.000000
 42
-0.029639
  0
VERTEX
  8
0
 10
180.852674
 20
579.793751
 42
-0.012495
  0
VERTEX
  8
0
 10
181.818929
 20
561.896914
 42
-0.011697
  0
VERTEX
  8
0
 10
181.915666
 20
544.488931
 42
-0.047402
  0
VERTEX
  8
0
 10
180.725612
 20
533.961759
 42
0.015580
  0
VERTEX
  8
0
 10
180.084884
 20
530.361923
 42
0.007032
  0
VERTEX
  8
0
 10
179.458845
 20
525.607517
 42
0.006954
  0
VERTEX
  8
0
 10
178.937949
 20
520.565746
 42
0.009434
  0
VERTEX
  8
0
 10
178.617016
 20
516.000000
 42
-0.014440
  0
VERTEX
  8
0
 10
178.198274
 20
510.789098
 42
-0.011764
  0
VERTEX
  8
0
 10
177.458193
 20
505.240134
 42
-0.011470
  0
VERTEX
  8
0
 10
176.432222
 20
499.571601
 42
-0.011739
  0
VERTEX
  8
0
 10
175.154260
 20
494.000000
 42
0.002737
  0
VERTEX
  8
0
 10
173.942205
 20
489.120582
 42
0.002343
  0
VERTEX
  8
0
 10
172.717905
 20
483.968750
 42
0.002360
  0
VERTEX
  8
0
 10
171.649345
 20
479.276524
 42
0.006743
  0
VERTEX
  8
0
 10
170.965674
 20
476.000000
 42
-0.007682
  0
VERTEX
  8
0
 10
170.425986
 20
473.437594
 42
-0.010067
  0
VERTEX
  8
0
 10
169.850178
 20
471.115625
 42
-0.007863
  0
VERTEX
  8
0
 10
169.302053
 20
469.201813
 42
-0.088384
  0
VERTEX
  8
0
 10
168.944697
 20
468.500000
 42
0.087478
  0
VERTEX
  8
0
 10
167.766685
 20
466.196746
 42
0.002224
  0
VERTEX
  8
0
 10
164.369092
 20
454.967491
 42
0.004575
  0
VERTEX
  8
0
 10
161.279108
 20
444.230264
 42
0.026822
  0
VERTEX
  8
0
 10
160.013178
 20
438.500000
 42
-0.002993
  0
VERTEX
  8
0
 10
158.566276
 20
430.059953
 42
-0.008771
  0
VERTEX
  8
0
 10
157.432659
 20
424.268975
 42
-0.012150
  0
VERTEX
  8
0
 10
156.342710
 20
419.719627
 42
-0.014027
  0
VERTEX
  8
0
 10
155.078321
 20
415.443619
 42
0.013528
  0
VERTEX
  8
0
 10
154.218042
 20
412.544915
 42
0.005865
  0
VERTEX
  8
0
 10
153.223898
 20
408.646941
 42
0.005798
  0
VERTEX
  8
0
 10
152.262865
 20
404.474731
 42
0.007667
  0
VERTEX
  8
0
 10
151.490164
 20
400.652349
 42
-0.006352
  0
VERTEX
  8
0
 10
150.756726
 20
396.974414
 42
-0.005973
  0
VERTEX
  8
0
 10
149.915804
 20
393.239903
 42
-0.005953
  0
VERTEX
  8
0
 10
149.091408
 20
389.947276
 42
-0.020490
  0
VERTEX
  8
0
 10
148.444555
 20
387.842853
 42
0.012667
  0
VERTEX
  8
0
 10
147.773557
 20
385.775577
 42
0.003942
  0
VERTEX
  8
0
 10
146.869415
 20
382.638840
 42
0.003938
  0
VERTEX
  8
0
 10
145.914079
 20
379.116847
 42
0.004333
  0
VERTEX
  8
0
 10
145.045270
 20
375.690504
 42
-0.002774
  0
VERTEX
  8
0
 10
144.098432
 20
371.906964
 42
-0.001502
  0
VERTEX
  8
0
 10
142.893768
 20
367.262211
 42
-0.001496
  0
VERTEX
  8
0
 10
141.639026
 20
362.541059
 42
-0.002363
  0
VERTEX
  8
0
 10
140.531574
 20
358.500000
 42
0.024707
  0
VERTEX
  8
0
 10
135.403505
 20
335.866088
 42
0.020275
  0
VERTEX
  8
0
 10
132.119187
 20
311.290915
 42
0.020748
  0
VERTEX
  8
0
 10
130.905046
 20
287.421429
 42
0.032947
  0
VERTEX
  8
0
 10
132.060889
 20
267.000000
 42
-0.021778
  0
VERTEX
  8
0
 10
132.763050
 20
258.114717
 42
-0.001775
  0
VERTEX
  8
0
 10
133.504301
 20
234.785417
 42
-0.001774
  0
VERTEX
  8
0
 10
134.330973
 20
201.275228
 42
-0.000539
  0
VERTEX
  8
0
 10
135.348506
 20
150.500000
 42
0.006173
  0
VERTEX
  8
0
 10
136.142612
 20
125.140557
 42
0.006333
  0
VERTEX
  8
0
 10
137.558515
 20
100.025048
 42
0.004739
  0
VERTEX
  8
0
 10
139.274431
 20
78.199992
 42
0.050930
  0
VERTEX
  8
0
 10
140.944997
 20
69.500000
 42
0.022081
  0
VERTEX
  8
0
 10
144.090832
 20
60.481896
 42
0.013425
  0
VERTEX
  8
0
 10
148.557475
 20
50.109812
 42
0.013461
  0
VERTEX
  8
0
 10
153.475022
 20
40.194502
 42
0.026594
  0
VERTEX
  8
0
 10
157.995429
 20
32.661880
 42
0.035949
  0
VERTEX
  8
0
 10
162.066611
 20
27.475829
 42
0.011890
  0
VERTEX
  8
0
 10
168.747496
 20
20.463387
 42
0.011518
  0
VERTEX
  8
0
 10
175.678662
 20
13.838707
 42
0.043404
  0
VERTEX
  8
0
 10
180.446483
 20
10.191530
 42
-0.010227
  0
VERTEX
  8
0
 10
182.084488
 20
9.102593
 42
-0.010647
  0
VERTEX
  8
0
 10
183.654393
 20
7.961672
 42
-0.010389
  0
VERTEX
  8
0
 10
184.968544
 20
6.919416
 42
-0.044984
  0
VERTEX
  8
0
 10
185.674855
 20
6.219004
 42
0.074914
  0
VERTEX
  8
0
 10
186.352923
 20
5.622414
 42
0.026335
  0
VERTEX
  8
0
 10
187.481358
 20
4.977277
 42
0.025454
  0
VERTEX
  8
0
 10
188.815700
 20
4.388102
 42
0.027153
  0
VERTEX
  8
0
 10
190.174855
 20
3.951810
 42
0.003219
  0
VERTEX
  8
0
 10
198.705082
 20
1.774764
 42
0.038588
  0
VERTEX
  8
0
 10
202.053087
 20
1.212775
 42
0.073546
  0
VERTEX
  8
0
 10
204.674236
 20
1.364072
 42
0.025225
  0
VERTEX
  8
0
 10
208.363891
 20
2.325573
 42
-0.020652
  0
VERTEX
  8
0
 10
210.736640
 20
2.967114
 42
-0.014052
  0
VERTEX
  8
0
 10
213.480694
 20
3.508137
 42
-0.014179
  0
VERTEX
  8
0
 10
216.162766
 20
3.881198
 42
-0.027470
  0
VERTEX
  8
0
 10
218.323541
 20
4.000000
 42
0.029616
  0
VERTEX
  8
0
 10
222.410094
 20
4.242267
 42
0.021459
  0
VERTEX
  8
0
 10
226.911597
 20
4.974912
 42
0.015499
  0
VERTEX
  8
0
 10
232.591678
 20
6.336350
 42
0.005630
  0
VERTEX
  8
0
 10
240.559099
 20
8.605903
 42
-0.005483
  0
VERTEX
  8
0
 10
243.774006
 20
9.522704
 42
-0.006924
  0
VERTEX
  8
0
 10
246.768051
 20
10.296734
 42
-0.005607
  0
VERTEX
  8
0
 10
249.288640
 20
10.881397
 42
-0.054231
  0
VERTEX
  8
0
 10
250.378923
 20
11.000000
 42
0.095387
  0
VERTEX
  8
0
 10
251.327651
 20
11.182654
 42
0.019017
  0
VERTEX
  8
0
 10
252.911787
 20
11.887097
 42
0.019482
  0
VERTEX
  8
0
 10
254.719354
 20
12.863836
 42
0.017069
  0
VERTEX
  8
0
 10
256.528928
 20
14.019903
 42
-0.028168
  0
VERTEX
  8
0
 10
258.664576
 20
15.318483
 42
-0.014000
  0
VERTEX
  8
0
 10
261.501574
 20
16.731133
 42
-0.013850
  0
VERTEX
  8
0
 10
264.531809
 20
18.034860
 42
-0.019760
  0
VERTEX
  8
0
 10
267.293416
 20
19.008908
 42
0.016467
  0
VERTEX
  8
0
 10
269.904186
 20
19.910474
 42
0.015973
  0
VERTEX
  8
0
 10
272.477025
 20
20.990315
 42
0.016105
  0
VERTEX
  8
0
 10
274.676097
 20
22.084043
 42
0.055233
  0
VERTEX
  8
0
 10
275.987322
 20
22.989005
 42
-0.025984
  0
VERTEX
  8
0
 10
276.973948
 20
23.758680
 42
-0.027199
  0
VERTEX
  8
0
 10
278.020580
 20
24.409270
 42
-0.028196
  0
VERTEX
  8
0
 10
278.980495
 20
24.867516
 42
-0.097561
  0
VERTEX
  8
0
 10
279.653010
 20
25.000000
 42
0.072596
  0
VERTEX
  8
0
 10
280.167733
 20
25.075129
 42
0.087407
  0
VERTEX
  8
0
 10
280.604322
 20
25.293750
 42
0.100487
  0
VERTEX
  8
0
 10
280.896187
 20
25.618656
 42
0.133682
  0
VERTEX
  8
0
 10
281.000000
 20
26.000000
 42
-0.132956
  0
VERTEX
  8
0
 10
281.103229
 20
26.381345
 42
-0.100532
  0
VERTEX
  8
0
 10
281.393474
 20
26.706250
 42
-0.087654
  0
VERTEX
  8
0
 10
281.827642
 20
26.924847
 42
-0.073022
  0
VERTEX
  8
0
 10
282.339485
 20
27.000000
 42
0.142970
  0
VERTEX
  8
0
 10
282.932597
 20
27.173133
 42
0.054020
  0
VERTEX
  8
0
 10
283.613021
 20
27.718839
 42
0.047867
  0
VERTEX
  8
0
 10
284.268314
 20
28.510813
 42
0.042037
  0
VERTEX
  8
0
 10
284.793948
 20
29.447110
 42
-0.116293
  0
VERTEX
  8
0
 10
287.251952
 20
32.620288
 42
-0.115121
  0
VERTEX
  8
0
 10
290.877329
 20
34.375778
 42
-0.044825
  0
VERTEX
  8
0
 10
297.423755
 20
35.245783
 42
-0.004793
  0
VERTEX
  8
0
 10
312.760144
 20
35.751244
 42
-0.011601
  0
VERTEX
  8
0
 10
330.860622
 20
35.754108
 42
-0.015848
  0
VERTEX
  8
0
 10
347.142204
 20
34.862029
 42
-0.016862
  0
VERTEX
  8
0
 10
360.479785
 20
33.251767
 42
-0.064525
  0
VERTEX
  8
0
 10
368.500000
 20
30.921690
 42
0.040173
  0
VERTEX
  8
0
 10
369.721149
 20
30.501627
 42
0.005912
  0
VERTEX
  8
0
 10
372.262500
 20
29.881912
 42
0.006640
  0
VERTEX
  8
0
 10
375.290447
 20
29.223600
 42
0.005661
  0
VERTEX
  8
0
 10
378.500000
 20
28.608079
 42
-0.002934
  0
VERTEX
  8
0
 10
382.429663
 20
27.876659
 42
-0.001176
  0
VERTEX
  8
0
 10
387.798042
 20
26.831732
 42
-0.001164
  0
VERTEX
  8
0
 10
393.578261
 20
25.678545
 42
-0.001470
  0
VERTEX
  8
0
 10
398.918868
 20
24.583784
 42
0.003470
  0
VERTEX
  8
0
 10
403.846239
 20
23.594256
 42
0.004498
  0
VERTEX
  8
0
 10
408.378449
 20
22.758987
 42
0.003415
  0
VERTEX
  8
0
 10
412.182846
 20
22.119921
 42
0.039921
  0
VERTEX
  8
0
 10
413.682436
 20
22.000000
 42
-0.032384
  0
VERTEX
  8
0
 10
414.707088
 20
21.933565
 42
-0.022578
  0
VERTEX
  8
0
 10
415.848458
 20
21.732185
 42
-0.022858
  0
VERTEX
  8
0
 10
416.930086
 20
21.438074
 42
-0.043097
  0
VERTEX
  8
0
 10
417.763569
 20
21.088289
 42
0.044113
  0
VERTEX
  8
0
 10
418.769910
 20
20.668359
 42
0.009196
  0
VERTEX
  8
0
 10
420.605548
 20
20.123063
 42
0.009585
  0
VERTEX
  8
0
 10
422.767009
 20
19.568394
 42
0.008925
  0
VERTEX
  8
0
 10
425.000000
 20
19.082689
 42
-0.001354
  0
VERTEX
  8
0
 10
427.729903
 20
18.532050
 42
-0.000517
  0
VERTEX
  8
0
 10
431.528125
 20
17.751117
 42
-0.000512
  0
VERTEX
  8
0
 10
435.651258
 20
16.894528
 42
-0.000629
  0
VERTEX
  8
0
 10
439.500000
 20
16.085777
 42
0.013184
  0
VERTEX
  8
0
 10
456.574125
 20
12.943326
 42
0.022037
  0
VERTEX
  8
0
 10
471.085600
 20
11.317428
 42
0.017942
  0
VERTEX
  8
0
 10
487.606587
 20
10.794681
 42
0.005852
  0
VERTEX
  8
0
 10
512.000000
 20
11.183847
 42
0.000814
  0
VERTEX
  8
0
 10
523.699377
 20
11.526564
 42
0.001049
  0
VERTEX
  8
0
 10
534.450000
 20
11.881587
 42
0.000798
  0
VERTEX
  8
0
 10
543.460995
 20
12.212474
 42
0.009174
  0
VERTEX
  8
0
 10
547.000000
 20
12.413163
 42
-0.003961
  0
VERTEX
  8
0
 10
549.976671
 20
12.613116
 42
-0.000985
  0
VERTEX
  8
0
 10
554.850000
 20
12.892076
 42
-0.001007
  0
VERTEX
  8
0
 10
560.428125
 20
13.189081
 42
-0.001011
  0
VERTEX
  8
0
 10
566.000000
 20
13.463200
 42
0.002749
  0
VERTEX
  8
0
 10
578.315466
 20
14.111996
 42
0.002273
  0
VERTEX
  8
0
 10
591.431208
 20
14.935113
 42
0.002209
  0
VERTEX
  8
0
 10
604.955153
 20
15.905620
 42
0.002195
  0
VERTEX
  8
0
 10
618.500000
 20
16.997618
 42
0.001731
  0
VERTEX
  8
0
 10
627.119294
 20
17.760668
 42
0.002930
  0
VERTEX
  8
0
 10
634.332303
 20
18.467049
 42
0.002177
  0
VERTEX
  8
0
 10
642.863712
 20
19.390610
 42
0.000556
  0
VERTEX
  8
0
 10
656.676084
 20
20.962268
 42
0.007224
  0
VERTEX
  8
0
 10
664.494523
 20
21.975354
 42
0.005086
  0
VERTEX
  8
0
 10
673.257619
 20
23.330958
 42
0.005129
  0
VERTEX
  8
0
 10
681.599259
 20
24.796431
 42
0.010970
  0
VERTEX
  8
0
 10
688.000000
 20
26.134655
 42
-0.007908
  0
VERTEX
  8
0
 10
690.013988
 20
26.568615
 42
-0.005143
  0
VERTEX
  8
0
 10
692.353125
 20
27.009085
 42
-0.005172
  0
VERTEX
  8
0
 10
694.645287
 20
27.391930
 42
-0.009803
  0
VERTEX
  8
0
 10
696.500000
 20
27.644883
 42
0.006360
  0
VERTEX
  8
0
 10
699.929542
 20
28.088589
 42
0.002158
  0
VERTEX
  8
0
 10
704.905344
 20
28.818725
 42
0.001132
  0
VERTEX
  8
0
 10
712.890189
 20
30.044122
 42
0.000181
  0
VERTEX
  8
0
 10
728.500000
 20
32.481650
 42
0.008458
  0
VERTEX
  8
0
 10
732.239061
 20
33.131880
 42
0.007957
  0
VERTEX
  8
0
 10
736.031250
 20
33.920390
 42
0.007947
  0
VERTEX
  8
0
 10
739.369876
 20
34.726144
 42
0.027121
  0
VERTEX
  8
0
 10
741.500000
 20
35.401290
 42
-0.014109
  0
VERTEX
  8
0
 10
743.181811
 20
35.982895
 42
-0.013296
  0
VERTEX
  8
0
 10
744.927188
 20
36.481274
 42
-0.013387
  0
VERTEX
  8
0
 10
746.496336
 20
36.840047
 42
-0.044178
  0
VERTEX
  8
0
 10
747.550000
 20
36.956107
 42
0.034618
  0
VERTEX
  8
0
 10
748.404558
 20
37.033757
 42
0.030619
  0
VERTEX
  8
0
 10
749.276875
 20
37.229779
 42
0.031892
  0
VERTEX
  8
0
 10
750.041879
 20
37.505586
 42
0.076644
  0
VERTEX
  8
0
 10
750.550000
 20
37.826120
 42
-0.100025
  0
VERTEX
  8
0
 10
752.186693
 20
38.755367
 42
-0.013861
  0
VERTEX
  8
0
 10
755.951021
 20
39.875692
 42
-0.014432
  0
VERTEX
  8
0
 10
760.779297
 20
41.019891
 42
-0.008976
  0
VERTEX
  8
0
 10
766.500000
 20
42.095623
 42
0.006386
  0
VERTEX
  8
0
 10
769.363280
 20
42.618698
 42
0.006619
  0
VERTEX
  8
0
 10
772.178125
 20
43.208962
 42
0.006411
  0
VERTEX
  8
0
 10
774.600050
 20
43.783101
 42
0.028276
  0
VERTEX
  8
0
 10
776.000000
 20
44.219412
 42
-0.021878
  0
VERTEX
  8
0
 10
777.695718
 20
44.771789
 42
-0.001378
  0
VERTEX
  8
0
 10
782.759375
 20
46.164496
 42
-0.002027
  0
VERTEX
  8
0
 10
788.806228
 20
47.783407
 42
-0.001504
  0
VERTEX
  8
0
 10
795.500000
 20
49.524937
 42
0.003492
  0
VERTEX
  8
0
 10
810.481394
 20
53.486324
 42
0.011825
  0
VERTEX
  8
0
 10
820.176790
 20
56.370447
 42
0.010862
  0
VERTEX
  8
0
 10
830.130785
 20
59.830174
 42
0.002602
  0
VERTEX
  8
0
 10
846.500000
 20
66.018458
 42
-0.001145
  0
VERTEX
  8
0
 10
859.391816
 20
70.935097
 42
-0.002846
  0
VERTEX
  8
0
 10
868.855694
 20
74.458131
 42
-0.003430
  0
VERTEX
  8
0
 10
877.244955
 20
77.461781
 42
-0.002590
  0
VERTEX
  8
0
 10
886.500000
 20
80.650232
 42
0.001485
  0
VERTEX
  8
0
 10
891.625078
 20
82.403212
 42
0.001980
  0
VERTEX
  8
0
 10
896.268750
 20
84.027564
 42
0.001386
  0
VERTEX
  8
0
 10
900.153067
 20
85.415716
 42
0.020286
  0
VERTEX
  8
0
 10
901.500000
 20
85.963983
 42
-0.013983
  0
VERTEX
  8
0
 10
902.444858
 20
86.362539
 42
-0.007219
  0
VERTEX
  8
0
 10
903.646875
 20
86.810551
 42
-0.007170
  0
VERTEX
  8
0
 10
904.897069
 20
87.235966
 42
-0.010782
  0
VERTEX
  8
0
 10
906.000000
 20
87.567601
 42
0.018394
  0
VERTEX
  8
0
 10
907.233872
 20
87.959183
 42
0.006823
  0
VERTEX
  8
0
 10
908.940625
 20
88.597201
 42
0.006751
  0
VERTEX
  8
0
 10
910.785319
 20
89.344460
 42
0.008093
  0
VERTEX
  8
0
 10
912.500000
 20
90.099048
 42
-0.016936
  0
VERTEX
  8
0
 10
914.422853
 20
90.904971
 42
-0.008116
  0
VERTEX
  8
0
 10
916.940625
 20
91.814872
 42
-0.008036
  0
VERTEX
  8
0
 10
919.602029
 20
92.680568
 42
-0.011363
  0
VERTEX
  8
0
 10
922.000000
 20
93.358927
 42
0.017187
  0
VERTEX
  8
0
 10
924.569964
 20
94.118371
 42
0.008397
  0
VERTEX
  8
0
 10
927.793750
 20
95.253285
 42
0.008319
  0
VERTEX
  8
0
 10
931.109996
 20
96.546890
 42
0.011932
  0
VERTEX
  8
0
 10
934.000000
 20
97.811325
 42
-0.007208
  0
VERTEX
  8
0
 10
940.470805
 20
100.715565
 42
-0.003163
  0
VERTEX
  8
0
 10
949.119600
 20
104.383753
 42
-0.003176
  0
VERTEX
  8
0
 10
958.045533
 20
108.036653
 42
-0.005534
  0
VERTEX
  8
0
 10
965.500000
 20
110.936810
 42
0.001260
  0
VERTEX
  8
0
 10
967.943763
 20
111.863585
 42
0.001354
  0
VERTEX
  8
0
 10
970.325000
 20
112.780912
 42
0.001279
  0
VERTEX
  8
0
 10
972.365754
 20
113.579441
 42
0.006434
  0
VERTEX
  8
0
 10
973.500000
 20
114.043561
 42
-0.027915
  0
VERTEX
  8
0
 10
977.365285
 20
115.434628
 42
-0.006379
  0
VERTEX
  8
0
 10
984.051853
 20
117.334835
 42
-0.006746
  0
VERTEX
  8
0
 10
990.867908
 20
119.079855
 42
-0.021220
  0
VERTEX
  8
0
 10
995.500000
 20
119.993324
 42
0.003074
  0
VERTEX
  8
0
 10
997.810154
 20
120.362388
 42
0.001666
  0
VERTEX
  8
0
 10
1000.646875
 20
120.843194
 42
0.001659
  0
VERTEX
  8
0
 10
1003.530860
 20
121.351765
 42
0.002623
  0
VERTEX
  8
0
 10
1006.000000
 20
121.809018
 42
-0.017280
  0
VERTEX
  8
0
 10
1008.875633
 20
122.254816
 42
-0.005243
  0
VERTEX
  8
0
 10
1013.262500
 20
122.733818
 42
-0.005244
  0
VERTEX
  8
0
 10
1018.193778
 20
123.167821
 42
-0.005693
  0
VERTEX
  8
0
 10
1023.000000
 20
123.485055
 42
0.012685
  0
VERTEX
  8
0
 10
1028.130526
 20
123.895817
 42
0.008144
  0
VERTEX
  8
0
 10
1034.059375
 20
124.620023
 42
0.008184
  0
VERTEX
  8
0
 10
1039.844079
 20
125.519175
 42
0.015173
  0
VERTEX
  8
0
 10
1044.500000
 20
126.467408
 42
-0.002964
  0
VERTEX
  8
0
 10
1048.804646
 20
127.454135
 42
-0.002343
  0
VERTEX
  8
0
 10
1053.471875
 20
128.471961
 42
-0.002368
  0
VERTEX
  8
0
 10
1057.813073
 20
129.375923
 42
-0.005889
  0
VERTEX
  8
0
 10
1061.000000
 20
129.984803
 42
0.004777
  0
VERTEX
  8
0
 10
1069.165980
 20
131.526138
 42
0.003605
  0
VERTEX
  8
0
 10
1078.107911
 20
133.369681
 42
0.003485
  0
VERTEX
  8
0
 10
1086.276114
 20
135.174820
 42
0.012212
  0
VERTEX
  8
0
 10
1091.500000
 20
136.502541
 42
-0.003735
  0
VERTEX
  8
0
 10
1093.597636
 20
137.073712
 42
-0.003421
  0
VERTEX
  8
0
 10
1095.765625
 20
137.630838
 42
-0.003420
  0
VERTEX
  8
0
 10
1097.707503
 20
138.101631
 42
-0.011193
  0
VERTEX
  8
0
 10
1099.000000
 20
138.375263
 42
0.035002
  0
VERTEX
  8
0
 10
1102.042476
 20
139.172316
 42
0.003148
  0
VERTEX
  8
0
 10
1109.495460
 20
141.745897
 42
0.003766
  0
VERTEX
  8
0
 10
1116.850968
 20
144.400208
 42
0.024038
  0
VERTEX
  8
0
 10
1120.500000
 20
145.951243
 42
-0.006890
  0
VERTEX
  8
0
 10
1126.839437
 20
148.906383
 42
-0.006381
  0
VERTEX
  8
0
 10
1133.421185
 20
151.764376
 42
-0.006650
  0
VERTEX
  8
0
 10
1139.571839
 20
154.246736
 42
-0.013106
  0
VERTEX
  8
0
 10
1144.533281
 20
156.024646
 42
0.015203
  0
VERTEX
  8
0
 10
1147.443506
 20
157.081309
 42
0.013196
  0
VERTEX
  8
0
 10
1150.426763
 20
158.360516
 42
0.013387
  0
VERTEX
  8
0
 10
1153.066623
 20
159.662668
 42
0.037486
  0
VERTEX
  8
0
 10
1154.813148
 20
160.757540
 42
-0.028329
  0
VERTEX
  8
0
 10
1156.511411
 20
161.865942
 42
-0.011073
  0
VERTEX
  8
0
 10
1158.970446
 20
163.207599
 42
-0.010919
  0
VERTEX
  8
0
 10
1161.701599
 20
164.545398
 42
-0.013350
  0
VERTEX
  8
0
 10
1164.313148
 20
165.670978
 42
0.001334
  0
VERTEX
  8
0
 10
1166.865146
 20
166.698909
 42
0.001326
  0
VERTEX
  8
0
 10
1169.416987
 20
167.742589
 42
0.001298
  0
VERTEX
  8
0
 10
1171.643333
 20
168.666810
 42
0.005184
  0
VERTEX
  8
0
 10
1173.000000
 20
169.250734
 42
-0.029583
  0
VERTEX
  8
0
 10
1174.352285
 20
169.756137
 42
-0.008210
  0
VERTEX
  8
0
 10
1176.528125
 20
170.386753
 42
-0.008258
  0
VERTEX
  8
0
 10
1179.019530
 20
171.020689
 42
-0.008570
  0
VERTEX
  8
0
 10
1181.500000
 20
171.563675
 42
0.000894
  0
VERTEX
  8
0
 10
1191.239700
 20
173.539552
 42
0.002087
  0
VERTEX
  8
0
 10
1198.519544
 20
175.061638
 42
0.002633
  0
VERTEX
  8
0
 10
1203.950881
 20
176.250849
 42
0.008767
  0
VERTEX
  8
0
 10
1207.500000
 20
177.113178
 42
0.052127
  0
VERTEX
  8
0
 10
1212.186769
 20
178.877535
 42
0.008442
  0
VERTEX
  8
0
 10
1220.831320
 20
183.389971
 42
0.009640
  0
VERTEX
  8
0
 10
1230.442780
 20
188.858146
 42
0.010711
  0
VERTEX
  8
0
 10
1239.500000
 20
194.510803
 42
-0.005097
  0
VERTEX
  8
0
 10
1242.892858
 20
196.681606
 42
-0.004502
  0
VERTEX
  8
0
 10
1246.471875
 20
198.875842
 42
-0.004525
  0
VERTEX
  8
0
 10
1249.733019
 20
200.795065
 42
-0.013686
  0
VERTEX
  8
0
 10
1252.000000
 20
202.020334
 42
0.015135
  0
VERTEX
  8
0
 10
1262.245949
 20
207.596513
 42
0.013551
  0
VERTEX
  8
0
 10
1272.527727
 20
213.982251
 42
0.013795
  0
VERTEX
  8
0
 10
1281.471190
 20
220.239102
 42
0.039005
  0
VERTEX
  8
0
 10
1287.216703
 20
225.237946
 42
0.009103
  0
VERTEX
  8
0
 10
1292.037378
 20
230.324121
 42
0.014028
  0
VERTEX
  8
0
 10
1295.998697
 20
234.911016
 42
0.014910
  0
VERTEX
  8
0
 10
1298.956285
 20
238.765598
 42
0.067131
  0
VERTEX
  8
0
 10
1300.291363
 20
241.265008
 42
-0.082785
  0
VERTEX
  8
0
 10
1300.718748
 20
242.008463
 42
-0.042089
  0
VERTEX
  8
0
 10
1301.472408
 20
242.784059
 42
-0.040304
  0
VERTEX
  8
0
 10
1302.406574
 20
243.472421
 42
-0.047827
  0
VERTEX
  8
0
 10
1303.388805
 20
243.957724
 42
0.053650
  0
VERTEX
  8
0
 10
1304.367822
 20
244.455670
 42
0.043860
  0
VERTEX
  8
0
 10
1305.292501
 20
245.181324
 42
0.045560
  0
VERTEX
  8
0
 10
1306.030683
 20
246.011693
 42
0.082261
  0
VERTEX
  8
0
 10
1306.443008
 20
246.820434
 42
-0.047865
  0
VERTEX
  8
0
 10
1306.840692
 20
247.753265
 42
-0.017066
  0
VERTEX
  8
0
 10
1307.576949
 20
249.001903
 42
-0.016754
  0
VERTEX
  8
0
 10
1308.483218
 20
250.325439
 42
-0.018988
  0
VERTEX
  8
0
 10
1309.440816
 20
251.529476
 42
0.017620
  0
VERTEX
  8
0
 10
1310.441978
 20
252.781246
 42
0.012468
  0
VERTEX
  8
0
 10
1311.479592
 20
254.251876
 42
0.012606
  0
VERTEX
  8
0
 10
1312.401578
 20
255.708506
 42
0.025854
  0
VERTEX
  8
0
 10
1313.034060
 20
256.901759
 42
-0.002476
  0
VERTEX
  8
0
 10
1313.588594
 20
258.077669
 42
-0.001479
  0
VERTEX
  8
0
 10
1314.259249
 20
259.471142
 42
-0.001480
  0
VERTEX
  8
0
 10
1314.935419
 20
260.855055
 42
-0.002567
  0
VERTEX
  8
0
 10
1315.506356
 20
262.000000
 42
0.025249
  0
VERTEX
  8
0
 10
1316.041211
 20
263.206681
 42
0.012313
  0
VERTEX
  8
0
 10
1316.606388
 20
264.793750
 42
0.012180
  0
VERTEX
  8
0
 10
1317.114517
 20
266.477288
 42
0.017234
  0
VERTEX
  8
0
 10
1317.477969
 20
268.000000
 42
-0.025905
  0
VERTEX
  8
0
 10
1317.915569
 20
269.702141
 42
-0.010218
  0
VERTEX
  8
0
 10
1318.685557
 20
271.995872
 42
-0.010081
  0
VERTEX
  8
0
 10
1319.620050
 20
274.445305
 42
-0.012424
  0
VERTEX
  8
0
 10
1320.593434
 20
276.688075
 42
0.006888
  0
VERTEX
  8
0
 10
1321.515154
 20
278.749022
 42
0.009142
  0
VERTEX
  8
0
 10
1322.293071
 20
280.649666
 42
0.006884
  0
VERTEX
  8
0
 10
1322.889872
 20
282.252500
 42
0.085877
  0
VERTEX
  8
0
 10
1323.000000
 20
282.888963
 42
-0.097626
  0
VERTEX
  8
0
 10
1323.138406
 20
283.591065
 42
-0.002677
  0
VERTEX
  8
0
 10
1324.342711
 20
286.482752
 42
-0.005432
  0
VERTEX
  8
0
 10
1325.819451
 20
289.872624
 42
-0.003688
  0
VERTEX
  8
0
 10
1327.570929
 20
293.700889
 42
0.000773
  0
VERTEX
  8
0
 10
1331.368174
 20
301.874334
 42
0.007320
  0
VERTEX
  8
0
 10
1332.938030
 20
305.401712
 42
0.016794
  0
VERTEX
  8
0
 10
1333.839140
 20
307.721511
 42
0.019099
  0
VERTEX
  8
0
 10
1334.540779
 20
310.000000
 42
-0.026765
  0
VERTEX
  8
0
 10
1335.322089
 20
312.405517
 42
-0.010633
  0
VERTEX
  8
0
 10
1336.638745
 20
315.619302
 42
-0.004966
  0
VERTEX
  8
0
 10
1338.974562
 20
320.849435
 42
-0.000639
  0
VERTEX
  8
0
 10
1344.105186
 20
332.000000
 42
-0.003150
  0
VERTEX
  8
0
 10
1346.223900
 20
336.514265
 42
-0.004272
  0
VERTEX
  8
0
 10
1348.197736
 20
340.562500
 42
-0.002890
  0
VERTEX
  8
0
 10
1349.900374
 20
343.931171
 42
-0.046926
  0
VERTEX
  8
0
 10
1350.581767
 20
345.000000
 42
0.048259
  0
VERTEX
  8
0
 10
1352.541827
 20
348.092652
 42
0.003570
  0
VERTEX
  8
0
 10
1357.005249
 20
357.072001
 42
0.004127
  0
VERTEX
  8
0
 10
1361.287978
 20
366.031258
 42
0.037188
  0
VERTEX
  8
0
 10
1362.832088
 20
370.092638
 42
-0.013892
  0
VERTEX
  8
0
 10
1364.481373
 20
375.124099
 42
-0.006295
  0
VERTEX
  8
0
 10
1366.905569
 20
381.621015
 42
-0.006314
  0
VERTEX
  8
0
 10
1369.545419
 20
388.185546
 42
-0.011349
  0
VERTEX
  8
0
 10
1371.900093
 20
393.491429
 42
0.003841
  0
VERTEX
  8
0
 10
1373.081130
 20
396.048453
 42
0.003274
  0
VERTEX
  8
0
 10
1374.288404
 20
398.763107
 42
0.003299
  0
VERTEX
  8
0
 10
1375.354383
 20
401.247503
 42
0.009335
  0
VERTEX
  8
0
 10
1376.054441
 20
403.000000
 42
-0.037082
  0
VERTEX
  8
0
 10
1377.423179
 20
405.941635
 42
-0.021056
  0
VERTEX
  8
0
 10
1379.482466
 20
409.287356
 42
-0.019821
  0
VERTEX
  8
0
 10
1382.014422
 20
412.734746
 42
-0.019342
  0
VERTEX
  8
0
 10
1384.831202
 20
416.000000
 42
0.054044
  0
VERTEX
  8
0
 10
1387.179169
 20
419.137231
 42
0.019570
  0
VERTEX
  8
0
 10
1389.827549
 20
424.038844
 42
0.018956
  0
VERTEX
  8
0
 10
1392.359348
 20
429.733775
 42
0.020047
  0
VERTEX
  8
0
 10
1394.401241
 20
435.500000
 42
-0.002163
  0
VERTEX
  8
0
 10
1395.176299
 20
437.965565
 42
-0.002195
  0
VERTEX
  8
0
 10
1395.968924
 20
440.412259
 42
-0.002134
  0
VERTEX
  8
0
 10
1396.676833
 20
442.534603
 42
-0.009013
  0
VERTEX
  8
0
 10
1397.129438
 20
443.797053
 42
0.019563
  0
VERTEX
  8
0
 10
1397.462765
 20
444.792411
 42
0.015807
  0
VERTEX
  8
0
 10
1397.744272
 20
445.883902
 42
0.016094
  0
VERTEX
  8
0
 10
1397.939903
 20
446.908780
 42
0.039127
  0
VERTEX
  8
0
 10
1398.000000
 20
447.675572
 42
-0.082556
  0
VERTEX
  8
0
 10
1398.170177
 20
448.699215
 42
-0.005312
  0
VERTEX
  8
0
 10
1399.182757
 20
451.560805
 42
-0.007646
  0
VERTEX
  8
0
 10
1400.484125
 20
454.956058
 42
-0.005615
  0
VERTEX
  8
0
 10
1402.026408
 20
458.681115
 42
0.006297
  0
VERTEX
  8
0
 10
1403.671700
 20
462.670344
 42
0.005578
  0
VERTEX
  8
0
 10
1405.285721
 20
466.863608
 42
0.005608
  0
VERTEX
  8
0
 10
1406.654655
 20
470.672176
 42
0.017008
  0
VERTEX
  8
0
 10
1407.467838
 20
473.302597
 42
-0.003037
  0
VERTEX
  8
0
 10
1408.307762
 20
476.315336
 42
-0.000513
  0
VERTEX
  8
0
 10
1409.953152
 20
482.059242
 42
-0.000561
  0
VERTEX
  8
0
 10
1411.900978
 20
488.804131
 42
-0.000499
  0
VERTEX
  8
0
 10
1413.941430
 20
495.813971
 42
0.002761
  0
VERTEX
  8
0
 10
1415.879557
 20
502.586324
 42
0.003976
  0
VERTEX
  8
0
 10
1417.514045
 20
508.602999
 42
0.002133
  0
VERTEX
  8
0
 10
1418.833362
 20
513.705096
 42
0.062274
  0
VERTEX
  8
0
 10
1419.000000
 20
515.037851
 42
-0.044366
  0
VERTEX
  8
0
 10
1419.102710
 20
516.193117
 42
-0.005526
  0
VERTEX
  8
0
 10
1419.575132
 20
518.670960
 42
-0.006478
  0
VERTEX
  8
0
 10
1420.208212
 20
521.606549
 42
-0.005324
  0
VERTEX
  8
0
 10
1420.957897
 20
524.723880
 42
0.001666
  0
VERTEX
  8
0
 10
1423.786609
 20
536.118778
 42
0.005205
  0
VERTEX
  8
0
 10
1425.584367
 20
543.811200
 42
0.007602
  0
VERTEX
  8
0
 10
1426.743372
 20
549.414372
 42
0.016604
  0
VERTEX
  8
0
 10
1427.422750
 20
553.746302
 42
-0.021939
  0
VERTEX
  8
0
 10
1427.817645
 20
556.099975
 42
-0.013272
  0
VERTEX
  8
0
 10
1428.480337
 20
558.847901
 42
-0.013286
  0
VERTEX
  8
0
 10
1429.284957
 20
561.546660
 42
-0.022673
  0
VERTEX
  8
0
 10
1430.117087
 20
563.746302
 42
0.020291
  0
VERTEX
  8
0
 10
1430.967767
 20
565.963015
 42
0.011362
  0
VERTEX
  8
0
 10
1431.829820
 20
568.719226
 42
0.011322
  0
VERTEX
  8
0
 10
1432.575727
 20
571.548611
 42
0.018063
  0
VERTEX
  8
0
 10
1433.070093
 20
574.000000
 42
-0.008701
  0
VERTEX
  8
0
 10
1433.520057
 20
576.468845
 42
-0.005389
  0
VERTEX
  8
0
 10
1434.130171
 20
579.353125
 42
-0.005404
  0
VERTEX
  8
0
 10
1434.794329
 20
582.189106
 42
-0.009694
  0
VERTEX
  8
0
 10
1435.409670
 20
584.500000
 42
0.022316
  0
VERTEX
  8
0
 10
1438.547247
 20
597.604526
 42
0.010735
  0
VERTEX
  8
0
 10
1441.452274
 20
614.639343
 42
0.010589
  0
VERTEX
  8
0
 10
1443.739252
 20
632.655770
 42
0.014383
  0
VERTEX
  8
0
 10
1444.989093
 20
649.000000
 42
-0.004706
  0
VERTEX
  8
0
 10
1445.654847
 20
660.673688
 42
-0.015974
  0
VERTEX
  8
0
 10
1446.403369
 20
668.261817
 42
-0.022937
  0
VERTEX
  8
0
 10
1447.456418
 20
674.178472
 42
-0.022640
  0
VERTEX
  8
0
 10
1449.050495
 20
680.000000
 42
0.012933
  0
VERTEX
  8
0
 10
1450.724054
 20
685.676904
 42
0.002697
  0
VERTEX
  8
0
 10
1453.347218
 20
695.722499
 42
0.002534
  0
VERTEX
  8
0
 10
1455.860654
 20
705.777003
 42
0.015577
  0
VERTEX
  8
0
 10
1456.967033
 20
711.000000
 42
0.000790
  0
VERTEX
  8
0
 10
1457.385985
 20
713.355612
 42
0.000233
  0
VERTEX
  8
0
 10
1458.020969
 20
716.968750
 42
0.000234
  0
VERTEX
  8
0
 10
1458.731296
 20
721.032834
 42
0.000251
  0
VERTEX
  8
0
 10
1459.420720
 20
725.000000
 42
-0.005627
  0
VERTEX
  8
0
 10
1460.162975
 20
729.014830
 42
-0.004829
  0
VERTEX
  8
0
 10
1461.032247
 20
733.222526
 42
-0.004867
  0
VERTEX
  8
0
 10
1461.895796
 20
737.028474
 42
-0.013907
  0
VERTEX
  8
0
 10
1462.595347
 20
739.651152
 42
0.015820
  0
VERTEX
  8
0
 10
1463.631301
 20
743.595587
 42
0.013034
  0
VERTEX
  8
0
 10
1464.491968
 20
747.860408
 42
0.006473
  0
VERTEX
  8
0
 10
1465.529399
 20
754.284112
 42
0.000921
  0
VERTEX
  8
0
 10
1467.463690
 20
767.500000
 42
-0.006282
  0
VERTEX
  8
0
 10
1468.773413
 20
775.824699
 42
-0.002101
  0
VERTEX
  8
0
 10
1470.892187
 20
787.962681
 42
-0.002148
  0
VERTEX
  8
0
 10
1473.152232
 20
800.290624
 42
-0.005003
  0
VERTEX
  8
0
 10
1474.977074
 20
809.500000
 42
0.004738
  0
VERTEX
  8
0
 10
1475.401631
 20
811.636642
 42
0.001270
  0
VERTEX
  8
0
 10
1476.035679
 20
815.041066
 42
0.001286
  0
VERTEX
  8
0
 10
1476.736313
 20
818.912879
 42
0.001329
  0
VERTEX
  8
0
 10
1477.409286
 20
822.746181
 42
-0.006893
  0
VERTEX
  8
0
 10
1478.129798
 20
826.598114
 42
-0.006398
  0
VERTEX
  8
0
 10
1478.973112
 20
830.525856
 42
-0.006395
  0
VERTEX
  8
0
 10
1479.812583
 20
834.000120
 42
-0.021338
  0
VERTEX
  8
0
 10
1480.489053
 20
836.246181
 42
0.017798
  0
VERTEX
  8
0
 10
1481.060047
 20
838.094559
 42
0.014020
  0
VERTEX
  8
0
 10
1481.549910
 20
840.131691
 42
0.014246
  0
VERTEX
  8
0
 10
1481.898256
 20
842.051910
 42
0.033696
  0
VERTEX
  8
0
 10
1482.019599
 20
843.500000
 42
-0.035179
  0
VERTEX
  8
0
 10
1482.162939
 20
845.151758
 42
-0.007667
  0
VERTEX
  8
0
 10
1482.652954
 20
847.968750
 42
-0.007953
  0
VERTEX
  8
0
 10
1483.323176
 20
851.217188
 42
-0.007548
  0
VERTEX
  8
0
 10
1484.107308
 20
854.500000
 42
0.005550
  0
VERTEX
  8
0
 10
1485.895839
 20
861.857566
 42
0.010272
  0
VERTEX
  8
0
 10
1487.158664
 20
867.876192
 42
0.011079
  0
VERTEX
  8
0
 10
1488.110750
 20
873.625192
 42
0.007869
  0
VERTEX
  8
0
 10
1488.933375
 20
880.107735
 42
-0.010392
  0
VERTEX
  8
0
 10
1489.338027
 20
883.172627
 42
-0.011794
  0
VERTEX
  8
0
 10
1489.855888
 20
886.090676
 42
-0.011047
  0
VERTEX
  8
0
 10
1490.407266
 20
888.541183
 42
-0.062076
  0
VERTEX
  8
0
 10
1490.888678
 20
889.791993
 42
0.055214
  0
VERTEX
  8
0
 10
1491.316196
 20
890.859011
 42
0.021724
  0
VERTEX
  8
0
 10
1491.673549
 20
892.403858
 42
0.021187
  0
VERTEX
  8
0
 10
1491.918382
 20
894.122410
 42
0.024792
  0
VERTEX
  8
0
 10
1492.000000
 20
895.767477
 42
-0.017225
  0
VERTEX
  8
0
 10
1492.064630
 20
897.642975
 42
-0.007627
  0
VERTEX
  8
0
 10
1492.272908
 20
900.112297
 42
-0.007538
  0
VERTEX
  8
0
 10
1492.573213
 20
902.724115
 42
-0.010077
  0
VERTEX
  8
0
 10
1492.929049
 20
905.083219
 42
0.013256
  0
VERTEX
  8
0
 10
1494.567854
 20
916.437071
 42
0.015366
  0
VERTEX
  8
0
 10
1495.506979
 20
927.316372
 42
0.011716
  0
VERTEX
  8
0
 10
1495.924770
 20
940.388866
 42
0.004065
  0
VERTEX
  8
0
 10
1495.932085
 20
959.254115
 42
-0.000013
  0
VERTEX
  8
0
 10
1495.839881
 20
971.203262
 42
-0.000017
  0
VERTEX
  8
0
 10
1495.756581
 20
982.084021
 42
-0.000012
  0
VERTEX
  8
0
 10
1495.687271
 20
991.207677
 42
-0.000171
  0
VERTEX
  8
0
 10
1495.663467
 20
994.500000
 42
-0.011519
  0
VERTEX
  8
0
 10
1495.804899
 20
1003.257521
 42
-0.002648
  0
VERTEX
  8
0
 10
1496.462171
 20
1018.024004
 42
-0.002833
  0
VERTEX
  8
0
 10
1497.295775
 20
1033.043480
 42
-0.008043
  0
VERTEX
  8
0
 10
1498.104602
 20
1043.500000
 42
0.018470
  0
VERTEX
  8
0
 10
1498.948634
 20
1058.462947
 42
0.002740
  0
VERTEX
  8
0
 10
1499.369911
 20
1088.696410
 42
0.002924
  0
VERTEX
  8
0
 10
1499.448747
 20
1118.942234
 42
0.015477
  0
VERTEX
  8
0
 10
1498.882379
 20
1135.500000
 42
0.007798
  0
VERTEX
  8
0
 10
1498.472063
 20
1140.570897
 42
0.006723
  0
VERTEX
  8
0
 10
1497.886383
 20
1145.884375
 42
0.006782
  0
VERTEX
  8
0
 10
1497.224917
 20
1150.689774
 42
0.019424
  0
VERTEX
  8
0
 10
1496.591051
 20
1154.000000
 42
-0.017049
  0
VERTEX
  8
0
 10
1495.940953
 20
1157.309857
 42
-0.005938
  0
VERTEX
  8
0
 10
1495.224595
 20
1162.115625
 42
-0.005890
  0
VERTEX
  8
0
 10
1494.560611
 20
1167.429109
 42
-0.006833
  0
VERTEX
  8
0
 10
1494.057600
 20
1172.500000
 42
0.006735
  0
VERTEX
  8
0
 10
1492.387361
 20
1189.371433
 42
0.010433
  0
VERTEX
  8
0
 10
1490.446147
 20
1203.879607
 42
0.010761
  0
VERTEX
  8
0
 10
1487.950810
 20
1217.960249
 42
0.007841
  0
VERTEX
  8
0
 10
1484.596374
 20
1233.500000
 42
0.000532
  0
VERTEX
  8
0
 10
1480.561018
 20
1250.785531
 42
0.002854
  0
VERTEX
  8
0
 10
1478.299273
 20
1260.185823
 42
0.003767
  0
VERTEX
  8
0
 10
1476.793945
 20
1266.097029
 42
0.037920
  0
VERTEX
  8
0
 10
1475.963629
 20
1268.500000
 42
-0.031803
  0
VERTEX
  8
0
 10
1474.777489
 20
1271.801503
 42
-0.008286
  0
VERTEX
  8
0
 10
1473.301484
 20
1277.245609
 42
-0.008830
  0
VERTEX
  8
0
 10
1471.959788
 20
1282.962346
 42
-0.018014
  0
VERTEX
  8
0
 10
1471.148874
 20
1287.500000
 42
0.011162
  0
VERTEX
  8
0
 10
1470.818087
 20
1289.509602
 42
0.012778
  0
VERTEX
  8
0
 10
1470.410321
 20
1291.413205
 42
0.011959
  0
VERTEX
  8
0
 10
1469.986281
 20
1293.004081
 42
0.068304
  0
VERTEX
  8
0
 10
1469.629960
 20
1293.800273
 42
-0.086159
  0
VERTEX
  8
0
 10
1468.699287
 20
1296.094982
 42
-0.003856
  0
VERTEX
  8
0
 10
1466.947598
 20
1304.490483
 42
-0.007102
  0
VERTEX
  8
0
 10
1465.259736
 20
1313.571030
 42
-0.009112
  0
VERTEX
  8
0
 10
1463.978466
 20
1321.971762
 42
0.003467
  0
VERTEX
  8
0
 10
1463.514016
 20
1325.266069
 42
0.005118
  0
VERTEX
  8
0
 10
1463.056846
 20
1328.149671
 42
0.002467
  0
VERTEX
  8
0
 10
1462.631962
 20
1330.589664
 42
0.094337
  0
VERTEX
  8
0
 10
1462.434227
 20
1331.106424
 42
-0.085779
  0
VERTEX
  8
0
 10
1462.235355
 20
1331.600835
 42
-0.003681
  0
VERTEX
  8
0
 10
1461.854087
 20
1333.444414
 42
-0.006202
  0
VERTEX
  8
0
 10
1461.443638
 20
1335.647839
 42
-0.004370
  0
VERTEX
  8
0
 10
1461.034600
 20
1338.134661
 42
0.006431
  0
VERTEX
  8
0
 10
1460.490862
 20
1341.357401
 42
0.002209
  0
VERTEX
  8
0
 10
1459.623260
 20
1346.008307
 42
0.002195
  0
VERTEX
  8
0
 10
1458.620987
 20
1351.130422
 42
0.002540
  0
VERTEX
  8
0
 10
1457.620158
 20
1356.000000
 42
-0.000133
  0
VERTEX
  8
0
 10
1456.569892
 20
1360.988209
 42
-0.000100
  0
VERTEX
  8
0
 10
1455.417971
 20
1366.471875
 42
-0.000101
  0
VERTEX
  8
0
 10
1454.337201
 20
1371.627135
 42
-0.000234
  0
VERTEX
  8
0
 10
1453.527981
 20
1375.500000
 42
0.004661
  0
VERTEX
  8
0
 10
1451.933950
 20
1382.805210
 42
0.011642
  0
VERTEX
  8
0
 10
1450.596180
 20
1388.100823
 42
0.012400
  0
VERTEX
  8
0
 10
1449.064759
 20
1393.131170
 42
0.005978
  0
VERTEX
  8
0
 10
1446.867073
 20
1399.500000
 42
-0.005517
  0
VERTEX
  8
0
 10
1445.552559
 20
1403.298061
 42
-0.002677
  0
VERTEX
  8
0
 10
1443.951931
 20
1408.180197
 42
-0.002654
  0
VERTEX
  8
0
 10
1442.339244
 20
1413.282222
 42
-0.003822
  0
VERTEX
  8
0
 10
1440.970635
 20
1417.815566
 42
0.015662
  0
VERTEX
  8
0
 10
1439.379411
 20
1422.667989
 42
0.007405
  0
VERTEX
  8
0
 10
1437.039998
 20
1428.826987
 42
0.007330
  0
VERTEX
  8
0
 10
1434.399510
 20
1435.205741
 42
0.010278
  0
VERTEX
  8
0
 10
1431.842396
 20
1440.815566
 42
-0.003434
  0
VERTEX
  8
0
 10
1428.977575
 20
1446.879168
 42
-0.001607
  0
VERTEX
  8
0
 10
1425.347373
 20
1454.767697
 42
-0.001592
  0
VERTEX
  8
0
 10
1421.593318
 20
1463.064702
 42
-0.002231
  0
VERTEX
  8
0
 10
1418.297403
 20
1470.500000
 42
0.003770
  0
VERTEX
  8
0
 10
1415.109690
 20
1477.631898
 42
0.003349
  0
VERTEX
  8
0
 10
1411.688287
 20
1485.003125
 42
0.003362
  0
VERTEX
  8
0
 10
1408.520501
 20
1491.594828
 42
0.010313
  0
VERTEX
  8
0
 10
1406.253190
 20
1496.000000
 42
-0.002343
  0
VERTEX
  8
0
 10
1400.504342
 20
1506.745061
 42
-0.001530
  0
VERTEX
  8
0
 10
1393.968136
 20
1519.192620
 42
-0.001331
  0
VERTEX
  8
0
 10
1387.989973
 20
1530.737465
 42
-0.007341
  0
VERTEX
  8
0
 10
1384.877586
 20
1537.012167
 42
0.004819
  0
VERTEX
  8
0
 10
1371.503690
 20
1564.319596
 42
0.012068
  0
VERTEX
  8
0
 10
1361.076236
 20
1583.907299
 42
0.016341
  0
VERTEX
  8
0
 10
1352.215827
 20
1598.489489
 42
0.030142
  0
VERTEX
  8
0
 10
1343.944491
 20
1609.623206
 42
0.013839
  0
VERTEX
  8
0
 10
1332.760624
 20
1622.198781
 42
0.008900
  0
VERTEX
  8
0
 10
1319.139647
 20
1636.179505
 42
0.007871
  0
VERTEX
  8
0
 10
1306.098924
 20
1648.696019
 42
0.040969
  0
VERTEX
  8
0
 10
1298.273719
 20
1654.860696
 42
-0.001182
  0
VERTEX
  8
0
 10
1291.344733
 20
1659.477271
 42
-0.002182
  0
VERTEX
  8
0
 10
1285.737973
 20
1663.267601
 42
-0.002663
  0
VERTEX
  8
0
 10
1281.184698
 20
1666.410461
 42
-0.005038
  0
VERTEX
  8
0
 10
1277.553961
 20
1669.000000
 42
0.013892
  0
VERTEX
  8
0
 10
1269.576086
 20
1674.479554
 42
0.005851
  0
VERTEX
  8
0
 10
1258.569514
 20
1681.416330
 42
0.001846
  0
VERTEX
  8
0
 10
1247.071761
 20
1688.417718
 42
0.136659
  0
VERTEX
  8
0
 10
1244.981129
 20
1689.000000
 42
-0.082535
  0
VERTEX
  8
0
 10
1244.644859
 20
1689.055889
 42
-0.062428
  0
VERTEX
  8
0
 10
1244.307998
 20
1689.220313
 42
-0.062309
  0
VERTEX
  8
0
 10
1244.021493
 20
1689.463222
 42
-0.081399
  0
VERTEX
  8
0
 10
1243.833333
 20
1689.750000
 42
0.169147
  0
VERTEX
  8
0
 10
1242.180388
 20
1691.512450
 42
0.002558
  0
VERTEX
  8
0
 10
1229.516766
 20
1698.060439
 42
0.007045
  0
VERTEX
  8
0
 10
1217.453166
 20
1704.007393
 42
0.029121
  0
VERTEX
  8
0
 10
1209.922312
 20
1707.065108
 42
-0.015421
  0
VERTEX
  8
0
 10
1206.624488
 20
1708.300036
 42
-0.004709
  0
VERTEX
  8
0
 10
1201.714679
 20
1710.367551
 42
-0.004709
  0
VERTEX
  8
0
 10
1196.256743
 20
1712.787898
 42
-0.005131
  0
VERTEX
  8
0
 10
1191.000000
 20
1715.243923
 42
0.003325
  0
VERTEX
  8
0
 10
1178.355994
 20
1721.207112
 42
0.021377
  0
VERTEX
  8
0
 10
1171.822771
 20
1723.902488
 42
0.021864
  0
VERTEX
  8
0
 10
1165.138811
 20
1726.005437
 42
0.003575
  0
VERTEX
  8
0
 10
1152.000000
 20
1729.415646
 42
-0.004056
  0
VERTEX
  8
0
 10
1149.182214
 20
1730.149901
 42
-0.003030
  0
VERTEX
  8
0
 10
1146.087500
 20
1731.003329
 42
-0.003062
  0
VERTEX
  8
0
 10
1143.181343
 20
1731.842991
 42
-0.006974
  0
VERTEX
  8
0
 10
1141.000000
 20
1732.520958
 42
0.016002
  0
VERTEX
  8
0
 10
1138.849786
 20
1733.146913
 42
0.007712
  0
VERTEX
  8
0
 10
1136.059375
 20
1733.817541
 42
0.007638
  0
VERTEX
  8
0
 10
1133.125836
 20
1734.427978
 42
0.010857
  0
VERTEX
  8
0
 10
1130.500000
 20
1734.873778
 42
-0.014295
  0
VERTEX
  8
0
 10
1123.506631
 20
1736.110589
 42
-0.002021
  0
VERTEX
  8
0
 10
1109.201779
 20
1739.124809
 42
-0.002337
  0
VERTEX
  8
0
 10
1094.837675
 20
1742.282531
 42
-0.009110
  0
VERTEX
  8
0
 10
1086.000000
 20
1744.438564
 42
0.013522
  0
VERTEX
  8
0
 10
1077.067432
 20
1746.534405
 42
0.023154
  0
VERTEX
  8
0
 10
1069.508293
 20
1747.731944
 42
0.020085
  0
VERTEX
  8
0
 10
1061.169035
 20
1748.322109
 42
0.007622
  0
VERTEX
  8
0
 10
1049.500000
 20
1748.500000
 42
0.005117
  0
VERTEX
  8
0
 10
1042.116669
 20
1748.424442
 42
0.007844
  0
VERTEX
  8
0
 10
1035.723402
 20
1748.193199
 42
0.006514
  0
VERTEX
  8
0
 10
1030.570384
 20
1747.858459
 42
0.067729
  0
VERTEX
  8
0
 10
1028.500000
 20
1747.410355
 42
-0.078937
  0
VERTEX
  8
0
 10
1025.373601
 20
1746.806327
 42
-0.014184
  0
VERTEX
  8
0
 10
1019.422391
 20
1746.776947
 42
-0.006528
  0
VERTEX
  8
0
 10
1008.827890
 20
1747.163671
 42
-0.000624
  0
VERTEX
  8
0
 10
983.000000
 20
1748.476596
 42
-0.003300
  0
VERTEX
  8
0
 10
972.811252
 20
1749.074724
 42
-0.034294
  0
VERTEX
  8
0
 10
968.653450
 20
1749.634376
 42
-0.093991
  0
VERTEX
  8
0
 10
966.390681
 20
1750.563946
 42
-0.126208
  0
VERTEX
  8
0
 10
964.898028
 20
1752.190537
 42
-0.112471
  0
VERTEX
  8
0
 10
963.697569
 20
1756.572466
 42
-0.008319
  0
VERTEX
  8
0
 10
963.362876
 20
1769.078004
 42
-0.010015
  0
VERTEX
  8
0
 10
963.485535
 20
1781.453759
 42
-0.077465
  0
VERTEX
  8
0
 10
964.544493
 20
1787.126106
 42
0.018865
  0
VERTEX
  8
0
 10
965.101828
 20
1788.918548
 42
0.014915
  0
VERTEX
  8
0
 10
965.572445
 20
1790.893716
 42
0.015167
  0
VERTEX
  8
0
 10
965.899173
 20
1792.755268
 42
0.035868
  0
VERTEX
  8
0
 10
966.000000
 20
1794.158970
 42
-0.057643
  0
VERTEX
  8
0
 10
966.167928
 20
1795.610759
 42
-0.019585
  0
VERTEX
  8
0
 10
966.734375
 20
1797.661624
 42
-0.019177
  0
VERTEX
  8
0
 10
967.543041
 20
1799.897803
 42
-0.020922
  0
VERTEX
  8
0
 10
968.500000
 20
1802.000000
 42
0.008869
  0
VERTEX
  8
0
 10
969.457367
 20
1803.975414
 42
0.011318
  0
VERTEX
  8
0
 10
970.265625
 20
1805.830422
 42
0.009367
  0
VERTEX
  8
0
 10
970.874067
 20
1807.401249
 42
0.087928
  0
VERTEX
  8
0
 10
971.000000
 20
1808.111825
 42
-0.111276
  0
VERTEX
  8
0
 10
971.525556
 20
1810.444078
 42
-0.005439
  0
VERTEX
  8
0
 10
975.020152
 20
1817.602278
 42
-0.009730
  0
VERTEX
  8
0
 10
978.784469
 20
1824.754169
 42
-0.021737
  0
VERTEX
  8
0
 10
981.982133
 20
1830.000000
 42
0.008771
  0
VERTEX
  8
0
 10
983.637266
 20
1832.563313
 42
0.004839
  0
VERTEX
  8
0
 10
985.574467
 20
1835.750599
 42
0.004823
  0
VERTEX
  8
0
 10
987.476663
 20
1839.021038
 42
0.007719
  0
VERTEX
  8
0
 10
989.030164
 20
1841.853104
 42
-0.042808
  0
VERTEX
  8
0
 10
993.144858
 20
1848.246569
 42
-0.013958
  0
VERTEX
  8
0
 10
1000.253670
 20
1856.942282
 42
-0.012868
  0
VERTEX
  8
0
 10
1007.695195
 20
1865.108922
 42
-0.063212
  0
VERTEX
  8
0
 10
1012.536576
 20
1869.022605
 42
0.043234
  0
VERTEX
  8
0
 10
1013.987796
 20
1870.103078
 42
0.029737
  0
VERTEX
  8
0
 10
1015.438170
 20
1871.554793
 42
0.030064
  0
VERTEX
  8
0
 10
1016.675768
 20
1873.131867
 42
0.052418
  0
VERTEX
  8
0
 10
1017.472595
 20
1874.588653
 42
-0.042856
  0
VERTEX
  8
0
 10
1019.030816
 20
1877.571228
 42
-0.013710
  0
VERTEX
  8
0
 10
1021.835030
 20
1881.718750
 42
-0.009496
  0
VERTEX
  8
0
 10
1024.807268
 20
1885.703064
 42
-0.123790
  0
VERTEX
  8
0
 10
1026.250000
 20
1886.833333
 42
0.152604
  0
VERTEX
  8
0
 10
1026.538211
 20
1887.086673
 42
0.052025
  0
VERTEX
  8
0
 10
1026.779687
 20
1887.595803
 42
0.045928
  0
VERTEX
  8
0
 10
1026.944653
 20
1888.249699
 42
0.038853
  0
VERTEX
  8
0
 10
1027.000000
 20
1888.960889
 42
-0.065405
  0
VERTEX
  8
0
 10
1027.101278
 20
1889.731807
 42
-0.044426
  0
VERTEX
  8
0
 10
1027.405224
 20
1890.564364
 42
-0.044431
  0
VERTEX
  8
0
 10
1027.851387
 20
1891.329981
 42
-0.065501
  0
VERTEX
  8
0
 10
1028.379485
 20
1891.899982
 42
0.081791
  0
VERTEX
  8
0
 10
1028.953806
 20
1892.561638
 42
0.029994
  0
VERTEX
  8
0
 10
1029.540214
 20
1893.656647
 42
0.028772
  0
VERTEX
  8
0
 10
1030.049180
 20
1894.952832
 42
0.030620
  0
VERTEX
  8
0
 10
1030.393754
 20
1896.272426
 42
-0.039184
  0
VERTEX
  8
0
 10
1030.880664
 20
1898.014640
 42
-0.008718
  0
VERTEX
  8
0
 10
1031.994842
 20
1900.901900
 42
-0.009003
  0
VERTEX
  8
0
 10
1033.403976
 20
1904.200475
 42
-0.008580
  0
VERTEX
  8
0
 10
1034.952868
 20
1907.500000
 42
0.002054
  0
VERTEX
  8
0
 10
1036.573261
 20
1910.837881
 42
0.001942
  0
VERTEX
  8
0
 10
1038.196869
 20
1914.251563
 42
0.001928
  0
VERTEX
  8
0
 10
1039.610799
 20
1917.284701
 42
0.006800
  0
VERTEX
  8
0
 10
1040.485516
 20
1919.250000
 42
-0.020058
  0
VERTEX
  8
0
 10
1041.171019
 20
1920.686417
 42
-0.028477
  0
VERTEX
  8
0
 10
1041.901359
 20
1921.898438
 42
-0.027878
  0
VERTEX
  8
0
 10
1042.584616
 20
1922.787962
 42
-0.218391
  0
VERTEX
  8
0
 10
1043.046917
 20
1923.000000
 42
0.297579
  0
VERTEX
  8
0
 10
1043.416025
 20
1923.241020
 42
0.043019
  0
VERTEX
  8
0
 10
1043.720032
 20
1924.134758
 42
0.037209
  0
VERTEX
  8
0
 10
1043.931019
 20
1925.382542
 42
0.023284
  0
VERTEX
  8
0
 10
1044.000000
 20
1926.863007
 42
-0.069066
  0
VERTEX
  8
0
 10
1044.344818
 20
1929.347404
 42
-0.024745
  0
VERTEX
  8
0
 10
1045.490006
 20
1932.742703
 42
-0.018065
  0
VERTEX
  8
0
 10
1047.449724
 20
1937.240439
 42
-0.006820
  0
VERTEX
  8
0
 10
1050.500000
 20
1943.386624
 42
0.007751
  0
VERTEX
  8
0
 10
1053.235491
 20
1948.924414
 42
0.013927
  0
VERTEX
  8
0
 10
1055.280977
 20
1953.561307
 42
0.014763
  0
VERTEX
  8
0
 10
1056.656866
 20
1957.238080
 42
0.082324
  0
VERTEX
  8
0
 10
1057.000000
 20
1959.308009
 42
-0.043740
  0
VERTEX
  8
0
 10
1057.148944
 20
1961.007369
 42
-0.089876
  0
VERTEX
  8
0
 10
1057.610598
 20
1962.256087
 42
-0.087073
  0
VERTEX
  8
0
 10
1058.492379
 20
1963.288024
 42
-0.039127
  0
VERTEX
  8
0
 10
1059.956729
 20
1964.315368
 42
0.062766
  0
VERTEX
  8
0
 10
1061.640155
 20
1965.619002
 42
0.159374
  0
VERTEX
  8
0
 10
1062.332544
 20
1966.980684
 42
0.149327
  0
VERTEX
  8
0
 10
1062.107993
 20
1968.549795
 42
0.052946
  0
VERTEX
  8
0
 10
1060.920530
 20
1970.511172
 42
-0.204380
  0
VERTEX
  8
0
 10
1060.538471
 20
1972.026489
 42
-0.011958
  0
VERTEX
  8
0
 10
1061.410011
 20
1976.812212
 42
-0.018623
  0
VERTEX
  8
0
 10
1062.585202
 20
1981.587657
 42
-0.053265
  0
VERTEX
  8
0
 10
1063.867553
 20
1984.752521
 42
0.038031
  0
VERTEX
  8
0
 10
1064.301599
 20
1985.736679
 42
0.023357
  0
VERTEX
  8
0
 10
1064.667344
 20
1986.950601
 42
0.023360
  0
VERTEX
  8
0
 10
1064.918168
 20
1988.192902
 42
0.038147
  0
VERTEX
  8
0
 10
1065.000000
 20
1989.263947
 42
-0.045462
  0
VERTEX
  8
0
 10
1065.137716
 20
1990.775446
 42
-0.004230
  0
VERTEX
  8
0
 10
1065.846513
 20
1994.457311
 42
-0.005413
  0
VERTEX
  8
0
 10
1066.778151
 20
1998.839639
 42
-0.004226
  0
VERTEX
  8
0
 10
1067.881748
 20
2003.579688
 42
0.001888
  0
VERTEX
  8
0
 10
1070.720415
 20
2015.519011
 42
0.009442
  0
VERTEX
  8
0
 10
1072.159559
 20
2022.245843
 42
0.016789
  0
VERTEX
  8
0
 10
1072.874545
 20
2026.724593
 42
0.037119
  0
VERTEX
  8
0
 10
1073.049237
 20
2030.179269
 42
-0.026061
  0
VERTEX
  8
0
 10
1073.090608
 20
2031.634066
 42
-0.033119
  0
VERTEX
  8
0
 10
1073.287009
 20
2032.962741
 42
-0.035011
  0
VERTEX
  8
0
 10
1073.592217
 20
2034.012427
 42
-0.167611
  0
VERTEX
  8
0
 10
1073.981046
 20
2034.488286
 42
0.124556
  0
VERTEX
  8
0
 10
1074.372496
 20
2034.892477
 42
0.047147
  0
VERTEX
  8
0
 10
1074.700682
 20
2035.613152
 42
0.042997
  0
VERTEX
  8
0
 10
1074.924675
 20
2036.500883
 42
0.040327
  0
VERTEX
  8
0
 10
1075.000000
 20
2037.433290
 42
-0.042333
  0
VERTEX
  8
0
 10
1075.099692
 20
2038.608648
 42
-0.013824
  0
VERTEX
  8
0
 10
1075.440347
 20
2040.316517
 42
-0.013664
  0
VERTEX
  8
0
 10
1075.925202
 20
2042.200805
 42
-0.015003
  0
VERTEX
  8
0
 10
1076.499054
 20
2043.997318
 42
0.033681
  0
VERTEX
  8
0
 10
1077.849364
 20
2048.841499
 42
0.008217
  0
VERTEX
  8
0
 10
1079.400329
 20
2056.990498
 42
0.007760
  0
VERTEX
  8
0
 10
1080.983517
 20
2067.048638
 42
0.005329
  0
VERTEX
  8
0
 10
1082.480014
 20
2078.500000
 42
-0.010067
  0
VERTEX
  8
0
 10
1083.172454
 20
2083.434245
 42
-0.006266
  0
VERTEX
  8
0
 10
1084.173099
 20
2089.191464
 42
-0.006285
  0
VERTEX
  8
0
 10
1085.303061
 20
2094.847317
 42
-0.011315
  0
VERTEX
  8
0
 10
1086.392278
 20
2099.449665
 42
0.017571
  0
VERTEX
  8
0
 10
1088.397072
 20
2108.419958
 42
0.010165
  0
VERTEX
  8
0
 10
1090.206299
 20
2119.324979
 42
0.010177
  0
VERTEX
  8
0
 10
1091.557418
 20
2130.189361
 42
0.019216
  0
VERTEX
  8
0
 10
1092.130447
 20
2139.000000
 42
0.037850
  0
VERTEX
  8
0
 10
1091.608093
 20
2149.620174
 42
0.029205
  0
VERTEX
  8
0
 10
1089.494949
 20
2161.025178
 42
0.026107
  0
VERTEX
  8
0
 10
1085.763633
 20
2173.357794
 42
0.018471
  0
VERTEX
  8
0
 10
1080.356967
 20
2186.779635
 42
-0.006111
  0
VERTEX
  8
0
 10
1079.454181
 20
2188.870156
 42
-0.008253
  0
VERTEX
  8
0
 10
1078.692359
 20
2190.783457
 42
-0.005906
  0
VERTEX
  8
0
 10
1078.102538
 20
2192.396211
 42
-0.084903
  0
VERTEX
  8
0
 10
1078.000000
 20
2192.995709
 42
0.069255
  0
VERTEX
  8
0
 10
1077.924001
 20
2193.541771
 42
0.009966
  0
VERTEX
  8
0
 10
1077.594061
 20
2194.621721
 42
0.011149
  0
VERTEX
  8
0
 10
1077.147188
 20
2195.890111
 42
0.009322
  0
VERTEX
  8
0
 10
1076.618079
 20
2197.216073
 42
-0.011199
  0
VERTEX
  8
0
 10
1075.971029
 20
2198.855450
 42
-0.004351
  0
VERTEX
  8
0
 10
1075.146533
 20
2201.150971
 42
-0.004304
  0
VERTEX
  8
0
 10
1074.296243
 20
2203.653652
 42
-0.005321
  0
VERTEX
  8
0
 10
1073.549131
 20
2206.000000
 42
0.014680
  0
VERTEX
  8
0
 10
1072.655566
 20
2208.634687
 42
0.006361
  0
VERTEX
  8
0
 10
1071.320080
 20
2212.087500
 42
0.006288
  0
VERTEX
  8
0
 10
1069.805840
 20
2215.726125
 42
0.008304
  0
VERTEX
  8
0
 10
1068.329893
 20
2219.000000
 42
-0.000306
  0
VERTEX
  8
0
 10
1066.859008
 20
2222.128113
 42
-0.000287
  0
VERTEX
  8
0
 10
1065.360408
 20
2225.325000
 42
-0.000285
  0
VERTEX
  8
0
 10
1064.034332
 20
2228.162290
 42
-0.000989
  0
VERTEX
  8
0
 10
1063.181131
 20
2230.000000
 42
0.021352
  0
VERTEX
  8
0
 10
1062.327835
 20
2231.657681
 42
0.009210
  0
VERTEX
  8
0
 10
1061.057561
 20
2233.793750
 42
0.009094
  0
VERTEX
  8
0
 10
1059.620194
 20
2236.020997
 42
0.011896
  0
VERTEX
  8
0
 10
1058.222008
 20
2238.000000
 42
-0.004436
  0
VERTEX
  8
0
 10
1056.644742
 20
2240.163254
 42
-0.002051
  0
VERTEX
  8
0
 10
1054.630588
 20
2243.002358
 42
-0.002031
  0
VERTEX
  8
0
 10
1052.537983
 20
2246.003668
 42
-0.002822
  0
VERTEX
  8
0
 10
1050.689719
 20
2248.710156
 42
0.004273
  0
VERTEX
  8
0
 10
1040.850648
 20
2263.028533
 42
0.018522
  0
VERTEX
  8
0
 10
1034.631947
 20
2271.248970
 42
0.020303
  0
VERTEX
  8
0
 10
1028.086829
 20
2278.632430
 42
0.005859
  0
VERTEX
  8
0
 10
1017.387456
 20
2289.500000
 42
0.001778
  0
VERTEX
  8
0
 10
1001.310238
 20
2305.338624
 42
0.013706
  0
VERTEX
  8
0
 10
993.554495
 20
2312.519868
 42
0.024799
  0
VERTEX
  8
0
 10
987.344585
 20
2317.439268
 42
0.014479
  0
VERTEX
  8
0
 10
979.459275
 20
2322.735083
 42
0.029381
  0
VERTEX
  8
0
 10
975.832551
 20
2324.733886
 42
0.010229
  0
VERTEX
  8
0
 10
970.394617
 20
2327.191788
 42
0.009573
  0
VERTEX
  8
0
 10
963.946334
 20
2329.804078
 42
0.007977
  0
VERTEX
  8
0
 10
957.000000
 20
2332.338182
 42
0.003273
  0
VERTEX
  8
0
 10
947.138193
 20
2335.686483
 42
0.003274
  0
VERTEX
  8
0
 10
937.234885
 20
2338.904887
 42
0.002405
  0
VERTEX
  8
0
 10
928.534469
 20
2341.623518
 42
0.026634
  0
VERTEX
  8
0
 10
925.000000
 20
2342.506439
 42
-0.009299
  0
VERTEX
  8
0
 10
923.340123
 20
2342.860465
 42
-0.004363
  0
VERTEX
  8
0
 10
921.206250
 20
2343.376917
 42
-0.004321
  0
VERTEX
  8
0
 10
918.978536
 20
2343.957217
 42
-0.006056
  0
VERTEX
  8
0
 10
917.000000
 20
2344.516701
 42
0.011945
  0
VERTEX
  8
0
 10
910.221247
 20
2346.347635
 42
0.013326
  0
VERTEX
  8
0
 10
903.604594
 20
2347.780520
 42
0.014302
  0
VERTEX
  8
0
 10
897.702825
 20
2348.720905
 42
0.032761
  0
VERTEX
  8
0
 10
893.210586
 20
2349.008398
 42
-0.018279
  0
VERTEX
  8
0
 10
888.519061
 20
2349.172512
 42
-0.005210
  0
VERTEX
  8
0
 10
881.253646
 20
2349.769186
 42
-0.005234
  0
VERTEX
  8
0
 10
873.051866
 20
2350.615550
 42
-0.005491
  0
VERTEX
  8
0
 10
865.000000
 20
2351.621403
 42
0.028780
  0
VERTEX
  8
0
 10
856.591919
 20
2352.276155
 42
0.002848
  0
VERTEX
  8
0
 10
836.332671
 20
2352.569400
 42
0.001116
  0
VERTEX
  8
0
 10
814.634268
 20
2352.711438
 42
0.100205
  0
SEQEND
  0
ENDSEC
  0
EOF
