  0
SECTION
  2
HEADER
  9
$ACADVER
  1
AC1006
  9
$EXTMIN
 10
0.000000
 20
0.000000
 30
0.000000
  9
$EXTMAX
 10
1292.000000
 20
555.000000
 30
0.000000
  0
ENDSEC
  0
SECTION
  2
ENTITIES
  0
POLYLINE
  8
0
 66
1
 70
1
  0
VERTEX
  8
0
 10
953.756847
 20
552.342637
 42
0.067050
  0
VERTEX
  8
0
 10
948.403593
 20
548.530688
 42
0.011665
  0
VERTEX
  8
0
 10
939.528541
 20
539.820623
 42
0.013347
  0
VERTEX
  8
0
 10
930.864127
 20
530.421709
 42
0.035115
  0
VERTEX
  8
0
 10
925.336753
 20
523.118481
 42
0.025600
  0
VERTEX
  8
0
 10
918.339208
 20
511.078448
 42
0.049939
  0
VERTEX
  8
0
 10
914.270566
 20
500.756989
 42
0.051541
  0
VERTEX
  8
0
 10
912.403132
 20
490.051797
 42
0.029115
  0
VERTEX
  8
0
 10
912.251484
 20
476.864343
 42
0.039887
  0
VERTEX
  8
0
 10
913.718921
 20
465.321058
 42
0.086926
  0
VERTEX
  8
0
 10
917.015229
 20
457.058441
 42
0.093355
  0
VERTEX
  8
0
 10
922.745832
 20
450.772063
 42
0.051430
  0
VERTEX
  8
0
 10
931.684460
 20
445.381453
 42
0.014654
  0
VERTEX
  8
0
 10
935.983354
 20
443.509964
 42
0.042284
  0
VERTEX
  8
0
 10
939.088053
 20
442.560528
 42
0.040505
  0
VERTEX
  8
0
 10
942.380930
 20
442.125699
 42
0.012582
  0
VERTEX
  8
0
 10
947.375329
 20
442.000000
 42
0.013304
  0
VERTEX
  8
0
 10
952.522826
 20
442.136984
 42
0.044257
  0
VERTEX
  8
0
 10
955.869772
 20
442.614333
 42
0.041662
  0
VERTEX
  8
0
 10
959.183553
 20
443.688259
 42
0.010814
  0
VERTEX
  8
0
 10
964.310858
 20
445.967537
 42
0.040012
  0
VERTEX
  8
0
 10
971.722527
 20
450.210303
 42
0.055940
  0
VERTEX
  8
0
 10
977.498708
 20
455.191768
 42
0.049089
  0
VERTEX
  8
0
 10
982.537423
 20
461.829846
 42
0.023127
  0
VERTEX
  8
0
 10
987.750000
 20
471.260548
 42
0.000000
  0
VERTEX
  8
0
 10
993.000000
 20
481.892055
 42
0.000000
  0
VERTEX
  8
0
 10
993.000000
 20
500.756414
 42
0.002944
  0
VERTEX
  8
0
 10
992.933072
 20
512.122619
 42
0.020671
  0
VERTEX
  8
0
 10
992.639070
 20
517.652748
 42
0.039031
  0
VERTEX
  8
0
 10
991.959593
 20
521.553199
 42
0.030761
  0
VERTEX
  8
0
 10
990.643233
 20
525.634514
 42
0.026215
  0
VERTEX
  8
0
 10
988.077691
 20
531.289317
 42
0.020874
  0
VERTEX
  8
0
 10
984.747406
 20
537.104685
 42
0.013620
  0
VERTEX
  8
0
 10
981.387039
 20
542.133695
 42
0.243259
  0
VERTEX
  8
0
 10
979.711786
 20
543.000000
 42
-0.099245
  0
VERTEX
  8
0
 10
977.457460
 20
543.451912
 42
-0.057238
  0
VERTEX
  8
0
 10
975.033091
 20
544.808116
 42
-0.049606
  0
VERTEX
  8
0
 10
972.629027
 20
546.931654
 42
-0.037627
  0
VERTEX
  8
0
 10
970.434990
 20
549.684418
 42
0.018024
  0
VERTEX
  8
0
 10
968.479193
 20
552.345804
 42
0.110020
  0
VERTEX
  8
0
 10
967.162447
 20
553.414620
 42
0.105033
  0
VERTEX
  8
0
 10
965.489715
 20
553.847775
 42
0.015745
  0
VERTEX
  8
0
 10
962.000000
 20
553.891745
 42
0.022151
  0
VERTEX
  8
0
 10
959.693063
 20
553.745789
 42
0.019573
  0
VERTEX
  8
0
 10
957.309824
 20
553.393835
 42
0.020026
  0
VERTEX
  8
0
 10
955.186851
 20
552.906137
 42
0.054814
  0
SEQEND
  0
POLYLINE
  8
0
 66
1
 70
1
  0
VERTEX
  8
0
 10
962.000000
 20
543.048790
 42
-0.064615
  0
VERTEX
  8
0
 10
961.693615
 20
540.687823
 42
-0.008030
  0
VERTEX
  8
0
 10
960.288820
 20
535.692840
 42
-0.010215
  0
VERTEX
  8
0
 10
958.648552
 20
530.583635
 42
-0.024101
  0
VERTEX
  8
0
 10
957.167509
 20
526.867705
 42
0.012617
  0
VERTEX
  8
0
 10
955.958823
 20
524.026569
 42
0.022114
  0
VERTEX
  8
0
 10
955.124210
 20
521.611815
 42
0.017038
  0
VERTEX
  8
0
 10
954.377330
 20
518.740566
 42
0.004665
  0
VERTEX
  8
0
 10
953.397172
 20
514.166211
 42
0.162386
  0
VERTEX
  8
0
 10
953.545987
 20
512.934249
 42
0.501319
  0
VERTEX
  8
0
 10
954.238035
 20
512.794528
 42
0.055242
  0
VERTEX
  8
0
 10
956.010484
 20
514.774155
 42
0.007687
  0
VERTEX
  8
0
 10
959.145031
 20
519.312017
 42
-0.014543
  0
VERTEX
  8
0
 10
964.354055
 20
526.636263
 42
-0.079481
  0
VERTEX
  8
0
 10
967.849119
 20
529.990762
 42
-0.195036
  0
VERTEX
  8
0
 10
970.673718
 20
530.625410
 42
-0.169344
  0
VERTEX
  8
0
 10
973.352590
 20
529.162887
 42
-0.061867
  0
VERTEX
  8
0
 10
974.054490
 20
528.162860
 42
-0.067499
  0
VERTEX
  8
0
 10
974.465298
 20
527.049964
 42
-0.062161
  0
VERTEX
  8
0
 10
974.584806
 20
525.791256
 42
-0.041998
  0
VERTEX
  8
0
 10
974.421375
 20
524.356873
 42
0.037502
  0
VERTEX
  8
0
 10
974.247095
 20
522.940453
 42
0.068867
  0
VERTEX
  8
0
 10
974.351430
 20
521.785050
 42
0.082303
  0
VERTEX
  8
0
 10
974.740193
 20
520.844130
 42
0.080681
  0
VERTEX
  8
0
 10
975.413797
 20
520.071542
 42
-0.058752
  0
VERTEX
  8
0
 10
976.020858
 20
519.433731
 42
-0.043758
  0
VERTEX
  8
0
 10
976.534053
 20
518.607617
 42
-0.044592
  0
VERTEX
  8
0
 10
976.884197
 20
517.729156
 42
-0.072669
  0
VERTEX
  8
0
 10
977.000000
 20
516.936572
 42
0.045612
  0
VERTEX
  8
0
 10
977.067406
 20
516.199206
 42
0.045735
  0
VERTEX
  8
0
 10
977.267385
 20
515.486977
 42
0.049762
  0
VERTEX
  8
0
 10
977.561026
 20
514.901061
 42
0.113787
  0
VERTEX
  8
0
 10
977.910247
 20
514.555471
 42
-0.216249
  0
VERTEX
  8
0
 10
979.118614
 20
512.755741
 42
-0.011340
  0
VERTEX
  8
0
 10
980.130667
 20
505.710061
 42
-0.018050
  0
VERTEX
  8
0
 10
980.795603
 20
497.802363
 42
-0.020759
  0
VERTEX
  8
0
 10
980.843183
 20
490.228944
 42
-0.010289
  0
VERTEX
  8
0
 10
980.520603
 20
484.454668
 42
-0.038025
  0
VERTEX
  8
0
 10
979.966665
 20
480.848067
 42
-0.041935
  0
VERTEX
  8
0
 10
978.900813
 20
477.546095
 42
-0.014494
  0
VERTEX
  8
0
 10
976.832551
 20
472.976692
 42
-0.020081
  0
VERTEX
  8
0
 10
974.824150
 20
469.248970
 42
-0.023821
  0
VERTEX
  8
0
 10
972.625798
 20
465.907970
 42
-0.023983
  0
VERTEX
  8
0
 10
970.133223
 20
462.810212
 42
-0.020878
  0
VERTEX
  8
0
 10
967.242294
 20
459.812519
 42
-0.029512
  0
VERTEX
  8
0
 10
962.646994
 20
455.920142
 42
-0.067552
  0
VERTEX
  8
0
 10
958.690812
 20
453.713112
 42
-0.056086
  0
VERTEX
  8
0
 10
953.849624
 20
452.415338
 42
-0.015403
  0
VERTEX
  8
0
 10
946.000000
 20
451.476366
 42
0.000000
  0
VERTEX
  8
0
 10
938.500000
 20
450.812763
 42
0.000000
  0
VERTEX
  8
0
 10
932.837774
 20
455.952758
 42
-0.019615
  0
VERTEX
  8
0
 10
929.952548
 20
458.786047
 42
-0.034318
  0
VERTEX
  8
0
 10
927.830482
 20
461.374829
 42
-0.035760
  0
VERTEX
  8
0
 10
926.140343
 20
464.152979
 42
-0.023573
  0
VERTEX
  8
0
 10
924.587774
 20
467.556898
 42
-0.035187
  0
VERTEX
  8
0
 10
922.867463
 20
472.919179
 42
-0.048466
  0
VERTEX
  8
0
 10
922.145662
 20
477.923636
 42
-0.037192
  0
VERTEX
  8
0
 10
922.312579
 20
483.891459
 42
-0.012199
  0
VERTEX
  8
0
 10
923.424368
 20
492.618718
 42
-0.016338
  0
VERTEX
  8
0
 10
924.658231
 20
499.256742
 42
-0.046075
  0
VERTEX
  8
0
 10
926.089758
 20
503.748283
 42
-0.036804
  0
VERTEX
  8
0
 10
928.491413
 20
508.427525
 42
-0.007578
  0
VERTEX
  8
0
 10
933.443489
 20
516.275083
 42
-0.032914
  0
VERTEX
  8
0
 10
941.424393
 20
526.907752
 42
-0.026986
  0
VERTEX
  8
0
 10
951.250587
 20
537.170931
 42
-0.029695
  0
VERTEX
  8
0
 10
959.709681
 20
544.206948
 42
-0.614908
  0
SEQEND
  0
POLYLINE
  8
0
 66
1
 70
1
  0
VERTEX
  8
0
 10
702.920233
 20
499.660430
 42
-0.015575
  0
VERTEX
  8
0
 10
699.660746
 20
498.386482
 42
-0.053077
  0
VERTEX
  8
0
 10
697.447670
 20
497.855713
 42
-0.059572
  0
VERTEX
  8
0
 10
695.309171
 20
497.833623
 42
-0.023349
  0
VERTEX
  8
0
 10
692.389852
 20
498.290862
 42
0.047471
  0
VERTEX
  8
0
 10
686.868754
 20
498.884898
 42
0.094387
  0
VERTEX
  8
0
 10
682.553661
 20
498.117921
 42
0.071295
  0
VERTEX
  8
0
 10
678.077904
 20
495.635065
 42
0.018403
  0
VERTEX
  8
0
 10
671.671807
 20
490.394875
 42
0.043136
  0
VERTEX
  8
0
 10
662.461029
 20
480.745655
 42
0.077626
  0
VERTEX
  8
0
 10
657.028135
 20
471.278775
 42
0.083943
  0
VERTEX
  8
0
 10
654.987362
 20
461.136396
 42
0.058725
  0
VERTEX
  8
0
 10
655.993849
 20
449.495641
 42
0.046855
  0
VERTEX
  8
0
 10
658.621332
 20
440.916865
 42
0.063312
  0
VERTEX
  8
0
 10
662.629393
 20
433.872669
 42
0.066160
  0
VERTEX
  8
0
 10
668.113340
 20
428.283414
 42
0.057783
  0
VERTEX
  8
0
 10
675.112668
 20
424.017636
 42
0.017921
  0
VERTEX
  8
0
 10
681.733930
 20
421.248843
 42
0.049675
  0
VERTEX
  8
0
 10
686.605216
 20
419.947950
 42
0.046017
  0
VERTEX
  8
0
 10
691.843216
 20
419.582134
 42
0.013690
  0
VERTEX
  8
0
 10
699.862831
 20
419.980409
 42
0.055112
  0
VERTEX
  8
0
 10
713.515052
 20
422.565141
 42
0.088389
  0
VERTEX
  8
0
 10
724.037514
 20
427.957204
 42
0.087493
  0
VERTEX
  8
0
 10
732.121214
 20
436.697508
 42
0.053013
  0
VERTEX
  8
0
 10
738.468670
 20
449.320535
 42
0.043686
  0
VERTEX
  8
0
 10
740.114086
 20
455.204446
 42
0.030672
  0
VERTEX
  8
0
 10
740.965481
 20
462.033062
 42
0.028507
  0
VERTEX
  8
0
 10
741.008063
 20
469.482006
 42
0.024908
  0
VERTEX
  8
0
 10
740.221638
 20
477.235160
 42
0.054790
  0
VERTEX
  8
0
 10
738.547845
 20
483.517912
 42
0.051231
  0
VERTEX
  8
0
 10
735.522827
 20
489.440671
 42
0.052397
  0
VERTEX
  8
0
 10
731.439805
 20
494.497257
 42
0.063991
  0
VERTEX
  8
0
 10
726.636843
 20
498.217263
 42
0.061798
  0
VERTEX
  8
0
 10
721.113925
 20
500.603034
 42
0.055946
  0
VERTEX
  8
0
 10
714.984804
 20
501.671242
 42
0.055760
  0
VERTEX
  8
0
 10
708.751179
 20
501.355369
 42
0.060499
  0
SEQEND
  0
POLYLINE
  8
0
 66
1
 70
1
  0
VERTEX
  8
0
 10
691.753196
 20
489.846804
 42
-0.078475
  0
VERTEX
  8
0
 10
692.236688
 20
489.181963
 42
-0.117579
  0
VERTEX
  8
0
 10
692.405225
 20
488.487414
 42
-0.091704
  0
VERTEX
  8
0
 10
692.256836
 20
487.666950
 42
-0.034079
  0
VERTEX
  8
0
 10
691.766101
 20
486.596804
 42
0.069533
  0
VERTEX
  8
0
 10
690.780930
 20
483.973472
 42
0.038307
  0
VERTEX
  8
0
 10
690.288816
 20
480.575521
 42
0.038247
  0
VERTEX
  8
0
 10
690.319213
 20
477.273698
 42
0.101783
  0
VERTEX
  8
0
 10
690.986699
 20
475.024853
 42
0.069724
  0
VERTEX
  8
0
 10
691.552071
 20
474.250440
 42
0.056169
  0
VERTEX
  8
0
 10
692.348516
 20
473.594801
 42
0.057685
  0
VERTEX
  8
0
 10
693.243881
 20
473.149777
 42
0.086723
  0
VERTEX
  8
0
 10
694.100925
 20
473.000000
 42
-0.036239
  0
VERTEX
  8
0
 10
695.001134
 20
472.934669
 42
-0.023269
  0
VERTEX
  8
0
 10
696.029758
 20
472.735328
 42
-0.023373
  0
VERTEX
  8
0
 10
697.023813
 20
472.444431
 42
-0.039971
  0
VERTEX
  8
0
 10
697.815741
 20
472.098987
 42
0.179495
  0
VERTEX
  8
0
 10
698.687788
 20
471.979638
 42
0.273634
  0
VERTEX
  8
0
 10
699.229987
 20
472.488185
 42
0.063266
  0
VERTEX
  8
0
 10
699.478253
 20
474.057934
 42
0.005593
  0
VERTEX
  8
0
 10
699.555878
 20
478.077903
 42
-0.012147
  0
VERTEX
  8
0
 10
699.680022
 20
481.906417
 42
-0.050175
  0
VERTEX
  8
0
 10
700.041700
 20
484.191530
 42
-0.073813
  0
VERTEX
  8
0
 10
700.770880
 20
485.894327
 42
-0.049564
  0
VERTEX
  8
0
 10
702.055878
 20
487.581137
 42
-0.040509
  0
VERTEX
  8
0
 10
703.680358
 20
489.063749
 42
-0.110099
  0
VERTEX
  8
0
 10
705.082266
 20
489.722854
 42
-0.070277
  0
VERTEX
  8
0
 10
706.983798
 20
489.875007
 42
-0.010008
  0
VERTEX
  8
0
 10
710.895664
 20
489.559448
 42
-0.019087
  0
VERTEX
  8
0
 10
716.014494
 20
488.844995
 42
-0.077095
  0
VERTEX
  8
0
 10
718.987678
 20
487.824176
 42
-0.083760
  0
VERTEX
  8
0
 10
721.386400
 20
485.994040
 42
-0.024955
  0
VERTEX
  8
0
 10
724.371461
 20
482.464549
 42
-0.065652
  0
VERTEX
  8
0
 10
727.076034
 20
477.751904
 42
-0.031414
  0
VERTEX
  8
0
 10
729.322658
 20
471.129914
 42
-0.031381
  0
VERTEX
  8
0
 10
730.712423
 20
464.327533
 42
-0.070546
  0
VERTEX
  8
0
 10
730.701548
 20
459.072049
 42
-0.048572
  0
VERTEX
  8
0
 10
729.613672
 20
454.626543
 42
-0.035382
  0
VERTEX
  8
0
 10
727.594383
 20
449.952460
 42
-0.031075
  0
VERTEX
  8
0
 10
724.634944
 20
445.022802
 42
-0.021261
  0
VERTEX
  8
0
 10
720.706637
 20
439.804745
 42
-0.029552
  0
VERTEX
  8
0
 10
718.545039
 20
437.470008
 42
-0.036696
  0
VERTEX
  8
0
 10
716.265606
 20
435.583184
 42
-0.033914
  0
VERTEX
  8
0
 10
713.589916
 20
433.941680
 42
-0.020256
  0
VERTEX
  8
0
 10
710.213684
 20
432.344089
 42
-0.068237
  0
VERTEX
  8
0
 10
700.560767
 20
429.722398
 42
-0.059403
  0
VERTEX
  8
0
 10
690.078648
 20
429.614761
 42
-0.063104
  0
VERTEX
  8
0
 10
680.575490
 20
431.884418
 42
-0.111053
  0
VERTEX
  8
0
 10
673.860101
 20
436.300286
 42
-0.049232
  0
VERTEX
  8
0
 10
672.821408
 20
437.612611
 42
-0.011072
  0
VERTEX
  8
0
 10
671.332912
 20
440.045837
 42
-0.011376
  0
VERTEX
  8
0
 10
669.734127
 20
442.944012
 42
-0.010800
  0
VERTEX
  8
0
 10
668.239700
 20
445.962137
 42
-0.011277
  0
VERTEX
  8
0
 10
666.223603
 20
450.530508
 42
-0.048318
  0
VERTEX
  8
0
 10
665.354919
 20
453.373998
 42
-0.053260
  0
VERTEX
  8
0
 10
665.090024
 20
456.198441
 42
-0.015646
  0
VERTEX
  8
0
 10
665.282678
 20
460.554624
 42
-0.043192
  0
VERTEX
  8
0
 10
666.293093
 20
466.744196
 42
-0.054146
  0
VERTEX
  8
0
 10
668.320592
 20
472.191167
 42
-0.047496
  0
VERTEX
  8
0
 10
671.705514
 20
477.596884
 42
-0.024240
  0
VERTEX
  8
0
 10
676.887830
 20
483.714260
 42
-0.014061
  0
VERTEX
  8
0
 10
679.613762
 20
486.472941
 42
-0.028951
  0
VERTEX
  8
0
 10
681.923714
 20
488.439862
 42
-0.037326
  0
VERTEX
  8
0
 10
683.895830
 20
489.711897
 42
-0.088116
  0
VERTEX
  8
0
 10
685.549356
 20
490.264384
 42
-0.000158
  0
VERTEX
  8
0
 10
686.756011
 20
490.442276
 42
-0.000166
  0
VERTEX
  8
0
 10
687.941686
 20
490.616288
 42
-0.000159
  0
VERTEX
  8
0
 10
688.964194
 20
490.765674
 42
-0.000753
  0
VERTEX
  8
0
 10
689.550000
 20
490.850168
 42
-0.096955
  0
VERTEX
  8
0
 10
690.035269
 20
490.825123
 42
-0.045651
  0
VERTEX
  8
0
 10
690.630314
 20
490.617236
 42
-0.042905
  0
VERTEX
  8
0
 10
691.234309
 20
490.276921
 42
-0.046668
  0
SEQEND
  0
POLYLINE
  8
0
 66
1
 70
1
  0
VERTEX
  8
0
 10
451.294803
 20
470.989451
 42
0.047549
  0
VERTEX
  8
0
 10
445.532706
 20
467.389432
 42
0.041388
  0
VERTEX
  8
0
 10
440.257809
 20
462.609681
 42
0.042156
  0
VERTEX
  8
0
 10
435.943309
 20
457.137052
 42
0.055291
  0
VERTEX
  8
0
 10
433.046478
 20
451.474738
 42
0.021703
  0
VERTEX
  8
0
 10
431.840935
 20
447.824850
 42
0.042621
  0
VERTEX
  8
0
 10
431.262506
 20
444.824081
 42
0.032662
  0
VERTEX
  8
0
 10
431.121297
 20
441.289937
 42
0.008212
  0
VERTEX
  8
0
 10
431.362189
 20
435.528748
 42
0.049727
  0
VERTEX
  8
0
 10
433.229053
 20
423.780176
 42
0.088593
  0
VERTEX
  8
0
 10
437.330698
 20
414.922913
 42
0.091647
  0
VERTEX
  8
0
 10
444.131366
 20
408.227361
 42
0.056411
  0
VERTEX
  8
0
 10
454.114652
 20
403.002951
 42
0.007772
  0
VERTEX
  8
0
 10
459.475079
 20
401.022635
 42
0.051383
  0
VERTEX
  8
0
 10
462.248531
 20
400.356666
 42
0.064732
  0
VERTEX
  8
0
 10
464.834115
 20
400.347098
 42
0.016308
  0
VERTEX
  8
0
 10
469.000000
 20
401.011682
 42
0.010926
  0
VERTEX
  8
0
 10
471.671871
 20
401.588610
 42
0.010817
  0
VERTEX
  8
0
 10
474.325000
 20
402.283463
 42
0.010731
  0
VERTEX
  8
0
 10
476.618591
 20
402.991047
 42
0.040577
  0
VERTEX
  8
0
 10
478.000000
 20
403.578049
 42
0.060307
  0
VERTEX
  8
0
 10
482.088077
 20
406.395247
 42
0.033149
  0
VERTEX
  8
0
 10
486.370409
 20
410.718312
 42
0.031783
  0
VERTEX
  8
0
 10
490.308820
 20
415.889937
 42
0.036073
  0
VERTEX
  8
0
 10
493.378682
 20
421.311896
 42
0.014576
  0
VERTEX
  8
0
 10
495.418101
 20
425.954290
 42
0.045429
  0
VERTEX
  8
0
 10
496.406647
 20
429.219524
 42
0.038703
  0
VERTEX
  8
0
 10
496.869204
 20
432.876622
 42
0.008451
  0
VERTEX
  8
0
 10
497.069570
 20
439.226676
 42
0.005027
  0
VERTEX
  8
0
 10
497.098734
 20
445.586308
 42
0.041143
  0
VERTEX
  8
0
 10
496.844647
 20
448.475832
 42
0.086525
  0
VERTEX
  8
0
 10
496.177354
 20
450.346955
 42
0.065175
  0
VERTEX
  8
0
 10
494.861358
 20
452.094868
 42
-0.007692
  0
VERTEX
  8
0
 10
493.772570
 20
453.240110
 42
-0.003906
  0
VERTEX
  8
0
 10
492.436615
 20
454.712252
 42
-0.003879
  0
VERTEX
  8
0
 10
491.081564
 20
456.252977
 42
-0.005787
  0
VERTEX
  8
0
 10
489.922864
 20
457.622970
 42
0.062351
  0
VERTEX
  8
0
 10
484.308965
 20
462.913966
 42
0.028316
  0
VERTEX
  8
0
 10
475.821499
 20
468.409888
 42
0.027031
  0
VERTEX
  8
0
 10
467.110790
 20
472.768807
 42
0.102842
  0
VERTEX
  8
0
 10
461.188239
 20
474.000000
 42
0.050556
  0
VERTEX
  8
0
 10
459.219781
 20
473.800457
 42
0.023340
  0
VERTEX
  8
0
 10
456.722326
 20
473.166149
 42
0.021757
  0
VERTEX
  8
0
 10
453.995340
 20
472.204879
 42
0.020253
  0
SEQEND
  0
POLYLINE
  8
0
 66
1
 70
1
  0
VERTEX
  8
0
 10
454.327394
 20
458.250000
 42
-0.011401
  0
VERTEX
  8
0
 10
455.632315
 20
457.482272
 42
-0.010002
  0
VERTEX
  8
0
 10
456.959940
 20
456.622662
 42
-0.010104
  0
VERTEX
  8
0
 10
458.127391
 20
455.798319
 42
-0.029462
  0
VERTEX
  8
0
 10
458.885542
 20
455.167573
 42
0.090862
  0
VERTEX
  8
0
 10
459.712844
 20
454.635424
 42
0.060989
  0
VERTEX
  8
0
 10
460.799649
 20
454.336337
 42
0.050846
  0
VERTEX
  8
0
 10
462.121743
 20
454.276644
 42
0.032251
  0
VERTEX
  8
0
 10
463.653856
 20
454.462886
 42
-0.016696
  0
VERTEX
  8
0
 10
465.608424
 20
454.762403
 42
-0.147956
  0
VERTEX
  8
0
 10
466.457423
 20
454.612195
 42
-0.232786
  0
VERTEX
  8
0
 10
466.879704
 20
454.050297
 42
-0.046797
  0
VERTEX
  8
0
 10
467.000000
 20
452.767819
 42
0.086285
  0
VERTEX
  8
0
 10
467.481421
 20
449.998863
 42
0.112987
  0
VERTEX
  8
0
 10
468.861668
 20
447.842193
 42
0.113277
  0
VERTEX
  8
0
 10
471.039486
 20
446.504330
 42
0.087061
  0
VERTEX
  8
0
 10
473.806704
 20
446.081574
 42
0.000000
  0
VERTEX
  8
0
 10
477.500000
 20
446.163148
 42
0.000000
  0
VERTEX
  8
0
 10
474.250000
 20
447.584442
 42
-0.034363
  0
VERTEX
  8
0
 10
472.696510
 20
448.395099
 42
-0.082365
  0
VERTEX
  8
0
 10
471.717666
 20
449.243303
 42
-0.101208
  0
VERTEX
  8
0
 10
471.183214
 20
450.243628
 42
-0.072367
  0
VERTEX
  8
0
 10
471.000000
 20
451.502868
 42
-0.186608
  0
VERTEX
  8
0
 10
471.710273
 20
453.339707
 42
-0.212724
  0
VERTEX
  8
0
 10
473.425274
 20
454.092559
 42
-0.145498
  0
VERTEX
  8
0
 10
475.701474
 20
453.402106
 42
-0.092919
  0
VERTEX
  8
0
 10
477.703315
 20
451.465689
 42
0.003659
  0
VERTEX
  8
0
 10
478.584449
 20
450.241888
 42
0.001562
  0
VERTEX
  8
0
 10
479.780036
 20
448.617393
 42
0.001546
  0
VERTEX
  8
0
 10
481.065634
 20
446.893153
 42
0.002033
  0
VERTEX
  8
0
 10
482.250000
 20
445.328184
 42
-0.031388
  0
VERTEX
  8
0
 10
483.545871
 20
443.389194
 42
-0.048429
  0
VERTEX
  8
0
 10
484.385040
 20
441.557547
 42
-0.049283
  0
VERTEX
  8
0
 10
484.846953
 20
439.622646
 42
-0.033977
  0
VERTEX
  8
0
 10
485.000000
 20
437.373017
 42
-0.065221
  0
VERTEX
  8
0
 10
484.363128
 20
432.511344
 42
-0.027897
  0
VERTEX
  8
0
 10
482.320569
 20
426.270361
 42
-0.027042
  0
VERTEX
  8
0
 10
479.677756
 20
420.448723
 42
-0.092684
  0
VERTEX
  8
0
 10
477.124938
 20
417.193573
 42
-0.040999
  0
VERTEX
  8
0
 10
473.922760
 20
414.814651
 42
-0.022346
  0
VERTEX
  8
0
 10
469.651956
 20
412.412772
 42
-0.020355
  0
VERTEX
  8
0
 10
465.455011
 20
410.503583
 42
-0.096855
  0
VERTEX
  8
0
 10
462.879735
 20
410.000000
 42
-0.094814
  0
VERTEX
  8
0
 10
459.684311
 20
410.611437
 42
-0.027246
  0
VERTEX
  8
0
 10
455.091982
 20
412.732067
 42
-0.028237
  0
VERTEX
  8
0
 10
450.579688
 20
415.458640
 42
-0.057158
  0
VERTEX
  8
0
 10
447.447837
 20
418.173469
 42
-0.024943
  0
VERTEX
  8
0
 10
443.676841
 20
422.718988
 42
-0.074917
  0
VERTEX
  8
0
 10
441.773022
 20
426.261762
 42
-0.050493
  0
VERTEX
  8
0
 10
440.621751
 20
430.912907
 42
-0.006965
  0
VERTEX
  8
0
 10
439.349710
 20
440.810770
 42
-0.015685
  0
VERTEX
  8
0
 10
439.094633
 20
443.894896
 42
-0.071093
  0
VERTEX
  8
0
 10
439.257808
 20
445.687132
 42
-0.092457
  0
VERTEX
  8
0
 10
439.894962
 20
447.124962
 42
-0.037061
  0
VERTEX
  8
0
 10
441.246007
 20
448.810770
 42
0.017381
  0
VERTEX
  8
0
 10
442.400580
 20
450.140695
 42
0.007853
  0
VERTEX
  8
0
 10
443.824443
 20
451.958476
 42
0.007764
  0
VERTEX
  8
0
 10
445.268840
 20
453.926079
 42
0.010521
  0
VERTEX
  8
0
 10
446.507762
 20
455.750000
 42
-0.018212
  0
VERTEX
  8
0
 10
448.624623
 20
458.765563
 42
-0.154432
  0
VERTEX
  8
0
 10
449.959837
 20
459.710506
 42
-0.179913
  0
VERTEX
  8
0
 10
451.494007
 20
459.638993
 42
-0.026606
  0
SEQEND
  0
POLYLINE
  8
0
 66
1
 70
1
  0
VERTEX
  8
0
 10
175.808623
 20
460.064103
 42
0.039391
  0
VERTEX
  8
0
 10
174.605845
 20
458.954206
 42
0.069255
  0
VERTEX
  8
0
 10
173.833752
 20
457.845993
 42
0.078257
  0
VERTEX
  8
0
 10
173.451687
 20
456.669578
 42
0.066107
  0
VERTEX
  8
0
 10
173.417889
 20
455.360183
 42
0.130469
  0
VERTEX
  8
0
 10
174.237982
 20
453.218456
 42
0.102725
  0
VERTEX
  8
0
 10
176.077697
 20
451.535585
 42
0.071494
  0
VERTEX
  8
0
 10
179.058932
 20
450.298185
 42
0.030502
  0
VERTEX
  8
0
 10
183.309914
 20
449.481994
 42
-0.032760
  0
VERTEX
  8
0
 10
186.833725
 20
448.788924
 42
-0.379065
  0
VERTEX
  8
0
 10
187.551873
 20
447.708041
 42
-0.200614
  0
VERTEX
  8
0
 10
186.650925
 20
446.185045
 42
-0.013555
  0
VERTEX
  8
0
 10
182.438665
 20
443.218876
 42
0.023993
  0
VERTEX
  8
0
 10
177.138242
 20
439.318490
 42
0.034952
  0
VERTEX
  8
0
 10
172.903747
 20
435.355858
 42
0.038115
  0
VERTEX
  8
0
 10
169.542993
 20
431.135426
 42
0.038457
  0
VERTEX
  8
0
 10
166.873043
 20
426.465934
 42
0.025509
  0
VERTEX
  8
0
 10
165.230615
 20
422.487648
 42
0.048340
  0
VERTEX
  8
0
 10
164.394033
 20
419.126236
 42
0.028482
  0
VERTEX
  8
0
 10
163.989343
 20
414.660210
 42
0.004066
  0
VERTEX
  8
0
 10
163.756791
 20
405.465934
 42
0.008562
  0
VERTEX
  8
0
 10
163.756435
 20
394.557077
 42
0.064091
  0
VERTEX
  8
0
 10
164.502927
 20
389.448527
 42
0.088811
  0
VERTEX
  8
0
 10
166.459660
 20
385.400519
 42
0.023726
  0
VERTEX
  8
0
 10
170.948535
 20
379.790857
 42
0.051196
  0
VERTEX
  8
0
 10
175.140761
 20
375.915154
 42
0.027948
  0
VERTEX
  8
0
 10
180.974565
 20
372.025958
 42
0.027671
  0
VERTEX
  8
0
 10
187.364599
 20
368.725253
 42
0.041266
  0
VERTEX
  8
0
 10
193.293809
 20
366.634681
 42
0.055056
  0
VERTEX
  8
0
 10
198.303324
 20
365.895525
 42
0.038638
  0
VERTEX
  8
0
 10
204.004747
 20
366.127961
 42
0.034818
  0
VERTEX
  8
0
 10
210.223934
 20
367.308506
 42
0.026957
  0
VERTEX
  8
0
 10
216.790063
 20
369.419778
 42
0.038679
  0
VERTEX
  8
0
 10
222.449225
 20
372.100052
 42
0.059548
  0
VERTEX
  8
0
 10
226.794280
 20
375.325652
 42
0.053484
  0
VERTEX
  8
0
 10
230.565248
 20
379.745157
 42
0.025002
  0
VERTEX
  8
0
 10
234.500000
 20
386.169804
 42
0.012287
  0
VERTEX
  8
0
 10
236.921326
 20
390.878600
 42
0.055322
  0
VERTEX
  8
0
 10
237.951519
 20
393.792306
 42
0.050248
  0
VERTEX
  8
0
 10
238.365507
 20
396.985983
 42
0.009003
  0
VERTEX
  8
0
 10
238.428602
 20
403.000000
 42
0.033347
  0
VERTEX
  8
0
 10
237.861046
 20
410.636574
 42
0.033099
  0
VERTEX
  8
0
 10
236.283078
 20
418.149395
 42
0.031539
  0
VERTEX
  8
0
 10
233.639658
 20
425.712119
 42
0.025110
  0
VERTEX
  8
0
 10
229.882253
 20
433.500000
 42
0.038017
  0
VERTEX
  8
0
 10
226.371994
 20
438.908031
 42
0.019477
  0
VERTEX
  8
0
 10
221.217539
 20
445.144715
 42
0.017097
  0
VERTEX
  8
0
 10
215.922195
 20
450.673697
 42
0.094416
  0
VERTEX
  8
0
 10
212.500000
 20
452.937951
 42
0.008394
  0
VERTEX
  8
0
 10
205.946596
 20
455.551293
 42
0.012093
  0
VERTEX
  8
0
 10
200.057934
 20
457.624261
 42
0.013790
  0
VERTEX
  8
0
 10
194.877436
 20
459.151683
 42
0.024050
  0
VERTEX
  8
0
 10
190.500000
 20
460.089494
 42
-0.000687
  0
VERTEX
  8
0
 10
187.982008
 20
460.507043
 42
-0.000620
  0
VERTEX
  8
0
 10
185.377884
 20
460.945873
 42
-0.000621
  0
VERTEX
  8
0
 10
183.045528
 20
461.344864
 42
-0.001977
  0
VERTEX
  8
0
 10
181.488542
 20
461.619548
 42
0.048327
  0
VERTEX
  8
0
 10
179.951293
 20
461.745884
 42
0.063264
  0
VERTEX
  8
0
 10
178.556917
 20
461.548052
 42
0.060459
  0
VERTEX
  8
0
 10
177.208973
 20
460.997014
 42
0.039439
  0
SEQEND
  0
POLYLINE
  8
0
 66
1
 70
1
  0
VERTEX
  8
0
 10
206.146228
 20
435.812593
 42
-0.063448
  0
VERTEX
  8
0
 10
210.916626
 20
432.461103
 42
-0.114601
  0
VERTEX
  8
0
 10
213.612587
 20
428.549215
 42
-0.087008
  0
VERTEX
  8
0
 10
214.728234
 20
423.091419
 42
-0.025728
  0
VERTEX
  8
0
 10
214.528014
 20
414.532268
 42
0.011936
  0
VERTEX
  8
0
 10
214.193329
 20
407.970730
 42
0.100914
  0
VERTEX
  8
0
 10
214.702776
 20
405.073425
 42
0.381964
  0
VERTEX
  8
0
 10
215.990875
 20
404.425794
 42
0.118477
  0
VERTEX
  8
0
 10
218.063013
 20
405.557026
 42
0.082044
  0
VERTEX
  8
0
 10
219.023436
 20
406.765534
 42
0.069626
  0
VERTEX
  8
0
 10
219.611815
 20
408.288090
 42
0.044380
  0
VERTEX
  8
0
 10
219.921378
 20
410.468463
 42
0.012503
  0
VERTEX
  8
0
 10
220.015313
 20
413.904988
 42
-0.011331
  0
VERTEX
  8
0
 10
220.080767
 20
416.524322
 42
-0.014327
  0
VERTEX
  8
0
 10
220.265427
 20
418.939852
 42
-0.012396
  0
VERTEX
  8
0
 10
220.525730
 20
420.934892
 42
-0.103083
  0
VERTEX
  8
0
 10
220.845262
 20
421.783870
 42
-0.203349
  0
VERTEX
  8
0
 10
221.981733
 20
422.568322
 42
-0.184783
  0
VERTEX
  8
0
 10
223.394956
 20
422.336604
 42
-0.141071
  0
VERTEX
  8
0
 10
224.570969
 20
421.105563
 42
-0.121150
  0
VERTEX
  8
0
 10
225.000000
 20
419.360893
 42
0.039261
  0
VERTEX
  8
0
 10
225.090956
 20
418.204326
 42
0.017489
  0
VERTEX
  8
0
 10
225.382730
 20
416.702892
 42
0.017186
  0
VERTEX
  8
0
 10
225.803984
 20
415.127490
 42
0.022271
  0
VERTEX
  8
0
 10
226.302909
 20
413.717881
 42
-0.052782
  0
VERTEX
  8
0
 10
226.822793
 20
411.904842
 42
-0.020478
  0
VERTEX
  8
0
 10
227.169113
 20
409.313123
 42
-0.018582
  0
VERTEX
  8
0
 10
227.337154
 20
406.245779
 42
-0.014488
  0
VERTEX
  8
0
 10
227.299080
 20
402.907419
 42
-0.017054
  0
VERTEX
  8
0
 10
226.984972
 20
398.698015
 42
-0.034916
  0
VERTEX
  8
0
 10
226.397961
 20
395.442415
 42
-0.034653
  0
VERTEX
  8
0
 10
225.360366
 20
392.284683
 42
-0.016545
  0
VERTEX
  8
0
 10
223.617719
 20
388.380740
 42
-0.013693
  0
VERTEX
  8
0
 10
221.300595
 20
383.933349
 42
-0.039761
  0
VERTEX
  8
0
 10
219.381052
 20
381.048878
 42
-0.062764
  0
VERTEX
  8
0
 10
217.743155
 20
379.432530
 42
-0.230488
  0
VERTEX
  8
0
 10
216.355260
 20
379.150686
 42
0.131028
  0
VERTEX
  8
0
 10
215.820886
 20
379.146488
 42
0.012840
  0
VERTEX
  8
0
 10
214.576233
 20
378.769494
 42
0.015547
  0
VERTEX
  8
0
 10
213.094390
 20
378.227107
 42
0.011708
  0
VERTEX
  8
0
 10
211.500000
 20
377.542867
 42
-0.070666
  0
VERTEX
  8
0
 10
206.463611
 20
376.052540
 42
-0.042457
  0
VERTEX
  8
0
 10
200.230013
 20
375.667183
 42
-0.042745
  0
VERTEX
  8
0
 10
194.122731
 20
376.332813
 42
-0.081097
  0
VERTEX
  8
0
 10
189.497850
 20
378.051700
 42
-0.031696
  0
VERTEX
  8
0
 10
185.512429
 20
380.668813
 42
-0.033043
  0
VERTEX
  8
0
 10
181.948110
 20
383.735445
 42
-0.033850
  0
VERTEX
  8
0
 10
178.898172
 20
387.167080
 42
-0.037328
  0
VERTEX
  8
0
 10
176.447314
 20
390.873185
 42
-0.084783
  0
VERTEX
  8
0
 10
174.377008
 20
396.716599
 42
-0.051052
  0
VERTEX
  8
0
 10
173.866396
 20
404.070681
 42
-0.041106
  0
VERTEX
  8
0
 10
174.893314
 20
412.971783
 42
-0.023111
  0
VERTEX
  8
0
 10
177.515720
 20
423.539322
 42
0.077546
  0
VERTEX
  8
0
 10
177.649843
 20
424.529185
 42
0.079314
  0
VERTEX
  8
0
 10
177.473936
 20
425.504727
 42
0.072724
  0
VERTEX
  8
0
 10
176.982406
 20
426.444528
 42
0.052085
  0
VERTEX
  8
0
 10
176.189373
 20
427.328620
 42
-0.034681
  0
VERTEX
  8
0
 10
175.068156
 20
428.494437
 42
-0.173000
  0
VERTEX
  8
0
 10
174.758462
 20
429.332534
 42
-0.110675
  0
VERTEX
  8
0
 10
174.980440
 20
430.378588
 42
-0.010482
  0
VERTEX
  8
0
 10
176.127835
 20
432.750741
 42
0.012248
  0
VERTEX
  8
0
 10
176.844588
 20
434.246027
 42
0.014233
  0
VERTEX
  8
0
 10
177.450051
 20
435.702275
 42
0.013296
  0
VERTEX
  8
0
 10
177.891910
 20
436.955490
 42
0.078255
  0
VERTEX
  8
0
 10
178.000000
 20
437.641891
 42
-0.299727
  0
VERTEX
  8
0
 10
178.732236
 20
438.753658
 42
-0.070996
  0
VERTEX
  8
0
 10
180.984573
 20
439.363005
 42
-0.036128
  0
VERTEX
  8
0
 10
184.934883
 20
439.561618
 42
-0.008660
  0
VERTEX
  8
0
 10
191.500000
 20
439.303418
 42
-0.011636
  0
VERTEX
  8
0
 10
196.444775
 20
438.907486
 42
-0.032713
  0
VERTEX
  8
0
 10
199.864922
 20
438.325411
 42
-0.039187
  0
VERTEX
  8
0
 10
202.818925
 20
437.371630
 42
-0.023772
  0
SEQEND
  0
POLYLINE
  8
0
 66
1
 70
1
  0
VERTEX
  8
0
 10
1205.842475
 20
211.250000
 42
0.026871
  0
VERTEX
  8
0
 10
1203.780840
 20
208.504541
 42
0.034257
  0
VERTEX
  8
0
 10
1202.203043
 20
205.760825
 42
0.036261
  0
VERTEX
  8
0
 10
1201.084039
 20
202.966521
 42
0.037480
  0
VERTEX
  8
0
 10
1200.395267
 20
200.070400
 42
0.013712
  0
VERTEX
  8
0
 10
1200.112306
 20
197.925109
 42
0.081067
  0
VERTEX
  8
0
 10
1200.177828
 20
196.797852
 42
0.192531
  0
VERTEX
  8
0
 10
1200.571367
 20
196.222924
 42
0.148615
  0
VERTEX
  8
0
 10
1201.304804
 20
196.000000
 42
0.115657
  0
VERTEX
  8
0
 10
1201.949404
 20
196.151126
 42
0.070868
  0
VERTEX
  8
0
 10
1202.595800
 20
196.595326
 42
0.064943
  0
VERTEX
  8
0
 10
1203.145994
 20
197.251846
 42
0.065212
  0
VERTEX
  8
0
 10
1203.508456
 20
198.026641
 42
-0.114064
  0
VERTEX
  8
0
 10
1204.853534
 20
200.298937
 42
-0.101435
  0
VERTEX
  8
0
 10
1207.112480
 20
201.867677
 42
-0.076807
  0
VERTEX
  8
0
 10
1210.363761
 20
202.703076
 42
-0.037502
  0
VERTEX
  8
0
 10
1214.654963
 20
202.802740
 42
-0.009797
  0
VERTEX
  8
0
 10
1217.932243
 20
202.568539
 42
-0.070324
  0
VERTEX
  8
0
 10
1219.472283
 20
202.205755
 42
-0.169986
  0
VERTEX
  8
0
 10
1220.219913
 20
201.565066
 42
-0.132142
  0
VERTEX
  8
0
 10
1220.500000
 20
200.523774
 42
-0.140835
  0
VERTEX
  8
0
 10
1220.202126
 20
199.487222
 42
-0.065329
  0
VERTEX
  8
0
 10
1219.302525
 20
198.397532
 42
-0.046069
  0
VERTEX
  8
0
 10
1217.795208
 20
197.232227
 42
-0.019945
  0
VERTEX
  8
0
 10
1215.600346
 20
195.957506
 42
0.038188
  0
VERTEX
  8
0
 10
1213.296947
 20
194.504981
 42
0.014966
  0
VERTEX
  8
0
 10
1210.347988
 20
192.174001
 42
0.014712
  0
VERTEX
  8
0
 10
1207.295114
 20
189.451602
 42
0.017761
  0
VERTEX
  8
0
 10
1204.600346
 20
186.714571
 42
0.003647
  0
VERTEX
  8
0
 10
1196.905928
 20
178.199352
 42
0.061945
  0
VERTEX
  8
0
 10
1194.764288
 20
175.094167
 42
0.100563
  0
VERTEX
  8
0
 10
1193.869628
 20
171.978122
 42
0.015431
  0
VERTEX
  8
0
 10
1193.556822
 20
165.504347
 42
0.009194
  0
VERTEX
  8
0
 10
1193.560280
 20
161.923721
 42
0.011589
  0
VERTEX
  8
0
 10
1193.701195
 20
158.612589
 42
0.009785
  0
VERTEX
  8
0
 10
1193.936435
 20
155.860822
 42
0.085728
  0
VERTEX
  8
0
 10
1194.268625
 20
154.687446
 42
-0.042705
  0
VERTEX
  8
0
 10
1194.608144
 20
153.789702
 42
-0.019088
  0
VERTEX
  8
0
 10
1194.906198
 20
152.561305
 42
-0.018732
  0
VERTEX
  8
0
 10
1195.124283
 20
151.230284
 42
-0.024135
  0
VERTEX
  8
0
 10
1195.219211
 20
149.994809
 42
0.116481
  0
VERTEX
  8
0
 10
1195.726801
 20
148.089356
 42
0.039723
  0
VERTEX
  8
0
 10
1197.285658
 20
145.666204
 42
0.024384
  0
VERTEX
  8
0
 10
1200.075346
 20
142.353008
 42
0.006276
  0
VERTEX
  8
0
 10
1204.900549
 20
137.287816
 42
0.005072
  0
VERTEX
  8
0
 10
1211.197099
 20
130.971543
 42
0.045030
  0
VERTEX
  8
0
 10
1214.233226
 20
128.481912
 42
0.069947
  0
VERTEX
  8
0
 10
1217.170933
 20
127.036828
 42
0.020747
  0
VERTEX
  8
0
 10
1222.000000
 20
125.669100
 42
0.010112
  0
VERTEX
  8
0
 10
1225.477288
 20
124.912338
 42
0.005528
  0
VERTEX
  8
0
 10
1229.768356
 20
124.118143
 42
0.005506
  0
VERTEX
  8
0
 10
1234.147166
 20
123.407262
 42
0.008731
  0
VERTEX
  8
0
 10
1237.913554
 20
122.905400
 42
0.035279
  0
VERTEX
  8
0
 10
1244.796195
 20
122.599077
 42
0.088441
  0
VERTEX
  8
0
 10
1249.702019
 20
123.606177
 42
0.057707
  0
VERTEX
  8
0
 10
1255.099002
 20
126.513926
 42
0.008829
  0
VERTEX
  8
0
 10
1265.000000
 20
133.689415
 42
0.013332
  0
VERTEX
  8
0
 10
1274.077566
 20
140.902547
 42
0.020302
  0
VERTEX
  8
0
 10
1281.520694
 20
147.681163
 42
0.015945
  0
VERTEX
  8
0
 10
1287.063679
 20
153.517754
 42
0.250951
  0
VERTEX
  8
0
 10
1287.684348
 20
156.099054
 42
-0.103384
  0
VERTEX
  8
0
 10
1287.644034
 20
156.908828
 42
-0.057621
  0
VERTEX
  8
0
 10
1287.909886
 20
157.864186
 42
-0.053879
  0
VERTEX
  8
0
 10
1288.419802
 20
158.810638
 42
-0.058417
  0
VERTEX
  8
0
 10
1289.108478
 20
159.598171
 42
0.113504
  0
VERTEX
  8
0
 10
1290.486981
 20
161.573904
 42
0.126109
  0
VERTEX
  8
0
 10
1290.793181
 20
163.875540
 42
0.061939
  0
VERTEX
  8
0
 10
1289.959984
 20
167.245901
 42
0.010677
  0
VERTEX
  8
0
 10
1287.469393
 20
173.349555
 42
0.017663
  0
VERTEX
  8
0
 10
1285.478678
 20
177.533477
 42
0.026407
  0
VERTEX
  8
0
 10
1283.424486
 20
181.021589
 42
0.027019
  0
VERTEX
  8
0
 10
1281.051580
 20
184.214952
 42
0.019755
  0
VERTEX
  8
0
 10
1278.096416
 20
187.500000
 42
-0.002248
  0
VERTEX
  8
0
 10
1275.469931
 20
190.221722
 42
-0.001372
  0
VERTEX
  8
0
 10
1272.392753
 20
193.457032
 42
-0.001375
  0
VERTEX
  8
0
 10
1269.361427
 20
196.679407
 42
-0.002441
  0
VERTEX
  8
0
 10
1266.883867
 20
199.353725
 42
0.015282
  0
VERTEX
  8
0
 10
1264.570520
 20
201.725614
 42
0.014206
  0
VERTEX
  8
0
 10
1262.061043
 20
204.012031
 42
0.014354
  0
VERTEX
  8
0
 10
1259.714597
 20
205.916526
 42
0.045645
  0
VERTEX
  8
0
 10
1258.006844
 20
206.991664
 42
0.071542
  0
VERTEX
  8
0
 10
1252.437191
 20
208.885771
 42
0.009704
  0
VERTEX
  8
0
 10
1240.249677
 20
210.922157
 42
0.012062
  0
VERTEX
  8
0
 10
1227.375871
 20
212.500950
 42
0.024481
  0
VERTEX
  8
0
 10
1217.189255
 20
213.000000
 42
0.006303
  0
VERTEX
  8
0
 10
1211.860329
 20
212.932825
 42
0.031964
  0
VERTEX
  8
0
 10
1208.903024
 20
212.668580
 42
0.061131
  0
VERTEX
  8
0
 10
1207.062262
 20
212.148946
 42
0.119497
  0
SEQEND
  0
POLYLINE
  8
0
 66
1
 70
1
  0
VERTEX
  8
0
 10
1247.425022
 20
195.491072
 42
-0.014179
  0
VERTEX
  8
0
 10
1249.196229
 20
194.384444
 42
-0.012529
  0
VERTEX
  8
0
 10
1250.977900
 20
193.134264
 42
-0.012686
  0
VERTEX
  8
0
 10
1252.526568
 20
191.926653
 42
-0.036911
  0
VERTEX
  8
0
 10
1253.508080
 20
190.991072
 42
0.066519
  0
VERTEX
  8
0
 10
1254.517398
 20
190.136801
 42
0.054829
  0
VERTEX
  8
0
 10
1255.782214
 20
189.510148
 42
0.049746
  0
VERTEX
  8
0
 10
1257.273356
 20
189.127740
 42
0.037926
  0
VERTEX
  8
0
 10
1258.954988
 20
189.000000
 42
-0.049263
  0
VERTEX
  8
0
 10
1261.644177
 20
188.734399
 42
-0.109756
  0
VERTEX
  8
0
 10
1263.515676
 20
187.908648
 42
-0.136741
  0
VERTEX
  8
0
 10
1264.612483
 20
186.509431
 42
-0.097945
  0
VERTEX
  8
0
 10
1265.005123
 20
184.550000
 42
0.075338
  0
VERTEX
  8
0
 10
1265.167181
 20
183.498318
 42
0.021042
  0
VERTEX
  8
0
 10
1265.732444
 20
181.927188
 42
0.020726
  0
VERTEX
  8
0
 10
1266.530537
 20
180.181850
 42
0.020431
  0
VERTEX
  8
0
 10
1267.473914
 20
178.500000
 42
-0.071869
  0
VERTEX
  8
0
 10
1269.434906
 20
173.970187
 42
-0.072451
  0
VERTEX
  8
0
 10
1270.026190
 20
169.083263
 42
-0.065265
  0
VERTEX
  8
0
 10
1269.203761
 20
163.805526
 42
-0.043937
  0
VERTEX
  8
0
 10
1266.979707
 20
158.117810
 42
-0.020281
  0
VERTEX
  8
0
 10
1265.544820
 20
155.498245
 42
-0.028075
  0
VERTEX
  8
0
 10
1264.037403
 20
153.284482
 42
-0.031979
  0
VERTEX
  8
0
 10
1262.560292
 20
151.593132
 42
-0.077866
  0
VERTEX
  8
0
 10
1261.229707
 20
150.615719
 42
0.035429
  0
VERTEX
  8
0
 10
1259.990259
 20
149.857572
 42
0.016838
  0
VERTEX
  8
0
 10
1258.504013
 20
148.719575
 42
0.016595
  0
VERTEX
  8
0
 10
1257.023391
 20
147.420122
 42
0.022592
  0
VERTEX
  8
0
 10
1255.783953
 20
146.147297
 42
-0.046780
  0
VERTEX
  8
0
 10
1254.291370
 20
144.755776
 42
-0.016741
  0
VERTEX
  8
0
 10
1251.926431
 20
143.055259
 42
-0.016440
  0
VERTEX
  8
0
 10
1249.192744
 20
141.352617
 42
-0.018698
  0
VERTEX
  8
0
 10
1246.465988
 20
139.909482
 42
-0.013328
  0
VERTEX
  8
0
 10
1242.413451
 20
138.086468
 42
-0.053018
  0
VERTEX
  8
0
 10
1239.804032
 20
137.307404
 42
-0.054582
  0
VERTEX
  8
0
 10
1237.126233
 20
137.105810
 42
-0.014691
  0
VERTEX
  8
0
 10
1232.866588
 20
137.375782
 42
-0.051236
  0
VERTEX
  8
0
 10
1225.094738
 20
138.911253
 42
-0.084014
  0
VERTEX
  8
0
 10
1219.113807
 20
141.912382
 42
-0.078314
  0
VERTEX
  8
0
 10
1214.177768
 20
146.884270
 42
-0.039288
  0
VERTEX
  8
0
 10
1209.562545
 20
154.463926
 42
-0.018686
  0
VERTEX
  8
0
 10
1208.097721
 20
157.649226
 42
-0.055880
  0
VERTEX
  8
0
 10
1207.431406
 20
159.948902
 42
-0.053327
  0
VERTEX
  8
0
 10
1207.274921
 20
162.397406
 42
-0.015894
  0
VERTEX
  8
0
 10
1207.554139
 20
166.137625
 42
-0.017994
  0
VERTEX
  8
0
 10
1208.084476
 20
169.839747
 42
-0.061502
  0
VERTEX
  8
0
 10
1208.804666
 20
172.158747
 42
-0.064430
  0
VERTEX
  8
0
 10
1210.048943
 20
174.176209
 42
-0.021082
  0
VERTEX
  8
0
 10
1212.366509
 20
176.800097
 42
-0.022896
  0
VERTEX
  8
0
 10
1214.270491
 20
178.607442
 42
-0.015760
  0
VERTEX
  8
0
 10
1216.580382
 20
180.483262
 42
-0.015919
  0
VERTEX
  8
0
 10
1218.922326
 20
182.150645
 42
-0.030983
  0
VERTEX
  8
0
 10
1220.907132
 20
183.300097
 42
0.039233
  0
VERTEX
  8
0
 10
1223.016616
 20
184.568629
 42
0.014143
  0
VERTEX
  8
0
 10
1225.809449
 20
186.683477
 42
0.013927
  0
VERTEX
  8
0
 10
1228.751174
 20
189.182740
 42
0.016081
  0
VERTEX
  8
0
 10
1231.407132
 20
191.728763
 42
-0.025904
  0
VERTEX
  8
0
 10
1236.158540
 20
196.107731
 42
-0.116050
  0
VERTEX
  8
0
 10
1239.523535
 20
197.782322
 42
-0.143644
  0
VERTEX
  8
0
 10
1242.890979
 20
197.598155
 42
-0.047566
  0
SEQEND
  0
POLYLINE
  8
0
 66
1
 70
1
  0
VERTEX
  8
0
 10
1038.036315
 20
185.417455
 42
-0.030966
  0
VERTEX
  8
0
 10
1036.379702
 20
184.818527
 42
-0.015741
  0
VERTEX
  8
0
 10
1034.234308
 20
184.262656
 42
-0.015576
  0
VERTEX
  8
0
 10
1031.977287
 20
183.826488
 42
-0.022452
  0
VERTEX
  8
0
 10
1029.957212
 20
183.593455
 42
0.029288
  0
VERTEX
  8
0
 10
1027.991349
 20
183.339416
 42
0.023024
  0
VERTEX
  8
0
 10
1025.900964
 20
182.843098
 42
0.023554
  0
VERTEX
  8
0
 10
1023.995578
 20
182.198423
 42
0.051718
  0
VERTEX
  8
0
 10
1022.629933
 20
181.493178
 42
-0.030134
  0
VERTEX
  8
0
 10
1021.119287
 20
180.628661
 42
-0.084903
  0
VERTEX
  8
0
 10
1019.957267
 20
180.281720
 42
-0.094325
  0
VERTEX
  8
0
 10
1018.818703
 20
180.358521
 42
-0.043047
  0
VERTEX
  8
0
 10
1017.408645
 20
180.859670
 42
0.040202
  0
VERTEX
  8
0
 10
1015.898166
 20
181.406191
 42
0.210178
  0
VERTEX
  8
0
 10
1015.043664
 20
181.279212
 42
0.139311
  0
VERTEX
  8
0
 10
1014.354279
 20
180.512140
 42
0.014874
  0
VERTEX
  8
0
 10
1013.355336
 20
178.308014
 42
0.026570
  0
VERTEX
  8
0
 10
1012.091386
 20
174.764792
 42
0.032908
  0
VERTEX
  8
0
 10
1011.314435
 20
171.350244
 42
0.033594
  0
VERTEX
  8
0
 10
1011.069508
 20
168.659502
 42
0.421146
  0
VERTEX
  8
0
 10
1011.713618
 20
168.000000
 42
-0.121459
  0
VERTEX
  8
0
 10
1012.246012
 20
167.868736
 42
-0.019406
  0
VERTEX
  8
0
 10
1013.182491
 20
167.329710
 42
-0.020504
  0
VERTEX
  8
0
 10
1014.256248
 20
166.591823
 42
-0.016694
  0
VERTEX
  8
0
 10
1015.344461
 20
165.718163
 42
-0.055258
  0
VERTEX
  8
0
 10
1016.849480
 20
164.104381
 42
-0.101365
  0
VERTEX
  8
0
 10
1017.609061
 20
162.482929
 42
-0.052567
  0
VERTEX
  8
0
 10
1017.930269
 20
160.045378
 42
-0.006496
  0
VERTEX
  8
0
 10
1018.000000
 20
154.678325
 42
0.030328
  0
VERTEX
  8
0
 10
1018.455980
 20
147.167684
 42
0.086956
  0
VERTEX
  8
0
 10
1019.968912
 20
142.184261
 42
0.087421
  0
VERTEX
  8
0
 10
1023.080956
 20
138.027294
 42
0.030869
  0
VERTEX
  8
0
 10
1028.831292
 20
133.261463
 42
0.003643
  0
VERTEX
  8
0
 10
1031.659905
 20
131.229054
 42
0.004150
  0
VERTEX
  8
0
 10
1034.398349
 20
129.325435
 42
0.003770
  0
VERTEX
  8
0
 10
1036.748161
 20
127.746583
 42
0.023175
  0
VERTEX
  8
0
 10
1038.000591
 20
126.999683
 42
0.085530
  0
VERTEX
  8
0
 10
1040.953644
 20
126.018606
 42
0.004385
  0
VERTEX
  8
0
 10
1050.966467
 20
124.593902
 42
0.002719
  0
VERTEX
  8
0
 10
1061.369121
 20
123.264224
 42
0.164183
  0
VERTEX
  8
0
 10
1063.190413
 20
123.640569
 42
-0.109810
  0
VERTEX
  8
0
 10
1063.700615
 20
123.804275
 42
-0.005199
  0
VERTEX
  8
0
 10
1065.506518
 20
123.951500
 42
-0.008336
  0
VERTEX
  8
0
 10
1067.670598
 20
124.069072
 42
-0.005882
  0
VERTEX
  8
0
 10
1070.105510
 20
124.132003
 42
0.024985
  0
VERTEX
  8
0
 10
1074.290009
 20
124.400325
 42
0.061467
  0
VERTEX
  8
0
 10
1077.278896
 20
125.121542
 42
0.035639
  0
VERTEX
  8
0
 10
1080.834937
 20
126.755862
 42
0.004123
  0
VERTEX
  8
0
 10
1088.500000
 20
131.046337
 42
0.053424
  0
VERTEX
  8
0
 10
1094.542973
 20
135.408868
 42
0.018282
  0
VERTEX
  8
0
 10
1102.320883
 20
142.929635
 42
0.016792
  0
VERTEX
  8
0
 10
1109.407359
 20
150.815416
 42
0.083052
  0
VERTEX
  8
0
 10
1112.428710
 20
155.939591
 42
0.061936
  0
VERTEX
  8
0
 10
1113.694892
 20
161.040299
 42
0.080265
  0
VERTEX
  8
0
 10
1113.499646
 20
165.848697
 42
0.082574
  0
VERTEX
  8
0
 10
1111.816128
 20
170.247224
 42
0.070125
  0
VERTEX
  8
0
 10
1108.722932
 20
174.148788
 42
0.023168
  0
VERTEX
  8
0
 10
1105.602190
 20
176.853513
 42
0.123837
  0
VERTEX
  8
0
 10
1103.562127
 20
177.767878
 42
0.156098
  0
VERTEX
  8
0
 10
1101.580861
 20
177.499263
 42
0.043608
  0
VERTEX
  8
0
 10
1098.850693
 20
175.893684
 42
-0.035452
  0
VERTEX
  8
0
 10
1097.463601
 20
175.047251
 42
-0.047121
  0
VERTEX
  8
0
 10
1096.093800
 20
174.495596
 42
-0.053685
  0
VERTEX
  8
0
 10
1094.814114
 20
174.260859
 42
-0.082801
  0
VERTEX
  8
0
 10
1093.696322
 20
174.362944
 42
0.001653
  0
VERTEX
  8
0
 10
1092.316377
 20
174.719706
 42
0.000171
  0
VERTEX
  8
0
 10
1089.060795
 20
175.548721
 42
0.000213
  0
VERTEX
  8
0
 10
1085.181451
 20
176.533408
 42
0.000170
  0
VERTEX
  8
0
 10
1081.000000
 20
177.591375
 42
-0.002530
  0
VERTEX
  8
0
 10
1076.391507
 20
178.780561
 42
-0.001778
  0
VERTEX
  8
0
 10
1071.217015
 20
180.163457
 42
-0.001794
  0
VERTEX
  8
0
 10
1066.273605
 20
181.522503
 42
-0.003759
  0
VERTEX
  8
0
 10
1062.440901
 20
182.622114
 42
0.009469
  0
VERTEX
  8
0
 10
1059.125782
 20
183.532385
 42
0.009918
  0
VERTEX
  8
0
 10
1055.829172
 20
184.301496
 42
0.009635
  0
VERTEX
  8
0
 10
1052.960156
 20
184.853562
 42
0.042734
  0
VERTEX
  8
0
 10
1051.249918
 20
185.000000
 42
-0.023166
  0
VERTEX
  8
0
 10
1050.015362
 20
185.057229
 42
-0.030076
  0
VERTEX
  8
0
 10
1048.896146
 20
185.229566
 42
-0.030768
  0
VERTEX
  8
0
 10
1048.012593
 20
185.478315
 42
-0.171985
  0
VERTEX
  8
0
 10
1047.635041
 20
185.781500
 42
0.222300
  0
VERTEX
  8
0
 10
1046.444121
 20
186.561302
 42
0.045070
  0
VERTEX
  8
0
 10
1043.854776
 20
186.696512
 42
0.043783
  0
VERTEX
  8
0
 10
1040.830476
 20
186.315208
 42
0.049014
  0
SEQEND
  0
POLYLINE
  8
0
 66
1
 70
1
  0
VERTEX
  8
0
 10
1083.867839
 20
168.750000
 42
0.003961
  0
VERTEX
  8
0
 10
1085.395317
 20
167.813097
 42
0.003479
  0
VERTEX
  8
0
 10
1087.004749
 20
166.858591
 42
0.003497
  0
VERTEX
  8
0
 10
1088.469398
 20
166.017351
 42
0.010484
  0
VERTEX
  8
0
 10
1089.485873
 20
165.470735
 42
-0.103354
  0
VERTEX
  8
0
 10
1091.207146
 20
164.083345
 42
-0.052270
  0
VERTEX
  8
0
 10
1092.744985
 20
161.746159
 42
-0.052689
  0
VERTEX
  8
0
 10
1093.715631
 20
159.260174
 42
-0.159679
  0
VERTEX
  8
0
 10
1093.626499
 20
157.469056
 42
-0.175103
  0
VERTEX
  8
0
 10
1092.372476
 20
156.019206
 42
-0.111538
  0
VERTEX
  8
0
 10
1090.211542
 20
155.377069
 42
-0.091848
  0
VERTEX
  8
0
 10
1087.604620
 20
155.682140
 42
-0.079945
  0
VERTEX
  8
0
 10
1085.137490
 20
156.902098
 42
0.023657
  0
VERTEX
  8
0
 10
1082.751840
 20
158.436178
 42
0.114666
  0
VERTEX
  8
0
 10
1081.222147
 20
158.902388
 42
0.273805
  0
VERTEX
  8
0
 10
1080.348933
 20
158.462099
 42
0.141954
  0
VERTEX
  8
0
 10
1079.990857
 20
157.250000
 42
-0.096428
  0
VERTEX
  8
0
 10
1079.546934
 20
155.031418
 42
-0.015620
  0
VERTEX
  8
0
 10
1077.740500
 20
150.996981
 42
-0.018307
  0
VERTEX
  8
0
 10
1075.557118
 20
146.892032
 42
-0.037580
  0
VERTEX
  8
0
 10
1073.500000
 20
143.888810
 42
-0.047092
  0
VERTEX
  8
0
 10
1071.564221
 20
141.891702
 42
-0.090115
  0
VERTEX
  8
0
 10
1069.640716
 20
140.772084
 42
-0.110534
  0
VERTEX
  8
0
 10
1067.723493
 20
140.526863
 42
-0.099940
  0
VERTEX
  8
0
 10
1065.806881
 20
141.103354
 42
0.020856
  0
VERTEX
  8
0
 10
1065.053099
 20
141.467185
 42
0.069045
  0
VERTEX
  8
0
 10
1064.523256
 20
141.613888
 42
0.283576
  0
VERTEX
  8
0
 10
1064.318204
 20
141.522219
 42
0.296053
  0
VERTEX
  8
0
 10
1064.313340
 20
141.302022
 42
-0.111609
  0
VERTEX
  8
0
 10
1064.465260
 20
140.860333
 42
-0.057837
  0
VERTEX
  8
0
 10
1064.461410
 20
140.273866
 42
-0.053237
  0
VERTEX
  8
0
 10
1064.314543
 20
139.642301
 42
-0.054734
  0
VERTEX
  8
0
 10
1064.038475
 20
139.062254
 42
-0.196874
  0
VERTEX
  8
0
 10
1063.140335
 20
138.409543
 42
-0.031455
  0
VERTEX
  8
0
 10
1060.958607
 20
138.019790
 42
-0.022262
  0
VERTEX
  8
0
 10
1057.589771
 20
137.785702
 42
-0.006215
  0
VERTEX
  8
0
 10
1052.304006
 20
137.720000
 42
-0.005979
  0
VERTEX
  8
0
 10
1045.926498
 20
137.796270
 42
-0.034621
  0
VERTEX
  8
0
 10
1042.574838
 20
138.109322
 42
-0.059709
  0
VERTEX
  8
0
 10
1040.170546
 20
138.804909
 42
-0.043579
  0
VERTEX
  8
0
 10
1037.711926
 20
140.110000
 42
-0.029653
  0
VERTEX
  8
0
 10
1036.299715
 20
141.149198
 42
-0.035190
  0
VERTEX
  8
0
 10
1035.104227
 20
142.294664
 42
-0.037830
  0
VERTEX
  8
0
 10
1034.259517
 20
143.381288
 42
-0.145475
  0
VERTEX
  8
0
 10
1034.012379
 20
144.190983
 42
0.053087
  0
VERTEX
  8
0
 10
1033.933495
 20
144.883653
 42
0.048472
  0
VERTEX
  8
0
 10
1033.709886
 20
145.566787
 42
0.051675
  0
VERTEX
  8
0
 10
1033.384075
 20
146.140526
 42
0.099704
  0
VERTEX
  8
0
 10
1033.000000
 20
146.500000
 42
-0.306607
  0
VERTEX
  8
0
 10
1031.901302
 20
148.945768
 42
-0.082794
  0
VERTEX
  8
0
 10
1033.385728
 20
153.168812
 42
-0.057545
  0
VERTEX
  8
0
 10
1037.003281
 20
158.255507
 42
-0.038092
  0
VERTEX
  8
0
 10
1042.197060
 20
163.206759
 42
0.000000
  0
VERTEX
  8
0
 10
1046.731054
 20
166.913518
 42
0.000000
  0
VERTEX
  8
0
 10
1059.115527
 20
165.940126
 42
-0.006852
  0
VERTEX
  8
0
 10
1064.068669
 20
165.482443
 42
-0.008249
  0
VERTEX
  8
0
 10
1068.709263
 20
164.911850
 42
-0.007194
  0
VERTEX
  8
0
 10
1072.592201
 20
164.312173
 42
-0.053766
  0
VERTEX
  8
0
 10
1074.384091
 20
163.806504
 42
0.024905
  0
VERTEX
  8
0
 10
1076.018052
 20
163.241943
 42
0.115390
  0
VERTEX
  8
0
 10
1077.008992
 20
163.189262
 42
0.144432
  0
VERTEX
  8
0
 10
1077.801652
 20
163.585477
 42
0.047157
  0
VERTEX
  8
0
 10
1078.678683
 20
164.573137
 42
0.063806
  0
VERTEX
  8
0
 10
1079.177193
 20
165.476070
 42
0.044273
  0
VERTEX
  8
0
 10
1079.509279
 20
166.594922
 42
0.044470
  0
VERTEX
  8
0
 10
1079.637901
 20
167.747277
 42
0.067033
  0
VERTEX
  8
0
 10
1079.525540
 20
168.750000
 42
-0.025847
  0
VERTEX
  8
0
 10
1079.356245
 20
169.612709
 42
-0.045257
  0
VERTEX
  8
0
 10
1079.318703
 20
170.339063
 42
-0.062729
  0
VERTEX
  8
0
 10
1079.402125
 20
170.842830
 42
-0.331776
  0
VERTEX
  8
0
 10
1079.612914
 20
171.000000
 42
-0.114817
  0
VERTEX
  8
0
 10
1080.023224
 20
170.904520
 42
-0.007289
  0
VERTEX
  8
0
 10
1081.131343
 20
170.339063
 42
-0.010396
  0
VERTEX
  8
0
 10
1082.439917
 20
169.611884
 42
-0.007528
  0
SEQEND
  0
POLYLINE
  8
0
 66
1
 70
1
  0
VERTEX
  8
0
 10
808.000000
 20
167.345732
 42
0.049668
  0
VERTEX
  8
0
 10
801.908488
 20
164.633989
 42
0.043107
  0
VERTEX
  8
0
 10
796.153814
 20
160.661039
 42
0.037713
  0
VERTEX
  8
0
 10
790.512382
 20
155.236556
 42
0.023814
  0
VERTEX
  8
0
 10
784.752687
 20
148.143002
 42
-0.003825
  0
VERTEX
  8
0
 10
783.056803
 20
145.874851
 42
-0.004335
  0
VERTEX
  8
0
 10
781.394893
 20
143.726169
 42
-0.003958
  0
VERTEX
  8
0
 10
779.952869
 20
141.924336
 42
-0.023822
  0
VERTEX
  8
0
 10
779.152807
 20
141.031191
 42
0.074110
  0
VERTEX
  8
0
 10
776.748648
 20
137.734965
 42
0.040044
  0
VERTEX
  8
0
 10
774.778281
 20
133.102657
 42
0.038071
  0
VERTEX
  8
0
 10
773.458044
 20
127.844969
 42
0.042148
  0
VERTEX
  8
0
 10
773.009769
 20
122.625046
 42
0.046965
  0
VERTEX
  8
0
 10
773.659278
 20
115.618751
 42
0.065136
  0
VERTEX
  8
0
 10
775.619324
 20
109.631800
 42
0.067231
  0
VERTEX
  8
0
 10
778.993288
 20
104.490310
 42
0.054315
  0
VERTEX
  8
0
 10
783.841660
 20
99.998187
 42
0.018091
  0
VERTEX
  8
0
 10
791.004789
 20
95.070485
 42
0.060455
  0
VERTEX
  8
0
 10
796.142539
 20
92.616262
 42
0.059945
  0
VERTEX
  8
0
 10
801.741127
 20
91.451456
 42
0.017578
  0
VERTEX
  8
0
 10
810.529116
 20
91.009673
 42
0.008474
  0
VERTEX
  8
0
 10
815.478911
 20
91.018931
 42
0.008338
  0
VERTEX
  8
0
 10
820.452303
 20
91.195528
 42
0.008247
  0
VERTEX
  8
0
 10
824.803921
 20
91.494789
 42
0.031267
  0
VERTEX
  8
0
 10
827.500000
 20
91.895832
 42
0.023361
  0
VERTEX
  8
0
 10
832.109756
 20
93.106804
 42
0.008840
  0
VERTEX
  8
0
 10
838.429526
 20
95.210132
 42
0.008965
  0
VERTEX
  8
0
 10
844.804385
 20
97.587076
 42
0.018294
  0
VERTEX
  8
0
 10
849.698954
 20
99.722606
 42
-0.033469
  0
VERTEX
  8
0
 10
851.070989
 20
100.272331
 42
-0.030490
  0
VERTEX
  8
0
 10
852.547251
 20
100.654326
 42
-0.031834
  0
VERTEX
  8
0
 10
853.910378
 20
100.830593
 42
-0.080354
  0
VERTEX
  8
0
 10
854.903136
 20
100.735581
 42
0.237125
  0
VERTEX
  8
0
 10
857.163043
 20
101.216959
 42
0.126623
  0
VERTEX
  8
0
 10
858.918790
 20
103.558592
 42
0.059712
  0
VERTEX
  8
0
 10
860.218526
 20
108.215305
 42
0.015957
  0
VERTEX
  8
0
 10
861.148817
 20
115.866760
 42
0.008684
  0
VERTEX
  8
0
 10
861.464955
 20
120.267770
 42
0.008560
  0
VERTEX
  8
0
 10
861.629946
 20
124.698361
 42
0.008465
  0
VERTEX
  8
0
 10
861.642270
 20
128.582760
 42
0.032187
  0
VERTEX
  8
0
 10
861.453077
 20
131.000000
 42
0.063679
  0
VERTEX
  8
0
 10
860.242199
 20
135.381238
 42
0.034406
  0
VERTEX
  8
0
 10
857.725528
 20
140.389877
 42
0.034142
  0
VERTEX
  8
0
 10
854.669565
 20
144.831356
 42
0.094875
  0
VERTEX
  8
0
 10
851.810559
 20
147.292203
 42
-0.056765
  0
VERTEX
  8
0
 10
850.544923
 20
148.224563
 42
-0.066838
  0
VERTEX
  8
0
 10
849.599195
 20
149.372786
 42
-0.060574
  0
VERTEX
  8
0
 10
848.925680
 20
150.824024
 42
-0.036515
  0
VERTEX
  8
0
 10
848.473240
 20
152.668734
 42
0.030725
  0
VERTEX
  8
0
 10
847.344546
 20
157.512187
 42
0.154296
  0
VERTEX
  8
0
 10
845.800280
 20
159.786189
 42
0.112268
  0
VERTEX
  8
0
 10
842.972476
 20
161.132902
 42
0.012837
  0
VERTEX
  8
0
 10
836.000000
 20
162.511386
 42
-0.021991
  0
VERTEX
  8
0
 10
834.441854
 20
162.849181
 42
-0.013682
  0
VERTEX
  8
0
 10
832.646875
 20
163.374729
 42
-0.013722
  0
VERTEX
  8
0
 10
830.901365
 20
163.991455
 42
-0.024067
  0
VERTEX
  8
0
 10
829.500000
 20
164.609211
 42
0.064998
  0
VERTEX
  8
0
 10
825.249099
 20
166.081936
 42
0.019277
  0
VERTEX
  8
0
 10
818.448052
 20
167.215437
 42
0.017767
  0
VERTEX
  8
0
 10
811.676037
 20
167.833870
 42
0.094054
  0
SEQEND
  0
POLYLINE
  8
0
 66
1
 70
1
  0
VERTEX
  8
0
 10
820.896853
 20
153.000000
 42
-0.193034
  0
VERTEX
  8
0
 10
823.657593
 20
151.892913
 42
-0.060074
  0
VERTEX
  8
0
 10
826.548825
 20
148.375783
 42
-0.057106
  0
VERTEX
  8
0
 10
828.756927
 20
143.850349
 42
-0.085169
  0
VERTEX
  8
0
 10
829.500000
 20
139.519671
 42
0.021769
  0
VERTEX
  8
0
 10
829.585128
 20
137.565297
 42
0.074528
  0
VERTEX
  8
0
 10
829.881459
 20
136.332195
 42
0.123643
  0
VERTEX
  8
0
 10
830.424040
 20
135.589057
 42
0.125797
  0
VERTEX
  8
0
 10
831.250000
 20
135.196347
 42
0.073900
  0
VERTEX
  8
0
 10
831.958281
 20
135.163734
 42
0.122690
  0
VERTEX
  8
0
 10
832.517715
 20
135.365209
 42
0.138920
  0
VERTEX
  8
0
 10
832.872540
 20
135.782320
 42
0.107616
  0
VERTEX
  8
0
 10
833.000000
 20
136.367659
 42
-0.151346
  0
VERTEX
  8
0
 10
833.458940
 20
137.849124
 42
-0.270107
  0
VERTEX
  8
0
 10
834.576167
 20
138.378301
 42
-0.105923
  0
VERTEX
  8
0
 10
836.582969
 20
137.765579
 42
-0.020733
  0
VERTEX
  8
0
 10
839.822607
 20
135.784452
 42
-0.017323
  0
VERTEX
  8
0
 10
842.619295
 20
133.766875
 42
-0.075709
  0
VERTEX
  8
0
 10
844.020532
 20
132.292792
 42
-0.090585
  0
VERTEX
  8
0
 10
844.792555
 20
130.601689
 42
-0.030924
  0
VERTEX
  8
0
 10
845.292711
 20
127.940216
 42
-0.031982
  0
VERTEX
  8
0
 10
845.542845
 20
123.775477
 42
-0.025301
  0
VERTEX
  8
0
 10
845.296812
 20
119.269350
 42
-0.023552
  0
VERTEX
  8
0
 10
844.685541
 20
115.285028
 42
-0.117850
  0
VERTEX
  8
0
 10
843.742503
 20
113.250000
 42
-0.076874
  0
VERTEX
  8
0
 10
843.227343
 20
112.771242
 42
-0.046016
  0
VERTEX
  8
0
 10
842.493625
 20
112.367188
 42
-0.044850
  0
VERTEX
  8
0
 10
841.668904
 20
112.092263
 42
-0.058098
  0
VERTEX
  8
0
 10
840.877555
 20
112.000000
 42
0.047201
  0
VERTEX
  8
0
 10
840.158960
 20
111.932012
 42
0.067182
  0
VERTEX
  8
0
 10
839.551532
 20
111.728810
 42
0.087331
  0
VERTEX
  8
0
 10
839.141934
 20
111.429406
 42
0.193711
  0
VERTEX
  8
0
 10
839.000000
 20
111.076798
 42
-0.342309
  0
VERTEX
  8
0
 10
838.724711
 20
110.721811
 42
-0.025480
  0
VERTEX
  8
0
 10
837.443320
 20
110.461234
 42
-0.026899
  0
VERTEX
  8
0
 10
835.732205
 20
110.296659
 42
-0.016379
  0
VERTEX
  8
0
 10
833.700663
 20
110.277671
 42
0.018932
  0
VERTEX
  8
0
 10
830.618834
 20
110.233131
 42
0.075244
  0
VERTEX
  8
0
 10
828.770649
 20
109.853642
 42
0.085410
  0
VERTEX
  8
0
 10
827.238224
 20
108.969859
 42
0.028642
  0
VERTEX
  8
0
 10
825.342400
 20
107.200873
 42
-0.017224
  0
VERTEX
  8
0
 10
824.087534
 20
105.975209
 42
-0.022016
  0
VERTEX
  8
0
 10
822.846648
 20
104.940256
 42
-0.020646
  0
VERTEX
  8
0
 10
821.759076
 20
104.180382
 42
-0.143105
  0
VERTEX
  8
0
 10
821.141737
 20
104.000000
 42
0.077467
  0
VERTEX
  8
0
 10
820.705566
 20
103.932014
 42
0.090062
  0
VERTEX
  8
0
 10
820.335385
 20
103.735092
 42
0.100777
  0
VERTEX
  8
0
 10
820.087914
 20
103.442113
 42
0.125787
  0
VERTEX
  8
0
 10
820.000000
 20
103.098187
 42
-0.375446
  0
VERTEX
  8
0
 10
819.056644
 20
102.018961
 42
-0.016617
  0
VERTEX
  8
0
 10
813.707351
 20
101.477264
 42
-0.024857
  0
VERTEX
  8
0
 10
808.155164
 20
101.377388
 42
-0.069183
  0
VERTEX
  8
0
 10
804.320047
 20
102.035173
 42
-0.021880
  0
VERTEX
  8
0
 10
796.840534
 20
104.780351
 42
-0.051494
  0
VERTEX
  8
0
 10
791.623920
 20
107.619448
 42
-0.062828
  0
VERTEX
  8
0
 10
787.743675
 20
111.069646
 42
-0.050010
  0
VERTEX
  8
0
 10
784.491774
 20
115.638533
 42
-0.071986
  0
VERTEX
  8
0
 10
783.245140
 20
118.806454
 42
-0.193299
  0
VERTEX
  8
0
 10
783.602222
 20
121.157903
 42
-0.341624
  0
VERTEX
  8
0
 10
785.173605
 20
121.785200
 42
-0.127389
  0
VERTEX
  8
0
 10
787.357143
 20
120.500000
 42
0.027740
  0
VERTEX
  8
0
 10
787.998729
 20
119.925911
 42
0.029742
  0
VERTEX
  8
0
 10
788.685722
 20
119.440625
 42
0.031121
  0
VERTEX
  8
0
 10
789.320921
 20
119.099109
 42
0.108192
  0
VERTEX
  8
0
 10
789.773584
 20
119.000000
 42
-0.130987
  0
VERTEX
  8
0
 10
790.241357
 20
118.875316
 42
-0.027986
  0
VERTEX
  8
0
 10
790.952501
 20
118.412500
 42
-0.027454
  0
VERTEX
  8
0
 10
791.739816
 20
117.765617
 42
-0.023141
  0
VERTEX
  8
0
 10
792.500000
 20
117.000000
 42
0.021385
  0
VERTEX
  8
0
 10
793.254929
 20
116.234318
 42
0.026030
  0
VERTEX
  8
0
 10
794.026517
 20
115.587500
 42
0.026046
  0
VERTEX
  8
0
 10
794.717217
 20
115.121498
 42
0.136196
  0
VERTEX
  8
0
 10
795.154988
 20
115.000000
 42
0.341154
  0
VERTEX
  8
0
 10
795.879966
 20
115.559813
 42
0.151269
  0
VERTEX
  8
0
 10
795.822733
 20
116.843535
 42
0.068783
  0
VERTEX
  8
0
 10
794.798529
 20
118.800488
 42
0.032973
  0
VERTEX
  8
0
 10
793.000000
 20
121.000000
 42
-0.030853
  0
VERTEX
  8
0
 10
791.497101
 20
122.822167
 42
-0.062881
  0
VERTEX
  8
0
 10
790.605350
 20
124.445273
 42
-0.063074
  0
VERTEX
  8
0
 10
790.146599
 20
126.235814
 42
-0.031218
  0
VERTEX
  8
0
 10
790.000000
 20
128.581504
 42
-0.030387
  0
VERTEX
  8
0
 10
790.149830
 20
131.044558
 42
-0.079053
  0
VERTEX
  8
0
 10
790.638074
 20
132.747032
 42
-0.074351
  0
VERTEX
  8
0
 10
791.650474
 20
134.273914
 42
-0.024648
  0
VERTEX
  8
0
 10
793.551619
 20
136.183400
 42
0.033312
  0
VERTEX
  8
0
 10
795.750258
 20
138.469516
 42
0.036643
  0
VERTEX
  8
0
 10
797.550399
 20
140.959091
 42
0.034633
  0
VERTEX
  8
0
 10
799.046175
 20
143.807463
 42
0.024689
  0
VERTEX
  8
0
 10
800.332553
 20
147.174428
 42
-0.109941
  0
VERTEX
  8
0
 10
800.781782
 20
147.933155
 42
-0.032954
  0
VERTEX
  8
0
 10
801.769247
 20
148.855537
 42
-0.031284
  0
VERTEX
  8
0
 10
803.046688
 20
149.773121
 42
-0.029330
  0
VERTEX
  8
0
 10
804.455750
 20
150.546026
 42
0.014689
  0
VERTEX
  8
0
 10
805.870178
 20
151.268858
 42
0.017314
  0
VERTEX
  8
0
 10
807.162534
 20
152.037302
 42
0.016366
  0
VERTEX
  8
0
 10
808.200517
 20
152.753229
 42
0.095461
  0
VERTEX
  8
0
 10
808.647988
 20
153.239449
 42
-0.202904
  0
VERTEX
  8
0
 10
809.162931
 20
153.604627
 42
-0.035703
  0
VERTEX
  8
0
 10
810.362661
 20
153.779940
 42
-0.032312
  0
VERTEX
  8
0
 10
811.936192
 20
153.794295
 42
-0.020187
  0
VERTEX
  8
0
 10
813.771424
 20
153.617851
 42
0.006740
  0
VERTEX
  8
0
 10
815.689143
 20
153.381289
 42
0.005690
  0
VERTEX
  8
0
 10
817.723953
 20
153.181494
 42
0.005745
  0
VERTEX
  8
0
 10
819.584231
 20
153.041701
 42
0.015880
  0
SEQEND
  0
POLYLINE
  8
0
 66
1
 70
1
  0
VERTEX
  8
0
 10
383.000000
 20
132.000000
 42
-0.043661
  0
VERTEX
  8
0
 10
381.599194
 20
131.682824
 42
-0.009920
  0
VERTEX
  8
0
 10
379.178125
 20
131.401781
 42
-0.010196
  0
VERTEX
  8
0
 10
376.363276
 20
131.189323
 42
-0.009752
  0
VERTEX
  8
0
 10
373.500000
 20
131.087811
 42
0.056836
  0
VERTEX
  8
0
 10
362.281325
 20
129.626997
 42
0.052526
  0
VERTEX
  8
0
 10
351.359861
 20
125.665205
 42
0.049057
  0
VERTEX
  8
0
 10
340.853583
 20
119.209553
 42
0.038703
  0
VERTEX
  8
0
 10
330.870340
 20
110.340184
 42
0.019782
  0
VERTEX
  8
0
 10
325.743578
 20
104.582386
 42
0.026911
  0
VERTEX
  8
0
 10
321.623568
 20
98.980320
 42
0.026099
  0
VERTEX
  8
0
 10
318.037577
 20
92.833615
 42
0.017045
  0
VERTEX
  8
0
 10
314.526169
 20
85.410601
 42
0.012131
  0
VERTEX
  8
0
 10
311.380011
 20
77.613040
 42
0.034805
  0
VERTEX
  8
0
 10
309.713024
 20
72.019913
 42
0.034030
  0
VERTEX
  8
0
 10
308.818303
 20
66.180725
 42
0.011186
  0
VERTEX
  8
0
 10
308.282547
 20
57.500000
 42
0.034810
  0
VERTEX
  8
0
 10
308.605214
 20
46.862907
 42
0.055399
  0
VERTEX
  8
0
 10
310.506423
 20
37.969265
 42
0.062711
  0
VERTEX
  8
0
 10
314.069185
 20
30.528242
 42
0.063656
  0
VERTEX
  8
0
 10
319.350539
 20
24.244533
 42
0.084985
  0
VERTEX
  8
0
 10
331.474729
 20
16.384923
 42
0.098736
  0
VERTEX
  8
0
 10
344.900788
 20
13.540731
 42
0.106151
  0
VERTEX
  8
0
 10
357.632122
 20
16.116035
 42
0.113257
  0
VERTEX
  8
0
 10
367.844255
 20
23.666373
 42
0.014544
  0
VERTEX
  8
0
 10
369.431117
 20
25.630685
 42
0.018515
  0
VERTEX
  8
0
 10
370.772027
 20
27.535434
 42
0.016697
  0
VERTEX
  8
0
 10
371.765411
 20
29.181518
 42
0.127032
  0
VERTEX
  8
0
 10
371.993544
 20
30.050000
 42
-0.046376
  0
VERTEX
  8
0
 10
372.057969
 20
30.713112
 42
-0.034612
  0
VERTEX
  8
0
 10
372.246051
 20
31.423750
 42
-0.035374
  0
VERTEX
  8
0
 10
372.520003
 20
32.074158
 42
-0.064353
  0
VERTEX
  8
0
 10
372.844076
 20
32.550000
 42
0.086313
  0
VERTEX
  8
0
 10
373.888771
 20
34.237890
 42
0.006807
  0
VERTEX
  8
0
 10
375.795722
 20
39.177683
 42
0.010102
  0
VERTEX
  8
0
 10
377.660356
 20
44.540955
 42
0.015389
  0
VERTEX
  8
0
 10
379.039899
 20
49.273962
 42
0.035629
  0
VERTEX
  8
0
 10
379.524746
 20
51.914238
 42
0.008394
  0
VERTEX
  8
0
 10
379.944307
 20
56.383847
 42
0.008603
  0
VERTEX
  8
0
 10
380.252685
 20
61.551694
 42
0.008373
  0
VERTEX
  8
0
 10
380.386670
 20
66.773962
 42
0.000000
  0
VERTEX
  8
0
 10
380.500000
 20
79.500000
 42
0.000000
  0
VERTEX
  8
0
 10
376.624511
 20
87.000000
 42
0.012036
  0
VERTEX
  8
0
 10
372.670821
 20
94.219768
 42
0.029430
  0
VERTEX
  8
0
 10
369.331415
 20
99.273371
 42
0.037459
  0
VERTEX
  8
0
 10
365.975016
 20
103.118376
 42
0.036275
  0
VERTEX
  8
0
 10
362.048300
 20
106.464544
 42
0.045749
  0
VERTEX
  8
0
 10
357.776455
 20
109.035632
 42
0.105972
  0
VERTEX
  8
0
 10
354.159128
 20
109.917792
 42
0.147792
  0
VERTEX
  8
0
 10
351.260259
 20
109.129803
 42
0.126289
  0
VERTEX
  8
0
 10
349.070138
 20
106.828626
 42
0.120555
  0
VERTEX
  8
0
 10
348.356765
 20
104.245768
 42
0.122038
  0
VERTEX
  8
0
 10
348.921696
 20
101.638149
 42
0.066346
  0
VERTEX
  8
0
 10
351.061042
 20
98.434117
 42
0.014891
  0
VERTEX
  8
0
 10
355.549549
 20
93.625659
 42
-0.025521
  0
VERTEX
  8
0
 10
357.941736
 20
90.951207
 42
-0.021351
  0
VERTEX
  8
0
 10
360.204121
 20
87.887195
 42
-0.020705
  0
VERTEX
  8
0
 10
362.267649
 20
84.535936
 42
-0.020232
  0
VERTEX
  8
0
 10
364.064023
 20
81.000000
 42
-0.016775
  0
VERTEX
  8
0
 10
366.104156
 20
76.120958
 42
-0.047869
  0
VERTEX
  8
0
 10
367.073479
 20
72.574927
 42
-0.032505
  0
VERTEX
  8
0
 10
367.536763
 20
68.228276
 42
-0.004620
  0
VERTEX
  8
0
 10
367.823774
 20
59.250000
 42
-0.005249
  0
VERTEX
  8
0
 10
367.895883
 20
53.348791
 42
-0.011679
  0
VERTEX
  8
0
 10
367.798669
 20
48.856464
 42
-0.006396
  0
VERTEX
  8
0
 10
367.597988
 20
45.387449
 42
-0.393690
  0
VERTEX
  8
0
 10
367.182182
 20
45.000000
 42
0.210025
  0
VERTEX
  8
0
 10
366.763975
 20
44.816226
 42
0.050120
  0
VERTEX
  8
0
 10
366.298045
 20
44.193786
 42
0.043063
  0
VERTEX
  8
0
 10
365.862401
 20
43.306359
 42
0.031103
  0
VERTEX
  8
0
 10
365.527975
 20
42.255441
 42
-0.119230
  0
VERTEX
  8
0
 10
364.112613
 20
39.558180
 42
-0.014304
  0
VERTEX
  8
0
 10
359.498131
 20
34.596817
 42
-0.011563
  0
VERTEX
  8
0
 10
354.574011
 20
29.823248
 42
-0.188887
  0
VERTEX
  8
0
 10
352.472553
 20
29.000000
 42
0.081397
  0
VERTEX
  8
0
 10
351.980196
 20
28.919312
 42
0.037628
  0
VERTEX
  8
0
 10
351.380951
 20
28.665889
 42
0.035983
  0
VERTEX
  8
0
 10
350.776970
 20
28.297866
 42
0.041577
  0
VERTEX
  8
0
 10
350.262600
 20
27.862600
 42
-0.175784
  0
VERTEX
  8
0
 10
347.859669
 20
26.739010
 42
-0.039150
  0
VERTEX
  8
0
 10
343.253371
 20
26.687808
 42
-0.040689
  0
VERTEX
  8
0
 10
338.324083
 20
27.425123
 42
-0.071831
  0
VERTEX
  8
0
 10
334.500000
 20
28.922560
 42
-0.052490
  0
VERTEX
  8
0
 10
328.018812
 20
33.564500
 42
-0.097675
  0
VERTEX
  8
0
 10
324.124199
 20
38.691312
 42
-0.083444
  0
VERTEX
  8
0
 10
322.111925
 20
45.473753
 42
-0.030488
  0
VERTEX
  8
0
 10
321.500000
 20
55.500000
 42
-0.009026
  0
VERTEX
  8
0
 10
321.588499
 20
60.402062
 42
-0.014789
  0
VERTEX
  8
0
 10
321.861032
 20
64.545523
 42
-0.016966
  0
VERTEX
  8
0
 10
322.290273
 20
67.849718
 42
-0.053499
  0
VERTEX
  8
0
 10
322.885403
 20
70.000000
 42
-0.015951
  0
VERTEX
  8
0
 10
326.180468
 20
77.606137
 42
-0.010126
  0
VERTEX
  8
0
 10
330.475815
 20
86.254966
 42
-0.009497
  0
VERTEX
  8
0
 10
334.795560
 20
94.158459
 42
-0.037443
  0
VERTEX
  8
0
 10
337.897936
 20
98.751664
 42
-0.037308
  0
VERTEX
  8
0
 10
342.783855
 20
104.065434
 42
-0.020112
  0
VERTEX
  8
0
 10
349.518240
 20
109.883405
 42
-0.020007
  0
VERTEX
  8
0
 10
356.834182
 20
115.243299
 42
-0.031585
  0
VERTEX
  8
0
 10
363.547812
 20
119.169130
 42
-0.014769
  0
VERTEX
  8
0
 10
368.646365
 20
121.547347
 42
-0.031854
  0
VERTEX
  8
0
 10
372.723155
 20
123.004277
 42
-0.031403
  0
VERTEX
  8
0
 10
376.988077
 20
123.943477
 42
-0.013965
  0
VERTEX
  8
0
 10
382.702058
 20
124.667510
 42
0.029718
  0
VERTEX
  8
0
 10
386.642864
 20
125.293493
 42
0.129711
  0
VERTEX
  8
0
 10
388.724797
 20
126.363985
 42
0.209349
  0
VERTEX
  8
0
 10
389.467215
 20
128.003734
 42
0.094211
  0
VERTEX
  8
0
 10
389.046246
 20
130.378363
 42
0.059027
  0
VERTEX
  8
0
 10
388.197415
 20
132.003898
 42
0.179285
  0
VERTEX
  8
0
 10
387.196517
 20
132.713682
 42
0.122124
  0
VERTEX
  8
0
 10
385.712302
 20
132.741877
 42
0.021475
  0
SEQEND
  0
POLYLINE
  8
0
 66
1
 70
1
  0
VERTEX
  8
0
 10
563.500000
 20
110.134660
 42
0.053511
  0
VERTEX
  8
0
 10
559.656870
 20
107.143351
 42
0.013503
  0
VERTEX
  8
0
 10
554.101619
 20
101.476701
 42
0.014420
  0
VERTEX
  8
0
 10
548.543850
 20
95.135207
 42
0.024696
  0
VERTEX
  8
0
 10
544.335824
 20
89.500000
 42
0.010775
  0
VERTEX
  8
0
 10
542.454474
 20
86.567917
 42
0.004763
  0
VERTEX
  8
0
 10
540.090440
 20
82.618750
 42
0.004712
  0
VERTEX
  8
0
 10
537.663654
 20
78.384712
 42
0.006324
  0
VERTEX
  8
0
 10
535.549594
 20
74.500000
 42
0.007004
  0
VERTEX
  8
0
 10
532.682167
 20
68.879097
 42
0.046533
  0
VERTEX
  8
0
 10
531.560818
 20
65.942083
 42
0.068456
  0
VERTEX
  8
0
 10
531.206483
 20
63.333748
 42
0.024971
  0
VERTEX
  8
0
 10
531.399189
 20
59.603150
 42
0.017426
  0
VERTEX
  8
0
 10
531.739298
 20
57.124979
 42
0.015120
  0
VERTEX
  8
0
 10
532.264155
 20
54.555256
 42
0.015376
  0
VERTEX
  8
0
 10
532.881648
 20
52.256847
 42
0.042407
  0
VERTEX
  8
0
 10
533.500017
 20
50.699512
 42
-0.013511
  0
VERTEX
  8
0
 10
534.074236
 20
49.466123
 42
-0.015046
  0
VERTEX
  8
0
 10
534.559380
 20
48.246560
 42
-0.014486
  0
VERTEX
  8
0
 10
534.909863
 20
47.187350
 42
-0.072774
  0
VERTEX
  8
0
 10
535.000000
 20
46.571334
 42
0.175042
  0
VERTEX
  8
0
 10
535.251234
 20
45.875683
 42
0.006196
  0
VERTEX
  8
0
 10
537.129688
 20
43.670410
 42
0.010809
  0
VERTEX
  8
0
 10
539.471907
 20
41.102916
 42
0.007282
  0
VERTEX
  8
0
 10
542.250000
 20
38.270565
 42
0.030109
  0
VERTEX
  8
0
 10
548.561909
 20
32.731206
 42
0.046847
  0
VERTEX
  8
0
 10
554.666410
 20
28.848683
 42
0.047099
  0
VERTEX
  8
0
 10
561.362428
 20
26.184114
 42
0.030844
  0
VERTEX
  8
0
 10
569.469101
 20
24.346378
 42
0.016523
  0
VERTEX
  8
0
 10
577.317068
 20
23.334594
 42
0.034969
  0
VERTEX
  8
0
 10
583.444526
 20
23.179754
 42
0.037676
  0
VERTEX
  8
0
 10
589.239526
 20
23.878284
 42
0.022535
  0
VERTEX
  8
0
 10
595.982585
 20
25.530851
 42
0.023362
  0
VERTEX
  8
0
 10
605.722709
 20
28.890129
 42
0.029547
  0
VERTEX
  8
0
 10
614.348001
 20
32.928720
 42
0.031988
  0
VERTEX
  8
0
 10
621.823822
 20
37.625464
 42
0.039180
  0
VERTEX
  8
0
 10
628.115478
 20
42.959509
 42
0.031808
  0
VERTEX
  8
0
 10
634.189149
 20
49.805810
 42
0.055264
  0
VERTEX
  8
0
 10
638.166493
 20
56.268942
 42
0.055744
  0
VERTEX
  8
0
 10
640.610299
 20
63.406643
 42
0.032975
  0
VERTEX
  8
0
 10
641.980115
 20
72.315094
 42
0.006266
  0
VERTEX
  8
0
 10
642.466824
 20
78.870181
 42
0.046922
  0
VERTEX
  8
0
 10
642.366613
 20
81.981861
 42
0.063439
  0
VERTEX
  8
0
 10
641.679974
 20
84.641227
 42
0.016477
  0
VERTEX
  8
0
 10
639.905345
 20
88.698332
 42
0.040552
  0
VERTEX
  8
0
 10
636.888742
 20
93.890234
 42
0.039026
  0
VERTEX
  8
0
 10
633.038649
 20
98.598871
 42
0.039146
  0
VERTEX
  8
0
 10
628.516402
 20
102.638667
 42
0.041399
  0
VERTEX
  8
0
 10
623.500000
 20
105.840643
 42
0.029291
  0
VERTEX
  8
0
 10
620.278395
 20
107.305645
 42
0.052445
  0
VERTEX
  8
0
 10
617.474042
 20
108.061978
 42
0.033588
  0
VERTEX
  8
0
 10
613.827659
 20
108.396513
 42
0.006030
  0
VERTEX
  8
0
 10
607.000000
 20
108.480351
 42
0.012658
  0
VERTEX
  8
0
 10
599.275034
 20
108.286442
 42
0.035358
  0
VERTEX
  8
0
 10
593.898061
 20
107.632097
 42
0.038774
  0
VERTEX
  8
0
 10
588.949341
 20
106.266256
 42
0.017926
  0
VERTEX
  8
0
 10
582.752908
 20
103.772243
 42
-0.016568
  0
VERTEX
  8
0
 10
579.355496
 20
102.394082
 42
-0.158083
  0
VERTEX
  8
0
 10
577.811321
 20
102.334351
 42
-0.255901
  0
VERTEX
  8
0
 10
576.924424
 20
103.204661
 42
-0.046146
  0
VERTEX
  8
0
 10
576.444898
 20
105.551419
 42
0.131068
  0
VERTEX
  8
0
 10
575.006504
 20
109.260108
 42
0.151104
  0
VERTEX
  8
0
 10
571.974347
 20
111.518739
 42
0.132740
  0
VERTEX
  8
0
 10
567.865454
 20
111.833057
 42
0.091981
  0
SEQEND
  0
POLYLINE
  8
0
 66
1
 70
1
  0
VERTEX
  8
0
 10
597.500000
 20
101.000000
 42
-0.082592
  0
VERTEX
  8
0
 10
597.656512
 20
100.617900
 42
-0.161196
  0
VERTEX
  8
0
 10
597.625400
 20
100.293750
 42
-0.182303
  0
VERTEX
  8
0
 10
597.413961
 20
100.078288
 42
-0.108972
  0
VERTEX
  8
0
 10
597.059017
 20
100.000000
 42
-0.093332
  0
VERTEX
  8
0
 10
596.654762
 20
100.076123
 42
-0.096420
  0
VERTEX
  8
0
 10
596.311086
 20
100.293750
 42
-0.099167
  0
VERTEX
  8
0
 10
596.081062
 20
100.618444
 42
-0.105053
  0
VERTEX
  8
0
 10
596.000000
 20
101.000000
 42
-0.042167
  0
VERTEX
  8
0
 10
596.032345
 20
101.382849
 42
-0.061769
  0
VERTEX
  8
0
 10
596.129539
 20
101.706250
 42
-0.081139
  0
VERTEX
  8
0
 10
596.272352
 20
101.925540
 42
-0.210953
  0
VERTEX
  8
0
 10
596.440983
 20
102.000000
 42
-0.151918
  0
VERTEX
  8
0
 10
596.651710
 20
101.934461
 42
-0.038439
  0
VERTEX
  8
0
 10
596.933975
 20
101.706250
 42
-0.035638
  0
VERTEX
  8
0
 10
597.231006
 20
101.382774
 42
-0.029505
  0
SEQEND
  0
POLYLINE
  8
0
 66
1
 70
1
  0
VERTEX
  8
0
 10
594.000000
 20
100.122445
 42
-0.175006
  0
VERTEX
  8
0
 10
593.621143
 20
99.073185
 42
-0.066904
  0
VERTEX
  8
0
 10
592.461765
 20
98.005643
 42
-0.068648
  0
VERTEX
  8
0
 10
591.106339
 20
97.311166
 42
-0.226243
  0
VERTEX
  8
0
 10
590.134047
 20
97.417154
 42
0.158974
  0
VERTEX
  8
0
 10
588.852900
 20
97.728317
 42
0.118326
  0
VERTEX
  8
0
 10
587.459034
 20
97.277822
 42
0.114516
  0
VERTEX
  8
0
 10
586.388193
 20
96.226508
 42
0.142595
  0
VERTEX
  8
0
 10
586.000000
 20
94.893011
 42
-0.050854
  0
VERTEX
  8
0
 10
585.926137
 20
94.168668
 42
-0.070807
  0
VERTEX
  8
0
 10
585.706250
 20
93.556072
 42
-0.090900
  0
VERTEX
  8
0
 10
585.381715
 20
93.144157
 42
-0.182536
  0
VERTEX
  8
0
 10
585.000000
 20
93.000000
 42
0.099038
  0
VERTEX
  8
0
 10
584.618362
 20
92.923658
 42
0.097945
  0
VERTEX
  8
0
 10
584.293750
 20
92.706250
 42
0.097945
  0
VERTEX
  8
0
 10
584.076342
 20
92.381638
 42
0.099038
  0
VERTEX
  8
0
 10
584.000000
 20
92.000000
 42
0.186414
  0
VERTEX
  8
0
 10
584.147465
 20
91.618213
 42
0.089706
  0
VERTEX
  8
0
 10
584.570164
 20
91.293750
 42
0.069539
  0
VERTEX
  8
0
 10
585.198222
 20
91.073784
 42
0.049547
  0
VERTEX
  8
0
 10
585.940983
 20
91.000000
 42
0.046881
  0
VERTEX
  8
0
 10
586.729296
 20
91.074077
 42
0.046318
  0
VERTEX
  8
0
 10
587.493350
 20
91.293750
 42
0.050262
  0
VERTEX
  8
0
 10
588.123976
 20
91.616444
 42
0.111412
  0
VERTEX
  8
0
 10
588.500000
 20
92.000000
 42
-0.106123
  0
VERTEX
  8
0
 10
588.868045
 20
92.383352
 42
-0.051260
  0
VERTEX
  8
0
 10
589.470682
 20
92.706250
 42
-0.047579
  0
VERTEX
  8
0
 10
590.195107
 20
92.925875
 42
-0.049861
  0
VERTEX
  8
0
 10
590.936572
 20
93.000000
 42
0.069389
  0
VERTEX
  8
0
 10
591.724036
 20
93.109811
 42
0.044584
  0
VERTEX
  8
0
 10
592.586601
 20
93.440625
 42
0.044117
  0
VERTEX
  8
0
 10
593.389706
 20
93.925867
 42
0.061675
  0
VERTEX
  8
0
 10
594.000000
 20
94.500000
 42
-0.090910
  0
VERTEX
  8
0
 10
594.687728
 20
95.075456
 42
-0.042905
  0
VERTEX
  8
0
 10
595.743797
 20
95.559375
 42
-0.040624
  0
VERTEX
  8
0
 10
596.970008
 20
95.889139
 42
-0.045409
  0
VERTEX
  8
0
 10
598.188186
 20
96.000000
 42
0.029291
  0
VERTEX
  8
0
 10
599.453876
 20
96.074211
 42
0.022370
  0
VERTEX
  8
0
 10
600.823424
 20
96.297848
 42
0.022824
  0
VERTEX
  8
0
 10
602.091154
 20
96.624574
 42
0.048418
  0
VERTEX
  8
0
 10
603.026069
 20
97.013952
 42
-0.077956
  0
VERTEX
  8
0
 10
604.130042
 20
97.399258
 42
-0.047875
  0
VERTEX
  8
0
 10
605.505585
 20
97.515805
 42
-0.038306
  0
VERTEX
  8
0
 10
607.182276
 20
97.368339
 42
-0.020748
  0
VERTEX
  8
0
 10
609.210327
 20
96.944993
 42
0.002633
  0
VERTEX
  8
0
 10
611.035923
 20
96.494341
 42
0.002215
  0
VERTEX
  8
0
 10
612.974284
 20
96.035746
 42
0.002234
  0
VERTEX
  8
0
 10
614.747584
 20
95.632833
 42
0.006185
  0
VERTEX
  8
0
 10
616.000000
 20
95.370366
 42
-0.000558
  0
VERTEX
  8
0
 10
617.123564
 20
95.148074
 42
-0.000349
  0
VERTEX
  8
0
 10
618.438576
 20
94.885427
 42
-0.000350
  0
VERTEX
  8
0
 10
619.733720
 20
94.624867
 42
-0.000638
  0
VERTEX
  8
0
 10
620.790898
 20
94.410007
 42
-0.037451
  0
VERTEX
  8
0
 10
621.632545
 20
94.171038
 42
-0.069060
  0
VERTEX
  8
0
 10
622.259366
 20
93.837167
 42
-0.112086
  0
VERTEX
  8
0
 10
622.582850
 20
93.468519
 42
-0.268853
  0
VERTEX
  8
0
 10
622.572931
 20
93.118005
 42
0.248366
  0
VERTEX
  8
0
 10
622.498161
 20
91.998564
 42
0.064394
  0
VERTEX
  8
0
 10
623.472086
 20
90.405755
 42
0.072302
  0
VERTEX
  8
0
 10
624.742332
 20
89.224679
 42
0.362222
  0
VERTEX
  8
0
 10
625.639279
 20
89.305945
 42
0.107622
  0
VERTEX
  8
0
 10
625.870402
 20
89.665753
 42
0.117631
  0
VERTEX
  8
0
 10
625.921014
 20
90.077264
 42
0.113898
  0
VERTEX
  8
0
 10
625.780058
 20
90.477486
 42
0.096225
  0
VERTEX
  8
0
 10
625.471040
 20
90.804373
 42
-0.068734
  0
VERTEX
  8
0
 10
625.076163
 20
91.178845
 42
-0.036345
  0
VERTEX
  8
0
 10
624.693155
 20
91.736285
 42
-0.035346
  0
VERTEX
  8
0
 10
624.377903
 20
92.374688
 42
-0.045530
  0
VERTEX
  8
0
 10
624.186508
 20
93.000000
 42
-0.173885
  0
VERTEX
  8
0
 10
624.247040
 20
93.434902
 42
-0.382739
  0
VERTEX
  8
0
 10
624.537145
 20
93.543138
 42
-0.086088
  0
VERTEX
  8
0
 10
625.170239
 20
93.158692
 42
-0.015425
  0
VERTEX
  8
0
 10
626.186508
 20
92.215100
 42
-0.083928
  0
VERTEX
  8
0
 10
627.500782
 20
90.390221
 42
-0.080335
  0
VERTEX
  8
0
 10
628.167431
 20
88.207046
 42
-0.031518
  0
VERTEX
  8
0
 10
628.435915
 20
84.536941
 42
-0.002980
  0
VERTEX
  8
0
 10
628.472436
 20
75.515475
 42
0.000000
  0
VERTEX
  8
0
 10
628.444872
 20
61.100750
 42
0.000000
  0
VERTEX
  8
0
 10
620.472436
 20
52.835757
 42
-0.013503
  0
VERTEX
  8
0
 10
614.505815
 20
46.975448
 42
-0.041953
  0
VERTEX
  8
0
 10
610.074016
 20
43.496343
 42
-0.043421
  0
VERTEX
  8
0
 10
605.206344
 20
40.869253
 42
-0.015263
  0
VERTEX
  8
0
 10
597.819361
 20
37.939407
 42
-0.022976
  0
VERTEX
  8
0
 10
590.541056
 20
35.678995
 42
-0.037125
  0
VERTEX
  8
0
 10
584.163911
 20
34.512194
 42
-0.038364
  0
VERTEX
  8
0
 10
577.836639
 20
34.321951
 42
-0.026731
  0
VERTEX
  8
0
 10
570.724952
 20
35.036080
 42
-0.046100
  0
VERTEX
  8
0
 10
562.684453
 20
37.052051
 42
-0.074056
  0
VERTEX
  8
0
 10
556.444758
 20
40.345354
 42
-0.077541
  0
VERTEX
  8
0
 10
551.629518
 20
45.188163
 42
-0.055761
  0
VERTEX
  8
0
 10
547.858224
 20
51.830749
 42
-0.030108
  0
VERTEX
  8
0
 10
545.946856
 20
57.153370
 42
-0.067604
  0
VERTEX
  8
0
 10
545.308592
 20
61.389041
 42
-0.066693
  0
VERTEX
  8
0
 10
545.819672
 20
65.677086
 42
-0.028649
  0
VERTEX
  8
0
 10
547.576483
 20
71.178584
 42
-0.001824
  0
VERTEX
  8
0
 10
548.677307
 20
74.016519
 42
-0.002753
  0
VERTEX
  8
0
 10
549.658861
 20
76.479850
 42
-0.001077
  0
VERTEX
  8
0
 10
550.517411
 20
78.587398
 42
-0.064268
  0
VERTEX
  8
0
 10
550.720513
 20
78.944309
 42
-0.434077
  0
VERTEX
  8
0
 10
550.975862
 20
78.971481
 42
-0.013188
  0
VERTEX
  8
0
 10
551.851462
 20
78.172899
 42
-0.018290
  0
VERTEX
  8
0
 10
552.908594
 20
77.079241
 42
-0.010617
  0
VERTEX
  8
0
 10
554.100446
 20
75.694309
 42
0.026800
  0
VERTEX
  8
0
 10
555.595945
 20
74.066173
 42
0.047138
  0
VERTEX
  8
0
 10
557.015709
 20
72.917965
 42
0.058370
  0
VERTEX
  8
0
 10
558.370282
 20
72.231201
 42
0.088384
  0
VERTEX
  8
0
 10
559.667996
 20
72.000000
 42
0.096298
  0
VERTEX
  8
0
 10
562.181481
 20
72.488616
 42
0.019294
  0
VERTEX
  8
0
 10
566.364054
 20
74.369441
 42
0.018426
  0
VERTEX
  8
0
 10
571.407632
 20
77.111799
 42
0.012073
  0
VERTEX
  8
0
 10
577.017070
 20
80.620904
 42
0.006365
  0
VERTEX
  8
0
 10
579.494000
 20
82.300537
 42
0.091584
  0
VERTEX
  8
0
 10
580.238331
 20
83.053661
 42
0.447325
  0
VERTEX
  8
0
 10
580.123104
 20
83.515730
 42
0.085283
  0
VERTEX
  8
0
 10
579.190707
 20
83.819551
 42
-0.114092
  0
VERTEX
  8
0
 10
577.667394
 20
84.413978
 42
-0.277784
  0
VERTEX
  8
0
 10
577.184422
 20
85.468070
 42
-0.089027
  0
VERTEX
  8
0
 10
577.764282
 20
87.412292
 42
-0.008355
  0
VERTEX
  8
0
 10
580.095490
 20
91.845192
 42
-0.003131
  0
VERTEX
  8
0
 10
582.631198
 20
96.409298
 42
-0.066088
  0
VERTEX
  8
0
 10
583.563971
 20
97.648187
 42
-0.101896
  0
VERTEX
  8
0
 10
584.707661
 20
98.414548
 42
-0.011178
  0
VERTEX
  8
0
 10
587.675591
 20
99.548365
 42
-0.012598
  0
VERTEX
  8
0
 10
590.652289
 20
100.526108
 42
-0.050454
  0
VERTEX
  8
0
 10
592.532600
 20
100.890356
 42
-0.119562
  0
VERTEX
  8
0
 10
593.588498
 20
100.733504
 42
-0.305323
  0
SEQEND
  0
POLYLINE
  8
0
 66
1
 70
1
  0
VERTEX
  8
0
 10
570.500000
 20
96.608986
 42
-0.090736
  0
VERTEX
  8
0
 10
570.352623
 20
95.803555
 42
-0.056572
  0
VERTEX
  8
0
 10
569.912500
 20
94.947693
 42
-0.054381
  0
VERTEX
  8
0
 10
569.264929
 20
94.173633
 42
-0.064891
  0
VERTEX
  8
0
 10
568.500000
 20
93.608986
 42
0.028701
  0
VERTEX
  8
0
 10
567.445809
 20
92.942655
 42
0.006752
  0
VERTEX
  8
0
 10
565.765625
 20
91.705824
 42
0.006933
  0
VERTEX
  8
0
 10
563.869533
 20
90.228370
 42
0.006772
  0
VERTEX
  8
0
 10
562.000000
 20
88.687436
 42
-0.006372
  0
VERTEX
  8
0
 10
554.702229
 20
82.662547
 42
-0.574589
  0
VERTEX
  8
0
 10
553.636714
 20
83.070496
 42
-0.212392
  0
VERTEX
  8
0
 10
554.173804
 20
85.118562
 42
-0.004173
  0
VERTEX
  8
0
 10
561.177119
 20
93.719376
 42
-0.014161
  0
VERTEX
  8
0
 10
563.439003
 20
96.298063
 42
-0.047539
  0
VERTEX
  8
0
 10
565.115060
 20
97.790243
 42
-0.075668
  0
VERTEX
  8
0
 10
566.556714
 20
98.543299
 42
-0.104844
  0
VERTEX
  8
0
 10
568.000000
 20
98.719376
 42
-0.049575
  0
VERTEX
  8
0
 10
569.116652
 20
98.508563
 42
-0.104232
  0
VERTEX
  8
0
 10
569.890487
 20
98.092446
 42
-0.125934
  0
VERTEX
  8
0
 10
570.341412
 20
97.459690
 42
-0.092414
  0
SEQEND
  0
POLYLINE
  8
0
 66
1
 70
1
  0
VERTEX
  8
0
 10
55.500000
 20
90.529409
 42
-0.005306
  0
VERTEX
  8
0
 10
54.841461
 20
90.331133
 42
-0.000391
  0
VERTEX
  8
0
 10
53.031250
 20
89.808530
 42
-0.000544
  0
VERTEX
  8
0
 10
50.870978
 20
89.189241
 42
-0.000413
  0
VERTEX
  8
0
 10
48.500000
 20
88.514458
 42
0.015359
  0
VERTEX
  8
0
 10
39.238644
 20
85.576766
 42
0.025616
  0
VERTEX
  8
0
 10
31.672060
 20
82.474486
 42
0.024654
  0
VERTEX
  8
0
 10
24.265947
 20
78.527831
 42
0.013013
  0
VERTEX
  8
0
 10
15.465795
 20
72.949877
 42
0.046915
  0
VERTEX
  8
0
 10
8.306102
 20
67.103972
 42
0.074145
  0
VERTEX
  8
0
 10
3.554203
 20
60.778546
 42
0.075022
  0
VERTEX
  8
0
 10
0.889286
 20
53.398117
 42
0.049227
  0
VERTEX
  8
0
 10
0.000000
 20
44.387431
 42
0.015802
  0
VERTEX
  8
0
 10
0.141956
 20
39.896768
 42
0.054960
  0
VERTEX
  8
0
 10
0.641013
 20
37.041090
 42
0.050102
  0
VERTEX
  8
0
 10
1.773350
 20
34.230123
 42
0.011591
  0
VERTEX
  8
0
 10
4.250000
 20
29.763158
 42
0.049864
  0
VERTEX
  8
0
 10
11.370249
 20
19.978464
 42
0.052400
  0
VERTEX
  8
0
 10
20.179786
 20
11.976861
 42
0.053046
  0
VERTEX
  8
0
 10
30.354601
 20
6.060562
 42
0.053578
  0
VERTEX
  8
0
 10
41.512769
 20
2.441539
 42
0.018414
  0
VERTEX
  8
0
 10
46.074897
 20
1.659561
 42
0.019631
  0
VERTEX
  8
0
 10
50.585869
 20
1.235744
 42
0.016225
  0
VERTEX
  8
0
 10
55.792515
 20
1.121311
 42
0.007417
  0
VERTEX
  8
0
 10
62.589844
 20
1.293359
 42
0.000000
  0
VERTEX
  8
0
 10
75.679689
 20
1.819059
 42
0.000000
  0
VERTEX
  8
0
 10
84.754434
 20
6.376670
 42
0.024936
  0
VERTEX
  8
0
 10
91.510710
 20
10.202925
 42
0.034261
  0
VERTEX
  8
0
 10
97.135209
 20
14.335336
 42
0.037139
  0
VERTEX
  8
0
 10
101.777827
 20
18.895030
 42
0.039591
  0
VERTEX
  8
0
 10
105.586832
 20
24.000000
 42
0.054795
  0
VERTEX
  8
0
 10
107.620204
 20
28.183710
 42
0.053664
  0
VERTEX
  8
0
 10
108.714121
 20
32.738653
 42
0.059943
  0
VERTEX
  8
0
 10
108.748759
 20
36.706969
 42
0.194150
  0
VERTEX
  8
0
 10
107.522206
 20
38.981570
 42
-0.099977
  0
VERTEX
  8
0
 10
106.937535
 20
39.706387
 42
-0.041169
  0
VERTEX
  8
0
 10
106.447148
 20
40.875381
 42
-0.038607
  0
VERTEX
  8
0
 10
106.112468
 20
42.256574
 42
-0.040160
  0
VERTEX
  8
0
 10
106.000000
 20
43.654563
 42
0.072500
  0
VERTEX
  8
0
 10
105.392936
 20
47.819215
 42
0.069703
  0
VERTEX
  8
0
 10
103.620052
 20
51.698465
 42
0.046008
  0
VERTEX
  8
0
 10
100.191300
 20
56.118122
 42
0.013322
  0
VERTEX
  8
0
 10
94.123263
 20
62.271682
 42
-0.005017
  0
VERTEX
  8
0
 10
88.659377
 20
67.631546
 42
-0.040557
  0
VERTEX
  8
0
 10
86.387989
 20
70.306956
 42
-0.086383
  0
VERTEX
  8
0
 10
85.354201
 20
72.444336
 42
-0.069653
  0
VERTEX
  8
0
 10
85.000000
 20
74.974629
 42
0.051657
  0
VERTEX
  8
0
 10
84.568108
 20
79.143830
 42
0.108348
  0
VERTEX
  8
0
 10
83.239212
 20
82.101310
 42
0.088216
  0
VERTEX
  8
0
 10
80.591658
 20
84.600936
 42
0.026403
  0
VERTEX
  8
0
 10
75.779074
 20
87.407136
 42
0.013817
  0
VERTEX
  8
0
 10
71.820930
 20
89.306815
 42
0.039615
  0
VERTEX
  8
0
 10
68.948462
 20
90.325022
 42
0.045415
  0
VERTEX
  8
0
 10
66.177973
 20
90.802578
 42
0.023197
  0
VERTEX
  8
0
 10
62.647277
 20
90.921053
 42
0.004505
  0
VERTEX
  8
0
 10
60.219880
 20
90.868000
 42
0.005970
  0
VERTEX
  8
0
 10
58.012013
 20
90.773441
 42
0.004359
  0
VERTEX
  8
0
 10
56.168272
 20
90.656282
 42
0.057786
  0
SEQEND
  0
POLYLINE
  8
0
 66
1
 70
1
  0
VERTEX
  8
0
 10
80.686657
 20
80.374177
 42
-0.168754
  0
VERTEX
  8
0
 10
80.742037
 20
78.646818
 42
-0.051827
  0
VERTEX
  8
0
 10
79.697188
 20
76.215406
 42
-0.052275
  0
VERTEX
  8
0
 10
78.245929
 20
74.156065
 42
-0.280593
  0
VERTEX
  8
0
 10
76.992433
 20
73.760970
 42
0.019488
  0
VERTEX
  8
0
 10
76.271059
 20
73.909311
 42
0.001109
  0
VERTEX
  8
0
 10
74.027962
 20
74.275030
 42
0.001695
  0
VERTEX
  8
0
 10
71.354837
 20
74.695487
 42
0.001243
  0
VERTEX
  8
0
 10
68.386677
 20
75.144491
 42
0.014015
  0
VERTEX
  8
0
 10
63.340417
 20
75.751027
 42
0.055072
  0
VERTEX
  8
0
 10
60.211759
 20
75.693328
 42
0.038799
  0
VERTEX
  8
0
 10
56.688138
 20
74.956896
 42
0.004554
  0
VERTEX
  8
0
 10
49.000000
 20
72.640023
 42
0.024927
  0
VERTEX
  8
0
 10
44.905976
 20
71.137909
 42
0.090345
  0
VERTEX
  8
0
 10
42.597640
 20
69.619949
 42
0.127861
  0
VERTEX
  8
0
 10
41.406842
 20
67.697412
 42
0.075194
  0
VERTEX
  8
0
 10
41.000000
 20
65.007435
 42
0.030399
  0
VERTEX
  8
0
 10
41.092087
 20
63.494190
 42
0.033866
  0
VERTEX
  8
0
 10
41.367187
 20
62.058067
 42
0.036098
  0
VERTEX
  8
0
 10
41.768022
 20
60.884521
 42
0.125034
  0
VERTEX
  8
0
 10
42.250000
 20
60.250609
 42
0.177996
  0
VERTEX
  8
0
 10
43.950849
 20
59.687640
 42
0.014486
  0
VERTEX
  8
0
 10
48.714364
 20
59.981580
 42
0.020217
  0
VERTEX
  8
0
 10
53.911734
 20
60.666498
 42
0.027839
  0
VERTEX
  8
0
 10
58.500000
 20
61.726875
 42
-0.034761
  0
VERTEX
  8
0
 10
61.045942
 20
62.278281
 42
-0.051635
  0
VERTEX
  8
0
 10
63.323552
 20
62.370838
 42
-0.049515
  0
VERTEX
  8
0
 10
65.640817
 20
61.993283
 42
-0.028943
  0
VERTEX
  8
0
 10
68.315100
 20
61.112005
 42
0.031267
  0
VERTEX
  8
0
 10
69.629812
 20
60.685516
 42
0.017680
  0
VERTEX
  8
0
 10
71.266738
 20
60.326651
 42
0.017597
  0
VERTEX
  8
0
 10
72.949369
 20
60.080481
 42
0.027527
  0
VERTEX
  8
0
 10
74.410112
 20
60.000000
 42
-0.045775
  0
VERTEX
  8
0
 10
75.850946
 20
59.867815
 42
-0.044799
  0
VERTEX
  8
0
 10
77.254557
 20
59.475559
 42
-0.047330
  0
VERTEX
  8
0
 10
78.483337
 20
58.871901
 42
-0.071121
  0
VERTEX
  8
0
 10
79.400520
 20
58.109924
 42
0.034709
  0
VERTEX
  8
0
 10
80.347701
 20
57.199084
 42
0.010803
  0
VERTEX
  8
0
 10
81.889505
 20
55.965379
 42
0.010742
  0
VERTEX
  8
0
 10
83.676753
 20
54.657460
 42
0.011647
  0
VERTEX
  8
0
 10
85.471687
 20
53.463493
 42
-0.024540
  0
VERTEX
  8
0
 10
87.584596
 20
51.978063
 42
-0.053936
  0
VERTEX
  8
0
 10
89.001340
 20
50.605414
 42
-0.066525
  0
VERTEX
  8
0
 10
89.905934
 20
49.164434
 42
-0.060645
  0
VERTEX
  8
0
 10
90.435737
 20
47.490857
 42
0.041938
  0
VERTEX
  8
0
 10
90.811825
 20
46.128098
 42
0.030803
  0
VERTEX
  8
0
 10
91.443628
 20
44.692878
 42
0.031402
  0
VERTEX
  8
0
 10
92.216770
 20
43.400316
 42
0.058414
  0
VERTEX
  8
0
 10
93.019558
 20
42.482301
 42
-0.130700
  0
VERTEX
  8
0
 10
94.402138
 20
40.350265
 42
-0.068143
  0
VERTEX
  8
0
 10
94.971051
 20
37.211414
 42
-0.062104
  0
VERTEX
  8
0
 10
94.685633
 20
33.687642
 42
-0.065212
  0
VERTEX
  8
0
 10
93.541998
 20
30.403638
 42
-0.066773
  0
VERTEX
  8
0
 10
91.068385
 20
26.777845
 42
-0.026086
  0
VERTEX
  8
0
 10
86.778344
 20
22.477575
 42
-0.026269
  0
VERTEX
  8
0
 10
81.906973
 20
18.522947
 42
-0.047879
  0
VERTEX
  8
0
 10
77.500000
 20
15.918944
 42
-0.035819
  0
VERTEX
  8
0
 10
74.122469
 20
14.622915
 42
-0.045522
  0
VERTEX
  8
0
 10
70.853741
 20
13.947353
 42
-0.024749
  0
VERTEX
  8
0
 10
66.235822
 20
13.654486
 42
-0.003767
  0
VERTEX
  8
0
 10
57.000000
 20
13.596198
 42
-0.003704
  0
VERTEX
  8
0
 10
47.435478
 20
13.678752
 42
-0.027495
  0
VERTEX
  8
0
 10
42.896336
 20
14.001636
 42
-0.048777
  0
VERTEX
  8
0
 10
39.540480
 20
14.764293
 42
-0.027218
  0
VERTEX
  8
0
 10
35.638556
 20
16.301840
 42
-0.017008
  0
VERTEX
  8
0
 10
33.145288
 20
17.548949
 42
-0.012934
  0
VERTEX
  8
0
 10
30.499558
 20
19.076747
 42
-0.013121
  0
VERTEX
  8
0
 10
28.090880
 20
20.640374
 42
-0.029635
  0
VERTEX
  8
0
 10
26.375058
 20
21.975557
 42
0.014965
  0
VERTEX
  8
0
 10
24.854274
 20
23.232264
 42
0.010934
  0
VERTEX
  8
0
 10
23.095072
 20
24.538818
 42
0.011067
  0
VERTEX
  8
0
 10
21.372130
 20
25.704465
 42
0.023861
  0
VERTEX
  8
0
 10
19.986502
 20
26.506980
 42
-0.039076
  0
VERTEX
  8
0
 10
18.454364
 20
27.457682
 42
-0.099794
  0
VERTEX
  8
0
 10
17.578906
 20
28.419565
 42
-0.098166
  0
VERTEX
  8
0
 10
17.136436
 20
29.655604
 42
-0.037031
  0
VERTEX
  8
0
 10
17.000000
 20
31.495264
 42
0.047255
  0
VERTEX
  8
0
 10
16.849423
 20
33.084949
 42
0.024158
  0
VERTEX
  8
0
 10
16.378070
 20
35.034815
 42
0.023770
  0
VERTEX
  8
0
 10
15.693626
 20
37.013515
 42
0.032812
  0
VERTEX
  8
0
 10
14.882792
 20
38.708679
 42
-0.032294
  0
VERTEX
  8
0
 10
13.844054
 20
40.874545
 42
-0.053379
  0
VERTEX
  8
0
 10
13.291889
 20
42.824313
 42
-0.046954
  0
VERTEX
  8
0
 10
13.126126
 20
45.016420
 42
-0.019414
  0
VERTEX
  8
0
 10
13.296306
 20
47.989096
 42
-0.040142
  0
VERTEX
  8
0
 10
14.212164
 20
53.131532
 42
-0.068121
  0
VERTEX
  8
0
 10
15.881482
 20
57.163629
 42
-0.062261
  0
VERTEX
  8
0
 10
18.690049
 20
60.835834
 42
-0.028315
  0
VERTEX
  8
0
 10
23.175325
 20
64.905887
 42
-0.025144
  0
VERTEX
  8
0
 10
28.951662
 20
69.117591
 42
-0.016238
  0
VERTEX
  8
0
 10
36.022928
 20
73.426409
 42
-0.015281
  0
VERTEX
  8
0
 10
42.831543
 20
77.007712
 42
-0.060844
  0
VERTEX
  8
0
 10
47.284751
 20
78.543650
 42
0.019988
  0
VERTEX
  8
0
 10
48.609817
 20
78.882789
 42
0.018756
  0
VERTEX
  8
0
 10
49.932440
 20
79.332927
 42
0.019110
  0
VERTEX
  8
0
 10
51.074316
 20
79.820779
 42
0.059203
  0
VERTEX
  8
0
 10
51.783129
 20
80.265412
 42
-0.145657
  0
VERTEX
  8
0
 10
52.818057
 20
80.689897
 42
-0.015988
  0
VERTEX
  8
0
 10
55.407665
 20
80.866209
 42
-0.016284
  0
VERTEX
  8
0
 10
58.864077
 20
80.878106
 42
-0.007877
  0
VERTEX
  8
0
 10
63.283129
 20
80.679660
 42
0.008666
  0
VERTEX
  8
0
 10
67.455816
 20
80.498868
 42
0.013634
  0
VERTEX
  8
0
 10
71.042543
 20
80.503517
 42
0.011489
  0
VERTEX
  8
0
 10
73.906832
 20
80.651267
 42
0.123729
  0
VERTEX
  8
0
 10
75.000000
 20
81.014408
 42
-0.074007
  0
VERTEX
  8
0
 10
76.725864
 20
81.783442
 42
-0.096183
  0
VERTEX
  8
0
 10
78.447698
 20
81.920899
 42
-0.117500
  0
VERTEX
  8
0
 10
79.845929
 20
81.416772
 42
-0.157386
  0
SEQEND
  0
POLYLINE
  8
0
 66
1
 70
1
  0
VERTEX
  8
0
 10
811.812500
 20
86.316886
 42
0.051402
  0
VERTEX
  8
0
 10
812.359369
 20
86.160852
 42
0.054150
  0
VERTEX
  8
0
 10
812.916927
 20
86.123424
 42
0.060344
  0
VERTEX
  8
0
 10
813.402231
 20
86.202593
 42
0.126455
  0
VERTEX
  8
0
 10
813.729167
 20
86.395833
 42
0.296942
  0
VERTEX
  8
0
 10
813.775380
 20
86.614691
 42
0.208169
  0
VERTEX
  8
0
 10
813.592839
 20
86.799335
 42
0.077125
  0
VERTEX
  8
0
 10
813.112848
 20
86.910055
 42
0.028489
  0
VERTEX
  8
0
 10
812.416667
 20
86.921053
 42
0.018894
  0
VERTEX
  8
0
 10
811.670344
 20
86.862007
 42
0.168741
  0
VERTEX
  8
0
 10
811.378580
 20
86.720685
 42
0.470617
  0
VERTEX
  8
0
 10
811.395823
 20
86.538436
 42
0.054073
  0
SEQEND
  0
ENDSEC
  0
EOF
